<?xml version="1.0" encoding="UTF-8" standalone="no"?>
<!DOCTYPE svg PUBLIC "-//W3C//DTD SVG 1.1//EN" "http://www.w3.org/Graphics/SVG/1.1/DTD/svg11.dtd">
<svg width="100%" height="100%" viewBox="0 0 601 140" version="1.1" xmlns="http://www.w3.org/2000/svg" xmlns:xlink="http://www.w3.org/1999/xlink" xml:space="preserve" xmlns:serif="http://www.serif.com/" style="fill-rule:evenodd;clip-rule:evenodd;stroke-linecap:round;stroke-linejoin:round;stroke-miterlimit:1.5;">
    <g transform="matrix(1,0,0,1,-202,-8290)">
        <g id="Channel-Buffering" serif:id="Channel Buffering" transform="matrix(0.585938,0,0,0.182292,202.331,8290)">
            <rect x="0" y="0" width="1024" height="768" style="fill:none;"/>
            <g id="Livello-1" serif:id="Livello 1">
            </g>
            <g transform="matrix(1.71714,0,0,1.03028,-126.058,-257.829)">
                <g id="Gopher" transform="matrix(0.113657,0,0,0.6036,464.58,268.953)">
                    <path d="M381.081,363.552C378.301,364.788 373.668,395.058 387.876,396.602C397.452,397.529 423.707,400.618 429.884,396.602C441.931,388.88 440.695,370.347 433.9,365.714C422.471,358.301 384.17,362.008 381.081,363.552ZM302.625,136.834C270.811,133.127 217.375,162.78 209.344,225.792C200.695,291.274 277.915,356.139 352.046,291.274C391.892,256.371 405.792,148.88 302.625,136.834ZM517.606,136.834C414.44,148.88 428.34,256.371 468.185,291.274C542.317,356.139 619.537,291.274 610.888,225.792C603.166,162.78 549.73,133.127 517.606,136.834Z" style="fill:white;fill-rule:nonzero;"/>
                    <path d="M142.985,539.58C142.816,467.34 108.036,399.639 49.623,357.844C34.88,347.205 24.493,339.773 24.493,339.773L43.503,283.52C43.503,283.52 114.274,336.235 142.426,357.204C144.622,358.843 147.553,359.073 149.973,357.796C152.393,356.518 153.878,353.959 153.795,351.204C153.677,346.99 153.464,342.967 153.127,339.151C147.568,281.39 142.934,222.703 150.039,183.166C153.745,161.236 81.467,156.293 105.251,106.873C125.637,64.556 175.985,101.931 188.649,88.649C253.205,21.622 331.66,3.707 393.436,2.162L427.413,2.162C488.88,5.251 567.336,21.931 632.201,88.649C644.865,101.931 694.903,64.556 715.598,106.873C739.382,155.985 667.104,161.236 670.811,183.166C677.606,222.703 672.973,281.39 667.722,339.151C658.764,437.066 731.969,671.506 579.382,765.714C550.656,783.629 482.394,793.514 415.058,795.058L414.44,795.058C347.104,793.514 269.575,783.629 240.849,765.714C160.335,715.903 142.856,626.889 142.985,539.58ZM517.606,136.834C414.44,148.88 428.34,256.371 468.185,291.274C542.317,356.139 619.537,291.274 610.888,225.792C603.166,162.78 549.73,133.127 517.606,136.834ZM381.081,363.552C378.301,364.788 373.668,395.058 387.876,396.602C397.452,397.529 423.707,400.618 429.884,396.602C441.931,388.88 440.695,370.347 433.9,365.714C422.471,358.301 384.17,362.008 381.081,363.552ZM302.625,136.834C270.811,133.127 217.375,162.78 209.344,225.792C200.695,291.274 277.915,356.139 352.046,291.274C391.892,256.371 405.792,148.88 302.625,136.834Z" style="fill:url(#_Linear1);"/>
                    <path d="M410.425,299.614C429.884,296.834 476.525,319.073 473.436,345.328C469.73,375.907 353.282,379.923 347.104,343.475C343.398,321.236 361.004,307.027 410.425,299.614ZM608.726,769.73C614.903,778.687 615.212,784.865 605.328,789.498C567.645,806.795 533.977,783.629 546.641,777.143C573.514,763.552 590.193,742.239 608.726,769.73ZM211.815,772.819C230.347,745.328 247.027,766.641 273.9,780.232C286.564,786.718 252.896,809.884 215.212,792.587C205.328,787.954 205.637,781.776 211.815,772.819Z" style="fill:rgb(172,163,155);fill-rule:nonzero;"/>
                    <path d="M657.838,114.286C659.382,107.799 675.444,104.71 684.402,115.83C695.212,129.112 668.649,147.336 667.413,139.923C664.324,119.846 655.985,120.772 657.838,114.286ZM162.703,114.286C164.556,120.772 156.216,119.846 153.127,139.923C151.892,147.336 125.328,129.112 136.139,115.83C144.788,104.71 160.849,107.799 162.703,114.286ZM509.93,264.71C490.483,264.71 474.718,248.945 474.718,229.498C474.718,210.051 490.483,194.286 509.93,194.286C529.377,194.286 545.142,210.051 545.142,229.498C545.142,248.945 529.377,264.71 509.93,264.71ZM500.664,225.483C506.805,225.483 511.783,220.504 511.783,214.363C511.783,208.222 506.805,203.243 500.664,203.243C494.522,203.243 489.544,208.222 489.544,214.363C489.544,220.504 494.522,225.483 500.664,225.483ZM378.61,314.44C382.317,300.232 395.29,295.598 405.792,295.29C432.664,294.672 442.857,309.189 443.784,320.618C445.637,340.077 370.27,344.71 378.61,314.44ZM269.645,264.71C250.198,264.71 234.433,248.945 234.433,229.498C234.433,210.051 250.198,194.286 269.645,194.286C289.092,194.286 304.857,210.051 304.857,229.498C304.857,248.945 289.092,264.71 269.645,264.71ZM278.911,225.483C285.053,225.483 290.031,220.504 290.031,214.363C290.031,208.222 285.053,203.243 278.911,203.243C272.77,203.243 267.792,208.222 267.792,214.363C267.792,220.504 272.77,225.483 278.911,225.483Z" style="fill:rgb(65,65,65);fill-rule:nonzero;"/>
                </g>
                <g transform="matrix(0.159715,0,0,0.86834,435.357,164.84)">
                    <path d="M654.229,501.986C644.654,501.677 638.476,489.013 638.476,481.291C638.476,467.392 640.329,451.021 650.522,443.917C671.526,429.399 688.206,502.295 654.229,501.986Z" style="fill:rgb(172,163,155);fill-rule:nonzero;"/>
                </g>
                <g transform="matrix(0.173028,-0.764621,0.127942,0.830902,375.979,129.803)">
                    <path d="M147.259,545.792C113.282,546.1 129.961,473.205 150.965,487.722C161.158,494.826 163.012,511.197 163.012,525.097C163.012,532.819 156.834,545.483 147.259,545.792Z" style="fill:rgb(172,163,155);fill-rule:nonzero;"/>
                </g>
            </g>
            <g transform="matrix(1.66667,0,0,1,-107.886,-125.668)">
                <g transform="matrix(1.024,0,0,5.48571,17.7181,-19461.7)">
                    <path d="M399.696,3632.71L441.551,3618.69L417.339,3594.6L375.694,3608.44L399.696,3632.71Z" style="fill:url(#_Linear2);stroke:rgb(243,193,5);stroke-width:1px;"/>
                </g>
                <g transform="matrix(1.024,0,0,5.48571,-8.73115e-14,-19254.9)">
                    <path d="M434.701,3557.64L434.701,3589" style="fill:none;stroke:rgb(157,123,4);stroke-width:1px;"/>
                </g>
                <g transform="matrix(1.36825,0,0,7.32989,-371.332,-61231)">
                    <circle cx="590.157" cy="8410.57" r="12.561" style="fill:url(#_Radial3);"/>
                    <path d="M590.157,8397.26C597.502,8397.26 603.466,8403.22 603.466,8410.57C603.466,8417.92 597.502,8423.88 590.157,8423.88C582.811,8423.88 576.847,8417.92 576.847,8410.57C576.847,8403.22 582.811,8397.26 590.157,8397.26ZM590.157,8398.01C583.224,8398.01 577.595,8403.64 577.595,8410.57C577.595,8417.5 583.224,8423.13 590.157,8423.13C597.089,8423.13 602.718,8417.5 602.718,8410.57C602.718,8403.64 597.089,8398.01 590.157,8398.01Z" style="fill:rgb(0,167,109);"/>
                </g>
                <g transform="matrix(1.024,0,0,5.48571,17.7181,-19461.7)">
                    <path d="M399.696,3632.71L441.551,3618.69L417.339,3594.6L375.694,3608.44L399.696,3632.71Z" style="fill:none;stroke:rgb(243,193,5);stroke-width:1px;"/>
                </g>
                <g transform="matrix(1.024,0,0,5.48571,-8.88178e-14,-19254.9)">
                    <path d="M392.997,3570.73L392.997,3603.02L416.956,3626.98L416.999,3595L392.997,3570.73Z" style="fill:rgb(231,182,5);stroke:rgb(243,193,5);stroke-width:1px;"/>
                </g>
                <g transform="matrix(1.024,0,0,5.48571,-8.73115e-14,-19254.9)">
                    <path d="M458.903,3581.03L416.999,3595L416.956,3626.98L458.752,3613.05L458.903,3581.03Z" style="fill:rgb(250,208,55);stroke:rgb(243,193,5);stroke-width:1px;"/>
                </g>
                <g transform="matrix(1.024,0,0,5.48571,17.7181,-19461.7)">
                    <path d="M375.694,3608.44L399.696,3632.71L441.551,3618.69" style="fill:none;stroke:rgb(243,193,5);stroke-width:1px;"/>
                </g>
            </g>
            <g transform="matrix(1.66667,0,0,1,-179.218,-49.2408)">
                <g transform="matrix(1.024,0,0,5.48571,17.7181,-19461.7)">
                    <path d="M399.696,3632.71L441.551,3618.69L417.339,3594.6L375.694,3608.44L399.696,3632.71Z" style="fill:url(#_Linear4);stroke:rgb(243,193,5);stroke-width:1px;"/>
                </g>
                <g transform="matrix(1.024,0,0,5.48571,-8.73115e-14,-19254.9)">
                    <path d="M434.701,3557.64L434.701,3589" style="fill:none;stroke:rgb(157,123,4);stroke-width:1px;"/>
                </g>
                <g transform="matrix(1.36825,0,0,7.32989,-371.332,-61238.4)">
                    <circle cx="590.157" cy="8410.57" r="12.561" style="fill:url(#_Radial5);"/>
                    <path d="M590.157,8397.26C597.502,8397.26 603.466,8403.22 603.466,8410.57C603.466,8417.92 597.502,8423.88 590.157,8423.88C582.811,8423.88 576.847,8417.92 576.847,8410.57C576.847,8403.22 582.811,8397.26 590.157,8397.26ZM590.157,8398.01C583.224,8398.01 577.595,8403.64 577.595,8410.57C577.595,8417.5 583.224,8423.13 590.157,8423.13C597.089,8423.13 602.718,8417.5 602.718,8410.57C602.718,8403.64 597.089,8398.01 590.157,8398.01Z" style="fill:rgb(0,167,109);"/>
                </g>
                <g transform="matrix(1.024,0,0,5.48571,17.7181,-19461.7)">
                    <path d="M399.696,3632.71L441.551,3618.69L417.339,3594.6L375.694,3608.44L399.696,3632.71Z" style="fill:none;stroke:rgb(243,193,5);stroke-width:1px;"/>
                </g>
                <g transform="matrix(1.024,0,0,5.48571,-8.88178e-14,-19254.9)">
                    <path d="M392.997,3570.73L392.997,3603.02L416.956,3626.98L416.999,3595L392.997,3570.73Z" style="fill:rgb(231,182,5);stroke:rgb(243,193,5);stroke-width:1px;"/>
                </g>
                <g transform="matrix(1.024,0,0,5.48571,-8.73115e-14,-19254.9)">
                    <path d="M458.903,3581.03L416.999,3595L416.956,3626.98L458.752,3613.05L458.903,3581.03Z" style="fill:rgb(250,208,55);stroke:rgb(243,193,5);stroke-width:1px;"/>
                </g>
                <g transform="matrix(1.024,0,0,5.48571,17.7181,-19461.7)">
                    <path d="M375.694,3608.44L399.696,3632.71L441.551,3618.69" style="fill:none;stroke:rgb(243,193,5);stroke-width:1px;"/>
                </g>
            </g>
            <g transform="matrix(1.66667,0,0,1,-250.576,27.2145)">
                <g transform="matrix(1.024,0,0,5.48571,17.7181,-19461.7)">
                    <path d="M399.696,3632.71L441.551,3618.69L417.339,3594.6L375.694,3608.44L399.696,3632.71Z" style="fill:url(#_Linear6);stroke:rgb(243,193,5);stroke-width:1px;"/>
                </g>
                <g transform="matrix(1.024,0,0,5.48571,-8.73115e-14,-19254.9)">
                    <path d="M434.701,3557.64L434.701,3589" style="fill:none;stroke:rgb(157,123,4);stroke-width:1px;"/>
                </g>
                <g transform="matrix(1.024,0,0,5.48571,17.7181,-19461.7)">
                    <path d="M399.696,3632.71L441.551,3618.69L417.339,3594.6L375.694,3608.44L399.696,3632.71Z" style="fill:none;stroke:rgb(243,193,5);stroke-width:1px;"/>
                </g>
                <g transform="matrix(1.024,0,0,5.48571,-8.88178e-14,-19254.9)">
                    <path d="M392.997,3570.73L392.997,3603.02L416.956,3626.98L416.999,3595L392.997,3570.73Z" style="fill:rgb(231,182,5);stroke:rgb(243,193,5);stroke-width:1px;"/>
                </g>
                <g transform="matrix(1.024,0,0,5.48571,-8.73115e-14,-19254.9)">
                    <path d="M458.903,3581.03L416.999,3595L416.956,3626.98L458.752,3613.05L458.903,3581.03Z" style="fill:rgb(250,208,55);stroke:rgb(243,193,5);stroke-width:1px;"/>
                </g>
                <g transform="matrix(1.024,0,0,5.48571,17.7181,-19461.7)">
                    <path d="M375.694,3608.44L399.696,3632.71L441.551,3618.69" style="fill:none;stroke:rgb(243,193,5);stroke-width:1px;"/>
                </g>
            </g>
            <g transform="matrix(1.66667,0,0,1,-322.023,103.765)">
                <g transform="matrix(1.024,0,0,5.48571,17.7181,-19461.7)">
                    <path d="M399.696,3632.71L441.551,3618.69L417.339,3594.6L375.694,3608.44L399.696,3632.71Z" style="fill:url(#_Linear7);stroke:rgb(243,193,5);stroke-width:1px;"/>
                </g>
                <g transform="matrix(1.024,0,0,5.48571,-8.73115e-14,-19254.9)">
                    <path d="M434.701,3557.64L434.701,3589" style="fill:none;stroke:rgb(157,123,4);stroke-width:1px;"/>
                </g>
                <g transform="matrix(1.024,0,0,5.48571,17.7181,-19461.7)">
                    <path d="M399.696,3632.71L441.551,3618.69L417.339,3594.6L375.694,3608.44L399.696,3632.71Z" style="fill:none;stroke:rgb(243,193,5);stroke-width:1px;"/>
                </g>
                <g transform="matrix(1.024,0,0,5.48571,-8.88178e-14,-19254.9)">
                    <path d="M392.997,3570.73L392.997,3603.02L416.956,3626.98L416.999,3595L392.997,3570.73Z" style="fill:rgb(231,182,5);stroke:rgb(243,193,5);stroke-width:1px;"/>
                </g>
                <g transform="matrix(1.024,0,0,5.48571,-8.73115e-14,-19254.9)">
                    <path d="M458.903,3581.03L416.999,3595L416.956,3626.98L458.752,3613.05L458.903,3581.03Z" style="fill:rgb(250,208,55);stroke:rgb(243,193,5);stroke-width:1px;"/>
                </g>
                <g transform="matrix(1.024,0,0,5.48571,17.7181,-19461.7)">
                    <path d="M375.694,3608.44L399.696,3632.71L441.551,3618.69" style="fill:none;stroke:rgb(243,193,5);stroke-width:1px;"/>
                </g>
            </g>
            <g transform="matrix(-1.92201,0,0,1.1532,1262.94,-112.273)">
                <g id="Gopher1" serif:id="Gopher" transform="matrix(0.113657,0,0,0.6036,464.58,268.953)">
                    <path d="M381.081,363.552C378.301,364.788 373.668,395.058 387.876,396.602C397.452,397.529 423.707,400.618 429.884,396.602C441.931,388.88 440.695,370.347 433.9,365.714C422.471,358.301 384.17,362.008 381.081,363.552ZM302.625,136.834C270.811,133.127 217.375,162.78 209.344,225.792C200.695,291.274 277.915,356.139 352.046,291.274C391.892,256.371 405.792,148.88 302.625,136.834ZM517.606,136.834C414.44,148.88 428.34,256.371 468.185,291.274C542.317,356.139 619.537,291.274 610.888,225.792C603.166,162.78 549.73,133.127 517.606,136.834Z" style="fill:white;fill-rule:nonzero;"/>
                    <path d="M143.07,529.857C143.708,464.473 112.559,402.92 59.688,365.091C39.826,350.744 24.493,339.773 24.493,339.773L43.503,283.52C43.503,283.52 116.426,337.837 143.671,358.131C145.625,359.59 148.233,359.8 150.392,358.672C152.551,357.543 153.885,355.273 153.83,352.82C153.729,348.016 153.507,343.452 153.127,339.151C147.568,281.39 142.934,222.703 150.039,183.166C153.745,161.236 81.467,156.293 105.251,106.873C125.637,64.556 175.985,101.931 188.649,88.649C253.205,21.622 331.66,3.707 393.436,2.162L427.413,2.162C488.88,5.251 567.336,21.931 632.201,88.649C644.865,101.931 694.903,64.556 715.598,106.873C739.382,155.985 667.104,161.236 670.811,183.166C677.606,222.703 672.973,281.39 667.722,339.151C658.764,437.066 731.969,671.506 579.382,765.714C550.656,783.629 482.394,793.514 415.058,795.058L414.44,795.058C347.104,793.514 269.575,783.629 240.849,765.714C157.343,714.052 141.644,620.22 143.07,529.857ZM517.606,136.834C414.44,148.88 428.34,256.371 468.185,291.274C542.317,356.139 619.537,291.274 610.888,225.792C603.166,162.78 549.73,133.127 517.606,136.834ZM381.081,363.552C378.301,364.788 373.668,395.058 387.876,396.602C397.452,397.529 423.707,400.618 429.884,396.602C441.931,388.88 440.695,370.347 433.9,365.714C422.471,358.301 384.17,362.008 381.081,363.552ZM302.625,136.834C270.811,133.127 217.375,162.78 209.344,225.792C200.695,291.274 277.915,356.139 352.046,291.274C391.892,256.371 405.792,148.88 302.625,136.834Z" style="fill:url(#_Linear8);"/>
                    <path d="M410.425,299.614C429.884,296.834 476.525,319.073 473.436,345.328C469.73,375.907 353.282,379.923 347.104,343.475C343.398,321.236 361.004,307.027 410.425,299.614ZM608.726,769.73C614.903,778.687 615.212,784.865 605.328,789.498C567.645,806.795 533.977,783.629 546.641,777.143C573.514,763.552 590.193,742.239 608.726,769.73ZM211.815,772.819C230.347,745.328 247.027,766.641 273.9,780.232C286.564,786.718 252.896,809.884 215.212,792.587C205.328,787.954 205.637,781.776 211.815,772.819Z" style="fill:rgb(172,163,155);fill-rule:nonzero;"/>
                    <path d="M657.838,114.286C659.382,107.799 675.444,104.71 684.402,115.83C695.212,129.112 668.649,147.336 667.413,139.923C664.324,119.846 655.985,120.772 657.838,114.286ZM162.703,114.286C164.556,120.772 156.216,119.846 153.127,139.923C151.892,147.336 125.328,129.112 136.139,115.83C144.788,104.71 160.849,107.799 162.703,114.286ZM509.93,264.71C490.483,264.71 474.718,248.945 474.718,229.498C474.718,210.051 490.483,194.286 509.93,194.286C529.377,194.286 545.142,210.051 545.142,229.498C545.142,248.945 529.377,264.71 509.93,264.71ZM500.664,225.483C506.805,225.483 511.783,220.504 511.783,214.363C511.783,208.222 506.805,203.243 500.664,203.243C494.522,203.243 489.544,208.222 489.544,214.363C489.544,220.504 494.522,225.483 500.664,225.483ZM378.61,314.44C382.317,300.232 395.29,295.598 405.792,295.29C432.664,294.672 442.857,309.189 443.784,320.618C445.637,340.077 370.27,344.71 378.61,314.44ZM269.645,264.71C250.198,264.71 234.433,248.945 234.433,229.498C234.433,210.051 250.198,194.286 269.645,194.286C289.092,194.286 304.857,210.051 304.857,229.498C304.857,248.945 289.092,264.71 269.645,264.71ZM278.911,225.483C285.053,225.483 290.031,220.504 290.031,214.363C290.031,208.222 285.053,203.243 278.911,203.243C272.77,203.243 267.792,208.222 267.792,214.363C267.792,220.504 272.77,225.483 278.911,225.483Z" style="fill:rgb(65,65,65);fill-rule:nonzero;"/>
                </g>
                <g transform="matrix(0.159715,0,0,0.86834,435.357,164.84)">
                    <path d="M654.229,501.986C644.654,501.677 638.476,489.013 638.476,481.291C638.476,467.392 640.329,451.021 650.522,443.917C671.526,429.399 688.206,502.295 654.229,501.986Z" style="fill:rgb(172,163,155);fill-rule:nonzero;"/>
                </g>
                <g transform="matrix(0.173028,-0.764621,0.127942,0.830902,375.979,129.803)">
                    <path d="M147.259,545.792C113.282,546.1 129.961,473.205 150.965,487.722C161.158,494.826 163.012,511.197 163.012,525.097C163.012,532.819 156.834,545.483 147.259,545.792Z" style="fill:rgb(172,163,155);fill-rule:nonzero;"/>
                </g>
            </g>
            <g transform="matrix(2.28041,0,0,7.32989,-952.663,-61264.6)">
                <circle cx="590.157" cy="8410.57" r="12.561" style="fill:url(#_Radial9);"/>
                <path d="M590.157,8397.26C597.502,8397.26 603.466,8403.22 603.466,8410.57C603.466,8417.92 597.502,8423.88 590.157,8423.88C582.811,8423.88 576.847,8417.92 576.847,8410.57C576.847,8403.22 582.811,8397.26 590.157,8397.26ZM590.157,8398.01C583.224,8398.01 577.595,8403.64 577.595,8410.57C577.595,8417.5 583.224,8423.13 590.157,8423.13C597.089,8423.13 602.718,8417.5 602.718,8410.57C602.718,8403.64 597.089,8398.01 590.157,8398.01Z" style="fill:rgb(0,167,109);"/>
            </g>
        </g>
    </g>
    <defs>
        <linearGradient id="_Linear1" x1="0" y1="0" x2="1" y2="0" gradientUnits="userSpaceOnUse" gradientTransform="matrix(619.975,0,0,792.896,100.437,398.61)"><stop offset="0" style="stop-color:rgb(140,45,97);stop-opacity:1"/><stop offset="1" style="stop-color:rgb(241,91,102);stop-opacity:1"/></linearGradient>
        <linearGradient id="_Linear2" x1="0" y1="0" x2="1" y2="0" gradientUnits="userSpaceOnUse" gradientTransform="matrix(65.8569,0,0,38.116,375.694,3613.65)"><stop offset="0" style="stop-color:rgb(255,232,63);stop-opacity:1"/><stop offset="1" style="stop-color:rgb(134,80,21);stop-opacity:1"/></linearGradient>
        <radialGradient id="_Radial3" cx="0" cy="0" r="1" gradientUnits="userSpaceOnUse" gradientTransform="matrix(7.86315,11.1493,-11.1493,7.86315,590.157,8407.21)"><stop offset="0" style="stop-color:rgb(163,207,98);stop-opacity:1"/><stop offset="1" style="stop-color:rgb(0,174,156);stop-opacity:1"/></radialGradient>
        <linearGradient id="_Linear4" x1="0" y1="0" x2="1" y2="0" gradientUnits="userSpaceOnUse" gradientTransform="matrix(65.8569,0,0,38.116,375.694,3613.65)"><stop offset="0" style="stop-color:rgb(255,232,63);stop-opacity:1"/><stop offset="1" style="stop-color:rgb(134,80,21);stop-opacity:1"/></linearGradient>
        <radialGradient id="_Radial5" cx="0" cy="0" r="1" gradientUnits="userSpaceOnUse" gradientTransform="matrix(7.86315,11.1493,-11.1493,7.86315,590.157,8407.21)"><stop offset="0" style="stop-color:rgb(163,207,98);stop-opacity:1"/><stop offset="1" style="stop-color:rgb(0,174,156);stop-opacity:1"/></radialGradient>
        <linearGradient id="_Linear6" x1="0" y1="0" x2="1" y2="0" gradientUnits="userSpaceOnUse" gradientTransform="matrix(65.8569,0,0,38.116,375.694,3613.65)"><stop offset="0" style="stop-color:rgb(255,232,63);stop-opacity:1"/><stop offset="1" style="stop-color:rgb(134,80,21);stop-opacity:1"/></linearGradient>
        <linearGradient id="_Linear7" x1="0" y1="0" x2="1" y2="0" gradientUnits="userSpaceOnUse" gradientTransform="matrix(65.8569,0,0,38.116,375.694,3613.65)"><stop offset="0" style="stop-color:rgb(255,232,63);stop-opacity:1"/><stop offset="1" style="stop-color:rgb(134,80,21);stop-opacity:1"/></linearGradient>
        <linearGradient id="_Linear8" x1="0" y1="0" x2="1" y2="0" gradientUnits="userSpaceOnUse" gradientTransform="matrix(619.975,0,0,792.896,100.437,398.61)"><stop offset="0" style="stop-color:rgb(91,203,245);stop-opacity:1"/><stop offset="1" style="stop-color:rgb(15,123,193);stop-opacity:1"/></linearGradient>
        <radialGradient id="_Radial9" cx="0" cy="0" r="1" gradientUnits="userSpaceOnUse" gradientTransform="matrix(7.86315,11.1493,-11.1493,7.86315,590.157,8407.21)"><stop offset="0" style="stop-color:rgb(163,207,98);stop-opacity:1"/><stop offset="1" style="stop-color:rgb(0,174,156);stop-opacity:1"/></radialGradient>
    </defs>
</svg>
