<?xml version="1.0" encoding="UTF-8" standalone="no"?>
<!DOCTYPE svg PUBLIC "-//W3C//DTD SVG 1.1//EN" "http://www.w3.org/Graphics/SVG/1.1/DTD/svg11.dtd">
<svg width="100%" height="100%" viewBox="0 0 601 140" version="1.1" xmlns="http://www.w3.org/2000/svg" xmlns:xlink="http://www.w3.org/1999/xlink" xml:space="preserve" xmlns:serif="http://www.serif.com/" style="fill-rule:evenodd;clip-rule:evenodd;stroke-linecap:round;stroke-linejoin:round;stroke-miterlimit:1.5;">
    <g transform="matrix(1,0,0,1,-202,-8120)">
        <g id="Channels" transform="matrix(0.585938,0,0,0.182292,202.331,8120)">
            <rect x="0" y="0" width="1024" height="768" style="fill:none;"/>
            <g id="Livello-1" serif:id="Livello 1">
            </g>
            <g transform="matrix(-2.35516,0,0,1.41309,1481.42,-306.541)">
                <g id="Gopher" transform="matrix(0.113657,0,0,0.6036,464.58,268.953)">
                    <path d="M149.333,430.844C149.429,429.755 149.514,428.666 149.587,427.575C150.24,417.936 153.581,368.557 153.769,365.781C153.775,365.701 153.778,365.621 153.78,365.541C153.992,355.943 153.829,347.097 153.127,339.151C147.568,281.39 142.934,222.703 150.039,183.166C153.745,161.236 81.467,156.293 105.251,106.873C125.637,64.556 175.985,101.931 188.649,88.649C253.205,21.622 331.66,3.707 393.436,2.162L427.413,2.162C488.88,5.251 567.336,21.931 632.201,88.649C644.865,101.931 694.903,64.556 715.598,106.873C739.382,155.985 667.104,161.236 670.811,183.166C677.606,222.703 672.973,281.39 667.722,339.151C658.764,437.066 731.969,671.506 579.382,765.714C550.656,783.629 482.394,793.514 415.058,795.058L414.44,795.058C347.104,793.514 269.575,783.629 240.849,765.714C125.609,694.42 139.505,542.813 149.333,430.844ZM517.606,136.834C414.44,148.88 428.34,256.371 468.185,291.274C542.317,356.139 619.537,291.274 610.888,225.792C603.166,162.78 549.73,133.127 517.606,136.834ZM381.081,363.552C378.301,364.788 373.668,395.058 387.876,396.602C397.452,397.529 423.707,400.618 429.884,396.602C441.931,388.88 440.695,370.347 433.9,365.714C422.471,358.301 384.17,362.008 381.081,363.552ZM302.625,136.834C270.811,133.127 217.375,162.78 209.344,225.792C200.695,291.274 277.915,356.139 352.046,291.274C391.892,256.371 405.792,148.88 302.625,136.834Z" style="fill:url(#_Linear1);"/>
                    <g transform="matrix(-5.32229,0,0,3.22174,2113.45,-18345.8)">
                        <ellipse cx="320.038" cy="5810.12" rx="11.406" ry="13.958" style="fill:rgb(65,65,65);"/>
                        <path d="M320.038,5793.42C327.36,5793.42 333.093,5801.16 333.093,5810.12C333.093,5819.09 327.36,5826.83 320.038,5826.83C312.715,5826.83 306.982,5819.09 306.982,5810.12C306.982,5801.16 312.715,5793.42 320.038,5793.42ZM320.038,5796.17C313.743,5796.17 308.632,5802.42 308.632,5810.12C308.632,5817.83 313.743,5824.08 320.038,5824.08C326.333,5824.08 331.444,5817.83 331.444,5810.12C331.444,5802.42 326.333,5796.17 320.038,5796.17Z" style="fill:rgb(5,5,5);fill-opacity:0.27;"/>
                    </g>
                    <path d="M381.081,363.552C378.301,364.788 373.668,395.058 387.876,396.602C397.452,397.529 423.707,400.618 429.884,396.602C441.931,388.88 440.695,370.347 433.9,365.714C422.471,358.301 384.17,362.008 381.081,363.552ZM302.625,136.834C270.811,133.127 217.375,162.78 209.344,225.792C200.695,291.274 277.915,356.139 352.046,291.274C391.892,256.371 405.792,148.88 302.625,136.834ZM517.606,136.834C414.44,148.88 428.34,256.371 468.185,291.274C542.317,356.139 619.537,291.274 610.888,225.792C603.166,162.78 549.73,133.127 517.606,136.834Z" style="fill:white;fill-rule:nonzero;"/>
                    <path d="M410.425,299.614C429.884,296.834 476.525,319.073 473.436,345.328C469.73,375.907 353.282,379.923 347.104,343.475C343.398,321.236 361.004,307.027 410.425,299.614ZM608.726,769.73C614.903,778.687 615.212,784.865 605.328,789.498C567.645,806.795 533.977,783.629 546.641,777.143C573.514,763.552 590.193,742.239 608.726,769.73ZM211.815,772.819C230.347,745.328 247.027,766.641 273.9,780.232C286.564,786.718 252.896,809.884 215.212,792.587C205.328,787.954 205.637,781.776 211.815,772.819Z" style="fill:rgb(172,163,155);fill-rule:nonzero;"/>
                    <path d="M657.838,114.286C659.382,107.799 675.444,104.71 684.402,115.83C695.212,129.112 668.649,147.336 667.413,139.923C664.324,119.846 655.985,120.772 657.838,114.286ZM162.703,114.286C164.556,120.772 156.216,119.846 153.127,139.923C151.892,147.336 125.328,129.112 136.139,115.83C144.788,104.71 160.849,107.799 162.703,114.286ZM509.93,264.71C490.483,264.71 474.718,248.945 474.718,229.498C474.718,210.051 490.483,194.286 509.93,194.286C529.377,194.286 545.142,210.051 545.142,229.498C545.142,248.945 529.377,264.71 509.93,264.71ZM500.664,225.483C506.805,225.483 511.783,220.504 511.783,214.363C511.783,208.222 506.805,203.243 500.664,203.243C494.522,203.243 489.544,208.222 489.544,214.363C489.544,220.504 494.522,225.483 500.664,225.483ZM378.61,314.44C382.317,300.232 395.29,295.598 405.792,295.29C432.664,294.672 442.857,309.189 443.784,320.618C445.637,340.077 370.27,344.71 378.61,314.44ZM269.645,264.71C250.198,264.71 234.433,248.945 234.433,229.498C234.433,210.051 250.198,194.286 269.645,194.286C289.092,194.286 304.857,210.051 304.857,229.498C304.857,248.945 289.092,264.71 269.645,264.71ZM278.911,225.483C285.053,225.483 290.031,220.504 290.031,214.363C290.031,208.222 285.053,203.243 278.911,203.243C272.77,203.243 267.792,208.222 267.792,214.363C267.792,220.504 272.77,225.483 278.911,225.483Z" style="fill:rgb(65,65,65);fill-rule:nonzero;"/>
                </g>
                <g transform="matrix(0.159715,0,0,0.86834,435.357,164.84)">
                    <path d="M654.229,501.986C644.654,501.677 638.476,489.013 638.476,481.291C638.476,467.392 640.329,451.021 650.522,443.917C671.526,429.399 688.206,502.295 654.229,501.986Z" style="fill:rgb(172,163,155);fill-rule:nonzero;"/>
                </g>
                <g transform="matrix(0.173028,-0.764621,0.127942,0.830902,375.979,129.803)">
                    <path d="M181.529,716.102C147.553,716.411 164.232,643.515 185.236,658.033C195.429,665.137 197.282,681.507 197.282,695.407C197.282,703.129 191.105,715.793 181.529,716.102Z" style="fill:rgb(172,163,155);fill-rule:nonzero;"/>
                </g>
            </g>
            <g transform="matrix(1.97831,0,0,1.18699,-251.49,-307.706)">
                <g id="Gopher1" serif:id="Gopher" transform="matrix(0.113657,0,0,0.6036,464.58,268.953)">
                    <path d="M381.081,363.552C378.301,364.788 373.668,395.058 387.876,396.602C397.452,397.529 423.707,400.618 429.884,396.602C441.931,388.88 440.695,370.347 433.9,365.714C422.471,358.301 384.17,362.008 381.081,363.552ZM302.625,136.834C270.811,133.127 217.375,162.78 209.344,225.792C200.695,291.274 277.915,356.139 352.046,291.274C391.892,256.371 405.792,148.88 302.625,136.834ZM517.606,136.834C414.44,148.88 428.34,256.371 468.185,291.274C542.317,356.139 619.537,291.274 610.888,225.792C603.166,162.78 549.73,133.127 517.606,136.834Z" style="fill:white;fill-rule:nonzero;"/>
                    <path d="M143.112,527.472C143.92,463.753 113.639,403.7 62.113,366.832C41.086,351.645 24.493,339.773 24.493,339.773L43.503,283.52C43.503,283.52 116.957,338.233 143.966,358.351C145.864,359.767 148.394,359.971 150.49,358.877C152.587,357.783 153.884,355.581 153.834,353.201C153.741,348.257 153.517,343.565 153.127,339.151C147.568,281.39 142.934,222.703 150.039,183.166C153.745,161.236 81.467,156.293 105.251,106.873C125.637,64.556 175.985,101.931 188.649,88.649C253.205,21.622 331.66,3.707 393.436,2.162L427.413,2.162C488.88,5.251 567.336,21.931 632.201,88.649C644.865,101.931 694.903,64.556 715.598,106.873C739.382,155.985 667.104,161.236 670.811,183.166C677.606,222.703 672.973,281.39 667.722,339.151C658.764,437.066 731.969,671.506 579.382,765.714C550.656,783.629 482.394,793.514 415.058,795.058L414.44,795.058C347.104,793.514 269.575,783.629 240.849,765.714C156.609,713.598 141.373,618.565 143.112,527.472ZM517.606,136.834C414.44,148.88 428.34,256.371 468.185,291.274C542.317,356.139 619.537,291.274 610.888,225.792C603.166,162.78 549.73,133.127 517.606,136.834ZM381.081,363.552C378.301,364.788 373.668,395.058 387.876,396.602C397.452,397.529 423.707,400.618 429.884,396.602C441.931,388.88 440.695,370.347 433.9,365.714C422.471,358.301 384.17,362.008 381.081,363.552ZM302.625,136.834C270.811,133.127 217.375,162.78 209.344,225.792C200.695,291.274 277.915,356.139 352.046,291.274C391.892,256.371 405.792,148.88 302.625,136.834Z" style="fill:url(#_Linear2);"/>
                    <path d="M410.425,299.614C429.884,296.834 476.525,319.073 473.436,345.328C469.73,375.907 353.282,379.923 347.104,343.475C343.398,321.236 361.004,307.027 410.425,299.614ZM608.726,769.73C614.903,778.687 615.212,784.865 605.328,789.498C567.645,806.795 533.977,783.629 546.641,777.143C573.514,763.552 590.193,742.239 608.726,769.73ZM211.815,772.819C230.347,745.328 247.027,766.641 273.9,780.232C286.564,786.718 252.896,809.884 215.212,792.587C205.328,787.954 205.637,781.776 211.815,772.819Z" style="fill:rgb(172,163,155);fill-rule:nonzero;"/>
                    <path d="M657.838,114.286C659.382,107.799 675.444,104.71 684.402,115.83C695.212,129.112 668.649,147.336 667.413,139.923C664.324,119.846 655.985,120.772 657.838,114.286ZM162.703,114.286C164.556,120.772 156.216,119.846 153.127,139.923C151.892,147.336 125.328,129.112 136.139,115.83C144.788,104.71 160.849,107.799 162.703,114.286ZM509.93,264.71C490.483,264.71 474.718,248.945 474.718,229.498C474.718,210.051 490.483,194.286 509.93,194.286C529.377,194.286 545.142,210.051 545.142,229.498C545.142,248.945 529.377,264.71 509.93,264.71ZM500.664,225.483C506.805,225.483 511.783,220.504 511.783,214.363C511.783,208.222 506.805,203.243 500.664,203.243C494.522,203.243 489.544,208.222 489.544,214.363C489.544,220.504 494.522,225.483 500.664,225.483ZM378.61,314.44C382.317,300.232 395.29,295.598 405.792,295.29C432.664,294.672 442.857,309.189 443.784,320.618C445.637,340.077 370.27,344.71 378.61,314.44ZM269.645,264.71C250.198,264.71 234.433,248.945 234.433,229.498C234.433,210.051 250.198,194.286 269.645,194.286C289.092,194.286 304.857,210.051 304.857,229.498C304.857,248.945 289.092,264.71 269.645,264.71ZM278.911,225.483C285.053,225.483 290.031,220.504 290.031,214.363C290.031,208.222 285.053,203.243 278.911,203.243C272.77,203.243 267.792,208.222 267.792,214.363C267.792,220.504 272.77,225.483 278.911,225.483Z" style="fill:rgb(65,65,65);fill-rule:nonzero;"/>
                </g>
                <g transform="matrix(0.159715,0,0,0.86834,435.357,164.84)">
                    <path d="M654.229,501.986C644.654,501.677 638.476,489.013 638.476,481.291C638.476,467.392 640.329,451.021 650.522,443.917C671.526,429.399 688.206,502.295 654.229,501.986Z" style="fill:rgb(172,163,155);fill-rule:nonzero;"/>
                </g>
                <g transform="matrix(0.173028,-0.764621,0.127942,0.830902,375.979,129.803)">
                    <path d="M147.259,545.792C113.282,546.1 129.961,473.205 150.965,487.722C161.158,494.826 163.012,511.197 163.012,525.097C163.012,532.819 156.834,545.483 147.259,545.792Z" style="fill:rgb(172,163,155);fill-rule:nonzero;"/>
                </g>
            </g>
            <g transform="matrix(1.13658,-2.52371e-16,-9.4639e-17,1.13658,-260.798,97.0243)">
                <g transform="matrix(0.634925,-3.53482,1.09972,2.04083,-8738.51,-14839.9)">
                    <path d="M417.733,8153.04C417.733,8150.3 422.439,8148.07 428.235,8148.07C434.031,8148.07 438.737,8150.3 438.737,8153.04C438.737,8153.22 438.718,8153.39 438.681,8153.56L436.049,8177.82C436.049,8179.86 432.548,8181.52 428.235,8181.52C423.922,8181.52 420.421,8179.86 420.421,8177.82L417.789,8153.56C417.752,8153.39 417.733,8153.22 417.733,8153.04Z" style="fill:url(#_Linear3);stroke:rgb(0,92,60);stroke-width:2.69px;"/>
                </g>
                <g transform="matrix(0.643804,-3.58425,1.1151,2.06937,-8867.76,-15051.6)">
                    <ellipse cx="428.235" cy="8177.82" rx="7.814" ry="3.699" style="fill:url(#_Linear4);stroke:rgb(0,92,60);stroke-width:2px;"/>
                </g>
            </g>
            <g transform="matrix(1.70667,0,0,5.48571,-345.312,-44544)">
                <path d="M400.949,8206.97C425.319,8227.69 438.786,8258.58 471.669,8244.28C502.394,8230.92 534.415,8258.81 562.769,8210.59C568.913,8200.15 583.724,8161.72 590.237,8160.4" style="fill:none;stroke:rgb(0,132,86);stroke-width:2px;"/>
            </g>
            <g transform="matrix(-0.308191,2.51168,-0.243106,-0.308191,907.686,-1002.46)">
                <g transform="matrix(0.634925,-3.53482,1.09972,2.04083,-8738.51,-14839.9)">
                    <path d="M420.421,8177.82L417.733,8153.04L438.737,8153.04L436.049,8177.82C436.049,8179.86 432.548,8181.52 428.235,8181.52C423.922,8181.52 420.421,8179.86 420.421,8177.82Z" style="fill:url(#_Linear5);stroke:rgb(0,92,60);stroke-width:2.69px;"/>
                </g>
                <g transform="matrix(0.853333,-4.75077,1.47802,2.74286,-11952.9,-20110.8)">
                    <ellipse cx="428.235" cy="8177.82" rx="7.814" ry="3.699" style="fill:rgb(0,135,88);stroke:rgb(0,92,60);stroke-width:2px;"/>
                </g>
            </g>
        </g>
    </g>
    <defs>
        <linearGradient id="_Linear1" x1="0" y1="0" x2="1" y2="0" gradientUnits="userSpaceOnUse" gradientTransform="matrix(619.975,0,0,792.896,100.437,398.61)"><stop offset="0" style="stop-color:rgb(91,203,245);stop-opacity:1"/><stop offset="1" style="stop-color:rgb(15,123,193);stop-opacity:1"/></linearGradient>
        <linearGradient id="_Linear2" x1="0" y1="0" x2="1" y2="0" gradientUnits="userSpaceOnUse" gradientTransform="matrix(619.975,0,0,792.896,100.437,398.61)"><stop offset="0" style="stop-color:rgb(140,45,97);stop-opacity:1"/><stop offset="1" style="stop-color:rgb(241,91,102);stop-opacity:1"/></linearGradient>
        <linearGradient id="_Linear3" x1="0" y1="0" x2="1" y2="0" gradientUnits="userSpaceOnUse" gradientTransform="matrix(21.0042,0,0,33.4456,417.733,8164.79)"><stop offset="0" style="stop-color:rgb(163,207,98);stop-opacity:1"/><stop offset="1" style="stop-color:rgb(0,174,156);stop-opacity:1"/></linearGradient>
        <linearGradient id="_Linear4" x1="0" y1="0" x2="1" y2="0" gradientUnits="userSpaceOnUse" gradientTransform="matrix(15.6283,0,0,7.39885,420.421,8177.82)"><stop offset="0" style="stop-color:rgb(163,207,98);stop-opacity:1"/><stop offset="1" style="stop-color:rgb(0,174,156);stop-opacity:1"/></linearGradient>
        <linearGradient id="_Linear5" x1="0" y1="0" x2="1" y2="0" gradientUnits="userSpaceOnUse" gradientTransform="matrix(21.0042,0,0,28.4736,417.733,8167.28)"><stop offset="0" style="stop-color:rgb(163,207,98);stop-opacity:1"/><stop offset="1" style="stop-color:rgb(0,174,156);stop-opacity:1"/></linearGradient>
    </defs>
</svg>
