<?xml version="1.0" encoding="UTF-8" standalone="no"?>
<!DOCTYPE svg PUBLIC "-//W3C//DTD SVG 1.1//EN" "http://www.w3.org/Graphics/SVG/1.1/DTD/svg11.dtd">
<svg width="100%" height="100%" viewBox="0 0 601 140" version="1.1" xmlns="http://www.w3.org/2000/svg" xmlns:xlink="http://www.w3.org/1999/xlink" xml:space="preserve" xmlns:serif="http://www.serif.com/" style="fill-rule:evenodd;clip-rule:evenodd;">
    <g transform="matrix(1,0,0,1,-201,-7250)">
        <g id="Closures" transform="matrix(0.585938,0,0,0.182292,201.763,7250)">
            <rect x="0" y="0" width="1024" height="768" style="fill:none;"/>
            <g id="g3620" transform="matrix(-0.170325,0.0557073,0.0183044,0.578216,696.509,306.477)">
                <path id="path2816" d="M141.23,169.9L148.242,116.812C148.242,116.812 142.598,-0.138 208.341,49.701C261.625,90.099 588.971,390.261 588.971,390.261L660.089,412.301L631.041,429.329L574.951,413.299L229.381,97.779C229.561,98.5 161.812,25.563 166.501,117.614C177.091,177.426 176.293,169.899 176.293,169.899L161.268,169.899L157.882,142.936L153.255,169.899L141.235,169.899L141.23,169.9Z" style="fill:rgb(192,1,100);fill-rule:nonzero;"/>
                <path id="path2833" d="M149.3,92.532C149.3,92.532 151.406,12.372 197.546,45.998C236.316,74.251 585.406,393.338 585.406,393.338L577.156,405.418L212.706,74.048C175.866,42.018 155.866,52.916 149.296,92.53L149.3,92.532Z" style="fill:rgb(225,2,113);fill-rule:nonzero;"/>
                <g id="rect2835" transform="matrix(0.89416,0.44774,-0.85261,0.52255,0,0)">
                    <path d="M755.27,106.27L817.949,82.826L816.44,116.539L762.281,122.361L755.27,106.27L755.27,106.27Z" style="fill:rgb(225,2,113);fill-rule:nonzero;"/>
                </g>
                <path id="path3610" d="M157.34,118.99C157.375,121.105 156.168,126.217 156.168,126.217L141.749,169.651L153.8,169.651L162.753,140.152L161.813,169.651L176.775,169.651C176.408,168.592 174.676,161.462 167.04,123.235C166.956,121.767 166.305,119.593 166.267,118.219L157.34,118.99L157.34,118.99ZM176.775,169.651C176.918,170.063 176.869,169.651 176.869,169.651L176.775,169.651Z" style="fill:rgb(32,32,32);fill-rule:nonzero;"/>
                <path id="path3615" d="M166.58,100.12C166.58,100.12 166.324,73.884 183.791,70.503C177.758,69.48 157.34,68.438 156.937,100.906C156.681,110.323 157.246,119.077 157.246,119.077L166.272,118.903L166.581,100.121L166.58,100.12Z" style="fill:rgb(32,32,32);fill-rule:nonzero;"/>
                <g id="rect3617" transform="matrix(0.85551,-0.51779,0,1,0,0)">
                    <path d="M737.38,808.11L772.329,809.362L772.457,811.68L737.508,810.755L737.38,808.11L737.38,808.11Z" style="fill:rgb(128,0,0);fill-rule:nonzero;"/>
                </g>
            </g>
            <g transform="matrix(-0.319994,-1.25961e-16,3.64646e-17,-0.957072,651.28,1061.14)">
                <path d="M673.282,545.792C663.707,545.483 657.529,532.819 657.529,525.097C657.529,511.197 659.382,494.826 669.575,487.722C690.579,473.205 707.259,546.1 673.282,545.792Z" style="fill:rgb(172,163,155);fill-rule:nonzero;"/>
            </g>
            <g transform="matrix(1.70667,0,0,5.48571,-304.737,-39768.4)">
                <path d="M435.341,7324.84C436.476,7324.84 437.396,7325.76 437.396,7326.9C437.396,7330.41 437.396,7337.53 437.396,7341.05C437.396,7342.18 436.476,7343.1 435.341,7343.1C434.115,7343.1 432.565,7343.1 431.339,7343.1C430.204,7343.1 429.284,7342.18 429.284,7341.05C429.284,7337.53 429.284,7330.41 429.284,7326.9C429.284,7325.76 430.204,7324.84 431.339,7324.84C432.565,7324.84 434.115,7324.84 435.341,7324.84Z" style="fill:rgb(65,65,65);"/>
            </g>
            <g transform="matrix(1.70667,0,0,2.74286,-304.737,-19577.3)">
                <path d="M435.341,7324.84C436.476,7324.84 437.396,7326.68 437.396,7328.95C437.396,7331.95 437.396,7335.99 437.396,7338.99C437.396,7341.26 436.476,7343.1 435.341,7343.1C434.115,7343.1 432.565,7343.1 431.339,7343.1C430.204,7343.1 429.284,7341.26 429.284,7338.99C429.284,7335.99 429.284,7331.95 429.284,7328.95C429.284,7326.68 430.204,7324.84 431.339,7324.84C432.565,7324.84 434.115,7324.84 435.341,7324.84Z" style="fill:rgb(243,111,49);"/>
            </g>
            <g transform="matrix(0.159997,-0.890751,-0.257864,-0.478536,640.255,1364.77)">
                <path d="M673.282,545.792C663.707,545.483 657.529,532.819 657.529,525.097C657.529,511.197 659.382,494.826 669.575,487.722C690.579,473.205 707.259,546.1 673.282,545.792Z" style="fill:rgb(172,163,155);fill-rule:nonzero;"/>
            </g>
            <g transform="matrix(-1.48597,2.6981,0.839409,4.77633,-4918.53,-35751.2)">
                <path d="M435.341,7324.84C436.476,7324.84 437.396,7325.76 437.396,7326.9C437.396,7330.41 437.396,7337.53 437.396,7341.05C437.396,7342.18 436.476,7343.1 435.341,7343.1C434.115,7343.1 432.565,7343.1 431.339,7343.1C430.204,7343.1 429.284,7342.18 429.284,7341.05C429.284,7337.53 429.284,7330.41 429.284,7326.9C429.284,7325.76 430.204,7324.84 431.339,7324.84C432.565,7324.84 434.115,7324.84 435.341,7324.84Z" style="fill:rgb(65,65,65);"/>
            </g>
            <g transform="matrix(-0.853333,4.75077,0.739008,1.37143,-4442.34,-11615.6)">
                <path d="M435.341,7324.84C436.476,7324.84 437.396,7326.68 437.396,7328.95C437.396,7331.95 437.396,7335.99 437.396,7338.99C437.396,7341.26 436.476,7343.1 435.341,7343.1C434.115,7343.1 432.565,7343.1 431.339,7343.1C430.204,7343.1 429.284,7341.26 429.284,7338.99C429.284,7335.99 429.284,7331.95 429.284,7328.95C429.284,7326.68 430.204,7324.84 431.339,7324.84C432.565,7324.84 434.115,7324.84 435.341,7324.84Z" style="fill:rgb(243,111,49);"/>
            </g>
            <g id="Livello-1" serif:id="Livello 1">
            </g>
            <g id="Gopher" transform="matrix(0.271279,0,0,0.871967,400.661,65.9196)">
                <g>
                    <path d="M715.598,106.873C739.382,155.985 667.104,161.236 670.811,183.166C677.606,222.703 672.973,281.39 667.722,339.151C658.764,437.066 731.969,671.506 579.382,765.714C550.656,783.629 482.394,793.514 415.058,795.058L414.44,795.058C347.104,793.514 269.575,783.629 240.849,765.714C88.571,671.506 161.776,437.066 153.127,339.151C147.568,281.39 142.934,222.703 150.039,183.166C153.745,161.236 81.467,156.293 105.251,106.873C125.637,64.556 175.985,101.931 188.649,88.649C253.205,21.622 331.66,3.707 393.436,2.162L427.413,2.162C488.88,5.251 567.336,21.931 632.201,88.649C644.865,101.931 694.903,64.556 715.598,106.873Z" style="fill:url(#_Linear1);fill-rule:nonzero;"/>
                    <g transform="matrix(1,0,0,1,0,-18.8736)">
                        <path d="M381.081,363.552C378.301,364.788 373.668,395.058 387.876,396.602C397.452,397.529 423.707,400.618 429.884,396.602C441.931,388.88 440.695,370.347 433.9,365.714C422.471,358.301 384.17,362.008 381.081,363.552Z" style="fill:white;fill-rule:nonzero;"/>
                    </g>
                    <g transform="matrix(1,0,0,0.81354,0,42.3872)">
                        <path d="M302.625,136.834C270.811,133.127 217.375,162.78 209.344,225.792C200.695,291.274 277.915,356.139 352.046,291.274C391.892,256.371 405.792,148.88 302.625,136.834ZM517.606,136.834C414.44,148.88 428.34,256.371 468.185,291.274C542.317,356.139 619.537,291.274 610.888,225.792C603.166,162.78 549.73,133.127 517.606,136.834Z" style="fill:white;fill-rule:nonzero;"/>
                    </g>
                    <path d="M410.425,280.74C429.884,277.96 476.525,300.2 473.436,326.455C469.73,357.034 353.282,361.049 347.104,324.601C343.398,302.362 361.004,288.153 410.425,280.74ZM608.726,769.73C614.903,778.687 615.212,784.865 605.328,789.498C567.645,806.795 533.977,783.629 546.641,777.143C573.514,763.552 590.193,742.239 608.726,769.73ZM211.815,772.819C230.347,745.328 247.027,766.641 273.9,780.232C286.564,786.718 252.896,809.884 215.212,792.587C205.328,787.954 205.637,781.776 211.815,772.819Z" style="fill:rgb(172,163,155);fill-rule:nonzero;"/>
                    <path d="M657.838,114.286C659.382,107.799 675.444,104.71 684.402,115.83C695.212,129.112 668.649,147.336 667.413,139.923C664.324,119.846 655.985,120.772 657.838,114.286ZM162.703,114.286C164.556,120.772 156.216,119.846 153.127,139.923C151.892,147.336 125.328,129.112 136.139,115.83C144.788,104.71 160.849,107.799 162.703,114.286ZM524.71,264.71C505.263,264.71 489.498,248.945 489.498,229.498C489.498,210.051 505.263,194.286 524.71,194.286C544.158,194.286 559.923,210.051 559.923,229.498C559.923,248.945 544.158,264.71 524.71,264.71ZM515.444,225.483C521.585,225.483 526.564,220.504 526.564,214.363C526.564,208.222 521.585,203.243 515.444,203.243C509.303,203.243 504.324,208.222 504.324,214.363C504.324,220.504 509.303,225.483 515.444,225.483ZM378.61,295.567C382.317,281.358 395.29,276.725 405.792,276.416C432.664,275.798 442.857,290.316 443.784,301.744C445.637,321.204 370.27,325.837 378.61,295.567ZM295.83,264.71C276.383,264.71 260.618,248.945 260.618,229.498C260.618,210.051 276.383,194.286 295.83,194.286C315.277,194.286 331.042,210.051 331.042,229.498C331.042,248.945 315.277,264.71 295.83,264.71ZM305.097,225.483C311.238,225.483 316.216,220.504 316.216,214.363C316.216,208.222 311.238,203.243 305.097,203.243C298.955,203.243 293.977,208.222 293.977,214.363C293.977,220.504 298.955,225.483 305.097,225.483Z" style="fill:rgb(65,65,65);fill-rule:nonzero;"/>
                </g>
            </g>
            <g>
                <g transform="matrix(0.271279,0,0,0.871967,400.661,65.9196)">
                    <path d="M146.662,218.271C147.097,205.473 148.155,193.647 150.039,183.166C150.475,180.582 149.857,178.234 148.465,176.021L162.483,163.099L167.727,196.064L146.662,218.271Z" style="fill:rgb(65,65,65);"/>
                </g>
                <g transform="matrix(-0.271279,0,0,0.871967,623.282,65.9196)">
                    <path d="M146.662,218.271C147.097,205.473 148.155,193.647 150.039,183.166C150.475,180.582 149.857,178.234 148.465,176.021L162.483,163.099L167.727,196.064L146.662,218.271Z" style="fill:rgb(65,65,65);"/>
                </g>
                <g transform="matrix(0.168153,0,0,0.59734,444.739,-92.1711)">
                    <path d="M773.569,476.308L26.433,476.308C11.841,476.308 0,488.148 0,502.742L0,538.475C0,545.223 2.594,551.719 7.203,556.634L31.672,582.533L66.35,686.553C72.322,704.553 89.188,716.686 108.136,716.686L299.389,716.686C319.473,716.686 337.02,703.108 342.072,683.639L371.509,568.863C371.509,568.863 371.509,542.964 400.014,542.964C428.505,542.964 428.505,568.863 428.505,568.863L457.956,683.639C462.994,703.108 480.541,716.686 500.625,716.686L691.866,716.686C710.841,716.686 727.68,704.552 733.666,686.553L768.33,582.533L792.811,556.634C797.434,551.719 800,545.223 800,538.475L800,502.742C800,488.148 788.188,476.308 773.569,476.308ZM304.253,563.758L288.431,644.389C286.292,655.294 276.725,663.178 265.606,663.178L139.913,663.178C129.236,663.178 119.934,655.922 117.33,645.578L97.017,564.744C95.573,558.945 96.858,552.798 100.545,548.094C104.208,543.378 109.861,540.623 115.833,540.623L285.225,540.623C291.025,540.623 296.517,543.217 300.191,547.692C303.88,552.172 305.375,558.064 304.253,563.758ZM702.984,564.745L682.672,645.58C680.08,655.923 670.778,663.18 660.088,663.18L534.406,663.18C523.288,663.18 513.72,655.295 511.583,644.391L495.759,563.759C494.638,558.066 496.134,552.173 499.822,547.695C503.497,543.219 508.989,540.627 514.789,540.627L684.167,540.627C690.153,540.627 695.792,543.38 699.455,548.097C703.144,552.8 704.428,558.947 702.984,564.745Z" style="fill:rgb(65,65,65);fill-rule:nonzero;"/>
                </g>
            </g>
            <g>
                <g transform="matrix(0.271279,0,0,0.871967,400.661,65.9196)">
                    <path d="M152.624,636.194L667.835,636.194C655.629,688.034 629.861,734.548 579.382,765.714C550.656,783.629 482.394,793.514 415.058,795.058L414.44,795.058C347.104,793.514 269.575,783.629 240.849,765.714C190.472,734.548 164.773,688.034 152.624,636.194Z" style="fill:rgb(65,65,65);"/>
                </g>
                <g transform="matrix(1.70667,0,0,5.48571,-344.342,-39771.4)">
                    <path d="M503.67,7329.8L521.45,7329.8L539.893,7315L551.036,7315L545.085,7329.34L544.085,7360.3L503.694,7360.3L503.67,7329.8ZM503.67,7329.8L503.645,7360.3L459.44,7360.3L458.44,7329.34L452.489,7315L463.632,7315L482.075,7329.8L503.67,7329.8Z" style="fill:url(#_Linear2);"/>
                </g>
                <g transform="matrix(1.70667,0,0,5.48571,-344.342,-39771.4)">
                    <path d="M511.701,7329.3L518.03,7344.06L544.343,7350.3L544.139,7360.3L541.842,7366.69L521.557,7363.14L481.937,7363.14L461.659,7366.69L459.39,7360.3L459.157,7350.3L485.47,7344.06L491.8,7329.3L511.701,7329.3Z" style="fill:url(#_Linear3);"/>
                </g>
                <g transform="matrix(0.449273,0,0,0.449273,389.035,305.76)">
                    <g transform="matrix(0.198677,0,0,0.638606,237.401,326.349)">
                        <path d="M223.864,272.729L185.256,174.881L128.653,264.065L93.166,264.065L172.218,136.411L163.343,111.182L132.562,111.182L132.562,81.12L185.253,81.12L245.774,235.019L272.382,226.351L281.249,256.164L223.864,272.729Z" style="fill:rgb(121,54,7);fill-rule:nonzero;"/>
                    </g>
                    <g transform="matrix(0.198677,0,0,0.638606,237.401,326.349)">
                        <path d="M337.623,182.198C337.623,267.777 268.26,337.132 182.689,337.132C97.118,337.132 27.753,267.778 27.753,182.198C27.753,96.629 97.116,27.265 182.689,27.265C268.259,27.265 337.623,96.629 337.623,182.198Z" style="fill:none;fill-rule:nonzero;stroke:rgb(121,54,7);stroke-width:34px;"/>
                    </g>
                </g>
                <g transform="matrix(1.44714,0,0,4.65151,6.16414,-33511.6)">
                    <rect x="339.957" y="7329.3" width="4.653" height="4.588" style="fill:rgb(65,65,65);"/>
                </g>
                <g transform="matrix(1.44714,0,0,4.65151,16.6482,-33511.6)">
                    <rect x="339.957" y="7329.3" width="4.653" height="4.588" style="fill:rgb(65,65,65);"/>
                </g>
                <g transform="matrix(1.44714,0,0,4.65151,27.1323,-33511.6)">
                    <rect x="339.957" y="7329.3" width="4.653" height="4.588" style="fill:rgb(65,65,65);"/>
                </g>
            </g>
        </g>
    </g>
    <defs>
        <linearGradient id="_Linear1" x1="0" y1="0" x2="1" y2="0" gradientUnits="userSpaceOnUse" gradientTransform="matrix(619.975,0,0,792.896,100.437,398.61)"><stop offset="0" style="stop-color:rgb(15,123,193);stop-opacity:1"/><stop offset="1" style="stop-color:rgb(91,203,245);stop-opacity:1"/></linearGradient>
        <linearGradient id="_Linear2" x1="0" y1="0" x2="1" y2="0" gradientUnits="userSpaceOnUse" gradientTransform="matrix(2.10057e-15,34.3049,-34.3049,2.10057e-15,463.54,7315)"><stop offset="0" style="stop-color:rgb(115,115,115);stop-opacity:1"/><stop offset="1" style="stop-color:rgb(175,175,175);stop-opacity:1"/></linearGradient>
        <linearGradient id="_Linear3" x1="0" y1="0" x2="1" y2="0" gradientUnits="userSpaceOnUse" gradientTransform="matrix(0.0245487,-75.9036,33.3085,0.0107726,501.738,7380.13)"><stop offset="0" style="stop-color:rgb(250,166,63);stop-opacity:1"/><stop offset="1" style="stop-color:rgb(201,23,84);stop-opacity:1"/></linearGradient>
    </defs>
</svg>
