<?xml version="1.0" encoding="UTF-8" standalone="no"?>
<!DOCTYPE svg PUBLIC "-//W3C//DTD SVG 1.1//EN" "http://www.w3.org/Graphics/SVG/1.1/DTD/svg11.dtd">
<svg width="100%" height="100%" viewBox="0 0 601 140" version="1.1" xmlns="http://www.w3.org/2000/svg" xmlns:xlink="http://www.w3.org/1999/xlink" xml:space="preserve" xmlns:serif="http://www.serif.com/" style="fill-rule:evenodd;clip-rule:evenodd;stroke-linejoin:round;stroke-miterlimit:2;">
    <g transform="matrix(1,0,0,1,-198,-2830)">
        <g id="Constants" transform="matrix(0.585938,0,0,0.182292,198.553,2830)">
            <rect x="0" y="0" width="1024" height="768" style="fill:none;"/>
            <g id="Gopher" transform="matrix(0.238654,0,0,0.767101,414.051,103.69)">
                <path d="M402.535,363.552C399.755,364.788 395.122,395.058 409.33,396.602C418.905,397.529 445.16,400.618 451.338,396.602C463.384,388.88 462.149,370.347 455.353,365.714C443.925,358.301 405.624,362.008 402.535,363.552ZM324.079,136.834C292.265,133.127 238.828,162.78 230.797,225.792C222.149,291.274 299.369,356.139 373.5,291.274C413.346,256.371 427.245,148.88 324.079,136.834ZM539.06,136.834C435.894,148.88 449.793,256.371 489.639,291.274C563.77,356.139 640.99,291.274 632.342,225.792C624.62,162.78 571.183,133.127 539.06,136.834Z" style="fill:white;fill-rule:nonzero;"/>
                <path d="M715.598,106.873C739.382,155.985 667.104,161.236 670.811,183.166C677.606,222.703 672.973,281.39 667.722,339.151C658.764,437.066 731.969,671.506 579.382,765.714C550.656,783.629 482.394,793.514 415.058,795.058L414.44,795.058C347.104,793.514 269.575,783.629 240.849,765.714C88.571,671.506 161.776,437.066 153.127,339.151C147.568,281.39 142.934,222.703 150.039,183.166C153.745,161.236 81.467,156.293 105.251,106.873C125.637,64.556 175.985,101.931 188.649,88.649C253.205,21.622 331.66,3.707 393.436,2.162L427.413,2.162C488.88,5.251 567.336,21.931 632.201,88.649C644.865,101.931 694.903,64.556 715.598,106.873ZM402.535,363.552C399.755,364.788 395.122,395.058 409.33,396.602C418.905,397.529 445.16,400.618 451.338,396.602C463.384,388.88 462.149,370.347 455.353,365.714C443.925,358.301 405.624,362.008 402.535,363.552ZM324.079,136.834C292.265,133.127 238.828,162.78 230.797,225.792C222.149,291.274 299.369,356.139 373.5,291.274C413.346,256.371 427.245,148.88 324.079,136.834ZM539.06,136.834C435.894,148.88 449.793,256.371 489.639,291.274C563.77,356.139 640.99,291.274 632.342,225.792C624.62,162.78 571.183,133.127 539.06,136.834Z" style="fill:url(#_Linear1);fill-rule:nonzero;"/>
                <path d="M431.878,299.614C451.338,296.834 497.979,319.073 494.89,345.328C491.183,375.907 374.736,379.923 368.558,343.475C364.851,321.236 382.458,307.027 431.878,299.614ZM673.282,474.279C663.707,473.97 657.529,461.306 657.529,453.584C657.529,439.685 659.534,423.526 669.575,416.21C794.578,325.126 707.259,474.588 673.282,474.279ZM218.771,545.792C184.794,546.1 201.474,473.205 222.478,487.722C232.671,494.826 234.524,511.197 234.524,525.097C234.524,532.819 228.346,545.483 218.771,545.792ZM608.726,769.73C614.903,778.687 615.212,784.865 605.328,789.498C567.645,806.795 533.977,783.629 546.641,777.143C573.514,763.552 590.193,742.239 608.726,769.73ZM211.815,772.819C230.347,745.328 247.027,766.641 273.9,780.232C286.564,786.718 252.896,809.884 215.212,792.587C205.328,787.954 205.637,781.776 211.815,772.819Z" style="fill:rgb(172,163,155);fill-rule:nonzero;"/>
                <path d="M657.838,114.286C659.382,107.799 675.444,104.71 684.402,115.83C695.212,129.112 668.649,147.336 667.413,139.923C664.324,119.846 655.985,120.772 657.838,114.286ZM162.703,114.286C164.556,120.772 156.216,119.846 153.127,139.923C151.892,147.336 125.328,129.112 136.139,115.83C144.788,104.71 160.849,107.799 162.703,114.286ZM560.467,271.862C541.019,271.862 525.254,256.097 525.254,236.649C525.254,217.202 541.019,201.437 560.467,201.437C579.914,201.437 595.679,217.202 595.679,236.649C595.679,256.097 579.914,271.862 560.467,271.862ZM551.2,232.634C557.341,232.634 562.32,227.655 562.32,221.514C562.32,215.373 557.341,210.394 551.2,210.394C545.059,210.394 540.08,215.373 540.08,221.514C540.08,227.655 545.059,232.634 551.2,232.634ZM400.064,314.44C403.77,300.232 416.743,295.598 427.245,295.29C454.118,294.672 464.311,309.189 465.237,320.618C467.091,340.077 391.724,344.71 400.064,314.44ZM338.738,271.862C319.29,271.862 303.525,256.097 303.525,236.649C303.525,217.202 319.29,201.437 338.738,201.437C358.185,201.437 373.95,217.202 373.95,236.649C373.95,256.097 358.185,271.862 338.738,271.862ZM348.004,232.634C354.145,232.634 359.124,227.655 359.124,221.514C359.124,215.373 354.145,210.394 348.004,210.394C341.863,210.394 336.884,215.373 336.884,221.514C336.884,227.655 341.863,232.634 348.004,232.634Z" style="fill:rgb(65,65,65);fill-rule:nonzero;"/>
            </g>
            <g transform="matrix(1.70667,0,0,4.00439,-341.333,-11134)">
                <g transform="matrix(0.913425,0,0,0.170506,-8.44951,2853.12)">
                    <g transform="matrix(1.024,0,0,5.48571,429.807,-15282.1)">
                        <path d="M236.199,2886.52C236.535,2891.1 233.996,2894.17 229.362,2894.17C221.116,2894.17 216.077,2884.87 212.518,2878.72C209.271,2873.12 205.804,2866.94 204.599,2860.49C204.072,2857.67 204.322,2854.13 207.871,2854.13C209.745,2854.13 211.64,2855.05 212.671,2856.64C213.88,2858.51 214.199,2860.81 215.417,2862.71C217.07,2865.28 219.71,2867.77 222.961,2867.77C228.058,2867.77 224.65,2861.44 223.233,2859.39C219.456,2853.95 213.141,2849.89 206.376,2849.89C189.306,2849.89 197.783,2873.92 202.051,2882.12C207.669,2892.91 217.143,2904.31 230.404,2904.31C239.783,2904.31 242.067,2897.2 240.445,2889.12C239.028,2888.25 237.613,2887.39 236.199,2886.52Z" style="fill:rgb(0,107,147);"/>
                    </g>
                    <g transform="matrix(1.024,0,0,5.48571,428.783,-15287.6)">
                        <path d="M235.468,2886.3C235.78,2890.86 233.237,2893.91 228.632,2893.91C220.444,2893.91 215.471,2884.67 211.958,2878.56C208.757,2872.99 205.339,2866.85 204.174,2860.45C203.662,2857.64 203.939,2854.13 207.462,2854.13C209.321,2854.13 211.204,2855.05 212.222,2856.63C213.415,2858.48 213.72,2860.77 214.922,2862.65C216.555,2865.22 219.171,2867.68 222.398,2867.68C227.457,2867.68 224.126,2861.41 222.713,2859.36C218.978,2853.95 212.711,2849.92 205.997,2849.92C189.049,2849.92 197.293,2873.72 201.532,2881.93C207.074,2892.67 216.454,2903.98 229.621,2903.98C238.933,2903.98 241.255,2896.94 239.678,2888.88C238.274,2888.02 236.87,2887.16 235.468,2886.3Z" style="fill:rgb(0,165,228);"/>
                    </g>
                </g>
                <g transform="matrix(0.976562,0,0,0.182292,-1.13505,2841.14)">
                    <g transform="matrix(1.024,0,0,5.48571,202.178,-15258.9)">
                        <path d="M251.602,2885.63C248.449,2889.99 244.157,2894.04 238.448,2894.04C231.018,2894.04 231.039,2886.55 232.2,2880.95C232.301,2880.46 232.401,2879.98 232.502,2879.49C243.561,2878.37 257.589,2872.56 258.628,2859.88C259.12,2853.87 255.677,2850.38 249.771,2850.38C233.836,2850.38 223.276,2868.57 219.661,2881.97C216.924,2892.11 218.049,2904.41 231.172,2904.41C241.547,2904.41 249.174,2896.9 253.897,2888.31C253.129,2887.42 252.364,2886.52 251.602,2885.63ZM233.58,2875.1C235.298,2869.61 237.558,2864 240.897,2859.28C242.068,2857.62 243.916,2855.09 246.207,2855.09C248.439,2855.09 248.08,2858.13 247.872,2859.58C246.822,2866.9 241.329,2874.24 233.58,2875.1Z" style="fill:rgb(201,71,12);"/>
                    </g>
                    <g transform="matrix(1.024,0,0,5.48571,201.154,-15264.4)">
                        <path d="M251.82,2885.43C248.669,2889.75 244.387,2893.78 238.709,2893.78C231.322,2893.78 231.378,2886.33 232.554,2880.78C232.656,2880.3 232.758,2879.82 232.86,2879.34C243.855,2878.22 257.828,2872.47 258.918,2859.86C259.433,2853.9 256.016,2850.44 250.152,2850.44C234.31,2850.44 223.74,2868.47 220.085,2881.79C217.326,2891.85 218.384,2904.08 231.432,2904.08C241.75,2904.08 249.359,2896.62 254.09,2888.09C253.331,2887.2 252.574,2886.32 251.82,2885.43ZM233.951,2874.97C235.682,2869.52 237.954,2863.95 241.291,2859.27C242.463,2857.62 244.31,2855.11 246.589,2855.11C248.807,2855.11 248.438,2858.13 248.225,2859.57C247.149,2866.85 241.652,2874.12 233.951,2874.97Z" style="fill:rgb(243,111,49);"/>
                    </g>
                </g>
                <g transform="matrix(0.823812,0,0,0.153778,0.276034,2843.7)">
                    <g transform="matrix(1.024,0,0,5.48571,546.207,-15307.4)">
                        <path d="M221.998,2884.62C222.428,2886.22 223.424,2889.39 220.719,2889.39C219.456,2889.39 218.232,2888.32 217.439,2887.45C216.753,2886.69 216.113,2885.88 215.557,2885.02C210.645,2878.11 205.702,2871.22 200.729,2864.35C199.071,2862.15 197.413,2859.95 195.534,2857.93C192.696,2854.88 188.539,2851.57 184.135,2851.57C175.285,2851.57 179.68,2862.28 181.454,2867.01C181.167,2867.01 180.88,2867.01 180.593,2867.01C178.203,2862.98 175.8,2858.96 173.385,2854.95C169.207,2848.25 164.998,2841.57 160.761,2834.91C159.663,2834.91 158.564,2834.91 157.466,2834.91C154.344,2835.16 151.222,2835.41 148.1,2835.67C148.854,2836.65 149.607,2837.63 150.361,2838.62C150.933,2838.53 151.51,2838.47 152.089,2838.47C153.483,2838.47 154.797,2839.26 155.644,2840.34C156.261,2841.12 156.804,2841.95 157.294,2842.82C167.977,2860.51 178.472,2878.31 188.759,2896.22C192.663,2896.22 196.567,2896.22 200.471,2896.22C197.137,2890.83 193.784,2885.45 190.413,2880.07C187.979,2874.67 185.266,2869.13 183.986,2863.3C183.743,2862.19 182.913,2859.19 184.932,2859.19C186.279,2859.19 187.631,2860.46 188.453,2861.4C189.503,2862.6 190.461,2863.88 191.308,2865.23C196.071,2872.34 200.8,2879.47 205.493,2886.63C206.542,2888.14 207.584,2889.65 208.774,2891.05C211.909,2894.74 216.35,2897.52 221.319,2897.52C228.502,2897.52 228.678,2892.7 226.625,2886.94C225.082,2886.16 223.539,2885.39 221.998,2884.62Z" style="fill:rgb(76,37,87);"/>
                    </g>
                    <g transform="matrix(1.024,0,0,5.48571,545.183,-15312.9)">
                        <path d="M221.211,2884.58C221.634,2886.18 222.602,2889.32 219.915,2889.32C218.66,2889.32 217.447,2888.26 216.661,2887.39C215.982,2886.63 215.349,2885.83 214.8,2884.97C209.948,2878.11 205.065,2871.26 200.152,2864.44C198.515,2862.25 196.876,2860.07 195.018,2858.06C192.205,2855.02 188.081,2851.74 183.707,2851.74C174.914,2851.74 179.2,2862.34 180.954,2867.08C180.669,2867.08 180.383,2867.08 180.098,2867.08C177.74,2863.08 175.371,2859.09 172.988,2855.1C168.866,2848.45 164.714,2841.81 160.535,2835.19C159.441,2835.19 158.347,2835.19 157.253,2835.19C154.144,2835.45 151.034,2835.7 147.925,2835.95C148.67,2836.92 149.414,2837.9 150.159,2838.88C150.729,2838.79 151.303,2838.74 151.88,2838.74C153.264,2838.74 154.57,2839.52 155.409,2840.59C156.019,2841.36 156.555,2842.19 157.037,2843.05C167.578,2860.63 177.931,2878.31 188.08,2896.11C191.964,2896.11 195.849,2896.11 199.733,2896.11C196.442,2890.75 193.132,2885.4 189.804,2880.06C187.409,2874.69 184.736,2869.19 183.495,2863.4C183.257,2862.29 182.451,2859.31 184.458,2859.31C185.796,2859.31 187.136,2860.58 187.951,2861.51C188.989,2862.7 189.936,2863.97 190.772,2865.31C195.475,2872.38 200.144,2879.47 204.778,2886.58C205.814,2888.08 206.843,2889.58 208.02,2890.97C211.127,2894.64 215.536,2897.39 220.472,2897.39C227.604,2897.39 227.825,2892.63 225.804,2886.88C224.272,2886.12 222.742,2885.35 221.211,2884.58Z" style="fill:rgb(122,59,139);"/>
                    </g>
                </g>
                <g transform="matrix(0.675724,0,0,0.126135,155.289,2853.43)">
                    <g transform="matrix(1.024,0,0,5.48571,79.6115,-15408.5)">
                        <path d="M284.466,2893.93C283.07,2894.46 281.581,2894.7 280.089,2894.7C276.098,2894.7 274.325,2892.46 275.768,2888.68C275.95,2888.25 276.22,2887.85 276.437,2887.43L276.151,2887.43C273.289,2890.74 269.016,2894.61 264.36,2894.61C262.273,2894.61 260.679,2893.56 260.857,2891.3C256.166,2898.58 251.542,2905.93 247.309,2913.48C243.949,2913.48 240.589,2913.48 237.229,2913.48C250.557,2894.09 263.714,2874.58 276.702,2854.95C279.293,2854.95 281.885,2854.95 284.477,2854.95C279.943,2862.15 275.386,2869.33 270.803,2876.5C269.916,2877.89 269.012,2879.3 268.312,2880.8C267.342,2882.88 267.02,2885.31 269.959,2885.31C273.916,2885.31 277.579,2881.4 280.116,2878.85C284.768,2870.9 289.389,2862.93 293.981,2854.95C296.593,2854.95 299.205,2854.95 301.818,2854.95C296.466,2864.11 289.481,2873.54 285.625,2883.48C285.22,2884.52 285.08,2885.75 286.516,2885.75C287.073,2885.75 287.647,2885.65 288.177,2885.49C287.909,2886.16 287.641,2886.83 287.373,2887.5C288.415,2885.68 289.642,2883.95 291.104,2882.44C293.041,2880.44 295.538,2878.63 298.44,2878.63C300.894,2878.63 302.54,2880.13 303.181,2882.44C304.143,2885.91 303.248,2889.79 302.249,2893.14C300.995,2897.26 299.129,2901.28 296.26,2904.54C294.177,2906.91 291.387,2909.04 288.093,2909.04C285.195,2909.04 283.398,2907.18 282.948,2904.39C282.379,2900.88 283.298,2897.23 284.466,2893.93ZM297.902,2893.19C298.446,2891.51 301.662,2882.6 297.089,2882.6C292.585,2882.6 290.173,2890.1 289.065,2893.19C288.435,2894.95 284.72,2904.45 289.653,2904.45C294.46,2904.45 296.829,2896.53 297.902,2893.19Z" style="fill:rgb(0,102,66);"/>
                    </g>
                    <g transform="matrix(1.024,0,0,5.48571,78.5875,-15414)">
                        <path d="M285.065,2893.97C283.673,2894.5 282.189,2894.74 280.703,2894.74C276.729,2894.74 274.966,2892.51 276.414,2888.75C276.597,2888.32 276.866,2887.92 277.083,2887.51L276.799,2887.51C273.939,2890.8 269.675,2894.64 265.035,2894.64C262.96,2894.64 261.372,2893.6 261.555,2891.36C256.864,2898.6 252.241,2905.9 248.005,2913.42C244.659,2913.42 241.312,2913.42 237.966,2913.42C251.287,2894.13 264.439,2874.72 277.424,2855.2C280.006,2855.2 282.589,2855.2 285.171,2855.2C280.637,2862.36 276.08,2869.51 271.498,2876.63C270.611,2878.01 269.707,2879.42 269.006,2880.91C268.036,2882.97 267.709,2885.4 270.636,2885.4C274.58,2885.4 278.235,2881.51 280.77,2878.97C285.423,2871.07 290.046,2863.14 294.64,2855.2C297.243,2855.2 299.846,2855.2 302.449,2855.2C297.094,2864.32 290.113,2873.69 286.245,2883.57C285.84,2884.61 285.698,2885.84 287.128,2885.84C287.683,2885.84 288.255,2885.74 288.783,2885.57C288.514,2886.24 288.245,2886.91 287.977,2887.57C289.02,2885.76 290.246,2884.04 291.706,2882.54C293.641,2880.55 296.132,2878.75 299.023,2878.75C301.465,2878.75 303.104,2880.24 303.737,2882.54C304.686,2886 303.783,2889.85 302.78,2893.18C301.519,2897.29 299.648,2901.29 296.783,2904.53C294.702,2906.88 291.918,2909 288.636,2909C285.753,2909 283.966,2907.15 283.524,2904.38C282.967,2900.88 283.893,2897.25 285.065,2893.97ZM298.45,2893.24C298.994,2891.57 302.223,2882.7 297.668,2882.7C293.182,2882.7 290.761,2890.16 289.647,2893.24C289.018,2894.98 285.289,2904.44 290.203,2904.44C294.99,2904.44 297.37,2896.56 298.45,2893.24Z" style="fill:rgb(0,167,109);"/>
                    </g>
                </g>
            </g>
            <g transform="matrix(1.66667,0,0,1,-341.333,0)">
                <g transform="matrix(1.024,0,0,5.48571,322.276,-15371.6)">
                    <path d="M267.037,2848.55C257.187,2851.17 247.104,2852.57 237.021,2853.94C236.787,2853.98 236.554,2854.02 236.32,2854.06C226.633,2855.73 218.929,2863.44 215.21,2872.26C216.052,2872.66 216.894,2873.07 217.737,2873.47C221.706,2867.57 226.854,2866.45 233.72,2865.28C229.739,2877.98 222.148,2889.25 215.036,2900.35C215.007,2901.22 214.978,2902.1 214.948,2902.97C218.568,2902.38 222.188,2901.8 225.807,2901.22C231.783,2890.14 234.855,2876.84 237.753,2864.69C241.277,2864.18 244.788,2863.59 248.298,2862.99C244.872,2872.06 239.738,2881.94 239.769,2891.89C239.782,2896.08 241.69,2899.53 246.326,2898.78C253.167,2897.68 257.973,2890.33 260.608,2884.6C259.926,2884.09 259.243,2883.59 258.56,2883.09C256.505,2885.47 254.662,2887.42 251.41,2887.95C248.681,2888.4 247.866,2886.2 247.856,2883.88C247.827,2876.87 250.87,2869 252.969,2862.49C255.18,2862.21 257.394,2862.03 259.592,2861.65C265.15,2860.71 267.415,2854.19 268.283,2849.4C267.867,2849.12 267.452,2848.83 267.037,2848.55Z" style="fill:rgb(174,1,91);"/>
                </g>
                <g transform="matrix(1.024,0,0,5.48571,321.252,-15377.1)">
                    <path d="M267.037,2848.55C257.187,2851.17 247.104,2852.57 237.021,2853.94C236.787,2853.98 236.554,2854.02 236.32,2854.06C226.633,2855.73 218.929,2863.44 215.21,2872.26C216.052,2872.66 216.894,2873.07 217.737,2873.47C221.706,2867.57 226.854,2866.45 233.72,2865.28C229.739,2877.98 222.148,2889.25 215.036,2900.35C215.007,2901.22 214.978,2902.1 214.948,2902.97C218.568,2902.38 222.188,2901.8 225.807,2901.22C231.783,2890.14 234.855,2876.84 237.753,2864.69C241.277,2864.18 244.788,2863.59 248.298,2862.99C244.872,2872.06 239.738,2881.94 239.769,2891.89C239.782,2896.08 241.69,2899.53 246.326,2898.78C253.167,2897.68 257.973,2890.33 260.608,2884.6C259.926,2884.09 259.243,2883.59 258.56,2883.09C256.505,2885.47 254.662,2887.42 251.41,2887.95C248.681,2888.4 247.866,2886.2 247.856,2883.88C247.827,2876.87 250.87,2869 252.969,2862.49C255.18,2862.21 257.394,2862.03 259.592,2861.65C265.15,2860.71 267.415,2854.19 268.283,2849.4C267.867,2849.12 267.452,2848.83 267.037,2848.55Z" style="fill:rgb(225,2,113);"/>
                </g>
            </g>
            <g transform="matrix(0.231113,0.191301,-0.0595159,0.742864,591.134,-4.50689)">
                <path d="M147.259,545.792C113.282,546.1 129.961,473.205 150.965,487.722C161.158,494.826 156.321,504.923 156.321,518.823C156.321,526.545 156.834,545.483 147.259,545.792Z" style="fill:rgb(172,163,155);fill-rule:nonzero;"/>
            </g>
        </g>
    </g>
    <defs>
        <linearGradient id="_Linear1" x1="0" y1="0" x2="1" y2="0" gradientUnits="userSpaceOnUse" gradientTransform="matrix(619.975,0,0,792.896,100.437,398.61)"><stop offset="0" style="stop-color:rgb(15,123,193);stop-opacity:1"/><stop offset="1" style="stop-color:rgb(91,203,245);stop-opacity:1"/></linearGradient>
    </defs>
</svg>
