<?xml version="1.0" encoding="UTF-8" standalone="no"?>
<!DOCTYPE svg PUBLIC "-//W3C//DTD SVG 1.1//EN" "http://www.w3.org/Graphics/SVG/1.1/DTD/svg11.dtd">
<svg width="100%" height="100%" viewBox="0 0 1001 140" version="1.1" xmlns="http://www.w3.org/2000/svg" xmlns:xlink="http://www.w3.org/1999/xlink" xml:space="preserve" xmlns:serif="http://www.serif.com/" style="fill-rule:evenodd;clip-rule:evenodd;stroke-linejoin:round;stroke-miterlimit:2;">
    <g transform="matrix(1,0,0,1,0,-1640)">
        <g id="Cross-Platform" serif:id="Cross Platform" transform="matrix(0.976562,0,0,0.182292,0.338575,1640)">
            <rect x="0" y="0" width="1024" height="768" style="fill:none;"/>
            <g transform="matrix(0.0210051,0,0,0.112527,284.261,109.457)">
                <path d="M0,0L2311,0L2311,2310L0,2310L0,0ZM2564,0L4875,0L4875,2310L2564,2310L2564,0ZM0,2564L2311,2564L2311,4875L0,4875L0,2564ZM2564,2564L4875,2564L4875,4875L2564,4875" style="fill:rgb(0,165,228);fill-rule:nonzero;"/>
            </g>
            <g id="path2" transform="matrix(3.01176,0,0,16.1345,464.542,109.457)">
                <path d="M15.8,20.64C15.8,23.5 14.31,25.3 11.93,25.3C9.55,25.3 8.06,23.49 8.06,20.64C8.06,17.77 9.55,15.97 11.93,15.97C14.31,15.97 15.8,17.77 15.8,20.64ZM19.12,10.55L18.08,10.62C17.49,10.66 17.23,10.87 17.23,11.25C17.23,11.65 17.56,11.87 18.02,11.87C18.65,11.87 19.12,11.46 19.12,10.91L19.12,10.55ZM34,17C34,26.49 26.49,34 17,34C7.51,34 0,26.49 0,17C0,7.51 7.51,0 17,0C26.49,0 34,7.51 34,17ZM20.94,10.34C20.94,11.72 21.7,12.56 22.94,12.56C23.99,12.56 24.65,11.97 24.76,11.13L23.94,11.13C23.83,11.59 23.47,11.84 22.94,11.84C22.24,11.84 21.81,11.27 21.81,10.34C21.81,9.42 22.24,8.87 22.94,8.87C23.5,8.87 23.85,9.19 23.94,9.6L24.76,9.6C24.65,8.78 24.01,8.16 22.94,8.16C21.7,8.15 20.94,8.99 20.94,10.34ZM9.51,8.24L9.51,12.48L10.35,12.48L10.35,9.88C10.35,9.33 10.74,8.89 11.25,8.89C11.75,8.89 12.07,9.19 12.07,9.67L12.07,12.48L12.89,12.48L12.89,9.8C12.89,9.29 13.24,8.89 13.79,8.89C14.34,8.89 14.61,9.17 14.61,9.76L14.61,12.48L15.45,12.48L15.45,9.55C15.45,8.67 14.95,8.15 14.09,8.15C13.5,8.15 13.01,8.45 12.8,8.91L12.73,8.91C12.54,8.45 12.14,8.15 11.56,8.15C10.99,8.15 10.56,8.43 10.38,8.91L10.32,8.91L10.32,8.23L9.51,8.24ZM17.29,20.64C17.29,16.95 15.23,14.63 11.93,14.63C8.63,14.63 6.57,16.95 6.57,20.64C6.57,24.33 8.63,26.64 11.93,26.64C15.23,26.64 17.29,24.32 17.29,20.64ZM17.81,12.55C18.37,12.55 18.83,12.31 19.09,11.88L19.16,11.88L19.16,12.48L19.97,12.48L19.97,9.58C19.97,8.69 19.37,8.16 18.3,8.16C17.33,8.16 16.65,8.63 16.56,9.34L17.37,9.34C17.46,9.03 17.79,8.86 18.26,8.86C18.83,8.86 19.13,9.12 19.13,9.59L19.13,9.96L17.98,10.03C16.97,10.09 16.4,10.53 16.4,11.3C16.39,12.06 16.99,12.55 17.81,12.55ZM26.98,23.14C26.98,21.49 26.02,20.53 23.6,20L22.31,19.72C20.72,19.37 20.1,18.74 20.1,17.83C20.1,16.65 21.22,15.94 22.67,15.94C24.19,15.94 25.19,16.72 25.32,18L26.77,18C26.7,16.03 25.03,14.64 22.71,14.64C20.3,14.64 18.61,15.99 18.61,17.9C18.61,19.55 19.62,20.61 21.95,21.12L23.24,21.4C24.85,21.75 25.5,22.4 25.5,23.37C25.5,24.51 24.35,25.34 22.78,25.34C21.11,25.34 19.95,24.58 19.78,23.33L18.33,23.33C18.47,25.34 20.16,26.64 22.7,26.64C25.29,26.64 26.98,25.29 26.98,23.14Z" style="fill:rgb(65,65,65);fill-rule:nonzero;"/>
            </g>
            <g transform="matrix(2.82026,0,0,15.1085,619.766,20.0901)">
                <g transform="matrix(1,0,0,1,0,-2)">
                    <path d="M20.1,18.2L20.2,20.5L18.6,23.5L16.1,28.4L15.6,32.5L17.4,38.3L21.5,40.6L27.7,40.6L33.5,36.2L36.1,29.3L30.1,22L28.4,17.9L20.1,18.2Z" style="fill:rgb(236,239,241);fill-rule:nonzero;"/>
                </g>
                <g transform="matrix(1,0,0,1,0,-2)">
                    <path d="M34.3,23.9C32.7,21.6 31.4,20.2 30.7,17.3C30,14.4 30.9,15.2 30.3,12.7C30,11.4 29.5,10.5 29,9.8C28.4,9.1 27.7,8.7 27.3,8.6C26.4,8.1 24.3,7.3 21.7,8.7C19,10.1 19.3,13.1 19.8,19.2C19.8,19.6 19.7,20.1 19.5,20.5C19.1,21.4 18.4,22.2 17.8,22.9C17.1,23.9 16.4,24.9 15.9,26C14.7,28.3 13.6,31.2 13.9,32.3C14.4,32.2 20.7,41.8 20.7,42C21.1,41.9 22.8,41.9 24.3,41.9C26.4,41.8 27.6,41.7 29.3,42.1C29.3,41.8 29.2,41.5 29.2,41.2C29.2,40.6 29.3,40.1 29.4,39.4C29.5,38.9 29.6,38.4 29.7,37.8C28.7,38.7 26.9,39.7 25.2,40C23.7,40.3 21.2,39.8 20,38.3C20.1,38.3 20.3,38.3 20.4,38.2C20.7,38.1 21,38 21.1,37.8C21.4,37.3 21.2,36.8 21,36.5C20.8,36.2 19.3,35.1 18.6,34.5C17.9,33.9 17.5,33.6 17.1,33.2C17.1,33.2 16.5,32.6 16.3,32.4C16.1,32.2 16,32 15.9,31.9C15.7,31.4 15.6,30.8 15.7,30C15.8,28.9 16.2,28 16.7,27C16.9,26.6 17.4,25.8 17.4,25.8C17.4,25.8 15.7,30 16.6,31.3C16.6,31.3 16.7,30 17.1,28.7C17.4,27.8 17.9,26.5 18.5,25.8C19.1,25.1 20.6,22.5 20.7,20.9C20.7,20.2 20.8,19.5 20.8,19C20.4,18.6 27.4,17.6 27.8,18.7C27.9,19.1 29.3,22.7 30.1,24.6C30.5,25.5 31,26.3 31.3,27.3C31.6,28.4 31.8,29.9 31.8,31.4C31.8,31.7 31.8,32.2 31.7,32.7C31.9,32.7 35.8,28.5 31.2,25C31.2,25 34,26.3 34.1,28.9C34.2,31 33.3,32.7 33.1,33C33.2,33 35.2,33.9 35.3,33.9C35.7,33.9 36.5,33.6 36.5,33.6C36.6,33.3 36.9,32.5 36.9,32.2C37.6,29.9 35.9,26.2 34.3,23.9Z" style="fill:rgb(65,65,65);fill-rule:nonzero;"/>
                </g>
                <g transform="matrix(1,0,0,1,0,-2)">
                    <ellipse cx="21.6" cy="15.3" rx="1.3" ry="2" style="fill:rgb(236,239,241);"/>
                </g>
                <g transform="matrix(1,0,0,1,0,-2)">
                    <ellipse cx="26.1" cy="15.2" rx="1.7" ry="2.3" style="fill:rgb(236,239,241);"/>
                </g>
                <g transform="matrix(-0.1254,-0.9921,0.9921,-0.1254,8.9754,36.9969)">
                    <ellipse cx="21.7" cy="15.5" rx="1.2" ry="0.7" style="fill:rgb(65,65,65);"/>
                </g>
                <g transform="matrix(1,0,0,1,0,-2)">
                    <ellipse cx="26" cy="15.6" rx="1" ry="1.3" style="fill:rgb(65,65,65);"/>
                </g>
                <g transform="matrix(1,0,0,1,0,-2)">
                    <path d="M39.3,37.6C38.9,37.4 38.2,37.1 37.6,36.2C37.3,35.7 37.4,34.3 36.9,33.7C36.6,33.3 36.2,33.5 36.1,33.5C35.2,33.7 33.1,35.1 31.7,33.5C31.5,33.3 31.2,33 30.7,33C30.2,33 30,33.2 29.8,33.6C29.6,34 29.6,34.3 29.6,35.3C29.6,36.1 29.6,37 29.5,37.7C29.3,39.4 29,40.4 29,41.4C29,42.5 29.3,43.2 29.7,43.5C30,43.8 30.5,44 31.6,44C32.7,44 33.4,43.6 34.1,42.9C34.6,42.4 35,42.2 36.4,41.2C37.5,40.5 39.2,39.6 39.5,39.3C39.7,39.1 40,39 40,38.4C40,37.9 39.6,37.7 39.3,37.6Z" style="fill:rgb(243,193,5);fill-rule:nonzero;"/>
                </g>
                <g transform="matrix(1,0,0,1,0,-2)">
                    <path d="M19.2,37.9C18.2,36.3 18.1,36 17.4,35C16.8,34 15.5,32.1 14.7,32.1C14.1,32.1 13.8,32.4 13.4,32.8C13,33.2 12.6,34.1 11.9,34.6C11.3,35.1 9.6,35 9.2,35.6C8.8,36.2 9.6,37.1 9.6,38.6C9.6,39.2 9.1,39.6 9,40C8.9,40.5 8.8,40.8 9,41.2C9.4,41.8 9.9,42 13.3,42.7C15.1,43.1 16.8,44.1 17.9,44.2C19,44.3 20.9,44.2 20.9,41.5C21,39.9 20.1,39.5 19.2,37.9Z" style="fill:rgb(243,193,5);fill-rule:nonzero;"/>
                </g>
                <g transform="matrix(1,0,0,1,0,-2)">
                    <path d="M21.1,19.8C20.5,19.4 20,19 20,18.4C20,17.8 20.4,17.6 21,17.1C21.1,17 22.2,16 23.3,16C24.4,16 25.7,16.7 26.2,16.9C27.1,17.1 28,17.3 27.9,18C27.8,19 27.7,19.2 26.7,19.7C26,19.9 24.7,21 23.8,21C23.4,21 22.8,21 22.4,20.9C22.1,20.8 21.6,20.3 21.1,19.8Z" style="fill:rgb(243,193,5);fill-rule:nonzero;"/>
                </g>
                <g transform="matrix(1,0,0,1,0,-2)">
                    <path d="M20.9,19C21.1,19.2 21.4,19.4 21.7,19.5C21.9,19.6 22.2,19.7 22.2,19.7L23.1,19.7C23.6,19.7 24.3,19.5 25,19.1C25.7,18.8 25.8,18.6 26.3,18.4C26.8,18.1 27.3,17.8 27.1,17.7C26.9,17.6 26.7,17.7 26,18.1C25.4,18.5 24.9,18.7 24.3,19C24,19.1 23.6,19.3 23.3,19.3L22.4,19.3C22.1,19.3 21.9,19.2 21.6,19.1C21.4,19 21.3,18.9 21.2,18.9C21,18.8 20.6,18.4 20.4,18.3C20.4,18.3 20.2,18.3 20.3,18.4C20.6,18.7 20.7,18.8 20.9,19Z" style="fill:rgb(65,65,65);fill-rule:nonzero;"/>
                </g>
                <g transform="matrix(1,0,0,1,0,-2)">
                    <path d="M23.9,16.8C24,17 24.2,17 24.3,17.1C24.4,17.2 24.5,17.2 24.5,17.2C24.6,17.1 24.5,16.9 24.4,16.9C24.4,16.7 23.9,16.7 23.9,16.8Z" style="fill:rgb(65,65,65);fill-rule:nonzero;"/>
                </g>
                <g transform="matrix(1,0,0,1,0,-2)">
                    <path d="M22.3,17C22.3,17.1 22.5,17.2 22.5,17.1C22.6,17 22.7,16.9 22.8,16.9C23,16.8 22.9,16.7 22.6,16.7C22.4,16.8 22.4,16.9 22.3,17Z" style="fill:rgb(65,65,65);fill-rule:nonzero;"/>
                </g>
                <g transform="matrix(1,0,0,1,0,-2)">
                    <path d="M32,34.7L32,35C32.2,35.4 32.7,35.5 33.1,35.5C33.7,35.5 34.3,35.1 34.6,34.7C34.6,34.6 34.7,34.5 34.8,34.4C35,34.1 35.1,33.9 35.2,33.8C35.2,33.8 35.1,33.7 35.1,33.6C35,33.4 34.7,33.2 34.3,33.1C34,33 33.5,32.9 33.3,32.9C32.4,32.8 31.9,33.1 31.6,33.4C31.6,33.4 31.7,33.4 31.7,33.5C31.9,33.7 32,33.9 32,34.2C32.1,34.4 32,34.5 32,34.7Z" style="fill:rgb(65,65,65);fill-rule:nonzero;"/>
                </g>
            </g>
        </g>
    </g>
</svg>
