<?xml version="1.0" encoding="UTF-8" standalone="no"?>
<!DOCTYPE svg PUBLIC "-//W3C//DTD SVG 1.1//EN" "http://www.w3.org/Graphics/SVG/1.1/DTD/svg11.dtd">
<svg width="100%" height="100%" viewBox="0 0 601 140" version="1.1" xmlns="http://www.w3.org/2000/svg" xmlns:xlink="http://www.w3.org/1999/xlink" xml:space="preserve" xmlns:serif="http://www.serif.com/" style="fill-rule:evenodd;clip-rule:evenodd;stroke-linecap:round;stroke-linejoin:round;stroke-miterlimit:1.5;">
    <g transform="matrix(1,0,0,1,-198,-3000)">
        <g id="For" transform="matrix(0.585938,0,0,0.182292,198.553,3000)">
            <rect x="0" y="0" width="1024" height="768" style="fill:none;"/>
            <clipPath id="_clip1">
                <rect x="0" y="0" width="1024" height="768"/>
            </clipPath>
            <g clip-path="url(#_clip1)">
                <g transform="matrix(1.66667,0,0,1,-219.823,-10.9714)">
                    <g>
                        <g transform="matrix(1.024,0,0,5.48571,64.1785,-16412.3)">
                            <circle cx="366.128" cy="3063.09" r="67.734" style="fill:none;stroke:rgb(111,116,114);stroke-width:4px;"/>
                        </g>
                        <g transform="matrix(0.765333,0,0,4.1,158.884,-12167.7)">
                            <circle cx="366.128" cy="3063.09" r="67.734" style="fill:rgb(65,65,65);stroke:rgb(111,116,114);stroke-width:4.01px;"/>
                        </g>
                        <g transform="matrix(1.024,0,0,5.48571,0,-16457.1)">
                            <path d="M428.802,3003.53L428.802,3020.64" style="fill:none;stroke:rgb(111,116,114);stroke-width:2px;"/>
                        </g>
                        <g transform="matrix(6.27019e-17,5.48571,-1.024,3.35903e-16,3584.07,-1961.34)">
                            <path d="M428.802,3003.53L428.802,3020.64" style="fill:none;stroke:rgb(111,116,114);stroke-width:2px;"/>
                        </g>
                        <g transform="matrix(-1.024,-6.71806e-16,1.25404e-16,-5.48571,878.187,17239)">
                            <path d="M428.802,3003.53L428.802,3020.64" style="fill:none;stroke:rgb(111,116,114);stroke-width:2px;"/>
                        </g>
                        <g transform="matrix(-3.3479e-15,-5.48571,1.024,-1.79352e-14,-2705.88,2743.23)">
                            <path d="M428.802,3003.53L428.802,3020.64" style="fill:none;stroke:rgb(111,116,114);stroke-width:2px;"/>
                        </g>
                        <g transform="matrix(0.724077,-3.87899,0.724077,3.87899,-2095.23,-9859.13)">
                            <path d="M428.802,3003.53L428.802,3020.64" style="fill:none;stroke:rgb(111,116,114);stroke-width:2px;"/>
                        </g>
                        <g transform="matrix(0.724077,3.87899,-0.724077,3.87899,2352.44,-13185.8)">
                            <path d="M428.802,3003.53L428.802,3020.64" style="fill:none;stroke:rgb(111,116,114);stroke-width:2px;"/>
                        </g>
                        <g transform="matrix(-0.724077,3.87899,-0.724077,-3.87899,2973.41,10641)">
                            <path d="M428.802,3003.53L428.802,3020.64" style="fill:none;stroke:rgb(111,116,114);stroke-width:2px;"/>
                        </g>
                        <g transform="matrix(-0.724077,-3.87899,0.724077,-3.87899,-1474.25,13967.7)">
                            <path d="M428.802,3003.53L428.802,3020.64" style="fill:none;stroke:rgb(111,116,114);stroke-width:2px;"/>
                        </g>
                        <g transform="matrix(0.989108,1.41981,-0.265031,5.29879,828.942,-16491.9)">
                            <path d="M428.802,3003.53L428.802,3020.64" style="fill:none;stroke:rgb(111,116,114);stroke-width:2px;"/>
                        </g>
                        <g transform="matrix(-0.265031,5.29879,-0.989108,-1.41981,3590.55,2479.42)">
                            <path d="M428.802,3003.53L428.802,3020.64" style="fill:none;stroke:rgb(111,116,114);stroke-width:2px;"/>
                        </g>
                        <g transform="matrix(-0.989108,-1.41981,0.265031,-5.29879,49.2456,17273.8)">
                            <path d="M428.802,3003.53L428.802,3020.64" style="fill:none;stroke:rgb(111,116,114);stroke-width:2px;"/>
                        </g>
                        <g transform="matrix(0.265031,-5.29879,0.989108,1.41981,-2712.37,-1697.53)">
                            <path d="M428.802,3003.53L428.802,3020.64" style="fill:none;stroke:rgb(111,116,114);stroke-width:2px;"/>
                        </g>
                        <g transform="matrix(0.88681,-2.74286,0.512,4.75077,-1513.66,-13023.8)">
                            <path d="M428.802,3003.53L428.802,3020.64" style="fill:none;stroke:rgb(111,116,114);stroke-width:2px;"/>
                        </g>
                        <g transform="matrix(0.512,4.75077,-0.88681,2.74286,2943.18,-10070.2)">
                            <path d="M428.802,3003.53L428.802,3020.64" style="fill:none;stroke:rgb(111,116,114);stroke-width:2px;"/>
                        </g>
                        <g transform="matrix(-0.88681,2.74286,-0.512,-4.75077,2391.85,13805.7)">
                            <path d="M428.802,3003.53L428.802,3020.64" style="fill:none;stroke:rgb(111,116,114);stroke-width:2px;"/>
                        </g>
                        <g transform="matrix(-0.512,-4.75077,0.88681,-2.74286,-2064.99,10852.1)">
                            <path d="M428.802,3003.53L428.802,3020.64" style="fill:none;stroke:rgb(111,116,114);stroke-width:2px;"/>
                        </g>
                        <g transform="matrix(0.88681,2.74286,-0.512,4.75077,1631.32,-15376.1)">
                            <path d="M428.802,3003.53L428.802,3020.64" style="fill:none;stroke:rgb(111,116,114);stroke-width:2px;"/>
                        </g>
                        <g transform="matrix(-0.512,4.75077,-0.88681,-2.74286,3382.27,6777.85)">
                            <path d="M428.802,3003.53L428.802,3020.64" style="fill:none;stroke:rgb(111,116,114);stroke-width:2px;"/>
                        </g>
                        <g transform="matrix(-0.88681,-2.74286,0.512,-4.75077,-753.128,16158)">
                            <path d="M428.802,3003.53L428.802,3020.64" style="fill:none;stroke:rgb(111,116,114);stroke-width:2px;"/>
                        </g>
                        <g transform="matrix(0.512,-4.75077,0.88681,2.74286,-2504.08,-5995.96)">
                            <path d="M428.802,3003.53L428.802,3020.64" style="fill:none;stroke:rgb(111,116,114);stroke-width:2px;"/>
                        </g>
                        <g transform="matrix(0.989108,-1.41981,0.265031,5.29879,-799.018,-15274.2)">
                            <path d="M428.802,3003.53L428.802,3020.64" style="fill:none;stroke:rgb(111,116,114);stroke-width:2px;"/>
                        </g>
                        <g transform="matrix(0.265031,5.29879,-0.989108,1.41981,3363.26,-6241.8)">
                            <path d="M428.802,3003.53L428.802,3020.64" style="fill:none;stroke:rgb(111,116,114);stroke-width:2px;"/>
                        </g>
                        <g transform="matrix(-0.989108,1.41981,-0.265031,-5.29879,1677.21,16056.1)">
                            <path d="M428.802,3003.53L428.802,3020.64" style="fill:none;stroke:rgb(111,116,114);stroke-width:2px;"/>
                        </g>
                        <g transform="matrix(-0.265031,-5.29879,0.989108,-1.41981,-2485.07,7023.69)">
                            <path d="M428.802,3003.53L428.802,3020.64" style="fill:none;stroke:rgb(111,116,114);stroke-width:2px;"/>
                        </g>
                    </g>
                    <g id="Gopher" transform="matrix(0.0940745,0,0,0.503971,401.246,317.98)">
                        <path d="M381.081,363.552C378.301,364.788 373.668,395.058 387.876,396.602C397.452,397.529 423.707,400.618 429.884,396.602C441.931,388.88 440.695,370.347 433.9,365.714C422.471,358.301 384.17,362.008 381.081,363.552ZM302.625,136.834C270.811,133.127 217.375,162.78 209.344,225.792C200.695,291.274 277.915,356.139 352.046,291.274C391.892,256.371 405.792,148.88 302.625,136.834ZM517.606,136.834C414.44,148.88 428.34,256.371 468.185,291.274C542.317,356.139 619.537,291.274 610.888,225.792C603.166,162.78 549.73,133.127 517.606,136.834Z" style="fill:white;fill-rule:nonzero;"/>
                        <path d="M715.598,106.873C739.382,155.985 667.104,161.236 670.811,183.166C677.606,222.703 672.973,281.39 667.722,339.151C658.764,437.066 731.969,671.506 579.382,765.714C550.656,783.629 482.394,793.514 415.058,795.058L414.44,795.058C347.104,793.514 269.575,783.629 240.849,765.714C88.571,671.506 161.776,437.066 153.127,339.151C147.568,281.39 142.934,222.703 150.039,183.166C153.745,161.236 81.467,156.293 105.251,106.873C125.637,64.556 175.985,101.931 188.649,88.649C253.205,21.622 331.66,3.707 393.436,2.162L427.413,2.162C488.88,5.251 567.336,21.931 632.201,88.649C644.865,101.931 694.903,64.556 715.598,106.873ZM381.081,363.552C378.301,364.788 373.668,395.058 387.876,396.602C397.452,397.529 423.707,400.618 429.884,396.602C441.931,388.88 440.695,370.347 433.9,365.714C422.471,358.301 384.17,362.008 381.081,363.552ZM302.625,136.834C270.811,133.127 217.375,162.78 209.344,225.792C200.695,291.274 277.915,356.139 352.046,291.274C391.892,256.371 405.792,148.88 302.625,136.834ZM517.606,136.834C414.44,148.88 428.34,256.371 468.185,291.274C542.317,356.139 619.537,291.274 610.888,225.792C603.166,162.78 549.73,133.127 517.606,136.834Z" style="fill:url(#_Linear2);fill-rule:nonzero;"/>
                        <path d="M410.425,299.614C429.884,296.834 476.525,319.073 473.436,345.328C469.73,375.907 353.282,379.923 347.104,343.475C343.398,321.236 361.004,307.027 410.425,299.614ZM673.282,545.792C663.707,545.483 657.529,532.819 657.529,525.097C657.529,511.197 659.382,494.826 669.575,487.722C690.579,473.205 707.259,546.1 673.282,545.792ZM147.259,545.792C113.282,546.1 129.961,473.205 150.965,487.722C161.158,494.826 163.012,511.197 163.012,525.097C163.012,532.819 156.834,545.483 147.259,545.792ZM608.726,769.73C614.903,778.687 615.212,784.865 605.328,789.498C567.645,806.795 533.977,783.629 546.641,777.143C573.514,763.552 590.193,742.239 608.726,769.73ZM211.815,772.819C230.347,745.328 247.027,766.641 273.9,780.232C286.564,786.718 252.896,809.884 215.212,792.587C205.328,787.954 205.637,781.776 211.815,772.819Z" style="fill:rgb(172,163,155);fill-rule:nonzero;"/>
                        <path d="M657.838,114.286C659.382,107.799 675.444,104.71 684.402,115.83C695.212,129.112 668.649,147.336 667.413,139.923C664.324,119.846 655.985,120.772 657.838,114.286ZM162.703,114.286C164.556,120.772 156.216,119.846 153.127,139.923C151.892,147.336 125.328,129.112 136.139,115.83C144.788,104.71 160.849,107.799 162.703,114.286ZM524.71,264.71C505.263,264.71 489.498,248.945 489.498,229.498C489.498,210.051 505.263,194.286 524.71,194.286C544.158,194.286 559.923,210.051 559.923,229.498C559.923,248.945 544.158,264.71 524.71,264.71ZM515.444,225.483C521.585,225.483 526.564,220.504 526.564,214.363C526.564,208.222 521.585,203.243 515.444,203.243C509.303,203.243 504.324,208.222 504.324,214.363C504.324,220.504 509.303,225.483 515.444,225.483ZM378.61,314.44C382.317,300.232 395.29,295.598 405.792,295.29C432.664,294.672 442.857,309.189 443.784,320.618C445.637,340.077 370.27,344.71 378.61,314.44ZM295.83,264.71C276.383,264.71 260.618,248.945 260.618,229.498C260.618,210.051 276.383,194.286 295.83,194.286C315.277,194.286 331.042,210.051 331.042,229.498C331.042,248.945 315.277,264.71 295.83,264.71ZM305.097,225.483C311.238,225.483 316.216,220.504 316.216,214.363C316.216,208.222 311.238,203.243 305.097,203.243C298.955,203.243 293.977,208.222 293.977,214.363C293.977,220.504 298.955,225.483 305.097,225.483Z" style="fill:rgb(65,65,65);fill-rule:nonzero;"/>
                    </g>
                    <g transform="matrix(0.0940745,0,0,0.503971,401.246,317.98)">
                        <path d="M181.941,81.828C196.08,67.173 210.863,54.794 225.987,44.368C227.583,43.268 229.476,42.679 231.415,42.679L588.856,42.679C590.768,42.679 592.635,43.251 594.218,44.323C609.55,54.704 624.549,67.083 638.906,81.829C639.181,81.887 640.065,82.066 640.632,82.092C642.333,82.17 644.24,81.978 646.306,81.682C653.101,80.707 661.19,78.603 669.529,77.406C690.036,74.463 711.468,76.658 724.19,102.671L724.206,102.704C730.512,115.725 731.077,126.346 728.669,135.176C725.196,147.912 714.962,157.289 703.61,164.819C701.805,166.016 699.647,166.565 697.489,166.376L573.244,155.491C571.32,155.323 569.492,154.575 568,153.348C551.817,140.027 532.94,133.808 518.707,135.449C498.204,137.845 482.753,144.241 471.609,153.364C469.9,154.763 467.759,155.528 465.55,155.528L354.681,155.528C352.473,155.528 350.332,154.763 348.623,153.364C337.477,144.24 322.024,137.843 301.518,135.448C287.43,133.807 268.638,140.035 252.462,153.348C250.972,154.575 249.144,155.322 247.221,155.491L123.197,166.376C121.04,166.565 118.884,166.017 117.079,164.822C105.756,157.322 95.584,147.955 92.151,135.191C89.78,126.374 90.363,115.754 96.634,102.724C109.179,76.682 130.625,74.459 151.201,77.405C159.559,78.602 167.676,80.706 174.495,81.681C176.574,81.978 178.491,82.17 180.201,82.092C180.771,82.066 181.658,81.887 181.941,81.828Z" style="fill:rgb(243,193,5);"/>
                    </g>
                    <g transform="matrix(1.024,0,0,5.48571,60.7796,-16485.4)">
                        <path d="M391.729,3080.03C391.729,3080.03 392.989,3083 392.989,3084.28C392.989,3084.97 392.424,3085.54 391.729,3085.54C391.034,3085.54 390.47,3084.97 390.47,3084.28C390.47,3083 391.729,3080.03 391.729,3080.03Z" style="fill:rgb(126,221,255);"/>
                    </g>
                    <g transform="matrix(1.024,0,0,5.48571,57.6466,-16426.6)">
                        <path d="M391.729,3080.03C391.729,3080.03 392.989,3083 392.989,3084.28C392.989,3084.97 392.424,3085.54 391.729,3085.54C391.034,3085.54 390.47,3084.97 390.47,3084.28C390.47,3083 391.729,3080.03 391.729,3080.03Z" style="fill:rgb(126,221,255);"/>
                    </g>
                </g>
                <g transform="matrix(0.156791,0,0,0.503971,448.921,317.98)">
                    <path d="M149.739,622.472C146.562,605.502 144.69,588.07 143.751,570.511C163.413,566.928 178.756,538.195 178.756,503.329C178.756,471.473 165.948,444.736 148.738,437.625C151.017,411.596 153.223,387.525 153.749,366.858C204.155,448.545 296.651,503.329 402.316,503.329C521.571,503.329 624.053,433.545 668.183,334.06C668.03,335.758 667.876,337.454 667.722,339.151C665.403,364.501 668.591,399.004 671.943,437.855C655.006,445.297 642.465,471.807 642.465,503.329C642.465,537.787 657.45,566.254 676.782,570.375C675.828,587.972 673.939,605.443 670.739,622.45C490.334,661.073 316.297,662.602 149.739,622.472Z" style="fill:rgb(243,193,5);"/>
                </g>
                <g transform="matrix(0.156791,0,0,0.503971,448.921,317.98)">
                    <path d="M670.739,622.45C659.955,679.765 634.285,710.047 579.382,743.944C550.656,761.859 482.394,771.744 415.058,773.288L414.44,773.288C347.104,771.744 269.575,761.859 240.849,743.944C186.065,710.051 160.465,679.778 149.739,622.472C316.297,662.602 490.334,661.073 670.739,622.45Z" style="fill:rgb(122,59,139);"/>
                </g>
                <g transform="matrix(0.79178,0,0,2.54501,76.1806,476.028)">
                    <path d="M546.762,57.463C543.612,58.796 538.672,60.326 536.607,57.014C535.463,55.18 536.191,52.322 537.878,49.727C538.965,48.058 540.344,46.533 541.74,45C540.962,46.255 538.799,50.426 541.644,52.504C542.737,53.307 544.688,53.391 547.117,52.761L576,45.124L546.762,57.463Z" style="fill:rgb(122,59,139);fill-rule:nonzero;"/>
                </g>
            </g>
        </g>
    </g>
    <defs>
        <linearGradient id="_Linear2" x1="0" y1="0" x2="1" y2="0" gradientUnits="userSpaceOnUse" gradientTransform="matrix(619.975,0,0,792.896,100.437,398.61)"><stop offset="0" style="stop-color:rgb(15,123,193);stop-opacity:1"/><stop offset="1" style="stop-color:rgb(91,203,245);stop-opacity:1"/></linearGradient>
    </defs>
</svg>
