<?xml version="1.0" encoding="UTF-8" standalone="no"?>
<!DOCTYPE svg PUBLIC "-//W3C//DTD SVG 1.1//EN" "http://www.w3.org/Graphics/SVG/1.1/DTD/svg11.dtd">
<svg width="100%" height="100%" viewBox="0 0 601 140" version="1.1" xmlns="http://www.w3.org/2000/svg" xmlns:xlink="http://www.w3.org/1999/xlink" xml:space="preserve" xmlns:serif="http://www.serif.com/" style="fill-rule:evenodd;clip-rule:evenodd;stroke-linejoin:round;stroke-miterlimit:2;">
    <g transform="matrix(1,0,0,1,-201,-7780)">
        <g id="Generics" transform="matrix(0.585938,0,0,0.182292,201.763,7780)">
            <rect x="0" y="0" width="1024" height="768" style="fill:none;"/>
            <g id="Livello-1" serif:id="Livello 1">
            </g>
            <g transform="matrix(1.12698,0,0,1.12698,67.1843,-65.5461)">
                <g transform="matrix(1,0,0,1,-241.861,-19.3061)">
                    <g id="Gopher">
                    </g>
                    <g id="Gopher1" serif:id="Gopher" transform="matrix(0.145328,0,0,0.467126,428.579,325.949)">
                        <path d="M381.081,363.552C378.301,364.788 373.668,395.058 387.876,396.602C397.452,397.529 423.707,400.618 429.884,396.602C441.931,388.88 440.695,370.347 433.9,365.714C422.471,358.301 384.17,362.008 381.081,363.552ZM302.625,136.834C270.811,133.127 217.375,162.78 209.344,225.792C200.695,291.274 277.915,356.139 352.046,291.274C391.892,256.371 405.792,148.88 302.625,136.834ZM517.606,136.834C414.44,148.88 428.34,256.371 468.185,291.274C542.317,356.139 619.537,291.274 610.888,225.792C603.166,162.78 549.73,133.127 517.606,136.834Z" style="fill:white;fill-rule:nonzero;"/>
                        <path d="M715.598,106.873C739.382,155.985 667.104,161.236 670.811,183.166C677.606,222.703 672.973,281.39 667.722,339.151C658.764,437.066 731.969,671.506 579.382,765.714C550.656,783.629 482.394,793.514 415.058,795.058L414.44,795.058C347.104,793.514 269.575,783.629 240.849,765.714C88.571,671.506 161.776,437.066 153.127,339.151C147.568,281.39 142.934,222.703 150.039,183.166C153.745,161.236 81.467,156.293 105.251,106.873C125.637,64.556 175.985,101.931 188.649,88.649C253.205,21.622 331.66,3.707 393.436,2.162L427.413,2.162C488.88,5.251 567.336,21.931 632.201,88.649C644.865,101.931 694.903,64.556 715.598,106.873ZM381.081,363.552C378.301,364.788 373.668,395.058 387.876,396.602C397.452,397.529 423.707,400.618 429.884,396.602C441.931,388.88 440.695,370.347 433.9,365.714C422.471,358.301 384.17,362.008 381.081,363.552ZM302.625,136.834C270.811,133.127 217.375,162.78 209.344,225.792C200.695,291.274 277.915,356.139 352.046,291.274C391.892,256.371 405.792,148.88 302.625,136.834ZM517.606,136.834C414.44,148.88 428.34,256.371 468.185,291.274C542.317,356.139 619.537,291.274 610.888,225.792C603.166,162.78 549.73,133.127 517.606,136.834Z" style="fill:url(#_Linear1);fill-rule:nonzero;"/>
                        <path d="M410.425,299.614C429.884,296.834 476.525,319.073 473.436,345.328C469.73,375.907 353.282,379.923 347.104,343.475C343.398,321.236 361.004,307.027 410.425,299.614ZM673.282,545.792C663.707,545.483 657.529,532.819 657.529,525.097C657.529,511.197 659.382,494.826 669.575,487.722C690.579,473.205 707.259,546.1 673.282,545.792ZM147.259,545.792C113.282,546.1 129.961,473.205 150.965,487.722C161.158,494.826 163.012,511.197 163.012,525.097C163.012,532.819 156.834,545.483 147.259,545.792ZM608.726,769.73C614.903,778.687 615.212,784.865 605.328,789.498C567.645,806.795 533.977,783.629 546.641,777.143C573.514,763.552 590.193,742.239 608.726,769.73ZM211.815,772.819C230.347,745.328 247.027,766.641 273.9,780.232C286.564,786.718 252.896,809.884 215.212,792.587C205.328,787.954 205.637,781.776 211.815,772.819Z" style="fill:rgb(172,163,155);fill-rule:nonzero;"/>
                        <path d="M657.838,114.286C659.382,107.799 675.444,104.71 684.402,115.83C695.212,129.112 668.649,147.336 667.413,139.923C664.324,119.846 655.985,120.772 657.838,114.286ZM162.703,114.286C164.556,120.772 156.216,119.846 153.127,139.923C151.892,147.336 125.328,129.112 136.139,115.83C144.788,104.71 160.849,107.799 162.703,114.286ZM545.551,275.131C526.104,275.131 510.339,259.366 510.339,239.918C510.339,220.471 526.104,204.706 545.551,204.706C564.998,204.706 580.764,220.471 580.764,239.918C580.764,259.366 564.998,275.131 545.551,275.131ZM536.285,235.903C542.426,235.903 547.404,230.925 547.404,224.783C547.404,218.642 542.426,213.664 536.285,213.664C530.144,213.664 525.165,218.642 525.165,224.783C525.165,230.925 530.144,235.903 536.285,235.903ZM378.61,314.44C382.317,300.232 395.29,295.598 405.792,295.29C432.664,294.672 442.857,309.189 443.784,320.618C445.637,340.077 370.27,344.71 378.61,314.44ZM274.989,275.131C255.542,275.131 239.777,259.366 239.777,239.918C239.777,220.471 255.542,204.706 274.989,204.706C294.437,204.706 310.202,220.471 310.202,239.918C310.202,259.366 294.437,275.131 274.989,275.131ZM284.256,235.903C290.397,235.903 295.375,230.925 295.375,224.783C295.375,218.642 290.397,213.664 284.256,213.664C278.115,213.664 273.136,218.642 273.136,224.783C273.136,230.925 278.115,235.903 284.256,235.903Z" style="fill:rgb(65,65,65);fill-rule:nonzero;"/>
                    </g>
                </g>
                <g transform="matrix(0.0978224,0,0,0.0978224,179.584,46.2868)">
                    <g transform="matrix(1.70667,0,0,5.48571,5.68434e-14,0)">
                        <path d="M776.283,526.285C776.739,536.938 771.033,552.448 757.758,552.521C744.352,552.594 730.62,543.461 731.166,528.419C731.618,515.963 741.306,505.813 753.774,505.813C765.519,505.813 775.781,514.575 776.283,526.285ZM400.07,158.809C434.032,158.809 461.271,197.565 481.555,250.159L320.562,250.159C340.935,197.831 367.724,158.809 400.07,158.809ZM288.351,366.387L441.269,366.387C447.832,366.387 453.152,361.066 453.152,354.504C453.152,347.942 447.832,342.621 441.269,342.621L293.288,342.621C298.484,319.287 304.748,295.868 312.028,273.928L489.963,273.928C497.072,295.77 503.121,319.153 508.097,342.621L476.127,342.621C469.565,342.621 464.244,347.942 464.244,354.504C464.244,361.066 469.565,366.387 476.127,366.387L512.774,366.387C516.436,386.523 519.305,406.345 521.357,424.913L279.126,424.913C281.332,406.607 284.42,386.741 288.351,366.387ZM46.373,551.022C33.906,551.022 23.767,540.882 23.767,528.418C23.767,515.954 33.908,505.812 46.373,505.812C58.841,505.812 68.981,515.952 68.981,528.418C68.981,540.882 58.841,551.022 46.373,551.022ZM138.608,528.418C138.608,515.952 148.748,505.812 161.214,505.812C173.681,505.812 183.822,515.954 183.822,528.418C183.822,540.882 173.681,551.022 161.214,551.022C148.748,551.022 138.608,540.882 138.608,528.418ZM262.624,528.418C262.624,515.952 272.765,505.812 285.231,505.812C297.696,505.812 307.838,515.954 307.838,528.418C307.838,540.882 297.698,551.022 285.231,551.022C272.764,551.022 262.624,540.882 262.624,528.418ZM377.466,528.418C377.466,515.952 387.607,505.812 400.074,505.812C412.541,505.812 422.68,515.954 422.68,528.418C422.68,540.882 412.54,551.022 400.074,551.022C387.609,551.022 377.466,540.882 377.466,528.418ZM492.31,528.418C492.31,515.952 502.451,505.812 514.916,505.812C527.383,505.812 537.524,515.954 537.524,528.418C537.524,540.882 527.383,551.022 514.916,551.022C502.449,551.022 492.31,540.882 492.31,528.418ZM616.324,528.418C616.324,515.952 626.464,505.812 638.932,505.812C651.399,505.812 661.538,515.954 661.538,528.418C661.538,540.882 651.397,551.022 638.932,551.022C626.464,551.022 616.324,540.882 616.324,528.418ZM746.499,482.188C745.928,482.104 53.633,482.047 53.633,482.047C52.451,473.177 52.172,457.805 56.998,452.691C59.545,449.993 63.394,448.68 68.764,448.68L731.386,448.68C736.713,448.68 740.539,449.968 743.084,452.619C747.225,456.933 747.699,473.237 746.499,482.188Z" style="fill:url(#_Linear2);fill-rule:nonzero;"/>
                        <path d="M642,632.218L641.641,632.419C641.488,632.507 625.821,641.191 593.208,641.191L206.939,641.191C174.326,641.191 158.659,632.508 158.62,632.486L158.148,632.219C125.133,614.472 99.159,590.008 80.805,559.446C88.223,551.222 92.748,540.341 92.748,528.419C92.748,520.215 90.598,512.507 86.844,505.812L120.75,505.812C116.997,512.504 114.845,520.213 114.845,528.419C114.845,553.99 135.647,574.791 161.218,574.791C186.79,574.791 207.592,553.99 207.592,528.419C207.592,520.215 205.442,512.507 201.687,505.812L244.767,505.812C241.014,512.504 238.862,520.213 238.862,528.419C238.862,553.99 259.664,574.791 285.235,574.791C310.807,574.791 331.609,553.99 331.609,528.419C331.609,520.215 329.459,512.507 325.704,505.812L359.61,505.812C355.857,512.504 353.706,520.213 353.706,528.419C353.706,553.99 374.507,574.791 400.079,574.791C425.651,574.791 446.452,553.99 446.452,528.419C446.452,520.215 444.302,512.507 440.548,505.812L474.454,505.812C470.701,512.504 468.549,520.213 468.549,528.419C468.549,553.99 489.351,574.791 514.922,574.791C540.494,574.791 561.296,553.99 561.296,528.419C561.296,520.215 559.146,512.507 555.391,505.812L598.471,505.812C594.718,512.504 592.566,520.213 592.566,528.419C592.566,553.99 613.368,574.791 638.939,574.791C664.511,574.791 685.313,553.99 685.313,528.419C685.313,520.215 683.163,512.507 679.408,505.812L713.314,505.812C709.561,512.504 707.41,520.213 707.41,528.419C707.41,540.34 711.933,551.219 719.35,559.443C700.988,590.004 675.019,614.471 642,632.218Z" style="fill:url(#_Linear3);fill-rule:nonzero;"/>
                        <path d="M799.948,524.083C798.25,505.833 786.33,491.012 770.103,484.974C771.331,475.688 771.484,469.543 771.502,468.062C771.633,464.883 771.723,448.341 760.436,436.379C755.5,431.149 746.455,424.912 731.383,424.912L545.257,424.912C541.807,393.255 531.411,316.499 506.383,248.428C478.723,173.19 442.952,135.04 400.068,135.04C359.018,135.04 324.015,172.847 296.026,247.41C269.823,317.228 258.746,394.737 255.195,424.91L68.762,424.91C53.691,424.91 44.645,431.146 39.709,436.377C28.423,448.34 28.514,464.88 28.644,468.06C28.662,469.543 28.817,475.701 30.052,485.018C12.512,491.637 0,508.591 0,528.418C0,553.988 20.802,574.79 46.373,574.79C51.447,574.79 56.328,573.96 60.901,572.446C81.412,606.302 110.22,633.402 146.717,653.057C149.92,654.896 169.173,664.958 206.94,664.958L593.208,664.958C630.98,664.958 650.233,654.894 653.433,653.057C689.93,633.4 718.736,606.299 739.244,572.446C743.819,573.958 748.7,574.791 753.775,574.791C764.566,574.791 775.075,571 783.367,564.121C788.419,559.93 789.116,552.438 784.925,547.388C780.734,542.336 773.242,541.641 768.192,545.83C764.097,549.229 759.109,551.024 753.774,551.024C741.308,551.024 731.166,540.883 731.166,528.419C731.166,515.955 741.306,505.813 753.774,505.813C765.519,505.813 775.197,514.615 776.283,526.285C776.891,532.821 782.68,537.626 789.217,537.016C795.75,536.407 800.555,530.618 799.948,524.083ZM400.07,158.809C434.032,158.809 461.271,197.565 481.555,250.159L320.562,250.159C340.935,197.831 367.724,158.809 400.07,158.809ZM288.351,366.387L441.269,366.387C447.832,366.387 453.152,361.066 453.152,354.504C453.152,347.942 447.832,342.621 441.269,342.621L293.288,342.621C298.484,319.287 304.748,295.868 312.028,273.928L489.963,273.928C497.072,295.77 503.121,319.153 508.097,342.621L476.127,342.621C469.565,342.621 464.244,347.942 464.244,354.504C464.244,361.066 469.565,366.387 476.127,366.387L512.774,366.387C516.436,386.523 519.305,406.345 521.357,424.913L279.126,424.913C281.332,406.607 284.42,386.741 288.351,366.387ZM46.373,551.022C33.906,551.022 23.767,540.882 23.767,528.418C23.767,515.954 33.908,505.812 46.373,505.812C58.841,505.812 68.981,515.952 68.981,528.418C68.981,540.882 58.841,551.022 46.373,551.022ZM642,632.218L641.641,632.419C641.488,632.507 625.821,641.191 593.208,641.191L206.939,641.191C174.326,641.191 158.659,632.508 158.62,632.486L158.148,632.219C125.133,614.472 99.159,590.008 80.805,559.446C88.223,551.222 92.748,540.341 92.748,528.419C92.748,520.215 90.598,512.507 86.844,505.812L120.75,505.812C116.997,512.504 114.845,520.213 114.845,528.419C114.845,553.99 135.647,574.791 161.218,574.791C186.79,574.791 207.592,553.99 207.592,528.419C207.592,520.215 205.442,512.507 201.687,505.812L244.767,505.812C241.014,512.504 238.862,520.213 238.862,528.419C238.862,553.99 259.664,574.791 285.235,574.791C310.807,574.791 331.609,553.99 331.609,528.419C331.609,520.215 329.459,512.507 325.704,505.812L359.61,505.812C355.857,512.504 353.706,520.213 353.706,528.419C353.706,553.99 374.507,574.791 400.079,574.791C425.651,574.791 446.452,553.99 446.452,528.419C446.452,520.215 444.302,512.507 440.548,505.812L474.454,505.812C470.701,512.504 468.549,520.213 468.549,528.419C468.549,553.99 489.351,574.791 514.922,574.791C540.494,574.791 561.296,553.99 561.296,528.419C561.296,520.215 559.146,512.507 555.391,505.812L598.471,505.812C594.718,512.504 592.566,520.213 592.566,528.419C592.566,553.99 613.368,574.791 638.939,574.791C664.511,574.791 685.313,553.99 685.313,528.419C685.313,520.215 683.163,512.507 679.408,505.812L713.314,505.812C709.561,512.504 707.41,520.213 707.41,528.419C707.41,540.34 711.933,551.219 719.35,559.443C700.988,590.004 675.019,614.471 642,632.218ZM138.608,528.418C138.608,515.952 148.748,505.812 161.214,505.812C173.681,505.812 183.822,515.954 183.822,528.418C183.822,540.882 173.681,551.022 161.214,551.022C148.748,551.022 138.608,540.882 138.608,528.418ZM262.624,528.418C262.624,515.952 272.765,505.812 285.231,505.812C297.696,505.812 307.838,515.954 307.838,528.418C307.838,540.882 297.698,551.022 285.231,551.022C272.764,551.022 262.624,540.882 262.624,528.418ZM377.466,528.418C377.466,515.952 387.607,505.812 400.074,505.812C412.541,505.812 422.68,515.954 422.68,528.418C422.68,540.882 412.54,551.022 400.074,551.022C387.609,551.022 377.466,540.882 377.466,528.418ZM492.31,528.418C492.31,515.952 502.451,505.812 514.916,505.812C527.383,505.812 537.524,515.954 537.524,528.418C537.524,540.882 527.383,551.022 514.916,551.022C502.449,551.022 492.31,540.882 492.31,528.418ZM616.324,528.418C616.324,515.952 626.464,505.812 638.932,505.812C651.399,505.812 661.538,515.954 661.538,528.418C661.538,540.882 651.397,551.022 638.932,551.022C626.464,551.022 616.324,540.882 616.324,528.418ZM746.499,482.188C745.928,482.104 53.633,482.047 53.633,482.047C52.451,473.177 52.172,457.805 56.998,452.691C59.545,449.993 63.394,448.68 68.764,448.68L731.386,448.68C736.713,448.68 740.539,449.968 743.084,452.619C747.225,456.933 747.699,473.237 746.499,482.188Z" style="fill:rgb(104,82,2);fill-rule:nonzero;"/>
                    </g>
                    <g transform="matrix(1.70667,0,0,5.48571,5.68434e-14,0)">
                        <path d="M549.407,593.657L524.454,593.657C517.891,593.657 512.571,598.977 512.571,605.539C512.571,612.102 517.891,617.422 524.454,617.422L549.407,617.422C555.969,617.422 561.29,612.102 561.29,605.539C561.29,598.977 555.969,593.657 549.407,593.657Z" style="fill:rgb(104,82,2);fill-rule:nonzero;"/>
                    </g>
                    <g transform="matrix(1.70667,0,0,5.48571,5.68434e-14,0)">
                        <path d="M489.594,593.657L407.995,593.657C401.432,593.657 396.112,598.977 396.112,605.539C396.112,612.102 401.432,617.422 407.995,617.422L489.594,617.422C496.157,617.422 501.477,612.102 501.477,605.539C501.477,598.977 496.158,593.657 489.594,593.657Z" style="fill:rgb(104,82,2);fill-rule:nonzero;"/>
                    </g>
                </g>
            </g>
            <g transform="matrix(1,0,0,1,91.5616,-115.957)">
                <g transform="matrix(1,0,0,1,-100.25,-21.0903)">
                    <g id="Gopher2" serif:id="Gopher">
                    </g>
                    <g id="Gopher3" serif:id="Gopher" transform="matrix(0.145328,0,0,0.467126,428.579,325.949)">
                        <path d="M381.081,363.552C378.301,364.788 373.668,395.058 387.876,396.602C397.452,397.529 423.707,400.618 429.884,396.602C441.931,388.88 440.695,370.347 433.9,365.714C422.471,358.301 384.17,362.008 381.081,363.552ZM302.625,136.834C270.811,133.127 217.375,162.78 209.344,225.792C200.695,291.274 277.915,356.139 352.046,291.274C391.892,256.371 405.792,148.88 302.625,136.834ZM517.606,136.834C414.44,148.88 428.34,256.371 468.185,291.274C542.317,356.139 619.537,291.274 610.888,225.792C603.166,162.78 549.73,133.127 517.606,136.834Z" style="fill:white;fill-rule:nonzero;"/>
                        <path d="M632.201,88.649C644.865,101.931 667.104,161.236 670.811,183.166C677.606,222.703 672.973,281.39 667.722,339.151C658.764,437.066 731.969,671.506 579.382,765.714C550.656,783.629 482.394,793.514 415.058,795.058L414.44,795.058C347.104,793.514 269.575,783.629 240.849,765.714C88.571,671.506 161.776,437.066 153.127,339.151C147.568,281.39 142.934,222.703 150.039,183.166C153.745,161.236 175.985,101.931 188.649,88.649C253.205,21.622 331.66,3.707 393.436,2.162L427.413,2.162C488.88,5.251 567.336,21.931 632.201,88.649ZM381.081,363.552C378.301,364.788 373.668,395.058 387.876,396.602C397.452,397.529 423.707,400.618 429.884,396.602C441.931,388.88 440.695,370.347 433.9,365.714C422.471,358.301 384.17,362.008 381.081,363.552ZM302.625,136.834C270.811,133.127 217.375,162.78 209.344,225.792C200.695,291.274 277.915,356.139 352.046,291.274C391.892,256.371 405.792,148.88 302.625,136.834ZM517.606,136.834C414.44,148.88 428.34,256.371 468.185,291.274C542.317,356.139 619.537,291.274 610.888,225.792C603.166,162.78 549.73,133.127 517.606,136.834Z" style="fill:url(#_Linear4);fill-rule:nonzero;"/>
                        <path d="M410.425,299.614C429.884,296.834 476.525,319.073 473.436,345.328C469.73,375.907 353.282,379.923 347.104,343.475C343.398,321.236 361.004,307.027 410.425,299.614ZM673.282,545.792C663.707,545.483 657.529,532.819 657.529,525.097C657.529,511.197 659.382,494.826 669.575,487.722C690.579,473.205 707.259,546.1 673.282,545.792ZM147.259,545.792C113.282,546.1 129.961,473.205 150.965,487.722C161.158,494.826 163.012,511.197 163.012,525.097C163.012,532.819 156.834,545.483 147.259,545.792ZM608.726,769.73C614.903,778.687 615.212,784.865 605.328,789.498C567.645,806.795 533.977,783.629 546.641,777.143C573.514,763.552 590.193,742.239 608.726,769.73ZM211.815,772.819C230.347,745.328 247.027,766.641 273.9,780.232C286.564,786.718 252.896,809.884 215.212,792.587C205.328,787.954 205.637,781.776 211.815,772.819Z" style="fill:rgb(172,163,155);fill-rule:nonzero;"/>
                        <path d="M512.967,276.454C493.52,276.454 477.755,260.689 477.755,241.242C477.755,221.794 493.52,206.029 512.967,206.029C532.414,206.029 548.179,221.794 548.179,241.242C548.179,260.689 532.414,276.454 512.967,276.454ZM503.7,237.226C509.842,237.226 514.82,232.248 514.82,226.106C514.82,219.965 509.842,214.987 503.7,214.987C497.559,214.987 492.581,219.965 492.581,226.106C492.581,232.248 497.559,237.226 503.7,237.226ZM378.61,314.44C382.317,300.232 407.033,307.342 417.535,307.033C444.408,306.415 442.857,309.189 443.784,320.618C445.637,340.077 370.27,344.71 378.61,314.44ZM307.574,276.454C288.126,276.454 272.361,260.689 272.361,241.242C272.361,221.794 288.126,206.029 307.574,206.029C327.021,206.029 342.786,221.794 342.786,241.242C342.786,260.689 327.021,276.454 307.574,276.454ZM316.84,237.226C322.981,237.226 327.96,232.248 327.96,226.106C327.96,219.965 322.981,214.987 316.84,214.987C310.699,214.987 305.72,219.965 305.72,226.106C305.72,232.248 310.699,237.226 316.84,237.226Z" style="fill:rgb(65,65,65);fill-rule:nonzero;"/>
                    </g>
                </g>
                <g id="_240487696" transform="matrix(0.142638,0,0,0.458478,330.87,123.506)">
                    <path d="M374.219,260.156C341.797,291.016 312.5,333.984 293.359,373.438C276.172,408.594 262.5,449.219 260.156,489.063L158.984,489.063C155.859,489.063 153.125,489.453 150,489.844C154.688,427.344 176.953,370.703 211.328,325.391C248.828,276.563 300.391,241.406 359.375,228.516C358.984,230.469 358.984,232.422 358.984,234.375C358.984,245.313 366.016,253.125 375,260.156L374.219,260.156Z" style="fill:rgb(254,64,162);fill-rule:nonzero;"/>
                    <path d="M365.726,268.585C336.713,298.561 310.813,337.461 293.359,373.438C276.172,408.594 262.5,449.219 260.156,489.063L158.984,489.063C155.859,489.063 153.125,489.453 150,489.844C154.688,427.344 176.953,370.703 211.328,325.391C248.828,276.563 300.391,241.406 359.375,228.516C358.984,230.469 358.984,232.422 358.984,234.375C358.984,245.313 366.016,253.125 375,260.156L374.219,260.156C371.459,262.783 368.723,265.497 366.013,268.289C365.435,267.817 364.866,267.34 364.307,266.86C364.728,267.482 365.203,268.059 365.726,268.585ZM357.358,260.029C353.066,255.116 349.861,249.725 348.229,243.658C297.724,258.1 253.661,289.925 220.839,332.651C190.322,372.888 169.763,422.424 163.254,477.097C181.122,477.097 249.155,477.098 249.154,477.098C253.232,439.358 266.365,401.413 282.606,368.192C300.623,331.06 327.399,290.933 357.358,260.029Z" style="fill:rgb(88,1,46);"/>
                    <path d="M400.781,265.234L400.781,489.453L253.516,489.453C256.25,449.609 271.094,409.375 289.453,374.219C310.938,333.594 337.5,291.016 373.438,259.766L377.344,260.156C384.375,263.281 392.578,264.844 400.781,265.234Z" style="fill:rgb(225,2,113);fill-rule:nonzero;"/>
                    <path d="M400.781,283.059L400.781,489.453L253.516,489.453C256.25,449.609 271.094,409.375 289.453,374.219C309.139,336.994 333.089,298.129 364.609,267.842C366.596,270.013 369.347,271.41 372.356,271.682C372.715,271.706 373.076,271.723 373.438,271.731L374.086,259.83L377.344,260.156C377.523,260.236 377.704,260.315 377.885,260.393L377.431,270.237L377.771,270.11L379.678,261.121C386.159,263.607 393.47,264.886 400.781,265.234L400.781,283.059L394.537,276.745L394.459,276.736L400.781,283.059ZM388.816,275.935C384.663,275.205 380.618,274.171 376.795,272.809C344.25,302.667 319.958,342.133 300.046,379.783C284.4,409.747 271.317,443.523 266.756,477.488C266.756,477.488 388.816,477.488 388.816,477.488L388.816,275.935Z" style="fill:rgb(88,1,46);"/>
                    <path d="M413.672,260.938C455.078,291.406 492.188,332.422 518.75,374.609C540.234,408.984 558.203,449.219 561.328,489.453L399.609,489.453L399.609,264.453C404.688,263.672 409.375,262.5 414.063,260.938L413.672,260.938Z" style="fill:rgb(254,64,162);fill-rule:nonzero;"/>
                    <path d="M416.829,263.286C456.963,293.496 492.864,333.496 518.75,374.609C540.234,408.984 558.203,449.219 561.328,489.453L399.609,489.453L399.609,264.453C404.022,263.774 408.139,262.801 412.217,261.532L413.672,270.499L413.673,261.066C413.714,261.053 413.754,261.04 413.794,261.027C413.87,261.082 413.946,261.138 414.021,261.194L414.058,271.725L416.829,263.286ZM413.673,260.938L414.02,260.938L414.02,260.952C413.945,260.977 413.87,261.002 413.794,261.027C413.754,260.997 413.714,260.967 413.673,260.938ZM411.574,274.318L411.575,477.488C411.575,477.488 547.871,477.488 547.872,477.49C542.496,443.509 526.799,410.067 508.615,380.969C483.89,341.704 449.769,303.478 411.574,274.318Z" style="fill:rgb(88,1,46);"/>
                    <path d="M432.813,226.953C494.531,238.672 548.438,274.609 587.5,325.391C621.875,370.313 644.141,427.344 648.828,489.844C645.703,489.453 642.969,489.063 639.844,489.063L551.563,489.063C548.828,448.438 532.031,407.422 512.109,373.047C488.672,332.422 452.344,291.797 415.625,262.109C425,255.078 433.984,245.703 433.984,234.375C433.984,232.031 433.594,229.297 433.203,226.953L432.813,226.953Z" style="fill:rgb(225,2,113);fill-rule:nonzero;"/>
                    <path d="M432.814,226.953L433.161,226.953L433.161,227.019C433.045,226.997 432.93,226.975 432.814,226.953ZM433.918,227.166C495.176,239.101 548.671,274.913 587.5,325.391C621.875,370.313 644.141,427.344 648.828,489.844C645.703,489.453 642.969,489.063 639.844,489.063L551.563,489.063C548.828,448.438 532.031,407.422 512.109,373.047C488.672,332.422 452.344,291.797 415.625,262.109C425,255.078 433.984,245.703 433.984,234.375C433.984,232.988 433.848,231.464 433.655,229.965L433.918,227.166ZM445.031,241.953C443.273,249.208 439.134,255.889 433.822,261.745C467.89,291.269 500.613,329.177 522.472,367.065C541.449,399.813 557.573,438.377 562.422,477.097L635.575,477.097C629.069,422.382 608.522,372.555 578.005,332.672C543.839,288.262 497.826,255.667 445.031,241.953Z" style="fill:rgb(88,1,46);"/>
                    <path d="M381.953,250.402L382.203,249.222C386.932,251.324 392.324,252.5 397.821,253.03L397.79,252.627C402.093,251.965 406.07,250.976 410.042,249.665C410.121,249.639 410.2,249.613 410.279,249.588C411.075,249.343 411.887,249.185 412.701,249.11C414.923,247.166 416.995,245.054 418.688,242.756C420.558,240.218 422.019,237.474 422.019,234.375C422.019,232.674 421.696,230.697 421.413,228.99L421.401,228.92C420.787,225.081 422.076,221.182 424.861,218.465C427.02,216.36 429.867,215.168 432.818,215.068L432.818,214.988L433.119,214.988L433.119,215.062C433.759,215.057 434.402,215.103 435.044,215.202C435.186,215.226 435.327,215.252 435.468,215.279C499.876,227.625 556.197,265.073 596.984,318.095L597.002,318.119C632.714,364.788 655.89,424.019 660.76,488.949C661.028,492.527 659.676,496.037 657.077,498.511C654.477,500.985 650.905,502.161 647.344,501.716C644.734,501.39 642.454,501.028 639.844,501.028L564.361,501.028C563.38,501.285 562.361,501.418 561.328,501.418L253.516,501.418C252.483,501.418 251.464,501.285 250.483,501.028L158.984,501.028C156.374,501.028 154.094,501.39 151.484,501.716C147.923,502.161 144.351,500.985 141.751,498.511C139.152,496.037 137.8,492.527 138.068,488.949C142.937,424.036 166.094,365.221 201.796,318.159L201.839,318.103C241.079,267.008 295.098,230.315 356.82,216.826C360.766,215.964 364.879,217.15 367.76,219.98C370.641,222.81 371.9,226.902 371.108,230.862C370.874,232.032 370.949,233.205 370.949,234.375C370.949,241.39 376.229,245.88 381.953,250.402ZM413.793,261.027C413.883,260.997 413.973,260.967 414.063,260.938L413.672,260.938L413.793,261.027ZM432.814,226.953L432.817,217.865L421.445,228.958L431.928,237.838L432.813,236.975L432.814,226.953ZM433.918,227.166L434.993,215.743L433.128,217.562L433.161,226.953L432.814,226.953C432.93,226.975 433.045,226.997 433.161,227.02L433.189,234.916L433.655,229.965C433.848,231.464 433.984,232.988 433.984,234.375C433.984,245.703 425,255.078 415.625,262.109C417.092,263.295 418.558,264.499 420.023,265.719C417.958,264.129 415.881,262.564 413.793,261.027C409.195,262.545 404.59,263.687 399.609,264.453L399.609,265.171C392.691,264.746 385.813,263.474 379.678,261.121L381.715,251.521L378.54,260.668C378.138,260.503 377.739,260.332 377.344,260.156L374.658,259.888C365.838,252.926 358.984,245.173 358.984,234.375C358.984,232.422 358.984,230.469 359.375,228.516C300.391,241.406 248.828,276.563 211.328,325.391C176.953,370.703 154.688,427.344 150,489.844C153.125,489.453 155.859,489.063 158.984,489.063L253.543,489.062C253.534,489.193 253.525,489.323 253.516,489.453L561.328,489.453C561.318,489.323 561.308,489.193 561.297,489.062L639.844,489.063C642.969,489.063 645.703,489.453 648.828,489.844C644.141,427.344 621.875,370.313 587.5,325.391C548.671,274.913 495.175,239.102 433.918,227.166ZM410.298,249.706L410.5,250.948C410.916,250.616 411.329,250.278 411.738,249.935L410.298,249.706Z" style="fill:rgb(88,1,46);"/>
                    <path d="M396.875,196.484C385.156,196.484 372.656,200 362.891,207.031C353.906,213.672 348.047,223.047 348.047,234.375C348.047,245.703 354.297,255.078 362.891,261.719C372.656,268.75 384.766,272.266 396.875,272.266C408.594,272.266 421.094,268.75 430.859,261.719C439.844,255.078 445.703,245.703 445.703,234.375C445.703,223.047 439.453,213.672 430.859,207.031C421.094,200 408.984,196.484 396.875,196.484Z" style="fill:rgb(254,64,162);"/>
                    <path d="M396.875,184.519C411.484,184.519 426.069,188.838 437.851,197.321C437.96,197.4 438.068,197.481 438.175,197.563C449.681,206.454 457.668,219.209 457.668,234.375C457.668,249.626 450.067,262.401 437.971,271.341C437.931,271.37 437.891,271.4 437.851,271.429C426.069,279.912 411.013,284.231 396.875,284.231C382.266,284.231 367.681,279.912 355.899,271.429C355.79,271.35 355.682,271.269 355.575,271.187C344.069,262.296 336.082,249.541 336.082,234.375C336.082,219.124 343.683,206.349 355.779,197.409C355.819,197.38 355.859,197.35 355.899,197.321C367.681,188.838 382.737,184.519 396.875,184.519ZM396.875,196.484C385.156,196.484 372.656,200 362.891,207.031C353.906,213.672 348.047,223.047 348.047,234.375C348.047,245.703 354.297,255.078 362.891,261.719C372.656,268.75 384.766,272.266 396.875,272.266C408.594,272.266 421.094,268.75 430.859,261.719C439.844,255.078 445.703,245.703 445.703,234.375C445.703,223.047 439.453,213.672 430.859,207.031C421.094,200 408.984,196.484 396.875,196.484Z" style="fill:rgb(88,1,46);"/>
                    <path d="M396.875,194.922C388.672,194.922 379.688,197.266 373.047,202.344C366.797,207.031 362.5,213.672 362.5,221.484C362.5,229.297 366.797,235.938 373.047,240.625C379.688,245.703 388.281,248.047 396.875,248.047C405.078,248.047 414.063,245.703 420.703,240.625C426.953,235.938 431.25,229.297 431.25,221.484C431.25,213.672 426.953,207.031 420.703,202.344C414.063,197.266 405.469,194.922 396.875,194.922Z" style="fill:rgb(225,2,113);"/>
                    <g transform="matrix(1,0,0,1,0,-11.965)">
                        <path d="M149.219,488.672L651.172,488.672C664.844,488.672 676.953,494.141 685.938,503.125C694.922,512.109 700.391,524.219 700.391,537.891L700.391,556.25C700.391,569.922 694.922,582.031 685.938,591.016C676.953,600 664.844,605.469 651.172,605.469L149.219,605.469C135.547,605.469 123.438,600 114.453,591.016C105.469,582.031 100,569.922 100,556.25L100,537.891C100,524.219 105.469,512.109 114.453,503.125C123.438,494.141 135.547,488.672 149.219,488.672Z" style="fill:rgb(225,2,113);fill-rule:nonzero;stroke:rgb(88,1,46);stroke-width:23.93px;"/>
                    </g>
                </g>
            </g>
            <g transform="matrix(1.13153,0,0,1.13153,10.3896,-119.466)">
                <g transform="matrix(1,0,0,1,34.3544,-21.0903)">
                    <g id="Gopher4" serif:id="Gopher">
                    </g>
                    <g id="Gopher5" serif:id="Gopher" transform="matrix(0.145328,0,0,0.467126,428.579,325.949)">
                        <path d="M381.081,363.552C378.301,364.788 373.668,395.058 387.876,396.602C397.452,397.529 423.707,400.618 429.884,396.602C441.931,388.88 440.695,370.347 433.9,365.714C422.471,358.301 384.17,362.008 381.081,363.552ZM302.625,136.834C270.811,133.127 217.375,162.78 209.344,225.792C200.695,291.274 277.915,356.139 352.046,291.274C391.892,256.371 405.792,148.88 302.625,136.834ZM517.606,136.834C414.44,148.88 428.34,256.371 468.185,291.274C542.317,356.139 619.537,291.274 610.888,225.792C603.166,162.78 549.73,133.127 517.606,136.834Z" style="fill:white;fill-rule:nonzero;"/>
                        <path d="M715.598,106.873C739.382,155.985 667.104,161.236 670.811,183.166C677.606,222.703 672.973,281.39 667.722,339.151C658.764,437.066 731.969,671.506 579.382,765.714C550.656,783.629 482.394,793.514 415.058,795.058L414.44,795.058C347.104,793.514 269.575,783.629 240.849,765.714C88.571,671.506 161.776,437.066 153.127,339.151C147.568,281.39 142.934,222.703 150.039,183.166C153.745,161.236 81.467,156.293 105.251,106.873C125.637,64.556 175.985,101.931 188.649,88.649C253.205,21.622 331.66,3.707 393.436,2.162L427.413,2.162C488.88,5.251 567.336,21.931 632.201,88.649C644.865,101.931 694.903,64.556 715.598,106.873ZM381.081,363.552C378.301,364.788 373.668,395.058 387.876,396.602C397.452,397.529 423.707,400.618 429.884,396.602C441.931,388.88 440.695,370.347 433.9,365.714C422.471,358.301 384.17,362.008 381.081,363.552ZM302.625,136.834C270.811,133.127 217.375,162.78 209.344,225.792C200.695,291.274 277.915,356.139 352.046,291.274C391.892,256.371 405.792,148.88 302.625,136.834ZM517.606,136.834C414.44,148.88 428.34,256.371 468.185,291.274C542.317,356.139 619.537,291.274 610.888,225.792C603.166,162.78 549.73,133.127 517.606,136.834Z" style="fill:url(#_Linear5);fill-rule:nonzero;"/>
                        <path d="M410.425,299.614C429.884,296.834 476.525,319.073 473.436,345.328C469.73,375.907 353.282,379.923 347.104,343.475C343.398,321.236 361.004,307.027 410.425,299.614ZM673.282,545.792C663.707,545.483 657.529,532.819 657.529,525.097C657.529,511.197 659.382,494.826 669.575,487.722C690.579,473.205 707.259,546.1 673.282,545.792ZM147.259,545.792C113.282,546.1 129.961,473.205 150.965,487.722C161.158,494.826 163.012,511.197 163.012,525.097C163.012,532.819 156.834,545.483 147.259,545.792ZM608.726,769.73C614.903,778.687 615.212,784.865 605.328,789.498C567.645,806.795 533.977,783.629 546.641,777.143C573.514,763.552 590.193,742.239 608.726,769.73ZM211.815,772.819C230.347,745.328 247.027,766.641 273.9,780.232C286.564,786.718 252.896,809.884 215.212,792.587C205.328,787.954 205.637,781.776 211.815,772.819Z" style="fill:rgb(172,163,155);fill-rule:nonzero;"/>
                        <path d="M657.838,114.286C659.382,107.799 675.444,104.71 684.402,115.83C695.212,129.112 668.649,147.336 667.413,139.923C664.324,119.846 655.985,120.772 657.838,114.286ZM162.703,114.286C164.556,120.772 156.216,119.846 153.127,139.923C151.892,147.336 125.328,129.112 136.139,115.83C144.788,104.71 160.849,107.799 162.703,114.286ZM503.953,254.332C484.506,254.332 468.741,238.567 468.741,219.12C468.741,199.672 484.506,183.907 503.953,183.907C523.401,183.907 539.166,199.672 539.166,219.12C539.166,238.567 523.401,254.332 503.953,254.332ZM494.687,215.104C500.828,215.104 505.807,210.126 505.807,203.984C505.807,197.843 500.828,192.865 494.687,192.865C488.546,192.865 483.567,197.843 483.567,203.984C483.567,210.126 488.546,215.104 494.687,215.104ZM378.61,314.44C382.317,300.232 395.29,295.598 405.792,295.29C432.664,294.672 442.857,309.189 443.784,320.618C445.637,340.077 370.27,344.71 378.61,314.44ZM285.452,254.332C266.004,254.332 250.239,238.567 250.239,219.12C250.239,199.672 266.004,183.907 285.452,183.907C304.899,183.907 320.664,199.672 320.664,219.12C320.664,238.567 304.899,254.332 285.452,254.332ZM294.718,215.104C300.859,215.104 305.838,210.126 305.838,203.984C305.838,197.843 300.859,192.865 294.718,192.865C288.577,192.865 283.598,197.843 283.598,203.984C283.598,210.126 288.577,215.104 294.718,215.104Z" style="fill:rgb(65,65,65);fill-rule:nonzero;"/>
                    </g>
                </g>
                <g transform="matrix(0.125815,0,0,0.404404,472.451,202.732)">
                    <path d="M679.57,358.367L118.635,358.367L185.414,88.585C193.427,59.203 220.139,37.833 252.192,37.833L546.014,37.833C576.733,37.833 604.779,59.202 611.456,88.585L679.57,358.367Z" style="fill:rgb(255,221,9);fill-rule:nonzero;stroke:rgb(243,193,5);stroke-width:11.99px;"/>
                    <path d="M165.38,171.39L152.024,224.812L646.181,224.812L632.825,171.39L165.38,171.39Z" style="fill:rgb(252,195,9);fill-rule:nonzero;stroke:rgb(243,193,5);stroke-width:11.99px;"/>
                    <path d="M786.415,438.501L11.79,438.501L11.79,402.441C11.79,378.401 31.823,358.367 55.863,358.367L741.005,358.367C765.045,358.367 785.078,378.401 785.078,402.441L785.078,438.501L786.415,438.501Z" style="fill:rgb(255,221,9);fill-rule:nonzero;stroke:rgb(243,193,5);stroke-width:11.99px;"/>
                    <g>
                        <g>
                            <path d="M742.341,358.367L702.275,358.367C726.315,358.367 746.348,378.401 746.348,402.441L746.348,438.501L786.415,438.501L786.415,402.441C786.415,378.401 766.381,358.367 742.341,358.367" style="fill:rgb(231,201,9);fill-rule:nonzero;"/>
                            <path d="M611.456,88.585C604.778,59.203 576.731,37.833 546.014,37.833L505.948,37.833C536.666,37.833 564.713,59.202 571.389,88.585L639.503,358.367L679.57,358.367L611.456,88.585Z" style="fill:rgb(231,201,9);fill-rule:nonzero;"/>
                        </g>
                    </g>
                    <path d="M467.216,759.035L330.989,759.035C324.311,759.035 318.969,753.693 318.969,747.015L318.969,690.921C318.969,684.243 324.311,678.901 330.989,678.901L467.216,678.901C473.894,678.901 479.236,684.243 479.236,690.921L479.236,747.015C479.236,753.693 473.894,759.035 467.216,759.035" style="fill:rgb(255,221,9);fill-rule:nonzero;stroke:rgb(243,193,5);stroke-width:11.99px;"/>
                    <path d="M467.216,678.901L427.149,678.901C433.827,678.901 439.169,684.243 439.169,690.921L439.169,747.015C439.169,753.693 433.827,759.035 427.149,759.035L467.216,759.035C473.894,759.035 479.236,753.693 479.236,747.015L479.236,690.921C479.236,684.245 473.894,678.901 467.216,678.901" style="fill:rgb(5,5,5);fill-opacity:0.1;fill-rule:nonzero;"/>
                    <g>
                        <g>
                            <path d="M55.863,358.367L95.93,358.367C71.89,358.367 51.857,378.401 51.857,402.441L51.857,438.501L11.79,438.501L11.79,402.441C11.79,378.401 31.823,358.367 55.863,358.367" style="fill:rgb(255,238,132);fill-rule:nonzero;"/>
                            <path d="M186.749,88.585C193.427,59.203 221.474,37.833 252.19,37.833L292.257,37.833C261.539,37.833 233.492,59.202 226.815,88.585L158.702,358.367L118.635,358.367L186.749,88.585Z" style="fill:rgb(255,238,132);fill-rule:nonzero;"/>
                            <path d="M330.989,678.901L371.056,678.901C364.377,678.901 359.036,684.243 359.036,690.921L359.036,747.015C359.036,753.693 364.377,759.035 371.056,759.035L330.989,759.035C324.311,759.035 318.969,753.693 318.969,747.015L318.969,690.921C318.969,684.245 324.311,678.901 330.989,678.901" style="fill:rgb(255,238,132);fill-rule:nonzero;"/>
                        </g>
                    </g>
                    <path d="M798.682,451.935L-1.565,451.857L-1.565,402.442C-1.565,370.389 23.81,345.014 55.863,345.014L741.005,345.014C773.058,345.014 798.433,370.389 798.433,402.442L798.682,451.935ZM25.145,425.146L771.723,425.146L771.723,402.441C771.723,386.414 757.032,371.722 741.005,371.722L55.863,371.722C39.837,371.722 25.145,386.414 25.145,402.441L25.145,425.146Z" style="fill:rgb(104,82,2);fill-rule:nonzero;"/>
                    <path d="M696.931,371.724L101.273,371.724L172.059,85.915C182.744,49.855 214.797,24.48 252.192,24.48L546.014,24.48C583.409,24.48 616.799,49.855 624.813,85.915L696.931,371.724ZM135.997,345.012L662.206,345.012L598.1,91.257C592.758,68.552 570.053,51.19 546.013,51.19L252.19,51.19C226.815,51.19 205.447,68.552 198.769,92.592L135.997,345.012Z" style="fill:rgb(104,82,2);fill-rule:nonzero;"/>
                    <path d="M314.962,732.325C181.407,693.593 91.923,576.064 91.923,438.502L118.635,438.502C118.635,564.044 200.104,672.225 322.976,705.615L314.962,732.325Z" style="fill:rgb(104,82,2);fill-rule:nonzero;"/>
                    <path d="M483.243,732.325L475.229,705.613C598.101,672.225 679.57,564.044 679.57,438.501L706.281,438.501C706.281,576.064 616.798,693.593 483.243,732.325Z" style="fill:rgb(104,82,2);fill-rule:nonzero;"/>
                    <path d="M467.216,772.392L330.989,772.392C317.634,772.392 305.614,760.371 305.614,747.016L305.614,690.923C305.614,677.568 317.634,665.548 330.989,665.548L467.216,665.548C480.571,665.548 492.591,677.568 492.591,690.923L492.591,747.016C492.591,760.371 480.571,772.392 467.216,772.392ZM332.324,745.68L465.879,745.68L465.879,692.258L332.324,692.258L332.324,745.68Z" style="fill:rgb(104,82,2);fill-rule:nonzero;"/>
                    <path d="M663.543,238.167L134.662,238.167L154.695,158.034L643.51,158.034L663.543,238.167ZM169.387,211.457L628.819,211.457L622.141,184.745L176.064,184.745L169.387,211.457Z" style="fill:rgb(104,82,2);fill-rule:nonzero;"/>
                </g>
            </g>
            <g transform="matrix(0.883496,0,0,0.883496,116.289,-109.164)">
                <g transform="matrix(1,0,0,1,189.705,-21.0903)">
                    <g id="Gopher6" serif:id="Gopher">
                    </g>
                    <g id="Gopher7" serif:id="Gopher" transform="matrix(0.145328,0,0,0.467126,428.579,325.949)">
                        <path d="M381.081,363.552C378.301,364.788 373.668,395.058 387.876,396.602C397.452,397.529 423.707,400.618 429.884,396.602C441.931,388.88 440.695,370.347 433.9,365.714C422.471,358.301 384.17,362.008 381.081,363.552ZM302.625,136.834C270.811,133.127 217.375,162.78 209.344,225.792C200.695,291.274 277.915,356.139 352.046,291.274C391.892,256.371 405.792,148.88 302.625,136.834ZM517.606,136.834C414.44,148.88 428.34,256.371 468.185,291.274C542.317,356.139 619.537,291.274 610.888,225.792C603.166,162.78 549.73,133.127 517.606,136.834Z" style="fill:white;fill-rule:nonzero;"/>
                        <path d="M632.201,88.649C644.865,101.931 667.104,161.236 670.811,183.166C677.606,222.703 672.973,281.39 667.722,339.151C658.764,437.066 731.969,671.506 579.382,765.714C550.656,783.629 482.394,793.514 415.058,795.058L414.44,795.058C347.104,793.514 269.575,783.629 240.849,765.714C88.571,671.506 161.776,437.066 153.127,339.151C147.568,281.39 142.934,222.703 150.039,183.166C153.745,161.236 175.985,101.931 188.649,88.649C253.205,21.622 331.66,3.707 393.436,2.162L427.413,2.162C488.88,5.251 567.336,21.931 632.201,88.649ZM381.081,363.552C378.301,364.788 373.668,395.058 387.876,396.602C397.452,397.529 423.707,400.618 429.884,396.602C441.931,388.88 440.695,370.347 433.9,365.714C422.471,358.301 384.17,362.008 381.081,363.552ZM302.625,136.834C270.811,133.127 217.375,162.78 209.344,225.792C200.695,291.274 277.915,356.139 352.046,291.274C391.892,256.371 405.792,148.88 302.625,136.834ZM517.606,136.834C414.44,148.88 428.34,256.371 468.185,291.274C542.317,356.139 619.537,291.274 610.888,225.792C603.166,162.78 549.73,133.127 517.606,136.834Z" style="fill:url(#_Linear6);fill-rule:nonzero;"/>
                        <path d="M410.425,299.614C429.884,296.834 476.525,319.073 473.436,345.328C469.73,375.907 353.282,379.923 347.104,343.475C343.398,321.236 361.004,307.027 410.425,299.614ZM673.282,545.792C663.707,545.483 657.529,532.819 657.529,525.097C657.529,511.197 659.382,494.826 669.575,487.722C690.579,473.205 707.259,546.1 673.282,545.792ZM147.259,545.792C113.282,546.1 129.961,473.205 150.965,487.722C161.158,494.826 163.012,511.197 163.012,525.097C163.012,532.819 156.834,545.483 147.259,545.792ZM608.726,769.73C614.903,778.687 615.212,784.865 605.328,789.498C567.645,806.795 533.977,783.629 546.641,777.143C573.514,763.552 590.193,742.239 608.726,769.73ZM211.815,772.819C230.347,745.328 247.027,766.641 273.9,780.232C286.564,786.718 252.896,809.884 215.212,792.587C205.328,787.954 205.637,781.776 211.815,772.819Z" style="fill:rgb(172,163,155);fill-rule:nonzero;"/>
                        <path d="M538.003,278.003C518.555,278.003 502.79,262.237 502.79,242.79C502.79,223.343 518.555,207.578 538.003,207.578C557.45,207.578 573.215,223.343 573.215,242.79C573.215,262.237 557.45,278.003 538.003,278.003ZM528.736,238.775C534.877,238.775 539.856,233.796 539.856,227.655C539.856,221.514 534.877,216.535 528.736,216.535C522.595,216.535 517.616,221.514 517.616,227.655C517.616,233.796 522.595,238.775 528.736,238.775ZM378.61,314.44C382.317,300.232 408.582,308.891 419.084,308.582C445.956,307.964 442.857,309.189 443.784,320.618C445.637,340.077 370.27,344.71 378.61,314.44ZM322.414,278.003C302.967,278.003 287.202,262.237 287.202,242.79C287.202,223.343 302.967,207.578 322.414,207.578C341.862,207.578 357.627,223.343 357.627,242.79C357.627,262.237 341.862,278.003 322.414,278.003ZM331.681,238.775C337.822,238.775 342.8,233.796 342.8,227.655C342.8,221.514 337.822,216.535 331.681,216.535C325.54,216.535 320.561,221.514 320.561,227.655C320.561,233.796 325.54,238.775 331.681,238.775Z" style="fill:rgb(65,65,65);fill-rule:nonzero;"/>
                    </g>
                </g>
                <g transform="matrix(0.173363,0,0,0.557237,633.528,143.963)">
                    <path d="M71.901,371.82L106.549,191.65C109.668,175.431 123.861,163.706 140.377,163.706L387.58,163.706C395.204,163.706 402.332,166.203 408.105,170.487C414.856,175.497 419.753,182.95 421.421,191.708L448.105,331.796L71.901,371.82Z" style="fill:url(#_Linear7);"/>
                    <path d="M7.866,379.824L288.017,347.806L288.017,348.494L504.134,324.325L504.134,403.837L7.866,403.837L7.866,379.824Z" style="fill:url(#_Linear8);stroke:rgb(0,122,80);stroke-width:11.14px;"/>
                    <path d="M71.901,371.82L87.909,299.781L440.1,299.781L448.104,331.798L71.901,371.82Z" style="fill:url(#_Linear9);"/>
                    <rect x="111.925" y="315.933" width="24.013" height="15.732" style="fill:rgb(135,48,8);"/>
                    <rect x="151.946" y="315.933" width="24.013" height="15.732" style="fill:rgb(135,48,8);"/>
                    <rect x="191.968" y="315.933" width="24.013" height="15.732" style="fill:rgb(135,48,8);"/>
                    <rect x="231.989" y="315.933" width="24.013" height="15.732" style="fill:rgb(135,48,8);"/>
                    <rect x="272.01" y="315.933" width="24.013" height="15.732" style="fill:rgb(135,48,8);"/>
                    <rect x="312.031" y="315.933" width="24.013" height="15.732" style="fill:rgb(135,48,8);"/>
                    <path d="M336.612,126.432L251.713,211.331C239.21,223.834 239.21,244.107 251.713,256.611C264.216,269.115 284.488,269.115 296.993,256.611L427.171,126.433C402.164,101.425 361.619,101.425 336.612,126.432" style="fill:white;fill-rule:nonzero;"/>
                    <path d="M361.68,191.924L327.72,225.883L288.101,220.223L282.441,180.603L316.4,146.644L350.36,112.685L356.02,152.304L395.64,157.964L361.68,191.924Z" style="fill:url(#_Linear10);"/>
                    <path d="M454.159,321.999L429.148,190.69C427.155,180.23 421.346,170.972 412.792,164.624C410.366,162.823 407.788,161.31 405.096,160.082L438.294,126.884L432.732,121.321C404.699,93.288 359.085,93.288 331.049,121.321L296.025,156.346L296.025,156.294L140.377,156.294C120.124,156.294 102.649,170.729 98.825,190.618L65.193,365.498L0,372.789L0,411.703L512,411.703L512,315.53L454.159,321.999ZM413.694,193.635L432.501,292.369L227.534,292.369L252.26,267.643C258.75,271.98 266.372,274.308 274.353,274.308C285.006,274.308 295.022,270.159 302.555,262.626L392.653,172.528C396.528,173.275 400.187,174.86 403.418,177.258C408.792,181.246 412.442,187.063 413.694,193.635ZM415.66,127.272L392.86,150.072L362.974,145.803L359.389,120.706C377.637,112.752 399.28,114.937 415.66,127.272ZM342.174,132.447C343.033,131.588 343.92,130.775 344.82,129.983L349.066,159.708L378.952,163.978L358.897,184.033L329.011,179.763L324.741,149.877L342.174,132.447ZM310.839,163.783L315.109,193.668L344.994,197.939L324.939,217.994L295.053,213.725L290.783,183.839L310.839,163.783ZM311.034,231.898L291.43,251.502C286.869,256.064 280.804,258.576 274.353,258.576C270.624,258.576 267.035,257.712 263.779,256.122L276.682,243.219L265.559,232.095L252.655,244.999C251.065,241.744 250.201,238.155 250.201,234.426C250.201,227.975 252.714,221.909 257.275,217.349L276.878,197.745L281.148,227.63L311.034,231.898ZM114.273,193.588C116.675,181.094 127.653,172.025 140.377,172.025L280.347,172.025L246.152,206.22C238.619,213.753 234.47,223.768 234.47,234.423C234.47,242.404 236.799,250.027 241.135,256.516L205.285,292.366L95.277,292.366L114.273,193.588ZM87.721,331.659L95.914,331.659L95.914,315.927L90.747,315.927L92.253,308.098L435.498,308.098L436.989,315.927L432.095,315.927L432.095,324.466L416.087,326.256L416.087,315.927L392.074,315.927L392.074,328.941L376.066,330.731L376.066,315.927L352.053,315.927L352.053,331.659L367.777,331.659L81.565,363.667L87.721,331.659ZM496.269,395.971L15.732,395.971L15.732,386.859L496.269,333.12L496.269,395.971Z" style="fill:rgb(0,78,51);fill-rule:nonzero;"/>
                </g>
            </g>
        </g>
    </g>
    <defs>
        <linearGradient id="_Linear1" x1="0" y1="0" x2="1" y2="0" gradientUnits="userSpaceOnUse" gradientTransform="matrix(619.975,0,0,792.896,100.437,398.61)"><stop offset="0" style="stop-color:rgb(15,123,193);stop-opacity:1"/><stop offset="1" style="stop-color:rgb(91,203,245);stop-opacity:1"/></linearGradient>
        <linearGradient id="_Linear2" x1="0" y1="0" x2="1" y2="0" gradientUnits="userSpaceOnUse" gradientTransform="matrix(752.522,0,0,482.382,23.7671,400)"><stop offset="0" style="stop-color:rgb(255,232,63);stop-opacity:1"/><stop offset="1" style="stop-color:rgb(224,147,61);stop-opacity:1"/></linearGradient>
        <linearGradient id="_Linear3" x1="0" y1="0" x2="1" y2="0" gradientUnits="userSpaceOnUse" gradientTransform="matrix(638.546,0,0,135.379,80.8045,573.501)"><stop offset="0" style="stop-color:rgb(255,232,63);stop-opacity:1"/><stop offset="1" style="stop-color:rgb(224,147,61);stop-opacity:1"/></linearGradient>
        <linearGradient id="_Linear4" x1="0" y1="0" x2="1" y2="0" gradientUnits="userSpaceOnUse" gradientTransform="matrix(619.975,0,0,792.896,100.437,398.61)"><stop offset="0" style="stop-color:rgb(15,123,193);stop-opacity:1"/><stop offset="1" style="stop-color:rgb(91,203,245);stop-opacity:1"/></linearGradient>
        <linearGradient id="_Linear5" x1="0" y1="0" x2="1" y2="0" gradientUnits="userSpaceOnUse" gradientTransform="matrix(619.975,0,0,792.896,100.437,398.61)"><stop offset="0" style="stop-color:rgb(15,123,193);stop-opacity:1"/><stop offset="1" style="stop-color:rgb(91,203,245);stop-opacity:1"/></linearGradient>
        <linearGradient id="_Linear6" x1="0" y1="0" x2="1" y2="0" gradientUnits="userSpaceOnUse" gradientTransform="matrix(619.975,0,0,792.896,100.437,398.61)"><stop offset="0" style="stop-color:rgb(15,123,193);stop-opacity:1"/><stop offset="1" style="stop-color:rgb(91,203,245);stop-opacity:1"/></linearGradient>
        <linearGradient id="_Linear7" x1="0" y1="0" x2="1" y2="0" gradientUnits="userSpaceOnUse" gradientTransform="matrix(376.204,0,0,208.114,71.901,267.763)"><stop offset="0" style="stop-color:rgb(163,207,98);stop-opacity:1"/><stop offset="1" style="stop-color:rgb(0,174,156);stop-opacity:1"/></linearGradient>
        <linearGradient id="_Linear8" x1="0" y1="0" x2="1" y2="0" gradientUnits="userSpaceOnUse" gradientTransform="matrix(496.268,0,0,79.512,7.866,364.081)"><stop offset="0" style="stop-color:rgb(163,207,98);stop-opacity:1"/><stop offset="1" style="stop-color:rgb(0,174,156);stop-opacity:1"/></linearGradient>
        <linearGradient id="_Linear9" x1="0" y1="0" x2="1" y2="0" gradientUnits="userSpaceOnUse" gradientTransform="matrix(376.203,0,0,72.039,71.901,335.801)"><stop offset="0" style="stop-color:rgb(250,166,63);stop-opacity:1"/><stop offset="1" style="stop-color:rgb(201,23,84);stop-opacity:1"/></linearGradient>
        <linearGradient id="_Linear10" x1="0" y1="0" x2="1" y2="0" gradientUnits="userSpaceOnUse" gradientTransform="matrix(113.199,0,0,113.198,282.441,169.284)"><stop offset="0" style="stop-color:rgb(250,166,63);stop-opacity:1"/><stop offset="1" style="stop-color:rgb(201,23,84);stop-opacity:1"/></linearGradient>
    </defs>
</svg>
