<?xml version="1.0" encoding="UTF-8" standalone="no"?>
<!DOCTYPE svg PUBLIC "-//W3C//DTD SVG 1.1//EN" "http://www.w3.org/Graphics/SVG/1.1/DTD/svg11.dtd">
<svg width="100%" height="100%" viewBox="0 0 2048 2048" version="1.1" xmlns="http://www.w3.org/2000/svg" xmlns:xlink="http://www.w3.org/1999/xlink" xml:space="preserve" xmlns:serif="http://www.serif.com/" style="fill-rule:evenodd;clip-rule:evenodd;stroke-linejoin:round;stroke-miterlimit:2;">
    <rect id="IIoT-Logo" x="0" y="0" width="2048" height="2048" style="fill:none;"/>
    <g id="IIoT-Logo1" serif:id="IIoT-Logo">
        <path d="M1920,0C1990.69,0 2048,57.308 2048,128L2048,1920C2048,1990.69 1990.69,2048 1920,2048L128,2048C57.308,2048 0,1990.69 0,1920L0,128C0,57.308 57.308,0 128,0L1920,0Z" style="fill:rgb(225,2,113);"/>
        <g transform="matrix(1,0,0,1,2.70673,0.236015)">
            <path d="M1598.41,1385.95L1598.41,1319.34C1598.41,1297.54 1589.75,1276.63 1574.33,1261.22C1558.92,1245.8 1538.01,1237.14 1516.21,1237.14L1516.21,1237.14C1494.4,1237.14 1473.5,1245.8 1458.08,1261.22C1442.66,1276.63 1434,1297.54 1434,1319.34L1434,1386.05C1437.1,1385.88 1440.22,1385.79 1443.36,1385.79L1590.99,1385.79C1593.48,1385.79 1595.95,1385.84 1598.41,1385.95ZM1399.66,1767.48C1406.31,1764.16 1410.51,1757.36 1410.51,1749.93L1410.51,1542.89C1410.51,1538.09 1414.4,1534.2 1419.2,1534.2L1611.78,1534.2C1616.58,1534.2 1620.48,1538.09 1620.48,1542.89L1620.48,1749.93C1620.48,1757.36 1624.68,1764.16 1631.33,1767.48L1671.33,1787.48C1677.41,1790.53 1684.64,1790.2 1690.42,1786.62C1696.21,1783.05 1699.73,1776.73 1699.73,1769.93L1699.73,1542.89C1699.73,1494.32 1660.36,1454.94 1611.78,1454.94L1419.2,1454.94C1370.63,1454.94 1331.25,1494.32 1331.25,1542.89L1331.25,1769.93C1331.25,1776.73 1334.77,1783.05 1340.56,1786.62C1346.35,1790.2 1353.57,1790.53 1359.66,1787.48L1399.66,1767.48ZM560.733,1205.38C453.034,1205.38 365.596,1292.81 365.596,1400.51C365.596,1508.21 453.034,1595.65 560.733,1595.65C668.432,1595.65 755.87,1508.21 755.87,1400.51C755.87,1292.81 668.432,1205.38 560.733,1205.38ZM560.733,1271.95C631.689,1271.95 689.295,1329.56 689.295,1400.51C689.295,1471.47 631.689,1529.08 560.733,1529.08C489.778,1529.08 432.172,1471.47 432.172,1400.51C432.172,1329.56 489.778,1271.95 560.733,1271.95ZM560.733,1335.95C525.101,1335.95 496.172,1364.88 496.172,1400.51C496.172,1436.15 525.101,1465.08 560.733,1465.08C596.366,1465.08 625.295,1436.15 625.295,1400.51C625.295,1364.88 596.366,1335.95 560.733,1335.95ZM1276.52,970.28C1252.25,1024.5 1210.29,1069.11 1158,1096.75L1376.65,1258.59C1384.19,1241.27 1394.97,1225.34 1408.58,1211.72C1421.98,1198.32 1437.62,1187.68 1454.61,1180.16L1276.52,970.28ZM629.321,1144.35C704.013,1164.33 765.751,1216.13 799.084,1284.32L942.496,1110.92C872.051,1084.86 815.663,1029.71 787.944,960.086L629.321,1144.35ZM1034.38,667.032C926.686,667.032 839.248,754.47 839.248,862.169C839.248,969.868 926.686,1057.31 1034.38,1057.31C1142.08,1057.31 1229.52,969.868 1229.52,862.169C1229.52,754.47 1142.08,667.032 1034.38,667.032ZM824.397,519.498C842.875,519.498 857.877,504.496 857.877,486.017C857.877,467.539 842.875,452.537 824.397,452.537C805.919,452.537 790.917,467.539 790.917,486.017C790.917,504.496 805.919,519.498 824.397,519.498ZM1034.38,302.226C1052.86,302.226 1067.87,287.224 1067.87,268.745C1067.87,250.267 1052.86,235.265 1034.38,235.265C1015.91,235.265 1000.9,250.267 1000.9,268.745C1000.9,287.224 1015.91,302.226 1034.38,302.226ZM1242.77,478.363C1261.25,478.363 1276.25,463.361 1276.25,444.882C1276.25,426.404 1261.25,411.402 1242.77,411.402C1224.3,411.402 1209.29,426.404 1209.29,444.882C1209.29,463.361 1224.3,478.363 1242.77,478.363Z" style="fill:rgb(170,1,89);"/>
        </g>
        <g transform="matrix(1,0,0,1,2.70673,0.236015)">
            <path d="M1381.08,1842.19C1359.45,1854.6 1332.85,1854.53 1311.27,1842.03C1289.69,1829.53 1276.41,1806.48 1276.41,1781.55C1276.41,1680.52 1276.41,1552.74 1276.41,1552.74C1276.41,1489.26 1311.84,1434.06 1364,1405.82L1364,1336.32L1077.01,1123.89C1063.13,1126.14 1048.89,1127.31 1034.38,1127.31C1029.59,1127.31 1024.83,1127.18 1020.1,1126.93L823.841,1364.22C823.716,1364.37 823.591,1364.52 823.464,1364.67C825.051,1376.39 825.87,1388.36 825.87,1400.51C825.87,1479 791.696,1549.56 737.428,1598.13C737.428,1598.13 778.58,1734.62 790.114,1773C790.707,1775.39 790.167,1777.91 788.651,1779.85C787.135,1781.79 784.812,1782.92 782.351,1782.92C759.808,1782.92 709.61,1782.92 709.61,1782.92L667.48,1643.25C634.813,1657.65 598.7,1665.65 560.733,1665.65C521.314,1665.65 483.893,1657.03 450.253,1641.57L407.615,1782.92L334.924,1782.92C332.492,1782.92 330.192,1781.82 328.674,1779.92C327.156,1778.02 326.584,1775.53 327.121,1773.16C338.673,1734.6 380.711,1595.1 380.711,1595.1C328.378,1546.65 295.596,1477.38 295.596,1400.51C295.596,1259.72 405.58,1144.41 544.246,1135.88L769.516,874.198C769.338,870.21 769.248,866.2 769.248,862.169C769.248,715.835 888.052,597.032 1034.38,597.032C1180.72,597.032 1299.52,715.835 1299.52,862.169C1299.52,870.801 1299.11,879.338 1298.3,887.76L1536.53,1168.5C1569.39,1172.93 1600.12,1188.01 1623.83,1211.72C1652.37,1240.27 1668.41,1278.98 1668.41,1319.34L1668.41,1404.79C1721.63,1432.69 1757.94,1488.48 1757.94,1552.74L1757.94,1781.55C1757.94,1806.48 1744.66,1829.53 1723.09,1842.03C1701.51,1854.53 1674.91,1854.6 1653.28,1842.19C1619.81,1823.01 1591.27,1806.65 1591.27,1806.65C1575.73,1797.74 1566.14,1781.19 1566.14,1763.28L1566.14,1592.74C1566.14,1590.62 1565.3,1588.58 1563.8,1587.08C1562.3,1585.58 1560.27,1584.74 1558.14,1584.74L1476.21,1584.74C1474.09,1584.74 1472.06,1585.58 1470.56,1587.08C1469.06,1588.58 1468.21,1590.62 1468.21,1592.74L1468.21,1763.28C1468.21,1781.19 1458.63,1797.74 1443.09,1806.65C1443.09,1806.65 1414.54,1823.01 1381.08,1842.19ZM1598.41,1385.95L1598.41,1319.34C1598.41,1297.54 1589.75,1276.63 1574.33,1261.22C1558.92,1245.8 1538.01,1237.14 1516.21,1237.14L1516.21,1237.14C1494.4,1237.14 1473.5,1245.8 1458.08,1261.22C1442.66,1276.63 1434,1297.54 1434,1319.34L1434,1386.05C1437.1,1385.88 1440.22,1385.79 1443.36,1385.79L1590.99,1385.79C1593.48,1385.79 1595.95,1385.84 1598.41,1385.95ZM1399.66,1767.48C1406.31,1764.16 1410.51,1757.36 1410.51,1749.93L1410.51,1542.89C1410.51,1538.09 1414.4,1534.2 1419.2,1534.2L1611.78,1534.2C1616.58,1534.2 1620.48,1538.09 1620.48,1542.89L1620.48,1749.93C1620.48,1757.36 1624.68,1764.16 1631.33,1767.48L1671.33,1787.48C1677.41,1790.53 1684.64,1790.2 1690.42,1786.62C1696.21,1783.05 1699.73,1776.73 1699.73,1769.93L1699.73,1542.89C1699.73,1494.32 1660.36,1454.94 1611.78,1454.94L1419.2,1454.94C1370.63,1454.94 1331.25,1494.32 1331.25,1542.89L1331.25,1769.93C1331.25,1776.73 1334.77,1783.05 1340.56,1786.62C1346.35,1790.2 1353.57,1790.53 1359.66,1787.48L1399.66,1767.48ZM560.733,1205.38C453.034,1205.38 365.596,1292.81 365.596,1400.51C365.596,1508.21 453.034,1595.65 560.733,1595.65C668.432,1595.65 755.87,1508.21 755.87,1400.51C755.87,1292.81 668.432,1205.38 560.733,1205.38ZM560.733,1271.95C631.689,1271.95 689.295,1329.56 689.295,1400.51C689.295,1471.47 631.689,1529.08 560.733,1529.08C489.778,1529.08 432.172,1471.47 432.172,1400.51C432.172,1329.56 489.778,1271.95 560.733,1271.95ZM560.733,1335.95C525.101,1335.95 496.172,1364.88 496.172,1400.51C496.172,1436.15 525.101,1465.08 560.733,1465.08C596.366,1465.08 625.295,1436.15 625.295,1400.51C625.295,1364.88 596.366,1335.95 560.733,1335.95ZM1276.52,970.28C1252.25,1024.5 1210.29,1069.11 1158,1096.75L1376.65,1258.59C1384.19,1241.27 1394.97,1225.34 1408.58,1211.72C1421.98,1198.32 1437.62,1187.68 1454.61,1180.16L1276.52,970.28ZM629.321,1144.35C704.013,1164.33 765.751,1216.13 799.084,1284.32L942.496,1110.92C872.051,1084.86 815.663,1029.71 787.944,960.086L629.321,1144.35ZM1034.38,667.032C926.686,667.032 839.248,754.47 839.248,862.169C839.248,969.868 926.686,1057.31 1034.38,1057.31C1142.08,1057.31 1229.52,969.868 1229.52,862.169C1229.52,754.47 1142.08,667.032 1034.38,667.032ZM1075.84,705.902C1077.33,720.606 1078.84,735.307 1080.39,750.006C1091.88,740.705 1103.35,731.384 1114.8,722.041C1140.14,736.584 1161.16,757.603 1175.7,782.943C1166.36,794.395 1157.04,805.864 1147.74,817.35C1162.43,818.896 1177.13,820.414 1191.84,821.905C1199.47,850.107 1199.47,879.832 1191.84,908.035C1177.13,909.526 1162.43,911.044 1147.74,912.59C1157.04,924.076 1166.36,935.545 1175.7,946.996C1161.16,972.337 1140.14,993.356 1114.8,1007.9C1103.35,998.556 1091.88,989.234 1080.39,979.934C1078.84,994.632 1077.33,1009.33 1075.84,1024.04C1047.63,1031.67 1017.91,1031.67 989.706,1024.04C988.215,1009.33 986.696,994.632 985.151,979.934C973.664,989.234 962.195,998.556 950.744,1007.9C925.403,993.356 904.384,972.337 889.841,946.996C899.184,935.545 908.506,924.076 917.806,912.59C903.108,911.044 888.407,909.526 873.703,908.035C866.067,879.832 866.067,850.107 873.703,821.905C888.407,820.414 903.108,818.896 917.806,817.35C908.506,805.864 899.184,794.395 889.841,782.943C904.384,757.603 925.403,736.584 950.744,722.041C962.195,731.384 973.664,740.705 985.151,750.006C986.696,735.307 988.215,720.606 989.706,705.902C1017.91,698.267 1047.63,698.267 1075.84,705.902ZM1032.77,805.241C999.805,805.241 973.042,832.005 973.042,864.97C973.042,897.935 999.805,924.698 1032.77,924.698C1065.74,924.698 1092.5,897.935 1092.5,864.97C1092.5,832.005 1065.74,805.241 1032.77,805.241ZM806.439,663.031C804.262,665.556 800.745,666.461 797.62,665.3C794.495,664.139 792.421,661.157 792.421,657.824C792.397,627.73 792.397,578.115 792.397,578.115C754.294,564.861 726.917,528.611 726.917,486.017C726.917,432.217 770.596,388.537 824.397,388.537C878.198,388.537 921.877,432.217 921.877,486.017C921.877,528.611 894.5,564.861 856.397,578.115L856.397,613.293C856.397,615.821 855.202,618.2 853.174,619.71C836.114,632.481 820.447,647.013 806.439,663.031ZM824.397,519.498C842.875,519.498 857.877,504.496 857.877,486.017C857.877,467.539 842.875,452.537 824.397,452.537C805.919,452.537 790.917,467.539 790.917,486.017C790.917,504.496 805.919,519.498 824.397,519.498ZM1011.01,560.325C1008.79,560.5 1006.6,559.74 1004.96,558.226C1003.32,556.712 1002.39,554.583 1002.39,552.353C1002.38,513.771 1002.38,360.843 1002.38,360.843C964.282,347.589 936.904,311.339 936.904,268.745C936.904,214.944 980.584,171.265 1034.38,171.265C1088.19,171.265 1131.87,214.944 1131.87,268.745C1131.87,311.339 1104.49,347.589 1066.38,360.843L1066.38,552.353C1066.38,554.584 1065.45,556.714 1063.81,558.228C1062.17,559.743 1059.98,560.504 1057.75,560.328C1050.04,559.735 1042.25,559.434 1034.38,559.434C1026.52,559.434 1018.73,559.735 1011.01,560.325ZM1034.38,302.226C1052.86,302.226 1067.87,287.224 1067.87,268.745C1067.87,250.267 1052.86,235.265 1034.38,235.265C1015.91,235.265 1000.9,250.267 1000.9,268.745C1000.9,287.224 1015.91,302.226 1034.38,302.226ZM1214.04,618.549C1211.99,617.042 1210.78,614.649 1210.78,612.104C1210.77,595.925 1210.77,536.98 1210.77,536.98C1172.67,523.726 1145.29,487.476 1145.29,444.882C1145.29,391.082 1188.97,347.402 1242.77,347.402C1296.58,347.402 1340.25,391.082 1340.25,444.882C1340.25,487.476 1312.88,523.726 1274.77,536.98L1274.77,656.009C1274.77,659.341 1272.71,662.324 1269.59,663.497C1266.47,664.67 1262.95,663.786 1260.76,661.279C1246.74,645.459 1231.07,631.133 1214.04,618.549ZM1242.77,478.363C1261.25,478.363 1276.25,463.361 1276.25,444.882C1276.25,426.404 1261.25,411.402 1242.77,411.402C1224.3,411.402 1209.29,426.404 1209.29,444.882C1209.29,463.361 1224.3,478.363 1242.77,478.363Z" style="fill:white;"/>
        </g>
    </g>
</svg>
