<?xml version="1.0" encoding="UTF-8" standalone="no"?>
<!DOCTYPE svg PUBLIC "-//W3C//DTD SVG 1.1//EN" "http://www.w3.org/Graphics/SVG/1.1/DTD/svg11.dtd">
<svg width="100%" height="100%" viewBox="0 0 1001 140" version="1.1" xmlns="http://www.w3.org/2000/svg" xmlns:xlink="http://www.w3.org/1999/xlink" xml:space="preserve" xmlns:serif="http://www.serif.com/" style="fill-rule:evenodd;clip-rule:evenodd;stroke-linejoin:round;stroke-miterlimit:2;">
    <g transform="matrix(1,0,0,1,0,-2150)">
        <g id="Open-Source" serif:id="Open Source" transform="matrix(0.976562,0,0,0.182292,0.338575,2150)">
            <rect x="0" y="0" width="1024" height="768" style="fill:none;"/>
            <g id="Gopher" transform="matrix(0.138558,0,0,0.742277,458.504,169.526)">
                <path d="M381.081,363.552C378.301,364.788 373.668,395.058 387.876,396.602C397.452,397.529 423.707,400.618 429.884,396.602C441.931,388.88 440.695,370.347 433.9,365.714C422.471,358.301 384.17,362.008 381.081,363.552ZM302.625,136.834C270.811,133.127 217.375,162.78 209.344,225.792C200.695,291.274 277.915,356.139 352.046,291.274C391.892,256.371 405.792,148.88 302.625,136.834ZM517.606,136.834C414.44,148.88 428.34,256.371 468.185,291.274C542.317,356.139 619.537,291.274 610.888,225.792C603.166,162.78 549.73,133.127 517.606,136.834Z" style="fill:white;fill-rule:nonzero;"/>
                <path d="M145.778,473.623C147.641,446.64 132.874,421.244 108.501,409.516C87.281,399.272 65.738,388.906 65.738,388.906L84.747,332.654C84.747,332.654 126.766,352.744 145.238,361.576C147.113,362.475 149.32,362.344 151.075,361.229C152.831,360.114 153.887,358.173 153.87,356.093C153.821,350.079 153.593,344.417 153.127,339.151C147.568,281.39 142.934,222.703 150.039,183.166C153.745,161.236 81.467,156.293 105.251,106.873C125.637,64.556 175.985,101.931 188.649,88.649C253.205,21.622 331.66,3.707 393.436,2.162L427.413,2.162C488.88,5.251 567.336,21.931 632.201,88.649C644.865,101.931 694.903,64.556 715.598,106.873C739.382,155.985 667.104,161.236 670.811,183.166C677.606,222.703 672.973,281.39 667.722,339.151C658.764,437.066 731.969,671.506 579.382,765.714C550.656,783.629 482.394,793.514 415.058,795.058L414.44,795.058C347.104,793.514 269.575,783.629 240.849,765.714C139.747,703.166 138.039,578.804 145.778,473.623ZM517.606,136.834C414.44,148.88 428.34,256.371 468.185,291.274C542.317,356.139 619.537,291.274 610.888,225.792C603.166,162.78 549.73,133.127 517.606,136.834ZM381.081,363.552C378.301,364.788 373.668,395.058 387.876,396.602C397.452,397.529 423.707,400.618 429.884,396.602C441.931,388.88 440.695,370.347 433.9,365.714C422.471,358.301 384.17,362.008 381.081,363.552ZM302.625,136.834C270.811,133.127 217.375,162.78 209.344,225.792C200.695,291.274 277.915,356.139 352.046,291.274C391.892,256.371 405.792,148.88 302.625,136.834Z" style="fill:url(#_Linear1);"/>
                <path d="M410.425,299.614C429.884,296.834 476.525,319.073 473.436,345.328C469.73,375.907 353.282,379.923 347.104,343.475C343.398,321.236 361.004,307.027 410.425,299.614ZM608.726,769.73C614.903,778.687 615.212,784.865 605.328,789.498C567.645,806.795 533.977,783.629 546.641,777.143C573.514,763.552 590.193,742.239 608.726,769.73ZM211.815,772.819C230.347,745.328 247.027,766.641 273.9,780.232C286.564,786.718 252.896,809.884 215.212,792.587C205.328,787.954 205.637,781.776 211.815,772.819Z" style="fill:rgb(172,163,155);fill-rule:nonzero;"/>
                <path d="M657.838,114.286C659.382,107.799 675.444,104.71 684.402,115.83C695.212,129.112 668.649,147.336 667.413,139.923C664.324,119.846 655.985,120.772 657.838,114.286ZM162.703,114.286C164.556,120.772 156.216,119.846 153.127,139.923C151.892,147.336 125.328,129.112 136.139,115.83C144.788,104.71 160.849,107.799 162.703,114.286ZM546.882,264.71C527.434,264.71 511.669,248.945 511.669,229.498C511.669,210.051 527.434,194.286 546.882,194.286C566.329,194.286 582.094,210.051 582.094,229.498C582.094,248.945 566.329,264.71 546.882,264.71ZM537.615,225.483C543.756,225.483 548.735,220.504 548.735,214.363C548.735,208.222 543.756,203.243 537.615,203.243C531.474,203.243 526.495,208.222 526.495,214.363C526.495,220.504 531.474,225.483 537.615,225.483ZM378.61,314.44C382.317,300.232 395.29,295.598 405.792,295.29C432.664,294.672 442.857,309.189 443.784,320.618C445.637,340.077 370.27,344.71 378.61,314.44ZM273.659,264.71C254.212,264.71 238.447,248.945 238.447,229.498C238.447,210.051 254.212,194.286 273.659,194.286C293.106,194.286 308.871,210.051 308.871,229.498C308.871,248.945 293.106,264.71 273.659,264.71ZM282.925,225.483C289.067,225.483 294.045,220.504 294.045,214.363C294.045,208.222 289.067,203.243 282.925,203.243C276.784,203.243 271.806,208.222 271.806,214.363C271.806,220.504 276.784,225.483 282.925,225.483Z" style="fill:rgb(65,65,65);fill-rule:nonzero;"/>
            </g>
            <g transform="matrix(0.216657,-0.310999,0.0520385,1.04041,411.716,-51.7479)">
                <path d="M147.259,545.792C113.282,546.1 129.961,473.205 150.965,487.722C161.158,494.826 163.012,511.197 163.012,525.097C163.012,532.819 156.834,545.483 147.259,545.792Z" style="fill:rgb(172,163,155);fill-rule:nonzero;"/>
            </g>
            <g transform="matrix(0.0227065,-0.249461,0.00869233,0.0227065,433.603,386.678)">
                <g transform="matrix(6.11878,32.7792,-6.11878,32.7792,9651.13,-93923.2)">
                    <rect x="706.764" y="2187.15" width="8.262" height="61.469" style="fill:rgb(65,65,65);"/>
                </g>
                <g transform="matrix(1.024,9.09495e-16,1.52259e-16,5.48571,-48.9503,262.234)">
                    <path d="M278.362,502.555C268.709,512.199 252.915,512.199 243.261,502.557L218.977,478.298C209.324,468.655 209.324,452.875 218.977,443.233L633.526,29.119C643.179,19.477 662.196,10.577 675.782,9.342L777.391,0.102C790.981,-1.133 801.086,8.972 799.851,22.562L790.628,123.975C789.393,137.565 780.484,156.57 770.831,166.215L356.258,580.378C346.604,590.02 330.81,590.02 321.157,580.378L296.839,556.085C287.186,546.443 287.186,530.662 296.839,521.017L643.934,174.245C649.045,169.151 649.05,160.87 643.942,155.771C638.848,150.663 630.565,150.663 625.449,155.766L278.362,502.555Z" style="fill:rgb(111,116,114);fill-rule:nonzero;"/>
                </g>
                <g transform="matrix(1.024,0,0,5.48571,0,0)">
                    <path d="M80.984,653.955C103.63,622.728 150.613,560.907 158.629,546.746L94.23,482.399L31.71,482.399C19.687,482.399 9.94,472.644 9.94,460.618C9.94,448.597 19.687,438.841 31.71,438.841L103.233,438.841C109.021,438.841 114.553,441.135 118.636,445.214L353.981,680.317C358.069,684.405 360.362,689.951 360.362,695.723L360.362,767.592C360.362,779.624 350.612,789.36 338.586,789.36C326.548,789.36 316.799,779.627 316.799,767.592L316.799,704.75L252.656,640.69C238.502,649.043 178.542,694.881 146.234,718.86C146.514,721.474 146.655,724.117 146.655,726.783C146.655,746.337 139.028,764.714 125.182,778.538C111.337,792.362 92.926,799.997 73.35,799.997C53.762,799.992 35.352,792.365 21.495,778.538C7.663,764.717 0.044,746.345 0.044,726.783C0.044,707.234 7.66,688.845 21.495,675.022C35.355,661.184 53.762,653.565 73.35,653.565C75.917,653.565 78.464,653.696 80.984,653.955Z" style="fill:url(#_Linear2);"/>
                </g>
            </g>
            <g transform="matrix(1.024,0,0,5.48571,1.70417,-11643.7)">
                <path d="M456.097,2206.97C456.154,2207.25 456.077,2207.55 455.889,2207.77C455.701,2207.99 455.422,2208.11 455.132,2208.1C451.262,2207.94 450.335,2202.11 451.772,2199.23C451.961,2198.91 452.311,2198.73 452.679,2198.75C453.048,2198.78 453.373,2199 453.522,2199.34C454.654,2201.77 455.548,2204.25 456.097,2206.97Z" style="fill:rgb(172,163,155);"/>
            </g>
            <g transform="matrix(0.138558,0,0,0.742277,458.504,169.526)">
                <path d="M673.282,545.792C663.707,545.483 657.529,532.819 657.529,525.097C657.529,511.197 659.382,494.826 669.575,487.722C690.579,473.205 707.259,546.1 673.282,545.792Z" style="fill:rgb(172,163,155);fill-rule:nonzero;"/>
            </g>
            <g transform="matrix(0.0720864,0,0,0.386177,513.314,408.097)">
                <path d="M771.449,168.48C771.204,149.728 756.774,134.238 738.104,132.525C582.955,118.013 456.34,35.098 414.599,4.769C405.875,-1.59 394.053,-1.59 385.33,4.769C343.669,35.098 217.055,118.013 61.906,132.525C43.235,134.238 28.886,149.728 28.56,168.48C26.685,290.854 46.334,706.324 390.629,798.778C396.744,800.408 403.185,800.408 409.299,798.778C753.595,706.406 773.242,290.854 771.449,168.48Z" style="fill:rgb(65,65,65);fill-rule:nonzero;"/>
            </g>
            <g id="shape" transform="matrix(0.0774986,0,0,0.425074,523.934,462.138)">
                <path d="M268.742,324.437C265.184,315.274 268.755,304.933 277.268,299.746C299.586,286.663 311.104,265.203 311.104,232.365C311.104,192.658 277.643,157.669 235.834,157.599C191.713,157.529 158.432,192.513 158.963,232.365C159.396,264.846 172.104,288.466 193.26,301.282C201.734,306.491 205.201,316.862 201.506,325.953C191.459,351.27 172.743,397.315 162.398,422.766C160.329,427.864 156.257,431.941 151.09,434.088C145.923,436.235 140.092,436.273 134.897,434.193C69.926,406.246 9.561,327.405 9.561,232.365C9.561,108.279 109.264,7.685 234.233,7.685C359.201,7.685 460.506,108.279 460.506,232.365C460.506,328.977 400.595,407.041 334.425,434.503C329.241,436.528 323.441,436.434 318.328,434.242C313.216,432.05 309.219,427.944 307.236,422.847C296.954,396.952 278.62,349.827 268.742,324.437Z" style="fill:url(#_Linear3);fill-rule:nonzero;"/>
            </g>
        </g>
    </g>
    <defs>
        <linearGradient id="_Linear1" x1="0" y1="0" x2="1" y2="0" gradientUnits="userSpaceOnUse" gradientTransform="matrix(619.975,0,0,792.896,100.437,398.61)"><stop offset="0" style="stop-color:rgb(15,123,193);stop-opacity:1"/><stop offset="1" style="stop-color:rgb(91,203,245);stop-opacity:1"/></linearGradient>
        <linearGradient id="_Linear2" x1="0" y1="0" x2="1" y2="0" gradientUnits="userSpaceOnUse" gradientTransform="matrix(360.318,0,0,361.156,0.0441036,619.419)"><stop offset="0" style="stop-color:rgb(163,207,98);stop-opacity:1"/><stop offset="1" style="stop-color:rgb(0,174,156);stop-opacity:1"/></linearGradient>
        <linearGradient id="_Linear3" x1="0" y1="0" x2="1" y2="0" gradientUnits="userSpaceOnUse" gradientTransform="matrix(450.945,0,0,433.57,9.56064,224.47)"><stop offset="0" style="stop-color:rgb(163,207,98);stop-opacity:1"/><stop offset="1" style="stop-color:rgb(0,174,156);stop-opacity:1"/></linearGradient>
    </defs>
</svg>
