<?xml version="1.0" encoding="UTF-8" standalone="no"?>
<!DOCTYPE svg PUBLIC "-//W3C//DTD SVG 1.1//EN" "http://www.w3.org/Graphics/SVG/1.1/DTD/svg11.dtd">
<svg width="100%" height="100%" viewBox="0 0 601 140" version="1.1" xmlns="http://www.w3.org/2000/svg" xmlns:xlink="http://www.w3.org/1999/xlink" xml:space="preserve" xmlns:serif="http://www.serif.com/" style="fill-rule:evenodd;clip-rule:evenodd;stroke-linejoin:round;stroke-miterlimit:2;">
    <g transform="matrix(1,0,0,1,-199,-4530)">
        <g id="Pointers" transform="matrix(0.585938,0,0,0.182292,199.298,4530)">
            <rect x="0" y="0" width="1024" height="768" style="fill:none;"/>
            <g id="Gopher">
            </g>
            <g transform="matrix(2.47591,0,0,1.48555,-814.541,-26.6701)">
                <g transform="matrix(0.512859,0,0,1.68695,648.537,-5005.75)">
                    <rect x="-274.502" y="3064.16" width="16.551" height="218.078" style="fill:url(#_Linear1);"/>
                </g>
                <g transform="matrix(0.801081,0,0,4.2915,727.766,-13014.3)">
                    <g transform="matrix(1.07316,0,0,1.44439,200.181,-1086.08)">
                        <path d="M-377.13,2894.45C-378.136,2895.26 -379.463,2895.64 -380.742,2895.7C-406.941,2896.78 -433.139,2897.86 -459.338,2898.93C-460.244,2898.97 -461.193,2898.76 -461.936,2898.22C-462.556,2897.78 -463.001,2897.09 -463.001,2896.31C-463.001,2888.31 -463.001,2880.31 -463.001,2872.31C-463.001,2871.51 -462.544,2870.79 -461.969,2870.27C-461.277,2869.64 -460.378,2869.25 -459.459,2869.12C-434.292,2865.48 -409.124,2861.84 -383.957,2858.2C-382.739,2858.03 -381.418,2858.14 -380.319,2858.73C-372.38,2862.98 -364.482,2867.31 -356.623,2871.71C-354.542,2872.88 -354.212,2875.29 -356.053,2876.87C-363.003,2882.82 -370.029,2888.68 -377.13,2894.45Z" style="fill:rgb(0,132,86);"/>
                    </g>
                    <g transform="matrix(1.07316,0,0,1.44439,198.181,-1088.08)">
                        <path d="M-377.13,2894.45C-378.136,2895.26 -379.463,2895.64 -380.742,2895.7C-406.941,2896.78 -433.139,2897.86 -459.338,2898.93C-460.244,2898.97 -461.193,2898.76 -461.936,2898.22C-462.556,2897.78 -463.001,2897.09 -463.001,2896.31C-463.001,2888.31 -463.001,2880.31 -463.001,2872.31C-463.001,2871.51 -462.544,2870.79 -461.969,2870.27C-461.277,2869.64 -460.378,2869.25 -459.459,2869.12C-434.292,2865.48 -409.124,2861.84 -383.957,2858.2C-382.739,2858.03 -381.418,2858.14 -380.319,2858.73C-372.38,2862.98 -364.482,2867.31 -356.623,2871.71C-354.542,2872.88 -354.212,2875.29 -356.053,2876.87C-363.003,2882.82 -370.029,2888.68 -377.13,2894.45Z" style="fill:rgb(0,167,109);"/>
                    </g>
                    <g transform="matrix(1.27827,0,0,1.27827,-889.105,-2810.18)">
                        <g id="Gopher1" serif:id="Gopher" transform="matrix(0.0413141,0,0,0.040839,480.343,4586.36)">
                            <g>
                                <path d="M414.662,368.448C413.893,368.867 413.532,370.071 413.261,370.822C412.415,373.168 411.976,375.677 411.677,378.144C411.499,379.617 411.386,381.098 411.34,382.58C411.305,383.732 411.311,384.885 411.365,386.036C411.407,386.929 411.477,387.819 411.583,388.706C412.193,393.825 414.193,400.116 419.84,401.529C420.823,401.775 421.842,401.856 422.853,401.815C434.259,401.238 445.718,400.844 457.039,399.223C460.284,398.758 463.538,398.203 466.695,397.304C468.508,396.788 470.425,396.175 471.97,395.057C479.307,389.806 483.619,380.632 482.29,371.61C481.739,367.869 480.044,363.543 476.386,361.844C471.657,359.788 465.942,359.945 460.919,360.124C450.507,360.496 440.094,362.209 429.915,364.348C426.51,365.063 423.114,365.84 419.756,366.753C418.132,367.195 416.142,367.566 414.662,368.448ZM322.965,149.465C316.714,149.978 310.566,151.536 304.663,153.616C295.827,156.729 287.433,161.077 279.587,166.178C247.904,186.776 224.461,220.291 219.519,258.106C218.527,265.426 218.623,272.894 219.917,280.171C220.937,285.909 222.695,291.512 225.145,296.8C227.212,301.262 229.768,305.494 232.744,309.408C242.186,321.823 255.715,330.713 270.638,335.085C279.777,337.763 289.365,338.765 298.867,338.273C330.106,336.655 358.358,319.558 380.519,298.458C386.681,292.586 391.939,285.789 396.392,278.548C399.687,273.189 402.547,267.564 404.973,261.761C406.796,257.399 408.373,252.933 409.688,248.391C410.693,244.921 411.545,241.405 412.23,237.858C416.044,218.109 414.855,196.168 403.755,178.815C402.019,176.1 400.056,173.53 397.888,171.144C394.823,167.77 391.351,164.775 387.587,162.205C368.925,149.462 344.853,147.671 322.965,149.465ZM573.448,102.502C541.572,111.8 509.946,129.055 492.726,158.533C490.013,163.177 487.704,168.055 485.844,173.101C483.531,179.377 481.918,185.907 481.032,192.536C479.929,200.782 479.949,209.171 481.045,217.417C482.38,227.457 485.3,237.302 489.74,246.41C495.685,258.604 504.513,269.844 516.146,277.051C526.177,283.257 537.025,288.173 548.415,291.278C563.315,295.339 579.003,296.19 594.239,293.637C629.291,287.763 660.847,264.409 677.589,233.173C686.518,216.514 691.276,197.101 688.149,178.246C685.528,161.276 678.769,145.013 667.593,131.883C651.959,113.514 628.859,102.392 604.994,100.009C594.473,98.958 583.635,99.544 573.448,102.502Z" style="fill:rgb(0,233,152);fill-rule:nonzero;"/>
                                <path d="M817.503,23.283C819.624,26.634 821.399,30.228 822.539,34.033C823.242,36.38 823.698,38.803 823.848,41.249C824.706,55.237 815.134,66.858 805.286,75.66C803.65,77.123 801.974,78.54 800.271,79.924C797.992,81.778 795.665,83.572 793.316,85.337C790.167,87.702 786.976,90.011 783.798,92.337C781.89,93.733 779.987,95.137 778.107,96.57C776.723,97.625 775.351,98.697 774.003,99.798C772.973,100.639 771.957,101.498 770.964,102.384C770.141,103.118 769.334,103.871 768.552,104.649C765.009,108.174 760.995,113.048 762.137,118.423C764.412,128.963 765.605,139.724 766.316,150.474C767.174,163.468 767.296,176.505 767.066,189.522C766.464,223.617 763.537,257.642 760.526,291.592C759.506,303.003 759.659,314.509 760.212,325.94C760.864,339.419 762.121,352.864 763.519,366.284C766.924,398.977 771.126,431.587 773.605,464.371C774.406,474.96 775.041,485.562 775.444,496.174C777.809,558.369 772.353,623.203 743.659,679.485C739.353,687.931 734.549,696.123 729.254,703.986C721.7,715.202 713.147,725.737 703.725,735.436C689.6,749.977 673.563,762.584 656.332,773.24C647.142,778.975 636.989,783.146 626.812,786.766C613.199,791.609 599.217,795.4 585.155,798.688C543.575,808.412 500.971,814.004 458.444,817.472L457.716,817.516C435.161,818.426 412.574,818.677 390.005,818.219C369.466,817.802 348.918,816.823 328.467,814.836C314.177,813.449 299.884,811.614 285.837,808.604C276.367,806.574 266.715,804.109 258.007,799.765C241.319,791.517 225.701,781.065 212.121,768.304C205,761.613 198.456,754.313 192.578,746.507C188.699,741.354 185.109,735.984 181.815,730.439C156.648,688.073 149.627,637.576 148.821,589.073C148.667,579.777 148.748,570.478 149.004,561.184C149.337,549.12 149.967,537.066 150.777,525.026C151.882,508.584 153.333,492.169 154.799,475.757C156.358,458.304 157.99,440.845 158.938,423.345C159.7,409.29 160.155,395.077 158.705,381.046C155.421,351.803 152.32,322.483 151.237,293.061C150.427,271.056 150.523,248.661 154.534,226.937C154.656,226.234 154.705,225.517 154.657,224.804C154.316,219.653 149.114,216.605 144.975,214.58C144.155,214.179 143.324,213.8 142.488,213.434C141.381,212.949 140.264,212.489 139.142,212.042C137.479,211.379 135.805,210.745 134.131,210.111C132.135,209.356 130.137,208.606 128.152,207.824C122.611,205.641 117.045,203.23 112.161,199.771C109.836,198.125 107.674,196.225 105.889,193.998C104.748,192.573 103.768,191.019 103.004,189.361C98.743,180.113 101.938,169.455 106.039,160.763C107.965,156.683 110.333,152.8 113.218,149.325C115.149,146.998 117.309,144.861 119.672,142.974C130.997,133.929 145.66,131.891 159.708,131.466C162.689,131.376 165.672,131.35 168.654,131.316C170.698,131.292 172.742,131.267 174.785,131.206C176.225,131.164 177.664,131.104 179.101,131.009C184.876,130.629 191.95,129.887 195.992,125.2C223.032,94.112 254.734,67.21 289.768,45.531C331.595,19.65 377.839,1.286 425.663,-9.991C438.831,-12.8 452,-15.609 465.168,-18.418C524.939,-28.476 587.616,-29.513 645.697,-10.13C655.574,-6.834 665.262,-2.966 674.681,1.476C687.943,7.73 700.661,15.124 712.655,23.556C714.594,24.953 717.071,25.276 719.402,25.205C723.934,25.066 728.422,23.673 732.692,22.262C734.356,21.712 736.009,21.129 737.657,20.532C739.712,19.787 741.758,19.018 743.804,18.248C747.215,16.963 750.624,15.67 754.055,14.439C756.627,13.517 759.211,12.632 761.813,11.802C763.931,11.126 766.064,10.497 768.212,9.925C780.3,6.703 794.143,4.98 805.496,11.482C807.307,12.519 809.01,13.742 810.582,15.116C813.279,17.476 815.574,20.269 817.503,23.283ZM414.662,368.448C413.893,368.867 413.532,370.071 413.261,370.822C412.415,373.168 411.976,375.677 411.677,378.144C411.499,379.617 411.386,381.098 411.34,382.58C411.305,383.732 411.311,384.885 411.365,386.036C411.407,386.929 411.477,387.819 411.583,388.706C412.193,393.825 414.193,400.116 419.84,401.529C420.823,401.775 421.842,401.856 422.853,401.815C434.259,401.238 445.718,400.844 457.039,399.223C460.284,398.758 463.538,398.203 466.695,397.304C468.508,396.788 470.425,396.175 471.97,395.057C479.307,389.806 483.619,380.632 482.29,371.61C481.739,367.869 480.044,363.543 476.386,361.844C471.657,359.788 465.942,359.945 460.919,360.124C450.507,360.496 440.094,362.209 429.915,364.348C426.51,365.063 423.114,365.84 419.756,366.753C418.132,367.195 416.142,367.566 414.662,368.448ZM322.965,149.465C316.714,149.978 310.566,151.536 304.663,153.616C295.827,156.729 287.433,161.077 279.587,166.178C247.904,186.776 224.461,220.291 219.519,258.106C218.527,265.426 218.623,272.894 219.917,280.171C220.937,285.909 222.695,291.512 225.145,296.8C227.212,301.262 229.768,305.494 232.744,309.408C242.186,321.823 255.715,330.713 270.638,335.085C279.777,337.763 289.365,338.765 298.867,338.273C330.106,336.655 358.358,319.558 380.519,298.458C386.681,292.586 391.939,285.789 396.392,278.548C399.687,273.189 402.547,267.564 404.973,261.761C406.796,257.399 408.373,252.933 409.688,248.391C410.693,244.921 411.545,241.405 412.23,237.858C416.044,218.109 414.855,196.168 403.755,178.815C402.019,176.1 400.056,173.53 397.888,171.144C394.823,167.77 391.351,164.775 387.587,162.205C368.925,149.462 344.853,147.671 322.965,149.465ZM573.448,102.502C541.572,111.8 509.946,129.055 492.726,158.533C490.013,163.177 487.704,168.055 485.844,173.101C483.531,179.377 481.918,185.907 481.032,192.536C479.929,200.782 479.949,209.171 481.045,217.417C482.38,227.457 485.3,237.302 489.74,246.41C495.685,258.604 504.513,269.844 516.146,277.051C526.177,283.257 537.025,288.173 548.415,291.278C563.315,295.339 579.003,296.19 594.239,293.637C629.291,287.763 660.847,264.409 677.589,233.173C686.518,216.514 691.276,197.101 688.149,178.246C685.528,161.276 678.769,145.013 667.593,131.883C651.959,113.514 628.859,102.392 604.994,100.009C594.473,98.958 583.635,99.544 573.448,102.502Z" style="fill:rgb(0,118,76);fill-rule:nonzero;"/>
                                <path d="M448.213,296.52C455.171,294.539 462.766,294.744 469.888,295.533C483.209,297.009 497.061,301.055 508.32,308.535C515.392,313.234 522.089,320.07 523.007,328.918C523.163,330.429 523.145,331.957 522.965,333.465C522.182,339.821 516.897,344.759 511.996,348.318C510.95,349.078 509.877,349.799 508.785,350.49C507.349,351.397 505.878,352.25 504.385,353.06C502.382,354.146 500.336,355.153 498.263,356.099C485.27,362.027 471.272,365.817 457.262,368.419C442.27,371.203 426.819,372.697 411.574,371.669C409.002,371.495 406.435,371.241 403.883,370.882C401.935,370.608 399.994,370.273 398.071,369.859C396.668,369.558 395.273,369.214 393.894,368.819C386.036,366.568 377.067,362.127 375.289,353.321C374.804,350.88 374.593,348.381 374.741,345.895C375.508,333.002 385.957,323.794 396.228,317.452C397.899,316.42 399.603,315.44 401.329,314.503C403.623,313.257 405.958,312.086 408.32,310.974C411.405,309.521 414.537,308.168 417.697,306.888C421.969,305.159 426.295,303.564 430.652,302.064C436.457,300.066 442.319,298.236 448.213,296.52ZM770.55,520.11C762.024,520.795 755.148,514.182 752.078,506.766C751.105,504.416 750.434,501.874 750.401,499.318C750.369,496.852 750.396,494.384 750.507,491.92C751.086,479.018 753.983,464.243 765.022,456.07C766.329,455.109 767.755,454.296 769.285,453.75C770.29,453.392 771.337,453.152 772.4,453.06C779.863,452.409 785.533,458.949 788.784,464.884C789.411,466.03 789.983,467.207 790.503,468.406C791.6,470.932 792.473,473.554 793.145,476.223C793.666,478.296 794.066,480.4 794.341,482.52C795.853,494.161 793.733,508.112 783.568,515.44C782.05,516.534 780.398,517.44 778.666,518.149C776.079,519.209 773.327,519.83 770.55,520.11ZM153.42,587.326C147.829,587.982 142.085,586.789 138.124,582.55C137.119,581.475 136.266,580.263 135.555,578.975C134.36,576.808 133.562,574.437 133.044,572.022C132.071,567.496 132.034,562.785 132.543,558.198C133.258,551.757 135.05,545.32 138.057,539.565C138.542,538.636 139.063,537.725 139.624,536.839C142.719,531.947 147.899,526.729 154.224,528.024C155.24,528.232 156.221,528.595 157.143,529.066C165.549,533.405 168.5,543.462 169.676,552.171C169.915,553.941 170.088,555.72 170.21,557.502C170.378,559.928 170.452,562.36 170.466,564.791C170.478,567.1 169.951,569.411 169.21,571.586C166.812,578.63 161.305,586.233 153.42,587.326ZM692.757,775.244C695.836,778.938 699.794,784.3 697.848,789.41C697.567,790.146 697.177,790.837 696.713,791.474C695.958,792.509 695.017,793.4 694.007,794.184C692.405,795.429 690.62,796.427 688.795,797.302C671.792,805.31 652.017,808.822 633.448,805C627.323,803.74 620.463,801.709 615.718,797.411C613.951,795.811 612.09,793.257 613.43,790.828C613.665,790.4 613.977,790.018 614.329,789.681C614.892,789.141 615.554,788.71 616.243,788.35C620.707,786.043 625.063,783.529 629.357,780.921C632.489,779.019 635.596,777.075 638.712,775.146C640.802,773.852 642.897,772.566 645.014,771.316C654.579,765.671 666.302,759.372 677.665,763.446C679.853,764.23 681.911,765.344 683.817,766.669C687.221,769.036 690.148,772.04 692.757,775.244ZM225.662,809.118C227.996,805.781 230.625,802.599 233.742,799.962C235.551,798.432 237.532,797.094 239.682,796.091C249.474,791.525 260.111,795.723 269.197,799.979C270.957,800.803 272.702,801.656 274.445,802.516C277.333,803.941 280.212,805.382 283.112,806.783C287.119,808.718 291.175,810.556 295.315,812.187C295.912,812.425 296.491,812.725 296.997,813.123C299.478,815.073 298.155,818.091 296.471,820.085C292.625,824.638 286.569,827.401 281.087,829.373C264.604,835.3 245.98,834.759 229.564,828.914C227.992,828.34 226.444,827.657 225.034,826.749C224.148,826.178 223.313,825.512 222.621,824.714C219.081,820.628 221.705,815.178 224.188,811.29C224.659,810.553 225.153,809.83 225.662,809.118Z" style="fill:rgb(0,216,140);fill-rule:nonzero;"/>
                                <path d="M744.907,45.486C745.767,41.97 749.636,39.646 752.689,38.277C760.77,34.656 771.335,34.695 778.224,40.81C778.929,41.428 779.563,42.131 780.079,42.916C783.567,48.221 780.325,54.916 777.054,59.431C776.334,60.424 775.565,61.382 774.759,62.305C773.752,63.458 772.686,64.559 771.57,65.606C770.202,66.89 768.759,68.098 767.239,69.199C766.605,69.658 765.957,70.099 765.294,70.515C764.788,70.831 764.273,71.133 763.747,71.415C763.364,71.621 762.975,71.816 762.579,71.996C762.264,72.139 761.944,72.273 761.619,72.394C760.221,72.914 757.682,73.52 757.251,71.463C756.193,66.015 754.463,60.495 751.074,56.019C750.051,54.668 748.877,53.456 747.659,52.282C746.152,50.829 744.473,49.355 744.608,47.085C744.641,46.542 744.754,46.006 744.907,45.486ZM167.887,156.165C168.811,158.893 167.128,161.047 165.616,163.184C164.821,164.307 164.046,165.44 163.335,166.619C160.233,171.758 158.58,177.632 157.649,183.524C157.237,185.934 154.175,185.939 152.321,185.654C151.875,185.585 151.433,185.494 150.995,185.385C150.428,185.245 149.868,185.075 149.317,184.882C148.63,184.642 147.955,184.367 147.295,184.061C141.865,181.548 135.956,176.352 136.474,169.773C136.546,168.851 136.747,167.943 137.052,167.071C137.543,165.672 138.295,164.376 139.186,163.196C143.788,156.859 151.441,152.452 159.358,152.355C162.253,152.319 166.788,152.917 167.887,156.165ZM583.482,237.88C571.315,239.862 557.9,237.157 549.13,228.012C547.724,226.545 546.465,224.937 545.387,223.215C544.062,221.099 543.012,218.814 542.264,216.433C541.336,213.479 540.876,210.388 540.844,207.294C540.649,188.464 555.386,172.237 572.085,165.455C575.491,164.072 579.039,163.041 582.659,162.402C594.861,160.249 608.381,162.797 617.264,171.938C618.695,173.411 619.976,175.029 621.074,176.765C622.425,178.901 623.496,181.212 624.261,183.622C625.211,186.617 625.682,189.753 625.718,192.893C625.936,211.91 611.055,228.296 594.093,234.958C590.672,236.302 587.11,237.289 583.482,237.88ZM571.871,197.726C578.593,196.581 585.206,190.726 585.127,183.524C585.116,182.54 584.969,181.558 584.673,180.619C582.939,175.133 576.886,173.024 571.615,173.945C564.921,175.114 558.325,180.956 558.401,188.137C558.412,189.116 558.558,190.095 558.852,191.029C560.577,196.501 566.611,198.623 571.871,197.726ZM411.354,317.727C411.887,315.75 412.622,313.828 413.554,312.004C419.141,301.068 431.103,294.98 442.763,292.84C445.084,292.428 447.419,292.097 449.765,291.87C451.465,291.706 453.172,291.597 454.88,291.553C465.213,291.292 477.026,293.567 483.575,302.355C484.51,303.609 485.306,304.966 485.938,306.396C486.802,308.35 487.36,310.439 487.576,312.564C488.096,316.971 484.349,320.604 481.129,322.98C480.442,323.486 479.736,323.965 479.016,324.421C478.136,324.978 477.235,325.502 476.319,325.999C475.221,326.595 474.102,327.151 472.968,327.676C464.394,331.64 455.011,334.04 445.662,335.249C439.044,336.105 432.198,336.406 425.593,335.278C419.777,334.285 412.724,331.746 411.03,325.413C410.764,324.42 410.646,323.39 410.648,322.362C410.651,320.793 410.926,319.233 411.354,317.727ZM316.265,281.42C304.958,283.262 292.573,280.692 284.415,272.228C283.08,270.844 281.885,269.325 280.859,267.699C279.595,265.698 278.589,263.537 277.865,261.284C276.919,258.342 276.458,255.254 276.437,252.165C276.314,234.377 289.991,218.87 305.819,212.384C309.009,211.077 312.336,210.103 315.73,209.504C327.069,207.503 339.554,209.927 347.819,218.383C349.177,219.773 350.393,221.3 351.439,222.938C352.728,224.958 353.754,227.143 354.494,229.422C355.462,232.404 355.935,235.535 355.96,238.668C356.103,256.632 342.287,272.29 326.211,278.663C323.007,279.933 319.668,280.865 316.265,281.42ZM326.444,239.564C332.851,238.472 339.018,232.833 338.965,226.013C338.957,225.027 338.809,224.042 338.504,223.103C336.843,217.981 331.236,215.949 326.272,216.816C319.89,217.931 313.741,223.558 313.791,230.358C313.798,231.34 313.946,232.321 314.248,233.255C315.899,238.365 321.489,240.409 326.444,239.564Z" style="fill:rgb(0,81,53);fill-rule:nonzero;"/>
                            </g>
                        </g>
                    </g>
                </g>
            </g>
        </g>
    </g>
    <defs>
        <linearGradient id="_Linear1" x1="0" y1="0" x2="1" y2="0" gradientUnits="userSpaceOnUse" gradientTransform="matrix(16.5505,0,0,218.078,-274.502,3173.2)"><stop offset="0" style="stop-color:rgb(172,163,155);stop-opacity:1"/><stop offset="1" style="stop-color:rgb(65,65,65);stop-opacity:1"/></linearGradient>
    </defs>
</svg>
