<?xml version="1.0" encoding="UTF-8" standalone="no"?>
<!DOCTYPE svg PUBLIC "-//W3C//DTD SVG 1.1//EN" "http://www.w3.org/Graphics/SVG/1.1/DTD/svg11.dtd">
<svg width="100%" height="100%" viewBox="0 0 601 140" version="1.1" xmlns="http://www.w3.org/2000/svg" xmlns:xlink="http://www.w3.org/1999/xlink" xml:space="preserve" xmlns:serif="http://www.serif.com/" style="fill-rule:evenodd;clip-rule:evenodd;stroke-linecap:round;stroke-linejoin:round;stroke-miterlimit:1.5;">
    <g transform="matrix(1,0,0,1,-202,-8800)">
        <g id="Select" transform="matrix(0.585938,0,0,0.182292,202.331,8800)">
            <rect x="0" y="0" width="1024" height="768" style="fill:none;"/>
            <g transform="matrix(0.327686,-0.458615,0.134942,0.996155,175.988,16.7551)">
                <path d="M554.79,545.792C520.813,546.1 537.492,473.205 558.496,487.722C568.689,494.826 570.543,511.197 570.543,525.097C570.543,532.819 564.365,545.483 554.79,545.792Z" style="fill:rgb(172,163,155);fill-rule:nonzero;"/>
            </g>
            <g transform="matrix(-0.180741,-0.991066,0.29161,-0.549447,350.841,1281.9)">
                <path d="M554.79,545.792C520.813,546.1 537.492,473.205 558.496,487.722C568.689,494.826 570.543,511.197 570.543,525.097C570.543,532.819 564.365,545.483 554.79,545.792Z" style="fill:rgb(172,163,155);fill-rule:nonzero;"/>
            </g>
            <g transform="matrix(-0.353708,-0.164718,0.0484664,-1.07526,597.591,1180.76)">
                <path d="M554.79,545.792C520.813,546.1 537.492,473.205 558.496,487.722C568.689,494.826 570.543,511.197 570.543,525.097C570.543,532.819 564.365,545.483 554.79,545.792Z" style="fill:rgb(172,163,155);fill-rule:nonzero;"/>
            </g>
            <g transform="matrix(-0.327686,-0.458615,-0.134942,0.996155,846.602,16.7551)">
                <path d="M554.79,545.792C520.813,546.1 537.492,473.205 558.496,487.722C568.689,494.826 570.543,511.197 570.543,525.097C570.543,532.819 564.365,545.483 554.79,545.792Z" style="fill:rgb(172,163,155);fill-rule:nonzero;"/>
            </g>
            <g transform="matrix(0.180741,-0.991066,-0.29161,-0.549447,671.749,1281.9)">
                <path d="M554.79,545.792C520.813,546.1 537.492,473.205 558.496,487.722C568.689,494.826 570.543,511.197 570.543,525.097C570.543,532.819 564.365,545.483 554.79,545.792Z" style="fill:rgb(172,163,155);fill-rule:nonzero;"/>
            </g>
            <g transform="matrix(0.353708,-0.164718,-0.0484664,-1.07526,424.998,1180.76)">
                <path d="M554.79,545.792C520.813,546.1 537.492,473.205 558.496,487.722C568.689,494.826 570.543,511.197 570.543,525.097C570.543,532.819 564.365,545.483 554.79,545.792Z" style="fill:rgb(172,163,155);fill-rule:nonzero;"/>
            </g>
            <g id="Gopher" transform="matrix(0.25795,0,0,0.829125,406.131,51.919)">
                <path d="M381.081,363.552C378.301,364.788 373.668,395.058 387.876,396.602C397.452,397.529 423.707,400.618 429.884,396.602C441.931,388.88 440.695,370.347 433.9,365.714C422.471,358.301 384.17,362.008 381.081,363.552ZM302.625,136.834C270.811,133.127 217.375,162.78 209.344,225.792C200.695,291.274 277.915,356.139 352.046,291.274C391.892,256.371 405.792,148.88 302.625,136.834ZM517.606,136.834C414.44,148.88 428.34,256.371 468.185,291.274C542.317,356.139 619.537,291.274 610.888,225.792C603.166,162.78 549.73,133.127 517.606,136.834Z" style="fill:white;fill-rule:nonzero;"/>
                <path d="M145.64,475.519C145.178,476.012 144.717,476.517 144.259,477.032C131.099,491.837 120.491,514.704 116.666,549.306C114.911,564.15 102.247,575.284 87.3,575.124C87.297,575.178 87.295,575.178 87.293,575.178C78.717,575.088 70.589,571.329 64.967,564.852C59.344,558.375 56.764,549.801 57.879,541.296C63.042,499.959 75.722,470.703 90.628,449.835C71.903,455.99 51.583,467.11 31.334,486.157C20.575,496.137 4.07,496.552 -7.177,487.125C-7.385,487.371 -7.386,487.37 -7.387,487.369C-14.032,481.801 -17.97,473.65 -18.202,464.984C-18.434,456.317 -14.938,447.967 -8.601,442.051C23.673,412 56.05,396.212 85.428,388.832C73.087,368.728 62.986,341.93 58.817,305.989C57.738,297.584 60.303,289.119 65.867,282.727C71.43,276.336 79.46,272.627 87.934,272.536C88.179,272.238 88.428,272.235 88.676,272.232C103.246,272.078 115.578,282.957 117.241,297.433C120.953,332.418 131.613,355.486 144.857,370.387C147.616,373.49 150.456,376.192 153.301,378.543C154.031,363.848 154.136,350.571 153.127,339.151C147.568,281.39 142.934,222.703 150.039,183.166C153.745,161.236 81.467,156.293 105.251,106.873C125.637,64.556 175.985,101.931 188.649,88.649C253.205,21.622 331.66,3.707 393.436,2.162L427.413,2.162C488.88,5.251 567.336,21.931 632.201,88.649C644.865,101.931 694.903,64.556 715.598,106.873C739.382,155.985 667.104,161.236 670.811,183.166C677.606,222.703 672.973,281.39 667.722,339.151C666.793,349.305 666.748,360.927 667.243,373.71C668.295,372.657 669.341,371.55 670.375,370.387C683.62,355.486 694.28,332.418 697.991,297.433C699.654,282.957 711.986,272.078 726.556,272.232C726.805,272.235 727.053,272.238 727.299,272.536C735.772,272.627 743.802,276.336 749.365,282.727C754.929,289.119 757.494,297.584 756.415,305.989C752.246,341.93 742.145,368.728 729.804,388.832C759.182,396.212 791.559,412 823.833,442.051C830.17,447.967 833.666,456.317 833.434,464.984C833.202,473.65 829.264,481.801 822.619,487.369C822.618,487.37 822.617,487.371 822.409,487.125C811.162,496.552 794.657,496.137 783.898,486.157C763.649,467.11 743.329,455.99 724.604,449.835C739.51,470.703 752.19,499.959 757.353,541.296C758.468,549.801 755.888,558.375 750.265,564.852C744.643,571.329 736.516,575.088 727.939,575.178C727.937,575.178 727.935,575.178 727.932,575.124C712.985,575.284 700.321,564.15 698.566,549.306C695.186,518.733 686.511,497.322 675.46,482.538C682.288,585.747 677.841,704.925 579.382,765.714C550.656,783.629 482.394,793.514 415.058,795.058L414.44,795.058C347.104,793.514 269.575,783.629 240.849,765.714C140.354,703.542 138.063,580.294 145.64,475.519ZM381.081,363.552C378.301,364.788 373.668,395.058 387.876,396.602C397.452,397.529 423.707,400.618 429.884,396.602C441.931,388.88 440.695,370.347 433.9,365.714C422.471,358.301 384.17,362.008 381.081,363.552ZM302.625,136.834C270.811,133.127 217.375,162.78 209.344,225.792C200.695,291.274 277.915,356.139 352.046,291.274C391.892,256.371 405.792,148.88 302.625,136.834ZM517.606,136.834C414.44,148.88 428.34,256.371 468.185,291.274C542.317,356.139 619.537,291.274 610.888,225.792C603.166,162.78 549.73,133.127 517.606,136.834Z" style="fill:url(#_Linear1);"/>
                <path d="M410.425,299.614C429.884,296.834 476.525,319.073 473.436,345.328C469.73,375.907 353.282,379.923 347.104,343.475C343.398,321.236 361.004,307.027 410.425,299.614ZM608.726,769.73C614.903,778.687 615.212,784.865 605.328,789.498C567.645,806.795 533.977,783.629 546.641,777.143C573.514,763.552 590.193,742.239 608.726,769.73ZM211.815,772.819C230.347,745.328 247.027,766.641 273.9,780.232C286.564,786.718 252.896,809.884 215.212,792.587C205.328,787.954 205.637,781.776 211.815,772.819Z" style="fill:rgb(172,163,155);fill-rule:nonzero;"/>
                <path d="M657.838,114.286C659.382,107.799 675.444,104.71 684.402,115.83C695.212,129.112 668.649,147.336 667.413,139.923C664.324,119.846 655.985,120.772 657.838,114.286ZM162.703,114.286C164.556,120.772 156.216,119.846 153.127,139.923C151.892,147.336 125.328,129.112 136.139,115.83C144.788,104.71 160.849,107.799 162.703,114.286ZM378.61,314.44C382.317,300.232 395.29,295.598 405.792,295.29C432.664,294.672 442.857,309.189 443.784,320.618C445.637,340.077 370.27,344.71 378.61,314.44Z" style="fill:rgb(65,65,65);fill-rule:nonzero;"/>
                <g transform="matrix(1.9917,0,0,1.9917,-520.356,-227.593)">
                    <path d="M524.71,264.71C505.263,264.71 489.498,248.945 489.498,229.498C489.498,210.051 505.263,194.286 524.71,194.286C544.158,194.286 559.923,210.051 559.923,229.498C559.923,248.945 544.158,264.71 524.71,264.71ZM515.444,225.483C521.585,225.483 526.564,220.504 526.564,214.363C526.564,208.222 521.585,203.243 515.444,203.243C509.303,203.243 504.324,208.222 504.324,214.363C504.324,220.504 509.303,225.483 515.444,225.483Z" style="fill:rgb(65,65,65);fill-rule:nonzero;"/>
                </g>
                <g transform="matrix(1.9917,0,0,1.9917,-293.375,-227.593)">
                    <path d="M295.83,264.71C276.383,264.71 260.618,248.945 260.618,229.498C260.618,210.051 276.383,194.286 295.83,194.286C315.277,194.286 331.042,210.051 331.042,229.498C331.042,248.945 315.277,264.71 295.83,264.71ZM305.097,225.483C311.238,225.483 316.216,220.504 316.216,214.363C316.216,208.222 311.238,203.243 305.097,203.243C298.955,203.243 293.977,208.222 293.977,214.363C293.977,220.504 298.955,225.483 305.097,225.483Z" style="fill:rgb(65,65,65);fill-rule:nonzero;"/>
                </g>
            </g>
            <g transform="matrix(1,0,0,1,1.30341,-7.27596e-12)">
                <g transform="matrix(0.724529,0,0,0.434717,420.587,-58.0898)">
                    <g transform="matrix(1.024,0,0,5.48571,17.7181,-19461.7)">
                        <path d="M399.696,3632.71L441.551,3618.69L417.339,3594.6L375.694,3608.44L399.696,3632.71Z" style="fill:url(#_Linear2);stroke:rgb(243,193,5);stroke-width:1px;"/>
                    </g>
                    <g transform="matrix(1.024,0,0,5.48571,-8.73115e-14,-19254.9)">
                        <path d="M434.701,3557.64L434.701,3589" style="fill:none;stroke:rgb(157,123,4);stroke-width:1px;"/>
                    </g>
                    <g transform="matrix(1.024,0,0,5.48571,17.7181,-19461.7)">
                        <path d="M399.696,3632.71L441.551,3618.69L417.339,3594.6L375.694,3608.44L399.696,3632.71Z" style="fill:none;stroke:rgb(243,193,5);stroke-width:1px;"/>
                    </g>
                    <g transform="matrix(1.024,0,0,5.48571,-8.88178e-14,-19254.9)">
                        <path d="M392.997,3570.73L392.997,3603.02L416.956,3626.98L416.999,3595L392.997,3570.73Z" style="fill:rgb(231,182,5);stroke:rgb(243,193,5);stroke-width:1px;"/>
                    </g>
                    <g transform="matrix(1.024,0,0,5.48571,-8.73115e-14,-19254.9)">
                        <path d="M458.903,3581.03L416.999,3595L416.956,3626.98L458.752,3613.05L458.903,3581.03Z" style="fill:rgb(250,208,55);stroke:rgb(243,193,5);stroke-width:1px;"/>
                    </g>
                    <g transform="matrix(1.024,0,0,5.48571,17.7181,-19461.7)">
                        <path d="M375.694,3608.44L399.696,3632.71L441.551,3618.69" style="fill:none;stroke:rgb(243,193,5);stroke-width:1px;"/>
                    </g>
                </g>
                <g transform="matrix(0.724529,0,0,0.434717,389.577,-24.8656)">
                    <g transform="matrix(1.024,0,0,5.48571,17.7181,-19461.7)">
                        <path d="M399.696,3632.71L441.551,3618.69L417.339,3594.6L375.694,3608.44L399.696,3632.71Z" style="fill:url(#_Linear3);stroke:rgb(243,193,5);stroke-width:1px;"/>
                    </g>
                    <g transform="matrix(1.024,0,0,5.48571,-8.73115e-14,-19254.9)">
                        <path d="M434.701,3557.64L434.701,3589" style="fill:none;stroke:rgb(157,123,4);stroke-width:1px;"/>
                    </g>
                    <g transform="matrix(1.36825,0,0,7.32989,-371.332,-61238.4)">
                        <circle cx="590.157" cy="8410.57" r="12.561" style="fill:url(#_Radial4);"/>
                        <path d="M590.157,8397.26C597.502,8397.26 603.466,8403.22 603.466,8410.57C603.466,8417.92 597.502,8423.88 590.157,8423.88C582.811,8423.88 576.847,8417.92 576.847,8410.57C576.847,8403.22 582.811,8397.26 590.157,8397.26ZM590.157,8398.01C583.224,8398.01 577.595,8403.64 577.595,8410.57C577.595,8417.5 583.224,8423.13 590.157,8423.13C597.089,8423.13 602.718,8417.5 602.718,8410.57C602.718,8403.64 597.089,8398.01 590.157,8398.01Z" style="fill:rgb(0,167,109);"/>
                    </g>
                    <g transform="matrix(1.024,0,0,5.48571,17.7181,-19461.7)">
                        <path d="M399.696,3632.71L441.551,3618.69L417.339,3594.6L375.694,3608.44L399.696,3632.71Z" style="fill:none;stroke:rgb(243,193,5);stroke-width:1px;"/>
                    </g>
                    <g transform="matrix(1.024,0,0,5.48571,-8.88178e-14,-19254.9)">
                        <path d="M392.997,3570.73L392.997,3603.02L416.956,3626.98L416.999,3595L392.997,3570.73Z" style="fill:rgb(231,182,5);stroke:rgb(243,193,5);stroke-width:1px;"/>
                    </g>
                    <g transform="matrix(1.024,0,0,5.48571,-8.73115e-14,-19254.9)">
                        <path d="M458.903,3581.03L416.999,3595L416.956,3626.98L458.752,3613.05L458.903,3581.03Z" style="fill:rgb(250,208,55);stroke:rgb(243,193,5);stroke-width:1px;"/>
                    </g>
                    <g transform="matrix(1.024,0,0,5.48571,17.7181,-19461.7)">
                        <path d="M375.694,3608.44L399.696,3632.71L441.551,3618.69" style="fill:none;stroke:rgb(243,193,5);stroke-width:1px;"/>
                    </g>
                </g>
                <g transform="matrix(0.724529,0,0,0.434717,358.557,8.3708)">
                    <g transform="matrix(1.024,0,0,5.48571,17.7181,-19461.7)">
                        <path d="M399.696,3632.71L441.551,3618.69L417.339,3594.6L375.694,3608.44L399.696,3632.71Z" style="fill:url(#_Linear5);stroke:rgb(243,193,5);stroke-width:1px;"/>
                    </g>
                    <g transform="matrix(1.024,0,0,5.48571,-8.73115e-14,-19254.9)">
                        <path d="M434.701,3557.64L434.701,3589" style="fill:none;stroke:rgb(157,123,4);stroke-width:1px;"/>
                    </g>
                    <g transform="matrix(1.36825,0,0,7.32989,-379.533,-61222.7)">
                        <circle cx="590.157" cy="8410.57" r="12.561" style="fill:url(#_Radial6);"/>
                        <path d="M590.157,8397.26C597.502,8397.26 603.466,8403.22 603.466,8410.57C603.466,8417.92 597.502,8423.88 590.157,8423.88C582.811,8423.88 576.847,8417.92 576.847,8410.57C576.847,8403.22 582.811,8397.26 590.157,8397.26ZM590.157,8398.01C583.224,8398.01 577.595,8403.64 577.595,8410.57C577.595,8417.5 583.224,8423.13 590.157,8423.13C597.089,8423.13 602.718,8417.5 602.718,8410.57C602.718,8403.64 597.089,8398.01 590.157,8398.01Z" style="fill:rgb(0,167,109);"/>
                    </g>
                    <g transform="matrix(1.024,0,0,5.48571,17.7181,-19461.7)">
                        <path d="M399.696,3632.71L441.551,3618.69L417.339,3594.6L375.694,3608.44L399.696,3632.71Z" style="fill:none;stroke:rgb(243,193,5);stroke-width:1px;"/>
                    </g>
                    <g transform="matrix(1.024,0,0,5.48571,-8.88178e-14,-19254.9)">
                        <path d="M392.997,3570.73L392.997,3603.02L416.956,3626.98L416.999,3595L392.997,3570.73Z" style="fill:rgb(231,182,5);stroke:rgb(243,193,5);stroke-width:1px;"/>
                    </g>
                    <g transform="matrix(1.024,0,0,5.48571,-8.73115e-14,-19254.9)">
                        <path d="M458.903,3581.03L416.999,3595L416.956,3626.98L458.752,3613.05L458.903,3581.03Z" style="fill:rgb(250,208,55);stroke:rgb(243,193,5);stroke-width:1px;"/>
                    </g>
                    <g transform="matrix(1.024,0,0,5.48571,17.7181,-19461.7)">
                        <path d="M375.694,3608.44L399.696,3632.71L441.551,3618.69" style="fill:none;stroke:rgb(243,193,5);stroke-width:1px;"/>
                    </g>
                </g>
                <g transform="matrix(0.724529,0,0,0.434717,327.497,41.6486)">
                    <g transform="matrix(1.024,0,0,5.48571,17.7181,-19461.7)">
                        <path d="M399.696,3632.71L441.551,3618.69L417.339,3594.6L375.694,3608.44L399.696,3632.71Z" style="fill:url(#_Linear7);stroke:rgb(243,193,5);stroke-width:1px;"/>
                    </g>
                    <g transform="matrix(1.024,0,0,5.48571,-8.73115e-14,-19254.9)">
                        <path d="M434.701,3557.64L434.701,3589" style="fill:none;stroke:rgb(157,123,4);stroke-width:1px;"/>
                    </g>
                    <g transform="matrix(1.024,0,0,5.48571,17.7181,-19461.7)">
                        <path d="M399.696,3632.71L441.551,3618.69L417.339,3594.6L375.694,3608.44L399.696,3632.71Z" style="fill:none;stroke:rgb(243,193,5);stroke-width:1px;"/>
                    </g>
                    <g transform="matrix(1.024,0,0,5.48571,-8.88178e-14,-19254.9)">
                        <path d="M392.997,3570.73L392.997,3603.02L416.956,3626.98L416.999,3595L392.997,3570.73Z" style="fill:rgb(231,182,5);stroke:rgb(243,193,5);stroke-width:1px;"/>
                    </g>
                    <g transform="matrix(1.024,0,0,5.48571,-8.73115e-14,-19254.9)">
                        <path d="M458.903,3581.03L416.999,3595L416.956,3626.98L458.752,3613.05L458.903,3581.03Z" style="fill:rgb(250,208,55);stroke:rgb(243,193,5);stroke-width:1px;"/>
                    </g>
                    <g transform="matrix(1.024,0,0,5.48571,17.7181,-19461.7)">
                        <path d="M375.694,3608.44L399.696,3632.71L441.551,3618.69" style="fill:none;stroke:rgb(243,193,5);stroke-width:1px;"/>
                    </g>
                </g>
            </g>
            <g transform="matrix(1,0,0,1,3.18154,-10.9714)">
                <g transform="matrix(0.724529,0,0,0.434717,435.346,138.742)">
                    <g transform="matrix(1.024,0,0,5.48571,17.7181,-19461.7)">
                        <path d="M399.696,3632.71L441.551,3618.69L417.339,3594.6L375.694,3608.44L399.696,3632.71Z" style="fill:url(#_Linear8);stroke:rgb(243,193,5);stroke-width:1px;"/>
                    </g>
                    <g transform="matrix(1.024,0,0,5.48571,-8.73115e-14,-19254.9)">
                        <path d="M434.701,3557.64L434.701,3589" style="fill:none;stroke:rgb(157,123,4);stroke-width:1px;"/>
                    </g>
                    <g transform="matrix(1.024,0,0,5.48571,17.7181,-19461.7)">
                        <path d="M399.696,3632.71L441.551,3618.69L417.339,3594.6L375.694,3608.44L399.696,3632.71Z" style="fill:none;stroke:rgb(243,193,5);stroke-width:1px;"/>
                    </g>
                    <g transform="matrix(1.024,0,0,5.48571,-8.88178e-14,-19254.9)">
                        <path d="M392.997,3570.73L392.997,3603.02L416.956,3626.98L416.999,3595L392.997,3570.73Z" style="fill:rgb(231,182,5);stroke:rgb(243,193,5);stroke-width:1px;"/>
                    </g>
                    <g transform="matrix(1.024,0,0,5.48571,-8.73115e-14,-19254.9)">
                        <path d="M458.903,3581.03L416.999,3595L416.956,3626.98L458.752,3613.05L458.903,3581.03Z" style="fill:rgb(250,208,55);stroke:rgb(243,193,5);stroke-width:1px;"/>
                    </g>
                    <g transform="matrix(1.024,0,0,5.48571,17.7181,-19461.7)">
                        <path d="M375.694,3608.44L399.696,3632.71L441.551,3618.69" style="fill:none;stroke:rgb(243,193,5);stroke-width:1px;"/>
                    </g>
                </g>
                <g transform="matrix(0.724529,0,0,0.434717,404.336,171.966)">
                    <g transform="matrix(1.024,0,0,5.48571,17.7181,-19461.7)">
                        <path d="M399.696,3632.71L441.551,3618.69L417.339,3594.6L375.694,3608.44L399.696,3632.71Z" style="fill:url(#_Linear9);stroke:rgb(243,193,5);stroke-width:1px;"/>
                    </g>
                    <g transform="matrix(1.024,0,0,5.48571,-8.73115e-14,-19254.9)">
                        <path d="M434.701,3557.64L434.701,3589" style="fill:none;stroke:rgb(157,123,4);stroke-width:1px;"/>
                    </g>
                    <g transform="matrix(1.024,0,0,5.48571,17.7181,-19461.7)">
                        <path d="M399.696,3632.71L441.551,3618.69L417.339,3594.6L375.694,3608.44L399.696,3632.71Z" style="fill:none;stroke:rgb(243,193,5);stroke-width:1px;"/>
                    </g>
                    <g transform="matrix(1.024,0,0,5.48571,-8.88178e-14,-19254.9)">
                        <path d="M392.997,3570.73L392.997,3603.02L416.956,3626.98L416.999,3595L392.997,3570.73Z" style="fill:rgb(231,182,5);stroke:rgb(243,193,5);stroke-width:1px;"/>
                    </g>
                    <g transform="matrix(1.024,0,0,5.48571,-8.73115e-14,-19254.9)">
                        <path d="M458.903,3581.03L416.999,3595L416.956,3626.98L458.752,3613.05L458.903,3581.03Z" style="fill:rgb(250,208,55);stroke:rgb(243,193,5);stroke-width:1px;"/>
                    </g>
                    <g transform="matrix(1.024,0,0,5.48571,17.7181,-19461.7)">
                        <path d="M375.694,3608.44L399.696,3632.71L441.551,3618.69" style="fill:none;stroke:rgb(243,193,5);stroke-width:1px;"/>
                    </g>
                </g>
                <g transform="matrix(0.724529,0,0,0.434717,373.316,205.203)">
                    <g transform="matrix(1.024,0,0,5.48571,17.7181,-19461.7)">
                        <path d="M399.696,3632.71L441.551,3618.69L417.339,3594.6L375.694,3608.44L399.696,3632.71Z" style="fill:url(#_Linear10);stroke:rgb(243,193,5);stroke-width:1px;"/>
                    </g>
                    <g transform="matrix(1.024,0,0,5.48571,-8.73115e-14,-19254.9)">
                        <path d="M434.701,3557.64L434.701,3589" style="fill:none;stroke:rgb(157,123,4);stroke-width:1px;"/>
                    </g>
                    <g transform="matrix(1.024,0,0,5.48571,17.7181,-19461.7)">
                        <path d="M399.696,3632.71L441.551,3618.69L417.339,3594.6L375.694,3608.44L399.696,3632.71Z" style="fill:none;stroke:rgb(243,193,5);stroke-width:1px;"/>
                    </g>
                    <g transform="matrix(1.024,0,0,5.48571,-8.88178e-14,-19254.9)">
                        <path d="M392.997,3570.73L392.997,3603.02L416.956,3626.98L416.999,3595L392.997,3570.73Z" style="fill:rgb(231,182,5);stroke:rgb(243,193,5);stroke-width:1px;"/>
                    </g>
                    <g transform="matrix(1.024,0,0,5.48571,-8.73115e-14,-19254.9)">
                        <path d="M458.903,3581.03L416.999,3595L416.956,3626.98L458.752,3613.05L458.903,3581.03Z" style="fill:rgb(250,208,55);stroke:rgb(243,193,5);stroke-width:1px;"/>
                    </g>
                    <g transform="matrix(1.024,0,0,5.48571,17.7181,-19461.7)">
                        <path d="M375.694,3608.44L399.696,3632.71L441.551,3618.69" style="fill:none;stroke:rgb(243,193,5);stroke-width:1px;"/>
                    </g>
                </g>
                <g transform="matrix(0.724529,0,0,0.434717,342.256,238.481)">
                    <g transform="matrix(1.024,0,0,5.48571,17.7181,-19461.7)">
                        <path d="M399.696,3632.71L441.551,3618.69L417.339,3594.6L375.694,3608.44L399.696,3632.71Z" style="fill:url(#_Linear11);stroke:rgb(243,193,5);stroke-width:1px;"/>
                    </g>
                    <g transform="matrix(1.024,0,0,5.48571,-8.73115e-14,-19254.9)">
                        <path d="M434.701,3557.64L434.701,3589" style="fill:none;stroke:rgb(157,123,4);stroke-width:1px;"/>
                    </g>
                    <g transform="matrix(1.024,0,0,5.48571,17.7181,-19461.7)">
                        <path d="M399.696,3632.71L441.551,3618.69L417.339,3594.6L375.694,3608.44L399.696,3632.71Z" style="fill:none;stroke:rgb(243,193,5);stroke-width:1px;"/>
                    </g>
                    <g transform="matrix(1.024,0,0,5.48571,-8.88178e-14,-19254.9)">
                        <path d="M392.997,3570.73L392.997,3603.02L416.956,3626.98L416.999,3595L392.997,3570.73Z" style="fill:rgb(231,182,5);stroke:rgb(243,193,5);stroke-width:1px;"/>
                    </g>
                    <g transform="matrix(1.024,0,0,5.48571,-8.73115e-14,-19254.9)">
                        <path d="M458.903,3581.03L416.999,3595L416.956,3626.98L458.752,3613.05L458.903,3581.03Z" style="fill:rgb(250,208,55);stroke:rgb(243,193,5);stroke-width:1px;"/>
                    </g>
                    <g transform="matrix(1.024,0,0,5.48571,17.7181,-19461.7)">
                        <path d="M375.694,3608.44L399.696,3632.71L441.551,3618.69" style="fill:none;stroke:rgb(243,193,5);stroke-width:1px;"/>
                    </g>
                </g>
            </g>
            <g transform="matrix(-1,0,0,1,1037.46,-196.832)">
                <g transform="matrix(0.724529,0,0,0.434717,435.346,138.742)">
                    <g transform="matrix(1.024,0,0,5.48571,17.7181,-19461.7)">
                        <path d="M399.696,3632.71L441.551,3618.69L417.339,3594.6L375.694,3608.44L399.696,3632.71Z" style="fill:url(#_Linear12);stroke:rgb(243,193,5);stroke-width:1px;"/>
                    </g>
                    <g transform="matrix(1.024,0,0,5.48571,-8.73115e-14,-19254.9)">
                        <path d="M434.701,3557.64L434.701,3589" style="fill:none;stroke:rgb(157,123,4);stroke-width:1px;"/>
                    </g>
                    <g transform="matrix(1.024,0,0,5.48571,17.7181,-19461.7)">
                        <path d="M399.696,3632.71L441.551,3618.69L417.339,3594.6L375.694,3608.44L399.696,3632.71Z" style="fill:none;stroke:rgb(243,193,5);stroke-width:1px;"/>
                    </g>
                    <g transform="matrix(1.024,0,0,5.48571,-8.88178e-14,-19254.9)">
                        <path d="M392.997,3570.73L392.997,3603.02L416.956,3626.98L416.999,3595L392.997,3570.73Z" style="fill:rgb(231,182,5);stroke:rgb(243,193,5);stroke-width:1px;"/>
                    </g>
                    <g transform="matrix(1.024,0,0,5.48571,-8.73115e-14,-19254.9)">
                        <path d="M458.903,3581.03L416.999,3595L416.956,3626.98L458.752,3613.05L458.903,3581.03Z" style="fill:rgb(250,208,55);stroke:rgb(243,193,5);stroke-width:1px;"/>
                    </g>
                    <g transform="matrix(1.024,0,0,5.48571,17.7181,-19461.7)">
                        <path d="M375.694,3608.44L399.696,3632.71L441.551,3618.69" style="fill:none;stroke:rgb(243,193,5);stroke-width:1px;"/>
                    </g>
                </g>
                <g transform="matrix(0.724529,0,0,0.434717,404.336,171.966)">
                    <g transform="matrix(1.024,0,0,5.48571,17.7181,-19461.7)">
                        <path d="M399.696,3632.71L441.551,3618.69L417.339,3594.6L375.694,3608.44L399.696,3632.71Z" style="fill:url(#_Linear13);stroke:rgb(243,193,5);stroke-width:1px;"/>
                    </g>
                    <g transform="matrix(1.024,0,0,5.48571,-8.73115e-14,-19254.9)">
                        <path d="M434.701,3557.64L434.701,3589" style="fill:none;stroke:rgb(157,123,4);stroke-width:1px;"/>
                    </g>
                    <g transform="matrix(1.024,0,0,5.48571,17.7181,-19461.7)">
                        <path d="M399.696,3632.71L441.551,3618.69L417.339,3594.6L375.694,3608.44L399.696,3632.71Z" style="fill:none;stroke:rgb(243,193,5);stroke-width:1px;"/>
                    </g>
                    <g transform="matrix(1.024,0,0,5.48571,-8.88178e-14,-19254.9)">
                        <path d="M392.997,3570.73L392.997,3603.02L416.956,3626.98L416.999,3595L392.997,3570.73Z" style="fill:rgb(231,182,5);stroke:rgb(243,193,5);stroke-width:1px;"/>
                    </g>
                    <g transform="matrix(1.024,0,0,5.48571,-8.73115e-14,-19254.9)">
                        <path d="M458.903,3581.03L416.999,3595L416.956,3626.98L458.752,3613.05L458.903,3581.03Z" style="fill:rgb(250,208,55);stroke:rgb(243,193,5);stroke-width:1px;"/>
                    </g>
                    <g transform="matrix(1.024,0,0,5.48571,17.7181,-19461.7)">
                        <path d="M375.694,3608.44L399.696,3632.71L441.551,3618.69" style="fill:none;stroke:rgb(243,193,5);stroke-width:1px;"/>
                    </g>
                </g>
                <g transform="matrix(0.724529,0,0,0.434717,373.316,205.203)">
                    <g transform="matrix(1.024,0,0,5.48571,17.7181,-19461.7)">
                        <path d="M399.696,3632.71L441.551,3618.69L417.339,3594.6L375.694,3608.44L399.696,3632.71Z" style="fill:url(#_Linear14);stroke:rgb(243,193,5);stroke-width:1px;"/>
                    </g>
                    <g transform="matrix(1.024,0,0,5.48571,-8.73115e-14,-19254.9)">
                        <path d="M434.701,3557.64L434.701,3589" style="fill:none;stroke:rgb(157,123,4);stroke-width:1px;"/>
                    </g>
                    <g transform="matrix(1.024,0,0,5.48571,17.7181,-19461.7)">
                        <path d="M399.696,3632.71L441.551,3618.69L417.339,3594.6L375.694,3608.44L399.696,3632.71Z" style="fill:none;stroke:rgb(243,193,5);stroke-width:1px;"/>
                    </g>
                    <g transform="matrix(1.024,0,0,5.48571,-8.88178e-14,-19254.9)">
                        <path d="M392.997,3570.73L392.997,3603.02L416.956,3626.98L416.999,3595L392.997,3570.73Z" style="fill:rgb(231,182,5);stroke:rgb(243,193,5);stroke-width:1px;"/>
                    </g>
                    <g transform="matrix(1.024,0,0,5.48571,-8.73115e-14,-19254.9)">
                        <path d="M458.903,3581.03L416.999,3595L416.956,3626.98L458.752,3613.05L458.903,3581.03Z" style="fill:rgb(250,208,55);stroke:rgb(243,193,5);stroke-width:1px;"/>
                    </g>
                    <g transform="matrix(1.024,0,0,5.48571,17.7181,-19461.7)">
                        <path d="M375.694,3608.44L399.696,3632.71L441.551,3618.69" style="fill:none;stroke:rgb(243,193,5);stroke-width:1px;"/>
                    </g>
                </g>
                <g transform="matrix(0.724529,0,0,0.434717,342.256,238.481)">
                    <g transform="matrix(1.024,0,0,5.48571,17.7181,-19461.7)">
                        <path d="M399.696,3632.71L441.551,3618.69L417.339,3594.6L375.694,3608.44L399.696,3632.71Z" style="fill:url(#_Linear15);stroke:rgb(243,193,5);stroke-width:1px;"/>
                    </g>
                    <g transform="matrix(1.024,0,0,5.48571,-8.73115e-14,-19254.9)">
                        <path d="M434.701,3557.64L434.701,3589" style="fill:none;stroke:rgb(157,123,4);stroke-width:1px;"/>
                    </g>
                    <g transform="matrix(1.024,0,0,5.48571,17.7181,-19461.7)">
                        <path d="M399.696,3632.71L441.551,3618.69L417.339,3594.6L375.694,3608.44L399.696,3632.71Z" style="fill:none;stroke:rgb(243,193,5);stroke-width:1px;"/>
                    </g>
                    <g transform="matrix(1.024,0,0,5.48571,-8.88178e-14,-19254.9)">
                        <path d="M392.997,3570.73L392.997,3603.02L416.956,3626.98L416.999,3595L392.997,3570.73Z" style="fill:rgb(231,182,5);stroke:rgb(243,193,5);stroke-width:1px;"/>
                    </g>
                    <g transform="matrix(1.024,0,0,5.48571,-8.73115e-14,-19254.9)">
                        <path d="M458.903,3581.03L416.999,3595L416.956,3626.98L458.752,3613.05L458.903,3581.03Z" style="fill:rgb(250,208,55);stroke:rgb(243,193,5);stroke-width:1px;"/>
                    </g>
                    <g transform="matrix(1.024,0,0,5.48571,17.7181,-19461.7)">
                        <path d="M375.694,3608.44L399.696,3632.71L441.551,3618.69" style="fill:none;stroke:rgb(243,193,5);stroke-width:1px;"/>
                    </g>
                </g>
            </g>
            <g transform="matrix(-1,0,0,1,1020.82,-10.9714)">
                <g transform="matrix(0.724529,0,0,0.434717,435.346,138.742)">
                    <g transform="matrix(1.024,0,0,5.48571,17.7181,-19461.7)">
                        <path d="M399.696,3632.71L441.551,3618.69L417.339,3594.6L375.694,3608.44L399.696,3632.71Z" style="fill:url(#_Linear16);stroke:rgb(243,193,5);stroke-width:1px;"/>
                    </g>
                    <g transform="matrix(1.024,0,0,5.48571,-8.73115e-14,-19254.9)">
                        <path d="M434.701,3557.64L434.701,3589" style="fill:none;stroke:rgb(157,123,4);stroke-width:1px;"/>
                    </g>
                    <g transform="matrix(1.024,0,0,5.48571,17.7181,-19461.7)">
                        <path d="M399.696,3632.71L441.551,3618.69L417.339,3594.6L375.694,3608.44L399.696,3632.71Z" style="fill:none;stroke:rgb(243,193,5);stroke-width:1px;"/>
                    </g>
                    <g transform="matrix(1.024,0,0,5.48571,-8.88178e-14,-19254.9)">
                        <path d="M392.997,3570.73L392.997,3603.02L416.956,3626.98L416.999,3595L392.997,3570.73Z" style="fill:rgb(231,182,5);stroke:rgb(243,193,5);stroke-width:1px;"/>
                    </g>
                    <g transform="matrix(1.024,0,0,5.48571,-8.73115e-14,-19254.9)">
                        <path d="M458.903,3581.03L416.999,3595L416.956,3626.98L458.752,3613.05L458.903,3581.03Z" style="fill:rgb(250,208,55);stroke:rgb(243,193,5);stroke-width:1px;"/>
                    </g>
                    <g transform="matrix(1.024,0,0,5.48571,17.7181,-19461.7)">
                        <path d="M375.694,3608.44L399.696,3632.71L441.551,3618.69" style="fill:none;stroke:rgb(243,193,5);stroke-width:1px;"/>
                    </g>
                </g>
                <g transform="matrix(0.724529,0,0,0.434717,404.336,171.966)">
                    <g transform="matrix(1.024,0,0,5.48571,17.7181,-19461.7)">
                        <path d="M399.696,3632.71L441.551,3618.69L417.339,3594.6L375.694,3608.44L399.696,3632.71Z" style="fill:url(#_Linear17);stroke:rgb(243,193,5);stroke-width:1px;"/>
                    </g>
                    <g transform="matrix(1.024,0,0,5.48571,-8.73115e-14,-19254.9)">
                        <path d="M434.701,3557.64L434.701,3589" style="fill:none;stroke:rgb(157,123,4);stroke-width:1px;"/>
                    </g>
                    <g transform="matrix(1.024,0,0,5.48571,17.7181,-19461.7)">
                        <path d="M399.696,3632.71L441.551,3618.69L417.339,3594.6L375.694,3608.44L399.696,3632.71Z" style="fill:none;stroke:rgb(243,193,5);stroke-width:1px;"/>
                    </g>
                    <g transform="matrix(1.024,0,0,5.48571,-8.88178e-14,-19254.9)">
                        <path d="M392.997,3570.73L392.997,3603.02L416.956,3626.98L416.999,3595L392.997,3570.73Z" style="fill:rgb(231,182,5);stroke:rgb(243,193,5);stroke-width:1px;"/>
                    </g>
                    <g transform="matrix(1.024,0,0,5.48571,-8.73115e-14,-19254.9)">
                        <path d="M458.903,3581.03L416.999,3595L416.956,3626.98L458.752,3613.05L458.903,3581.03Z" style="fill:rgb(250,208,55);stroke:rgb(243,193,5);stroke-width:1px;"/>
                    </g>
                    <g transform="matrix(1.024,0,0,5.48571,17.7181,-19461.7)">
                        <path d="M375.694,3608.44L399.696,3632.71L441.551,3618.69" style="fill:none;stroke:rgb(243,193,5);stroke-width:1px;"/>
                    </g>
                </g>
                <g transform="matrix(0.724529,0,0,0.434717,373.316,205.203)">
                    <g transform="matrix(1.024,0,0,5.48571,17.7181,-19461.7)">
                        <path d="M399.696,3632.71L441.551,3618.69L417.339,3594.6L375.694,3608.44L399.696,3632.71Z" style="fill:url(#_Linear18);stroke:rgb(243,193,5);stroke-width:1px;"/>
                    </g>
                    <g transform="matrix(1.024,0,0,5.48571,-8.73115e-14,-19254.9)">
                        <path d="M434.701,3557.64L434.701,3589" style="fill:none;stroke:rgb(157,123,4);stroke-width:1px;"/>
                    </g>
                    <g transform="matrix(-1.36825,0,0,7.32989,1243.01,-61212)">
                        <circle cx="590.157" cy="8410.57" r="12.561" style="fill:url(#_Radial19);"/>
                        <path d="M590.157,8397.26C597.502,8397.26 603.466,8403.22 603.466,8410.57C603.466,8417.92 597.502,8423.88 590.157,8423.88C582.811,8423.88 576.847,8417.92 576.847,8410.57C576.847,8403.22 582.811,8397.26 590.157,8397.26ZM590.157,8398.01C583.224,8398.01 577.595,8403.64 577.595,8410.57C577.595,8417.5 583.224,8423.13 590.157,8423.13C597.089,8423.13 602.718,8417.5 602.718,8410.57C602.718,8403.64 597.089,8398.01 590.157,8398.01Z" style="fill:rgb(243,111,49);"/>
                    </g>
                    <g transform="matrix(1.024,0,0,5.48571,17.7181,-19461.7)">
                        <path d="M399.696,3632.71L441.551,3618.69L417.339,3594.6L375.694,3608.44L399.696,3632.71Z" style="fill:none;stroke:rgb(243,193,5);stroke-width:1px;"/>
                    </g>
                    <g transform="matrix(1.024,0,0,5.48571,-8.88178e-14,-19254.9)">
                        <path d="M392.997,3570.73L392.997,3603.02L416.956,3626.98L416.999,3595L392.997,3570.73Z" style="fill:rgb(231,182,5);stroke:rgb(243,193,5);stroke-width:1px;"/>
                    </g>
                    <g transform="matrix(1.024,0,0,5.48571,-8.73115e-14,-19254.9)">
                        <path d="M458.903,3581.03L416.999,3595L416.956,3626.98L458.752,3613.05L458.903,3581.03Z" style="fill:rgb(250,208,55);stroke:rgb(243,193,5);stroke-width:1px;"/>
                    </g>
                    <g transform="matrix(1.024,0,0,5.48571,17.7181,-19461.7)">
                        <path d="M375.694,3608.44L399.696,3632.71L441.551,3618.69" style="fill:none;stroke:rgb(243,193,5);stroke-width:1px;"/>
                    </g>
                </g>
                <g transform="matrix(0.724529,0,0,0.434717,342.256,238.481)">
                    <g transform="matrix(1.024,0,0,5.48571,17.7181,-19461.7)">
                        <path d="M399.696,3632.71L441.551,3618.69L417.339,3594.6L375.694,3608.44L399.696,3632.71Z" style="fill:url(#_Linear20);stroke:rgb(243,193,5);stroke-width:1px;"/>
                    </g>
                    <g transform="matrix(1.024,0,0,5.48571,-8.73115e-14,-19254.9)">
                        <path d="M434.701,3557.64L434.701,3589" style="fill:none;stroke:rgb(157,123,4);stroke-width:1px;"/>
                    </g>
                    <g transform="matrix(1.024,0,0,5.48571,17.7181,-19461.7)">
                        <path d="M399.696,3632.71L441.551,3618.69L417.339,3594.6L375.694,3608.44L399.696,3632.71Z" style="fill:none;stroke:rgb(243,193,5);stroke-width:1px;"/>
                    </g>
                    <g transform="matrix(1.024,0,0,5.48571,-8.88178e-14,-19254.9)">
                        <path d="M392.997,3570.73L392.997,3603.02L416.956,3626.98L416.999,3595L392.997,3570.73Z" style="fill:rgb(231,182,5);stroke:rgb(243,193,5);stroke-width:1px;"/>
                    </g>
                    <g transform="matrix(1.024,0,0,5.48571,-8.73115e-14,-19254.9)">
                        <path d="M458.903,3581.03L416.999,3595L416.956,3626.98L458.752,3613.05L458.903,3581.03Z" style="fill:rgb(250,208,55);stroke:rgb(243,193,5);stroke-width:1px;"/>
                    </g>
                    <g transform="matrix(1.024,0,0,5.48571,17.7181,-19461.7)">
                        <path d="M375.694,3608.44L399.696,3632.71L441.551,3618.69" style="fill:none;stroke:rgb(243,193,5);stroke-width:1px;"/>
                    </g>
                </g>
            </g>
            <g transform="matrix(-1,0,0,1,1049.22,216.865)">
                <g transform="matrix(0.724529,0,0,0.434717,435.346,138.742)">
                    <g transform="matrix(1.024,0,0,5.48571,17.7181,-19461.7)">
                        <path d="M399.696,3632.71L441.551,3618.69L417.339,3594.6L375.694,3608.44L399.696,3632.71Z" style="fill:url(#_Linear21);stroke:rgb(243,193,5);stroke-width:1px;"/>
                    </g>
                    <g transform="matrix(1.024,0,0,5.48571,-8.73115e-14,-19254.9)">
                        <path d="M434.701,3557.64L434.701,3589" style="fill:none;stroke:rgb(157,123,4);stroke-width:1px;"/>
                    </g>
                    <g transform="matrix(1.024,0,0,5.48571,17.7181,-19461.7)">
                        <path d="M399.696,3632.71L441.551,3618.69L417.339,3594.6L375.694,3608.44L399.696,3632.71Z" style="fill:none;stroke:rgb(243,193,5);stroke-width:1px;"/>
                    </g>
                    <g transform="matrix(1.024,0,0,5.48571,-8.88178e-14,-19254.9)">
                        <path d="M392.997,3570.73L392.997,3603.02L416.956,3626.98L416.999,3595L392.997,3570.73Z" style="fill:rgb(231,182,5);stroke:rgb(243,193,5);stroke-width:1px;"/>
                    </g>
                    <g transform="matrix(1.024,0,0,5.48571,-8.73115e-14,-19254.9)">
                        <path d="M458.903,3581.03L416.999,3595L416.956,3626.98L458.752,3613.05L458.903,3581.03Z" style="fill:rgb(250,208,55);stroke:rgb(243,193,5);stroke-width:1px;"/>
                    </g>
                    <g transform="matrix(1.024,0,0,5.48571,17.7181,-19461.7)">
                        <path d="M375.694,3608.44L399.696,3632.71L441.551,3618.69" style="fill:none;stroke:rgb(243,193,5);stroke-width:1px;"/>
                    </g>
                </g>
                <g transform="matrix(0.724529,0,0,0.434717,404.336,171.966)">
                    <g transform="matrix(1.024,0,0,5.48571,17.7181,-19461.7)">
                        <path d="M399.696,3632.71L441.551,3618.69L417.339,3594.6L375.694,3608.44L399.696,3632.71Z" style="fill:url(#_Linear22);stroke:rgb(243,193,5);stroke-width:1px;"/>
                    </g>
                    <g transform="matrix(1.024,0,0,5.48571,-8.73115e-14,-19254.9)">
                        <path d="M434.701,3557.64L434.701,3589" style="fill:none;stroke:rgb(157,123,4);stroke-width:1px;"/>
                    </g>
                    <g transform="matrix(-1.36825,0,0,7.32989,1243,-61225.9)">
                        <circle cx="590.157" cy="8410.57" r="12.561" style="fill:url(#_Radial23);"/>
                        <path d="M590.157,8397.26C597.502,8397.26 603.466,8403.22 603.466,8410.57C603.466,8417.92 597.502,8423.88 590.157,8423.88C582.811,8423.88 576.847,8417.92 576.847,8410.57C576.847,8403.22 582.811,8397.26 590.157,8397.26ZM590.157,8398.01C583.224,8398.01 577.595,8403.64 577.595,8410.57C577.595,8417.5 583.224,8423.13 590.157,8423.13C597.089,8423.13 602.718,8417.5 602.718,8410.57C602.718,8403.64 597.089,8398.01 590.157,8398.01Z" style="fill:rgb(0,165,228);"/>
                    </g>
                    <g transform="matrix(1.024,0,0,5.48571,17.7181,-19461.7)">
                        <path d="M399.696,3632.71L441.551,3618.69L417.339,3594.6L375.694,3608.44L399.696,3632.71Z" style="fill:none;stroke:rgb(243,193,5);stroke-width:1px;"/>
                    </g>
                    <g transform="matrix(1.024,0,0,5.48571,-8.88178e-14,-19254.9)">
                        <path d="M392.997,3570.73L392.997,3603.02L416.956,3626.98L416.999,3595L392.997,3570.73Z" style="fill:rgb(231,182,5);stroke:rgb(243,193,5);stroke-width:1px;"/>
                    </g>
                    <g transform="matrix(1.024,0,0,5.48571,-8.73115e-14,-19254.9)">
                        <path d="M458.903,3581.03L416.999,3595L416.956,3626.98L458.752,3613.05L458.903,3581.03Z" style="fill:rgb(250,208,55);stroke:rgb(243,193,5);stroke-width:1px;"/>
                    </g>
                    <g transform="matrix(1.024,0,0,5.48571,17.7181,-19461.7)">
                        <path d="M375.694,3608.44L399.696,3632.71L441.551,3618.69" style="fill:none;stroke:rgb(243,193,5);stroke-width:1px;"/>
                    </g>
                </g>
                <g transform="matrix(0.724529,0,0,0.434717,373.316,205.203)">
                    <g transform="matrix(1.024,0,0,5.48571,17.7181,-19461.7)">
                        <path d="M399.696,3632.71L441.551,3618.69L417.339,3594.6L375.694,3608.44L399.696,3632.71Z" style="fill:url(#_Linear24);stroke:rgb(243,193,5);stroke-width:1px;"/>
                    </g>
                    <g transform="matrix(1.024,0,0,5.48571,-8.73115e-14,-19254.9)">
                        <path d="M434.701,3557.64L434.701,3589" style="fill:none;stroke:rgb(157,123,4);stroke-width:1px;"/>
                    </g>
                    <g transform="matrix(-1.36825,0,0,7.32989,1240.85,-61222.7)">
                        <circle cx="590.157" cy="8410.57" r="12.561" style="fill:url(#_Radial25);"/>
                        <path d="M590.157,8397.26C597.502,8397.26 603.466,8403.22 603.466,8410.57C603.466,8417.92 597.502,8423.88 590.157,8423.88C582.811,8423.88 576.847,8417.92 576.847,8410.57C576.847,8403.22 582.811,8397.26 590.157,8397.26ZM590.157,8398.01C583.224,8398.01 577.595,8403.64 577.595,8410.57C577.595,8417.5 583.224,8423.13 590.157,8423.13C597.089,8423.13 602.718,8417.5 602.718,8410.57C602.718,8403.64 597.089,8398.01 590.157,8398.01Z" style="fill:rgb(0,165,228);"/>
                    </g>
                    <g transform="matrix(1.024,0,0,5.48571,17.7181,-19461.7)">
                        <path d="M399.696,3632.71L441.551,3618.69L417.339,3594.6L375.694,3608.44L399.696,3632.71Z" style="fill:none;stroke:rgb(243,193,5);stroke-width:1px;"/>
                    </g>
                    <g transform="matrix(1.024,0,0,5.48571,-8.88178e-14,-19254.9)">
                        <path d="M392.997,3570.73L392.997,3603.02L416.956,3626.98L416.999,3595L392.997,3570.73Z" style="fill:rgb(231,182,5);stroke:rgb(243,193,5);stroke-width:1px;"/>
                    </g>
                    <g transform="matrix(1.024,0,0,5.48571,-8.73115e-14,-19254.9)">
                        <path d="M458.903,3581.03L416.999,3595L416.956,3626.98L458.752,3613.05L458.903,3581.03Z" style="fill:rgb(250,208,55);stroke:rgb(243,193,5);stroke-width:1px;"/>
                    </g>
                    <g transform="matrix(1.024,0,0,5.48571,17.7181,-19461.7)">
                        <path d="M375.694,3608.44L399.696,3632.71L441.551,3618.69" style="fill:none;stroke:rgb(243,193,5);stroke-width:1px;"/>
                    </g>
                </g>
                <g transform="matrix(0.724529,0,0,0.434717,342.256,238.481)">
                    <g transform="matrix(1.024,0,0,5.48571,17.7181,-19461.7)">
                        <path d="M399.696,3632.71L441.551,3618.69L417.339,3594.6L375.694,3608.44L399.696,3632.71Z" style="fill:url(#_Linear26);stroke:rgb(243,193,5);stroke-width:1px;"/>
                    </g>
                    <g transform="matrix(1.024,0,0,5.48571,-8.73115e-14,-19254.9)">
                        <path d="M434.701,3557.64L434.701,3589" style="fill:none;stroke:rgb(157,123,4);stroke-width:1px;"/>
                    </g>
                    <g transform="matrix(1.024,0,0,5.48571,17.7181,-19461.7)">
                        <path d="M399.696,3632.71L441.551,3618.69L417.339,3594.6L375.694,3608.44L399.696,3632.71Z" style="fill:none;stroke:rgb(243,193,5);stroke-width:1px;"/>
                    </g>
                    <g transform="matrix(1.024,0,0,5.48571,-8.88178e-14,-19254.9)">
                        <path d="M392.997,3570.73L392.997,3603.02L416.956,3626.98L416.999,3595L392.997,3570.73Z" style="fill:rgb(231,182,5);stroke:rgb(243,193,5);stroke-width:1px;"/>
                    </g>
                    <g transform="matrix(1.024,0,0,5.48571,-8.73115e-14,-19254.9)">
                        <path d="M458.903,3581.03L416.999,3595L416.956,3626.98L458.752,3613.05L458.903,3581.03Z" style="fill:rgb(250,208,55);stroke:rgb(243,193,5);stroke-width:1px;"/>
                    </g>
                    <g transform="matrix(1.024,0,0,5.48571,17.7181,-19461.7)">
                        <path d="M375.694,3608.44L399.696,3632.71L441.551,3618.69" style="fill:none;stroke:rgb(243,193,5);stroke-width:1px;"/>
                    </g>
                </g>
            </g>
            <g transform="matrix(1,0,0,1,-25.219,216.865)">
                <g transform="matrix(0.724529,0,0,0.434717,435.346,138.742)">
                    <g transform="matrix(1.024,0,0,5.48571,17.7181,-19461.7)">
                        <path d="M399.696,3632.71L441.551,3618.69L417.339,3594.6L375.694,3608.44L399.696,3632.71Z" style="fill:url(#_Linear27);stroke:rgb(243,193,5);stroke-width:1px;"/>
                    </g>
                    <g transform="matrix(1.024,0,0,5.48571,-8.73115e-14,-19254.9)">
                        <path d="M434.701,3557.64L434.701,3589" style="fill:none;stroke:rgb(157,123,4);stroke-width:1px;"/>
                    </g>
                    <g transform="matrix(1.36825,0,0,7.32989,-371.332,-61210.4)">
                        <circle cx="590.157" cy="8410.57" r="12.561" style="fill:url(#_Radial28);"/>
                        <path d="M590.157,8397.26C597.502,8397.26 603.466,8403.22 603.466,8410.57C603.466,8417.92 597.502,8423.88 590.157,8423.88C582.811,8423.88 576.847,8417.92 576.847,8410.57C576.847,8403.22 582.811,8397.26 590.157,8397.26ZM590.157,8398.01C583.224,8398.01 577.595,8403.64 577.595,8410.57C577.595,8417.5 583.224,8423.13 590.157,8423.13C597.089,8423.13 602.718,8417.5 602.718,8410.57C602.718,8403.64 597.089,8398.01 590.157,8398.01Z" style="fill:rgb(225,2,113);"/>
                    </g>
                    <g transform="matrix(1.024,0,0,5.48571,17.7181,-19461.7)">
                        <path d="M399.696,3632.71L441.551,3618.69L417.339,3594.6L375.694,3608.44L399.696,3632.71Z" style="fill:none;stroke:rgb(243,193,5);stroke-width:1px;"/>
                    </g>
                    <g transform="matrix(1.024,0,0,5.48571,-8.88178e-14,-19254.9)">
                        <path d="M392.997,3570.73L392.997,3603.02L416.956,3626.98L416.999,3595L392.997,3570.73Z" style="fill:rgb(231,182,5);stroke:rgb(243,193,5);stroke-width:1px;"/>
                    </g>
                    <g transform="matrix(1.024,0,0,5.48571,-8.73115e-14,-19254.9)">
                        <path d="M458.903,3581.03L416.999,3595L416.956,3626.98L458.752,3613.05L458.903,3581.03Z" style="fill:rgb(250,208,55);stroke:rgb(243,193,5);stroke-width:1px;"/>
                    </g>
                    <g transform="matrix(1.024,0,0,5.48571,17.7181,-19461.7)">
                        <path d="M375.694,3608.44L399.696,3632.71L441.551,3618.69" style="fill:none;stroke:rgb(243,193,5);stroke-width:1px;"/>
                    </g>
                </g>
                <g transform="matrix(0.724529,0,0,0.434717,404.336,171.966)">
                    <g transform="matrix(1.024,0,0,5.48571,17.7181,-19461.7)">
                        <path d="M399.696,3632.71L441.551,3618.69L417.339,3594.6L375.694,3608.44L399.696,3632.71Z" style="fill:url(#_Linear29);stroke:rgb(243,193,5);stroke-width:1px;"/>
                    </g>
                    <g transform="matrix(1.024,0,0,5.48571,-8.73115e-14,-19254.9)">
                        <path d="M434.701,3557.64L434.701,3589" style="fill:none;stroke:rgb(157,123,4);stroke-width:1px;"/>
                    </g>
                    <g transform="matrix(1.36825,0,0,7.32989,-371.332,-61222.8)">
                        <circle cx="590.157" cy="8410.57" r="12.561" style="fill:url(#_Radial30);"/>
                        <path d="M590.157,8397.26C597.502,8397.26 603.466,8403.22 603.466,8410.57C603.466,8417.92 597.502,8423.88 590.157,8423.88C582.811,8423.88 576.847,8417.92 576.847,8410.57C576.847,8403.22 582.811,8397.26 590.157,8397.26ZM590.157,8398.01C583.224,8398.01 577.595,8403.64 577.595,8410.57C577.595,8417.5 583.224,8423.13 590.157,8423.13C597.089,8423.13 602.718,8417.5 602.718,8410.57C602.718,8403.64 597.089,8398.01 590.157,8398.01Z" style="fill:rgb(225,2,113);"/>
                    </g>
                    <g transform="matrix(1.024,0,0,5.48571,17.7181,-19461.7)">
                        <path d="M399.696,3632.71L441.551,3618.69L417.339,3594.6L375.694,3608.44L399.696,3632.71Z" style="fill:none;stroke:rgb(243,193,5);stroke-width:1px;"/>
                    </g>
                    <g transform="matrix(1.024,0,0,5.48571,-8.88178e-14,-19254.9)">
                        <path d="M392.997,3570.73L392.997,3603.02L416.956,3626.98L416.999,3595L392.997,3570.73Z" style="fill:rgb(231,182,5);stroke:rgb(243,193,5);stroke-width:1px;"/>
                    </g>
                    <g transform="matrix(1.024,0,0,5.48571,-8.73115e-14,-19254.9)">
                        <path d="M458.903,3581.03L416.999,3595L416.956,3626.98L458.752,3613.05L458.903,3581.03Z" style="fill:rgb(250,208,55);stroke:rgb(243,193,5);stroke-width:1px;"/>
                    </g>
                    <g transform="matrix(1.024,0,0,5.48571,17.7181,-19461.7)">
                        <path d="M375.694,3608.44L399.696,3632.71L441.551,3618.69" style="fill:none;stroke:rgb(243,193,5);stroke-width:1px;"/>
                    </g>
                </g>
                <g transform="matrix(0.724529,0,0,0.434717,373.316,205.203)">
                    <g transform="matrix(1.024,0,0,5.48571,17.7181,-19461.7)">
                        <path d="M399.696,3632.71L441.551,3618.69L417.339,3594.6L375.694,3608.44L399.696,3632.71Z" style="fill:url(#_Linear31);stroke:rgb(243,193,5);stroke-width:1px;"/>
                    </g>
                    <g transform="matrix(1.024,0,0,5.48571,-8.73115e-14,-19254.9)">
                        <path d="M434.701,3557.64L434.701,3589" style="fill:none;stroke:rgb(157,123,4);stroke-width:1px;"/>
                    </g>
                    <g transform="matrix(1.36825,0,0,7.32989,-373.688,-61236.5)">
                        <circle cx="590.157" cy="8410.57" r="12.561" style="fill:url(#_Radial32);"/>
                        <path d="M590.157,8397.26C597.502,8397.26 603.466,8403.22 603.466,8410.57C603.466,8417.92 597.502,8423.88 590.157,8423.88C582.811,8423.88 576.847,8417.92 576.847,8410.57C576.847,8403.22 582.811,8397.26 590.157,8397.26ZM590.157,8398.01C583.224,8398.01 577.595,8403.64 577.595,8410.57C577.595,8417.5 583.224,8423.13 590.157,8423.13C597.089,8423.13 602.718,8417.5 602.718,8410.57C602.718,8403.64 597.089,8398.01 590.157,8398.01Z" style="fill:rgb(225,2,113);"/>
                    </g>
                    <g transform="matrix(1.024,0,0,5.48571,17.7181,-19461.7)">
                        <path d="M399.696,3632.71L441.551,3618.69L417.339,3594.6L375.694,3608.44L399.696,3632.71Z" style="fill:none;stroke:rgb(243,193,5);stroke-width:1px;"/>
                    </g>
                    <g transform="matrix(1.024,0,0,5.48571,-8.88178e-14,-19254.9)">
                        <path d="M392.997,3570.73L392.997,3603.02L416.956,3626.98L416.999,3595L392.997,3570.73Z" style="fill:rgb(231,182,5);stroke:rgb(243,193,5);stroke-width:1px;"/>
                    </g>
                    <g transform="matrix(1.024,0,0,5.48571,-8.73115e-14,-19254.9)">
                        <path d="M458.903,3581.03L416.999,3595L416.956,3626.98L458.752,3613.05L458.903,3581.03Z" style="fill:rgb(250,208,55);stroke:rgb(243,193,5);stroke-width:1px;"/>
                    </g>
                    <g transform="matrix(1.024,0,0,5.48571,17.7181,-19461.7)">
                        <path d="M375.694,3608.44L399.696,3632.71L441.551,3618.69" style="fill:none;stroke:rgb(243,193,5);stroke-width:1px;"/>
                    </g>
                </g>
                <g transform="matrix(0.724529,0,0,0.434717,342.256,238.481)">
                    <g transform="matrix(1.024,0,0,5.48571,17.7181,-19461.7)">
                        <path d="M399.696,3632.71L441.551,3618.69L417.339,3594.6L375.694,3608.44L399.696,3632.71Z" style="fill:url(#_Linear33);stroke:rgb(243,193,5);stroke-width:1px;"/>
                    </g>
                    <g transform="matrix(1.024,0,0,5.48571,-8.73115e-14,-19254.9)">
                        <path d="M434.701,3557.64L434.701,3589" style="fill:none;stroke:rgb(157,123,4);stroke-width:1px;"/>
                    </g>
                    <g transform="matrix(1.024,0,0,5.48571,17.7181,-19461.7)">
                        <path d="M399.696,3632.71L441.551,3618.69L417.339,3594.6L375.694,3608.44L399.696,3632.71Z" style="fill:none;stroke:rgb(243,193,5);stroke-width:1px;"/>
                    </g>
                    <g transform="matrix(1.024,0,0,5.48571,-8.88178e-14,-19254.9)">
                        <path d="M392.997,3570.73L392.997,3603.02L416.956,3626.98L416.999,3595L392.997,3570.73Z" style="fill:rgb(231,182,5);stroke:rgb(243,193,5);stroke-width:1px;"/>
                    </g>
                    <g transform="matrix(1.024,0,0,5.48571,-8.73115e-14,-19254.9)">
                        <path d="M458.903,3581.03L416.999,3595L416.956,3626.98L458.752,3613.05L458.903,3581.03Z" style="fill:rgb(250,208,55);stroke:rgb(243,193,5);stroke-width:1px;"/>
                    </g>
                    <g transform="matrix(1.024,0,0,5.48571,17.7181,-19461.7)">
                        <path d="M375.694,3608.44L399.696,3632.71L441.551,3618.69" style="fill:none;stroke:rgb(243,193,5);stroke-width:1px;"/>
                    </g>
                </g>
            </g>
            <g transform="matrix(0.991334,0,0,3.18643,16.4075,-26224.7)">
                <circle cx="590.157" cy="8410.57" r="12.561" style="fill:url(#_Radial34);"/>
                <path d="M590.157,8397.26C597.502,8397.26 603.466,8403.22 603.466,8410.57C603.466,8417.92 597.502,8423.88 590.157,8423.88C582.811,8423.88 576.847,8417.92 576.847,8410.57C576.847,8403.22 582.811,8397.26 590.157,8397.26ZM590.157,8398.01C583.224,8398.01 577.595,8403.64 577.595,8410.57C577.595,8417.5 583.224,8423.13 590.157,8423.13C597.089,8423.13 602.718,8417.5 602.718,8410.57C602.718,8403.64 597.089,8398.01 590.157,8398.01Z" style="fill:rgb(225,2,113);"/>
            </g>
            <g transform="matrix(0.991334,0,0,3.18643,19.5121,-26572.5)">
                <circle cx="590.157" cy="8410.57" r="12.561" style="fill:url(#_Radial35);"/>
                <path d="M590.157,8397.26C597.502,8397.26 603.466,8403.22 603.466,8410.57C603.466,8417.92 597.502,8423.88 590.157,8423.88C582.811,8423.88 576.847,8417.92 576.847,8410.57C576.847,8403.22 582.811,8397.26 590.157,8397.26ZM590.157,8398.01C583.224,8398.01 577.595,8403.64 577.595,8410.57C577.595,8417.5 583.224,8423.13 590.157,8423.13C597.089,8423.13 602.718,8417.5 602.718,8410.57C602.718,8403.64 597.089,8398.01 590.157,8398.01Z" style="fill:rgb(0,167,109);"/>
            </g>
            <g transform="matrix(0.991334,0,0,3.18643,-198.051,-26332.3)">
                <circle cx="590.157" cy="8410.57" r="12.561" style="fill:url(#_Radial36);"/>
                <path d="M590.157,8397.26C597.502,8397.26 603.466,8403.22 603.466,8410.57C603.466,8417.92 597.502,8423.88 590.157,8423.88C582.811,8423.88 576.847,8417.92 576.847,8410.57C576.847,8403.22 582.811,8397.26 590.157,8397.26ZM590.157,8398.01C583.224,8398.01 577.595,8403.64 577.595,8410.57C577.595,8417.5 583.224,8423.13 590.157,8423.13C597.089,8423.13 602.718,8417.5 602.718,8410.57C602.718,8403.64 597.089,8398.01 590.157,8398.01Z" style="fill:rgb(243,111,49);"/>
            </g>
            <g transform="matrix(0.991334,0,0,3.18643,-162.909,-26223)">
                <circle cx="590.157" cy="8410.57" r="12.561" style="fill:url(#_Radial37);"/>
                <path d="M590.157,8397.26C597.502,8397.26 603.466,8403.22 603.466,8410.57C603.466,8417.92 597.502,8423.88 590.157,8423.88C582.811,8423.88 576.847,8417.92 576.847,8410.57C576.847,8403.22 582.811,8397.26 590.157,8397.26ZM590.157,8398.01C583.224,8398.01 577.595,8403.64 577.595,8410.57C577.595,8417.5 583.224,8423.13 590.157,8423.13C597.089,8423.13 602.718,8417.5 602.718,8410.57C602.718,8403.64 597.089,8398.01 590.157,8398.01Z" style="fill:rgb(0,165,228);"/>
            </g>
        </g>
    </g>
    <defs>
        <linearGradient id="_Linear1" x1="0" y1="0" x2="1" y2="0" gradientUnits="userSpaceOnUse" gradientTransform="matrix(496.12,-1.90982,2.4425,634.496,160.703,400.52)"><stop offset="0" style="stop-color:rgb(15,123,193);stop-opacity:1"/><stop offset="1" style="stop-color:rgb(91,203,245);stop-opacity:1"/></linearGradient>
        <linearGradient id="_Linear2" x1="0" y1="0" x2="1" y2="0" gradientUnits="userSpaceOnUse" gradientTransform="matrix(65.8569,0,0,38.116,375.694,3613.65)"><stop offset="0" style="stop-color:rgb(255,232,63);stop-opacity:1"/><stop offset="1" style="stop-color:rgb(134,80,21);stop-opacity:1"/></linearGradient>
        <linearGradient id="_Linear3" x1="0" y1="0" x2="1" y2="0" gradientUnits="userSpaceOnUse" gradientTransform="matrix(65.8569,0,0,38.116,375.694,3613.65)"><stop offset="0" style="stop-color:rgb(255,232,63);stop-opacity:1"/><stop offset="1" style="stop-color:rgb(134,80,21);stop-opacity:1"/></linearGradient>
        <radialGradient id="_Radial4" cx="0" cy="0" r="1" gradientUnits="userSpaceOnUse" gradientTransform="matrix(7.86315,11.1493,-11.1493,7.86315,590.157,8407.21)"><stop offset="0" style="stop-color:rgb(163,207,98);stop-opacity:1"/><stop offset="1" style="stop-color:rgb(0,174,156);stop-opacity:1"/></radialGradient>
        <linearGradient id="_Linear5" x1="0" y1="0" x2="1" y2="0" gradientUnits="userSpaceOnUse" gradientTransform="matrix(65.8569,0,0,38.116,375.694,3613.65)"><stop offset="0" style="stop-color:rgb(255,232,63);stop-opacity:1"/><stop offset="1" style="stop-color:rgb(134,80,21);stop-opacity:1"/></linearGradient>
        <radialGradient id="_Radial6" cx="0" cy="0" r="1" gradientUnits="userSpaceOnUse" gradientTransform="matrix(7.86315,11.1493,-11.1493,7.86315,590.157,8407.21)"><stop offset="0" style="stop-color:rgb(163,207,98);stop-opacity:1"/><stop offset="1" style="stop-color:rgb(0,174,156);stop-opacity:1"/></radialGradient>
        <linearGradient id="_Linear7" x1="0" y1="0" x2="1" y2="0" gradientUnits="userSpaceOnUse" gradientTransform="matrix(65.8569,0,0,38.116,375.694,3613.65)"><stop offset="0" style="stop-color:rgb(255,232,63);stop-opacity:1"/><stop offset="1" style="stop-color:rgb(134,80,21);stop-opacity:1"/></linearGradient>
        <linearGradient id="_Linear8" x1="0" y1="0" x2="1" y2="0" gradientUnits="userSpaceOnUse" gradientTransform="matrix(65.8569,0,0,38.116,375.694,3613.65)"><stop offset="0" style="stop-color:rgb(255,232,63);stop-opacity:1"/><stop offset="1" style="stop-color:rgb(134,80,21);stop-opacity:1"/></linearGradient>
        <linearGradient id="_Linear9" x1="0" y1="0" x2="1" y2="0" gradientUnits="userSpaceOnUse" gradientTransform="matrix(65.8569,0,0,38.116,375.694,3613.65)"><stop offset="0" style="stop-color:rgb(255,232,63);stop-opacity:1"/><stop offset="1" style="stop-color:rgb(134,80,21);stop-opacity:1"/></linearGradient>
        <linearGradient id="_Linear10" x1="0" y1="0" x2="1" y2="0" gradientUnits="userSpaceOnUse" gradientTransform="matrix(65.8569,0,0,38.116,375.694,3613.65)"><stop offset="0" style="stop-color:rgb(255,232,63);stop-opacity:1"/><stop offset="1" style="stop-color:rgb(134,80,21);stop-opacity:1"/></linearGradient>
        <linearGradient id="_Linear11" x1="0" y1="0" x2="1" y2="0" gradientUnits="userSpaceOnUse" gradientTransform="matrix(65.8569,0,0,38.116,375.694,3613.65)"><stop offset="0" style="stop-color:rgb(255,232,63);stop-opacity:1"/><stop offset="1" style="stop-color:rgb(134,80,21);stop-opacity:1"/></linearGradient>
        <linearGradient id="_Linear12" x1="0" y1="0" x2="1" y2="0" gradientUnits="userSpaceOnUse" gradientTransform="matrix(65.8569,0,0,38.116,375.694,3613.65)"><stop offset="0" style="stop-color:rgb(255,232,63);stop-opacity:1"/><stop offset="1" style="stop-color:rgb(134,80,21);stop-opacity:1"/></linearGradient>
        <linearGradient id="_Linear13" x1="0" y1="0" x2="1" y2="0" gradientUnits="userSpaceOnUse" gradientTransform="matrix(65.8569,0,0,38.116,375.694,3613.65)"><stop offset="0" style="stop-color:rgb(255,232,63);stop-opacity:1"/><stop offset="1" style="stop-color:rgb(134,80,21);stop-opacity:1"/></linearGradient>
        <linearGradient id="_Linear14" x1="0" y1="0" x2="1" y2="0" gradientUnits="userSpaceOnUse" gradientTransform="matrix(65.8569,0,0,38.116,375.694,3613.65)"><stop offset="0" style="stop-color:rgb(255,232,63);stop-opacity:1"/><stop offset="1" style="stop-color:rgb(134,80,21);stop-opacity:1"/></linearGradient>
        <linearGradient id="_Linear15" x1="0" y1="0" x2="1" y2="0" gradientUnits="userSpaceOnUse" gradientTransform="matrix(65.8569,0,0,38.116,375.694,3613.65)"><stop offset="0" style="stop-color:rgb(255,232,63);stop-opacity:1"/><stop offset="1" style="stop-color:rgb(134,80,21);stop-opacity:1"/></linearGradient>
        <linearGradient id="_Linear16" x1="0" y1="0" x2="1" y2="0" gradientUnits="userSpaceOnUse" gradientTransform="matrix(65.8569,0,0,38.116,375.694,3613.65)"><stop offset="0" style="stop-color:rgb(255,232,63);stop-opacity:1"/><stop offset="1" style="stop-color:rgb(134,80,21);stop-opacity:1"/></linearGradient>
        <linearGradient id="_Linear17" x1="0" y1="0" x2="1" y2="0" gradientUnits="userSpaceOnUse" gradientTransform="matrix(65.8569,0,0,38.116,375.694,3613.65)"><stop offset="0" style="stop-color:rgb(255,232,63);stop-opacity:1"/><stop offset="1" style="stop-color:rgb(134,80,21);stop-opacity:1"/></linearGradient>
        <linearGradient id="_Linear18" x1="0" y1="0" x2="1" y2="0" gradientUnits="userSpaceOnUse" gradientTransform="matrix(65.8569,0,0,38.116,375.694,3613.65)"><stop offset="0" style="stop-color:rgb(255,232,63);stop-opacity:1"/><stop offset="1" style="stop-color:rgb(134,80,21);stop-opacity:1"/></linearGradient>
        <radialGradient id="_Radial19" cx="0" cy="0" r="1" gradientUnits="userSpaceOnUse" gradientTransform="matrix(7.86315,11.1493,-11.1493,7.86315,590.157,8407.21)"><stop offset="0" style="stop-color:rgb(250,166,63);stop-opacity:1"/><stop offset="1" style="stop-color:rgb(201,23,84);stop-opacity:1"/></radialGradient>
        <linearGradient id="_Linear20" x1="0" y1="0" x2="1" y2="0" gradientUnits="userSpaceOnUse" gradientTransform="matrix(65.8569,0,0,38.116,375.694,3613.65)"><stop offset="0" style="stop-color:rgb(255,232,63);stop-opacity:1"/><stop offset="1" style="stop-color:rgb(134,80,21);stop-opacity:1"/></linearGradient>
        <linearGradient id="_Linear21" x1="0" y1="0" x2="1" y2="0" gradientUnits="userSpaceOnUse" gradientTransform="matrix(65.8569,0,0,38.116,375.694,3613.65)"><stop offset="0" style="stop-color:rgb(255,232,63);stop-opacity:1"/><stop offset="1" style="stop-color:rgb(134,80,21);stop-opacity:1"/></linearGradient>
        <linearGradient id="_Linear22" x1="0" y1="0" x2="1" y2="0" gradientUnits="userSpaceOnUse" gradientTransform="matrix(65.8569,0,0,38.116,375.694,3613.65)"><stop offset="0" style="stop-color:rgb(255,232,63);stop-opacity:1"/><stop offset="1" style="stop-color:rgb(134,80,21);stop-opacity:1"/></linearGradient>
        <radialGradient id="_Radial23" cx="0" cy="0" r="1" gradientUnits="userSpaceOnUse" gradientTransform="matrix(7.86315,11.1493,-11.1493,7.86315,590.157,8407.21)"><stop offset="0" style="stop-color:rgb(99,194,156);stop-opacity:1"/><stop offset="1" style="stop-color:rgb(0,172,205);stop-opacity:1"/></radialGradient>
        <linearGradient id="_Linear24" x1="0" y1="0" x2="1" y2="0" gradientUnits="userSpaceOnUse" gradientTransform="matrix(65.8569,0,0,38.116,375.694,3613.65)"><stop offset="0" style="stop-color:rgb(255,232,63);stop-opacity:1"/><stop offset="1" style="stop-color:rgb(134,80,21);stop-opacity:1"/></linearGradient>
        <radialGradient id="_Radial25" cx="0" cy="0" r="1" gradientUnits="userSpaceOnUse" gradientTransform="matrix(7.86315,11.1493,-11.1493,7.86315,590.157,8407.21)"><stop offset="0" style="stop-color:rgb(99,194,156);stop-opacity:1"/><stop offset="1" style="stop-color:rgb(0,172,205);stop-opacity:1"/></radialGradient>
        <linearGradient id="_Linear26" x1="0" y1="0" x2="1" y2="0" gradientUnits="userSpaceOnUse" gradientTransform="matrix(65.8569,0,0,38.116,375.694,3613.65)"><stop offset="0" style="stop-color:rgb(255,232,63);stop-opacity:1"/><stop offset="1" style="stop-color:rgb(134,80,21);stop-opacity:1"/></linearGradient>
        <linearGradient id="_Linear27" x1="0" y1="0" x2="1" y2="0" gradientUnits="userSpaceOnUse" gradientTransform="matrix(65.8569,0,0,38.116,375.694,3613.65)"><stop offset="0" style="stop-color:rgb(255,232,63);stop-opacity:1"/><stop offset="1" style="stop-color:rgb(134,80,21);stop-opacity:1"/></linearGradient>
        <radialGradient id="_Radial28" cx="0" cy="0" r="1" gradientUnits="userSpaceOnUse" gradientTransform="matrix(7.86315,11.1493,-11.1493,7.86315,590.157,8407.21)"><stop offset="0" style="stop-color:rgb(241,91,102);stop-opacity:1"/><stop offset="1" style="stop-color:rgb(140,45,97);stop-opacity:1"/></radialGradient>
        <linearGradient id="_Linear29" x1="0" y1="0" x2="1" y2="0" gradientUnits="userSpaceOnUse" gradientTransform="matrix(65.8569,0,0,38.116,375.694,3613.65)"><stop offset="0" style="stop-color:rgb(255,232,63);stop-opacity:1"/><stop offset="1" style="stop-color:rgb(134,80,21);stop-opacity:1"/></linearGradient>
        <radialGradient id="_Radial30" cx="0" cy="0" r="1" gradientUnits="userSpaceOnUse" gradientTransform="matrix(7.86315,11.1493,-11.1493,7.86315,590.157,8407.21)"><stop offset="0" style="stop-color:rgb(241,91,102);stop-opacity:1"/><stop offset="1" style="stop-color:rgb(140,45,97);stop-opacity:1"/></radialGradient>
        <linearGradient id="_Linear31" x1="0" y1="0" x2="1" y2="0" gradientUnits="userSpaceOnUse" gradientTransform="matrix(65.8569,0,0,38.116,375.694,3613.65)"><stop offset="0" style="stop-color:rgb(255,232,63);stop-opacity:1"/><stop offset="1" style="stop-color:rgb(134,80,21);stop-opacity:1"/></linearGradient>
        <radialGradient id="_Radial32" cx="0" cy="0" r="1" gradientUnits="userSpaceOnUse" gradientTransform="matrix(7.86315,11.1493,-11.1493,7.86315,590.157,8407.21)"><stop offset="0" style="stop-color:rgb(241,91,102);stop-opacity:1"/><stop offset="1" style="stop-color:rgb(140,45,97);stop-opacity:1"/></radialGradient>
        <linearGradient id="_Linear33" x1="0" y1="0" x2="1" y2="0" gradientUnits="userSpaceOnUse" gradientTransform="matrix(65.8569,0,0,38.116,375.694,3613.65)"><stop offset="0" style="stop-color:rgb(255,232,63);stop-opacity:1"/><stop offset="1" style="stop-color:rgb(134,80,21);stop-opacity:1"/></linearGradient>
        <radialGradient id="_Radial34" cx="0" cy="0" r="1" gradientUnits="userSpaceOnUse" gradientTransform="matrix(7.86315,11.1493,-11.1493,7.86315,590.157,8407.21)"><stop offset="0" style="stop-color:rgb(241,91,102);stop-opacity:1"/><stop offset="1" style="stop-color:rgb(140,45,97);stop-opacity:1"/></radialGradient>
        <radialGradient id="_Radial35" cx="0" cy="0" r="1" gradientUnits="userSpaceOnUse" gradientTransform="matrix(7.86315,11.1493,-11.1493,7.86315,590.157,8407.21)"><stop offset="0" style="stop-color:rgb(163,207,98);stop-opacity:1"/><stop offset="1" style="stop-color:rgb(0,174,156);stop-opacity:1"/></radialGradient>
        <radialGradient id="_Radial36" cx="0" cy="0" r="1" gradientUnits="userSpaceOnUse" gradientTransform="matrix(7.86315,11.1493,-11.1493,7.86315,590.157,8407.21)"><stop offset="0" style="stop-color:rgb(250,166,63);stop-opacity:1"/><stop offset="1" style="stop-color:rgb(201,23,84);stop-opacity:1"/></radialGradient>
        <radialGradient id="_Radial37" cx="0" cy="0" r="1" gradientUnits="userSpaceOnUse" gradientTransform="matrix(7.86315,11.1493,-11.1493,7.86315,590.157,8407.21)"><stop offset="0" style="stop-color:rgb(99,194,156);stop-opacity:1"/><stop offset="1" style="stop-color:rgb(0,172,205);stop-opacity:1"/></radialGradient>
    </defs>
</svg>
