<?xml version="1.0" encoding="UTF-8" standalone="no"?>
<!DOCTYPE svg PUBLIC "-//W3C//DTD SVG 1.1//EN" "http://www.w3.org/Graphics/SVG/1.1/DTD/svg11.dtd">
<svg width="100%" height="100%" viewBox="0 0 1000 140" version="1.1" xmlns="http://www.w3.org/2000/svg" xmlns:xlink="http://www.w3.org/1999/xlink" xml:space="preserve" xmlns:serif="http://www.serif.com/" style="fill-rule:evenodd;clip-rule:evenodd;stroke-linecap:round;stroke-linejoin:round;stroke-miterlimit:1.5;">
    <g transform="matrix(1,0,0,1,0,-620)">
        <g id="Simplicity" transform="matrix(0.976563,0,0,0.182292,0,620)">
            <rect x="0" y="0" width="1024" height="768" style="fill:none;"/>
            <g transform="matrix(0.08629,0,0,0.462268,362.871,-934.09)">
                <g transform="matrix(1.0699,0,0,1.0699,-51.5192,-263.109)">
                    <path d="M629.922,3281.74C645.735,3254.15 653.526,3222.53 652.18,3190.48C651.465,3174.24 656.301,3155.99 671.74,3133.35L671.74,3133.17L823.471,3133.17L823.471,3133.35C838.91,3155.99 843.746,3174.24 843.03,3190.48C841.685,3222.53 849.476,3254.15 865.289,3281.74C890.651,3309.85 906.1,3347.07 906.1,3387.86C906.1,3475.34 835.081,3546.36 747.605,3546.36C660.13,3546.36 589.111,3475.34 589.111,3387.86C589.111,3347.07 604.56,3309.85 629.922,3281.74Z" style="fill:url(#_Linear1);"/>
                </g>
                <g transform="matrix(1,0,0,1,-1.59897,-7.12459)">
                    <path d="M670.499,3296.72C670.559,3296.54 670.734,3296.21 670.734,3296.21L720.283,3210.89L721.626,3096.32L730.625,3096.43L729.268,3212.23C729.259,3213.04 729.033,3213.83 728.613,3214.52L678.295,3297.25C682.906,3299.82 687.882,3303.81 689.611,3307.26C689.989,3308.02 690.127,3308.92 690.003,3309.92C689.898,3310.77 689.572,3311.75 689.21,3312.76C689.017,3313.29 688.814,3313.83 688.68,3314.35C688.638,3314.52 688.606,3314.77 688.588,3314.93C691.222,3316.18 695.97,3315.93 699.919,3316.19C701.864,3316.32 703.651,3316.54 705.051,3316.97C706.335,3317.36 707.353,3317.93 708.067,3318.65C710.542,3321.12 711.799,3323.92 713.088,3326.86C714.147,3329.27 715.24,3331.79 717.525,3334.18C718.585,3335.29 719.896,3335.67 721.304,3335.71C723.134,3335.76 725.105,3335.28 727.067,3334.74C729.844,3333.96 732.602,3333.03 735.006,3332.72C737.085,3332.45 738.953,3332.63 740.504,3333.41C742.646,3334.48 744.17,3336.37 745.509,3338.27C746.353,3339.46 747.015,3340.71 748.054,3341.23C753.208,3343.81 756.612,3341.04 759.877,3338.35C762.865,3335.9 765.799,3333.44 769.145,3332.75C772.929,3331.97 775.901,3334.21 778.59,3336.73C779.34,3337.43 780.069,3338.13 780.826,3338.67C781.378,3339.06 781.922,3339.4 782.566,3339.28C782.761,3339.01 783.774,3337.62 784.356,3336.53C786.097,3333.28 788.011,3329.22 789.78,3327.76C793.6,3324.61 796.636,3323.44 799.031,3322.7C800.614,3322.22 801.858,3322.14 802.742,3321.31C803.318,3320.76 803.632,3319.87 803.94,3318.41C804.374,3316.34 804.629,3313.38 804.775,3309.09C804.89,3305.68 806.737,3303.75 809.563,3302.62C811.607,3301.81 814.293,3301.5 816.977,3301.2C818.764,3301 820.549,3300.8 822.043,3300.32C822.838,3300.07 823.166,3299.66 823.166,3299.66L771.268,3214.33C770.849,3213.64 770.623,3212.85 770.613,3212.04L769.256,3096.24L778.256,3096.13L779.598,3210.7L829.057,3296.08C829.057,3296.08 829.511,3296.98 829.511,3297.51C829.511,3301.17 827.727,3303.25 825.029,3304.51C822.988,3305.47 820.273,3305.86 817.536,3306.17C815.324,3306.42 813.095,3306.6 811.41,3307.27C810.505,3307.63 809.809,3308.17 809.772,3309.26C809.579,3314.95 809.161,3318.51 808.494,3320.81C807.912,3322.82 807.107,3324.06 806.166,3324.95C805.167,3325.89 803.975,3326.43 802.49,3326.89C800.286,3327.57 797.2,3328.12 792.964,3331.62C792.395,3332.09 791.872,3332.99 791.301,3334.02C790.161,3336.06 789.024,3338.56 787.92,3340.4C786.737,3342.37 785.371,3343.64 784.248,3344C781.356,3344.92 778.852,3343.67 776.476,3341.58C775.303,3340.54 774.149,3339.3 772.862,3338.41C772.057,3337.86 771.197,3337.43 770.157,3337.65C768.646,3337.96 767.295,3338.85 765.948,3339.87C764.281,3341.13 762.649,3342.62 760.922,3343.89C756.775,3346.95 752.155,3348.87 745.818,3345.7C744.403,3344.99 743.215,3343.66 742.089,3342.09C741.015,3340.59 740.022,3338.76 738.268,3337.88C737.279,3337.39 736.025,3337.57 734.639,3337.85C732.695,3338.23 730.562,3338.95 728.412,3339.55C723.056,3341.05 717.673,3341.57 713.91,3337.64C711.162,3334.76 709.783,3331.77 708.51,3328.87C707.468,3326.5 706.532,3324.18 704.531,3322.18C704.226,3321.88 703.705,3321.76 703.108,3321.62C702.093,3321.39 700.883,3321.27 699.588,3321.18C694.917,3320.87 689.326,3320.89 686.265,3319.36C685.128,3318.79 684.448,3318.01 684.038,3317.16C683.512,3316.07 683.453,3314.77 683.774,3313.37C684.016,3312.32 684.492,3311.18 684.829,3310.14C684.914,3309.88 684.998,3309.47 685.032,3309.3C682.995,3305.55 676.277,3301.28 672.08,3299.88C670.771,3299.45 670.062,3298.03 670.499,3296.72Z" style="fill:rgb(65,65,65);"/>
                </g>
                <g transform="matrix(1,0,0,0.78783,-8.00531,806.577)">
                    <path d="M763.109,2820.56C761.626,2797.22 751.324,2753.67 762.218,2731.53C769.198,2717.34 830.415,2708.16 846.011,2703.45C893.895,2688.96 927.372,2644.86 935.876,2597.09C959.316,2465.43 897.236,2424.15 786.365,2365.77C762.121,2353 713.616,2325.04 683.342,2332.22C652.531,2339.54 675.261,2388.18 684.068,2404.82C717.051,2467.13 782.226,2507.99 848.654,2527.08C873.608,2534.25 899.988,2537.35 925.828,2538.11C938.803,2538.49 951.795,2538.5 964.77,2538.11C966.753,2538.05 972.654,2537.33 970.67,2537.33C913.993,2537.33 800.601,2496.18 750.724,2464.99C734.204,2454.66 696.319,2428.09 707.973,2402.85C728.643,2358.09 836.977,2378.98 870.727,2392.81C888.806,2400.22 905.2,2410.28 918.668,2424.68C921.924,2428.16 925.314,2432.66 927.309,2437.09C927.329,2437.13 929.796,2446.89 928.921,2445.98C898.185,2414.08 849.738,2196.34 857.254,2148.61C861.135,2123.97 891.353,2125.18 899.929,2105.72C942.444,2009.26 880.607,1921.94 792.748,1883.69C760.383,1869.6 726.822,1859.09 692.206,1852.16C648.768,1843.47 592.414,1833.57 548.92,1846.65C420.606,1885.24 610.394,2032.61 648.777,2072.07C670.083,2093.98 690.902,2116.36 711.925,2138.53C747.993,2176.59 747.244,2176.06 785.015,2213.09C814.895,2242.38 843.906,2269.77 876.452,2295.79C892.634,2308.74 975.361,2352.54 981.431,2364.29C981.462,2364.35 958.867,2372.9 941.457,2379.61C920.079,2387.86 876.632,2404.33 880.527,2435.36C886.398,2482.14 1000.95,2576.29 973.019,2597.28C949.639,2614.85 876.411,2593.71 852.107,2589.21C762.329,2572.58 670.814,2558.46 587.258,2520.02C556.271,2505.76 517.437,2479.09 527.064,2440.67C538.54,2394.87 588.203,2358.34 623.721,2332.5C713.009,2267.55 888.648,2185.51 998.067,2175.33C1097.97,2166.05 1202.97,2191.11 1168.52,2311.59C1151.94,2369.59 1100.9,2377.67 1047.16,2378.84C943.609,2381.07 808.804,2316.31 753.028,2227.42C705.696,2151.98 731.287,2082.65 784.824,2018.38C840.97,1950.98 900.398,1879.34 779.181,1888.26C758.569,1889.77 738.116,1892.98 717.604,1895.5C688.228,1899.12 658.435,1901.03 629.138,1905.31C578.962,1912.65 516.567,1916.28 469.554,1938.48C447.577,1948.85 495.659,1978.21 502.286,1983.12C537.475,2009.15 585.845,2039.17 582.45,2089.8C576.202,2182.98 374.264,2298.85 501.027,2380.31C521.126,2393.23 543.547,2403.29 565.311,2413.04C683.869,2466.18 810.845,2492.53 935.745,2525.89C985.852,2539.28 1036.35,2550.8 1085.71,2566.91C1103.31,2572.66 1125.99,2581.43 1123.21,2586.95C1114.69,2603.88 976.968,2599.52 960.793,2599.52L844.145,2599.52C774.093,2599.52 704.062,2596.09 634.441,2588.33C527.744,2576.43 444.341,2550.34 467.999,2424.11C505.286,2225.16 663.21,2166.47 851.436,2167.49C885.506,2167.67 950.688,2164.71 972.108,2200.39C988.577,2227.82 983.533,2267.51 1006.62,2291.42C1008.25,2293.11 1012.19,2294.38 1013.9,2292.05C1049.61,2243.2 990.362,2126.69 949.702,2094.75C848.547,2015.29 692.683,2003.28 581.696,2069.83C486.781,2126.74 486.869,2260.28 523.865,2352.78C531.631,2372.19 572.308,2435.48 568.985,2452.63C567.422,2460.7 534.658,2435.46 533.438,2434.36C498.197,2402.52 474.75,2356.08 456.403,2313.27C396.528,2173.57 410.843,2070.47 532.969,1974.88C621.443,1905.63 795.342,1926.84 842.026,1825.35C865.005,1775.39 756.323,1749.19 748.45,1589.19" style="fill:none;stroke:rgb(111,116,114);stroke-width:27px;"/>
                </g>
                <g transform="matrix(1.01879,0,0,0.851377,-13.9524,459.105)">
                    <path d="M766.6,2972.55C771.107,2978.34 776.86,2982.53 783.228,2984.67C793.204,2987.54 802.246,2993.93 809.629,3002.76C821.335,3016.77 827.912,3035.77 827.912,3055.58L827.912,3089.06L668.771,3089.06L668.771,3055.58C668.771,3035.77 675.348,3016.77 687.054,3002.76C692.794,2995.9 699.535,2990.5 706.868,2986.79C714.215,2983.16 720.862,2977.77 726.4,2970.94C732.147,2965.82 739.042,2962.02 746.672,2962.02C754.561,2962.02 761.664,2966.08 766.6,2972.55Z" style="fill:rgb(111,116,114);"/>
                </g>
                <path d="M682.735,3067.39L807.617,3067.39" style="fill:none;stroke:rgb(125,130,128);stroke-width:10px;"/>
                <g transform="matrix(1,0,0,1,0,-21.2296)">
                    <path d="M682.735,3067.39L807.617,3067.39" style="fill:none;stroke:rgb(125,130,128);stroke-width:10px;"/>
                </g>
                <g transform="matrix(0.66621,0,0,1,248.732,-42.4592)">
                    <path d="M682.735,3067.39L807.617,3067.39" style="fill:none;stroke:rgb(125,130,128);stroke-width:11.77px;"/>
                </g>
            </g>
            <g transform="matrix(0.08629,0,0,0.462268,536.003,-934.09)">
                <g transform="matrix(5.3093,0,0,5.3093,-2548.84,-1468.89)">
                    <path d="M621.02,838.505L621.02,664.396" style="fill:none;stroke:rgb(111,116,114);stroke-width:3.4px;"/>
                </g>
                <g transform="matrix(1.0699,0,0,1.0699,-51.5192,-263.109)">
                    <path d="M629.922,3281.74C645.735,3254.15 653.526,3222.53 652.18,3190.48C651.465,3174.24 656.301,3155.99 671.74,3133.35L671.74,3133.17L823.471,3133.17L823.471,3133.35C838.91,3155.99 843.746,3174.24 843.03,3190.48C841.685,3222.53 849.476,3254.15 865.289,3281.74C890.651,3309.85 906.1,3347.07 906.1,3387.86C906.1,3475.34 835.081,3546.36 747.605,3546.36C660.13,3546.36 589.111,3475.34 589.111,3387.86C589.111,3347.07 604.56,3309.85 629.922,3281.74Z" style="fill:url(#_Linear2);"/>
                </g>
                <g transform="matrix(1,0,0,1,-1.59897,-7.12459)">
                    <path d="M670.499,3296.72C670.559,3296.54 670.734,3296.21 670.734,3296.21L720.283,3210.89L721.626,3096.32L730.625,3096.43L729.268,3212.23C729.259,3213.04 729.033,3213.83 728.613,3214.52L678.295,3297.25C682.906,3299.82 687.882,3303.81 689.611,3307.26C689.989,3308.02 690.127,3308.92 690.003,3309.92C689.898,3310.77 689.572,3311.75 689.21,3312.76C689.017,3313.29 688.814,3313.83 688.68,3314.35C688.638,3314.52 688.606,3314.77 688.588,3314.93C691.222,3316.18 695.97,3315.93 699.919,3316.19C701.864,3316.32 703.651,3316.54 705.051,3316.97C706.335,3317.36 707.353,3317.93 708.067,3318.65C710.542,3321.12 711.799,3323.92 713.088,3326.86C714.147,3329.27 715.24,3331.79 717.525,3334.18C718.585,3335.29 719.896,3335.67 721.304,3335.71C723.134,3335.76 725.105,3335.28 727.067,3334.74C729.844,3333.96 732.602,3333.03 735.006,3332.72C737.085,3332.45 738.953,3332.63 740.504,3333.41C742.646,3334.48 744.17,3336.37 745.509,3338.27C746.353,3339.46 747.015,3340.71 748.054,3341.23C753.208,3343.81 756.612,3341.04 759.877,3338.35C762.865,3335.9 765.799,3333.44 769.145,3332.75C772.929,3331.97 775.901,3334.21 778.59,3336.73C779.34,3337.43 780.069,3338.13 780.826,3338.67C781.378,3339.06 781.922,3339.4 782.566,3339.28C782.761,3339.01 783.774,3337.62 784.356,3336.53C786.097,3333.28 788.011,3329.22 789.78,3327.76C793.6,3324.61 796.636,3323.44 799.031,3322.7C800.614,3322.22 801.858,3322.14 802.742,3321.31C803.318,3320.76 803.632,3319.87 803.94,3318.41C804.374,3316.34 804.629,3313.38 804.775,3309.09C804.89,3305.68 806.737,3303.75 809.563,3302.62C811.607,3301.81 814.293,3301.5 816.977,3301.2C818.764,3301 820.549,3300.8 822.043,3300.32C822.838,3300.07 823.166,3299.66 823.166,3299.66L771.268,3214.33C770.849,3213.64 770.623,3212.85 770.613,3212.04L769.256,3096.24L778.256,3096.13L779.598,3210.7L829.057,3296.08C829.057,3296.08 829.511,3296.98 829.511,3297.51C829.511,3301.17 827.727,3303.25 825.029,3304.51C822.988,3305.47 820.273,3305.86 817.536,3306.17C815.324,3306.42 813.095,3306.6 811.41,3307.27C810.505,3307.63 809.809,3308.17 809.772,3309.26C809.579,3314.95 809.161,3318.51 808.494,3320.81C807.912,3322.82 807.107,3324.06 806.166,3324.95C805.167,3325.89 803.975,3326.43 802.49,3326.89C800.286,3327.57 797.2,3328.12 792.964,3331.62C792.395,3332.09 791.872,3332.99 791.301,3334.02C790.161,3336.06 789.024,3338.56 787.92,3340.4C786.737,3342.37 785.371,3343.64 784.248,3344C781.356,3344.92 778.852,3343.67 776.476,3341.58C775.303,3340.54 774.149,3339.3 772.862,3338.41C772.057,3337.86 771.197,3337.43 770.157,3337.65C768.646,3337.96 767.295,3338.85 765.948,3339.87C764.281,3341.13 762.649,3342.62 760.922,3343.89C756.775,3346.95 752.155,3348.87 745.818,3345.7C744.403,3344.99 743.215,3343.66 742.089,3342.09C741.015,3340.59 740.022,3338.76 738.268,3337.88C737.279,3337.39 736.025,3337.57 734.639,3337.85C732.695,3338.23 730.562,3338.95 728.412,3339.55C723.056,3341.05 717.673,3341.57 713.91,3337.64C711.162,3334.76 709.783,3331.77 708.51,3328.87C707.468,3326.5 706.532,3324.18 704.531,3322.18C704.226,3321.88 703.705,3321.76 703.108,3321.62C702.093,3321.39 700.883,3321.27 699.588,3321.18C694.917,3320.87 689.326,3320.89 686.265,3319.36C685.128,3318.79 684.448,3318.01 684.038,3317.16C683.512,3316.07 683.453,3314.77 683.774,3313.37C684.016,3312.32 684.492,3311.18 684.829,3310.14C684.914,3309.88 684.998,3309.47 685.032,3309.3C682.995,3305.55 676.277,3301.28 672.08,3299.88C670.771,3299.45 670.062,3298.03 670.499,3296.72Z" style="fill:rgb(199,162,128);"/>
                </g>
                <g transform="matrix(1.01879,0,0,0.851377,-13.9524,459.105)">
                    <path d="M766.6,2972.55C771.107,2978.34 776.86,2982.53 783.228,2984.67C793.204,2987.54 802.246,2993.93 809.629,3002.76C821.335,3016.77 827.912,3035.77 827.912,3055.58L827.912,3089.06L668.771,3089.06L668.771,3055.58C668.771,3035.77 675.348,3016.77 687.054,3002.76C692.794,2995.9 699.535,2990.5 706.868,2986.79C714.215,2983.16 720.862,2977.77 726.4,2970.94C732.147,2965.82 739.042,2962.02 746.672,2962.02C754.561,2962.02 761.664,2966.08 766.6,2972.55Z" style="fill:rgb(111,116,114);"/>
                </g>
                <path d="M682.735,3067.39L807.617,3067.39" style="fill:none;stroke:rgb(125,130,128);stroke-width:10px;"/>
                <g transform="matrix(1,0,0,1,0,-21.2296)">
                    <path d="M682.735,3067.39L807.617,3067.39" style="fill:none;stroke:rgb(125,130,128);stroke-width:10px;"/>
                </g>
                <g transform="matrix(0.66621,0,0,1,248.732,-42.4592)">
                    <path d="M682.735,3067.39L807.617,3067.39" style="fill:none;stroke:rgb(125,130,128);stroke-width:11.77px;"/>
                </g>
            </g>
            <g transform="matrix(0.690778,0,0,3.7006,267.624,-2401.53)">
                <path d="M481.997,842.082L481.997,851.755" style="fill:none;stroke:rgb(243,193,5);stroke-width:3.4px;"/>
            </g>
            <g transform="matrix(4.2298e-17,-3.7006,0.690778,2.26596e-16,37.0215,2409.42)">
                <path d="M481.997,842.082L481.997,851.755" style="fill:none;stroke:rgb(243,193,5);stroke-width:3.4px;"/>
            </g>
            <g transform="matrix(4.2298e-17,-3.7006,0.690778,2.26596e-16,-5.57809,2409.42)">
                <path d="M481.997,842.082L481.997,851.755" style="fill:none;stroke:rgb(243,193,5);stroke-width:3.4px;"/>
            </g>
            <g transform="matrix(0.488454,-2.61672,0.488454,2.61672,-66.318,-398.897)">
                <path d="M481.997,842.082L481.997,851.755" style="fill:none;stroke:rgb(243,193,5);stroke-width:3.4px;"/>
            </g>
            <g transform="matrix(-0.488454,-2.61672,0.488454,-2.61672,440.466,4033.4)">
                <path d="M481.997,842.082L481.997,851.755" style="fill:none;stroke:rgb(243,193,5);stroke-width:3.4px;"/>
            </g>
            <g transform="matrix(-0.488454,-2.61672,0.488454,-2.61672,406.911,4179.41)">
                <path d="M481.997,842.082L481.997,851.755" style="fill:none;stroke:rgb(243,193,5);stroke-width:3.4px;"/>
            </g>
            <g transform="matrix(0.488454,-2.61672,0.488454,2.61672,-32.7632,-252.881)">
                <path d="M481.997,842.082L481.997,851.755" style="fill:none;stroke:rgb(243,193,5);stroke-width:3.4px;"/>
            </g>
            <g id="Gopher" transform="matrix(0.106952,0,0,0.572959,473.816,154.519)">
                <path d="M381.081,363.552C378.301,364.788 373.668,395.058 387.876,396.602C397.452,397.529 423.707,400.618 429.884,396.602C441.931,388.88 440.695,370.347 433.9,365.714C422.471,358.301 384.17,362.008 381.081,363.552ZM302.625,136.834C270.811,133.127 217.375,162.78 209.344,225.792C200.695,291.274 277.915,356.139 352.046,291.274C391.892,256.371 405.792,148.88 302.625,136.834ZM517.606,136.834C414.44,148.88 428.34,256.371 468.185,291.274C542.317,356.139 619.537,291.274 610.888,225.792C603.166,162.78 549.73,133.127 517.606,136.834Z" style="fill:white;fill-rule:nonzero;"/>
                <path d="M715.598,106.873C739.382,155.985 667.104,161.236 670.811,183.166C677.606,222.703 672.973,281.39 667.722,339.151C658.764,437.066 731.969,671.506 579.382,765.714C550.656,783.629 482.394,793.514 415.058,795.058L414.44,795.058C347.104,793.514 269.575,783.629 240.849,765.714C88.571,671.506 161.776,437.066 153.127,339.151C147.568,281.39 142.934,222.703 150.039,183.166C153.745,161.236 81.467,156.293 105.251,106.873C125.637,64.556 175.985,101.931 188.649,88.649C253.205,21.622 331.66,3.707 393.436,2.162L427.413,2.162C488.88,5.251 567.336,21.931 632.201,88.649C644.865,101.931 694.903,64.556 715.598,106.873ZM381.081,363.552C378.301,364.788 373.668,395.058 387.876,396.602C397.452,397.529 423.707,400.618 429.884,396.602C441.931,388.88 440.695,370.347 433.9,365.714C422.471,358.301 384.17,362.008 381.081,363.552ZM302.625,136.834C270.811,133.127 217.375,162.78 209.344,225.792C200.695,291.274 277.915,356.139 352.046,291.274C391.892,256.371 405.792,148.88 302.625,136.834ZM517.606,136.834C414.44,148.88 428.34,256.371 468.185,291.274C542.317,356.139 619.537,291.274 610.888,225.792C603.166,162.78 549.73,133.127 517.606,136.834Z" style="fill:url(#_Linear3);fill-rule:nonzero;"/>
                <path d="M410.425,299.614C429.884,296.834 476.525,319.073 473.436,345.328C469.73,375.907 353.282,379.923 347.104,343.475C343.398,321.236 361.004,307.027 410.425,299.614ZM673.282,545.792C664.381,542.248 657.529,532.819 657.529,525.097C657.529,511.197 659.382,494.826 669.575,487.722C690.579,473.205 771.958,585.071 673.282,545.792ZM147.259,545.792C113.282,546.1 129.961,473.205 150.965,487.722C161.158,494.826 163.012,511.197 163.012,525.097C163.012,532.819 156.834,545.483 147.259,545.792ZM608.726,769.73C614.903,778.687 615.212,784.865 605.328,789.498C567.645,806.795 533.977,783.629 546.641,777.143C573.514,763.552 590.193,742.239 608.726,769.73ZM211.815,772.819C230.347,745.328 247.027,766.641 273.9,780.232C286.564,786.718 252.896,809.884 215.212,792.587C205.328,787.954 205.637,781.776 211.815,772.819Z" style="fill:rgb(172,163,155);fill-rule:nonzero;"/>
                <path d="M657.838,114.286C659.382,107.799 675.444,104.71 684.402,115.83C695.212,129.112 668.649,147.336 667.413,139.923C664.324,119.846 655.985,120.772 657.838,114.286ZM162.703,114.286C164.556,120.772 156.216,119.846 153.127,139.923C151.892,147.336 125.328,129.112 136.139,115.83C144.788,104.71 160.849,107.799 162.703,114.286ZM543.859,303.008C524.412,303.008 508.647,287.243 508.647,267.796C508.647,248.348 524.412,232.583 543.859,232.583C563.306,232.583 579.072,248.348 579.072,267.796C579.072,287.243 563.306,303.008 543.859,303.008ZM534.593,263.78C540.734,263.78 545.712,258.802 545.712,252.66C545.712,246.519 540.734,241.541 534.593,241.541C528.452,241.541 523.473,246.519 523.473,252.66C523.473,258.802 528.452,263.78 534.593,263.78ZM378.61,314.44C382.317,300.232 395.29,295.598 405.792,295.29C432.664,294.672 442.857,309.189 443.784,320.618C445.637,340.077 370.27,344.71 378.61,314.44ZM314.979,303.008C295.532,303.008 279.766,287.243 279.766,267.796C279.766,248.348 295.532,232.583 314.979,232.583C334.426,232.583 350.191,248.348 350.191,267.796C350.191,287.243 334.426,303.008 314.979,303.008ZM324.245,263.78C330.386,263.78 335.365,258.802 335.365,252.66C335.365,246.519 330.386,241.541 324.245,241.541C318.104,241.541 313.126,246.519 313.126,252.66C313.126,258.802 318.104,263.78 324.245,263.78Z" style="fill:rgb(65,65,65);fill-rule:nonzero;"/>
            </g>
        </g>
    </g>
    <defs>
        <linearGradient id="_Linear1" x1="0" y1="0" x2="1" y2="0" gradientUnits="userSpaceOnUse" gradientTransform="matrix(316.99,0,0,413.192,589.111,3339.76)"><stop offset="0" style="stop-color:rgb(91,203,245);stop-opacity:1"/><stop offset="1" style="stop-color:rgb(15,123,193);stop-opacity:1"/></linearGradient>
        <linearGradient id="_Linear2" x1="0" y1="0" x2="1" y2="0" gradientUnits="userSpaceOnUse" gradientTransform="matrix(459.147,0,0,598.493,589.111,3339.76)"><stop offset="0" style="stop-color:rgb(255,232,63);stop-opacity:1"/><stop offset="1" style="stop-color:rgb(224,147,61);stop-opacity:1"/></linearGradient>
        <linearGradient id="_Linear3" x1="0" y1="0" x2="1" y2="0" gradientUnits="userSpaceOnUse" gradientTransform="matrix(619.975,0,0,792.896,100.437,398.61)"><stop offset="0" style="stop-color:rgb(15,123,193);stop-opacity:1"/><stop offset="1" style="stop-color:rgb(91,203,245);stop-opacity:1"/></linearGradient>
    </defs>
</svg>
