<?xml version="1.0" encoding="UTF-8" standalone="no"?>
<!DOCTYPE svg PUBLIC "-//W3C//DTD SVG 1.1//EN" "http://www.w3.org/Graphics/SVG/1.1/DTD/svg11.dtd">
<svg width="100%" height="100%" viewBox="0 0 601 140" version="1.1" xmlns="http://www.w3.org/2000/svg" xmlns:xlink="http://www.w3.org/1999/xlink" xml:space="preserve" xmlns:serif="http://www.serif.com/" style="fill-rule:evenodd;clip-rule:evenodd;stroke-linejoin:round;stroke-miterlimit:2;">
    <g transform="matrix(1,0,0,1,-201,-7610)">
        <g id="StringsAndRunes" transform="matrix(0.585938,0,0,0.182292,201.763,7610)">
            <rect x="0" y="0" width="1024" height="768" style="fill:none;"/>
            <g id="Livello-1" serif:id="Livello 1">
            </g>
            <g transform="matrix(1,0,0,1,23.7749,-57.2969)">
                <g id="Gopher" transform="matrix(0.202139,0,0,0.649732,427.2,265.696)">
                    <path d="M381.081,363.552C378.301,364.788 373.668,395.058 387.876,396.602C397.452,397.529 423.707,400.618 429.884,396.602C441.931,388.88 440.695,370.347 433.9,365.714C422.471,358.301 384.17,362.008 381.081,363.552ZM302.625,136.834C270.811,133.127 217.375,162.78 209.344,225.792C200.695,291.274 277.915,356.139 352.046,291.274C391.892,256.371 405.792,148.88 302.625,136.834ZM517.606,136.834C414.44,148.88 428.34,256.371 468.185,291.274C542.317,356.139 619.537,291.274 610.888,225.792C603.166,162.78 549.73,133.127 517.606,136.834Z" style="fill:white;fill-rule:nonzero;"/>
                    <path d="M145.35,479.617C147.317,448.918 130.461,420.095 102.741,406.757C83.559,397.481 65.738,388.906 65.738,388.906L84.747,332.654C84.747,332.654 124.956,351.878 143.998,360.983C146.147,362.013 148.675,361.858 150.683,360.574C152.69,359.29 153.89,357.059 153.856,354.677C153.784,349.189 153.556,344.002 153.127,339.151C147.568,281.39 142.934,222.703 150.039,183.166C153.745,161.236 175.985,101.931 188.649,88.649C253.205,21.622 331.66,3.707 393.436,2.162L427.413,2.162C488.88,5.251 567.336,21.931 632.201,88.649C644.865,101.931 667.104,161.236 670.811,183.166C677.606,222.703 672.973,281.39 667.722,339.151C658.764,437.066 731.969,671.506 579.382,765.714C550.656,783.629 482.394,793.514 415.058,795.058L414.44,795.058C347.104,793.514 269.575,783.629 240.849,765.714C141.661,704.351 138.139,583.49 145.35,479.617ZM517.606,136.834C414.44,148.88 428.34,256.371 468.185,291.274C542.317,356.139 619.537,291.274 610.888,225.792C603.166,162.78 549.73,133.127 517.606,136.834ZM381.081,363.552C378.301,364.788 373.668,395.058 387.876,396.602C397.452,397.529 423.707,400.618 429.884,396.602C441.931,388.88 440.695,370.347 433.9,365.714C422.471,358.301 384.17,362.008 381.081,363.552ZM302.625,136.834C270.811,133.127 217.375,162.78 209.344,225.792C200.695,291.274 277.915,356.139 352.046,291.274C391.892,256.371 405.792,148.88 302.625,136.834Z" style="fill:url(#_Linear1);"/>
                    <path d="M410.425,299.614C429.884,296.834 476.525,319.073 473.436,345.328C469.73,375.907 353.282,379.923 347.104,343.475C343.398,321.236 361.004,307.027 410.425,299.614ZM608.726,769.73C614.903,778.687 615.212,784.865 605.328,789.498C567.645,806.795 533.977,783.629 546.641,777.143C573.514,763.552 590.193,742.239 608.726,769.73ZM211.815,772.819C230.347,745.328 247.027,766.641 273.9,780.232C286.564,786.718 252.896,809.884 215.212,792.587C205.328,787.954 205.637,781.776 211.815,772.819Z" style="fill:rgb(172,163,155);fill-rule:nonzero;"/>
                    <path d="M521.552,294.272C502.105,294.272 486.34,278.507 486.34,259.06C486.34,239.612 502.105,223.847 521.552,223.847C541,223.847 556.765,239.612 556.765,259.06C556.765,278.507 541,294.272 521.552,294.272ZM512.286,255.044C518.427,255.044 523.406,250.066 523.406,243.924C523.406,237.783 518.427,232.805 512.286,232.805C506.145,232.805 501.166,237.783 501.166,243.924C501.166,250.066 506.145,255.044 512.286,255.044ZM378.61,314.44C382.317,300.232 395.29,295.598 405.792,295.29C432.664,294.672 442.857,309.189 443.784,320.618C445.637,340.077 370.27,344.71 378.61,314.44ZM298.988,294.272C279.541,294.272 263.776,278.507 263.776,259.06C263.776,239.612 279.541,223.847 298.988,223.847C318.435,223.847 334.2,239.612 334.2,259.06C334.2,278.507 318.435,294.272 298.988,294.272ZM308.255,255.044C314.396,255.044 319.374,250.066 319.374,243.924C319.374,237.783 314.396,232.805 308.255,232.805C302.113,232.805 297.135,237.783 297.135,243.924C297.135,250.066 302.113,255.044 308.255,255.044Z" style="fill:rgb(65,65,65);fill-rule:nonzero;"/>
                </g>
                <g transform="matrix(0.258797,-0.643659,0.179503,0.745665,313.051,210.086)">
                    <path d="M147.259,545.792C113.282,546.1 129.961,473.205 150.965,487.722C161.158,494.826 163.012,511.197 163.012,525.097C163.012,532.819 156.834,545.483 147.259,545.792Z" style="fill:rgb(172,163,155);fill-rule:nonzero;"/>
                </g>
                <g transform="matrix(0.00430217,-0.242542,0.0140854,0.0025813,388.635,524.384)">
                    <g transform="matrix(6.11878,32.7792,-8.93285,47.8546,15978.9,-127822)">
                        <rect x="706.764" y="2187.15" width="8.262" height="61.469" style="fill:rgb(104,82,2);"/>
                    </g>
                    <g transform="matrix(1.40688,1.3845e-15,2.09189e-16,7.53683,-148.628,-831.282)">
                        <path d="M278.362,502.555C268.709,512.199 252.915,512.199 243.261,502.557L218.977,478.298C209.324,468.655 209.324,452.875 218.977,443.233L633.526,29.119C643.179,19.477 662.196,10.577 675.782,9.342L777.391,0.102C790.981,-1.133 801.086,8.972 799.851,22.562L790.628,123.975C789.393,137.565 780.484,156.57 770.831,166.215L356.258,580.378C346.604,590.02 330.81,590.02 321.157,580.378L296.839,556.085C287.186,546.443 287.186,530.662 296.839,521.017L643.934,174.245C649.045,169.151 649.05,160.87 643.942,155.771C638.848,150.663 630.565,150.663 625.449,155.766L278.362,502.555Z" style="fill:url(#_Linear2);fill-rule:nonzero;"/>
                    </g>
                    <g transform="matrix(1.024,0,0,5.48571,0,0)">
                        <path d="M80.984,653.955C103.63,622.728 150.613,560.907 158.629,546.746L94.23,482.399L31.71,482.399C19.687,482.399 9.94,472.644 9.94,460.618C9.94,448.597 19.687,438.841 31.71,438.841L103.233,438.841C109.021,438.841 114.553,441.135 118.636,445.214L353.981,680.317C358.069,684.405 360.362,689.951 360.362,695.723L360.362,767.592C360.362,779.624 350.612,789.36 338.586,789.36C326.548,789.36 316.799,779.627 316.799,767.592L316.799,704.75L252.656,640.69C238.502,649.043 178.542,694.881 146.234,718.86C146.514,721.474 146.655,724.117 146.655,726.783C146.655,746.337 139.028,764.714 125.182,778.538C111.337,792.362 92.926,799.997 73.35,799.997C53.762,799.992 35.352,792.365 21.495,778.538C7.663,764.717 0.044,746.345 0.044,726.783C0.044,707.234 7.66,688.845 21.495,675.022C35.355,661.184 53.762,653.565 73.35,653.565C75.917,653.565 78.464,653.696 80.984,653.955Z" style="fill:rgb(104,82,2);"/>
                    </g>
                </g>
                <g transform="matrix(1.37785,-1.85547,0.577259,4.42879,-1458.46,-8405.52)">
                    <path d="M456.065,2206.81C456.133,2207.14 456.037,2207.49 455.806,2207.75C455.575,2208.01 455.237,2208.14 454.894,2208.1C451.4,2207.72 450.453,2202.58 451.586,2199.65C451.77,2199.24 452.178,2198.98 452.628,2198.98C453.078,2198.98 453.484,2199.25 453.663,2199.66C454.711,2201.94 455.538,2204.27 456.065,2206.81Z" style="fill:rgb(172,163,155);"/>
                </g>
                <g transform="matrix(0.202139,0,0,0.649732,427.2,265.696)">
                    <path d="M673.282,545.792C663.707,545.483 657.529,532.819 657.529,525.097C657.529,511.197 659.382,494.826 669.575,487.722C690.579,473.205 707.259,546.1 673.282,545.792Z" style="fill:rgb(172,163,155);fill-rule:nonzero;"/>
                </g>
                <g transform="matrix(0.777408,0,0,0.777408,-87.988,27.0348)">
                    <g transform="matrix(0.018426,0,0,0.0592265,648.249,11.9797)">
                        <path d="M1213,1338C1117,1354 1072,1391 1018,1498C871,1791 752,2207 713,2568C696,2721 696,3092 712,3251C752,3627 886,4070 1059,4400C1229,4725 1408,4966 1663,5220C2034,5587 2459,5846 2965,6012C3049,6040 3046,6008 2983,6270C2855,6801 2824,7381 2894,7960C2903,8035 2912,8098 2913,8099C2916,8103 10314,8103 10317,8099C10318,8098 10327,8035 10336,7960C10392.2,7493.97 10383.3,7029.23 10311.2,6588.6C10293.6,6480.85 10272.2,6374.53 10247,6270C10184,6008 10181,6040 10265,6012C10944,5789 11512,5375 11924,4804C12243,4362 12458,3799 12517,3251C12534,3094 12534,2722 12517,2568C12498,2396 12440,2114 12390,1949C12318,1716 12199,1444 12147,1396C12086,1339 11962,1322 11887,1360C11813,1398 11760,1481 11760,1559C11760,1664 11688,2005 11629,2180C11270,3243 10330,3987 9214,4091L9100,4101L8957,3962C8606,3618 8176,3303 7804,3116L7739,3083L7739,2829L7578,2753C7306,2623 7044,2525 6770,2453L6614,2412L6460,2453C6180,2528 5923,2623 5652,2753L5492,2829L5492,3083L5426,3116C5054,3303 4624,3618 4273,3962L4130,4101L4016,4091C3313,4025 2646,3693 2188,3180C1793,2738 1554,2221 1480,1647C1458,1477 1448,1446 1400,1402C1348,1354 1272,1327 1213,1338ZM6750,2904C6888,2944 7038,2997 7179,3057L7298,3106L7298,6070L5933,6070L5933,3106L6050,3056C6256,2970 6594,2861 6629,2870C6640,2873 6694,2888 6750,2904ZM5492,4842L5492,6096L5451,6096C5366,6096 4857,6129 4625,6149C4310,6177 3872,6226 3644,6259C3416,6292 3430,6293 3439,6253C3453,6189 3537,5931 3585,5802C3647,5638 3829,5268 3922,5115C4284,4521 4778,4022 5363,3659C5425,3620 5479,3588 5484,3588C5488,3587 5492,4152 5492,4842ZM7864,3657C8285,3914 8703,4289 9015,4690C9209,4939 9337,5146 9487,5451C9602,5686 9667,5846 9739,6077C9797,6263 9802,6286 9784,6285C9777,6285 9671,6271 9550,6254C9307,6220 8846,6169 8552,6144C8356,6128 7851,6096 7779,6096L7739,6096L7739,4842C7739,4152 7741,3587 7744,3587C7746,3587 7800,3619 7864,3657ZM7130,6517C7828,6533 8278,6560 8857,6617C9155,6647 9877,6740 9887,6750C9888,6752 9897,6817 9906,6895C9927,7070 9939,7421 9928,7559L9921,7661L3309,7661L3302,7559C3291,7421 3303,7070 3324,6895C3333,6817 3342,6752 3343,6750C3344,6749 3494,6727 3676,6701C4698,6555 5952,6488 7130,6517Z" style="fill:rgb(104,82,2);fill-rule:nonzero;"/>
                    </g>
                    <g transform="matrix(0.018426,0,0,0.0592265,648.249,11.9797)">
                        <path d="M6750,2904C6888,2944 7038,2997 7179,3057L7298,3106L7298,6070L5933,6070L5933,3106L6050,3056C6256,2970 6594,2861 6629,2870C6640,2873 6694,2888 6750,2904ZM5492,4842L5492,6096L5451,6096C5366,6096 4857,6129 4625,6149C4310,6177 3872,6226 3644,6259C3416,6292 3430,6293 3439,6253C3453,6189 3537,5931 3585,5802C3647,5638 3829,5268 3922,5115C4284,4521 4778,4022 5363,3659C5425,3620 5479,3588 5484,3588C5488,3587 5492,4152 5492,4842ZM7864,3657C8285,3914 8703,4289 9015,4690C9209,4939 9337,5146 9487,5451C9602,5686 9667,5846 9739,6077C9797,6263 9802,6286 9784,6285C9777,6285 9671,6271 9550,6254C9307,6220 8846,6169 8552,6144C8356,6128 7851,6096 7779,6096L7739,6096L7739,4842C7739,4152 7741,3587 7744,3587C7746,3587 7800,3619 7864,3657ZM7130,6517C7828,6533 8278,6560 8857,6617C9155,6647 9877,6740 9887,6750C9888,6752 9897,6817 9906,6895C9927,7070 9939,7421 9928,7559L9921,7661L3309,7661L3302,7559C3291,7421 3303,7070 3324,6895C3333,6817 3342,6752 3343,6750C3344,6749 3494,6727 3676,6701C4698,6555 5952,6488 7130,6517Z" style="fill:url(#_Linear3);fill-rule:nonzero;"/>
                    </g>
                    <g transform="matrix(0.018426,0,0,0.0592265,648.251,294.756)">
                        <path d="M6497,1831C6295,1879 6130,2061 6101,2269C6057,2575 6305,2859 6615,2859C6781,2859 6955,2767 7044,2632C7244,2331 7090,1929 6740,1835C6678,1819 6558,1817 6497,1831ZM6777,2008C6852,2045 6915,2108 6953,2186C6973,2227 6977,2251 6977,2340C6977,2429 6974,2452 6953,2494C6913,2573 6852,2635 6775,2673C6712,2704 6695,2707 6615,2707C6535,2707 6518,2704 6455,2673C6327,2609 6257,2503 6250,2359C6245,2255 6262,2195 6319,2119C6429,1974 6615,1928 6777,2008Z" style="fill:rgb(104,82,2);fill-rule:nonzero;"/>
                    </g>
                    <g transform="matrix(0.018426,0,0,0.0592265,648.251,295.112)">
                        <path d="M4313,1888C4076,1928 3906,2168 3946,2405C3975,2570 4091,2707 4248,2759C4351,2794 4484,2786 4578,2742C4702,2683 4781,2593 4820,2467C4857,2346 4840,2207 4774,2095C4717,1997 4589,1911 4464,1888C4401,1876 4385,1876 4313,1888ZM4539,2069C4627,2121 4682,2207 4691,2306C4701,2419 4650,2522 4552,2587C4500,2622 4484,2627 4412,2631C4352,2634 4320,2631 4289,2618C4184,2574 4127,2509 4099,2402C4064,2263 4125,2132 4256,2066C4316,2035 4327,2033 4406,2037C4474,2040 4500,2047 4539,2069Z" style="fill:rgb(104,82,2);fill-rule:nonzero;"/>
                    </g>
                    <g transform="matrix(0.018426,0,0,0.0592265,648.251,294.223)">
                        <path d="M8747,1907C8526,1956 8378,2151 8392,2374C8402,2523 8471,2644 8592,2722C8674,2775 8741,2795 8841,2795C9012,2795 9157,2708 9238,2556C9381,2286 9212,1952 8908,1902C8833,1890 8820,1890 8747,1907ZM8972,2076C9100,2138 9166,2280 9130,2418C9091,2570 8973,2656 8816,2646C8699,2638 8622,2586 8567,2477C8490,2327 8572,2124 8733,2064C8789,2043 8919,2050 8972,2076Z" style="fill:rgb(104,82,2);fill-rule:nonzero;"/>
                    </g>
                </g>
            </g>
        </g>
    </g>
    <defs>
        <linearGradient id="_Linear1" x1="0" y1="0" x2="1" y2="0" gradientUnits="userSpaceOnUse" gradientTransform="matrix(619.975,0,0,792.896,100.437,398.61)"><stop offset="0" style="stop-color:rgb(15,123,193);stop-opacity:1"/><stop offset="1" style="stop-color:rgb(91,203,245);stop-opacity:1"/></linearGradient>
        <linearGradient id="_Linear2" x1="0" y1="0" x2="1" y2="0" gradientUnits="userSpaceOnUse" gradientTransform="matrix(-689.792,699.853,-699.131,-689.081,798.768,-1.13111)"><stop offset="0" style="stop-color:rgb(255,232,63);stop-opacity:1"/><stop offset="1" style="stop-color:rgb(224,147,61);stop-opacity:1"/></linearGradient>
        <linearGradient id="_Linear3" x1="0" y1="0" x2="1" y2="0" gradientUnits="userSpaceOnUse" gradientTransform="matrix(0.0639207,4005.1,-2892.61,0.0461656,6614.94,3628.4)"><stop offset="0" style="stop-color:rgb(255,232,63);stop-opacity:1"/><stop offset="1" style="stop-color:rgb(224,147,61);stop-opacity:1"/></linearGradient>
    </defs>
</svg>
