<?xml version="1.0" encoding="UTF-8" standalone="no"?>
<!DOCTYPE svg PUBLIC "-//W3C//DTD SVG 1.1//EN" "http://www.w3.org/Graphics/SVG/1.1/DTD/svg11.dtd">
<svg width="100%" height="100%" viewBox="0 0 601 140" version="1.1" xmlns="http://www.w3.org/2000/svg" xmlns:xlink="http://www.w3.org/1999/xlink" xml:space="preserve" xmlns:serif="http://www.serif.com/" style="fill-rule:evenodd;clip-rule:evenodd;stroke-linejoin:round;stroke-miterlimit:2;">
    <g transform="matrix(1,0,0,1,-201,-6230)">
        <g id="String-Formatting" serif:id="String Formatting" transform="matrix(0.585938,0,0,0.182292,201.763,6230)">
            <rect x="0" y="0" width="1024" height="768" style="fill:none;"/>
            <g id="Gopher" transform="matrix(0.19552,0,0,0.628456,603.407,148.46)">
                <path d="M381.081,363.552C378.301,364.788 373.668,395.058 387.876,396.602C397.452,397.529 423.707,400.618 429.884,396.602C441.931,388.88 440.695,370.347 433.9,365.714C422.471,358.301 384.17,362.008 381.081,363.552ZM302.625,136.834C270.811,133.127 217.375,162.78 209.344,225.792C200.695,291.274 277.915,356.139 352.046,291.274C391.892,256.371 405.792,148.88 302.625,136.834ZM517.606,136.834C414.44,148.88 428.34,256.371 468.185,291.274C542.317,356.139 619.537,291.274 610.888,225.792C603.166,162.78 549.73,133.127 517.606,136.834Z" style="fill:white;fill-rule:nonzero;"/>
                <path d="M715.598,106.873C739.382,155.985 667.104,161.236 670.811,183.166C677.606,222.703 672.973,281.39 667.722,339.151C658.764,437.066 731.969,671.506 579.382,765.714C550.656,783.629 482.394,793.514 415.058,795.058L414.44,795.058C347.104,793.514 269.575,783.629 240.849,765.714C88.571,671.506 161.776,437.066 153.127,339.151C147.568,281.39 142.934,222.703 150.039,183.166C153.745,161.236 81.467,156.293 105.251,106.873C125.637,64.556 175.985,101.931 188.649,88.649C253.205,21.622 331.66,3.707 393.436,2.162L427.413,2.162C488.88,5.251 567.336,21.931 632.201,88.649C644.865,101.931 694.903,64.556 715.598,106.873ZM381.081,363.552C378.301,364.788 373.668,395.058 387.876,396.602C397.452,397.529 423.707,400.618 429.884,396.602C441.931,388.88 440.695,370.347 433.9,365.714C422.471,358.301 384.17,362.008 381.081,363.552ZM302.625,136.834C270.811,133.127 217.375,162.78 209.344,225.792C200.695,291.274 277.915,356.139 352.046,291.274C391.892,256.371 405.792,148.88 302.625,136.834ZM517.606,136.834C414.44,148.88 428.34,256.371 468.185,291.274C542.317,356.139 619.537,291.274 610.888,225.792C603.166,162.78 549.73,133.127 517.606,136.834Z" style="fill:url(#_Linear1);fill-rule:nonzero;"/>
                <path d="M410.425,299.614C429.884,296.834 476.525,319.073 473.436,345.328C469.73,375.907 353.282,379.923 347.104,343.475C343.398,321.236 361.004,307.027 410.425,299.614ZM608.726,769.73C614.903,778.687 615.212,784.865 605.328,789.498C567.645,806.795 533.977,783.629 546.641,777.143C573.514,763.552 590.193,742.239 608.726,769.73ZM211.815,772.819C230.347,745.328 247.027,766.641 273.9,780.232C286.564,786.718 252.896,809.884 215.212,792.587C205.328,787.954 205.637,781.776 211.815,772.819Z" style="fill:rgb(172,163,155);fill-rule:nonzero;"/>
                <path d="M657.838,114.286C659.382,107.799 675.444,104.71 684.402,115.83C695.212,129.112 668.649,147.336 667.413,139.923C664.324,119.846 655.985,120.772 657.838,114.286ZM162.703,114.286C164.556,120.772 156.216,119.846 153.127,139.923C151.892,147.336 125.328,129.112 136.139,115.83C144.788,104.71 160.849,107.799 162.703,114.286ZM524.71,264.71C505.263,264.71 489.498,248.945 489.498,229.498C489.498,210.051 505.263,194.286 524.71,194.286C544.158,194.286 559.923,210.051 559.923,229.498C559.923,248.945 544.158,264.71 524.71,264.71ZM515.444,225.483C521.585,225.483 526.564,220.504 526.564,214.363C526.564,208.222 521.585,203.243 515.444,203.243C509.303,203.243 504.324,208.222 504.324,214.363C504.324,220.504 509.303,225.483 515.444,225.483ZM378.61,314.44C382.317,300.232 395.29,295.598 405.792,295.29C432.664,294.672 442.857,309.189 443.784,320.618C445.637,340.077 370.27,344.71 378.61,314.44ZM295.83,264.71C276.383,264.71 260.618,248.945 260.618,229.498C260.618,210.051 276.383,194.286 295.83,194.286C315.277,194.286 331.042,210.051 331.042,229.498C331.042,248.945 315.277,264.71 295.83,264.71ZM305.097,225.483C311.238,225.483 316.216,220.504 316.216,214.363C316.216,208.222 311.238,203.243 305.097,203.243C298.955,203.243 293.977,208.222 293.977,214.363C293.977,220.504 298.955,225.483 305.097,225.483Z" style="fill:rgb(65,65,65);fill-rule:nonzero;"/>
            </g>
            <g transform="matrix(1.66667,0,0,1,-313.83,-4.28517)">
                <g transform="matrix(2.77245,0,0,14.8524,-260.501,-93294.9)">
                    <g transform="matrix(12,0,0,12,217.225,6318.85)">
                        <path d="M0.037,-0.466C0.032,-0.473 0.028,-0.483 0.024,-0.496C0.02,-0.509 0.018,-0.522 0.018,-0.536C0.018,-0.562 0.024,-0.581 0.036,-0.592C0.047,-0.603 0.062,-0.609 0.081,-0.609L0.517,-0.609C0.522,-0.602 0.526,-0.592 0.53,-0.579C0.534,-0.566 0.536,-0.553 0.536,-0.539C0.536,-0.513 0.53,-0.494 0.519,-0.483C0.507,-0.472 0.492,-0.466 0.473,-0.466L0.362,-0.466L0.362,-0.004C0.355,-0.002 0.343,0 0.328,0.002C0.312,0.004 0.296,0.005 0.281,0.005C0.266,0.005 0.252,0.004 0.241,0.002C0.229,-0.001 0.219,-0.005 0.211,-0.011C0.203,-0.017 0.197,-0.025 0.193,-0.036C0.189,-0.047 0.187,-0.061 0.187,-0.078L0.187,-0.466L0.037,-0.466Z" style="fill:rgb(0,100,65);fill-rule:nonzero;"/>
                    </g>
                    <g transform="matrix(12,0,0,12,223.897,6318.85)">
                        <path d="M0.532,-0.001C0.525,0.001 0.515,0.003 0.501,0.005C0.486,0.007 0.471,0.008 0.456,0.008C0.441,0.008 0.428,0.007 0.417,0.005C0.405,0.003 0.395,-0.001 0.387,-0.007C0.379,-0.013 0.373,-0.021 0.369,-0.032C0.364,-0.042 0.362,-0.055 0.362,-0.072L0.362,-0.294C0.362,-0.321 0.355,-0.341 0.342,-0.352C0.328,-0.363 0.311,-0.368 0.291,-0.368C0.278,-0.368 0.265,-0.366 0.253,-0.363C0.241,-0.36 0.231,-0.356 0.224,-0.351L0.224,-0.001C0.217,0.001 0.207,0.003 0.193,0.005C0.178,0.007 0.163,0.008 0.148,0.008C0.133,0.008 0.12,0.007 0.109,0.005C0.097,0.003 0.087,-0.001 0.079,-0.007C0.071,-0.013 0.065,-0.021 0.061,-0.032C0.056,-0.042 0.054,-0.055 0.054,-0.072L0.054,-0.652C0.061,-0.653 0.072,-0.655 0.087,-0.658C0.101,-0.66 0.115,-0.661 0.13,-0.661C0.145,-0.661 0.158,-0.66 0.17,-0.658C0.181,-0.656 0.191,-0.652 0.199,-0.646C0.207,-0.64 0.213,-0.632 0.218,-0.622C0.222,-0.611 0.224,-0.598 0.224,-0.581L0.224,-0.483C0.233,-0.486 0.246,-0.49 0.264,-0.495C0.281,-0.499 0.301,-0.501 0.322,-0.501C0.388,-0.501 0.44,-0.485 0.477,-0.452C0.514,-0.419 0.532,-0.369 0.532,-0.304L0.532,-0.001Z" style="fill:rgb(0,100,65);fill-rule:nonzero;"/>
                    </g>
                    <g transform="matrix(12,0,0,12,230.917,6318.85)">
                        <path d="M0.309,0.016C0.27,0.016 0.233,0.011 0.2,-0.001C0.166,-0.012 0.136,-0.028 0.112,-0.05C0.087,-0.072 0.067,-0.1 0.053,-0.133C0.038,-0.166 0.031,-0.205 0.031,-0.25C0.031,-0.294 0.038,-0.332 0.053,-0.364C0.067,-0.395 0.086,-0.421 0.109,-0.442C0.132,-0.462 0.159,-0.477 0.189,-0.487C0.219,-0.496 0.25,-0.501 0.281,-0.501C0.316,-0.501 0.349,-0.496 0.378,-0.485C0.407,-0.474 0.432,-0.46 0.453,-0.441C0.474,-0.422 0.49,-0.4 0.502,-0.374C0.513,-0.348 0.519,-0.32 0.519,-0.289C0.519,-0.266 0.513,-0.249 0.5,-0.237C0.487,-0.225 0.47,-0.217 0.447,-0.214L0.2,-0.177C0.207,-0.155 0.222,-0.139 0.245,-0.128C0.268,-0.117 0.294,-0.111 0.323,-0.111C0.35,-0.111 0.376,-0.115 0.401,-0.122C0.425,-0.129 0.445,-0.137 0.46,-0.146C0.471,-0.139 0.48,-0.13 0.487,-0.118C0.494,-0.106 0.498,-0.093 0.498,-0.08C0.498,-0.05 0.484,-0.028 0.456,-0.013C0.435,-0.002 0.411,0.006 0.384,0.01C0.357,0.014 0.332,0.016 0.309,0.016ZM0.281,-0.377C0.265,-0.377 0.251,-0.374 0.24,-0.369C0.228,-0.364 0.218,-0.357 0.211,-0.349C0.204,-0.34 0.198,-0.331 0.195,-0.321C0.191,-0.31 0.189,-0.3 0.188,-0.289L0.359,-0.317C0.357,-0.33 0.35,-0.344 0.337,-0.357C0.324,-0.37 0.306,-0.377 0.281,-0.377Z" style="fill:rgb(0,100,65);fill-rule:nonzero;"/>
                    </g>
                    <g transform="matrix(12,0,0,12,239.905,6318.85)">
                        <path d="M0.377,-0.013C0.368,-0.006 0.354,0 0.336,0.005C0.318,0.01 0.298,0.012 0.275,0.012C0.249,0.012 0.227,0.009 0.208,0.002C0.189,-0.005 0.175,-0.015 0.168,-0.03C0.162,-0.041 0.155,-0.057 0.147,-0.078C0.138,-0.098 0.129,-0.121 0.12,-0.146C0.111,-0.17 0.101,-0.197 0.091,-0.226C0.081,-0.255 0.071,-0.283 0.063,-0.311C0.054,-0.339 0.045,-0.366 0.038,-0.392C0.031,-0.418 0.025,-0.441 0.02,-0.461C0.029,-0.47 0.042,-0.478 0.058,-0.486C0.073,-0.493 0.09,-0.496 0.109,-0.496C0.132,-0.496 0.152,-0.491 0.167,-0.482C0.182,-0.472 0.193,-0.454 0.2,-0.427L0.239,-0.274C0.246,-0.244 0.253,-0.217 0.26,-0.193C0.267,-0.168 0.272,-0.149 0.275,-0.136L0.28,-0.136C0.293,-0.185 0.306,-0.24 0.32,-0.3C0.334,-0.36 0.347,-0.419 0.358,-0.477C0.369,-0.483 0.382,-0.488 0.397,-0.491C0.411,-0.494 0.425,-0.496 0.438,-0.496C0.461,-0.496 0.481,-0.491 0.497,-0.481C0.513,-0.471 0.521,-0.454 0.521,-0.429C0.521,-0.418 0.519,-0.403 0.514,-0.383C0.509,-0.362 0.502,-0.339 0.495,-0.314C0.487,-0.288 0.478,-0.261 0.468,-0.232C0.457,-0.203 0.447,-0.175 0.436,-0.148C0.425,-0.121 0.415,-0.095 0.405,-0.072C0.394,-0.048 0.385,-0.028 0.377,-0.013Z" style="fill:rgb(0,100,65);fill-rule:nonzero;"/>
                    </g>
                    <g transform="matrix(12,0,0,12,246.325,6318.85)">
                        <path d="M0.26,-0.108C0.271,-0.108 0.284,-0.109 0.298,-0.112C0.311,-0.114 0.321,-0.117 0.328,-0.121L0.328,-0.201L0.256,-0.195C0.237,-0.194 0.222,-0.19 0.21,-0.183C0.198,-0.176 0.192,-0.166 0.192,-0.153C0.192,-0.14 0.197,-0.129 0.208,-0.121C0.218,-0.112 0.235,-0.108 0.26,-0.108ZM0.252,-0.501C0.288,-0.501 0.321,-0.497 0.351,-0.49C0.38,-0.483 0.405,-0.472 0.427,-0.457C0.448,-0.442 0.464,-0.423 0.475,-0.4C0.486,-0.377 0.492,-0.349 0.492,-0.318L0.492,-0.094C0.492,-0.077 0.487,-0.063 0.478,-0.052C0.468,-0.041 0.456,-0.031 0.443,-0.023C0.4,0.003 0.339,0.016 0.26,0.016C0.225,0.016 0.193,0.013 0.165,0.006C0.136,-0.001 0.112,-0.011 0.092,-0.024C0.071,-0.037 0.055,-0.054 0.045,-0.075C0.034,-0.096 0.028,-0.12 0.028,-0.147C0.028,-0.193 0.042,-0.228 0.069,-0.253C0.096,-0.278 0.139,-0.293 0.196,-0.299L0.327,-0.313L0.327,-0.32C0.327,-0.339 0.319,-0.353 0.302,-0.362C0.285,-0.37 0.26,-0.374 0.228,-0.374C0.203,-0.374 0.178,-0.371 0.154,-0.366C0.13,-0.361 0.108,-0.354 0.089,-0.346C0.08,-0.352 0.073,-0.361 0.067,-0.374C0.061,-0.386 0.058,-0.399 0.058,-0.412C0.058,-0.429 0.062,-0.443 0.071,-0.454C0.079,-0.464 0.092,-0.473 0.109,-0.48C0.128,-0.487 0.151,-0.493 0.178,-0.496C0.204,-0.499 0.229,-0.501 0.252,-0.501Z" style="fill:rgb(0,100,65);fill-rule:nonzero;"/>
                    </g>
                    <g transform="matrix(12,0,0,12,252.853,6318.85)">
                        <path d="M0.225,-0.001C0.218,0 0.207,0.002 0.193,0.005C0.178,0.007 0.164,0.008 0.149,0.008C0.134,0.008 0.121,0.007 0.11,0.005C0.098,0.003 0.088,-0.001 0.08,-0.007C0.072,-0.013 0.066,-0.021 0.062,-0.032C0.057,-0.042 0.055,-0.055 0.055,-0.072L0.055,-0.652C0.062,-0.653 0.073,-0.655 0.088,-0.658C0.102,-0.66 0.116,-0.661 0.131,-0.661C0.146,-0.661 0.159,-0.66 0.171,-0.658C0.182,-0.656 0.192,-0.652 0.2,-0.646C0.208,-0.64 0.214,-0.632 0.219,-0.622C0.223,-0.611 0.225,-0.598 0.225,-0.581L0.225,-0.001Z" style="fill:rgb(0,100,65);fill-rule:nonzero;"/>
                    </g>
                    <g transform="matrix(12,0,0,12,256.213,6318.85)">
                        <path d="M0.052,-0.479C0.059,-0.481 0.069,-0.483 0.084,-0.485C0.098,-0.487 0.113,-0.488 0.128,-0.488C0.143,-0.488 0.156,-0.487 0.168,-0.485C0.179,-0.483 0.189,-0.479 0.197,-0.473C0.205,-0.467 0.211,-0.459 0.216,-0.449C0.22,-0.438 0.222,-0.425 0.222,-0.408L0.222,-0.193C0.222,-0.166 0.229,-0.146 0.242,-0.135C0.255,-0.123 0.275,-0.117 0.3,-0.117C0.315,-0.117 0.328,-0.118 0.338,-0.121C0.347,-0.124 0.355,-0.126 0.36,-0.129L0.36,-0.479C0.367,-0.481 0.377,-0.483 0.392,-0.485C0.406,-0.487 0.421,-0.488 0.436,-0.488C0.451,-0.488 0.464,-0.487 0.476,-0.485C0.487,-0.483 0.497,-0.479 0.505,-0.473C0.513,-0.467 0.519,-0.459 0.524,-0.449C0.528,-0.438 0.53,-0.425 0.53,-0.408L0.53,-0.104C0.53,-0.071 0.516,-0.046 0.488,-0.029C0.465,-0.014 0.437,-0.003 0.405,0.005C0.372,0.012 0.337,0.016 0.299,0.016C0.263,0.016 0.23,0.012 0.2,0.004C0.169,-0.004 0.143,-0.016 0.121,-0.033C0.099,-0.05 0.082,-0.071 0.07,-0.098C0.058,-0.124 0.052,-0.156 0.052,-0.193L0.052,-0.479Z" style="fill:rgb(0,100,65);fill-rule:nonzero;"/>
                    </g>
                    <g transform="matrix(12,0,0,12,263.197,6318.85)">
                        <path d="M0.309,0.016C0.27,0.016 0.233,0.011 0.2,-0.001C0.166,-0.012 0.136,-0.028 0.112,-0.05C0.087,-0.072 0.067,-0.1 0.053,-0.133C0.038,-0.166 0.031,-0.205 0.031,-0.25C0.031,-0.294 0.038,-0.332 0.053,-0.364C0.067,-0.395 0.086,-0.421 0.109,-0.442C0.132,-0.462 0.159,-0.477 0.189,-0.487C0.219,-0.496 0.25,-0.501 0.281,-0.501C0.316,-0.501 0.349,-0.496 0.378,-0.485C0.407,-0.474 0.432,-0.46 0.453,-0.441C0.474,-0.422 0.49,-0.4 0.502,-0.374C0.513,-0.348 0.519,-0.32 0.519,-0.289C0.519,-0.266 0.513,-0.249 0.5,-0.237C0.487,-0.225 0.47,-0.217 0.447,-0.214L0.2,-0.177C0.207,-0.155 0.222,-0.139 0.245,-0.128C0.268,-0.117 0.294,-0.111 0.323,-0.111C0.35,-0.111 0.376,-0.115 0.401,-0.122C0.425,-0.129 0.445,-0.137 0.46,-0.146C0.471,-0.139 0.48,-0.13 0.487,-0.118C0.494,-0.106 0.498,-0.093 0.498,-0.08C0.498,-0.05 0.484,-0.028 0.456,-0.013C0.435,-0.002 0.411,0.006 0.384,0.01C0.357,0.014 0.332,0.016 0.309,0.016ZM0.281,-0.377C0.265,-0.377 0.251,-0.374 0.24,-0.369C0.228,-0.364 0.218,-0.357 0.211,-0.349C0.204,-0.34 0.198,-0.331 0.195,-0.321C0.191,-0.31 0.189,-0.3 0.188,-0.289L0.359,-0.317C0.357,-0.33 0.35,-0.344 0.337,-0.357C0.324,-0.37 0.306,-0.377 0.281,-0.377Z" style="fill:rgb(0,100,65);fill-rule:nonzero;"/>
                    </g>
                    <g transform="matrix(12,0,0,12,272.185,6318.85)">
                        <path d="M0.555,-0.243C0.555,-0.202 0.549,-0.165 0.536,-0.133C0.523,-0.1 0.505,-0.073 0.483,-0.051C0.46,-0.029 0.432,-0.012 0.4,-0.001C0.368,0.01 0.332,0.016 0.293,0.016C0.254,0.016 0.218,0.01 0.186,-0.002C0.154,-0.014 0.127,-0.031 0.104,-0.054C0.081,-0.076 0.063,-0.103 0.05,-0.135C0.037,-0.167 0.031,-0.203 0.031,-0.243C0.031,-0.282 0.037,-0.318 0.05,-0.35C0.063,-0.382 0.081,-0.409 0.104,-0.432C0.127,-0.454 0.154,-0.471 0.186,-0.483C0.218,-0.495 0.254,-0.501 0.293,-0.501C0.332,-0.501 0.368,-0.495 0.4,-0.483C0.432,-0.47 0.46,-0.453 0.483,-0.431C0.505,-0.408 0.523,-0.381 0.536,-0.349C0.549,-0.317 0.555,-0.282 0.555,-0.243ZM0.205,-0.243C0.205,-0.202 0.213,-0.171 0.229,-0.15C0.244,-0.128 0.266,-0.117 0.294,-0.117C0.322,-0.117 0.343,-0.128 0.359,-0.15C0.374,-0.172 0.381,-0.203 0.381,-0.243C0.381,-0.283 0.373,-0.314 0.358,-0.336C0.343,-0.357 0.321,-0.368 0.293,-0.368C0.265,-0.368 0.243,-0.357 0.228,-0.336C0.213,-0.314 0.205,-0.283 0.205,-0.243Z" style="fill:rgb(0,100,65);fill-rule:nonzero;"/>
                    </g>
                    <g transform="matrix(12,0,0,12,279.217,6318.85)">
                        <path d="M0.054,-0.486C0.054,-0.52 0.06,-0.549 0.072,-0.574C0.083,-0.598 0.099,-0.618 0.119,-0.634C0.139,-0.649 0.163,-0.661 0.19,-0.668C0.217,-0.675 0.245,-0.679 0.276,-0.679C0.325,-0.679 0.362,-0.673 0.385,-0.66C0.408,-0.647 0.42,-0.624 0.42,-0.593C0.42,-0.58 0.417,-0.568 0.412,-0.557C0.406,-0.546 0.4,-0.538 0.393,-0.533C0.38,-0.536 0.367,-0.539 0.354,-0.542C0.34,-0.544 0.324,-0.545 0.306,-0.545C0.277,-0.545 0.255,-0.54 0.239,-0.531C0.223,-0.521 0.215,-0.504 0.215,-0.48L0.215,-0.448L0.379,-0.448C0.383,-0.441 0.387,-0.432 0.391,-0.421C0.394,-0.409 0.396,-0.397 0.396,-0.384C0.396,-0.361 0.391,-0.344 0.381,-0.334C0.37,-0.323 0.356,-0.318 0.339,-0.318L0.224,-0.318L0.224,-0.001C0.217,0.001 0.207,0.003 0.193,0.005C0.178,0.007 0.163,0.008 0.148,0.008C0.133,0.008 0.12,0.007 0.109,0.005C0.097,0.003 0.087,-0.001 0.079,-0.007C0.071,-0.013 0.065,-0.021 0.061,-0.032C0.056,-0.042 0.054,-0.055 0.054,-0.072L0.054,-0.486Z" style="fill:rgb(0,100,65);fill-rule:nonzero;"/>
                    </g>
                    <g transform="matrix(12,0,0,12,286.777,6318.85)">
                        <path d="M0.048,-0.621C0.048,-0.646 0.056,-0.668 0.074,-0.685C0.091,-0.702 0.113,-0.711 0.141,-0.711C0.169,-0.711 0.192,-0.702 0.209,-0.685C0.226,-0.668 0.234,-0.646 0.234,-0.621C0.234,-0.596 0.226,-0.574 0.209,-0.557C0.192,-0.54 0.169,-0.531 0.141,-0.531C0.113,-0.531 0.091,-0.54 0.074,-0.557C0.056,-0.574 0.048,-0.596 0.048,-0.621ZM0.226,-0.001C0.219,0 0.208,0.002 0.194,0.005C0.179,0.007 0.165,0.008 0.15,0.008C0.135,0.008 0.122,0.007 0.111,0.005C0.099,0.003 0.089,-0.001 0.081,-0.007C0.073,-0.013 0.067,-0.021 0.063,-0.032C0.058,-0.042 0.056,-0.055 0.056,-0.072L0.056,-0.479C0.063,-0.48 0.074,-0.482 0.089,-0.485C0.103,-0.487 0.117,-0.488 0.132,-0.488C0.147,-0.488 0.16,-0.487 0.172,-0.485C0.183,-0.483 0.193,-0.479 0.201,-0.473C0.209,-0.467 0.215,-0.459 0.22,-0.449C0.224,-0.438 0.226,-0.425 0.226,-0.408L0.226,-0.001Z" style="fill:rgb(0,100,65);fill-rule:nonzero;"/>
                    </g>
                    <g transform="matrix(12,0,0,12,292.561,6318.85)">
                        <path d="M0.048,-0.621C0.048,-0.646 0.056,-0.668 0.074,-0.685C0.091,-0.702 0.113,-0.711 0.141,-0.711C0.169,-0.711 0.192,-0.702 0.209,-0.685C0.226,-0.668 0.234,-0.646 0.234,-0.621C0.234,-0.596 0.226,-0.574 0.209,-0.557C0.192,-0.54 0.169,-0.531 0.141,-0.531C0.113,-0.531 0.091,-0.54 0.074,-0.557C0.056,-0.574 0.048,-0.596 0.048,-0.621ZM0.226,-0.001C0.219,0 0.208,0.002 0.194,0.005C0.179,0.007 0.165,0.008 0.15,0.008C0.135,0.008 0.122,0.007 0.111,0.005C0.099,0.003 0.089,-0.001 0.081,-0.007C0.073,-0.013 0.067,-0.021 0.063,-0.032C0.058,-0.042 0.056,-0.055 0.056,-0.072L0.056,-0.479C0.063,-0.48 0.074,-0.482 0.089,-0.485C0.103,-0.487 0.117,-0.488 0.132,-0.488C0.147,-0.488 0.16,-0.487 0.172,-0.485C0.183,-0.483 0.193,-0.479 0.201,-0.473C0.209,-0.467 0.215,-0.459 0.22,-0.449C0.224,-0.438 0.226,-0.425 0.226,-0.408L0.226,-0.001Z" style="fill:rgb(0,100,65);fill-rule:nonzero;"/>
                    </g>
                    <g transform="matrix(12,0,0,12,295.945,6318.85)">
                        <path d="M0.462,-0.145C0.462,-0.094 0.443,-0.055 0.405,-0.026C0.367,0.003 0.311,0.017 0.237,0.017C0.209,0.017 0.183,0.015 0.159,0.011C0.135,0.007 0.115,0.001 0.098,-0.008C0.081,-0.016 0.067,-0.026 0.058,-0.039C0.048,-0.052 0.043,-0.067 0.043,-0.084C0.043,-0.1 0.046,-0.114 0.053,-0.125C0.06,-0.136 0.068,-0.145 0.077,-0.152C0.096,-0.141 0.119,-0.132 0.144,-0.124C0.169,-0.115 0.197,-0.111 0.23,-0.111C0.251,-0.111 0.267,-0.114 0.278,-0.12C0.289,-0.126 0.294,-0.134 0.294,-0.144C0.294,-0.153 0.29,-0.161 0.282,-0.166C0.274,-0.171 0.261,-0.176 0.242,-0.179L0.212,-0.185C0.154,-0.196 0.111,-0.214 0.083,-0.239C0.054,-0.263 0.04,-0.298 0.04,-0.343C0.04,-0.368 0.045,-0.39 0.056,-0.41C0.067,-0.43 0.082,-0.447 0.101,-0.46C0.12,-0.473 0.143,-0.484 0.171,-0.491C0.198,-0.498 0.227,-0.502 0.26,-0.502C0.285,-0.502 0.308,-0.5 0.33,-0.497C0.351,-0.493 0.37,-0.487 0.386,-0.48C0.402,-0.473 0.415,-0.463 0.424,-0.452C0.433,-0.44 0.438,-0.426 0.438,-0.41C0.438,-0.395 0.435,-0.382 0.43,-0.371C0.424,-0.36 0.417,-0.35 0.408,-0.343C0.403,-0.346 0.395,-0.35 0.384,-0.354C0.373,-0.357 0.362,-0.361 0.349,-0.364C0.336,-0.367 0.324,-0.369 0.311,-0.371C0.298,-0.373 0.286,-0.374 0.275,-0.374C0.253,-0.374 0.236,-0.372 0.224,-0.367C0.212,-0.362 0.206,-0.354 0.206,-0.343C0.206,-0.336 0.209,-0.33 0.216,-0.325C0.223,-0.32 0.235,-0.316 0.254,-0.312L0.285,-0.305C0.349,-0.29 0.395,-0.27 0.422,-0.245C0.448,-0.219 0.462,-0.186 0.462,-0.145Z" style="fill:rgb(0,100,65);fill-rule:nonzero;"/>
                    </g>
                </g>
                <g transform="matrix(2.77245,0,0,14.8524,-261.525,-93294.9)">
                    <g transform="matrix(12,0,0,12,217.225,6318.85)">
                        <path d="M0.037,-0.466C0.032,-0.473 0.028,-0.483 0.024,-0.496C0.02,-0.509 0.018,-0.522 0.018,-0.536C0.018,-0.562 0.024,-0.581 0.036,-0.592C0.047,-0.603 0.062,-0.609 0.081,-0.609L0.517,-0.609C0.522,-0.602 0.526,-0.592 0.53,-0.579C0.534,-0.566 0.536,-0.553 0.536,-0.539C0.536,-0.513 0.53,-0.494 0.519,-0.483C0.507,-0.472 0.492,-0.466 0.473,-0.466L0.362,-0.466L0.362,-0.004C0.355,-0.002 0.343,0 0.328,0.002C0.312,0.004 0.296,0.005 0.281,0.005C0.266,0.005 0.252,0.004 0.241,0.002C0.229,-0.001 0.219,-0.005 0.211,-0.011C0.203,-0.017 0.197,-0.025 0.193,-0.036C0.189,-0.047 0.187,-0.061 0.187,-0.078L0.187,-0.466L0.037,-0.466Z" style="fill:rgb(0,167,109);fill-rule:nonzero;"/>
                    </g>
                    <g transform="matrix(12,0,0,12,223.897,6318.85)">
                        <path d="M0.532,-0.001C0.525,0.001 0.515,0.003 0.501,0.005C0.486,0.007 0.471,0.008 0.456,0.008C0.441,0.008 0.428,0.007 0.417,0.005C0.405,0.003 0.395,-0.001 0.387,-0.007C0.379,-0.013 0.373,-0.021 0.369,-0.032C0.364,-0.042 0.362,-0.055 0.362,-0.072L0.362,-0.294C0.362,-0.321 0.355,-0.341 0.342,-0.352C0.328,-0.363 0.311,-0.368 0.291,-0.368C0.278,-0.368 0.265,-0.366 0.253,-0.363C0.241,-0.36 0.231,-0.356 0.224,-0.351L0.224,-0.001C0.217,0.001 0.207,0.003 0.193,0.005C0.178,0.007 0.163,0.008 0.148,0.008C0.133,0.008 0.12,0.007 0.109,0.005C0.097,0.003 0.087,-0.001 0.079,-0.007C0.071,-0.013 0.065,-0.021 0.061,-0.032C0.056,-0.042 0.054,-0.055 0.054,-0.072L0.054,-0.652C0.061,-0.653 0.072,-0.655 0.087,-0.658C0.101,-0.66 0.115,-0.661 0.13,-0.661C0.145,-0.661 0.158,-0.66 0.17,-0.658C0.181,-0.656 0.191,-0.652 0.199,-0.646C0.207,-0.64 0.213,-0.632 0.218,-0.622C0.222,-0.611 0.224,-0.598 0.224,-0.581L0.224,-0.483C0.233,-0.486 0.246,-0.49 0.264,-0.495C0.281,-0.499 0.301,-0.501 0.322,-0.501C0.388,-0.501 0.44,-0.485 0.477,-0.452C0.514,-0.419 0.532,-0.369 0.532,-0.304L0.532,-0.001Z" style="fill:rgb(0,167,109);fill-rule:nonzero;"/>
                    </g>
                    <g transform="matrix(12,0,0,12,230.917,6318.85)">
                        <path d="M0.309,0.016C0.27,0.016 0.233,0.011 0.2,-0.001C0.166,-0.012 0.136,-0.028 0.112,-0.05C0.087,-0.072 0.067,-0.1 0.053,-0.133C0.038,-0.166 0.031,-0.205 0.031,-0.25C0.031,-0.294 0.038,-0.332 0.053,-0.364C0.067,-0.395 0.086,-0.421 0.109,-0.442C0.132,-0.462 0.159,-0.477 0.189,-0.487C0.219,-0.496 0.25,-0.501 0.281,-0.501C0.316,-0.501 0.349,-0.496 0.378,-0.485C0.407,-0.474 0.432,-0.46 0.453,-0.441C0.474,-0.422 0.49,-0.4 0.502,-0.374C0.513,-0.348 0.519,-0.32 0.519,-0.289C0.519,-0.266 0.513,-0.249 0.5,-0.237C0.487,-0.225 0.47,-0.217 0.447,-0.214L0.2,-0.177C0.207,-0.155 0.222,-0.139 0.245,-0.128C0.268,-0.117 0.294,-0.111 0.323,-0.111C0.35,-0.111 0.376,-0.115 0.401,-0.122C0.425,-0.129 0.445,-0.137 0.46,-0.146C0.471,-0.139 0.48,-0.13 0.487,-0.118C0.494,-0.106 0.498,-0.093 0.498,-0.08C0.498,-0.05 0.484,-0.028 0.456,-0.013C0.435,-0.002 0.411,0.006 0.384,0.01C0.357,0.014 0.332,0.016 0.309,0.016ZM0.281,-0.377C0.265,-0.377 0.251,-0.374 0.24,-0.369C0.228,-0.364 0.218,-0.357 0.211,-0.349C0.204,-0.34 0.198,-0.331 0.195,-0.321C0.191,-0.31 0.189,-0.3 0.188,-0.289L0.359,-0.317C0.357,-0.33 0.35,-0.344 0.337,-0.357C0.324,-0.37 0.306,-0.377 0.281,-0.377Z" style="fill:rgb(0,167,109);fill-rule:nonzero;"/>
                    </g>
                    <g transform="matrix(12,0,0,12,239.905,6318.85)">
                        <path d="M0.377,-0.013C0.368,-0.006 0.354,0 0.336,0.005C0.318,0.01 0.298,0.012 0.275,0.012C0.249,0.012 0.227,0.009 0.208,0.002C0.189,-0.005 0.175,-0.015 0.168,-0.03C0.162,-0.041 0.155,-0.057 0.147,-0.078C0.138,-0.098 0.129,-0.121 0.12,-0.146C0.111,-0.17 0.101,-0.197 0.091,-0.226C0.081,-0.255 0.071,-0.283 0.063,-0.311C0.054,-0.339 0.045,-0.366 0.038,-0.392C0.031,-0.418 0.025,-0.441 0.02,-0.461C0.029,-0.47 0.042,-0.478 0.058,-0.486C0.073,-0.493 0.09,-0.496 0.109,-0.496C0.132,-0.496 0.152,-0.491 0.167,-0.482C0.182,-0.472 0.193,-0.454 0.2,-0.427L0.239,-0.274C0.246,-0.244 0.253,-0.217 0.26,-0.193C0.267,-0.168 0.272,-0.149 0.275,-0.136L0.28,-0.136C0.293,-0.185 0.306,-0.24 0.32,-0.3C0.334,-0.36 0.347,-0.419 0.358,-0.477C0.369,-0.483 0.382,-0.488 0.397,-0.491C0.411,-0.494 0.425,-0.496 0.438,-0.496C0.461,-0.496 0.481,-0.491 0.497,-0.481C0.513,-0.471 0.521,-0.454 0.521,-0.429C0.521,-0.418 0.519,-0.403 0.514,-0.383C0.509,-0.362 0.502,-0.339 0.495,-0.314C0.487,-0.288 0.478,-0.261 0.468,-0.232C0.457,-0.203 0.447,-0.175 0.436,-0.148C0.425,-0.121 0.415,-0.095 0.405,-0.072C0.394,-0.048 0.385,-0.028 0.377,-0.013Z" style="fill:rgb(0,167,109);fill-rule:nonzero;"/>
                    </g>
                    <g transform="matrix(12,0,0,12,246.325,6318.85)">
                        <path d="M0.26,-0.108C0.271,-0.108 0.284,-0.109 0.298,-0.112C0.311,-0.114 0.321,-0.117 0.328,-0.121L0.328,-0.201L0.256,-0.195C0.237,-0.194 0.222,-0.19 0.21,-0.183C0.198,-0.176 0.192,-0.166 0.192,-0.153C0.192,-0.14 0.197,-0.129 0.208,-0.121C0.218,-0.112 0.235,-0.108 0.26,-0.108ZM0.252,-0.501C0.288,-0.501 0.321,-0.497 0.351,-0.49C0.38,-0.483 0.405,-0.472 0.427,-0.457C0.448,-0.442 0.464,-0.423 0.475,-0.4C0.486,-0.377 0.492,-0.349 0.492,-0.318L0.492,-0.094C0.492,-0.077 0.487,-0.063 0.478,-0.052C0.468,-0.041 0.456,-0.031 0.443,-0.023C0.4,0.003 0.339,0.016 0.26,0.016C0.225,0.016 0.193,0.013 0.165,0.006C0.136,-0.001 0.112,-0.011 0.092,-0.024C0.071,-0.037 0.055,-0.054 0.045,-0.075C0.034,-0.096 0.028,-0.12 0.028,-0.147C0.028,-0.193 0.042,-0.228 0.069,-0.253C0.096,-0.278 0.139,-0.293 0.196,-0.299L0.327,-0.313L0.327,-0.32C0.327,-0.339 0.319,-0.353 0.302,-0.362C0.285,-0.37 0.26,-0.374 0.228,-0.374C0.203,-0.374 0.178,-0.371 0.154,-0.366C0.13,-0.361 0.108,-0.354 0.089,-0.346C0.08,-0.352 0.073,-0.361 0.067,-0.374C0.061,-0.386 0.058,-0.399 0.058,-0.412C0.058,-0.429 0.062,-0.443 0.071,-0.454C0.079,-0.464 0.092,-0.473 0.109,-0.48C0.128,-0.487 0.151,-0.493 0.178,-0.496C0.204,-0.499 0.229,-0.501 0.252,-0.501Z" style="fill:rgb(0,167,109);fill-rule:nonzero;"/>
                    </g>
                    <g transform="matrix(12,0,0,12,252.853,6318.85)">
                        <path d="M0.225,-0.001C0.218,0 0.207,0.002 0.193,0.005C0.178,0.007 0.164,0.008 0.149,0.008C0.134,0.008 0.121,0.007 0.11,0.005C0.098,0.003 0.088,-0.001 0.08,-0.007C0.072,-0.013 0.066,-0.021 0.062,-0.032C0.057,-0.042 0.055,-0.055 0.055,-0.072L0.055,-0.652C0.062,-0.653 0.073,-0.655 0.088,-0.658C0.102,-0.66 0.116,-0.661 0.131,-0.661C0.146,-0.661 0.159,-0.66 0.171,-0.658C0.182,-0.656 0.192,-0.652 0.2,-0.646C0.208,-0.64 0.214,-0.632 0.219,-0.622C0.223,-0.611 0.225,-0.598 0.225,-0.581L0.225,-0.001Z" style="fill:rgb(0,167,109);fill-rule:nonzero;"/>
                    </g>
                    <g transform="matrix(12,0,0,12,256.213,6318.85)">
                        <path d="M0.052,-0.479C0.059,-0.481 0.069,-0.483 0.084,-0.485C0.098,-0.487 0.113,-0.488 0.128,-0.488C0.143,-0.488 0.156,-0.487 0.168,-0.485C0.179,-0.483 0.189,-0.479 0.197,-0.473C0.205,-0.467 0.211,-0.459 0.216,-0.449C0.22,-0.438 0.222,-0.425 0.222,-0.408L0.222,-0.193C0.222,-0.166 0.229,-0.146 0.242,-0.135C0.255,-0.123 0.275,-0.117 0.3,-0.117C0.315,-0.117 0.328,-0.118 0.338,-0.121C0.347,-0.124 0.355,-0.126 0.36,-0.129L0.36,-0.479C0.367,-0.481 0.377,-0.483 0.392,-0.485C0.406,-0.487 0.421,-0.488 0.436,-0.488C0.451,-0.488 0.464,-0.487 0.476,-0.485C0.487,-0.483 0.497,-0.479 0.505,-0.473C0.513,-0.467 0.519,-0.459 0.524,-0.449C0.528,-0.438 0.53,-0.425 0.53,-0.408L0.53,-0.104C0.53,-0.071 0.516,-0.046 0.488,-0.029C0.465,-0.014 0.437,-0.003 0.405,0.005C0.372,0.012 0.337,0.016 0.299,0.016C0.263,0.016 0.23,0.012 0.2,0.004C0.169,-0.004 0.143,-0.016 0.121,-0.033C0.099,-0.05 0.082,-0.071 0.07,-0.098C0.058,-0.124 0.052,-0.156 0.052,-0.193L0.052,-0.479Z" style="fill:rgb(0,167,109);fill-rule:nonzero;"/>
                    </g>
                    <g transform="matrix(12,0,0,12,263.197,6318.85)">
                        <path d="M0.309,0.016C0.27,0.016 0.233,0.011 0.2,-0.001C0.166,-0.012 0.136,-0.028 0.112,-0.05C0.087,-0.072 0.067,-0.1 0.053,-0.133C0.038,-0.166 0.031,-0.205 0.031,-0.25C0.031,-0.294 0.038,-0.332 0.053,-0.364C0.067,-0.395 0.086,-0.421 0.109,-0.442C0.132,-0.462 0.159,-0.477 0.189,-0.487C0.219,-0.496 0.25,-0.501 0.281,-0.501C0.316,-0.501 0.349,-0.496 0.378,-0.485C0.407,-0.474 0.432,-0.46 0.453,-0.441C0.474,-0.422 0.49,-0.4 0.502,-0.374C0.513,-0.348 0.519,-0.32 0.519,-0.289C0.519,-0.266 0.513,-0.249 0.5,-0.237C0.487,-0.225 0.47,-0.217 0.447,-0.214L0.2,-0.177C0.207,-0.155 0.222,-0.139 0.245,-0.128C0.268,-0.117 0.294,-0.111 0.323,-0.111C0.35,-0.111 0.376,-0.115 0.401,-0.122C0.425,-0.129 0.445,-0.137 0.46,-0.146C0.471,-0.139 0.48,-0.13 0.487,-0.118C0.494,-0.106 0.498,-0.093 0.498,-0.08C0.498,-0.05 0.484,-0.028 0.456,-0.013C0.435,-0.002 0.411,0.006 0.384,0.01C0.357,0.014 0.332,0.016 0.309,0.016ZM0.281,-0.377C0.265,-0.377 0.251,-0.374 0.24,-0.369C0.228,-0.364 0.218,-0.357 0.211,-0.349C0.204,-0.34 0.198,-0.331 0.195,-0.321C0.191,-0.31 0.189,-0.3 0.188,-0.289L0.359,-0.317C0.357,-0.33 0.35,-0.344 0.337,-0.357C0.324,-0.37 0.306,-0.377 0.281,-0.377Z" style="fill:rgb(0,167,109);fill-rule:nonzero;"/>
                    </g>
                    <g transform="matrix(12,0,0,12,272.185,6318.85)">
                        <path d="M0.555,-0.243C0.555,-0.202 0.549,-0.165 0.536,-0.133C0.523,-0.1 0.505,-0.073 0.483,-0.051C0.46,-0.029 0.432,-0.012 0.4,-0.001C0.368,0.01 0.332,0.016 0.293,0.016C0.254,0.016 0.218,0.01 0.186,-0.002C0.154,-0.014 0.127,-0.031 0.104,-0.054C0.081,-0.076 0.063,-0.103 0.05,-0.135C0.037,-0.167 0.031,-0.203 0.031,-0.243C0.031,-0.282 0.037,-0.318 0.05,-0.35C0.063,-0.382 0.081,-0.409 0.104,-0.432C0.127,-0.454 0.154,-0.471 0.186,-0.483C0.218,-0.495 0.254,-0.501 0.293,-0.501C0.332,-0.501 0.368,-0.495 0.4,-0.483C0.432,-0.47 0.46,-0.453 0.483,-0.431C0.505,-0.408 0.523,-0.381 0.536,-0.349C0.549,-0.317 0.555,-0.282 0.555,-0.243ZM0.205,-0.243C0.205,-0.202 0.213,-0.171 0.229,-0.15C0.244,-0.128 0.266,-0.117 0.294,-0.117C0.322,-0.117 0.343,-0.128 0.359,-0.15C0.374,-0.172 0.381,-0.203 0.381,-0.243C0.381,-0.283 0.373,-0.314 0.358,-0.336C0.343,-0.357 0.321,-0.368 0.293,-0.368C0.265,-0.368 0.243,-0.357 0.228,-0.336C0.213,-0.314 0.205,-0.283 0.205,-0.243Z" style="fill:rgb(0,167,109);fill-rule:nonzero;"/>
                    </g>
                    <g transform="matrix(12,0,0,12,279.217,6318.85)">
                        <path d="M0.054,-0.486C0.054,-0.52 0.06,-0.549 0.072,-0.574C0.083,-0.598 0.099,-0.618 0.119,-0.634C0.139,-0.649 0.163,-0.661 0.19,-0.668C0.217,-0.675 0.245,-0.679 0.276,-0.679C0.325,-0.679 0.362,-0.673 0.385,-0.66C0.408,-0.647 0.42,-0.624 0.42,-0.593C0.42,-0.58 0.417,-0.568 0.412,-0.557C0.406,-0.546 0.4,-0.538 0.393,-0.533C0.38,-0.536 0.367,-0.539 0.354,-0.542C0.34,-0.544 0.324,-0.545 0.306,-0.545C0.277,-0.545 0.255,-0.54 0.239,-0.531C0.223,-0.521 0.215,-0.504 0.215,-0.48L0.215,-0.448L0.379,-0.448C0.383,-0.441 0.387,-0.432 0.391,-0.421C0.394,-0.409 0.396,-0.397 0.396,-0.384C0.396,-0.361 0.391,-0.344 0.381,-0.334C0.37,-0.323 0.356,-0.318 0.339,-0.318L0.224,-0.318L0.224,-0.001C0.217,0.001 0.207,0.003 0.193,0.005C0.178,0.007 0.163,0.008 0.148,0.008C0.133,0.008 0.12,0.007 0.109,0.005C0.097,0.003 0.087,-0.001 0.079,-0.007C0.071,-0.013 0.065,-0.021 0.061,-0.032C0.056,-0.042 0.054,-0.055 0.054,-0.072L0.054,-0.486Z" style="fill:rgb(0,167,109);fill-rule:nonzero;"/>
                    </g>
                    <g transform="matrix(12,0,0,12,286.777,6318.85)">
                        <path d="M0.048,-0.621C0.048,-0.646 0.056,-0.668 0.074,-0.685C0.091,-0.702 0.113,-0.711 0.141,-0.711C0.169,-0.711 0.192,-0.702 0.209,-0.685C0.226,-0.668 0.234,-0.646 0.234,-0.621C0.234,-0.596 0.226,-0.574 0.209,-0.557C0.192,-0.54 0.169,-0.531 0.141,-0.531C0.113,-0.531 0.091,-0.54 0.074,-0.557C0.056,-0.574 0.048,-0.596 0.048,-0.621ZM0.226,-0.001C0.219,0 0.208,0.002 0.194,0.005C0.179,0.007 0.165,0.008 0.15,0.008C0.135,0.008 0.122,0.007 0.111,0.005C0.099,0.003 0.089,-0.001 0.081,-0.007C0.073,-0.013 0.067,-0.021 0.063,-0.032C0.058,-0.042 0.056,-0.055 0.056,-0.072L0.056,-0.479C0.063,-0.48 0.074,-0.482 0.089,-0.485C0.103,-0.487 0.117,-0.488 0.132,-0.488C0.147,-0.488 0.16,-0.487 0.172,-0.485C0.183,-0.483 0.193,-0.479 0.201,-0.473C0.209,-0.467 0.215,-0.459 0.22,-0.449C0.224,-0.438 0.226,-0.425 0.226,-0.408L0.226,-0.001Z" style="fill:rgb(0,167,109);fill-rule:nonzero;"/>
                    </g>
                    <g transform="matrix(12,0,0,12,292.561,6318.85)">
                        <path d="M0.048,-0.621C0.048,-0.646 0.056,-0.668 0.074,-0.685C0.091,-0.702 0.113,-0.711 0.141,-0.711C0.169,-0.711 0.192,-0.702 0.209,-0.685C0.226,-0.668 0.234,-0.646 0.234,-0.621C0.234,-0.596 0.226,-0.574 0.209,-0.557C0.192,-0.54 0.169,-0.531 0.141,-0.531C0.113,-0.531 0.091,-0.54 0.074,-0.557C0.056,-0.574 0.048,-0.596 0.048,-0.621ZM0.226,-0.001C0.219,0 0.208,0.002 0.194,0.005C0.179,0.007 0.165,0.008 0.15,0.008C0.135,0.008 0.122,0.007 0.111,0.005C0.099,0.003 0.089,-0.001 0.081,-0.007C0.073,-0.013 0.067,-0.021 0.063,-0.032C0.058,-0.042 0.056,-0.055 0.056,-0.072L0.056,-0.479C0.063,-0.48 0.074,-0.482 0.089,-0.485C0.103,-0.487 0.117,-0.488 0.132,-0.488C0.147,-0.488 0.16,-0.487 0.172,-0.485C0.183,-0.483 0.193,-0.479 0.201,-0.473C0.209,-0.467 0.215,-0.459 0.22,-0.449C0.224,-0.438 0.226,-0.425 0.226,-0.408L0.226,-0.001Z" style="fill:rgb(0,167,109);fill-rule:nonzero;"/>
                    </g>
                    <g transform="matrix(12,0,0,12,295.945,6318.85)">
                        <path d="M0.462,-0.145C0.462,-0.094 0.443,-0.055 0.405,-0.026C0.367,0.003 0.311,0.017 0.237,0.017C0.209,0.017 0.183,0.015 0.159,0.011C0.135,0.007 0.115,0.001 0.098,-0.008C0.081,-0.016 0.067,-0.026 0.058,-0.039C0.048,-0.052 0.043,-0.067 0.043,-0.084C0.043,-0.1 0.046,-0.114 0.053,-0.125C0.06,-0.136 0.068,-0.145 0.077,-0.152C0.096,-0.141 0.119,-0.132 0.144,-0.124C0.169,-0.115 0.197,-0.111 0.23,-0.111C0.251,-0.111 0.267,-0.114 0.278,-0.12C0.289,-0.126 0.294,-0.134 0.294,-0.144C0.294,-0.153 0.29,-0.161 0.282,-0.166C0.274,-0.171 0.261,-0.176 0.242,-0.179L0.212,-0.185C0.154,-0.196 0.111,-0.214 0.083,-0.239C0.054,-0.263 0.04,-0.298 0.04,-0.343C0.04,-0.368 0.045,-0.39 0.056,-0.41C0.067,-0.43 0.082,-0.447 0.101,-0.46C0.12,-0.473 0.143,-0.484 0.171,-0.491C0.198,-0.498 0.227,-0.502 0.26,-0.502C0.285,-0.502 0.308,-0.5 0.33,-0.497C0.351,-0.493 0.37,-0.487 0.386,-0.48C0.402,-0.473 0.415,-0.463 0.424,-0.452C0.433,-0.44 0.438,-0.426 0.438,-0.41C0.438,-0.395 0.435,-0.382 0.43,-0.371C0.424,-0.36 0.417,-0.35 0.408,-0.343C0.403,-0.346 0.395,-0.35 0.384,-0.354C0.373,-0.357 0.362,-0.361 0.349,-0.364C0.336,-0.367 0.324,-0.369 0.311,-0.371C0.298,-0.373 0.286,-0.374 0.275,-0.374C0.253,-0.374 0.236,-0.372 0.224,-0.367C0.212,-0.362 0.206,-0.354 0.206,-0.343C0.206,-0.336 0.209,-0.33 0.216,-0.325C0.223,-0.32 0.235,-0.316 0.254,-0.312L0.285,-0.305C0.349,-0.29 0.395,-0.27 0.422,-0.245C0.448,-0.219 0.462,-0.186 0.462,-0.145Z" style="fill:rgb(0,167,109);fill-rule:nonzero;"/>
                    </g>
                </g>
            </g>
            <g transform="matrix(1.66667,0,0,1,-354.1,-22.8498)">
                <g transform="matrix(0.990206,-0.74795,0.0260619,0.990206,350.645,443.437)">
                    <g transform="matrix(4.61609,0,0,23.5882,-933.059,-148730)">
                        <g transform="matrix(12,0,0,12,256.645,6318.85)">
                            <path d="M0.428,-0.608C0.439,-0.601 0.45,-0.591 0.459,-0.578C0.468,-0.565 0.472,-0.548 0.472,-0.529C0.472,-0.518 0.471,-0.507 0.469,-0.497C0.467,-0.486 0.464,-0.475 0.459,-0.464L0.251,0.007C0.242,0.008 0.233,0.008 0.225,0.008L0.201,0.008C0.171,0.008 0.147,0.002 0.128,-0.009C0.109,-0.02 0.1,-0.04 0.1,-0.068C0.1,-0.082 0.103,-0.097 0.11,-0.114C0.117,-0.13 0.126,-0.149 0.137,-0.172L0.283,-0.471L0.038,-0.471C0.034,-0.478 0.03,-0.488 0.026,-0.5C0.022,-0.512 0.02,-0.525 0.02,-0.538C0.02,-0.563 0.026,-0.581 0.037,-0.592C0.048,-0.603 0.063,-0.608 0.08,-0.608L0.428,-0.608Z" style="fill:rgb(0,100,65);fill-rule:nonzero;"/>
                        </g>
                    </g>
                    <g transform="matrix(4.61609,0,0,23.5882,-935.107,-148730)">
                        <g transform="matrix(12,0,0,12,256.645,6318.85)">
                            <path d="M0.428,-0.608C0.439,-0.601 0.45,-0.591 0.459,-0.578C0.468,-0.565 0.472,-0.548 0.472,-0.529C0.472,-0.518 0.471,-0.507 0.469,-0.497C0.467,-0.486 0.464,-0.475 0.459,-0.464L0.251,0.007C0.242,0.008 0.233,0.008 0.225,0.008L0.201,0.008C0.171,0.008 0.147,0.002 0.128,-0.009C0.109,-0.02 0.1,-0.04 0.1,-0.068C0.1,-0.082 0.103,-0.097 0.11,-0.114C0.117,-0.13 0.126,-0.149 0.137,-0.172L0.283,-0.471L0.038,-0.471C0.034,-0.478 0.03,-0.488 0.026,-0.5C0.022,-0.512 0.02,-0.525 0.02,-0.538C0.02,-0.563 0.026,-0.581 0.037,-0.592C0.048,-0.603 0.063,-0.608 0.08,-0.608L0.428,-0.608Z" style="fill:rgb(0,167,109);fill-rule:nonzero;"/>
                        </g>
                    </g>
                </g>
                <g transform="matrix(0.170309,0.235447,-0.0439501,0.912369,534.801,-154.862)">
                    <path d="M673.282,545.792C663.707,545.483 657.529,532.819 657.529,525.097C657.529,511.197 659.382,494.826 669.575,487.722C690.579,473.205 707.259,546.1 673.282,545.792Z" style="fill:rgb(172,163,155);fill-rule:nonzero;"/>
                </g>
                <g transform="matrix(0.17054,0.230604,-0.0430461,0.913605,540.462,-96.661)">
                    <path d="M554.79,545.792C520.813,546.1 537.492,473.205 558.496,487.722C568.689,494.826 570.543,511.197 570.543,525.097C570.543,532.819 564.365,545.483 554.79,545.792Z" style="fill:rgb(172,163,155);fill-rule:nonzero;"/>
                </g>
            </g>
            <g transform="matrix(1.70667,0,0,5.48571,-336.699,-34153.9)">
                <path d="M663.965,6331.88C667.873,6331.88 671.621,6333.44 674.384,6336.2C677.147,6338.96 678.699,6342.71 678.699,6346.62C678.699,6346.62 678.699,6346.62 678.699,6346.62C678.699,6350.53 677.147,6354.27 674.384,6357.04C671.621,6359.8 667.873,6361.35 663.965,6361.35C605.369,6361.35 389.2,6361.35 330.604,6361.35C326.696,6361.35 322.948,6359.8 320.185,6357.04C317.422,6354.27 315.87,6350.53 315.87,6346.62C315.87,6346.62 315.87,6346.62 315.87,6346.62C315.87,6342.71 317.422,6338.96 320.185,6336.2C322.948,6333.44 326.696,6331.88 330.604,6331.88C389.2,6331.88 605.369,6331.88 663.965,6331.88Z" style="fill:rgb(65,65,65);"/>
                <path d="M663.965,6327.88C668.934,6327.88 673.699,6329.86 677.212,6333.37C680.726,6336.88 682.699,6341.65 682.699,6346.62C682.699,6351.59 680.726,6356.35 677.212,6359.86C673.699,6363.38 668.934,6365.35 663.965,6365.35L330.604,6365.35C325.635,6365.35 320.87,6363.38 317.357,6359.86C313.843,6356.35 311.87,6351.59 311.87,6346.62C311.87,6341.65 313.843,6336.88 317.357,6333.37C320.87,6329.86 325.635,6327.88 330.604,6327.88L663.965,6327.88ZM663.965,6331.88L330.604,6331.88C326.696,6331.88 322.948,6333.44 320.185,6336.2C317.422,6338.96 315.87,6342.71 315.87,6346.62C315.87,6350.53 317.422,6354.27 320.185,6357.04C322.948,6359.8 326.696,6361.35 330.604,6361.35L663.965,6361.35C667.873,6361.35 671.621,6359.8 674.384,6357.04C677.147,6354.27 678.699,6350.53 678.699,6346.62C678.699,6342.71 677.147,6338.96 674.384,6336.2C671.621,6333.44 667.873,6331.88 663.965,6331.88Z" style="fill:rgb(5,5,5);"/>
            </g>
            <g transform="matrix(2.42597,0,0,7.79775,-1007.19,-48511.3)">
                <circle cx="508.963" cy="6306.07" r="10.366" style="fill:rgb(111,116,114);"/>
            </g>
            <g transform="matrix(2.42597,0,0,7.79775,-438.259,-48511.3)">
                <circle cx="508.963" cy="6306.07" r="10.366" style="fill:rgb(111,116,114);"/>
            </g>
            <g transform="matrix(2.42597,0,0,7.79775,-893.407,-48511.3)">
                <circle cx="508.963" cy="6306.07" r="10.366" style="fill:rgb(111,116,114);"/>
            </g>
            <g transform="matrix(2.42597,0,0,7.79775,-779.62,-48511.3)">
                <circle cx="508.963" cy="6306.07" r="10.366" style="fill:rgb(111,116,114);"/>
            </g>
            <g transform="matrix(2.42597,0,0,7.79775,-665.833,-48511.3)">
                <circle cx="508.963" cy="6306.07" r="10.366" style="fill:rgb(111,116,114);"/>
            </g>
            <g transform="matrix(2.42597,0,0,7.79775,-552.046,-48511.3)">
                <circle cx="508.963" cy="6306.07" r="10.366" style="fill:rgb(111,116,114);"/>
            </g>
        </g>
    </g>
    <defs>
        <linearGradient id="_Linear1" x1="0" y1="0" x2="1" y2="0" gradientUnits="userSpaceOnUse" gradientTransform="matrix(619.975,0,0,792.896,100.437,398.61)"><stop offset="0" style="stop-color:rgb(15,123,193);stop-opacity:1"/><stop offset="1" style="stop-color:rgb(91,203,245);stop-opacity:1"/></linearGradient>
    </defs>
</svg>
