<?xml version="1.0" encoding="UTF-8" standalone="no"?>
<!DOCTYPE svg PUBLIC "-//W3C//DTD SVG 1.1//EN" "http://www.w3.org/Graphics/SVG/1.1/DTD/svg11.dtd">
<svg width="100%" height="100%" viewBox="0 0 1001 591" version="1.1" xmlns="http://www.w3.org/2000/svg" xmlns:xlink="http://www.w3.org/1999/xlink" xml:space="preserve" xmlns:serif="http://www.serif.com/" style="fill-rule:evenodd;clip-rule:evenodd;stroke-linejoin:round;stroke-miterlimit:2;">
    <g transform="matrix(1,0,0,1,-1030,0)">
        <g id="Toolbox" transform="matrix(0.976562,0,0,0.768911,1030.68,0)">
            <rect x="0" y="0" width="1024" height="768" style="fill:none;"/>
            <g id="Gopher" transform="matrix(0.588113,0,0,0.746939,270.624,42.5221)">
                <path d="M381.081,363.552C378.301,364.788 373.668,395.058 387.876,396.602C397.452,397.529 423.707,400.618 429.884,396.602C441.931,388.88 440.695,370.347 433.9,365.714C422.471,358.301 384.17,362.008 381.081,363.552ZM302.625,136.834C270.811,133.127 217.375,162.78 209.344,225.792C200.695,291.274 277.915,356.139 352.046,291.274C391.892,256.371 405.792,148.88 302.625,136.834ZM517.606,136.834C414.44,148.88 428.34,256.371 468.185,291.274C542.317,356.139 619.537,291.274 610.888,225.792C603.166,162.78 549.73,133.127 517.606,136.834Z" style="fill:white;fill-rule:nonzero;"/>
                <path d="M715.598,106.873C739.382,155.985 667.104,161.236 670.811,183.166C677.606,222.703 672.973,281.39 667.722,339.151C658.764,437.066 731.969,671.506 579.382,765.714C550.656,783.629 482.394,793.514 415.058,795.058L414.44,795.058C347.104,793.514 269.575,783.629 240.849,765.714C88.571,671.506 161.776,437.066 153.127,339.151C147.568,281.39 142.934,222.703 150.039,183.166C153.745,161.236 81.467,156.293 105.251,106.873C125.637,64.556 175.985,101.931 188.649,88.649C253.205,21.622 331.66,3.707 393.436,2.162L427.413,2.162C488.88,5.251 567.336,21.931 632.201,88.649C644.865,101.931 694.903,64.556 715.598,106.873ZM381.081,363.552C378.301,364.788 373.668,395.058 387.876,396.602C397.452,397.529 423.707,400.618 429.884,396.602C441.931,388.88 440.695,370.347 433.9,365.714C422.471,358.301 384.17,362.008 381.081,363.552ZM302.625,136.834C270.811,133.127 217.375,162.78 209.344,225.792C200.695,291.274 277.915,356.139 352.046,291.274C391.892,256.371 405.792,148.88 302.625,136.834ZM517.606,136.834C414.44,148.88 428.34,256.371 468.185,291.274C542.317,356.139 619.537,291.274 610.888,225.792C603.166,162.78 549.73,133.127 517.606,136.834Z" style="fill:url(#_Linear1);fill-rule:nonzero;"/>
                <path d="M410.425,299.614C429.884,296.834 476.525,319.073 473.436,345.328C469.73,375.907 353.282,379.923 347.104,343.475C343.398,321.236 361.004,307.027 410.425,299.614ZM608.726,769.73C614.903,778.687 615.212,784.865 605.328,789.498C567.645,806.795 533.977,783.629 546.641,777.143C573.514,763.552 590.193,742.239 608.726,769.73ZM211.815,772.819C230.347,745.328 247.027,766.641 273.9,780.232C286.564,786.718 252.896,809.884 215.212,792.587C205.328,787.954 205.637,781.776 211.815,772.819Z" style="fill:rgb(172,163,155);fill-rule:nonzero;"/>
                <path d="M657.838,114.286C659.382,107.799 675.444,104.71 684.402,115.83C695.212,129.112 668.649,147.336 667.413,139.923C664.324,119.846 655.985,120.772 657.838,114.286ZM162.703,114.286C164.556,120.772 156.216,119.846 153.127,139.923C151.892,147.336 125.328,129.112 136.139,115.83C144.788,104.71 160.849,107.799 162.703,114.286ZM524.71,264.71C505.263,264.71 489.498,248.945 489.498,229.498C489.498,210.051 505.263,194.286 524.71,194.286C544.158,194.286 559.923,210.051 559.923,229.498C559.923,248.945 544.158,264.71 524.71,264.71ZM515.444,225.483C521.585,225.483 526.564,220.504 526.564,214.363C526.564,208.222 521.585,203.243 515.444,203.243C509.303,203.243 504.324,208.222 504.324,214.363C504.324,220.504 509.303,225.483 515.444,225.483ZM378.61,314.44C382.317,300.232 395.29,295.598 405.792,295.29C432.664,294.672 442.857,309.189 443.784,320.618C445.637,340.077 370.27,344.71 378.61,314.44ZM295.83,264.71C276.383,264.71 260.618,248.945 260.618,229.498C260.618,210.051 276.383,194.286 295.83,194.286C315.277,194.286 331.042,210.051 331.042,229.498C331.042,248.945 315.277,264.71 295.83,264.71ZM305.097,225.483C311.238,225.483 316.216,220.504 316.216,214.363C316.216,208.222 311.238,203.243 305.097,203.243C298.955,203.243 293.977,208.222 293.977,214.363C293.977,220.504 298.955,225.483 305.097,225.483Z" style="fill:rgb(65,65,65);fill-rule:nonzero;"/>
            </g>
            <g id="toolbox" transform="matrix(0.399197,0,0,0.507004,353.559,354.101)">
                <rect x="0" y="0" width="793.798" height="793.798" style="fill:none;"/>
                <g>
                    <g transform="matrix(1.7826,0,0,0.800182,-44949,-1938.43)">
                        <path d="M25399.3,2589.29L25399.3,2479.48C25399.3,2470.92 25402.4,2463.98 25406.3,2463.98L25469.8,2463.98C25473.6,2463.98 25476.8,2470.92 25476.8,2479.48L25476.8,2589.29C25476.8,2597.84 25479.9,2604.79 25483.7,2604.79C25487.6,2604.79 25490.7,2597.84 25490.7,2589.29L25490.7,2479.48C25490.7,2453.8 25481.3,2432.98 25469.8,2432.98L25406.3,2432.98C25394.7,2432.98 25385.4,2453.8 25385.4,2479.48L25385.4,2589.29C25385.4,2597.84 25388.5,2604.79 25392.4,2604.79C25396.2,2604.79 25399.3,2597.84 25399.3,2589.29Z" style="fill:rgb(51,51,51);"/>
                    </g>
                    <g transform="matrix(1.08182,0,0,1.08182,-25463.1,-2642.08)">
                        <path d="M24166.8,2848.68L23641.5,2848.68L23591.9,2931.26L23591.9,3122.39C23591.9,3131.51 23595.5,3140.26 23602,3146.71C23608.4,3153.16 23617.2,3156.79 23626.3,3156.79L24182,3156.79C24191.2,3156.79 24199.9,3153.16 24206.4,3146.71C24212.8,3140.26 24216.4,3131.51 24216.4,3122.39L24216.4,2931.26L24166.8,2848.68Z" style="fill:rgb(65,65,65);"/>
                    </g>
                    <g transform="matrix(1.08182,0,0,-1.08182,-25463.1,3521.44)">
                        <path d="M24166.8,2848.68L23641.5,2848.68L23591.9,2931.26L23591.9,3122.39C23591.9,3131.51 23595.5,3140.26 23602,3146.71C23608.4,3153.16 23617.2,3156.79 23626.3,3156.79L24182,3156.79C24191.2,3156.79 24199.9,3153.16 24206.4,3146.71C24212.8,3140.26 24216.4,3131.51 24216.4,3122.39L24216.4,2931.26L24166.8,2848.68Z" style="fill:rgb(65,65,65);"/>
                    </g>
                    <g transform="matrix(1,0,0,1,-44880,-55614)">
                        <path d="M44939.1,55803.1L44939.1,55757.5C44939.1,55747.7 44943,55738.2 44950,55731.2C44957,55724.2 44966.5,55720.3 44976.3,55720.3L45577.6,55720.3C45587.4,55720.3 45596.8,55724.2 45603.8,55731.2C45610.8,55738.2 45614.8,55747.7 45614.8,55757.5L45614.8,55964.3L45614.8,55803.1C45614.8,55793.2 45610.8,55783.8 45603.8,55776.8C45596.8,55769.8 45587.4,55765.9 45577.6,55765.9L44976.3,55765.9C44966.5,55765.9 44957,55769.8 44950,55776.8C44943,55783.8 44939.1,55793.2 44939.1,55803.1Z" style="fill:rgb(32,32,32);"/>
                    </g>
                    <g>
                        <g transform="matrix(1.08182,0,0,1.08182,-25444.5,-2642.08)">
                            <path d="M23633.7,2611.93L23671.3,2611.93C23677.6,2611.93 23682.8,2606.79 23682.8,2600.47C23682.8,2594.13 23677.6,2589 23671.3,2589L23633.7,2589C23621.1,2589 23610.8,2599.26 23610.8,2611.93L23610.8,2752.67C23610.8,2758.99 23615.9,2764.14 23622.3,2764.14C23628.6,2764.14 23633.7,2758.99 23633.7,2752.67L23633.7,2611.93Z" style="fill:rgb(158,158,158);"/>
                        </g>
                        <g transform="matrix(1.08182,0,0,1.08182,-25392.8,-2590.24)">
                            <path d="M23633.7,2611.93L23671.3,2611.93C23677.6,2611.93 23682.8,2606.79 23682.8,2600.47C23682.8,2594.13 23677.6,2589 23671.3,2589L23633.7,2589C23627.7,2589 23621.8,2591.41 23617.5,2595.72C23613.2,2600.01 23610.8,2605.85 23610.8,2611.93L23610.8,2704.76C23610.8,2711.08 23615.9,2716.22 23622.3,2716.22C23628.6,2716.22 23633.7,2711.08 23633.7,2704.76L23633.7,2611.93Z" style="fill:rgb(158,158,158);"/>
                        </g>
                        <g transform="matrix(1.08182,0,0,1.08182,-25341.1,-2531.03)">
                            <path d="M23633.7,2611.93L23655.9,2611.93C23662.2,2611.93 23667.3,2606.79 23667.3,2600.47C23667.3,2594.13 23662.2,2589 23655.9,2589L23633.7,2589C23627.7,2589 23621.8,2591.41 23617.5,2595.72C23613.2,2600.01 23610.8,2605.85 23610.8,2611.93L23610.8,2650.02C23610.8,2656.35 23615.9,2661.48 23622.3,2661.48C23628.6,2661.48 23633.7,2656.35 23633.7,2650.02L23633.7,2611.93Z" style="fill:rgb(158,158,158);"/>
                        </g>
                        <g transform="matrix(1,0,0,1,-44880,-55614)">
                            <path d="M44991.8,55962.1L44991.8,55811C44991.8,55797.3 45002.9,55786.2 45016.6,55786.2L45056.1,55786.2C45056.1,55785.9 45056.1,55785.5 45056.1,55785.1C45056.1,55778.2 45050.5,55772.7 45043.7,55772.7L45003,55772.7C44989.3,55772.7 44978.2,55783.8 44978.2,55797.5L44978.2,55949.8C44978.2,55956.6 44983.8,55962.2 44990.6,55962.2C44991,55962.2 44991.4,55962.1 44991.8,55962.1Z" style="fill:rgb(182,182,182);"/>
                        </g>
                        <g transform="matrix(1,0,0,1,-44880,-55614)">
                            <path d="M45043.5,55962.1L45043.5,55862.9C45043.5,55856.3 45046.1,55850 45050.7,55845.3C45055.4,55840.7 45061.6,55838.1 45068.3,55838.1L45107.7,55838.1C45107.8,55837.7 45107.8,55837.3 45107.8,55836.9C45107.8,55830.1 45102.3,55824.5 45095.4,55824.5L45054.7,55824.5C45048.1,55824.5 45041.8,55827.2 45037.1,55831.8C45032.5,55836.5 45029.9,55842.7 45029.9,55849.3L45029.9,55949.8C45029.9,55956.6 45035.5,55962.2 45042.3,55962.2C45042.7,55962.2 45043,55962.1 45043.5,55962.1Z" style="fill:rgb(182,182,182);"/>
                        </g>
                        <g transform="matrix(1,0,0,1,-44880,-55614)">
                            <path d="M45095.1,55962.1L45095.1,55922.1C45095.1,55915.5 45097.7,55909.2 45102.4,55904.6C45107,55899.9 45113.4,55897.3 45119.9,55897.3L45142.7,55897.3C45142.8,55896.9 45142.8,55896.5 45142.8,55896.1C45142.8,55889.3 45137.2,55883.7 45130.4,55883.7L45106.4,55883.7C45099.8,55883.7 45093.5,55886.3 45088.9,55891C45084.2,55895.6 45081.6,55902 45081.6,55908.5L45081.6,55949.8C45081.6,55956.6 45087.1,55962.2 45094,55962.2C45094.4,55962.2 45094.8,55962.1 45095.1,55962.1Z" style="fill:rgb(182,182,182);"/>
                        </g>
                    </g>
                    <g>
                        <g transform="matrix(1.08182,0,0,1.08182,-25431.8,-2642.08)">
                            <path d="M23856.6,2599.91C23856.6,2593.83 23854.1,2587.99 23849.9,2583.7C23845.5,2579.39 23839.7,2576.98 23833.6,2576.98L23831.4,2576.98C23825.3,2576.98 23819.5,2579.39 23815.2,2583.7C23810.9,2587.99 23808.4,2593.83 23808.4,2599.91L23808.4,2691.06L23856.6,2691.06L23856.6,2599.91Z" style="fill:rgb(244,49,49);"/>
                        </g>
                        <g transform="matrix(1,0,0,1,-39350.9,-55670)">
                            <path d="M39701.6,55815.8L39700.5,55815.8C39693.9,55815.8 39687.6,55818.4 39682.9,55823.1C39678.3,55827.7 39675.7,55834 39675.7,55840.6L39675.7,55939.2L39701.6,55939.2L39701.6,55815.8Z" style="fill:rgb(247,101,101);"/>
                        </g>
                        <g transform="matrix(1.08182,0,0,1.10012,-25431.8,-2693.51)">
                            <path d="M23821,2693.05L23821,2811.02C23821,2817.25 23826.1,2822.3 23832.4,2822.3C23838.8,2822.3 23843.9,2817.25 23843.9,2811.02L23843.9,2693.05C23843.9,2686.83 23838.8,2681.78 23832.4,2681.78C23826.1,2681.78 23821,2686.83 23821,2693.05Z" style="fill:rgb(182,182,182);"/>
                        </g>
                        <g transform="matrix(1,0,0,1,-39350.9,-55670)">
                            <path d="M39701.6,55926.8C39694.8,55926.8 39689.2,55932.3 39689.2,55939.2L39689.2,56069C39689.2,56075.8 39694.8,56081.4 39701.6,56081.4L39701.6,55926.8Z" style="fill:rgb(200,200,200);"/>
                        </g>
                        <g transform="matrix(1,0,0,1,-23309.6,-55670)">
                            <path d="M23619.7,55951.6L23701.1,55951.6C23708,55951.6 23713.5,55946 23713.5,55939.2C23713.5,55932.3 23708,55926.8 23701.1,55926.8L23619.7,55926.8C23612.8,55926.8 23607.3,55932.3 23607.3,55939.2C23607.3,55946 23612.8,55951.6 23619.7,55951.6Z" style="fill:rgb(244,49,49);"/>
                        </g>
                        <g transform="matrix(1,0,0,1,-39350.9,-55670)">
                            <path d="M39648.4,55939.2L39754.7,55939.2C39754.7,55932.3 39749.1,55926.8 39742.3,55926.8L39660.8,55926.8C39654,55926.8 39648.4,55932.3 39648.4,55939.2Z" style="fill:rgb(247,101,101);"/>
                        </g>
                    </g>
                    <g>
                        <g transform="matrix(3.21916,0,0,0.380396,-76142.6,-647.603)">
                            <path d="M23856.6,2634.01C23856.6,2622.84 23856.2,2612.43 23855.5,2603.63C23854.3,2587.62 23852.2,2576.98 23849.8,2576.98L23808.4,2576.98L23808.4,2691.06L23849.8,2691.06C23853.5,2691.06 23856.6,2665.53 23856.6,2634.03L23856.6,2634.01Z" style="fill:rgb(182,182,182);"/>
                        </g>
                        <g transform="matrix(1,0,0,1,-39350.9,-55670)">
                            <path d="M40006.5,56024.4L39851.6,56024.4L39851.6,56046.1L39984.7,56046.1C39996.7,56046.1 40006.5,56036.4 40006.5,56024.4Z" style="fill:rgb(136,136,136);"/>
                        </g>
                        <g transform="matrix(1.08182,0,0,1.08182,-25472.7,-2642.08)">
                            <path d="M24009,2749.34C24009,2738.04 23999.8,2728.87 23988.5,2728.87L23947.6,2728.87C23936.3,2728.87 23927.1,2738.04 23927.1,2749.34L23927.1,2790.28C23927.1,2801.58 23936.3,2810.75 23947.6,2810.75L23988.5,2810.75C23999.8,2810.75 24009,2801.58 24009,2790.28L24009,2749.34Z" style="fill:rgb(182,182,182);"/>
                        </g>
                        <g transform="matrix(1,0,0,1,-39350.9,-55670)">
                            <path d="M39763,56017.5L39763,56046.6C39763,56058.8 39773,56068.7 39785.2,56068.7L39829.5,56068.7C39841.7,56068.7 39851.6,56058.8 39851.6,56046.6L39851.6,56017.5C39851.6,56029.7 39841.7,56039.6 39829.5,56039.6L39785.2,56039.6C39773,56039.6 39763,56029.7 39763,56017.5Z" style="fill:rgb(136,136,136);"/>
                        </g>
                        <g transform="matrix(1,0,0,1,-23309.6,-55670)">
                            <path d="M23754.2,56012.6C23749.2,56014.1 23745.5,56018.9 23745.5,56024.4C23745.5,56030 23749.2,56034.7 23754.2,56036.2C23755.8,56041.3 23760.6,56045 23766.1,56045C23771.7,56045 23776.4,56041.3 23777.9,56036.2C23782.9,56034.7 23786.6,56030 23786.6,56024.4C23786.6,56018.9 23782.9,56014.1 23777.9,56012.6C23776.4,56007.6 23771.7,56003.9 23766.1,56003.9C23760.6,56003.9 23755.8,56007.6 23754.2,56012.6Z" style="fill:rgb(118,118,118);"/>
                        </g>
                    </g>
                    <g>
                        <g transform="matrix(2.26523,0,0,2.26523,-53814.5,-6083.09)">
                            <path d="M23962.4,2752.7C23950.6,2752.7 23941.1,2762.25 23941.1,2774.02C23941.1,2785.79 23950.6,2795.34 23962.4,2795.34C23974.2,2795.34 23983.8,2785.79 23983.8,2774.02C23983.8,2762.25 23974.2,2752.7 23962.4,2752.7ZM23962.4,2763.65C23968.1,2763.65 23972.8,2768.3 23972.8,2774.02C23972.8,2779.75 23968.1,2784.4 23962.4,2784.4C23956.7,2784.4 23952,2779.75 23952,2774.02C23952,2768.3 23956.7,2763.65 23962.4,2763.65Z" style="fill:rgb(182,182,182);"/>
                        </g>
                        <g transform="matrix(1.66786,0,0,1.66786,-39401.4,-4416.52)">
                            <path d="M23962.4,2750.74C23949.6,2750.74 23939.1,2761.17 23939.1,2774.02C23939.1,2786.87 23949.6,2797.31 23962.4,2797.31C23975.3,2797.31 23985.7,2786.87 23985.7,2774.02C23985.7,2761.17 23975.3,2750.74 23962.4,2750.74ZM23962.4,2765.61C23967.1,2765.61 23970.9,2769.38 23970.9,2774.02C23970.9,2778.67 23967.1,2782.43 23962.4,2782.43C23957.8,2782.43 23954,2778.67 23954,2774.02C23954,2769.38 23957.8,2765.61 23962.4,2765.61Z" style="fill:rgb(182,182,182);"/>
                        </g>
                        <g transform="matrix(1.35883,0,0,1.35883,-31912,-3554.37)">
                            <path d="M23962.4,2749.05C23948.6,2749.05 23937.4,2760.24 23937.4,2774.02C23937.4,2787.8 23948.6,2798.99 23962.4,2798.99C23976.2,2798.99 23987.4,2787.8 23987.4,2774.02C23987.4,2760.24 23976.2,2749.05 23962.4,2749.05ZM23962.4,2767.3C23966.1,2767.3 23969.2,2770.31 23969.2,2774.02C23969.2,2777.73 23966.1,2780.74 23962.4,2780.74C23958.7,2780.74 23955.7,2777.73 23955.7,2774.02C23955.7,2770.31 23958.7,2767.3 23962.4,2767.3Z" style="fill:rgb(182,182,182);"/>
                        </g>
                        <g transform="matrix(1,0,0,1,-39350.9,-55670)">
                            <path d="M39864.2,55861.8C39860,55884.2 39840.3,55901.1 39816.7,55901.1C39793.1,55901.1 39773.4,55884.2 39769.2,55861.8C39768.7,55864.7 39768.4,55867.7 39768.4,55870.8C39768.4,55897.4 39790,55919.1 39816.7,55919.1C39843.4,55919.1 39865.1,55897.4 39865.1,55870.8C39865.1,55867.7 39864.7,55864.7 39864.2,55861.8Z" style="fill:rgb(136,136,136);"/>
                        </g>
                        <g transform="matrix(1,0,0,1,-39350.9,-55670)">
                            <path d="M39876.8,55875.7C39876.7,55877.1 39876.6,55878.7 39876.6,55880.2C39876.6,55901.6 39894,55919.1 39915.5,55919.1C39936.9,55919.1 39954.3,55901.6 39954.3,55880.2C39954.3,55878.7 39954.2,55877.1 39954,55875.7C39951.8,55895 39935.4,55910 39915.5,55910C39895.5,55910 39879.1,55895 39876.8,55875.7Z" style="fill:rgb(136,136,136);"/>
                        </g>
                        <g transform="matrix(1,0,0,1,-39350.9,-55670)">
                            <path d="M39966.1,55880.9C39966,55882.3 39965.8,55883.7 39965.8,55885.1C39965.8,55903.8 39981.1,55919.1 39999.8,55919.1C40018.5,55919.1 40033.8,55903.8 40033.8,55885.1C40033.8,55883.7 40033.7,55882.3 40033.5,55880.9C40031.4,55897.7 40017.1,55910.7 39999.8,55910.7C39982.5,55910.7 39968.2,55897.7 39966.1,55880.9Z" style="fill:rgb(136,136,136);"/>
                        </g>
                    </g>
                    <g transform="matrix(1,0,0,1,-44880,-55614)">
                        <path d="M45561.1,56053.6L45519.3,56053.6L45572.9,56142.9L45572.9,56349.7C45572.9,56359.6 45569,56369.1 45562,56376.1C45555,56383 45545.6,56386.9 45535.7,56386.9L45577.6,56386.9C45587.4,56386.9 45596.8,56383 45603.8,56376.1C45610.8,56369.1 45614.8,56359.6 45614.8,56349.7L45614.8,56142.9L45561.1,56053.6Z" style="fill:rgb(32,32,32);"/>
                    </g>
                    <g transform="matrix(1,0,0,1,-44880,-55614)">
                        <path d="M45577.6,55720.3C45587.4,55720.3 45596.8,55724.2 45603.8,55731.2C45610.8,55738.2 45614.8,55747.7 45614.8,55757.5L45614.8,55964.3L45561.1,56053.6L45517.9,56053.6L45571.5,55964.3L45571.5,55757.5C45571.5,55747.7 45567.6,55738.2 45560.6,55731.2C45553.7,55724.2 45544.2,55720.3 45534.3,55720.3L45577.6,55720.3Z" style="fill:rgb(32,32,32);"/>
                    </g>
                    <g transform="matrix(1,0,0,1,-44880,-55614)">
                        <path d="M44939.1,56345.7L44939.1,56349.7C44939.1,56359.6 44943,56369.1 44950,56376.1C44957,56383 44966.5,56386.9 44976.3,56386.9L45577.6,56386.9C45587.4,56386.9 45596.8,56383 45603.8,56376.1C45610.8,56369.1 45614.8,56359.6 45614.8,56349.7L45614.8,56345.7L44939.1,56345.7Z" style="fill:rgb(32,32,32);"/>
                    </g>
                    <g>
                        <g transform="matrix(1,0,0,1,-23309.6,-55670)">
                            <path d="M23817.1,56200.1L23894.9,56200.1C23900.5,56218.5 23917.6,56231.9 23937.8,56231.8C23949.9,56231.7 23960.8,56226.7 23968.8,56218.9C23973.6,56214 23973.7,56206.2 23968.9,56201.3C23964,56196.5 23956.2,56196.4 23951.3,56201.2C23947.8,56204.7 23943,56206.9 23937.6,56206.9C23926.8,56207 23918,56198.3 23917.9,56187.5C23917.8,56176.6 23926.6,56167.8 23937.4,56167.7C23942.8,56167.6 23947.7,56169.8 23951.3,56173.2C23956.2,56177.9 23964,56177.7 23968.7,56172.8C23973.5,56167.9 23973.3,56160 23968.4,56155.3C23960.2,56147.5 23949.3,56142.8 23937.2,56142.9C23917,56143 23899.9,56156.7 23894.7,56175.3L23817.3,56175.3C23812,56154.9 23793.5,56139.8 23771.5,56139.6C23758.5,56139.5 23746.7,56144.6 23738,56152.9C23733.1,56157.6 23732.9,56165.5 23737.6,56170.5C23742.3,56175.4 23750.2,56175.6 23755.2,56170.9C23759.4,56166.9 23765,56164.4 23771.3,56164.4C23783.9,56164.5 23794.1,56174.8 23794,56187.5C23794,56200.1 23783.6,56210.3 23771,56210.2C23764.8,56210.2 23759.1,56207.6 23755,56203.5C23750.2,56198.8 23742.3,56198.8 23737.5,56203.6C23732.7,56208.5 23732.7,56216.4 23737.5,56221.1C23746.1,56229.6 23757.8,56234.9 23770.9,56235C23792.8,56235.2 23811.5,56220.3 23817.1,56200.1Z" style="fill:rgb(182,182,182);"/>
                        </g>
                        <g transform="matrix(1,0,0,1,-39350.9,-55670)">
                            <path d="M39819.7,56234.5C39809.4,56232.9 39800.3,56228.1 39793.3,56221.1C39788.5,56216.4 39788.5,56208.5 39793.2,56203.6C39793.7,56203.2 39794.2,56202.7 39794.8,56202.3C39790,56198.8 39783.1,56199.2 39778.7,56203.6C39773.9,56208.5 39774,56216.4 39778.8,56221.1C39787.3,56229.6 39799.1,56234.9 39812,56235C39814.6,56235 39817.2,56234.9 39819.7,56234.5ZM39950.7,56200.1L39936.2,56200.1C39941.7,56218.5 39958.8,56231.9 39979,56231.8C39981.4,56231.8 39983.8,56231.5 39986,56231.1C39969.2,56228.4 39955.5,56216.2 39950.7,56200.1ZM39819.7,56165.6C39828.8,56168.7 39835.3,56177.3 39835.2,56187.5C39835.2,56197.5 39828.7,56206 39819.7,56209C39821.9,56209.7 39824.2,56210.2 39826.8,56210.2C39839.4,56210.3 39849.7,56200.1 39849.8,56187.5C39849.9,56174.8 39839.7,56164.5 39827,56164.4C39824.4,56164.4 39822,56164.8 39819.7,56165.6ZM39986,56205.5C39988.3,56206.5 39990.8,56206.9 39993.4,56206.9C39998.8,56206.9 40003.5,56204.7 40007.1,56201.2C40007.6,56200.8 40008.1,56200.4 40008.6,56200C40003.7,56196.5 39996.9,56196.9 39992.6,56201.2C39990.7,56203.1 39988.5,56204.6 39986,56205.5ZM39986,56169.1C39988.4,56170 39990.6,56171.5 39992.4,56173.2C39996.8,56177.4 40003.5,56177.7 40008.3,56174.3C40007.8,56174 40007.4,56173.6 40007,56173.2C40003.4,56169.8 39998.5,56167.6 39993.1,56167.7C39990.6,56167.7 39988.2,56168.2 39986,56169.1ZM39935.9,56175.3L39950.5,56175.3C39955.1,56158.9 39968.9,56146.3 39986,56143.5C39983.6,56143.1 39981,56142.9 39978.4,56142.9C39958.1,56143 39941.1,56156.7 39935.9,56175.3ZM39795.1,56172C39794.5,56171.5 39793.9,56171 39793.4,56170.5C39788.7,56165.5 39788.8,56157.6 39793.8,56152.9C39800.7,56146.3 39809.7,56141.7 39819.7,56140.2C39817.4,56139.8 39815.1,56139.7 39812.7,56139.6C39799.8,56139.5 39788,56144.6 39779.2,56152.9C39774.3,56157.6 39774.1,56165.5 39778.9,56170.5C39783.2,56175 39790.1,56175.6 39795.1,56172Z" style="fill:rgb(219,219,219);"/>
                        </g>
                        <g transform="matrix(1,0,0,1,-23309.6,-55670)">
                            <path d="M23850.5,56300.4L23904.7,56300.4C23909.9,56314.4 23923.4,56324.3 23939.2,56324.2C23949.1,56324.2 23958.1,56320.1 23964.7,56313.6C23969.5,56308.8 23969.5,56301 23964.8,56296.1C23959.9,56291.2 23952.1,56291.2 23947.2,56296C23945.1,56298.1 23942.2,56299.4 23939,56299.4C23932.6,56299.5 23927.3,56294.3 23927.3,56287.8C23927.2,56281.3 23932.4,56276 23938.9,56276C23942.1,56276 23945.1,56277.2 23947.2,56279.3C23952.1,56284 23960,56283.8 23964.7,56278.9C23969.4,56273.9 23969.2,56266.1 23964.3,56261.3C23957.6,56255 23948.7,56251.1 23938.7,56251.2C23922.9,56251.3 23909.5,56261.5 23904.5,56275.6L23850.7,56275.6C23845.6,56260.1 23831.1,56248.8 23813.9,56248.7C23803.3,56248.6 23793.7,56252.8 23786.6,56259.6C23781.6,56264.3 23781.5,56272.2 23786.2,56277.1C23790.9,56282 23798.8,56282.2 23803.7,56277.5C23806.3,56275 23809.9,56273.5 23813.8,56273.6C23821.6,56273.6 23827.9,56280 23827.8,56287.8C23827.8,56295.6 23821.4,56302 23813.6,56301.9C23809.7,56301.8 23806.2,56300.3 23803.7,56297.7C23798.8,56293 23790.9,56293 23786.1,56297.9C23781.3,56302.7 23781.3,56310.6 23786.2,56315.3C23793.2,56322.3 23802.8,56326.6 23813.4,56326.7C23830.6,56326.8 23845.2,56315.8 23850.5,56300.4Z" style="fill:rgb(182,182,182);"/>
                        </g>
                        <g transform="matrix(1,0,0,1,-23309.6,-55670)">
                            <path d="M23865.6,56387.7L23908.2,56387.7C23913.1,56399.5 23924.8,56407.7 23938.4,56407.6C23947.2,56407.6 23955.3,56404 23961.1,56398.1C23966,56393.4 23966,56385.5 23961.2,56380.7C23956.3,56375.8 23948.5,56375.8 23943.6,56380.5C23942.3,56382 23940.3,56382.8 23938.2,56382.8C23934,56382.8 23930.4,56379.4 23930.4,56375.1C23930.4,56370.8 23933.8,56367.3 23938.1,56367.3C23940.3,56367.3 23942.2,56368.1 23943.6,56369.5C23948.6,56374.2 23956.5,56374 23961.2,56369.1C23965.9,56364.1 23965.7,56356.3 23960.7,56351.5C23954.9,56345.9 23946.8,56342.4 23937.9,56342.5C23924.3,56342.6 23912.7,56351 23907.9,56362.9L23865.8,56362.9C23860.9,56349.8 23848.4,56340.5 23833.6,56340.4C23824.2,56340.3 23815.6,56344.1 23809.4,56350C23804.4,56354.8 23804.2,56362.6 23808.9,56367.6C23813.6,56372.5 23821.5,56372.7 23826.5,56368C23828.3,56366.3 23830.7,56365.2 23833.4,56365.2C23838.8,56365.3 23843.2,56369.7 23843.2,56375.1C23843.2,56380.5 23838.7,56384.9 23833.3,56384.9C23830.6,56384.9 23828.2,56383.8 23826.4,56382C23821.6,56377.2 23813.7,56377.2 23808.9,56382.1C23804.1,56386.9 23804.1,56394.8 23809,56399.6C23815.2,56405.8 23823.7,56409.6 23833.1,56409.7C23847.9,56409.8 23860.5,56400.6 23865.6,56387.7Z" style="fill:rgb(182,182,182);"/>
                        </g>
                        <g transform="matrix(1,0,0,1,-39350.9,-55670)">
                            <path d="M39860.3,56326.3C39851.8,56325.1 39844.1,56321.2 39838.3,56315.3C39833.4,56310.6 39833.4,56302.7 39838.2,56297.9C39839.2,56296.8 39840.4,56296 39841.6,56295.4C39837,56293.1 39831.2,56294 39827.3,56297.9C39822.5,56302.7 39822.6,56310.6 39827.4,56315.3C39834.4,56322.3 39844,56326.6 39854.6,56326.7C39856.6,56326.7 39858.4,56326.6 39860.3,56326.3ZM39956.8,56300.4L39945.9,56300.4C39951.1,56314.4 39964.7,56324.3 39980.4,56324.2C39982.1,56324.2 39983.9,56324.1 39985.6,56323.8C39972.3,56321.9 39961.4,56312.7 39956.8,56300.4ZM39860.3,56274.6C39865.5,56276.7 39869.1,56281.9 39869,56287.8C39869,56293.6 39865.4,56298.7 39860.3,56300.8C39862,56301.5 39863.8,56301.9 39865.6,56301.9C39873.4,56302 39879.8,56295.6 39879.9,56287.8C39879.9,56280 39873.6,56273.6 39865.8,56273.6C39863.9,56273.5 39862,56273.9 39860.3,56274.6ZM39985.6,56298.1C39987.2,56299 39989.1,56299.4 39991.1,56299.4C39994.3,56299.4 39997.1,56298.1 39999.3,56296C40000.2,56295 40001.4,56294.3 40002.6,56293.6C39998,56291.4 39992.2,56292.2 39988.4,56296C39987.6,56296.9 39986.7,56297.6 39985.6,56298.1ZM39985.6,56277.3C39986.6,56277.8 39987.6,56278.5 39988.4,56279.3C39992.2,56283 39997.8,56283.7 40002.4,56281.5C40001.2,56280.9 40000.2,56280.2 39999.3,56279.3C39997.1,56277.2 39994.2,56276 39990.9,56276C39989,56276 39987.2,56276.5 39985.6,56277.3ZM39841.8,56279.7C39840.5,56279.1 39839.3,56278.2 39838.3,56277.1C39833.5,56272.2 39833.7,56264.3 39838.6,56259.6C39844.5,56254 39852,56250.2 39860.3,56249.1C39858.6,56248.9 39856.9,56248.7 39855.1,56248.7C39844.5,56248.6 39834.9,56252.8 39827.8,56259.6C39822.9,56264.3 39822.7,56272.2 39827.4,56277.1C39831.2,56281.1 39837.1,56282 39841.8,56279.7ZM39945.7,56275.6L39956.5,56275.6C39960.9,56263.1 39972,56253.6 39985.6,56251.6C39983.8,56251.3 39981.8,56251.2 39979.9,56251.2C39964.1,56251.3 39950.7,56261.5 39945.7,56275.6Z" style="fill:rgb(219,219,219);"/>
                        </g>
                        <g transform="matrix(1,0,0,1,-39350.9,-55670)">
                            <path d="M39879.6,56409.3C39872.1,56408.2 39865.4,56404.7 39860.3,56399.6C39855.4,56394.8 39855.4,56386.9 39860.2,56382.1C39861.3,56381 39862.6,56380.1 39864,56379.5C39859.4,56377.4 39853.8,56378.3 39850.1,56382.1C39845.3,56386.9 39845.3,56394.8 39850.2,56399.6C39856.4,56405.8 39864.9,56409.6 39874.4,56409.7C39876.2,56409.7 39877.9,56409.6 39879.6,56409.3ZM39959.4,56387.7L39949.3,56387.7C39954.4,56399.5 39966,56407.7 39979.6,56407.6C39981.3,56407.6 39982.9,56407.4 39984.4,56407.3C39973.1,56405.5 39963.8,56397.9 39959.4,56387.7ZM39879.6,56366.6C39882.5,56368.3 39884.4,56371.5 39884.4,56375.1C39884.4,56378.7 39882.5,56381.8 39879.6,56383.4C39881.1,56384.4 39882.8,56384.9 39884.6,56384.9C39890,56384.9 39894.5,56380.5 39894.5,56375.1C39894.5,56369.7 39890.2,56365.3 39884.7,56365.2C39882.9,56365.2 39881.1,56365.7 39879.6,56366.6ZM39984.4,56381C39985.8,56382.1 39987.6,56382.8 39989.5,56382.8C39991.6,56382.8 39993.6,56382 39995,56380.5C39996,56379.5 39997.3,56378.6 39998.6,56378C39994.1,56376 39988.6,56376.9 39984.9,56380.5C39984.7,56380.7 39984.6,56380.8 39984.4,56381ZM39984.4,56369.1C39984.6,56369.2 39984.7,56369.4 39984.9,56369.5C39988.6,56373.1 39994,56373.8 39998.5,56371.8C39997.2,56371.3 39996,56370.5 39995,56369.5C39993.5,56368.1 39991.6,56367.3 39989.5,56367.3C39987.5,56367.3 39985.8,56368 39984.4,56369.1ZM39864.2,56370.4C39862.7,56369.7 39861.4,56368.8 39860.2,56367.6C39855.5,56362.6 39855.7,56354.8 39860.7,56350C39865.7,56345.2 39872.3,56341.8 39879.6,56340.8C39878.1,56340.5 39876.5,56340.4 39874.8,56340.4C39865.4,56340.3 39856.9,56344.1 39850.5,56350C39845.6,56354.8 39845.4,56362.6 39850.1,56367.6C39853.8,56371.5 39859.5,56372.4 39864.2,56370.4ZM39949.1,56362.9L39959.3,56362.9C39963.5,56352.4 39973,56344.6 39984.4,56342.8C39982.7,56342.6 39981,56342.5 39979.2,56342.5C39965.5,56342.6 39953.9,56351 39949.1,56362.9Z" style="fill:rgb(219,219,219);"/>
                        </g>
                    </g>
                    <g>
                        <g transform="matrix(0.747845,0,0,0.747845,-17507,-1660.58)">
                            <path d="M23896.1,2946.02C23896.1,2946.02 23848.6,2980.56 23802.8,2949.68C23776.4,2931.88 23766.6,2918.59 23757.3,2909.95C23745.1,2898.49 23733.8,2892.11 23701.9,2892.66C23692.7,2892.82 23685.5,2900.38 23685.6,2909.53C23685.8,2918.68 23693.3,2925.98 23702.5,2925.82C23714.2,2925.62 23721.5,2926.29 23727,2928.72C23732.2,2931 23735.5,2934.83 23740.2,2939.6C23749.1,2948.88 23760.8,2961.38 23784.2,2977.18C23848.6,3020.58 23915.5,2972.97 23915.5,2972.97C23922.9,2967.63 23924.7,2957.26 23919.3,2949.83C23914,2942.39 23903.6,2940.68 23896.1,2946.02Z" style="fill:rgb(182,182,182);"/>
                        </g>
                        <g transform="matrix(1,0,0,1,-44880,-55614)">
                            <path d="M45087.8,56122.9C45086.7,56124.7 45086.1,56126.9 45086.1,56129.2C45086.3,56136.1 45091.9,56141.5 45098.8,56141.4C45107.5,56141.3 45113,56141.8 45117.1,56143.6C45121,56145.3 45123.5,56148.2 45126.9,56151.7C45133.6,56158.6 45142.4,56168 45159.9,56179.8C45208.1,56212.3 45258,56176.7 45258,56176.7C45263.3,56172.9 45264.7,56165.9 45261.6,56160.4C45260.7,56161.9 45259.5,56163.2 45258,56164.3C45258,56164.3 45208.1,56199.9 45159.9,56167.4C45142.4,56155.7 45133.6,56146.3 45126.9,56139.3C45123.5,56135.8 45121,56132.9 45117.1,56131.2C45113,56129.4 45107.5,56128.9 45098.8,56129.1C45094.1,56129.1 45090,56126.6 45087.8,56122.9Z" style="fill:rgb(118,118,118);"/>
                        </g>
                        <g transform="matrix(1,0,0,1,-44880,-55614)">
                            <path d="M45258,56112.9C45258,56112.9 45208.1,56077.3 45159.9,56109.8C45142.4,56121.6 45133.6,56131 45126.9,56137.9C45123.5,56141.5 45121,56144.3 45117.1,56146C45113,56147.8 45107.5,56148.3 45098.8,56148.2C45091.9,56148.1 45086.3,56153.6 45086.1,56160.4C45086,56167.3 45091.5,56172.9 45098.4,56173C45122.2,56173.4 45130.6,56168.6 45139.8,56160.1C45146.7,56153.6 45154,56143.7 45173.8,56130.4C45208,56107.3 45243.6,56133.1 45243.6,56133.1C45249.2,56137.1 45256.9,56135.8 45260.9,56130.2C45264.9,56124.7 45263.6,56117 45258,56112.9Z" style="fill:rgb(182,182,182);"/>
                        </g>
                        <g transform="matrix(1,0,0,1,-44880,-55614)">
                            <path d="M45087.6,56166.3C45089.7,56162.3 45093.9,56159.6 45098.8,56159.7C45107.5,56159.8 45113,56159.3 45117.1,56157.5C45121,56155.8 45123.5,56152.9 45126.9,56149.4C45133.6,56142.5 45142.4,56133.1 45159.9,56121.2C45208.1,56088.8 45258,56124.4 45258,56124.4C45259.7,56125.6 45261,56127.1 45261.8,56128.7C45264.7,56123.3 45263.1,56116.6 45258,56112.9C45258,56112.9 45208.1,56077.3 45159.9,56109.8C45142.4,56121.6 45133.6,56131 45126.9,56137.9C45123.5,56141.5 45121,56144.3 45117.1,56146C45113,56147.8 45107.5,56148.3 45098.8,56148.2C45091.9,56148.1 45086.3,56153.6 45086.1,56160.4C45086.1,56162.5 45086.6,56164.5 45087.6,56166.3Z" style="fill:rgb(219,219,219);"/>
                        </g>
                    </g>
                    <g>
                        <g transform="matrix(0.857009,0,0,1.08182,-20139.1,-2655.5)">
                            <rect x="23711.9" y="3042.25" width="253.854" height="46.22" style="fill:rgb(243,193,5);"/>
                        </g>
                        <g transform="matrix(0.857009,0,0,0.531797,-20139.1,-956.757)">
                            <rect x="23711.9" y="3042.25" width="253.854" height="46.22" style="fill:rgb(215,169,5);"/>
                        </g>
                        <g transform="matrix(0.282352,0,0,2.84021,-6584.56,-8045.58)">
                            <path d="M23965.8,3042.25L23859,3042.25C23777.8,3042.25 23711.9,3048.8 23711.9,3056.87L23711.9,3088.48L23965.8,3088.48L23965.8,3042.25Z" style="fill:rgb(111,116,114);"/>
                        </g>
                        <g transform="matrix(1,0,0,1,-44880,-55614)">
                            <path d="M45062.3,56237.5L45062.3,56209L45032.1,56209C45009.2,56209 44990.6,56227.5 44990.6,56250.5L44990.6,56340.3L45019,56340.3L45019,56279C45019,56256.1 45037.6,56237.5 45060.6,56237.5L45062.3,56237.5Z" style="fill:rgb(175,175,175);"/>
                        </g>
                    </g>
                    <g transform="matrix(1.08182,0,0,1.08182,-25463.1,-2642.08)">
                        <path d="M24145.5,2837.21L23654.6,2837.21C23648.2,2837.21 23643.1,2842.34 23643.1,2848.68C23643.1,2855 23648.2,2860.14 23654.6,2860.14L24145.5,2860.14C24151.9,2860.14 24157,2855 24157,2848.68C24157,2842.34 24151.9,2837.21 24145.5,2837.21Z" style="fill:rgb(32,32,32);"/>
                    </g>
                </g>
            </g>
            <g transform="matrix(0.588113,0,0,0.746939,270.624,42.5221)">
                <path d="M638.459,545.792C628.883,545.483 622.706,532.819 622.706,525.097C622.706,511.197 624.559,494.826 634.752,487.722C655.756,473.205 672.435,546.1 638.459,545.792ZM182.082,545.792C148.105,546.1 164.785,473.205 185.788,487.722C195.982,494.826 197.835,511.197 197.835,525.097C197.835,532.819 191.657,545.483 182.082,545.792Z" style="fill:rgb(172,163,155);fill-rule:nonzero;"/>
            </g>
            <g transform="matrix(2.16241,0,0,0.85443,-595.09,-13.6231)">
                <g transform="matrix(0.271279,0,0,0.871967,400.661,65.9196)">
                    <path d="M146.662,218.271C147.097,205.473 148.155,193.647 150.039,183.166C150.475,180.582 149.857,178.234 148.465,176.021L162.483,163.099L167.727,196.064L146.662,218.271Z" style="fill:rgb(65,65,65);"/>
                </g>
                <g transform="matrix(-0.271279,0,0,0.871967,623.282,65.9196)">
                    <path d="M146.662,218.271C147.097,205.473 148.155,193.647 150.039,183.166C150.475,180.582 149.857,178.234 148.465,176.021L162.483,163.099L167.727,196.064L146.662,218.271Z" style="fill:rgb(65,65,65);"/>
                </g>
                <g transform="matrix(0.168153,0,0,0.59734,444.739,-92.1711)">
                    <path d="M773.569,476.308L26.433,476.308C11.841,476.308 0,488.148 0,502.742L0,538.475C0,545.223 2.594,551.719 7.203,556.634L31.672,582.533L66.35,686.553C72.322,704.553 89.188,716.686 108.136,716.686L299.389,716.686C319.473,716.686 337.02,703.108 342.072,683.639L371.509,568.863C371.509,568.863 371.509,542.964 400.014,542.964C428.505,542.964 428.505,568.863 428.505,568.863L457.956,683.639C462.994,703.108 480.541,716.686 500.625,716.686L691.866,716.686C710.841,716.686 727.68,704.552 733.666,686.553L768.33,582.533L792.811,556.634C797.434,551.719 800,545.223 800,538.475L800,502.742C800,488.148 788.188,476.308 773.569,476.308ZM304.253,563.758L288.431,644.389C286.292,655.294 276.725,663.178 265.606,663.178L139.913,663.178C129.236,663.178 119.934,655.922 117.33,645.578L97.017,564.744C95.573,558.945 96.858,552.798 100.545,548.094C104.208,543.378 109.861,540.623 115.833,540.623L285.225,540.623C291.025,540.623 296.517,543.217 300.191,547.692C303.88,552.172 305.375,558.064 304.253,563.758ZM702.984,564.745L682.672,645.58C680.08,655.923 670.778,663.18 660.088,663.18L534.406,663.18C523.288,663.18 513.72,655.295 511.583,644.391L495.759,563.759C494.638,558.066 496.134,552.173 499.822,547.695C503.497,543.219 508.989,540.627 514.789,540.627L684.167,540.627C690.153,540.627 695.792,543.38 699.455,548.097C703.144,552.8 704.428,558.947 702.984,564.745Z" style="fill:rgb(65,65,65);fill-rule:nonzero;"/>
                </g>
            </g>
        </g>
    </g>
    <defs>
        <linearGradient id="_Linear1" x1="0" y1="0" x2="1" y2="0" gradientUnits="userSpaceOnUse" gradientTransform="matrix(619.975,0,0,792.896,100.437,398.61)"><stop offset="0" style="stop-color:rgb(15,123,193);stop-opacity:1"/><stop offset="1" style="stop-color:rgb(91,203,245);stop-opacity:1"/></linearGradient>
    </defs>
</svg>
