<?xml version="1.0" encoding="UTF-8" standalone="no"?>
<!DOCTYPE svg PUBLIC "-//W3C//DTD SVG 1.1//EN" "http://www.w3.org/Graphics/SVG/1.1/DTD/svg11.dtd">
<svg width="100%" height="100%" viewBox="0 0 601 140" version="1.1" xmlns="http://www.w3.org/2000/svg" xmlns:xlink="http://www.w3.org/1999/xlink" xml:space="preserve" xmlns:serif="http://www.serif.com/" style="fill-rule:evenodd;clip-rule:evenodd;stroke-linecap:round;stroke-linejoin:round;stroke-miterlimit:1.5;">
    <g transform="matrix(1,0,0,1,-200,-2490)">
        <g id="Values" transform="matrix(0.585938,0,0,0.182292,200.677,2490)">
            <rect x="0" y="0" width="1024" height="768" style="fill:none;"/>
            <g transform="matrix(1.66667,0,0,1,-341.333,0)">
                <g transform="matrix(1.502,0,0,8.20865,-385.044,-20514.6)">
                    <rect x="573.185" y="2511.83" width="98.073" height="55.235" style="fill:rgb(26,26,26);stroke:rgb(65,65,65);stroke-width:2px;"/>
                </g>
                <g transform="matrix(1.28516,0,0,6.88479,-161.566,-17138)">
                    <path d="M517.361,2535.09C517.965,2534.28 518.856,2533.43 519.065,2532.42C519.108,2532.21 519.056,2531.97 518.947,2531.78C518.881,2531.66 518.797,2531.54 518.669,2531.52L517.947,2531.64C517.764,2531.85 517.494,2531.98 517.194,2531.98C516.642,2531.98 516.194,2531.53 516.194,2530.98C516.194,2530.62 516.356,2530.22 516.804,2529.95C517.299,2529.64 518.564,2529.49 518.875,2529.53C519.514,2529.6 520.058,2529.94 520.448,2530.43C520.963,2531.09 521.189,2532.02 521.024,2532.82C520.756,2534.12 519.706,2535.28 518.943,2536.31C518.914,2536.35 518.751,2536.53 518.575,2536.72C520.134,2537.55 522.206,2537.73 523.861,2537.85C524.667,2537.9 525.363,2537.91 526.156,2537.91C526.654,2537.91 527.03,2538.06 527.114,2538.11C527.413,2538.3 527.512,2538.55 527.556,2538.72C527.648,2539.08 527.598,2539.45 527.199,2539.76C527.132,2539.81 526.927,2539.98 526.487,2539.98C526.35,2539.98 526.219,2539.96 526.1,2539.91C525.281,2539.91 524.555,2539.9 523.719,2539.84C521.411,2539.68 518.455,2539.28 516.572,2537.8C516.215,2537.52 515.988,2537.04 516.273,2536.41C516.438,2536.04 517.26,2535.19 517.361,2535.09Z" style="fill:white;"/>
                </g>
                <g transform="matrix(1.28516,0,0,6.88479,-161.566,-17138)">
                    <path d="M532.143,2535.54C532.152,2535.43 532.183,2535.06 532.183,2534.94C532.183,2533.62 532.076,2532.29 532.076,2530.98C532.076,2530.43 532.524,2529.98 533.076,2529.98C533.627,2529.98 534.076,2530.43 534.076,2530.98C534.076,2532.29 534.183,2533.62 534.183,2534.94C534.183,2535.19 534.175,2535.69 534.08,2536.06C533.997,2536.39 533.843,2536.65 533.669,2536.82C533.276,2537.21 532.642,2537.2 532.255,2536.81C531.914,2536.46 531.877,2535.93 532.143,2535.54Z" style="fill:white;"/>
                </g>
                <g transform="matrix(1.28516,0,0,6.88479,-161.566,-17138)">
                    <path d="M529.776,2534.79C529.283,2534.55 529.082,2533.94 529.329,2533.45C529.576,2532.96 530.177,2532.76 530.671,2533C531.284,2533.31 532.077,2533.28 532.878,2533.21C533.905,2533.12 534.948,2532.94 535.802,2532.94C536.354,2532.94 536.802,2533.39 536.802,2533.94C536.802,2534.49 536.354,2534.94 535.802,2534.94C534.818,2534.94 533.571,2535.2 532.404,2535.24C531.44,2535.28 530.525,2535.17 529.776,2534.79Z" style="fill:white;"/>
                </g>
                <g transform="matrix(1.28516,0,0,6.88479,-161.566,-17138)">
                    <path d="M545.315,2536.77C546.266,2536.88 547.211,2537.03 548.16,2537.11C548.558,2537.15 549.575,2537.15 550.037,2537.22C550.466,2537.28 550.724,2537.47 550.827,2537.58C551.068,2537.83 551.14,2538.11 551.111,2538.39C551.092,2538.59 551.023,2538.82 550.805,2539.03C550.477,2539.36 549.98,2539.41 549.598,2539.19C549.224,2539.17 548.285,2539.13 547.975,2539.1C546.645,2538.98 545.321,2538.74 543.981,2538.64C543.394,2538.6 543.406,2538.6 542.888,2538.6C542.79,2538.62 542.48,2538.68 542.357,2538.68C542.169,2538.68 542.009,2538.63 541.88,2538.57C541.521,2538.4 541.261,2538.11 541.269,2537.58C541.272,2537.39 541.328,2537.1 541.594,2536.83C541.797,2536.63 542.948,2536.06 543.071,2536C543.637,2535.6 544.303,2535.06 544.783,2534.43C545.153,2533.95 545.432,2533.4 545.299,2532.81C545.049,2531.71 544.336,2530.73 543.2,2530.84C543.001,2530.86 542.583,2530.93 542.201,2531.06C542.1,2531.1 541.959,2531.17 541.878,2531.22C541.771,2531.65 541.376,2531.98 540.907,2531.98C540.355,2531.98 539.907,2531.53 539.907,2530.98C539.907,2530.43 540.191,2529.93 540.723,2529.57C541.387,2529.12 542.552,2528.9 543,2528.85C545.178,2528.64 546.771,2530.25 547.249,2532.37C547.468,2533.34 547.24,2534.26 546.743,2535.1C546.377,2535.71 545.859,2536.28 545.315,2536.77ZM549.159,2537.99C549.207,2537.85 549.286,2537.72 549.396,2537.61C549.272,2537.74 549.199,2537.86 549.159,2537.99Z" style="fill:white;"/>
                </g>
                <g transform="matrix(1.28516,0,0,6.88479,-161.566,-17138)">
                    <path d="M557.204,2534.42C556.939,2534.57 556.611,2534.59 556.315,2534.45C555.812,2534.23 555.589,2533.64 555.817,2533.13C555.972,2532.79 556.266,2532.54 556.692,2532.45C556.948,2532.39 557.324,2532.44 557.492,2532.44C557.931,2532.44 558.597,2532.49 559.192,2532.46C559.441,2532.45 559.675,2532.44 559.83,2532.36C560.322,2532.11 560.925,2532.31 561.174,2532.8C561.424,2533.29 561.227,2533.9 560.735,2534.15C560.381,2534.33 559.861,2534.43 559.292,2534.46C558.661,2534.49 557.957,2534.44 557.492,2534.44C557.44,2534.44 557.308,2534.43 557.204,2534.42Z" style="fill:white;"/>
                </g>
                <g transform="matrix(1.28516,0,0,6.88479,-161.566,-17138)">
                    <path d="M555.442,2536.83C554.89,2536.83 554.442,2536.38 554.442,2535.83C554.442,2535.27 554.89,2534.83 555.442,2534.83C556.894,2534.83 558.365,2535.24 559.78,2535.24C560.332,2535.24 560.78,2535.69 560.78,2536.24C560.78,2536.8 560.332,2537.24 559.78,2537.24C558.365,2537.24 556.894,2536.83 555.442,2536.83Z" style="fill:white;"/>
                </g>
                <g transform="matrix(1.28516,0,0,6.88479,-161.566,-17138)">
                    <path d="M569.652,2530C569.624,2530.14 569.479,2530.87 569.396,2531.09C569.257,2531.45 569.103,2531.82 569.001,2532.18C568.935,2532.41 568.832,2532.62 568.942,2532.79C569.014,2532.91 569.167,2532.97 569.377,2533.04C569.665,2533.14 569.812,2533.17 570.127,2533.21C570.581,2533.26 571.035,2533.24 571.491,2533.24C571.763,2533.24 572.836,2533.1 573.37,2533.16C573.803,2533.2 574.093,2533.38 574.239,2533.52C574.63,2533.91 574.63,2534.55 574.239,2534.94C573.94,2535.24 573.497,2535.31 573.131,2535.15C572.908,2535.16 571.711,2535.24 571.491,2535.24C570.952,2535.24 570.417,2535.26 569.88,2535.19C569.394,2535.13 569.17,2535.08 568.727,2534.93C567.894,2534.64 567.437,2534.21 567.183,2533.74C566.931,2533.28 566.867,2532.76 566.952,2532.19C567.037,2531.62 567.292,2531 567.526,2530.38C567.602,2530.18 567.633,2529.76 567.726,2529.45C567.826,2529.12 567.983,2528.85 568.153,2528.69C568.546,2528.3 569.18,2528.3 569.567,2528.7C569.919,2529.06 569.947,2529.61 569.652,2530Z" style="fill:white;"/>
                </g>
                <g transform="matrix(1.28516,0,0,6.88479,-161.566,-17138)">
                    <path d="M571.545,2539.33C571.49,2539.83 571.065,2540.22 570.551,2540.22C570.283,2540.22 570.038,2540.13 569.831,2539.91C569.775,2539.86 569.484,2539.58 569.562,2539.05C569.582,2538.91 569.758,2538.22 569.776,2538.15C569.937,2537.55 570.029,2536.93 570.146,2536.31C570.476,2534.59 571.163,2532.96 571.593,2531.26C571.729,2530.73 572.273,2530.4 572.808,2530.54C573.343,2530.68 573.667,2531.22 573.532,2531.76C573.111,2533.41 572.433,2535.01 572.11,2536.69C571.984,2537.35 571.881,2538.02 571.708,2538.67C571.696,2538.71 571.569,2539.23 571.545,2539.33ZM571.495,2538.89C571.304,2538.34 570.898,2538.22 570.551,2538.22C570.987,2538.22 571.359,2538.5 571.495,2538.89Z" style="fill:white;"/>
                </g>
                <g transform="matrix(1.06408,3.86076,-0.720676,5.70043,1862.75,-15541.8)">
                    <rect x="414.59" y="2509.27" width="2" height="7.262" style="fill:white;"/>
                </g>
                <g transform="matrix(-1.09965,0,0,1.09965,1001.73,-63.4962)">
                    <g id="Gopher" transform="matrix(0.113657,0,0,0.6036,464.58,268.953)">
                        <path d="M381.081,363.552C378.301,364.788 373.668,395.058 387.876,396.602C397.452,397.529 423.707,400.618 429.884,396.602C441.931,388.88 440.695,370.347 433.9,365.714C422.471,358.301 384.17,362.008 381.081,363.552ZM302.625,136.834C270.811,133.127 217.375,162.78 209.344,225.792C200.695,291.274 277.915,356.139 352.046,291.274C391.892,256.371 405.792,148.88 302.625,136.834ZM517.606,136.834C414.44,148.88 428.34,256.371 468.185,291.274C542.317,356.139 619.537,291.274 610.888,225.792C603.166,162.78 549.73,133.127 517.606,136.834Z" style="fill:white;fill-rule:nonzero;"/>
                        <path d="M143.018,533.876C143.345,465.671 110.71,401.583 55.56,362.123C37.744,349.254 24.493,339.773 24.493,339.773L43.503,283.52C43.503,283.52 115.533,337.173 143.164,357.753C145.217,359.286 147.956,359.503 150.221,358.314C152.486,357.126 153.882,354.738 153.816,352.163C153.709,347.599 153.49,343.255 153.127,339.151C147.568,281.39 142.934,222.703 150.039,183.166C153.745,161.236 81.467,156.293 105.251,106.873C125.637,64.556 175.985,101.931 188.649,88.649C253.205,21.622 331.66,3.707 393.436,2.162L427.413,2.162C488.88,5.251 567.336,21.931 632.201,88.649C644.865,101.931 694.903,64.556 715.598,106.873C739.382,155.985 667.104,161.236 670.811,183.166C677.606,222.703 672.973,281.39 667.722,339.151C658.764,437.066 731.969,671.506 579.382,765.714C550.656,783.629 482.394,793.514 415.058,795.058L414.44,795.058C347.104,793.514 269.575,783.629 240.849,765.714C158.581,714.818 142.125,622.992 143.018,533.876ZM517.606,136.834C414.44,148.88 428.34,256.371 468.185,291.274C542.317,356.139 619.537,291.274 610.888,225.792C603.166,162.78 549.73,133.127 517.606,136.834ZM381.081,363.552C378.301,364.788 373.668,395.058 387.876,396.602C397.452,397.529 423.707,400.618 429.884,396.602C441.931,388.88 440.695,370.347 433.9,365.714C422.471,358.301 384.17,362.008 381.081,363.552ZM302.625,136.834C270.811,133.127 217.375,162.78 209.344,225.792C200.695,291.274 277.915,356.139 352.046,291.274C391.892,256.371 405.792,148.88 302.625,136.834Z" style="fill:url(#_Linear1);"/>
                        <path d="M410.425,299.614C429.884,296.834 476.525,319.073 473.436,345.328C469.73,375.907 353.282,379.923 347.104,343.475C343.398,321.236 361.004,307.027 410.425,299.614ZM608.726,769.73C614.903,778.687 615.212,784.865 605.328,789.498C567.645,806.795 533.977,783.629 546.641,777.143C573.514,763.552 590.193,742.239 608.726,769.73ZM211.815,772.819C230.347,745.328 247.027,766.641 273.9,780.232C286.564,786.718 252.896,809.884 215.212,792.587C205.328,787.954 205.637,781.776 211.815,772.819Z" style="fill:rgb(172,163,155);fill-rule:nonzero;"/>
                        <path d="M657.838,114.286C659.382,107.799 675.444,104.71 684.402,115.83C695.212,129.112 668.649,147.336 667.413,139.923C664.324,119.846 655.985,120.772 657.838,114.286ZM162.703,114.286C164.556,120.772 156.216,119.846 153.127,139.923C151.892,147.336 125.328,129.112 136.139,115.83C144.788,104.71 160.849,107.799 162.703,114.286ZM526.316,264.71C506.869,264.71 491.104,248.945 491.104,229.498C491.104,210.051 506.869,194.286 526.316,194.286C545.764,194.286 561.529,210.051 561.529,229.498C561.529,248.945 545.764,264.71 526.316,264.71ZM517.05,225.483C523.191,225.483 528.17,220.504 528.17,214.363C528.17,208.222 523.191,203.243 517.05,203.243C510.909,203.243 505.93,208.222 505.93,214.363C505.93,220.504 510.909,225.483 517.05,225.483ZM378.61,314.44C382.317,300.232 395.29,295.598 405.792,295.29C432.664,294.672 442.857,309.189 443.784,320.618C445.637,340.077 370.27,344.71 378.61,314.44ZM294.224,264.71C274.777,264.71 259.012,248.945 259.012,229.498C259.012,210.051 274.777,194.286 294.224,194.286C313.672,194.286 329.437,210.051 329.437,229.498C329.437,248.945 313.672,264.71 294.224,264.71ZM303.491,225.483C309.632,225.483 314.61,220.504 314.61,214.363C314.61,208.222 309.632,203.243 303.491,203.243C297.349,203.243 292.371,208.222 292.371,214.363C292.371,220.504 297.349,225.483 303.491,225.483Z" style="fill:rgb(65,65,65);fill-rule:nonzero;"/>
                    </g>
                    <g transform="matrix(0.159715,0,0,0.86834,435.357,164.84)">
                        <path d="M654.229,501.986C644.654,501.677 638.476,489.013 638.476,481.291C638.476,467.392 640.329,451.021 650.522,443.917C671.526,429.399 688.206,502.295 654.229,501.986Z" style="fill:rgb(172,163,155);fill-rule:nonzero;"/>
                    </g>
                    <g transform="matrix(0.173028,-0.764621,0.127942,0.830902,375.979,129.803)">
                        <path d="M147.259,545.792C113.282,546.1 129.961,473.205 150.965,487.722C161.158,494.826 163.012,511.197 163.012,525.097C163.012,532.819 156.834,545.483 147.259,545.792Z" style="fill:rgb(172,163,155);fill-rule:nonzero;"/>
                    </g>
                </g>
            </g>
        </g>
    </g>
    <defs>
        <linearGradient id="_Linear1" x1="0" y1="0" x2="1" y2="0" gradientUnits="userSpaceOnUse" gradientTransform="matrix(619.975,0,0,792.896,100.437,398.61)"><stop offset="0" style="stop-color:rgb(91,203,245);stop-opacity:1"/><stop offset="1" style="stop-color:rgb(15,123,193);stop-opacity:1"/></linearGradient>
    </defs>
</svg>
