<?xml version="1.0" encoding="UTF-8" standalone="no"?>
<!DOCTYPE svg PUBLIC "-//W3C//DTD SVG 1.1//EN" "http://www.w3.org/Graphics/SVG/1.1/DTD/svg11.dtd">
<svg width="100%" height="100%" viewBox="0 0 601 140" version="1.1" xmlns="http://www.w3.org/2000/svg" xmlns:xlink="http://www.w3.org/1999/xlink" xml:space="preserve" xmlns:serif="http://www.serif.com/" style="fill-rule:evenodd;clip-rule:evenodd;stroke-linejoin:round;stroke-miterlimit:2;">
    <g transform="matrix(1,0,0,1,-201,-7080)">
        <g id="Variadic-Functions" serif:id="Variadic Functions" transform="matrix(0.585938,0,0,0.182292,201.763,7080)">
            <rect x="0" y="0" width="1024" height="768" style="fill:none;"/>
            <g id="Gopher" transform="matrix(0.138664,0,0,0.445705,617.167,241.777)">
                <path d="M715.598,106.873C739.382,155.985 667.104,161.236 670.811,183.166C677.606,222.703 672.973,281.39 667.722,339.151C658.764,437.066 731.969,671.506 579.382,765.714C550.656,783.629 482.394,793.514 415.058,795.058L414.44,795.058C347.104,793.514 269.575,783.629 240.849,765.714C88.571,671.506 161.776,437.066 153.127,339.151C147.568,281.39 142.934,222.703 150.039,183.166C153.745,161.236 81.467,156.293 105.251,106.873C125.637,64.556 175.985,101.931 188.649,88.649C253.205,21.622 331.66,3.707 393.436,2.162L427.413,2.162C488.88,5.251 567.336,21.931 632.201,88.649C644.865,101.931 694.903,64.556 715.598,106.873Z" style="fill:url(#_Linear1);fill-rule:nonzero;"/>
                <g transform="matrix(1,0,0,1,0,-18.6784)">
                    <path d="M381.081,363.552C378.301,364.788 373.668,395.058 387.876,396.602C397.452,397.529 423.707,400.618 429.884,396.602C441.931,388.88 440.695,370.347 433.9,365.714C422.471,358.301 384.17,362.008 381.081,363.552Z" style="fill:white;fill-rule:nonzero;"/>
                </g>
                <g transform="matrix(5.90954,0,0,5.90954,-2556.36,-33854.4)">
                    <circle cx="482.025" cy="5766.4" r="15.62" style="fill:white;"/>
                </g>
                <g transform="matrix(5.90954,0,0,5.90954,-2320.7,-33854.4)">
                    <circle cx="482.025" cy="5766.4" r="15.62" style="fill:white;"/>
                </g>
                <path d="M410.425,280.936C429.884,278.156 476.525,300.395 473.436,326.65C469.73,357.229 353.282,361.244 347.104,324.797C343.398,302.557 361.004,288.349 410.425,280.936ZM608.726,769.73C614.903,778.687 615.212,784.865 605.328,789.498C567.645,806.795 533.977,783.629 546.641,777.143C573.514,763.552 590.193,742.239 608.726,769.73ZM211.815,772.819C230.347,745.328 247.027,766.641 273.9,780.232C286.564,786.718 252.896,809.884 215.212,792.587C205.328,787.954 205.637,781.776 211.815,772.819Z" style="fill:rgb(172,163,155);fill-rule:nonzero;"/>
                <g transform="matrix(1.53217,0.276763,-0.316787,1.75374,-195.336,-802.052)">
                    <path d="M673.282,545.792C663.707,545.483 657.529,532.819 657.529,525.097C657.529,511.197 659.382,494.826 669.575,487.722C690.579,473.205 707.259,546.1 673.282,545.792Z" style="fill:rgb(172,163,155);fill-rule:nonzero;"/>
                </g>
                <g transform="matrix(1.5429,-0.208799,0.238994,1.76603,-206.973,-590.883)">
                    <path d="M147.259,545.792C113.282,546.1 129.961,473.205 150.965,487.722C161.158,494.826 163.012,511.197 163.012,525.097C163.012,532.819 156.834,545.483 147.259,545.792Z" style="fill:rgb(172,163,155);fill-rule:nonzero;"/>
                </g>
                <path d="M657.838,114.286C659.382,107.799 675.444,104.71 684.402,115.83C695.212,129.112 668.649,147.336 667.413,139.923C664.324,119.846 655.985,120.772 657.838,114.286ZM162.703,114.286C164.556,120.772 156.216,119.846 153.127,139.923C151.892,147.336 125.328,129.112 136.139,115.83C144.788,104.71 160.849,107.799 162.703,114.286ZM531.081,258.484C511.634,258.484 495.868,242.719 495.868,223.272C495.868,203.825 511.634,188.06 531.081,188.06C550.528,188.06 566.293,203.825 566.293,223.272C566.293,242.719 550.528,258.484 531.081,258.484ZM527.849,216.345C533.991,216.345 538.969,211.366 538.969,205.225C538.969,199.084 533.991,194.106 527.849,194.106C521.708,194.106 516.73,199.084 516.73,205.225C516.73,211.366 521.708,216.345 527.849,216.345ZM378.61,301.988C382.317,287.779 395.29,283.146 405.792,282.837C432.664,282.22 442.857,296.737 443.784,308.166C445.637,327.625 370.27,332.258 378.61,301.988ZM289.46,258.484C270.012,258.484 254.247,242.719 254.247,223.272C254.247,203.825 270.012,188.06 289.46,188.06C308.907,188.06 324.672,203.825 324.672,223.272C324.672,242.719 308.907,258.484 289.46,258.484ZM292.184,216.752C298.325,216.752 303.304,211.774 303.304,205.632C303.304,199.491 298.325,194.513 292.184,194.513C286.043,194.513 281.064,199.491 281.064,205.632C281.064,211.774 286.043,216.752 292.184,216.752Z" style="fill:rgb(65,65,65);fill-rule:nonzero;"/>
            </g>
            <g id="Gopher1" serif:id="Gopher" transform="matrix(0.16599,-8.00031e-05,2.48899e-05,0.533538,445.036,181.242)">
                <path d="M715.598,106.873C739.382,155.985 667.104,161.236 670.811,183.166C677.606,222.703 672.973,281.39 667.722,339.151C658.764,437.066 731.969,671.506 579.382,765.714C550.656,783.629 482.394,793.514 415.058,795.058L414.44,795.058C347.104,793.514 269.575,783.629 240.849,765.714C88.571,671.506 161.776,437.066 153.127,339.151C147.568,281.39 142.934,222.703 150.039,183.166C153.745,161.236 81.467,156.293 105.251,106.873C125.637,64.556 175.985,101.931 188.649,88.649C253.205,21.622 331.66,3.707 393.436,2.162L427.413,2.162C488.88,5.251 567.336,21.931 632.201,88.649C644.865,101.931 694.903,64.556 715.598,106.873Z" style="fill:url(#_Linear2);fill-rule:nonzero;"/>
                <g transform="matrix(1,7.63779e-20,-4.77049e-18,0.817847,1.81899e-12,24.8685)">
                    <path d="M381.081,363.552C378.301,364.788 373.668,395.058 387.876,396.602C397.452,397.529 423.707,400.618 429.884,396.602C441.931,388.88 440.695,370.347 433.9,365.714C422.471,358.301 384.17,362.008 381.081,363.552ZM302.625,136.834C270.811,133.127 217.375,162.78 209.344,225.792C200.695,291.274 277.915,356.139 352.046,291.274C391.892,256.371 405.792,148.88 302.625,136.834ZM517.606,136.834C414.44,148.88 428.34,256.371 468.185,291.274C542.317,356.139 619.537,291.274 610.888,225.792C603.166,162.78 549.73,133.127 517.606,136.834Z" style="fill:white;fill-rule:nonzero;"/>
                </g>
                <path d="M410.431,254.688C429.891,251.908 476.532,274.147 473.443,300.402C469.736,330.981 353.289,334.997 347.111,298.549C343.404,276.309 361.011,262.101 410.431,254.688ZM608.726,769.73C614.903,778.687 615.212,784.865 605.328,789.498C567.645,806.795 533.977,783.629 546.641,777.143C573.514,763.552 590.193,742.239 608.726,769.73ZM211.815,772.819C230.347,745.328 247.027,766.641 273.9,780.232C286.564,786.718 252.896,809.884 215.212,792.587C205.328,787.954 205.637,781.776 211.815,772.819Z" style="fill:rgb(172,163,155);fill-rule:nonzero;"/>
                <path d="M657.838,114.286C659.382,107.799 675.444,104.71 684.402,115.83C695.212,129.112 668.649,147.336 667.413,139.923C664.324,119.846 655.985,120.772 657.838,114.286ZM162.703,114.286C164.556,120.772 156.216,119.846 153.127,139.923C151.892,147.336 125.328,129.112 136.139,115.83C144.788,104.71 160.849,107.799 162.703,114.286ZM524.717,219.784C505.27,219.784 489.505,204.019 489.505,184.572C489.505,165.125 505.27,149.36 524.717,149.36C544.164,149.36 559.93,165.125 559.93,184.572C559.93,204.019 544.164,219.784 524.717,219.784ZM515.451,180.557C521.592,180.557 526.57,175.578 526.57,169.437C526.57,163.296 521.592,158.317 515.451,158.317C509.31,158.317 504.331,163.296 504.331,169.437C504.331,175.578 509.31,180.557 515.451,180.557ZM378.617,269.514C382.323,255.306 395.296,250.672 405.798,250.363C432.671,249.746 442.864,264.263 443.791,275.692C445.644,295.151 370.277,299.784 378.617,269.514ZM295.837,219.784C276.39,219.784 260.624,204.019 260.624,184.572C260.624,165.125 276.39,149.36 295.837,149.36C315.284,149.36 331.049,165.125 331.049,184.572C331.049,204.019 315.284,219.784 295.837,219.784ZM305.103,180.557C311.244,180.557 316.223,175.578 316.223,169.437C316.223,163.296 311.244,158.317 305.103,158.317C298.962,158.317 293.984,163.296 293.984,169.437C293.984,175.578 298.962,180.557 305.103,180.557Z" style="fill:rgb(65,65,65);fill-rule:nonzero;"/>
            </g>
            <g id="Gopher2" serif:id="Gopher" transform="matrix(0.165696,-0.0428783,0.0133399,0.532594,279.356,152.735)">
                <path d="M381.081,363.552C378.301,364.788 373.668,395.058 387.876,396.602C397.452,397.529 423.707,400.618 429.884,396.602C441.931,388.88 440.695,370.347 433.9,365.714C422.471,358.301 384.17,362.008 381.081,363.552ZM302.625,136.834C270.811,133.127 217.375,162.78 209.344,225.792C200.695,291.274 277.915,356.139 352.046,291.274C391.892,256.371 405.792,148.88 302.625,136.834ZM517.606,136.834C414.44,148.88 428.34,256.371 468.185,291.274C542.317,356.139 619.537,291.274 610.888,225.792C603.166,162.78 549.73,133.127 517.606,136.834Z" style="fill:white;fill-rule:nonzero;"/>
                <path d="M715.598,106.873C739.382,155.985 667.104,161.236 670.811,183.166C677.606,222.703 672.973,281.39 667.722,339.151C658.764,437.066 731.969,671.506 579.382,765.714C550.656,783.629 482.394,793.514 415.058,795.058L414.44,795.058C347.104,793.514 269.575,783.629 240.849,765.714C88.571,671.506 161.776,437.066 153.127,339.151C147.568,281.39 142.934,222.703 150.039,183.166C153.745,161.236 81.467,156.293 105.251,106.873C125.637,64.556 175.985,101.931 188.649,88.649C253.205,21.622 331.66,3.707 393.436,2.162L427.413,2.162C488.88,5.251 567.336,21.931 632.201,88.649C644.865,101.931 694.903,64.556 715.598,106.873ZM381.081,363.552C378.301,364.788 373.668,395.058 387.876,396.602C397.452,397.529 423.707,400.618 429.884,396.602C441.931,388.88 440.695,370.347 433.9,365.714C422.471,358.301 384.17,362.008 381.081,363.552ZM302.625,136.834C270.811,133.127 217.375,162.78 209.344,225.792C200.695,291.274 277.915,356.139 352.046,291.274C391.892,256.371 405.792,148.88 302.625,136.834ZM517.606,136.834C414.44,148.88 428.34,256.371 468.185,291.274C542.317,356.139 619.537,291.274 610.888,225.792C603.166,162.78 549.73,133.127 517.606,136.834Z" style="fill:url(#_Linear3);fill-rule:nonzero;"/>
                <path d="M410.425,299.614C429.884,296.834 476.525,319.073 473.436,345.328C469.73,375.907 353.282,379.923 347.104,343.475C343.398,321.236 361.004,307.027 410.425,299.614ZM608.726,769.73C614.903,778.687 615.212,784.865 605.328,789.498C567.645,806.795 533.977,783.629 546.641,777.143C573.514,763.552 590.193,742.239 608.726,769.73ZM211.815,772.819C230.347,745.328 247.027,766.641 273.9,780.232C286.564,786.718 252.896,809.884 215.212,792.587C205.328,787.954 205.637,781.776 211.815,772.819Z" style="fill:rgb(172,163,155);fill-rule:nonzero;"/>
                <path d="M657.838,114.286C659.382,107.799 675.444,104.71 684.402,115.83C695.212,129.112 668.649,147.336 667.413,139.923C664.324,119.846 655.985,120.772 657.838,114.286ZM162.703,114.286C164.556,120.772 156.216,119.846 153.127,139.923C151.892,147.336 125.328,129.112 136.139,115.83C144.788,104.71 160.849,107.799 162.703,114.286ZM545.178,266.358C525.73,266.358 509.965,250.593 509.965,231.146C509.965,211.699 525.73,195.934 545.178,195.934C564.625,195.934 580.39,211.699 580.39,231.146C580.39,250.593 564.625,266.358 545.178,266.358ZM535.911,227.13C542.053,227.13 547.031,222.152 547.031,216.011C547.031,209.869 542.053,204.891 535.911,204.891C529.77,204.891 524.792,209.869 524.792,216.011C524.792,222.152 529.77,227.13 535.911,227.13ZM378.61,314.44C382.317,300.232 395.29,295.598 405.792,295.29C432.664,294.672 442.857,309.189 443.784,320.618C445.637,340.077 370.27,344.71 378.61,314.44ZM316.297,266.358C296.85,266.358 281.085,250.593 281.085,231.146C281.085,211.699 296.85,195.934 316.297,195.934C335.745,195.934 351.51,211.699 351.51,231.146C351.51,250.593 335.745,266.358 316.297,266.358ZM325.564,227.13C331.705,227.13 336.684,222.152 336.684,216.011C336.684,209.869 331.705,204.891 325.564,204.891C319.423,204.891 314.444,209.869 314.444,216.011C314.444,222.152 319.423,227.13 325.564,227.13Z" style="fill:rgb(65,65,65);fill-rule:nonzero;"/>
            </g>
            <g transform="matrix(1.51649,0.511366,-0.0296971,0.909894,-562.122,-397.066)">
                <g id="Gopher3" serif:id="Gopher" transform="matrix(0.113657,0,0,0.6036,464.58,268.953)">
                    <path d="M381.081,363.552C378.301,364.788 373.668,395.058 387.876,396.602C397.452,397.529 423.707,400.618 429.884,396.602C441.931,388.88 440.695,370.347 433.9,365.714C422.471,358.301 384.17,362.008 381.081,363.552ZM302.625,136.834C270.811,133.127 217.375,162.78 209.344,225.792C200.695,291.274 277.915,356.139 352.046,291.274C391.892,256.371 405.792,148.88 302.625,136.834ZM517.606,136.834C414.44,148.88 428.34,256.371 468.185,291.274C542.317,356.139 619.537,291.274 610.888,225.792C603.166,162.78 549.73,133.127 517.606,136.834Z" style="fill:white;fill-rule:nonzero;"/>
                    <path d="M143.065,550.578C141.762,470.456 102.721,395.746 37.926,349.385C29.674,343.48 24.493,339.773 24.493,339.773L43.503,283.52C43.503,283.52 111.865,334.44 140.939,356.096C143.422,357.951 146.741,358.204 149.472,356.747C152.204,355.289 153.864,352.38 153.741,349.265C153.609,345.752 153.412,342.377 153.127,339.151C147.568,281.39 142.934,222.703 150.039,183.166C153.745,161.236 81.467,156.293 105.251,106.873C125.637,64.556 175.985,101.931 188.649,88.649C253.205,21.622 331.66,3.707 393.436,2.162L427.413,2.162C488.88,5.251 567.336,21.931 632.201,88.649C644.865,101.931 694.903,64.556 715.598,106.873C739.382,155.985 667.104,161.236 670.811,183.166C677.606,222.703 672.973,281.39 667.722,339.151C658.764,437.066 731.969,671.506 579.382,765.714C550.656,783.629 482.394,793.514 415.058,795.058L414.44,795.058C347.104,793.514 269.575,783.629 240.849,765.714C163.714,717.994 144.434,634.291 143.065,550.578ZM517.606,136.834C414.44,148.88 428.34,256.371 468.185,291.274C542.317,356.139 619.537,291.274 610.888,225.792C603.166,162.78 549.73,133.127 517.606,136.834ZM381.081,363.552C378.301,364.788 373.668,395.058 387.876,396.602C397.452,397.529 423.707,400.618 429.884,396.602C441.931,388.88 440.695,370.347 433.9,365.714C422.471,358.301 384.17,362.008 381.081,363.552ZM302.625,136.834C270.811,133.127 217.375,162.78 209.344,225.792C200.695,291.274 277.915,356.139 352.046,291.274C391.892,256.371 405.792,148.88 302.625,136.834Z" style="fill:url(#_Linear4);"/>
                    <path d="M410.425,299.614C429.884,296.834 476.525,319.073 473.436,345.328C469.73,375.907 353.282,379.923 347.104,343.475C343.398,321.236 361.004,307.027 410.425,299.614ZM608.726,769.73C614.903,778.687 615.212,784.865 605.328,789.498C567.645,806.795 533.977,783.629 546.641,777.143C573.514,763.552 590.193,742.239 608.726,769.73ZM211.815,772.819C230.347,745.328 247.027,766.641 273.9,780.232C286.564,786.718 252.896,809.884 215.212,792.587C205.328,787.954 205.637,781.776 211.815,772.819Z" style="fill:rgb(172,163,155);fill-rule:nonzero;"/>
                    <path d="M657.838,114.286C659.382,107.799 675.444,104.71 684.402,115.83C695.212,129.112 668.649,147.336 667.413,139.923C664.324,119.846 655.985,120.772 657.838,114.286ZM162.703,114.286C164.556,120.772 156.216,119.846 153.127,139.923C151.892,147.336 125.328,129.112 136.139,115.83C144.788,104.71 160.849,107.799 162.703,114.286ZM509.93,264.71C490.483,264.71 474.718,248.945 474.718,229.498C474.718,210.051 490.483,194.286 509.93,194.286C529.377,194.286 545.142,210.051 545.142,229.498C545.142,248.945 529.377,264.71 509.93,264.71ZM500.664,225.483C506.805,225.483 511.783,220.504 511.783,214.363C511.783,208.222 506.805,203.243 500.664,203.243C494.522,203.243 489.544,208.222 489.544,214.363C489.544,220.504 494.522,225.483 500.664,225.483ZM378.61,314.44C382.317,300.232 395.29,295.598 405.792,295.29C432.664,294.672 442.857,309.189 443.784,320.618C445.637,340.077 370.27,344.71 378.61,314.44ZM269.645,264.71C250.198,264.71 234.433,248.945 234.433,229.498C234.433,210.051 250.198,194.286 269.645,194.286C289.092,194.286 304.857,210.051 304.857,229.498C304.857,248.945 289.092,264.71 269.645,264.71ZM278.911,225.483C285.053,225.483 290.031,220.504 290.031,214.363C290.031,208.222 285.053,203.243 278.911,203.243C272.77,203.243 267.792,208.222 267.792,214.363C267.792,220.504 272.77,225.483 278.911,225.483Z" style="fill:rgb(65,65,65);fill-rule:nonzero;"/>
                </g>
                <g transform="matrix(0.159715,0,0,0.86834,435.357,164.84)">
                    <path d="M654.229,501.986C644.654,501.677 638.476,489.013 638.476,481.291C638.476,467.392 640.329,451.021 650.522,443.917C671.526,429.399 688.206,502.295 654.229,501.986Z" style="fill:rgb(172,163,155);fill-rule:nonzero;"/>
                </g>
                <g transform="matrix(0.173028,-0.764621,0.127942,0.830902,375.979,129.803)">
                    <path d="M147.259,545.792C113.282,546.1 129.961,473.205 150.965,487.722C161.158,494.826 163.012,511.197 163.012,525.097C163.012,532.819 156.834,545.483 147.259,545.792Z" style="fill:rgb(172,163,155);fill-rule:nonzero;"/>
                </g>
            </g>
            <g id="Livello-1" serif:id="Livello 1" transform="matrix(1.15947,0,0,3.72688,21.0763,-1440.25)">
                <g id="g5434" transform="matrix(1.3056,0,0,1.3056,-425.507,-328.244)">
                    <g id="rect3839" transform="matrix(1,0,0,1,0,22.548)">
                        <rect x="387.05" y="608.98" width="102.58" height="10" style="fill:rgb(191,154,64);"/>
                    </g>
                    <g id="rect3841" transform="matrix(1,0,0,0.597893,-1.42109e-14,271.426)">
                        <rect x="389.61" y="619.01" width="98" height="56" style="fill:rgb(217,38,38);"/>
                    </g>
                    <rect id="rect3872" x="387.31" y="674.61" width="102.33" height="12" style="fill:rgb(102,18,18);"/>
                    <g id="path3856" transform="matrix(1.3831,0,0,1.3103,67.335,-213.23)">
                        <path d="M265.5,684.84C265.5,693.27 259.026,700.103 251.04,700.103C243.054,700.103 236.58,693.269 236.58,684.84C236.58,676.41 243.054,669.577 251.04,669.577C259.026,669.577 265.5,676.411 265.5,684.84Z" style="fill:rgb(111,116,114);fill-rule:nonzero;"/>
                    </g>
                    <g id="path3858" transform="matrix(1.0373,0,0,0.98274,154.14,11.106)">
                        <path d="M265.5,684.84C265.5,693.27 259.026,700.103 251.04,700.103C243.054,700.103 236.58,693.269 236.58,684.84C236.58,676.41 243.054,669.577 251.04,669.577C259.026,669.577 265.5,676.411 265.5,684.84Z" style="fill:rgb(65,65,65);fill-rule:nonzero;"/>
                    </g>
                    <g id="path3860" transform="matrix(1.3831,0,0,1.3103,111.34,-213.23)">
                        <path d="M265.5,684.84C265.5,693.27 259.026,700.103 251.04,700.103C243.054,700.103 236.58,693.269 236.58,684.84C236.58,676.41 243.054,669.577 251.04,669.577C259.026,669.577 265.5,676.411 265.5,684.84Z" style="fill:rgb(111,116,114);fill-rule:nonzero;"/>
                    </g>
                    <g id="path3862" transform="matrix(1.0373,0,0,0.98274,198.14,11.106)">
                        <path d="M265.5,684.84C265.5,693.27 259.026,700.103 251.04,700.103C243.054,700.103 236.58,693.269 236.58,684.84C236.58,676.41 243.054,669.577 251.04,669.577C259.026,669.577 265.5,676.411 265.5,684.84Z" style="fill:rgb(65,65,65);fill-rule:nonzero;"/>
                    </g>
                    <rect id="rect3874" x="493.31" y="674.61" width="102.33" height="12" style="fill:rgb(102,18,18);"/>
                    <g id="rect3878" transform="matrix(1,0,0,0.597893,4.26326e-14,271.426)">
                        <rect x="494.38" y="619.01" width="98" height="56" style="fill:rgb(217,38,38);"/>
                    </g>
                    <g id="path3864" transform="matrix(1.3831,0,0,1.3103,175.34,-213.23)">
                        <path d="M265.5,684.84C265.5,693.27 259.026,700.103 251.04,700.103C243.054,700.103 236.58,693.269 236.58,684.84C236.58,676.41 243.054,669.577 251.04,669.577C259.026,669.577 265.5,676.411 265.5,684.84Z" style="fill:rgb(111,116,114);fill-rule:nonzero;"/>
                    </g>
                    <g id="path3866" transform="matrix(1.0373,0,0,0.98274,262.14,11.106)">
                        <path d="M265.5,684.84C265.5,693.27 259.026,700.103 251.04,700.103C243.054,700.103 236.58,693.269 236.58,684.84C236.58,676.41 243.054,669.577 251.04,669.577C259.026,669.577 265.5,676.411 265.5,684.84Z" style="fill:rgb(65,65,65);fill-rule:nonzero;"/>
                    </g>
                    <g id="path3868" transform="matrix(1.3831,0,0,1.3103,217.34,-213.23)">
                        <path d="M265.5,684.84C265.5,693.27 259.026,700.103 251.04,700.103C243.054,700.103 236.58,693.269 236.58,684.84C236.58,676.41 243.054,669.577 251.04,669.577C259.026,669.577 265.5,676.411 265.5,684.84Z" style="fill:rgb(111,116,114);fill-rule:nonzero;"/>
                    </g>
                    <g id="path3870" transform="matrix(1.0373,0,0,0.98274,304.14,11.106)">
                        <path d="M265.5,684.84C265.5,693.27 259.026,700.103 251.04,700.103C243.054,700.103 236.58,693.269 236.58,684.84C236.58,676.41 243.054,669.577 251.04,669.577C259.026,669.577 265.5,676.411 265.5,684.84Z" style="fill:rgb(65,65,65);fill-rule:nonzero;"/>
                    </g>
                    <g id="rect3876" transform="matrix(1,0,0,1,0,22.548)">
                        <rect x="493.05" y="608.98" width="102.58" height="10" style="fill:rgb(191,154,64);"/>
                    </g>
                </g>
                <g id="g54341" serif:id="g5434" transform="matrix(1.3056,0,0,1.3056,-148.242,-328.244)">
                    <g id="rect38391" serif:id="rect3839" transform="matrix(1,0,0,1,0,22.548)">
                        <rect x="387.05" y="608.98" width="102.58" height="10" style="fill:rgb(191,154,64);"/>
                    </g>
                    <g id="rect38411" serif:id="rect3841" transform="matrix(1,0,0,0.597893,-1.42109e-14,271.426)">
                        <rect x="389.61" y="619.01" width="98" height="56" style="fill:rgb(217,38,38);"/>
                    </g>
                    <rect id="rect38721" serif:id="rect3872" x="387.31" y="674.61" width="102.33" height="12" style="fill:rgb(102,18,18);"/>
                    <g id="path38561" serif:id="path3856" transform="matrix(1.3831,0,0,1.3103,67.335,-213.23)">
                        <path d="M265.5,684.84C265.5,693.27 259.026,700.103 251.04,700.103C243.054,700.103 236.58,693.269 236.58,684.84C236.58,676.41 243.054,669.577 251.04,669.577C259.026,669.577 265.5,676.411 265.5,684.84Z" style="fill:rgb(111,116,114);fill-rule:nonzero;"/>
                    </g>
                    <g id="path38581" serif:id="path3858" transform="matrix(1.0373,0,0,0.98274,154.14,11.106)">
                        <path d="M265.5,684.84C265.5,693.27 259.026,700.103 251.04,700.103C243.054,700.103 236.58,693.269 236.58,684.84C236.58,676.41 243.054,669.577 251.04,669.577C259.026,669.577 265.5,676.411 265.5,684.84Z" style="fill:rgb(65,65,65);fill-rule:nonzero;"/>
                    </g>
                    <g id="path38601" serif:id="path3860" transform="matrix(1.3831,0,0,1.3103,111.34,-213.23)">
                        <path d="M265.5,684.84C265.5,693.27 259.026,700.103 251.04,700.103C243.054,700.103 236.58,693.269 236.58,684.84C236.58,676.41 243.054,669.577 251.04,669.577C259.026,669.577 265.5,676.411 265.5,684.84Z" style="fill:rgb(111,116,114);fill-rule:nonzero;"/>
                    </g>
                    <g id="path38621" serif:id="path3862" transform="matrix(1.0373,0,0,0.98274,198.14,11.106)">
                        <path d="M265.5,684.84C265.5,693.27 259.026,700.103 251.04,700.103C243.054,700.103 236.58,693.269 236.58,684.84C236.58,676.41 243.054,669.577 251.04,669.577C259.026,669.577 265.5,676.411 265.5,684.84Z" style="fill:rgb(65,65,65);fill-rule:nonzero;"/>
                    </g>
                    <rect id="rect38741" serif:id="rect3874" x="493.31" y="674.61" width="102.33" height="12" style="fill:rgb(102,18,18);"/>
                    <g id="rect38781" serif:id="rect3878" transform="matrix(1,0,0,0.597893,4.26326e-14,271.426)">
                        <rect x="494.38" y="619.01" width="98" height="56" style="fill:rgb(217,38,38);"/>
                    </g>
                    <g id="path38641" serif:id="path3864" transform="matrix(1.3831,0,0,1.3103,175.34,-213.23)">
                        <path d="M265.5,684.84C265.5,693.27 259.026,700.103 251.04,700.103C243.054,700.103 236.58,693.269 236.58,684.84C236.58,676.41 243.054,669.577 251.04,669.577C259.026,669.577 265.5,676.411 265.5,684.84Z" style="fill:rgb(111,116,114);fill-rule:nonzero;"/>
                    </g>
                    <g id="path38661" serif:id="path3866" transform="matrix(1.0373,0,0,0.98274,262.14,11.106)">
                        <path d="M265.5,684.84C265.5,693.27 259.026,700.103 251.04,700.103C243.054,700.103 236.58,693.269 236.58,684.84C236.58,676.41 243.054,669.577 251.04,669.577C259.026,669.577 265.5,676.411 265.5,684.84Z" style="fill:rgb(65,65,65);fill-rule:nonzero;"/>
                    </g>
                    <g id="path38681" serif:id="path3868" transform="matrix(1.3831,0,0,1.3103,217.34,-213.23)">
                        <path d="M265.5,684.84C265.5,693.27 259.026,700.103 251.04,700.103C243.054,700.103 236.58,693.269 236.58,684.84C236.58,676.41 243.054,669.577 251.04,669.577C259.026,669.577 265.5,676.411 265.5,684.84Z" style="fill:rgb(111,116,114);fill-rule:nonzero;"/>
                    </g>
                    <g id="path38701" serif:id="path3870" transform="matrix(1.0373,0,0,0.98274,304.14,11.106)">
                        <path d="M265.5,684.84C265.5,693.27 259.026,700.103 251.04,700.103C243.054,700.103 236.58,693.269 236.58,684.84C236.58,676.41 243.054,669.577 251.04,669.577C259.026,669.577 265.5,676.411 265.5,684.84Z" style="fill:rgb(65,65,65);fill-rule:nonzero;"/>
                    </g>
                    <g id="rect38761" serif:id="rect3876" transform="matrix(1,0,0,1,0,22.548)">
                        <rect x="493.05" y="608.98" width="102.58" height="10" style="fill:rgb(191,154,64);"/>
                    </g>
                </g>
                <g id="g54342" serif:id="g5434" transform="matrix(1.3056,0,0,1.3056,127.705,-328.244)">
                    <g id="rect38392" serif:id="rect3839" transform="matrix(1,0,0,1,0,22.548)">
                        <rect x="387.05" y="608.98" width="102.58" height="10" style="fill:none;stroke:rgb(191,154,64);stroke-width:1.13px;stroke-dasharray:1.13,1.13;"/>
                    </g>
                    <g id="rect38412" serif:id="rect3841" transform="matrix(0.91891,0,0,0.54941,39.5405,302.587)">
                        <path d="M487.61,619.01L487.61,675.01" style="fill:none;stroke:rgb(255,38,0);stroke-width:1.49px;stroke-dasharray:1.49,1.49;"/>
                    </g>
                    <g id="rect38413" serif:id="rect3841" transform="matrix(0.91891,0,0,0.54941,31.5936,302.587)">
                        <path d="M389.61,675.01L389.61,619.01" style="fill:none;stroke:rgb(255,38,0);stroke-width:1.49px;stroke-dasharray:1.49,1.49;"/>
                    </g>
                    <path id="rect38722" serif:id="rect3872" d="M393.575,686.61L387.31,686.61L387.31,674.61L395.821,674.61M437.58,686.61L435.521,686.61M477.281,674.61L489.64,674.61L489.64,686.61L479.526,686.61" style="fill:none;stroke:rgb(102,18,18);stroke-width:1.13px;stroke-linejoin:miter;stroke-dasharray:1.13,1.13;"/>
                    <path id="rect38723" serif:id="rect3872" d="M433.276,674.61L439.826,674.61" style="fill:none;stroke:rgb(102,18,18);stroke-width:1.13px;stroke-linejoin:miter;stroke-dasharray:1.13,1.13;"/>
                    <g id="path38562" serif:id="path3856" transform="matrix(1.3831,0,0,1.3103,67.335,-213.23)">
                        <path d="M265.5,684.84C265.5,693.27 259.026,700.103 251.04,700.103C243.054,700.103 236.58,693.269 236.58,684.84C236.58,676.41 243.054,669.577 251.04,669.577C259.026,669.577 265.5,676.411 265.5,684.84Z" style="fill:none;fill-rule:nonzero;stroke:rgb(111,116,114);stroke-width:0.84px;stroke-dasharray:0.84,0.84;"/>
                    </g>
                    <g id="path38602" serif:id="path3860" transform="matrix(1.3831,0,0,1.3103,111.34,-213.23)">
                        <path d="M265.5,684.84C265.5,693.27 259.026,700.103 251.04,700.103C243.054,700.103 236.58,693.269 236.58,684.84C236.58,676.41 243.054,669.577 251.04,669.577C259.026,669.577 265.5,676.411 265.5,684.84Z" style="fill:none;fill-rule:nonzero;stroke:rgb(111,116,114);stroke-width:0.84px;stroke-dasharray:0.84,0.84;"/>
                    </g>
                </g>
            </g>
        </g>
    </g>
    <defs>
        <linearGradient id="_Linear1" x1="0" y1="0" x2="1" y2="0" gradientUnits="userSpaceOnUse" gradientTransform="matrix(619.975,0,0,792.896,100.437,398.61)"><stop offset="0" style="stop-color:rgb(140,45,97);stop-opacity:1"/><stop offset="1" style="stop-color:rgb(241,91,102);stop-opacity:1"/></linearGradient>
        <linearGradient id="_Linear2" x1="0" y1="0" x2="1" y2="0" gradientUnits="userSpaceOnUse" gradientTransform="matrix(619.975,0,0,792.896,100.437,398.61)"><stop offset="0" style="stop-color:rgb(224,147,61);stop-opacity:1"/><stop offset="1" style="stop-color:rgb(255,232,63);stop-opacity:1"/></linearGradient>
        <linearGradient id="_Linear3" x1="0" y1="0" x2="1" y2="0" gradientUnits="userSpaceOnUse" gradientTransform="matrix(619.975,0,0,792.896,100.437,398.61)"><stop offset="0" style="stop-color:rgb(0,174,156);stop-opacity:1"/><stop offset="1" style="stop-color:rgb(163,207,98);stop-opacity:1"/></linearGradient>
        <linearGradient id="_Linear4" x1="0" y1="0" x2="1" y2="0" gradientUnits="userSpaceOnUse" gradientTransform="matrix(695.919,0,0,792.896,24.4931,398.61)"><stop offset="0" style="stop-color:rgb(15,123,193);stop-opacity:1"/><stop offset="1" style="stop-color:rgb(91,203,245);stop-opacity:1"/></linearGradient>
    </defs>
</svg>
