<?xml version="1.0" encoding="UTF-8" standalone="no"?>
<!DOCTYPE svg PUBLIC "-//W3C//DTD SVG 1.1//EN" "http://www.w3.org/Graphics/SVG/1.1/DTD/svg11.dtd">
<svg width="100%" height="100%" viewBox="0 0 601 140" version="1.1" xmlns="http://www.w3.org/2000/svg" xmlns:xlink="http://www.w3.org/1999/xlink" xml:space="preserve" xmlns:serif="http://www.serif.com/" style="fill-rule:evenodd;clip-rule:evenodd;stroke-linecap:round;stroke-linejoin:round;stroke-miterlimit:1.5;">
    <g transform="matrix(1,0,0,1,-203,-10160)">
        <g id="WaitGroups" transform="matrix(0.585938,0,0,0.182292,203.348,10160)">
            <rect x="0" y="0" width="1024" height="768" style="fill:none;"/>
            <g transform="matrix(0.475477,0,0,0.475477,314.181,-166.396)">
                <g transform="matrix(0.94653,0,0,3.04242,59.517,-48.9695)">
                    <path d="M344.337,447.452L345.657,458.905L373.363,466.458L385.183,465.624L387.953,567.054L401.739,447.452L344.337,447.452Z" style="fill:rgb(122,109,103);"/>
                </g>
                <g transform="matrix(0.94653,0,0,3.04242,59.517,-48.9695)">
                    <path d="M340.162,411.23L405.913,411.23L386.806,577.012C385.257,590.447 360.806,590.346 359.269,577.012L340.162,411.23Z" style="fill:rgb(153,140,135);"/>
                </g>
                <g transform="matrix(0.94653,0,0,3.04242,59.517,-48.9695)">
                    <path d="M373.037,451.682L345.798,284.488L373.037,142.311L455.397,158.951L478.044,202.732L442.415,419.649L421.835,444.489L373.037,451.682Z" style="fill:rgb(26,26,26);"/>
                </g>
                <g transform="matrix(0.94653,0,0,3.04242,59.517,-48.9695)">
                    <path d="M478.044,202.732L455.397,158.951L421.835,444.489L442.415,419.649L478.044,202.732Z" style="fill:rgb(78,78,78);"/>
                </g>
                <g transform="matrix(0.94653,0,0,3.04242,59.517,-48.9695)">
                    <path d="M373.037,451.682L373.037,142.311L290.677,158.951L268.032,202.732L303.658,419.649L324.24,444.489L373.037,451.682Z" style="fill:rgb(51,51,51);"/>
                </g>
                <g transform="matrix(0.94653,0,0,3.04242,59.517,-48.9695)">
                    <path d="M268.032,202.732L290.677,158.951L324.24,444.489L303.658,419.649L268.032,202.732Z" style="fill:rgb(78,78,78);"/>
                </g>
                <g transform="matrix(0.94653,0,0,3.04242,59.517,-48.9695)">
                    <path d="M323.459,214.89C323.25,187.509 345.276,165.141 372.657,164.933C400.038,164.723 422.405,186.749 422.614,214.13C422.823,241.511 400.798,263.878 373.417,264.087C346.036,264.296 323.669,242.27 323.459,214.89Z" style="fill:rgb(225,2,113);"/>
                </g>
                <g transform="matrix(0.94653,0,0,3.04242,59.517,-48.9695)">
                    <path d="M328.422,214.851C328.233,190.211 348.056,170.083 372.696,169.895C397.336,169.706 417.464,189.528 417.653,214.168C417.841,238.808 398.019,258.936 373.379,259.125C348.738,259.314 328.611,239.492 328.422,214.851Z" style="fill:rgb(254,164,210);"/>
                </g>
                <g transform="matrix(0.94653,0,0,3.04242,59.517,-48.9695)">
                    <path d="M333.632,220.631C333.529,207.273 344.299,199.395 357.685,203.034C371.071,206.672 382.006,220.451 382.108,233.808C382.211,247.166 371.441,255.045 358.056,251.406C344.669,247.767 333.734,233.989 333.632,220.631Z" style="fill:rgb(254,164,210);"/>
                </g>
                <g transform="matrix(0.94653,0,0,3.04242,59.517,-48.9695)">
                    <path d="M373.037,162.38C399.524,164.437 415.685,175.08 426.282,200.62C411.938,187.116 386.756,184.337 373.037,184.453L367.495,174.75L373.037,162.38Z" style="fill:rgb(51,51,51);"/>
                </g>
                <g transform="matrix(0.94653,0,0,3.04242,59.517,-48.9695)">
                    <path d="M373.037,162.38C346.55,164.437 330.389,175.08 319.791,200.62C334.136,187.116 359.319,184.337 373.037,184.453L373.037,162.38Z" style="fill:rgb(78,78,78);"/>
                </g>
                <g transform="matrix(0.94653,0,0,3.04242,59.517,-48.9695)">
                    <path d="M319.791,200.62C334.136,187.116 359.319,184.718 373.037,184.835C386.756,184.718 411.938,187.116 426.282,200.62C415.577,186.862 395.478,183.325 373.037,182.34C350.596,183.325 330.498,186.862 319.791,200.62Z" style="fill:rgb(245,145,146);"/>
                </g>
                <g transform="matrix(0.94653,0,0,3.04242,59.517,-48.9695)">
                    <path d="M330.023,316.234C329.842,292.477 348.952,273.072 372.708,272.89C396.464,272.708 415.87,291.818 416.052,315.575C416.233,339.33 397.122,358.736 373.367,358.918C349.61,359.1 330.205,339.99 330.023,316.234Z" style="fill:rgb(144,114,3);"/>
                </g>
                <g transform="matrix(0.94653,0,0,3.04242,59.517,-48.9695)">
                    <path d="M334.329,316.2C334.165,294.822 351.362,277.359 372.741,277.195C394.119,277.031 411.583,294.229 411.747,315.607C411.909,336.986 394.712,354.45 373.335,354.613C351.955,354.777 334.492,337.579 334.329,316.2Z" style="fill:rgb(194,153,5);"/>
                </g>
                <g transform="matrix(0.94653,0,0,3.04242,59.517,-48.9695)">
                    <path d="M338.979,321.105C338.891,309.516 348.235,302.68 359.849,305.837C371.462,308.994 380.95,320.948 381.038,332.538C381.128,344.127 371.784,350.963 360.17,347.806C348.556,344.649 339.068,332.695 338.979,321.105Z" style="fill:rgb(244,192,6);"/>
                </g>
                <g transform="matrix(0.94653,0,0,3.04242,59.517,-48.9695)">
                    <path d="M372.831,270.961C395.812,272.746 409.833,281.98 419.026,304.139C406.581,292.422 384.733,290.011 372.831,290.112C371.228,287.306 369.625,284.499 368.022,281.693C369.625,278.116 371.228,274.538 372.831,270.961Z" style="fill:rgb(51,51,51);"/>
                </g>
                <g transform="matrix(0.94653,0,0,3.04242,59.517,-48.9695)">
                    <path d="M373.268,270.961C350.286,272.746 336.266,281.98 327.071,304.139C339.517,292.422 361.365,290.011 373.268,290.112L373.268,270.961Z" style="fill:rgb(78,78,78);"/>
                </g>
                <g transform="matrix(0.94653,0,0,3.04242,59.517,-48.9695)">
                    <path d="M326.84,304.053C339.286,292.336 361.134,290.256 373.037,290.356C384.939,290.256 406.788,292.336 419.235,304.053C409.946,292.115 392.509,289.046 373.037,288.192C353.567,289.046 336.13,292.115 326.84,304.053Z" style="fill:rgb(245,145,146);"/>
                </g>
                <g transform="matrix(0.94653,0,0,3.04242,59.517,-48.9695)">
                    <path d="M336.586,405.128C336.432,384.996 352.627,368.552 372.758,368.398C392.89,368.244 409.335,384.439 409.487,404.571C409.642,424.702 393.447,441.146 373.315,441.3C353.185,441.455 336.74,425.26 336.586,405.128Z" style="fill:rgb(0,66,43);"/>
                </g>
                <g transform="matrix(0.94653,0,0,3.04242,59.517,-48.9695)">
                    <path d="M340.235,405.1C340.096,386.984 354.669,372.185 372.786,372.047C390.903,371.908 405.702,386.481 405.839,404.598C405.978,422.715 391.405,437.513 373.288,437.653C355.173,437.791 340.373,423.217 340.235,405.1Z" style="fill:rgb(0,117,76);"/>
                </g>
                <g transform="matrix(0.94653,0,0,3.04242,59.517,-48.9695)">
                    <path d="M344.065,409.35C343.989,399.529 351.907,393.737 361.749,396.412C371.592,399.087 379.632,409.217 379.706,419.038C379.782,428.859 371.864,434.653 362.022,431.977C352.18,429.302 344.14,419.171 344.065,409.35Z" style="fill:rgb(0,168,109);"/>
                </g>
                <g transform="matrix(0.94653,0,0,3.04242,59.517,-48.9695)">
                    <path d="M373.037,366.521C392.512,368.034 404.394,375.86 412.185,394.637C401.638,384.708 383.123,382.664 373.037,382.749L368.963,375.617L373.037,366.521Z" style="fill:rgb(51,51,51);"/>
                </g>
                <g transform="matrix(0.94653,0,0,3.04242,59.517,-48.9695)">
                    <path d="M373.037,366.521C353.563,368.034 341.681,375.86 333.889,394.637C344.437,384.708 362.95,382.664 373.037,382.749L373.037,366.521Z" style="fill:rgb(78,78,78);"/>
                </g>
                <g transform="matrix(0.94653,0,0,3.04242,59.517,-48.9695)">
                    <path d="M333.889,394.637C344.437,384.708 362.95,382.945 373.037,383.031C383.123,382.945 401.638,384.708 412.185,394.637C404.313,384.521 389.536,381.921 373.037,381.197C356.537,381.921 341.761,384.521 333.889,394.637Z" style="fill:rgb(245,145,146);"/>
                </g>
            </g>
            <g transform="matrix(1.09849,0,0,0.659094,-51.2105,159.742)">
                <g transform="matrix(0.159715,0,0,0.86834,435.357,164.84)">
                    <path d="M654.229,501.986C644.654,501.677 638.476,489.013 638.476,481.291C638.476,467.392 640.329,451.021 650.522,443.917C671.526,429.399 688.206,502.295 654.229,501.986Z" style="fill:url(#_Linear1);fill-rule:nonzero;"/>
                </g>
                <g id="Gopher" transform="matrix(0.113657,0,0,0.6036,464.58,268.953)">
                    <path d="M381.081,363.552C378.301,364.788 373.668,395.058 387.876,396.602C397.452,397.529 423.707,400.618 429.884,396.602C441.931,388.88 440.695,370.347 433.9,365.714C422.471,358.301 384.17,362.008 381.081,363.552ZM302.625,136.834C270.811,133.127 217.375,162.78 209.344,225.792C200.695,291.274 277.915,356.139 352.046,291.274C391.892,256.371 405.792,148.88 302.625,136.834ZM517.606,136.834C414.44,148.88 428.34,256.371 468.185,291.274C542.317,356.139 619.537,291.274 610.888,225.792C603.166,162.78 549.73,133.127 517.606,136.834Z" style="fill:url(#_Linear2);fill-rule:nonzero;"/>
                    <path d="M149.166,432.748C149.37,430.419 149.552,428.088 149.709,425.755C150.567,413.103 153.502,369.725 153.759,365.925C153.771,365.753 153.779,365.58 153.783,365.407C153.991,355.861 153.826,347.06 153.127,339.151C147.568,281.39 142.934,222.703 150.039,183.166C153.745,161.236 81.467,156.293 105.251,106.873C125.637,64.556 175.985,101.931 188.649,88.649C253.205,21.622 331.66,3.707 393.436,2.162L427.413,2.162C488.88,5.251 567.336,21.931 632.201,88.649C644.865,101.931 694.903,64.556 715.598,106.873C739.382,155.985 667.104,161.236 670.811,183.166C677.606,222.703 672.973,281.39 667.722,339.151C658.764,437.066 731.969,671.506 579.382,765.714C550.656,783.629 482.394,793.514 415.058,795.058L414.44,795.058C347.104,793.514 269.575,783.629 240.849,765.714C126.261,694.823 139.352,544.525 149.166,432.748Z" style="fill:url(#_Linear3);"/>
                    <path d="M608.726,769.73C614.903,778.687 615.212,784.865 605.328,789.498C567.645,806.795 533.977,783.629 546.641,777.143C573.514,763.552 590.193,742.239 608.726,769.73ZM211.815,772.819C230.347,745.328 247.027,766.641 273.9,780.232C286.564,786.718 252.896,809.884 215.212,792.587C205.328,787.954 205.637,781.776 211.815,772.819Z" style="fill:url(#_Linear4);fill-rule:nonzero;"/>
                </g>
                <g transform="matrix(1.1595,0,0,1.1595,-181.746,-162.311)">
                    <g transform="matrix(1.024,0,0,5.48571,-87.2033,-17157.9)">
                        <path d="M674.705,3265.05C671.153,3264.12 668.675,3260.91 668.675,3257.24C668.675,3256.04 668.945,3254.85 669.465,3253.76" style="fill:url(#_Linear5);stroke:rgb(0,124,183);stroke-width:1px;"/>
                    </g>
                    <g transform="matrix(-1.024,0,0,5.48571,1282.24,-17157.9)">
                        <path d="M674.705,3265.05C671.153,3264.12 668.675,3260.91 668.675,3257.24C668.675,3256.04 668.945,3254.85 669.465,3253.76" style="fill:url(#_Linear6);stroke:rgb(0,124,183);stroke-width:1px;"/>
                    </g>
                </g>
            </g>
            <g transform="matrix(1.24146,0,0,0.744875,-168.039,192.295)">
                <g transform="matrix(0.159715,0,0,0.86834,435.357,164.84)">
                    <path d="M654.229,501.986C644.654,501.677 638.476,489.013 638.476,481.291C638.476,467.392 640.329,451.021 650.522,443.917C671.526,429.399 688.206,502.295 654.229,501.986Z" style="fill:url(#_Linear7);fill-rule:nonzero;"/>
                </g>
                <g id="Gopher1" serif:id="Gopher" transform="matrix(0.113657,0,0,0.6036,464.58,268.953)">
                    <path d="M381.081,363.552C378.301,364.788 373.668,395.058 387.876,396.602C397.452,397.529 423.707,400.618 429.884,396.602C441.931,388.88 440.695,370.347 433.9,365.714C422.471,358.301 384.17,362.008 381.081,363.552ZM302.625,136.834C270.811,133.127 217.375,162.78 209.344,225.792C200.695,291.274 277.915,356.139 352.046,291.274C391.892,256.371 405.792,148.88 302.625,136.834ZM517.606,136.834C414.44,148.88 428.34,256.371 468.185,291.274C542.317,356.139 619.537,291.274 610.888,225.792C603.166,162.78 549.73,133.127 517.606,136.834Z" style="fill:url(#_Linear8);fill-rule:nonzero;"/>
                    <path d="M149.202,432.337C149.383,430.274 149.544,428.21 149.683,426.143C150.508,413.979 153.519,369.48 153.762,365.889C153.772,365.737 153.779,365.584 153.782,365.432C153.991,355.876 153.827,347.067 153.127,339.151C147.568,281.39 142.934,222.703 150.039,183.166C153.745,161.236 81.467,156.293 105.251,106.873C125.637,64.556 175.985,101.931 188.649,88.649C253.205,21.622 331.66,3.707 393.436,2.162L427.413,2.162C488.88,5.251 567.336,21.931 632.201,88.649C644.865,101.931 694.903,64.556 715.598,106.873C739.382,155.985 667.104,161.236 670.811,183.166C677.606,222.703 672.973,281.39 667.722,339.151C658.764,437.066 731.969,671.506 579.382,765.714C550.656,783.629 482.394,793.514 415.058,795.058L414.44,795.058C347.104,793.514 269.575,783.629 240.849,765.714C126.121,694.736 139.384,544.157 149.202,432.337Z" style="fill:url(#_Linear9);"/>
                    <path d="M608.726,769.73C614.903,778.687 615.212,784.865 605.328,789.498C567.645,806.795 533.977,783.629 546.641,777.143C573.514,763.552 590.193,742.239 608.726,769.73ZM211.815,772.819C230.347,745.328 247.027,766.641 273.9,780.232C286.564,786.718 252.896,809.884 215.212,792.587C205.328,787.954 205.637,781.776 211.815,772.819Z" style="fill:url(#_Linear10);fill-rule:nonzero;"/>
                </g>
                <g transform="matrix(1.1595,0,0,1.1595,-181.746,-162.311)">
                    <g transform="matrix(1.024,0,0,5.48571,-87.2033,-17157.9)">
                        <path d="M674.705,3265.05C671.153,3264.12 668.675,3260.91 668.675,3257.24C668.675,3256.04 668.945,3254.85 669.465,3253.76" style="fill:url(#_Linear11);stroke:rgb(0,124,183);stroke-width:1px;"/>
                    </g>
                    <g transform="matrix(-1.024,0,0,5.48571,1282.24,-17157.9)">
                        <path d="M674.705,3265.05C671.153,3264.12 668.675,3260.91 668.675,3257.24C668.675,3256.04 668.945,3254.85 669.465,3253.76" style="fill:url(#_Linear12);stroke:rgb(0,124,183);stroke-width:1px;"/>
                    </g>
                </g>
            </g>
            <g transform="matrix(1.09849,0,0,0.659094,0.831504,181.042)">
                <g transform="matrix(0.159715,0,0,0.86834,435.357,164.84)">
                    <path d="M654.229,501.986C644.654,501.677 638.476,489.013 638.476,481.291C638.476,467.392 640.329,451.021 650.522,443.917C671.526,429.399 688.206,502.295 654.229,501.986Z" style="fill:url(#_Linear13);fill-rule:nonzero;"/>
                </g>
                <g id="Gopher2" serif:id="Gopher" transform="matrix(0.113657,0,0,0.6036,464.58,268.953)">
                    <path d="M381.081,363.552C378.301,364.788 373.668,395.058 387.876,396.602C397.452,397.529 423.707,400.618 429.884,396.602C441.931,388.88 440.695,370.347 433.9,365.714C422.471,358.301 384.17,362.008 381.081,363.552ZM302.625,136.834C270.811,133.127 217.375,162.78 209.344,225.792C200.695,291.274 277.915,356.139 352.046,291.274C391.892,256.371 405.792,148.88 302.625,136.834ZM517.606,136.834C414.44,148.88 428.34,256.371 468.185,291.274C542.317,356.139 619.537,291.274 610.888,225.792C603.166,162.78 549.73,133.127 517.606,136.834Z" style="fill:url(#_Linear14);fill-rule:nonzero;"/>
                    <path d="M149.166,432.748C149.37,430.419 149.552,428.088 149.709,425.755C150.567,413.103 153.502,369.725 153.759,365.925C153.771,365.753 153.779,365.58 153.783,365.407C153.991,355.861 153.826,347.06 153.127,339.151C147.568,281.39 142.934,222.703 150.039,183.166C153.745,161.236 81.467,156.293 105.251,106.873C125.637,64.556 175.985,101.931 188.649,88.649C253.205,21.622 331.66,3.707 393.436,2.162L427.413,2.162C488.88,5.251 567.336,21.931 632.201,88.649C644.865,101.931 694.903,64.556 715.598,106.873C739.382,155.985 667.104,161.236 670.811,183.166C677.606,222.703 672.973,281.39 667.722,339.151C658.764,437.066 731.969,671.506 579.382,765.714C550.656,783.629 482.394,793.514 415.058,795.058L414.44,795.058C347.104,793.514 269.575,783.629 240.849,765.714C126.261,694.823 139.352,544.525 149.166,432.748Z" style="fill:url(#_Linear15);"/>
                    <path d="M608.726,769.73C614.903,778.687 615.212,784.865 605.328,789.498C567.645,806.795 533.977,783.629 546.641,777.143C573.514,763.552 590.193,742.239 608.726,769.73ZM211.815,772.819C230.347,745.328 247.027,766.641 273.9,780.232C286.564,786.718 252.896,809.884 215.212,792.587C205.328,787.954 205.637,781.776 211.815,772.819Z" style="fill:url(#_Linear16);fill-rule:nonzero;"/>
                </g>
                <g transform="matrix(1.1595,0,0,1.1595,-181.746,-162.311)">
                    <g transform="matrix(1.024,0,0,5.48571,-87.2033,-17157.9)">
                        <path d="M674.705,3265.05C671.153,3264.12 668.675,3260.91 668.675,3257.24C668.675,3256.04 668.945,3254.85 669.465,3253.76" style="fill:url(#_Linear17);stroke:rgb(0,124,183);stroke-width:1px;"/>
                    </g>
                    <g transform="matrix(-1.024,0,0,5.48571,1282.24,-17157.9)">
                        <path d="M674.705,3265.05C671.153,3264.12 668.675,3260.91 668.675,3257.24C668.675,3256.04 668.945,3254.85 669.465,3253.76" style="fill:url(#_Linear18);stroke:rgb(0,124,183);stroke-width:1px;"/>
                    </g>
                </g>
            </g>
            <g transform="matrix(1.31672,0,0,0.79003,-144.345,158.377)">
                <g transform="matrix(0.159715,0,0,0.86834,435.357,164.84)">
                    <path d="M654.229,501.986C644.654,501.677 638.476,489.013 638.476,481.291C638.476,467.392 640.329,451.021 650.522,443.917C671.526,429.399 688.206,502.295 654.229,501.986Z" style="fill:rgb(172,163,155);fill-rule:nonzero;"/>
                </g>
                <g id="Gopher3" serif:id="Gopher" transform="matrix(0.113657,0,0,0.6036,464.58,268.953)">
                    <path d="M381.081,363.552C378.301,364.788 373.668,395.058 387.876,396.602C397.452,397.529 423.707,400.618 429.884,396.602C441.931,388.88 440.695,370.347 433.9,365.714C422.471,358.301 384.17,362.008 381.081,363.552ZM302.625,136.834C270.811,133.127 217.375,162.78 209.344,225.792C200.695,291.274 277.915,356.139 352.046,291.274C391.892,256.371 405.792,148.88 302.625,136.834ZM517.606,136.834C414.44,148.88 428.34,256.371 468.185,291.274C542.317,356.139 619.537,291.274 610.888,225.792C603.166,162.78 549.73,133.127 517.606,136.834Z" style="fill:white;fill-rule:nonzero;"/>
                    <path d="M149.218,432.156C149.389,430.211 149.54,428.264 149.672,426.315C150.48,414.39 153.525,369.388 153.763,365.876C153.772,365.733 153.779,365.589 153.782,365.445C153.991,355.885 153.827,347.071 153.127,339.151C147.568,281.39 142.934,222.703 150.039,183.166C153.745,161.236 81.467,156.293 105.251,106.873C125.637,64.556 175.985,101.931 188.649,88.649C253.205,21.622 331.66,3.707 393.436,2.162L427.413,2.162C488.88,5.251 567.336,21.931 632.201,88.649C644.865,101.931 694.903,64.556 715.598,106.873C739.382,155.985 667.104,161.236 670.811,183.166C677.606,222.703 672.973,281.39 667.722,339.151C658.764,437.066 731.969,671.506 579.382,765.714C550.656,783.629 482.394,793.514 415.058,795.058L414.44,795.058C347.104,793.514 269.575,783.629 240.849,765.714C126.059,694.698 139.398,543.995 149.218,432.156Z" style="fill:url(#_Linear19);"/>
                    <path d="M608.726,769.73C614.903,778.687 615.212,784.865 605.328,789.498C567.645,806.795 533.977,783.629 546.641,777.143C573.514,763.552 590.193,742.239 608.726,769.73ZM211.815,772.819C230.347,745.328 247.027,766.641 273.9,780.232C286.564,786.718 252.896,809.884 215.212,792.587C205.328,787.954 205.637,781.776 211.815,772.819Z" style="fill:rgb(172,163,155);fill-rule:nonzero;"/>
                </g>
                <g transform="matrix(1.1595,0,0,1.1595,-181.746,-162.311)">
                    <g transform="matrix(1.024,0,0,5.48571,-87.2033,-17157.9)">
                        <path d="M674.705,3265.05C671.153,3264.12 668.675,3260.91 668.675,3257.24C668.675,3256.04 668.945,3254.85 669.465,3253.76" style="fill:none;stroke:rgb(0,124,183);stroke-width:1px;"/>
                    </g>
                    <g transform="matrix(-1.024,0,0,5.48571,1282.24,-17157.9)">
                        <path d="M674.705,3265.05C671.153,3264.12 668.675,3260.91 668.675,3257.24C668.675,3256.04 668.945,3254.85 669.465,3253.76" style="fill:none;stroke:rgb(0,124,183);stroke-width:1px;"/>
                    </g>
                </g>
            </g>
        </g>
    </g>
    <defs>
        <linearGradient id="_Linear1" x1="0" y1="0" x2="1" y2="0" gradientUnits="userSpaceOnUse" gradientTransform="matrix(70.4646,0,0,480.898,475.995,510.707)"><stop offset="0" style="stop-color:rgb(224,147,61);stop-opacity:1"/><stop offset="1" style="stop-color:rgb(255,232,63);stop-opacity:1"/></linearGradient>
        <linearGradient id="_Linear2" x1="0" y1="0" x2="1" y2="0" gradientUnits="userSpaceOnUse" gradientTransform="matrix(70.4646,0,0,480.898,475.995,510.707)"><stop offset="0" style="stop-color:rgb(224,147,61);stop-opacity:1"/><stop offset="1" style="stop-color:rgb(255,232,63);stop-opacity:1"/></linearGradient>
        <linearGradient id="_Linear3" x1="0" y1="0" x2="1" y2="0" gradientUnits="userSpaceOnUse" gradientTransform="matrix(619.975,0,0,792.896,100.437,398.61)"><stop offset="0" style="stop-color:rgb(224,147,61);stop-opacity:1"/><stop offset="1" style="stop-color:rgb(255,232,63);stop-opacity:1"/></linearGradient>
        <linearGradient id="_Linear4" x1="0" y1="0" x2="1" y2="0" gradientUnits="userSpaceOnUse" gradientTransform="matrix(70.4646,0,0,480.898,475.995,510.707)"><stop offset="0" style="stop-color:rgb(224,147,61);stop-opacity:1"/><stop offset="1" style="stop-color:rgb(255,232,63);stop-opacity:1"/></linearGradient>
        <linearGradient id="_Linear5" x1="0" y1="0" x2="1" y2="0" gradientUnits="userSpaceOnUse" gradientTransform="matrix(70.4646,0,0,480.898,475.995,510.707)"><stop offset="0" style="stop-color:rgb(224,147,61);stop-opacity:1"/><stop offset="1" style="stop-color:rgb(255,232,63);stop-opacity:1"/></linearGradient>
        <linearGradient id="_Linear6" x1="0" y1="0" x2="1" y2="0" gradientUnits="userSpaceOnUse" gradientTransform="matrix(70.4646,0,0,480.898,475.995,510.707)"><stop offset="0" style="stop-color:rgb(224,147,61);stop-opacity:1"/><stop offset="1" style="stop-color:rgb(255,232,63);stop-opacity:1"/></linearGradient>
        <linearGradient id="_Linear7" x1="0" y1="0" x2="1" y2="0" gradientUnits="userSpaceOnUse" gradientTransform="matrix(70.4646,0,0,480.898,475.995,510.707)"><stop offset="0" style="stop-color:rgb(140,45,97);stop-opacity:1"/><stop offset="1" style="stop-color:rgb(241,91,102);stop-opacity:1"/></linearGradient>
        <linearGradient id="_Linear8" x1="0" y1="0" x2="1" y2="0" gradientUnits="userSpaceOnUse" gradientTransform="matrix(70.4646,0,0,480.898,475.995,510.707)"><stop offset="0" style="stop-color:rgb(140,45,97);stop-opacity:1"/><stop offset="1" style="stop-color:rgb(241,91,102);stop-opacity:1"/></linearGradient>
        <linearGradient id="_Linear9" x1="0" y1="0" x2="1" y2="0" gradientUnits="userSpaceOnUse" gradientTransform="matrix(619.975,0,0,792.896,100.437,398.61)"><stop offset="0" style="stop-color:rgb(140,45,97);stop-opacity:1"/><stop offset="1" style="stop-color:rgb(241,91,102);stop-opacity:1"/></linearGradient>
        <linearGradient id="_Linear10" x1="0" y1="0" x2="1" y2="0" gradientUnits="userSpaceOnUse" gradientTransform="matrix(70.4646,0,0,480.898,475.995,510.707)"><stop offset="0" style="stop-color:rgb(140,45,97);stop-opacity:1"/><stop offset="1" style="stop-color:rgb(241,91,102);stop-opacity:1"/></linearGradient>
        <linearGradient id="_Linear11" x1="0" y1="0" x2="1" y2="0" gradientUnits="userSpaceOnUse" gradientTransform="matrix(70.4646,0,0,480.898,475.995,510.707)"><stop offset="0" style="stop-color:rgb(140,45,97);stop-opacity:1"/><stop offset="1" style="stop-color:rgb(241,91,102);stop-opacity:1"/></linearGradient>
        <linearGradient id="_Linear12" x1="0" y1="0" x2="1" y2="0" gradientUnits="userSpaceOnUse" gradientTransform="matrix(70.4646,0,0,480.898,475.995,510.707)"><stop offset="0" style="stop-color:rgb(140,45,97);stop-opacity:1"/><stop offset="1" style="stop-color:rgb(241,91,102);stop-opacity:1"/></linearGradient>
        <linearGradient id="_Linear13" x1="0" y1="0" x2="1" y2="0" gradientUnits="userSpaceOnUse" gradientTransform="matrix(70.4646,0,0,480.898,475.995,510.707)"><stop offset="0" style="stop-color:rgb(0,174,156);stop-opacity:1"/><stop offset="1" style="stop-color:rgb(163,207,98);stop-opacity:1"/></linearGradient>
        <linearGradient id="_Linear14" x1="0" y1="0" x2="1" y2="0" gradientUnits="userSpaceOnUse" gradientTransform="matrix(70.4646,0,0,480.898,475.995,510.707)"><stop offset="0" style="stop-color:rgb(0,174,156);stop-opacity:1"/><stop offset="1" style="stop-color:rgb(163,207,98);stop-opacity:1"/></linearGradient>
        <linearGradient id="_Linear15" x1="0" y1="0" x2="1" y2="0" gradientUnits="userSpaceOnUse" gradientTransform="matrix(619.975,0,0,792.896,100.437,398.61)"><stop offset="0" style="stop-color:rgb(0,174,156);stop-opacity:1"/><stop offset="1" style="stop-color:rgb(163,207,98);stop-opacity:1"/></linearGradient>
        <linearGradient id="_Linear16" x1="0" y1="0" x2="1" y2="0" gradientUnits="userSpaceOnUse" gradientTransform="matrix(70.4646,0,0,480.898,475.995,510.707)"><stop offset="0" style="stop-color:rgb(0,174,156);stop-opacity:1"/><stop offset="1" style="stop-color:rgb(163,207,98);stop-opacity:1"/></linearGradient>
        <linearGradient id="_Linear17" x1="0" y1="0" x2="1" y2="0" gradientUnits="userSpaceOnUse" gradientTransform="matrix(70.4646,0,0,480.898,475.995,510.707)"><stop offset="0" style="stop-color:rgb(0,174,156);stop-opacity:1"/><stop offset="1" style="stop-color:rgb(163,207,98);stop-opacity:1"/></linearGradient>
        <linearGradient id="_Linear18" x1="0" y1="0" x2="1" y2="0" gradientUnits="userSpaceOnUse" gradientTransform="matrix(70.4646,0,0,480.898,475.995,510.707)"><stop offset="0" style="stop-color:rgb(0,174,156);stop-opacity:1"/><stop offset="1" style="stop-color:rgb(163,207,98);stop-opacity:1"/></linearGradient>
        <linearGradient id="_Linear19" x1="0" y1="0" x2="1" y2="0" gradientUnits="userSpaceOnUse" gradientTransform="matrix(619.975,0,0,792.896,100.437,398.61)"><stop offset="0" style="stop-color:rgb(15,123,193);stop-opacity:1"/><stop offset="1" style="stop-color:rgb(91,203,245);stop-opacity:1"/></linearGradient>
    </defs>
</svg>
