<?xml version="1.0" encoding="UTF-8" standalone="no"?>
<!DOCTYPE svg PUBLIC "-//W3C//DTD SVG 1.1//EN" "http://www.w3.org/Graphics/SVG/1.1/DTD/svg11.dtd">
<svg width="100%" height="100%" viewBox="0 0 601 140" version="1.1" xmlns="http://www.w3.org/2000/svg" xmlns:xlink="http://www.w3.org/1999/xlink" xml:space="preserve" xmlns:serif="http://www.serif.com/" style="fill-rule:evenodd;clip-rule:evenodd;stroke-linejoin:round;stroke-miterlimit:2;">
    <g transform="matrix(1,0,0,1,-203,-9990)">
        <g id="Worker-Pools" serif:id="Worker Pools" transform="matrix(0.585938,0,0,0.182292,203.348,9990)">
            <rect x="0" y="0" width="1024" height="768" style="fill:none;"/>
            <g transform="matrix(0.672421,0,0,0.672421,236.975,-24.3033)">
                <g id="Gopher" transform="matrix(0.131545,0,0,0.417962,349.888,183.102)">
                    <path d="M381.081,363.552C378.301,364.788 373.668,395.058 387.876,396.602C397.452,397.529 423.707,400.618 429.884,396.602C441.931,388.88 440.695,370.347 433.9,365.714C422.471,358.301 384.17,362.008 381.081,363.552ZM302.625,136.834C270.811,133.127 217.375,162.78 209.344,225.792C200.695,291.274 277.915,356.139 352.046,291.274C391.892,256.371 405.792,148.88 302.625,136.834ZM517.606,136.834C414.44,148.88 428.34,256.371 468.185,291.274C542.317,356.139 619.537,291.274 610.888,225.792C603.166,162.78 549.73,133.127 517.606,136.834Z" style="fill:white;fill-rule:nonzero;"/>
                    <path d="M632.201,88.649C644.865,101.931 667.104,161.236 670.811,183.166C677.606,222.703 672.973,281.39 667.722,339.151C658.764,437.066 731.969,671.506 579.382,765.714C550.656,783.629 482.394,793.514 415.058,795.058L414.44,795.058C347.104,793.514 269.575,783.629 240.849,765.714C88.571,671.506 161.776,437.066 153.127,339.151C147.568,281.39 142.934,222.703 150.039,183.166C153.745,161.236 175.985,101.931 188.649,88.649C253.205,21.622 331.66,3.707 393.436,2.162L427.413,2.162C488.88,5.251 567.336,21.931 632.201,88.649ZM381.081,363.552C378.301,364.788 373.668,395.058 387.876,396.602C397.452,397.529 423.707,400.618 429.884,396.602C441.931,388.88 440.695,370.347 433.9,365.714C422.471,358.301 384.17,362.008 381.081,363.552ZM302.625,136.834C270.811,133.127 217.375,162.78 209.344,225.792C200.695,291.274 277.915,356.139 352.046,291.274C391.892,256.371 405.792,148.88 302.625,136.834ZM517.606,136.834C414.44,148.88 428.34,256.371 468.185,291.274C542.317,356.139 619.537,291.274 610.888,225.792C603.166,162.78 549.73,133.127 517.606,136.834Z" style="fill:url(#_Linear1);fill-rule:nonzero;"/>
                    <path d="M410.425,299.614C429.884,296.834 476.525,319.073 473.436,345.328C469.73,375.907 353.282,379.923 347.104,343.475C343.398,321.236 361.004,307.027 410.425,299.614ZM673.282,545.792C663.707,545.483 657.529,532.819 657.529,525.097C657.529,511.197 659.382,494.826 669.575,487.722C690.579,473.205 707.259,546.1 673.282,545.792ZM147.259,545.792C113.282,546.1 129.961,473.205 150.965,487.722C161.158,494.826 163.012,511.197 163.012,525.097C163.012,532.819 156.834,545.483 147.259,545.792ZM608.726,769.73C614.903,778.687 615.212,784.865 605.328,789.498C567.645,806.795 533.977,783.629 546.641,777.143C573.514,763.552 590.193,742.239 608.726,769.73ZM211.815,772.819C230.347,745.328 247.027,766.641 273.9,780.232C286.564,786.718 252.896,809.884 215.212,792.587C205.328,787.954 205.637,781.776 211.815,772.819Z" style="fill:rgb(172,163,155);fill-rule:nonzero;"/>
                    <path d="M524.71,264.71C505.263,264.71 489.498,248.945 489.498,229.498C489.498,210.051 505.263,194.286 524.71,194.286C544.158,194.286 559.923,210.051 559.923,229.498C559.923,248.945 544.158,264.71 524.71,264.71ZM515.444,225.483C521.585,225.483 526.564,220.504 526.564,214.363C526.564,208.222 521.585,203.243 515.444,203.243C509.303,203.243 504.324,208.222 504.324,214.363C504.324,220.504 509.303,225.483 515.444,225.483ZM378.61,314.44C382.317,300.232 395.29,295.598 405.792,295.29C432.664,294.672 442.857,309.189 443.784,320.618C445.637,340.077 370.27,344.71 378.61,314.44ZM295.83,264.71C276.383,264.71 260.618,248.945 260.618,229.498C260.618,210.051 276.383,194.286 295.83,194.286C315.277,194.286 331.042,210.051 331.042,229.498C331.042,248.945 315.277,264.71 295.83,264.71ZM305.097,225.483C311.238,225.483 316.216,220.504 316.216,214.363C316.216,208.222 311.238,203.243 305.097,203.243C298.955,203.243 293.977,208.222 293.977,214.363C293.977,220.504 298.955,225.483 305.097,225.483Z" style="fill:rgb(65,65,65);fill-rule:nonzero;"/>
                </g>
                <g transform="matrix(0.0952821,0,0,0.306264,365.745,61.5)">
                    <path d="M400,135.714C194.866,135.714 28.572,302.006 28.572,507.141L28.572,592.855L771.43,592.855L771.43,507.141C771.428,302.008 605.134,135.714 400,135.714Z" style="fill:rgb(255,220,100);fill-rule:nonzero;"/>
                    <path d="M785.714,592.858L228.572,592.858C220.683,592.858 214.286,586.461 214.286,578.572L214.286,507.144C214.286,439.452 226.869,376.053 248.798,321.447C252.125,313.162 264.336,314.584 265.853,323.383L295.911,497.712C298.273,511.416 310.161,521.43 324.069,521.43L475.934,521.43C489.842,521.43 501.727,511.417 504.092,497.712L560.252,171.989C511.73,148.748 457.389,135.714 400,135.714C345.291,135.714 293.416,147.673 246.652,168.913C246.65,168.9 246.644,168.886 246.642,168.873C246.362,169 239.8,172.278 239.8,172.278C114.941,232.125 28.572,359.434 28.572,507.141L28.572,592.855L14.286,592.855C6.397,592.855 0,599.252 0,607.141L0,625.352C0,631.53 3.864,637.05 9.738,638.972C111.917,672.383 249.095,692.858 400,692.858C550.905,692.858 688.083,672.383 790.263,638.973C796.136,637.053 800,631.534 800,625.353L800,607.142C800,599.253 793.603,592.858 785.714,592.858Z" style="fill:rgb(255,200,80);fill-rule:nonzero;"/>
                    <path d="M429.539,521.428L370.461,521.428C355.064,521.428 342.437,509.228 341.908,493.841L329.592,136.698C329.034,120.544 341.98,107.144 358.145,107.144L441.855,107.144C458.02,107.144 470.966,120.544 470.408,136.698L458.092,493.841C457.562,509.228 444.936,521.428 429.539,521.428Z" style="fill:rgb(255,240,130);fill-rule:nonzero;"/>
                    <path d="M790.262,611.511C794.95,610.416 798.253,607.663 799.439,604.358C799.628,605.289 800,606.155 800,607.142L800,625.353C800,631.534 796.136,637.052 790.263,638.973C688.083,672.383 550.903,692.858 400,692.858C249.097,692.858 111.917,672.383 9.738,638.973C3.864,637.052 0,631.533 0,625.353L0,607.142C0,606.155 0.372,605.289 0.561,604.359C1.747,607.663 5.05,610.416 9.738,611.511C111.917,635.375 249.097,650 400,650C550.903,650 688.08,635.375 790.262,611.511ZM380.184,493.841C380.561,509.228 389.525,521.428 400.459,521.428L370.462,521.428C355.067,521.428 342.438,509.228 341.908,493.841L329.594,136.698C329.036,120.544 341.981,107.144 358.147,107.144L391.714,107.144C380.239,107.144 371.045,120.544 371.442,136.698L380.184,493.841Z" style="fill:rgb(255,220,100);"/>
                </g>
            </g>
            <g transform="matrix(0.672421,0,0,0.672421,273.933,35.2007)">
                <g id="Gopher1" serif:id="Gopher" transform="matrix(0.131545,0,0,0.417962,349.888,183.102)">
                    <path d="M381.081,363.552C378.301,364.788 373.668,395.058 387.876,396.602C397.452,397.529 423.707,400.618 429.884,396.602C441.931,388.88 440.695,370.347 433.9,365.714C422.471,358.301 384.17,362.008 381.081,363.552ZM302.625,136.834C270.811,133.127 217.375,162.78 209.344,225.792C200.695,291.274 277.915,356.139 352.046,291.274C391.892,256.371 405.792,148.88 302.625,136.834ZM517.606,136.834C414.44,148.88 428.34,256.371 468.185,291.274C542.317,356.139 619.537,291.274 610.888,225.792C603.166,162.78 549.73,133.127 517.606,136.834Z" style="fill:white;fill-rule:nonzero;"/>
                    <path d="M632.201,88.649C644.865,101.931 667.104,161.236 670.811,183.166C677.606,222.703 672.973,281.39 667.722,339.151C658.764,437.066 731.969,671.506 579.382,765.714C550.656,783.629 482.394,793.514 415.058,795.058L414.44,795.058C347.104,793.514 269.575,783.629 240.849,765.714C88.571,671.506 161.776,437.066 153.127,339.151C147.568,281.39 142.934,222.703 150.039,183.166C153.745,161.236 175.985,101.931 188.649,88.649C253.205,21.622 331.66,3.707 393.436,2.162L427.413,2.162C488.88,5.251 567.336,21.931 632.201,88.649ZM381.081,363.552C378.301,364.788 373.668,395.058 387.876,396.602C397.452,397.529 423.707,400.618 429.884,396.602C441.931,388.88 440.695,370.347 433.9,365.714C422.471,358.301 384.17,362.008 381.081,363.552ZM302.625,136.834C270.811,133.127 217.375,162.78 209.344,225.792C200.695,291.274 277.915,356.139 352.046,291.274C391.892,256.371 405.792,148.88 302.625,136.834ZM517.606,136.834C414.44,148.88 428.34,256.371 468.185,291.274C542.317,356.139 619.537,291.274 610.888,225.792C603.166,162.78 549.73,133.127 517.606,136.834Z" style="fill:url(#_Linear2);fill-rule:nonzero;"/>
                    <path d="M410.425,299.614C429.884,296.834 476.525,319.073 473.436,345.328C469.73,375.907 353.282,379.923 347.104,343.475C343.398,321.236 361.004,307.027 410.425,299.614ZM673.282,545.792C663.707,545.483 657.529,532.819 657.529,525.097C657.529,511.197 659.382,494.826 669.575,487.722C690.579,473.205 707.259,546.1 673.282,545.792ZM147.259,545.792C113.282,546.1 129.961,473.205 150.965,487.722C161.158,494.826 163.012,511.197 163.012,525.097C163.012,532.819 156.834,545.483 147.259,545.792ZM608.726,769.73C614.903,778.687 615.212,784.865 605.328,789.498C567.645,806.795 533.977,783.629 546.641,777.143C573.514,763.552 590.193,742.239 608.726,769.73ZM211.815,772.819C230.347,745.328 247.027,766.641 273.9,780.232C286.564,786.718 252.896,809.884 215.212,792.587C205.328,787.954 205.637,781.776 211.815,772.819Z" style="fill:rgb(172,163,155);fill-rule:nonzero;"/>
                    <path d="M524.71,264.71C505.263,264.71 489.498,248.945 489.498,229.498C489.498,210.051 505.263,194.286 524.71,194.286C544.158,194.286 559.923,210.051 559.923,229.498C559.923,248.945 544.158,264.71 524.71,264.71ZM515.444,225.483C521.585,225.483 526.564,220.504 526.564,214.363C526.564,208.222 521.585,203.243 515.444,203.243C509.303,203.243 504.324,208.222 504.324,214.363C504.324,220.504 509.303,225.483 515.444,225.483ZM378.61,314.44C382.317,300.232 395.29,295.598 405.792,295.29C432.664,294.672 442.857,309.189 443.784,320.618C445.637,340.077 370.27,344.71 378.61,314.44ZM295.83,264.71C276.383,264.71 260.618,248.945 260.618,229.498C260.618,210.051 276.383,194.286 295.83,194.286C315.277,194.286 331.042,210.051 331.042,229.498C331.042,248.945 315.277,264.71 295.83,264.71ZM305.097,225.483C311.238,225.483 316.216,220.504 316.216,214.363C316.216,208.222 311.238,203.243 305.097,203.243C298.955,203.243 293.977,208.222 293.977,214.363C293.977,220.504 298.955,225.483 305.097,225.483Z" style="fill:rgb(65,65,65);fill-rule:nonzero;"/>
                </g>
                <g transform="matrix(0.0952821,0,0,0.306264,365.745,61.5)">
                    <path d="M400,135.714C194.866,135.714 28.572,302.006 28.572,507.141L28.572,592.855L771.43,592.855L771.43,507.141C771.428,302.008 605.134,135.714 400,135.714Z" style="fill:rgb(255,220,100);fill-rule:nonzero;"/>
                    <path d="M785.714,592.858L228.572,592.858C220.683,592.858 214.286,586.461 214.286,578.572L214.286,507.144C214.286,439.452 226.869,376.053 248.798,321.447C252.125,313.162 264.336,314.584 265.853,323.383L295.911,497.712C298.273,511.416 310.161,521.43 324.069,521.43L475.934,521.43C489.842,521.43 501.727,511.417 504.092,497.712L560.252,171.989C511.73,148.748 457.389,135.714 400,135.714C345.291,135.714 293.416,147.673 246.652,168.913C246.65,168.9 246.644,168.886 246.642,168.873C246.362,169 239.8,172.278 239.8,172.278C114.941,232.125 28.572,359.434 28.572,507.141L28.572,592.855L14.286,592.855C6.397,592.855 0,599.252 0,607.141L0,625.352C0,631.53 3.864,637.05 9.738,638.972C111.917,672.383 249.095,692.858 400,692.858C550.905,692.858 688.083,672.383 790.263,638.973C796.136,637.053 800,631.534 800,625.353L800,607.142C800,599.253 793.603,592.858 785.714,592.858Z" style="fill:rgb(255,200,80);fill-rule:nonzero;"/>
                    <path d="M429.539,521.428L370.461,521.428C355.064,521.428 342.437,509.228 341.908,493.841L329.592,136.698C329.034,120.544 341.98,107.144 358.145,107.144L441.855,107.144C458.02,107.144 470.966,120.544 470.408,136.698L458.092,493.841C457.562,509.228 444.936,521.428 429.539,521.428Z" style="fill:rgb(255,240,130);fill-rule:nonzero;"/>
                    <path d="M790.262,611.511C794.95,610.416 798.253,607.663 799.439,604.358C799.628,605.289 800,606.155 800,607.142L800,625.353C800,631.534 796.136,637.052 790.263,638.973C688.083,672.383 550.903,692.858 400,692.858C249.097,692.858 111.917,672.383 9.738,638.973C3.864,637.052 0,631.533 0,625.353L0,607.142C0,606.155 0.372,605.289 0.561,604.359C1.747,607.663 5.05,610.416 9.738,611.511C111.917,635.375 249.097,650 400,650C550.903,650 688.08,635.375 790.262,611.511ZM380.184,493.841C380.561,509.228 389.525,521.428 400.459,521.428L370.462,521.428C355.067,521.428 342.438,509.228 341.908,493.841L329.594,136.698C329.036,120.544 341.981,107.144 358.147,107.144L391.714,107.144C380.239,107.144 371.045,120.544 371.442,136.698L380.184,493.841Z" style="fill:rgb(255,220,100);"/>
                </g>
            </g>
            <g transform="matrix(0.841977,0,0,0.841977,128.082,46.6392)">
                <g id="Gopher2" serif:id="Gopher" transform="matrix(0.131545,0,0,0.417962,349.888,183.102)">
                    <path d="M381.081,363.552C378.301,364.788 373.668,395.058 387.876,396.602C397.452,397.529 423.707,400.618 429.884,396.602C441.931,388.88 440.695,370.347 433.9,365.714C422.471,358.301 384.17,362.008 381.081,363.552ZM302.625,136.834C270.811,133.127 217.375,162.78 209.344,225.792C200.695,291.274 277.915,356.139 352.046,291.274C391.892,256.371 405.792,148.88 302.625,136.834ZM517.606,136.834C414.44,148.88 428.34,256.371 468.185,291.274C542.317,356.139 619.537,291.274 610.888,225.792C603.166,162.78 549.73,133.127 517.606,136.834Z" style="fill:white;fill-rule:nonzero;"/>
                    <path d="M632.201,88.649C644.865,101.931 667.104,161.236 670.811,183.166C677.606,222.703 672.973,281.39 667.722,339.151C658.764,437.066 731.969,671.506 579.382,765.714C550.656,783.629 482.394,793.514 415.058,795.058L414.44,795.058C347.104,793.514 269.575,783.629 240.849,765.714C88.571,671.506 161.776,437.066 153.127,339.151C147.568,281.39 142.934,222.703 150.039,183.166C153.745,161.236 175.985,101.931 188.649,88.649C253.205,21.622 331.66,3.707 393.436,2.162L427.413,2.162C488.88,5.251 567.336,21.931 632.201,88.649ZM381.081,363.552C378.301,364.788 373.668,395.058 387.876,396.602C397.452,397.529 423.707,400.618 429.884,396.602C441.931,388.88 440.695,370.347 433.9,365.714C422.471,358.301 384.17,362.008 381.081,363.552ZM302.625,136.834C270.811,133.127 217.375,162.78 209.344,225.792C200.695,291.274 277.915,356.139 352.046,291.274C391.892,256.371 405.792,148.88 302.625,136.834ZM517.606,136.834C414.44,148.88 428.34,256.371 468.185,291.274C542.317,356.139 619.537,291.274 610.888,225.792C603.166,162.78 549.73,133.127 517.606,136.834Z" style="fill:url(#_Linear3);fill-rule:nonzero;"/>
                    <path d="M410.425,299.614C429.884,296.834 476.525,319.073 473.436,345.328C469.73,375.907 353.282,379.923 347.104,343.475C343.398,321.236 361.004,307.027 410.425,299.614ZM673.282,545.792C663.707,545.483 657.529,532.819 657.529,525.097C657.529,511.197 659.382,494.826 669.575,487.722C690.579,473.205 707.259,546.1 673.282,545.792ZM147.259,545.792C113.282,546.1 129.961,473.205 150.965,487.722C161.158,494.826 163.012,511.197 163.012,525.097C163.012,532.819 156.834,545.483 147.259,545.792ZM608.726,769.73C614.903,778.687 615.212,784.865 605.328,789.498C567.645,806.795 533.977,783.629 546.641,777.143C573.514,763.552 590.193,742.239 608.726,769.73ZM211.815,772.819C230.347,745.328 247.027,766.641 273.9,780.232C286.564,786.718 252.896,809.884 215.212,792.587C205.328,787.954 205.637,781.776 211.815,772.819Z" style="fill:rgb(172,163,155);fill-rule:nonzero;"/>
                    <path d="M524.71,264.71C505.263,264.71 489.498,248.945 489.498,229.498C489.498,210.051 505.263,194.286 524.71,194.286C544.158,194.286 559.923,210.051 559.923,229.498C559.923,248.945 544.158,264.71 524.71,264.71ZM515.444,225.483C521.585,225.483 526.564,220.504 526.564,214.363C526.564,208.222 521.585,203.243 515.444,203.243C509.303,203.243 504.324,208.222 504.324,214.363C504.324,220.504 509.303,225.483 515.444,225.483ZM378.61,314.44C382.317,300.232 395.29,295.598 405.792,295.29C432.664,294.672 442.857,309.189 443.784,320.618C445.637,340.077 370.27,344.71 378.61,314.44ZM295.83,264.71C276.383,264.71 260.618,248.945 260.618,229.498C260.618,210.051 276.383,194.286 295.83,194.286C315.277,194.286 331.042,210.051 331.042,229.498C331.042,248.945 315.277,264.71 295.83,264.71ZM305.097,225.483C311.238,225.483 316.216,220.504 316.216,214.363C316.216,208.222 311.238,203.243 305.097,203.243C298.955,203.243 293.977,208.222 293.977,214.363C293.977,220.504 298.955,225.483 305.097,225.483Z" style="fill:rgb(65,65,65);fill-rule:nonzero;"/>
                </g>
                <g transform="matrix(0.0952821,0,0,0.306264,365.745,61.5)">
                    <path d="M400,135.714C194.866,135.714 28.572,302.006 28.572,507.141L28.572,592.855L771.43,592.855L771.43,507.141C771.428,302.008 605.134,135.714 400,135.714Z" style="fill:rgb(255,220,100);fill-rule:nonzero;"/>
                    <path d="M785.714,592.858L228.572,592.858C220.683,592.858 214.286,586.461 214.286,578.572L214.286,507.144C214.286,439.452 226.869,376.053 248.798,321.447C252.125,313.162 264.336,314.584 265.853,323.383L295.911,497.712C298.273,511.416 310.161,521.43 324.069,521.43L475.934,521.43C489.842,521.43 501.727,511.417 504.092,497.712L560.252,171.989C511.73,148.748 457.389,135.714 400,135.714C345.291,135.714 293.416,147.673 246.652,168.913C246.65,168.9 246.644,168.886 246.642,168.873C246.362,169 239.8,172.278 239.8,172.278C114.941,232.125 28.572,359.434 28.572,507.141L28.572,592.855L14.286,592.855C6.397,592.855 0,599.252 0,607.141L0,625.352C0,631.53 3.864,637.05 9.738,638.972C111.917,672.383 249.095,692.858 400,692.858C550.905,692.858 688.083,672.383 790.263,638.973C796.136,637.053 800,631.534 800,625.353L800,607.142C800,599.253 793.603,592.858 785.714,592.858Z" style="fill:rgb(255,200,80);fill-rule:nonzero;"/>
                    <path d="M429.539,521.428L370.461,521.428C355.064,521.428 342.437,509.228 341.908,493.841L329.592,136.698C329.034,120.544 341.98,107.144 358.145,107.144L441.855,107.144C458.02,107.144 470.966,120.544 470.408,136.698L458.092,493.841C457.562,509.228 444.936,521.428 429.539,521.428Z" style="fill:rgb(255,240,130);fill-rule:nonzero;"/>
                    <path d="M790.262,611.511C794.95,610.416 798.253,607.663 799.439,604.358C799.628,605.289 800,606.155 800,607.142L800,625.353C800,631.534 796.136,637.052 790.263,638.973C688.083,672.383 550.903,692.858 400,692.858C249.097,692.858 111.917,672.383 9.738,638.973C3.864,637.052 0,631.533 0,625.353L0,607.142C0,606.155 0.372,605.289 0.561,604.359C1.747,607.663 5.05,610.416 9.738,611.511C111.917,635.375 249.097,650 400,650C550.903,650 688.08,635.375 790.262,611.511ZM380.184,493.841C380.561,509.228 389.525,521.428 400.459,521.428L370.462,521.428C355.067,521.428 342.438,509.228 341.908,493.841L329.594,136.698C329.036,120.544 341.981,107.144 358.147,107.144L391.714,107.144C380.239,107.144 371.045,120.544 371.442,136.698L380.184,493.841Z" style="fill:rgb(255,220,100);"/>
                </g>
            </g>
            <g transform="matrix(0.778312,0,0,0.778312,270.574,52.6437)">
                <g id="Gopher3" serif:id="Gopher" transform="matrix(0.131545,0,0,0.417962,349.888,183.102)">
                    <path d="M381.081,363.552C378.301,364.788 373.668,395.058 387.876,396.602C397.452,397.529 423.707,400.618 429.884,396.602C441.931,388.88 440.695,370.347 433.9,365.714C422.471,358.301 384.17,362.008 381.081,363.552ZM302.625,136.834C270.811,133.127 217.375,162.78 209.344,225.792C200.695,291.274 277.915,356.139 352.046,291.274C391.892,256.371 405.792,148.88 302.625,136.834ZM517.606,136.834C414.44,148.88 428.34,256.371 468.185,291.274C542.317,356.139 619.537,291.274 610.888,225.792C603.166,162.78 549.73,133.127 517.606,136.834Z" style="fill:white;fill-rule:nonzero;"/>
                    <path d="M632.201,88.649C644.865,101.931 667.104,161.236 670.811,183.166C677.606,222.703 672.973,281.39 667.722,339.151C658.764,437.066 731.969,671.506 579.382,765.714C550.656,783.629 482.394,793.514 415.058,795.058L414.44,795.058C347.104,793.514 269.575,783.629 240.849,765.714C88.571,671.506 161.776,437.066 153.127,339.151C147.568,281.39 142.934,222.703 150.039,183.166C153.745,161.236 175.985,101.931 188.649,88.649C253.205,21.622 331.66,3.707 393.436,2.162L427.413,2.162C488.88,5.251 567.336,21.931 632.201,88.649ZM381.081,363.552C378.301,364.788 373.668,395.058 387.876,396.602C397.452,397.529 423.707,400.618 429.884,396.602C441.931,388.88 440.695,370.347 433.9,365.714C422.471,358.301 384.17,362.008 381.081,363.552ZM302.625,136.834C270.811,133.127 217.375,162.78 209.344,225.792C200.695,291.274 277.915,356.139 352.046,291.274C391.892,256.371 405.792,148.88 302.625,136.834ZM517.606,136.834C414.44,148.88 428.34,256.371 468.185,291.274C542.317,356.139 619.537,291.274 610.888,225.792C603.166,162.78 549.73,133.127 517.606,136.834Z" style="fill:url(#_Linear4);fill-rule:nonzero;"/>
                    <path d="M410.425,299.614C429.884,296.834 476.525,319.073 473.436,345.328C469.73,375.907 353.282,379.923 347.104,343.475C343.398,321.236 361.004,307.027 410.425,299.614ZM673.282,545.792C663.707,545.483 657.529,532.819 657.529,525.097C657.529,511.197 659.382,494.826 669.575,487.722C690.579,473.205 707.259,546.1 673.282,545.792ZM147.259,545.792C113.282,546.1 129.961,473.205 150.965,487.722C161.158,494.826 163.012,511.197 163.012,525.097C163.012,532.819 156.834,545.483 147.259,545.792ZM608.726,769.73C614.903,778.687 615.212,784.865 605.328,789.498C567.645,806.795 533.977,783.629 546.641,777.143C573.514,763.552 590.193,742.239 608.726,769.73ZM211.815,772.819C230.347,745.328 247.027,766.641 273.9,780.232C286.564,786.718 252.896,809.884 215.212,792.587C205.328,787.954 205.637,781.776 211.815,772.819Z" style="fill:rgb(172,163,155);fill-rule:nonzero;"/>
                    <path d="M524.71,264.71C505.263,264.71 489.498,248.945 489.498,229.498C489.498,210.051 505.263,194.286 524.71,194.286C544.158,194.286 559.923,210.051 559.923,229.498C559.923,248.945 544.158,264.71 524.71,264.71ZM515.444,225.483C521.585,225.483 526.564,220.504 526.564,214.363C526.564,208.222 521.585,203.243 515.444,203.243C509.303,203.243 504.324,208.222 504.324,214.363C504.324,220.504 509.303,225.483 515.444,225.483ZM378.61,314.44C382.317,300.232 395.29,295.598 405.792,295.29C432.664,294.672 442.857,309.189 443.784,320.618C445.637,340.077 370.27,344.71 378.61,314.44ZM295.83,264.71C276.383,264.71 260.618,248.945 260.618,229.498C260.618,210.051 276.383,194.286 295.83,194.286C315.277,194.286 331.042,210.051 331.042,229.498C331.042,248.945 315.277,264.71 295.83,264.71ZM305.097,225.483C311.238,225.483 316.216,220.504 316.216,214.363C316.216,208.222 311.238,203.243 305.097,203.243C298.955,203.243 293.977,208.222 293.977,214.363C293.977,220.504 298.955,225.483 305.097,225.483Z" style="fill:rgb(65,65,65);fill-rule:nonzero;"/>
                </g>
                <g transform="matrix(0.0952821,0,0,0.306264,365.745,61.5)">
                    <path d="M400,135.714C194.866,135.714 28.572,302.006 28.572,507.141L28.572,592.855L771.43,592.855L771.43,507.141C771.428,302.008 605.134,135.714 400,135.714Z" style="fill:rgb(255,220,100);fill-rule:nonzero;"/>
                    <path d="M785.714,592.858L228.572,592.858C220.683,592.858 214.286,586.461 214.286,578.572L214.286,507.144C214.286,439.452 226.869,376.053 248.798,321.447C252.125,313.162 264.336,314.584 265.853,323.383L295.911,497.712C298.273,511.416 310.161,521.43 324.069,521.43L475.934,521.43C489.842,521.43 501.727,511.417 504.092,497.712L560.252,171.989C511.73,148.748 457.389,135.714 400,135.714C345.291,135.714 293.416,147.673 246.652,168.913C246.65,168.9 246.644,168.886 246.642,168.873C246.362,169 239.8,172.278 239.8,172.278C114.941,232.125 28.572,359.434 28.572,507.141L28.572,592.855L14.286,592.855C6.397,592.855 0,599.252 0,607.141L0,625.352C0,631.53 3.864,637.05 9.738,638.972C111.917,672.383 249.095,692.858 400,692.858C550.905,692.858 688.083,672.383 790.263,638.973C796.136,637.053 800,631.534 800,625.353L800,607.142C800,599.253 793.603,592.858 785.714,592.858Z" style="fill:rgb(255,200,80);fill-rule:nonzero;"/>
                    <path d="M429.539,521.428L370.461,521.428C355.064,521.428 342.437,509.228 341.908,493.841L329.592,136.698C329.034,120.544 341.98,107.144 358.145,107.144L441.855,107.144C458.02,107.144 470.966,120.544 470.408,136.698L458.092,493.841C457.562,509.228 444.936,521.428 429.539,521.428Z" style="fill:rgb(255,240,130);fill-rule:nonzero;"/>
                    <path d="M790.262,611.511C794.95,610.416 798.253,607.663 799.439,604.358C799.628,605.289 800,606.155 800,607.142L800,625.353C800,631.534 796.136,637.052 790.263,638.973C688.083,672.383 550.903,692.858 400,692.858C249.097,692.858 111.917,672.383 9.738,638.973C3.864,637.052 0,631.533 0,625.353L0,607.142C0,606.155 0.372,605.289 0.561,604.359C1.747,607.663 5.05,610.416 9.738,611.511C111.917,635.375 249.097,650 400,650C550.903,650 688.08,635.375 790.262,611.511ZM380.184,493.841C380.561,509.228 389.525,521.428 400.459,521.428L370.462,521.428C355.067,521.428 342.438,509.228 341.908,493.841L329.594,136.698C329.036,120.544 341.981,107.144 358.147,107.144L391.714,107.144C380.239,107.144 371.045,120.544 371.442,136.698L380.184,493.841Z" style="fill:rgb(255,220,100);"/>
                </g>
            </g>
            <g transform="matrix(0.941748,0,0,0.941748,129.27,94.9907)">
                <g id="Gopher4" serif:id="Gopher" transform="matrix(0.131545,0,0,0.417962,349.888,183.102)">
                    <path d="M381.081,363.552C378.301,364.788 373.668,395.058 387.876,396.602C397.452,397.529 423.707,400.618 429.884,396.602C441.931,388.88 440.695,370.347 433.9,365.714C422.471,358.301 384.17,362.008 381.081,363.552ZM302.625,136.834C270.811,133.127 217.375,162.78 209.344,225.792C200.695,291.274 277.915,356.139 352.046,291.274C391.892,256.371 405.792,148.88 302.625,136.834ZM517.606,136.834C414.44,148.88 428.34,256.371 468.185,291.274C542.317,356.139 619.537,291.274 610.888,225.792C603.166,162.78 549.73,133.127 517.606,136.834Z" style="fill:white;fill-rule:nonzero;"/>
                    <path d="M632.201,88.649C644.865,101.931 667.104,161.236 670.811,183.166C677.606,222.703 672.973,281.39 667.722,339.151C658.764,437.066 731.969,671.506 579.382,765.714C550.656,783.629 482.394,793.514 415.058,795.058L414.44,795.058C347.104,793.514 269.575,783.629 240.849,765.714C88.571,671.506 161.776,437.066 153.127,339.151C147.568,281.39 142.934,222.703 150.039,183.166C153.745,161.236 175.985,101.931 188.649,88.649C253.205,21.622 331.66,3.707 393.436,2.162L427.413,2.162C488.88,5.251 567.336,21.931 632.201,88.649ZM381.081,363.552C378.301,364.788 373.668,395.058 387.876,396.602C397.452,397.529 423.707,400.618 429.884,396.602C441.931,388.88 440.695,370.347 433.9,365.714C422.471,358.301 384.17,362.008 381.081,363.552ZM302.625,136.834C270.811,133.127 217.375,162.78 209.344,225.792C200.695,291.274 277.915,356.139 352.046,291.274C391.892,256.371 405.792,148.88 302.625,136.834ZM517.606,136.834C414.44,148.88 428.34,256.371 468.185,291.274C542.317,356.139 619.537,291.274 610.888,225.792C603.166,162.78 549.73,133.127 517.606,136.834Z" style="fill:url(#_Linear5);fill-rule:nonzero;"/>
                    <path d="M410.425,299.614C429.884,296.834 476.525,319.073 473.436,345.328C469.73,375.907 353.282,379.923 347.104,343.475C343.398,321.236 361.004,307.027 410.425,299.614ZM673.282,545.792C663.707,545.483 657.529,532.819 657.529,525.097C657.529,511.197 659.382,494.826 669.575,487.722C690.579,473.205 707.259,546.1 673.282,545.792ZM147.259,545.792C113.282,546.1 129.961,473.205 150.965,487.722C161.158,494.826 163.012,511.197 163.012,525.097C163.012,532.819 156.834,545.483 147.259,545.792ZM608.726,769.73C614.903,778.687 615.212,784.865 605.328,789.498C567.645,806.795 533.977,783.629 546.641,777.143C573.514,763.552 590.193,742.239 608.726,769.73ZM211.815,772.819C230.347,745.328 247.027,766.641 273.9,780.232C286.564,786.718 252.896,809.884 215.212,792.587C205.328,787.954 205.637,781.776 211.815,772.819Z" style="fill:rgb(172,163,155);fill-rule:nonzero;"/>
                    <path d="M524.71,264.71C505.263,264.71 489.498,248.945 489.498,229.498C489.498,210.051 505.263,194.286 524.71,194.286C544.158,194.286 559.923,210.051 559.923,229.498C559.923,248.945 544.158,264.71 524.71,264.71ZM515.444,225.483C521.585,225.483 526.564,220.504 526.564,214.363C526.564,208.222 521.585,203.243 515.444,203.243C509.303,203.243 504.324,208.222 504.324,214.363C504.324,220.504 509.303,225.483 515.444,225.483ZM378.61,314.44C382.317,300.232 395.29,295.598 405.792,295.29C432.664,294.672 442.857,309.189 443.784,320.618C445.637,340.077 370.27,344.71 378.61,314.44ZM295.83,264.71C276.383,264.71 260.618,248.945 260.618,229.498C260.618,210.051 276.383,194.286 295.83,194.286C315.277,194.286 331.042,210.051 331.042,229.498C331.042,248.945 315.277,264.71 295.83,264.71ZM305.097,225.483C311.238,225.483 316.216,220.504 316.216,214.363C316.216,208.222 311.238,203.243 305.097,203.243C298.955,203.243 293.977,208.222 293.977,214.363C293.977,220.504 298.955,225.483 305.097,225.483Z" style="fill:rgb(65,65,65);fill-rule:nonzero;"/>
                </g>
                <g transform="matrix(0.0952821,0,0,0.306264,365.745,61.5)">
                    <path d="M400,135.714C194.866,135.714 28.572,302.006 28.572,507.141L28.572,592.855L771.43,592.855L771.43,507.141C771.428,302.008 605.134,135.714 400,135.714Z" style="fill:rgb(255,220,100);fill-rule:nonzero;"/>
                    <path d="M785.714,592.858L228.572,592.858C220.683,592.858 214.286,586.461 214.286,578.572L214.286,507.144C214.286,439.452 226.869,376.053 248.798,321.447C252.125,313.162 264.336,314.584 265.853,323.383L295.911,497.712C298.273,511.416 310.161,521.43 324.069,521.43L475.934,521.43C489.842,521.43 501.727,511.417 504.092,497.712L560.252,171.989C511.73,148.748 457.389,135.714 400,135.714C345.291,135.714 293.416,147.673 246.652,168.913C246.65,168.9 246.644,168.886 246.642,168.873C246.362,169 239.8,172.278 239.8,172.278C114.941,232.125 28.572,359.434 28.572,507.141L28.572,592.855L14.286,592.855C6.397,592.855 0,599.252 0,607.141L0,625.352C0,631.53 3.864,637.05 9.738,638.972C111.917,672.383 249.095,692.858 400,692.858C550.905,692.858 688.083,672.383 790.263,638.973C796.136,637.053 800,631.534 800,625.353L800,607.142C800,599.253 793.603,592.858 785.714,592.858Z" style="fill:rgb(255,200,80);fill-rule:nonzero;"/>
                    <path d="M429.539,521.428L370.461,521.428C355.064,521.428 342.437,509.228 341.908,493.841L329.592,136.698C329.034,120.544 341.98,107.144 358.145,107.144L441.855,107.144C458.02,107.144 470.966,120.544 470.408,136.698L458.092,493.841C457.562,509.228 444.936,521.428 429.539,521.428Z" style="fill:rgb(255,240,130);fill-rule:nonzero;"/>
                    <path d="M790.262,611.511C794.95,610.416 798.253,607.663 799.439,604.358C799.628,605.289 800,606.155 800,607.142L800,625.353C800,631.534 796.136,637.052 790.263,638.973C688.083,672.383 550.903,692.858 400,692.858C249.097,692.858 111.917,672.383 9.738,638.973C3.864,637.052 0,631.533 0,625.353L0,607.142C0,606.155 0.372,605.289 0.561,604.359C1.747,607.663 5.05,610.416 9.738,611.511C111.917,635.375 249.097,650 400,650C550.903,650 688.08,635.375 790.262,611.511ZM380.184,493.841C380.561,509.228 389.525,521.428 400.459,521.428L370.462,521.428C355.067,521.428 342.438,509.228 341.908,493.841L329.594,136.698C329.036,120.544 341.981,107.144 358.147,107.144L391.714,107.144C380.239,107.144 371.045,120.544 371.442,136.698L380.184,493.841Z" style="fill:rgb(255,220,100);"/>
                </g>
            </g>
            <g transform="matrix(1,0,0,1,157.471,146.418)">
                <g id="Gopher5" serif:id="Gopher" transform="matrix(0.131545,0,0,0.417962,349.888,183.102)">
                    <path d="M381.081,363.552C378.301,364.788 373.668,395.058 387.876,396.602C397.452,397.529 423.707,400.618 429.884,396.602C441.931,388.88 440.695,370.347 433.9,365.714C422.471,358.301 384.17,362.008 381.081,363.552ZM302.625,136.834C270.811,133.127 217.375,162.78 209.344,225.792C200.695,291.274 277.915,356.139 352.046,291.274C391.892,256.371 405.792,148.88 302.625,136.834ZM517.606,136.834C414.44,148.88 428.34,256.371 468.185,291.274C542.317,356.139 619.537,291.274 610.888,225.792C603.166,162.78 549.73,133.127 517.606,136.834Z" style="fill:white;fill-rule:nonzero;"/>
                    <path d="M632.201,88.649C644.865,101.931 667.104,161.236 670.811,183.166C677.606,222.703 672.973,281.39 667.722,339.151C658.764,437.066 731.969,671.506 579.382,765.714C550.656,783.629 482.394,793.514 415.058,795.058L414.44,795.058C347.104,793.514 269.575,783.629 240.849,765.714C88.571,671.506 161.776,437.066 153.127,339.151C147.568,281.39 142.934,222.703 150.039,183.166C153.745,161.236 175.985,101.931 188.649,88.649C253.205,21.622 331.66,3.707 393.436,2.162L427.413,2.162C488.88,5.251 567.336,21.931 632.201,88.649ZM381.081,363.552C378.301,364.788 373.668,395.058 387.876,396.602C397.452,397.529 423.707,400.618 429.884,396.602C441.931,388.88 440.695,370.347 433.9,365.714C422.471,358.301 384.17,362.008 381.081,363.552ZM302.625,136.834C270.811,133.127 217.375,162.78 209.344,225.792C200.695,291.274 277.915,356.139 352.046,291.274C391.892,256.371 405.792,148.88 302.625,136.834ZM517.606,136.834C414.44,148.88 428.34,256.371 468.185,291.274C542.317,356.139 619.537,291.274 610.888,225.792C603.166,162.78 549.73,133.127 517.606,136.834Z" style="fill:url(#_Linear6);fill-rule:nonzero;"/>
                    <path d="M410.425,299.614C429.884,296.834 476.525,319.073 473.436,345.328C469.73,375.907 353.282,379.923 347.104,343.475C343.398,321.236 361.004,307.027 410.425,299.614ZM673.282,545.792C663.707,545.483 657.529,532.819 657.529,525.097C657.529,511.197 659.382,494.826 669.575,487.722C690.579,473.205 707.259,546.1 673.282,545.792ZM147.259,545.792C113.282,546.1 129.961,473.205 150.965,487.722C161.158,494.826 163.012,511.197 163.012,525.097C163.012,532.819 156.834,545.483 147.259,545.792ZM608.726,769.73C614.903,778.687 615.212,784.865 605.328,789.498C567.645,806.795 533.977,783.629 546.641,777.143C573.514,763.552 590.193,742.239 608.726,769.73ZM211.815,772.819C230.347,745.328 247.027,766.641 273.9,780.232C286.564,786.718 252.896,809.884 215.212,792.587C205.328,787.954 205.637,781.776 211.815,772.819Z" style="fill:rgb(172,163,155);fill-rule:nonzero;"/>
                    <path d="M524.71,264.71C505.263,264.71 489.498,248.945 489.498,229.498C489.498,210.051 505.263,194.286 524.71,194.286C544.158,194.286 559.923,210.051 559.923,229.498C559.923,248.945 544.158,264.71 524.71,264.71ZM515.444,225.483C521.585,225.483 526.564,220.504 526.564,214.363C526.564,208.222 521.585,203.243 515.444,203.243C509.303,203.243 504.324,208.222 504.324,214.363C504.324,220.504 509.303,225.483 515.444,225.483ZM378.61,314.44C382.317,300.232 395.29,295.598 405.792,295.29C432.664,294.672 442.857,309.189 443.784,320.618C445.637,340.077 370.27,344.71 378.61,314.44ZM295.83,264.71C276.383,264.71 260.618,248.945 260.618,229.498C260.618,210.051 276.383,194.286 295.83,194.286C315.277,194.286 331.042,210.051 331.042,229.498C331.042,248.945 315.277,264.71 295.83,264.71ZM305.097,225.483C311.238,225.483 316.216,220.504 316.216,214.363C316.216,208.222 311.238,203.243 305.097,203.243C298.955,203.243 293.977,208.222 293.977,214.363C293.977,220.504 298.955,225.483 305.097,225.483Z" style="fill:rgb(65,65,65);fill-rule:nonzero;"/>
                </g>
                <g transform="matrix(0.0952821,0,0,0.306264,365.745,61.5)">
                    <path d="M400,135.714C194.866,135.714 28.572,302.006 28.572,507.141L28.572,592.855L771.43,592.855L771.43,507.141C771.428,302.008 605.134,135.714 400,135.714Z" style="fill:rgb(255,220,100);fill-rule:nonzero;"/>
                    <path d="M785.714,592.858L228.572,592.858C220.683,592.858 214.286,586.461 214.286,578.572L214.286,507.144C214.286,439.452 226.869,376.053 248.798,321.447C252.125,313.162 264.336,314.584 265.853,323.383L295.911,497.712C298.273,511.416 310.161,521.43 324.069,521.43L475.934,521.43C489.842,521.43 501.727,511.417 504.092,497.712L560.252,171.989C511.73,148.748 457.389,135.714 400,135.714C345.291,135.714 293.416,147.673 246.652,168.913C246.65,168.9 246.644,168.886 246.642,168.873C246.362,169 239.8,172.278 239.8,172.278C114.941,232.125 28.572,359.434 28.572,507.141L28.572,592.855L14.286,592.855C6.397,592.855 0,599.252 0,607.141L0,625.352C0,631.53 3.864,637.05 9.738,638.972C111.917,672.383 249.095,692.858 400,692.858C550.905,692.858 688.083,672.383 790.263,638.973C796.136,637.053 800,631.534 800,625.353L800,607.142C800,599.253 793.603,592.858 785.714,592.858Z" style="fill:rgb(255,200,80);fill-rule:nonzero;"/>
                    <path d="M429.539,521.428L370.461,521.428C355.064,521.428 342.437,509.228 341.908,493.841L329.592,136.698C329.034,120.544 341.98,107.144 358.145,107.144L441.855,107.144C458.02,107.144 470.966,120.544 470.408,136.698L458.092,493.841C457.562,509.228 444.936,521.428 429.539,521.428Z" style="fill:rgb(255,240,130);fill-rule:nonzero;"/>
                    <path d="M790.262,611.511C794.95,610.416 798.253,607.663 799.439,604.358C799.628,605.289 800,606.155 800,607.142L800,625.353C800,631.534 796.136,637.052 790.263,638.973C688.083,672.383 550.903,692.858 400,692.858C249.097,692.858 111.917,672.383 9.738,638.973C3.864,637.052 0,631.533 0,625.353L0,607.142C0,606.155 0.372,605.289 0.561,604.359C1.747,607.663 5.05,610.416 9.738,611.511C111.917,635.375 249.097,650 400,650C550.903,650 688.08,635.375 790.262,611.511ZM380.184,493.841C380.561,509.228 389.525,521.428 400.459,521.428L370.462,521.428C355.067,521.428 342.438,509.228 341.908,493.841L329.594,136.698C329.036,120.544 341.981,107.144 358.147,107.144L391.714,107.144C380.239,107.144 371.045,120.544 371.442,136.698L380.184,493.841Z" style="fill:rgb(255,220,100);"/>
                </g>
                <g transform="matrix(0.0396018,0,0,0.127292,429.877,328.747)">
                    <g>
                        <path d="M426.908,187.903L166.892,447.925L231.053,512.087L491.064,252.07L426.908,187.903Z" style="fill:rgb(214,213,213);fill-rule:nonzero;"/>
                        <path d="M46.819,679.027L0,632.225L0,585.048L226.295,358.753L320.225,452.678L93.888,679.016L46.819,679.027Z" style="fill:rgb(193,123,57);fill-rule:nonzero;"/>
                    </g>
                    <path d="M422.498,192.314L334.013,280.788L462.338,280.788L485.872,257.264L422.498,192.314Z" style="fill:rgb(173,172,173);fill-rule:nonzero;"/>
                    <g>
                        <path d="M416.013,99.32L417.928,101.702C417.161,100.748 416.511,99.911 416.013,99.32ZM419.236,103.264C419.123,103.162 419.027,103.022 418.894,102.883L419.361,103.495C419.35,103.441 419.302,103.387 419.28,103.302C419.28,103.302 419.258,103.286 419.236,103.264ZM305.494,18.266C345.88,34.423 388.942,72.095 415.041,98.178L415.197,98.334C415.197,98.334 415.212,98.366 415.266,98.403C416.752,99.933 418.083,101.547 419.236,103.264C419.258,103.286 419.278,103.302 419.278,103.302C419.82,104.031 420.4,104.761 420.984,105.491L419.359,103.495C430.931,121.059 425.42,148.827 401.125,173.113L391.431,205.156L475.759,289.473L508.817,280.805L539.331,250.295C554.567,235.059 580.994,230.956 605.22,255.178C618.75,268.713 611.883,288.316 614.609,304.109C615.489,309.248 617.366,313.98 621.369,317.972L680.628,377.22C689.039,385.653 702.709,385.631 711.12,377.209L793.673,294.667C802.084,286.245 802.108,272.57 793.695,264.162L734.436,204.894C730.434,200.913 725.714,199.019 720.562,198.155C704.78,195.425 685.166,202.286 671.636,188.772C655.756,172.888 671.528,152.266 658.675,130.945C656.98,128.097 654.78,125.248 651.936,122.416C651.936,122.416 583.675,54.144 537.023,7.492C477.792,-51.739 375.503,-48.161 312.247,-23.489C287.559,-17.63 279.775,7.944 305.494,18.266Z" style="fill:rgb(80,79,79);fill-rule:nonzero;"/>
                        <path d="M720.561,198.155L614.608,304.108C615.487,309.247 617.364,313.978 621.367,317.97L680.627,377.219C689.038,385.652 702.708,385.63 711.119,377.208L793.672,294.666C802.083,286.244 802.106,272.569 793.694,264.161L734.434,204.892C730.433,200.913 725.713,199.019 720.561,198.155Z" style="fill:rgb(91,91,92);fill-rule:nonzero;"/>
                        <path d="M305.494,18.266C345.88,34.423 388.942,72.095 415.041,98.178L415.197,98.334C415.197,98.334 415.212,98.366 415.266,98.403C415.352,98.542 415.561,98.784 415.85,99.133L416.011,99.32L417.927,101.702L418.892,102.881L419.359,103.494C430.931,121.058 425.42,148.825 401.125,173.111L391.431,205.155L475.759,289.472L508.817,280.803L658.675,130.944C656.98,128.095 654.78,125.247 651.936,122.414C651.936,122.414 583.675,54.142 537.023,7.491C477.792,-51.741 375.503,-48.163 312.247,-23.491C287.559,-17.63 279.775,7.944 305.494,18.266Z" style="fill:rgb(91,91,92);fill-rule:nonzero;"/>
                        <path d="M793.683,294.667L711.152,377.22C702.717,385.653 689.038,385.653 680.616,377.22L793.683,264.142C802.106,272.57 802.106,286.244 793.683,294.667Z" style="fill:rgb(119,119,120);fill-rule:nonzero;"/>
                    </g>
                </g>
            </g>
            <g transform="matrix(1.03704,0,0,1.03704,-58.7553,113.147)">
                <g id="Gopher6" serif:id="Gopher" transform="matrix(0.131545,0,0,0.417962,440.114,259.847)">
                    <path d="M381.081,363.552C378.301,364.788 373.668,395.058 387.876,396.602C397.452,397.529 423.707,400.618 429.884,396.602C441.931,388.88 440.695,370.347 433.9,365.714C422.471,358.301 384.17,362.008 381.081,363.552ZM302.625,136.834C270.811,133.127 217.375,162.78 209.344,225.792C200.695,291.274 277.915,356.139 352.046,291.274C391.892,256.371 405.792,148.88 302.625,136.834ZM517.606,136.834C414.44,148.88 428.34,256.371 468.185,291.274C542.317,356.139 619.537,291.274 610.888,225.792C603.166,162.78 549.73,133.127 517.606,136.834Z" style="fill:white;fill-rule:nonzero;"/>
                    <path d="M632.201,88.649C644.865,101.931 667.104,161.236 670.811,183.166C677.606,222.703 672.973,281.39 667.722,339.151C658.764,437.066 731.969,671.506 579.382,765.714C550.656,783.629 482.394,793.514 415.058,795.058L414.44,795.058C347.104,793.514 269.575,783.629 240.849,765.714C88.571,671.506 161.776,437.066 153.127,339.151C147.568,281.39 142.934,222.703 150.039,183.166C153.745,161.236 175.985,101.931 188.649,88.649C253.205,21.622 331.66,3.707 393.436,2.162L427.413,2.162C488.88,5.251 567.336,21.931 632.201,88.649ZM381.081,363.552C378.301,364.788 373.668,395.058 387.876,396.602C397.452,397.529 423.707,400.618 429.884,396.602C441.931,388.88 440.695,370.347 433.9,365.714C422.471,358.301 384.17,362.008 381.081,363.552ZM302.625,136.834C270.811,133.127 217.375,162.78 209.344,225.792C200.695,291.274 277.915,356.139 352.046,291.274C391.892,256.371 405.792,148.88 302.625,136.834ZM517.606,136.834C414.44,148.88 428.34,256.371 468.185,291.274C542.317,356.139 619.537,291.274 610.888,225.792C603.166,162.78 549.73,133.127 517.606,136.834Z" style="fill:url(#_Linear7);fill-rule:nonzero;"/>
                    <g transform="matrix(0.746762,-0.672829,0.657444,0.746762,-241.234,219.648)">
                        <path d="M147.259,545.792C113.282,546.1 129.961,473.205 150.965,487.722C161.158,494.826 163.012,511.197 163.012,525.097C163.012,532.819 156.834,545.483 147.259,545.792Z" style="fill:rgb(172,163,155);fill-rule:nonzero;"/>
                    </g>
                    <path d="M410.425,299.614C429.884,296.834 476.525,319.073 473.436,345.328C469.73,375.907 353.282,379.923 347.104,343.475C343.398,321.236 361.004,307.027 410.425,299.614ZM673.282,545.792C663.707,545.483 657.529,532.819 657.529,525.097C657.529,511.197 659.382,494.826 669.575,487.722C690.579,473.205 707.259,546.1 673.282,545.792ZM608.726,769.73C614.903,778.687 615.212,784.865 605.328,789.498C567.645,806.795 533.977,783.629 546.641,777.143C573.514,763.552 590.193,742.239 608.726,769.73ZM211.815,772.819C230.347,745.328 247.027,766.641 273.9,780.232C286.564,786.718 252.896,809.884 215.212,792.587C205.328,787.954 205.637,781.776 211.815,772.819Z" style="fill:rgb(172,163,155);fill-rule:nonzero;"/>
                    <path d="M524.71,264.71C505.263,264.71 489.498,248.945 489.498,229.498C489.498,210.051 505.263,194.286 524.71,194.286C544.158,194.286 559.923,210.051 559.923,229.498C559.923,248.945 544.158,264.71 524.71,264.71ZM515.444,225.483C521.585,225.483 526.564,220.504 526.564,214.363C526.564,208.222 521.585,203.243 515.444,203.243C509.303,203.243 504.324,208.222 504.324,214.363C504.324,220.504 509.303,225.483 515.444,225.483ZM378.61,314.44C382.317,300.232 395.29,295.598 405.792,295.29C432.664,294.672 442.857,309.189 443.784,320.618C445.637,340.077 370.27,344.71 378.61,314.44ZM295.83,264.71C276.383,264.71 260.618,248.945 260.618,229.498C260.618,210.051 276.383,194.286 295.83,194.286C315.277,194.286 331.042,210.051 331.042,229.498C331.042,248.945 315.277,264.71 295.83,264.71ZM305.097,225.483C311.238,225.483 316.216,220.504 316.216,214.363C316.216,208.222 311.238,203.243 305.097,203.243C298.955,203.243 293.977,208.222 293.977,214.363C293.977,220.504 298.955,225.483 305.097,225.483Z" style="fill:rgb(65,65,65);fill-rule:nonzero;"/>
                </g>
                <g transform="matrix(0.0952821,0,0,0.306264,455.971,138.245)">
                    <path d="M400,135.714C194.866,135.714 28.572,302.006 28.572,507.141L28.572,592.855L771.43,592.855L771.43,507.141C771.428,302.008 605.134,135.714 400,135.714Z" style="fill:rgb(255,220,100);fill-rule:nonzero;"/>
                    <path d="M785.714,592.858L228.572,592.858C220.683,592.858 214.286,586.461 214.286,578.572L214.286,507.144C214.286,439.452 226.869,376.053 248.798,321.447C252.125,313.162 264.336,314.584 265.853,323.383L295.911,497.712C298.273,511.416 310.161,521.43 324.069,521.43L475.934,521.43C489.842,521.43 501.727,511.417 504.092,497.712L560.252,171.989C511.73,148.748 457.389,135.714 400,135.714C345.291,135.714 293.416,147.673 246.652,168.913C246.65,168.9 246.644,168.886 246.642,168.873C246.362,169 239.8,172.278 239.8,172.278C114.941,232.125 28.572,359.434 28.572,507.141L28.572,592.855L14.286,592.855C6.397,592.855 0,599.252 0,607.141L0,625.352C0,631.53 3.864,637.05 9.738,638.972C111.917,672.383 249.095,692.858 400,692.858C550.905,692.858 688.083,672.383 790.263,638.973C796.136,637.053 800,631.534 800,625.353L800,607.142C800,599.253 793.603,592.858 785.714,592.858Z" style="fill:rgb(255,200,80);fill-rule:nonzero;"/>
                    <path d="M429.539,521.428L370.461,521.428C355.064,521.428 342.437,509.228 341.908,493.841L329.592,136.698C329.034,120.544 341.98,107.144 358.145,107.144L441.855,107.144C458.02,107.144 470.966,120.544 470.408,136.698L458.092,493.841C457.562,509.228 444.936,521.428 429.539,521.428Z" style="fill:rgb(255,240,130);fill-rule:nonzero;"/>
                    <path d="M790.262,611.511C794.95,610.416 798.253,607.663 799.439,604.358C799.628,605.289 800,606.155 800,607.142L800,625.353C800,631.534 796.136,637.052 790.263,638.973C688.083,672.383 550.903,692.858 400,692.858C249.097,692.858 111.917,672.383 9.738,638.973C3.864,637.052 0,631.533 0,625.353L0,607.142C0,606.155 0.372,605.289 0.561,604.359C1.747,607.663 5.05,610.416 9.738,611.511C111.917,635.375 249.097,650 400,650C550.903,650 688.08,635.375 790.262,611.511ZM380.184,493.841C380.561,509.228 389.525,521.428 400.459,521.428L370.462,521.428C355.067,521.428 342.438,509.228 341.908,493.841L329.594,136.698C329.036,120.544 341.981,107.144 358.147,107.144L391.714,107.144C380.239,107.144 371.045,120.544 371.442,136.698L380.184,493.841Z" style="fill:rgb(255,220,100);"/>
                </g>
                <g transform="matrix(0.0408296,0,0,0.131238,446.257,382.06)">
                    <path d="M124.378,173.444L383.2,432.244L432.244,383.2L173.444,124.378L155.556,66.667L66.667,22.222L22.222,66.667L66.667,155.556L124.378,173.444Z" style="fill:rgb(153,170,181);fill-rule:nonzero;"/>
                    <path d="M384.2,385.178L178.556,179.533C168.378,169.378 164.4,156.733 169.689,151.444C175,146.156 187.622,150.133 197.778,160.289L403.422,365.933C413.578,376.089 417.556,388.733 412.267,394.022C407,399.311 394.356,395.333 384.2,385.178Z" style="fill:rgb(225,232,237);fill-rule:nonzero;"/>
                    <path d="M362.889,460.978L460.978,362.889C476.769,347.19 502.653,347.19 518.444,362.889L762.089,606.533C777.787,622.325 777.787,648.208 762.089,664L664,762.089C648.208,777.787 622.325,777.787 606.533,762.089L362.889,518.444C347.19,502.653 347.19,476.769 362.889,460.978ZM312.6,425.067L425.067,312.6C436.912,300.839 456.31,300.839 468.156,312.6C479.916,324.445 479.916,343.844 468.156,355.689L355.689,468.156C343.844,479.916 324.445,479.916 312.6,468.156C300.839,456.31 300.839,436.912 312.6,425.067Z" style="fill:rgb(221,46,68);fill-rule:nonzero;"/>
                    <path d="M351.822,398.822L426,324.644C436.156,314.489 448.8,310.511 454.089,315.8C459.378,321.089 455.4,333.733 445.244,343.889L371.067,418.067C360.911,428.222 348.267,432.2 342.978,426.911C337.667,421.622 341.667,408.978 351.822,398.822Z" style="fill:rgb(234,89,110);fill-rule:nonzero;"/>
                    <path d="M489.711,391.622C497.602,383.761 510.554,383.761 518.444,391.622L733.378,606.556C741.239,614.446 741.239,627.398 733.378,635.289C725.487,643.15 712.535,643.15 704.644,635.289L489.711,420.356C481.85,412.465 481.85,399.513 489.711,391.622ZM391.622,489.711C399.513,481.85 412.465,481.85 420.356,489.711L635.289,704.644C643.15,712.535 643.15,725.487 635.289,733.378C627.398,741.239 614.446,741.239 606.556,733.378L391.622,518.444C383.761,510.554 383.761,497.602 391.622,489.711ZM428.044,424.556C435.956,416.644 449.6,417.378 458.356,426.156L694.622,662.422C703.4,671.2 704.111,684.844 696.222,692.733C688.311,700.644 674.667,699.911 665.911,691.133L429.622,454.867C420.844,446.089 420.133,432.444 428.044,424.556Z" style="fill:rgb(160,4,30);fill-rule:nonzero;"/>
                    <path d="M70.111,23.956L64.933,23.956L23.378,65.511L23.467,69.2L30.667,83.556L83.556,30.667L70.111,23.956Z" style="fill:rgb(102,117,127);fill-rule:nonzero;"/>
                    <path d="M47.711,79.4L84.333,42.756L145.733,74.444L96.222,122.622L47.711,79.4Z" style="fill:rgb(225,232,237);fill-rule:nonzero;"/>
                </g>
            </g>
        </g>
    </g>
    <defs>
        <linearGradient id="_Linear1" x1="0" y1="0" x2="1" y2="0" gradientUnits="userSpaceOnUse" gradientTransform="matrix(619.975,0,0,792.896,100.437,398.61)"><stop offset="0" style="stop-color:rgb(15,123,193);stop-opacity:1"/><stop offset="1" style="stop-color:rgb(91,203,245);stop-opacity:1"/></linearGradient>
        <linearGradient id="_Linear2" x1="0" y1="0" x2="1" y2="0" gradientUnits="userSpaceOnUse" gradientTransform="matrix(619.975,0,0,792.896,100.437,398.61)"><stop offset="0" style="stop-color:rgb(15,123,193);stop-opacity:1"/><stop offset="1" style="stop-color:rgb(91,203,245);stop-opacity:1"/></linearGradient>
        <linearGradient id="_Linear3" x1="0" y1="0" x2="1" y2="0" gradientUnits="userSpaceOnUse" gradientTransform="matrix(619.975,0,0,792.896,100.437,398.61)"><stop offset="0" style="stop-color:rgb(0,172,205);stop-opacity:1"/><stop offset="1" style="stop-color:rgb(99,194,156);stop-opacity:1"/></linearGradient>
        <linearGradient id="_Linear4" x1="0" y1="0" x2="1" y2="0" gradientUnits="userSpaceOnUse" gradientTransform="matrix(619.975,0,0,792.896,100.437,398.61)"><stop offset="0" style="stop-color:rgb(201,23,84);stop-opacity:1"/><stop offset="1" style="stop-color:rgb(250,166,63);stop-opacity:1"/></linearGradient>
        <linearGradient id="_Linear5" x1="0" y1="0" x2="1" y2="0" gradientUnits="userSpaceOnUse" gradientTransform="matrix(619.975,0,0,792.896,100.437,398.61)"><stop offset="0" style="stop-color:rgb(140,45,97);stop-opacity:1"/><stop offset="1" style="stop-color:rgb(241,91,102);stop-opacity:1"/></linearGradient>
        <linearGradient id="_Linear6" x1="0" y1="0" x2="1" y2="0" gradientUnits="userSpaceOnUse" gradientTransform="matrix(619.975,0,0,792.896,100.437,398.61)"><stop offset="0" style="stop-color:rgb(0,174,156);stop-opacity:1"/><stop offset="1" style="stop-color:rgb(163,207,98);stop-opacity:1"/></linearGradient>
        <linearGradient id="_Linear7" x1="0" y1="0" x2="1" y2="0" gradientUnits="userSpaceOnUse" gradientTransform="matrix(619.975,0,0,792.896,100.437,398.61)"><stop offset="0" style="stop-color:rgb(15,123,193);stop-opacity:1"/><stop offset="1" style="stop-color:rgb(91,203,245);stop-opacity:1"/></linearGradient>
    </defs>
</svg>
