<?xml version="1.0" encoding="UTF-8" standalone="no"?>
<!DOCTYPE svg PUBLIC "-//W3C//DTD SVG 1.1//EN" "http://www.w3.org/Graphics/SVG/1.1/DTD/svg11.dtd">
<svg width="100%" height="100%" viewBox="0 0 601 140" version="1.1" xmlns="http://www.w3.org/2000/svg" xmlns:xlink="http://www.w3.org/1999/xlink" xml:space="preserve" xmlns:serif="http://www.serif.com/" style="fill-rule:evenodd;clip-rule:evenodd;stroke-linejoin:round;stroke-miterlimit:2;">
    <g transform="matrix(1,0,0,1,-202,-10500)">
        <g id="Atomic-Counters" serif:id="Atomic Counters" transform="matrix(0.585938,0,0,0.182292,202.392,10500)">
            <rect x="0" y="0" width="1024" height="768" style="fill:none;"/>
            <g transform="matrix(1.66667,0,0,1,-629.174,0)">
                <g id="Gopher" transform="matrix(0.139388,0,0,0.746724,627.496,84.9222)">
                    <path d="M715.598,106.873C739.382,155.985 667.104,161.236 670.811,183.166C677.606,222.703 672.973,281.39 667.722,339.151C658.764,437.066 731.969,671.506 579.382,765.714C550.656,783.629 482.394,793.514 415.058,795.058L414.44,795.058C347.104,793.514 269.575,783.629 240.849,765.714C88.571,671.506 161.776,437.066 153.127,339.151C147.568,281.39 142.934,222.703 150.039,183.166C153.745,161.236 81.467,156.293 105.251,106.873C125.637,64.556 175.985,101.931 188.649,88.649C253.205,21.622 331.66,3.707 393.436,2.162L427.413,2.162C488.88,5.251 567.336,21.931 632.201,88.649C644.865,101.931 694.903,64.556 715.598,106.873ZM381.081,363.552C378.301,364.788 373.668,395.058 387.876,396.602C397.452,397.529 423.707,400.618 429.884,396.602C441.931,388.88 440.695,370.347 433.9,365.714C422.471,358.301 384.17,362.008 381.081,363.552ZM302.625,136.834C270.811,133.127 217.375,162.78 209.344,225.792C200.695,291.274 277.915,356.139 352.046,291.274C391.892,256.371 405.792,148.88 302.625,136.834ZM517.606,136.834C414.44,148.88 428.34,256.371 468.185,291.274C542.317,356.139 619.537,291.274 610.888,225.792C603.166,162.78 549.73,133.127 517.606,136.834Z" style="fill:url(#_Linear1);fill-rule:nonzero;"/>
                    <path d="M381.081,392.938C378.301,394.173 373.668,424.443 387.876,425.988C397.452,426.914 423.707,430.003 429.884,425.988C441.931,418.266 440.695,399.733 433.9,395.1C422.471,387.687 384.17,391.393 381.081,392.938ZM302.625,136.834C270.811,133.127 217.375,162.78 209.344,225.792C200.695,291.274 277.915,356.139 352.046,291.274C391.892,256.371 405.792,148.88 302.625,136.834ZM517.606,136.834C414.44,148.88 428.34,256.371 468.185,291.274C542.317,356.139 619.537,291.274 610.888,225.792C603.166,162.78 549.73,133.127 517.606,136.834Z" style="fill:rgb(122,222,255);fill-rule:nonzero;"/>
                    <path d="M410.425,328.999C429.884,326.219 476.525,348.459 473.436,374.714C469.73,405.293 353.282,409.308 347.104,372.86C343.398,350.621 361.004,336.413 410.425,328.999ZM673.282,545.792C663.707,545.483 657.529,532.819 657.529,525.097C657.529,511.197 659.382,494.826 669.575,487.722C690.579,473.205 707.259,546.1 673.282,545.792ZM147.259,545.792C113.282,546.1 129.961,473.205 150.965,487.722C161.158,494.826 163.012,511.197 163.012,525.097C163.012,532.819 156.834,545.483 147.259,545.792ZM608.726,769.73C614.903,778.687 615.212,784.865 605.328,789.498C567.645,806.795 533.977,783.629 546.641,777.143C573.514,763.552 590.193,742.239 608.726,769.73ZM211.815,772.819C230.347,745.328 247.027,766.641 273.9,780.232C286.564,786.718 252.896,809.884 215.212,792.587C205.328,787.954 205.637,781.776 211.815,772.819Z" style="fill:rgb(172,163,155);fill-rule:nonzero;"/>
                    <path d="M657.838,114.286C659.382,107.799 675.444,104.71 684.402,115.83C695.212,129.112 668.649,147.336 667.413,139.923C664.324,119.846 655.985,120.772 657.838,114.286ZM162.703,114.286C164.556,120.772 156.216,119.846 153.127,139.923C151.892,147.336 125.328,129.112 136.139,115.83C144.788,104.71 160.849,107.799 162.703,114.286ZM524.71,257.364C505.263,257.364 489.498,241.599 489.498,222.152C489.498,202.704 505.263,186.939 524.71,186.939C544.158,186.939 559.923,202.704 559.923,222.152C559.923,241.599 544.158,257.364 524.71,257.364ZM515.444,218.136C521.585,218.136 526.564,213.158 526.564,207.017C526.564,200.875 521.585,195.897 515.444,195.897C509.303,195.897 504.324,200.875 504.324,207.017C504.324,213.158 509.303,218.136 515.444,218.136ZM378.61,343.826C382.317,329.617 395.29,324.984 405.792,324.675C432.664,324.057 442.857,338.575 443.784,350.003C445.637,369.463 370.27,374.096 378.61,343.826ZM295.83,257.364C276.383,257.364 260.618,241.599 260.618,222.152C260.618,202.704 276.383,186.939 295.83,186.939C315.277,186.939 331.042,202.704 331.042,222.152C331.042,241.599 315.277,257.364 295.83,257.364ZM305.097,218.136C311.238,218.136 316.216,213.158 316.216,207.017C316.216,200.875 311.238,195.897 305.097,195.897C298.955,195.897 293.977,200.875 293.977,207.017C293.977,213.158 298.955,218.136 305.097,218.136Z" style="fill:rgb(65,65,65);fill-rule:nonzero;"/>
                </g>
                <g transform="matrix(0.139388,0,0,0.746724,627.496,84.9222)">
                    <path d="M144.933,485.823C148.681,427.805 156.255,374.554 153.127,339.151C147.568,281.39 142.934,222.703 150.039,183.166C153.745,161.236 81.467,156.293 105.251,106.873C125.637,64.556 175.985,101.931 188.649,88.649C253.205,21.622 331.66,3.707 393.436,2.162L427.413,2.162C488.88,5.251 567.336,21.931 632.201,88.649C644.865,101.931 694.903,64.556 715.598,106.873C739.382,155.985 667.104,161.236 670.811,183.166C677.606,222.703 672.973,281.39 667.722,339.151C664.483,374.554 671.986,427.808 675.673,485.827C692.516,486.933 702.817,540.338 677.545,545.407C676.847,625.8 660.387,706.866 592.696,756.731C598.08,757.851 603.324,761.718 608.726,769.73C614.903,778.687 615.212,784.865 605.328,789.498C571.51,805.021 540.926,787.956 544.161,779.604C509.981,788.788 462.292,793.975 415.058,795.058L414.44,795.058C362.445,793.865 304.373,787.7 267.385,776.705C269.49,777.912 271.66,779.099 273.9,780.232C286.564,786.718 252.896,809.884 215.212,792.587C205.328,787.954 205.637,781.776 211.815,772.819C218.384,763.073 224.721,759.461 231.362,759.464C160.625,709.864 143.638,627.287 143.003,545.409C117.689,540.342 128.049,486.794 144.933,485.823ZM516.077,123.58L516.059,123.582C480.577,127.726 457.422,142.205 443.277,160.843C426.651,182.75 422.365,210.952 426.619,237.282C430.83,263.352 443.448,287.341 459.397,301.312C493.367,331.036 528.101,336.277 556.681,327.909C600.18,315.173 630.115,269.796 624.125,224.125C615.262,151.989 552.86,119.336 516.077,123.58ZM304.171,123.582C267.744,119.338 205.304,151.958 196.109,224.105C190.081,269.742 220.026,315.165 263.551,327.909C292.13,336.277 326.865,331.036 360.835,301.312C376.784,287.341 389.402,263.352 393.613,237.282C397.866,210.952 393.581,182.75 376.955,160.843C362.81,142.205 339.653,127.725 304.171,123.582Z" style="fill:rgb(243,193,5);"/>
                </g>
            </g>
            <g transform="matrix(0.0296317,0,0,0.0296317,491.736,500.096)">
                <g transform="matrix(1.70667,0,0,5.48571,5.68434e-14,0)">
                    <path d="M400.063,427.769C410.414,427.769 420.717,425.009 429.775,419.786C458.144,403.38 467.909,366.93 451.528,338.488C440.933,320.128 421.156,308.752 399.941,308.752C389.541,308.752 379.286,311.511 370.228,316.734C341.834,333.166 332.044,369.591 348.475,398.033C359.07,416.367 378.845,427.769 400.063,427.769Z" style="fill:rgb(65,65,65);fill-rule:nonzero;"/>
                </g>
                <g transform="matrix(1.70667,0,0,5.48571,5.68434e-14,0)">
                    <path d="M463.489,478.256C457.825,468.417 445.789,464.364 435.316,468.711C435.316,468.711 436.927,469.322 427.919,471.788C418.909,474.23 409.511,475.498 399.989,475.498C390.444,475.498 381.092,474.228 372.059,471.788C363.05,469.322 364.686,468.711 364.686,468.711C354.212,464.366 342.127,468.417 336.513,478.256L211.269,695.15C208.144,700.57 207.387,707.039 209.217,713.022C211.073,719.003 215.297,723.934 220.961,726.694C220.961,726.694 232.241,733.628 249.55,740.586C297.181,759.8 348.353,769.809 399.989,769.908C451.65,769.809 502.772,759.8 550.453,740.586C567.762,733.628 579.042,726.694 579.042,726.694C584.658,723.934 588.93,719.003 590.761,713.022C592.592,707.041 591.836,700.57 588.734,695.15L463.489,478.256Z" style="fill:rgb(65,65,65);fill-rule:nonzero;"/>
                </g>
                <g transform="matrix(1.70667,0,0,5.48571,5.68434e-14,0)">
                    <path d="M797.669,312.388C790.491,261.508 773.572,212.192 747.816,167.417C721.961,122.716 687.708,83.481 647.23,51.767C632.508,40.292 620.862,33.969 620.862,33.969C615.736,30.453 609.314,29.256 603.163,30.673C597.059,32.066 591.834,35.947 588.684,41.367L463.489,258.262C457.825,268.053 460.339,280.553 469.323,287.437C469.323,287.437 469.03,285.705 475.695,292.295C482.262,298.888 488.098,306.383 492.883,314.609C497.619,322.911 501.208,331.65 503.6,340.659C505.992,349.717 504.65,348.594 504.65,348.594C506.116,359.848 515.636,368.272 527.014,368.272L777.453,368.272C783.703,368.272 789.684,365.659 793.958,361.07C798.231,356.481 800.378,350.328 799.939,344.103C799.939,344.102 800.305,330.845 797.669,312.388Z" style="fill:rgb(65,65,65);fill-rule:nonzero;"/>
                </g>
                <g transform="matrix(1.70667,0,0,5.48571,5.68434e-14,0)">
                    <path d="M295.35,348.594C295.35,348.594 294.008,349.717 296.4,340.659C298.792,331.65 302.333,322.911 307.117,314.609C311.903,306.358 317.689,298.886 324.305,292.295C330.92,285.705 330.653,287.437 330.653,287.437C339.662,280.553 342.177,268.053 336.513,258.262L211.267,41.367C208.142,35.947 202.894,32.066 196.789,30.673C190.686,29.258 184.264,30.453 179.089,33.969C179.089,33.969 167.444,40.292 152.77,51.767C112.292,83.481 78.039,122.714 52.136,167.417C26.403,212.192 9.509,261.509 2.283,312.388C-0.305,330.845 0.061,344.102 0.061,344.102C-0.378,350.327 1.722,356.48 6.042,361.069C10.291,365.659 16.272,368.27 22.547,368.27L272.986,368.27C284.339,368.272 293.884,359.848 295.35,348.594Z" style="fill:rgb(65,65,65);fill-rule:nonzero;"/>
                </g>
            </g>
            <g transform="matrix(0.19999,0,0,0.489844,432.004,85.1749)">
                <path d="M400,735.714C250.095,735.714 128.572,614.191 128.572,464.286L128.572,292.858C128.572,182.4 218.114,92.858 328.572,92.858L471.43,92.858C581.888,92.858 671.43,182.4 671.43,292.858L671.43,464.286C671.428,614.191 549.905,735.714 400,735.714ZM271.428,250.172C216.011,250.313 200,296.331 200,335.714C200,375.097 219.055,421.469 271.428,421.652C318.243,421.815 342.856,375.097 342.856,335.714C342.856,296.331 318.503,250.051 271.428,250.172ZM528.572,249.349C474.413,250.196 457.144,296.331 457.144,335.714C457.144,375.097 478.303,422.576 528.572,422.435C577.736,422.296 600,375.097 600,335.714C600,296.331 579.333,248.556 528.572,249.349Z" style="fill:rgb(84,84,84);"/>
                <path d="M215.053,391.825L214.286,464.286C214.286,599.57 313.367,711.414 442.858,732.006C428.864,734.231 414.622,735.714 400,735.714C250.095,735.714 128.572,614.191 128.572,464.286L128.572,292.858C128.572,182.4 218.114,92.858 328.572,92.858L414.286,92.858C303.828,92.858 214.725,171.43 214.725,281.888L208.029,290.917C199.062,302.856 196.2,319.669 196.2,335.714C196.2,351.759 206.086,379.887 215.053,391.825Z" style="fill:rgb(65,65,65);"/>
                <path d="M304.67,578.572L325.138,725.373C327.105,739.491 339.18,750 353.436,750L446.564,750C460.819,750 472.892,739.492 474.862,725.373L495.328,578.572L304.67,578.572Z" style="fill:rgb(65,65,65);fill-rule:nonzero;"/>
                <circle cx="400" cy="564.286" r="100" style="fill:rgb(65,65,65);"/>
                <g transform="matrix(1,0,0,1.18626,0,-62.5295)">
                    <path d="M271.428,435.714C216.294,435.714 171.428,390.848 171.428,335.714C171.428,280.58 216.294,235.714 271.428,235.714C326.562,235.714 371.428,280.58 371.428,335.714C371.428,390.848 326.562,435.714 271.428,435.714ZM271.428,264.286C232.044,264.286 200,296.331 200,335.714C200,375.097 232.045,407.142 271.428,407.142C310.811,407.142 342.856,375.097 342.856,335.714C342.856,296.331 310.812,264.286 271.428,264.286Z" style="fill:rgb(65,65,65);"/>
                </g>
                <path d="M214.286,164.286C198.506,164.286 185.714,151.495 185.714,135.714L185.714,75.485C185.714,67.596 192.111,61.199 200,61.199L228.572,50C236.461,50 242.858,56.397 242.858,64.286L242.858,135.714C242.858,151.492 230.064,164.286 214.286,164.286Z" style="fill:rgb(65,65,65);fill-rule:nonzero;"/>
                <g transform="matrix(1,0,0,1.18626,0,-62.5295)">
                    <path d="M528.572,435.714C473.437,435.714 428.572,390.848 428.572,335.714C428.572,280.58 473.437,235.714 528.572,235.714C583.706,235.714 628.572,280.58 628.572,335.714C628.572,390.848 583.705,435.714 528.572,435.714ZM528.572,264.286C489.187,264.286 457.144,296.331 457.144,335.714C457.144,375.097 489.189,407.142 528.572,407.142C567.956,407.142 600,375.097 600,335.714C600,296.331 567.953,264.286 528.572,264.286Z" style="fill:rgb(65,65,65);"/>
                </g>
                <path d="M400,621.428C368.486,621.428 342.858,595.8 342.858,564.286C342.858,532.772 368.486,507.144 400,507.144C431.514,507.144 457.142,532.772 457.142,564.286C457.142,595.8 431.514,621.428 400,621.428ZM400,535.714C384.25,535.714 371.428,548.536 371.428,564.286C371.428,580.036 384.25,592.858 400,592.858C415.75,592.858 428.572,580.036 428.572,564.286C428.572,548.534 415.75,535.714 400,535.714Z" style="fill:rgb(111,116,114);fill-rule:nonzero;"/>
                <path d="M214.286,164.286C198.506,164.286 185.714,151.495 185.714,135.714L185.714,121.428C185.714,113.539 192.111,107.142 200,107.142L228.572,107.142C236.461,107.142 242.858,113.539 242.858,121.428L242.858,135.714C242.858,151.492 230.064,164.286 214.286,164.286Z" style="fill:rgb(111,116,114);fill-rule:nonzero;"/>
                <path d="M585.714,164.286C569.934,164.286 557.142,151.495 557.142,135.714L557.142,64.286C557.142,56.397 563.539,50 571.428,50L600,61.199C607.889,61.199 614.286,67.596 614.286,75.485L614.286,135.714C614.286,151.492 601.492,164.286 585.714,164.286Z" style="fill:rgb(65,65,65);fill-rule:nonzero;"/>
                <path d="M585.714,164.286C569.934,164.286 557.142,151.495 557.142,135.714L557.142,121.428C557.142,113.539 563.539,107.142 571.428,107.142L600,107.142C607.889,107.142 614.286,113.539 614.286,121.428L614.286,135.714C614.286,151.492 601.492,164.286 585.714,164.286Z" style="fill:rgb(111,116,114);fill-rule:nonzero;"/>
                <path d="M185.714,450L71.428,450L71.428,721.428L185.714,721.428C225.162,721.428 257.142,660.667 257.142,585.714C257.142,510.761 225.163,450 185.714,450Z" style="fill:rgb(111,116,114);fill-rule:nonzero;"/>
                <ellipse cx="71.428" cy="585.714" rx="71.428" ry="135.714" style="fill:rgb(84,84,84);"/>
                <path d="M71.428,635.714C54.339,635.714 42.856,615.625 42.856,585.714C42.856,555.803 54.339,535.714 71.428,535.714C88.517,535.714 100,555.803 100,585.714C100,615.625 88.517,635.714 71.428,635.714Z" style="fill:rgb(65,65,65);fill-rule:nonzero;"/>
                <path d="M106.598,721.428L167.981,721.428C196.127,692.081 214.286,642.748 214.286,585.714C214.286,528.68 196.125,479.347 167.98,450L106.598,450C149.484,450 185.714,512.15 185.714,585.714C185.714,659.278 149.484,721.428 106.598,721.428Z" style="fill:rgb(65,65,65);fill-rule:nonzero;"/>
                <path d="M614.286,721.428L728.572,721.428L728.572,450L614.286,450C574.837,450 542.858,510.761 542.858,585.714C542.858,660.667 574.836,721.428 614.286,721.428Z" style="fill:rgb(111,116,114);fill-rule:nonzero;"/>
                <ellipse cx="728.572" cy="585.714" rx="71.428" ry="135.714" style="fill:rgb(84,84,84);"/>
                <path d="M728.572,535.714C745.661,535.714 757.144,555.803 757.144,585.714C757.144,615.625 745.661,635.714 728.572,635.714C711.483,635.714 700,615.625 700,585.714C700,555.803 711.48,535.714 728.572,535.714Z" style="fill:rgb(65,65,65);fill-rule:nonzero;"/>
                <path d="M693.4,450L632.017,450C603.875,479.345 585.714,528.68 585.714,585.714C585.714,642.748 603.875,692.081 632.019,721.428L693.402,721.428C650.516,721.428 614.286,659.277 614.286,585.714C614.286,512.152 650.516,450 693.4,450Z" style="fill:rgb(65,65,65);fill-rule:nonzero;"/>
            </g>
        </g>
    </g>
    <defs>
        <linearGradient id="_Linear1" x1="0" y1="0" x2="1" y2="0" gradientUnits="userSpaceOnUse" gradientTransform="matrix(619.975,0,0,792.896,100.437,398.61)"><stop offset="0" style="stop-color:rgb(15,123,193);stop-opacity:1"/><stop offset="1" style="stop-color:rgb(91,203,245);stop-opacity:1"/></linearGradient>
    </defs>
</svg>
