<?xml version="1.0" encoding="UTF-8" standalone="no"?>
<!DOCTYPE svg PUBLIC "-//W3C//DTD SVG 1.1//EN" "http://www.w3.org/Graphics/SVG/1.1/DTD/svg11.dtd">
<svg width="100%" height="100%" viewBox="0 0 601 140" version="1.1" xmlns="http://www.w3.org/2000/svg" xmlns:xlink="http://www.w3.org/1999/xlink" xml:space="preserve" xmlns:serif="http://www.serif.com/" style="fill-rule:evenodd;clip-rule:evenodd;stroke-miterlimit:2;">
    <g transform="matrix(1,0,0,1,-202,-8630)">
        <g id="Channel-Direction" serif:id="Channel Direction" transform="matrix(0.585938,0,0,0.182292,202.331,8630)">
            <rect x="0" y="0" width="1024" height="768" style="fill:none;"/>
            <g id="Gopher" transform="matrix(0.180719,0,0,0.574204,467.756,259.278)">
                <path d="M381.081,363.552C378.301,364.788 373.668,395.058 387.876,396.602C397.452,397.529 423.707,400.618 429.884,396.602C441.931,388.88 440.695,370.347 433.9,365.714C422.471,358.301 384.17,362.008 381.081,363.552ZM302.625,136.834C270.811,133.127 217.375,162.78 209.344,225.792C200.695,291.274 277.915,356.139 352.046,291.274C391.892,256.371 405.792,148.88 302.625,136.834ZM517.606,136.834C414.44,148.88 428.34,256.371 468.185,291.274C542.317,356.139 619.537,291.274 610.888,225.792C603.166,162.78 549.73,133.127 517.606,136.834Z" style="fill:white;fill-rule:nonzero;"/>
                <path d="M715.598,106.873C739.382,155.985 667.104,161.236 670.811,183.166C677.606,222.703 672.973,281.39 667.722,339.151C658.764,437.066 731.969,671.506 579.382,765.714C550.656,783.629 482.394,793.514 415.058,795.058L414.44,795.058C347.104,793.514 269.575,783.629 240.849,765.714C88.571,671.506 161.776,437.066 153.127,339.151C147.568,281.39 142.934,222.703 150.039,183.166C153.745,161.236 81.467,156.293 105.251,106.873C125.637,64.556 175.985,101.931 188.649,88.649C253.205,21.622 331.66,3.707 393.436,2.162L427.413,2.162C488.88,5.251 567.336,21.931 632.201,88.649C644.865,101.931 694.903,64.556 715.598,106.873ZM381.081,363.552C378.301,364.788 373.668,395.058 387.876,396.602C397.452,397.529 423.707,400.618 429.884,396.602C441.931,388.88 440.695,370.347 433.9,365.714C422.471,358.301 384.17,362.008 381.081,363.552ZM302.625,136.834C270.811,133.127 217.375,162.78 209.344,225.792C200.695,291.274 277.915,356.139 352.046,291.274C391.892,256.371 405.792,148.88 302.625,136.834ZM517.606,136.834C414.44,148.88 428.34,256.371 468.185,291.274C542.317,356.139 619.537,291.274 610.888,225.792C603.166,162.78 549.73,133.127 517.606,136.834Z" style="fill:url(#_Linear1);fill-rule:nonzero;"/>
                <path d="M410.425,299.614C429.884,296.834 476.525,319.073 473.436,345.328C469.73,375.907 353.282,379.923 347.104,343.475C343.398,321.236 361.004,307.027 410.425,299.614ZM673.282,545.792C663.707,545.483 657.529,532.819 657.529,525.097C657.529,511.197 659.382,494.826 669.575,487.722C690.579,473.205 707.259,546.1 673.282,545.792ZM147.259,545.792C113.282,546.1 129.961,473.205 150.965,487.722C161.158,494.826 163.012,511.197 163.012,525.097C163.012,532.819 156.834,545.483 147.259,545.792ZM608.726,769.73C614.903,778.687 615.212,784.865 605.328,789.498C567.645,806.795 533.977,783.629 546.641,777.143C573.514,763.552 590.193,742.239 608.726,769.73ZM211.815,772.819C230.347,745.328 247.027,766.641 273.9,780.232C286.564,786.718 252.896,809.884 215.212,792.587C205.328,787.954 205.637,781.776 211.815,772.819Z" style="fill:rgb(172,163,155);fill-rule:nonzero;"/>
                <path d="M657.838,114.286C659.382,107.799 675.444,104.71 684.402,115.83C695.212,129.112 668.649,147.336 667.413,139.923C664.324,119.846 655.985,120.772 657.838,114.286ZM162.703,114.286C164.556,120.772 156.216,119.846 153.127,139.923C151.892,147.336 125.328,129.112 136.139,115.83C144.788,104.71 160.849,107.799 162.703,114.286ZM524.71,264.71C505.263,264.71 489.498,248.945 489.498,229.498C489.498,210.051 505.263,194.286 524.71,194.286C544.158,194.286 559.923,210.051 559.923,229.498C559.923,248.945 544.158,264.71 524.71,264.71ZM515.444,225.483C521.585,225.483 526.564,220.504 526.564,214.363C526.564,208.222 521.585,203.243 515.444,203.243C509.303,203.243 504.324,208.222 504.324,214.363C504.324,220.504 509.303,225.483 515.444,225.483ZM378.61,314.44C382.317,300.232 395.29,295.598 405.792,295.29C432.664,294.672 442.857,309.189 443.784,320.618C445.637,340.077 370.27,344.71 378.61,314.44ZM295.83,264.71C276.383,264.71 260.618,248.945 260.618,229.498C260.618,210.051 276.383,194.286 295.83,194.286C315.277,194.286 331.042,210.051 331.042,229.498C331.042,248.945 315.277,264.71 295.83,264.71ZM305.097,225.483C311.238,225.483 316.216,220.504 316.216,214.363C316.216,208.222 311.238,203.243 305.097,203.243C298.955,203.243 293.977,208.222 293.977,214.363C293.977,220.504 298.955,225.483 305.097,225.483Z" style="fill:rgb(65,65,65);fill-rule:nonzero;"/>
            </g>
            <g id="Livello-1" serif:id="Livello 1">
            </g>
            <g transform="matrix(1.26979,0,0,2.50605,791.177,-7462.94)">
                <rect x="-274.502" y="3064.16" width="16.551" height="218.078" style="fill:url(#_Linear2);"/>
            </g>
            <g transform="matrix(0.344352,0,0,1.10685,341.468,94.8936)">
                <path d="M607.313,1.583L41.187,1.583C18.917,1.583 0.75,19.747 0.75,42.021L0.75,176.812C0.75,199.079 18.917,217.25 41.187,217.25L607.313,217.25C629.583,217.25 647.75,199.079 647.75,176.812L647.75,42.021C647.75,20.027 629.302,1.583 607.313,1.583Z" style="fill:white;fill-rule:nonzero;"/>
                <path d="M607.313,1.583L41.187,1.583C18.917,1.583 0.75,19.747 0.75,42.021L0.75,176.812C0.75,199.079 18.917,217.25 41.187,217.25L607.313,217.25C629.583,217.25 647.75,199.079 647.75,176.812L647.75,42.021C647.75,20.027 629.302,1.583 607.313,1.583Z" style="fill:none;stroke:rgb(35,31,32);stroke-width:4.96px;"/>
                <path d="M607.207,10.569L41.296,10.569C24.022,10.644 9.813,24.848 9.735,42.134L9.735,176.691C9.806,193.96 24.022,208.205 41.296,208.263L607.207,208.263C624.465,208.205 638.705,193.96 638.764,176.691L638.764,42.134C638.705,24.848 624.465,10.644 607.207,10.569Z" style="fill:rgb(0,124,183);"/>
                <path d="M167.547,197.803L36.764,109.334L167.547,20.729C173.312,16.814 181.206,18.311 185.125,24.076C187.739,27.933 187.266,31.923 186.073,36.658L178.506,62.314L593.864,62.314L593.864,156.363L178.506,156.363L185.792,181.332C187.247,186.558 187.863,190.432 185.125,194.453C181.206,200.209 173.312,201.714 167.547,197.803Z" style="fill:white;"/>
                <path d="M248.53,110.388C248.53,101.307 246.764,92.236 243.746,85.942C239.198,77.112 232.898,73.071 223.827,73.071C215.504,73.071 209.712,75.597 205.43,81.148C200.628,87.954 197.605,98.535 197.605,110.388C197.605,118.959 199.622,128.547 202.652,134.583C206.939,143.406 213.242,147.479 223.316,147.479C230.875,147.479 236.674,144.916 240.707,139.374C245.758,133.075 248.53,121.729 248.53,110.388ZM237.182,110.388C237.182,115.933 235.926,122.993 234.404,126.768C231.896,133.075 228.617,135.847 223.316,135.847C218.788,135.847 215.754,134.082 213.483,130.301C210.715,125.754 209.202,117.945 209.202,110.388C209.202,104.338 210.204,97.783 211.979,93.492C214.49,87.196 218.036,84.424 223.574,84.678C227.863,84.928 230.628,86.44 232.898,90.224C235.667,95.006 237.182,102.321 237.182,110.388ZM307.121,146.18L307.121,74.334L295.779,74.334L295.779,120.223L269.557,74.334L258.228,74.334L258.228,146.18L269.557,146.18L269.557,97.529L297.046,146.18L307.121,146.18ZM362.691,146.18L362.691,134.583L329.422,134.583L329.422,114.927L350.354,114.927L350.354,103.332L329.422,103.332L329.422,85.684L360.417,85.684L360.417,74.334L318.072,74.334L318.072,146.18L362.691,146.18Z" style="fill:rgb(35,31,32);"/>
                <path d="M462.446,74.334L450.844,74.334L445.294,112.154L435.98,74.334L424.888,74.334L415.819,112.154L410.272,74.334L398.666,74.334L409.268,146.18L419.341,146.18L430.434,100.053L441.771,146.18L451.865,146.18L462.446,74.334ZM522.447,146.18L497.74,74.334L486.398,74.334L461.698,146.18L473.784,146.18L480.845,126.012L503.286,126.012L510.35,146.18L522.447,146.18ZM499.253,114.424L484.877,114.424L492.201,94.252L499.253,114.424ZM572.105,74.334L558.746,74.334L541.356,102.068L524.206,74.334L510.595,74.334L535.811,114.927L535.811,146.18L547.147,146.18L547.147,114.927L572.105,74.334Z" style="fill:rgb(35,31,32);"/>
            </g>
        </g>
    </g>
    <defs>
        <linearGradient id="_Linear1" x1="0" y1="0" x2="1" y2="0" gradientUnits="userSpaceOnUse" gradientTransform="matrix(619.975,0,0,792.896,100.437,398.61)"><stop offset="0" style="stop-color:rgb(140,45,97);stop-opacity:1"/><stop offset="1" style="stop-color:rgb(241,91,102);stop-opacity:1"/></linearGradient>
        <linearGradient id="_Linear2" x1="0" y1="0" x2="1" y2="0" gradientUnits="userSpaceOnUse" gradientTransform="matrix(16.5505,0,0,218.078,-274.502,3173.2)"><stop offset="0" style="stop-color:rgb(172,163,155);stop-opacity:1"/><stop offset="1" style="stop-color:rgb(65,65,65);stop-opacity:1"/></linearGradient>
    </defs>
</svg>
