<?xml version="1.0" encoding="UTF-8" standalone="no"?>
<!DOCTYPE svg PUBLIC "-//W3C//DTD SVG 1.1//EN" "http://www.w3.org/Graphics/SVG/1.1/DTD/svg11.dtd">
<svg width="100%" height="100%" viewBox="0 0 601 140" version="1.1" xmlns="http://www.w3.org/2000/svg" xmlns:xlink="http://www.w3.org/1999/xlink" xml:space="preserve" xmlns:serif="http://www.serif.com/" style="fill-rule:evenodd;clip-rule:evenodd;stroke-linejoin:round;stroke-miterlimit:2;">
    <g transform="matrix(1,0,0,1,-202,-9310)">
        <g id="Closing-Channels" serif:id="Closing Channels" transform="matrix(0.585938,0,0,0.182292,202.331,9310)">
            <rect x="0" y="0" width="1024" height="768" style="fill:none;"/>
            <g transform="matrix(0.341619,0,0,1.09806,375.352,-37751.6)">
                <path d="M0,35013.3L800,35013.3L666.667,34813.3L133.333,34813.3L0,35013.3" style="fill:rgb(175,175,175);fill-rule:nonzero;"/>
                <g>
                    <rect x="66.667" y="34413.3" width="666.667" height="566.667" style="fill:url(#_Linear1);"/>
                    <rect x="133.333" y="34646.7" width="300" height="300" style="fill:rgb(236,240,241);"/>
                    <rect x="466.667" y="34680" width="200" height="300" style="fill:rgb(236,240,241);"/>
                    <rect x="466.667" y="34646.7" width="200" height="33.333" style="fill:rgb(189,195,199);"/>
                    <rect x="133.333" y="34646.7" width="300" height="66.667" style="fill:rgb(189,195,199);"/>
                    <path d="M0,34546.7L66.667,34413.3L166.667,34413.3L100,34546.7L100,34596.7C100,34623.3 77.613,34646.7 50,34646.7C22.386,34646.7 0,34623.3 0,34596.7L0,34546.7ZM200,34546.7L266.667,34413.3L333.333,34413.3L300,34546.7L300,34596.7C300,34623.3 277.613,34646.7 250,34646.7C222.387,34646.7 200,34623.3 200,34596.7L200,34546.7ZM400,34596.7L400,34413.3L466.667,34413.3L500,34546.7L500,34596.7C500,34623.3 477.6,34646.7 450,34646.7C422.4,34646.7 400,34623.3 400,34596.7ZM600,34546.7L533.333,34413.3L633.333,34413.3L700,34546.7L700,34596.7C700,34623.3 677.6,34646.7 650,34646.7C622.4,34646.7 600,34623.3 600,34596.7L600,34546.7Z" style="fill:url(#_Linear2);"/>
                    <path d="M100,34546.7L166.667,34413.3L266.667,34413.3L200,34546.7L200,34596.7C200,34623.3 177.613,34646.7 150,34646.7C122.387,34646.7 100,34623.3 100,34596.7L100,34546.7ZM300,34546.7L333.333,34413.3L400,34413.3L400,34596.7C400,34623.3 377.6,34646.7 350,34646.7C322.387,34646.7 300,34623.3 300,34596.7L300,34546.7ZM500,34546.7L466.667,34413.3L533.333,34413.3L600,34546.7L600,34596.7C600,34623.3 577.6,34646.7 550,34646.7C522.4,34646.7 500,34623.3 500,34596.7L500,34546.7ZM700,34546.7L633.333,34413.3L733.333,34413.3L800,34546.7L800,34596.7C800,34623.3 777.6,34646.7 750,34646.7C722.4,34646.7 700,34623.3 700,34596.7L700,34546.7Z" style="fill:url(#_Linear3);"/>
                    <rect x="500" y="34680" width="133.333" height="300" style="fill:url(#_Linear4);"/>
                    <rect x="466.667" y="34813.3" width="166.667" height="33.333" style="fill:rgb(236,240,241);"/>
                    <rect x="633.333" y="34680" width="33.333" height="33.333" style="fill:rgb(189,195,199);"/>
                    <rect x="466.667" y="34680" width="33.333" height="33.333" style="fill:rgb(189,195,199);"/>
                    <rect x="166.667" y="34680" width="233.333" height="233.333" style="fill:url(#_Linear5);"/>
                    <clipPath id="_clip6">
                        <rect x="166.667" y="34680" width="233.333" height="233.333"/>
                    </clipPath>
                    <g clip-path="url(#_clip6)">
                        <g id="Gopher" transform="matrix(0.27147,0,0,0.27147,237.763,34779.4)">
                            <path d="M381.081,363.552C378.301,364.788 373.668,395.058 387.876,396.602C397.452,397.529 423.707,400.618 429.884,396.602C441.931,388.88 440.695,370.347 433.9,365.714C422.471,358.301 384.17,362.008 381.081,363.552ZM302.625,136.834C270.811,133.127 217.375,162.78 209.344,225.792C200.695,291.274 277.915,356.139 352.046,291.274C391.892,256.371 405.792,148.88 302.625,136.834ZM517.606,136.834C414.44,148.88 428.34,256.371 468.185,291.274C542.317,356.139 619.537,291.274 610.888,225.792C603.166,162.78 549.73,133.127 517.606,136.834Z" style="fill:white;fill-rule:nonzero;"/>
                            <path d="M715.598,106.873C739.382,155.985 667.104,161.236 670.811,183.166C677.606,222.703 672.973,281.39 667.722,339.151C658.764,437.066 731.969,671.506 579.382,765.714C550.656,783.629 482.394,793.514 415.058,795.058L414.44,795.058C347.104,793.514 269.575,783.629 240.849,765.714C88.571,671.506 161.776,437.066 153.127,339.151C147.568,281.39 142.934,222.703 150.039,183.166C153.745,161.236 81.467,156.293 105.251,106.873C125.637,64.556 175.985,101.931 188.649,88.649C253.205,21.622 331.66,3.707 393.436,2.162L427.413,2.162C488.88,5.251 567.336,21.931 632.201,88.649C644.865,101.931 694.903,64.556 715.598,106.873ZM381.081,363.552C378.301,364.788 373.668,395.058 387.876,396.602C397.452,397.529 423.707,400.618 429.884,396.602C441.931,388.88 440.695,370.347 433.9,365.714C422.471,358.301 384.17,362.008 381.081,363.552ZM302.625,136.834C270.811,133.127 217.375,162.78 209.344,225.792C200.695,291.274 277.915,356.139 352.046,291.274C391.892,256.371 405.792,148.88 302.625,136.834ZM517.606,136.834C414.44,148.88 428.34,256.371 468.185,291.274C542.317,356.139 619.537,291.274 610.888,225.792C603.166,162.78 549.73,133.127 517.606,136.834Z" style="fill:url(#_Linear7);fill-rule:nonzero;"/>
                            <path d="M410.425,299.614C429.884,296.834 476.525,319.073 473.436,345.328C469.73,375.907 353.282,379.923 347.104,343.475C343.398,321.236 361.004,307.027 410.425,299.614ZM673.282,545.792C663.707,545.483 657.529,532.819 657.529,525.097C657.529,511.197 659.382,494.826 669.575,487.722C690.579,473.205 707.259,546.1 673.282,545.792ZM147.259,545.792C113.282,546.1 129.961,473.205 150.965,487.722C161.158,494.826 163.012,511.197 163.012,525.097C163.012,532.819 156.834,545.483 147.259,545.792ZM608.726,769.73C614.903,778.687 615.212,784.865 605.328,789.498C567.645,806.795 533.977,783.629 546.641,777.143C573.514,763.552 590.193,742.239 608.726,769.73ZM211.815,772.819C230.347,745.328 247.027,766.641 273.9,780.232C286.564,786.718 252.896,809.884 215.212,792.587C205.328,787.954 205.637,781.776 211.815,772.819Z" style="fill:rgb(172,163,155);fill-rule:nonzero;"/>
                            <path d="M657.838,114.286C659.382,107.799 675.444,104.71 684.402,115.83C695.212,129.112 668.649,147.336 667.413,139.923C664.324,119.846 655.985,120.772 657.838,114.286ZM162.703,114.286C164.556,120.772 156.216,119.846 153.127,139.923C151.892,147.336 125.328,129.112 136.139,115.83C144.788,104.71 160.849,107.799 162.703,114.286ZM544.741,234.664C525.294,234.664 509.529,218.899 509.529,199.452C509.529,180.004 525.294,164.239 544.741,164.239C564.189,164.239 579.954,180.004 579.954,199.452C579.954,218.899 564.189,234.664 544.741,234.664ZM535.475,195.436C541.616,195.436 546.595,190.458 546.595,184.316C546.595,178.175 541.616,173.197 535.475,173.197C529.334,173.197 524.355,178.175 524.355,184.316C524.355,190.458 529.334,195.436 535.475,195.436ZM378.61,314.44C382.317,300.232 395.29,295.598 405.792,295.29C432.664,294.672 442.857,309.189 443.784,320.618C445.637,340.077 370.27,344.71 378.61,314.44ZM315.861,234.664C296.414,234.664 280.649,218.899 280.649,199.452C280.649,180.004 296.414,164.239 315.861,164.239C335.308,164.239 351.073,180.004 351.073,199.452C351.073,218.899 335.308,234.664 315.861,234.664ZM325.128,195.436C331.269,195.436 336.247,190.458 336.247,184.316C336.247,178.175 331.269,173.197 325.128,173.197C318.986,173.197 314.008,178.175 314.008,184.316C314.008,190.458 318.986,195.436 325.128,195.436Z" style="fill:rgb(65,65,65);fill-rule:nonzero;"/>
                        </g>
                    </g>
                </g>
                <g>
                    <rect x="133.333" y="34780" width="300" height="33.333" style="fill:rgb(236,240,241);"/>
                    <rect x="266.667" y="34680" width="33.333" height="233.333" style="fill:rgb(236,240,241);"/>
                </g>
                <g transform="matrix(1,0,0,1,0,34280)">
                    <rect x="266.667" y="400" width="33.333" height="33.333" style="fill:rgb(189,195,199);"/>
                </g>
                <g transform="matrix(1,0,0,1,0,34280)">
                    <rect x="0" y="733.333" width="800" height="33.333" style="fill:rgb(65,65,65);"/>
                </g>
            </g>
            <g transform="matrix(0.0693973,-0.0212401,0.00660802,0.223063,538.534,349.452)">
                <g>
                    <g>
                        <path d="M334.453,482.324C315.199,482.324 303.999,500.633 303.999,525.103C303.999,549.772 315.565,567.148 334.635,567.148C353.889,567.148 364.91,548.833 364.91,524.371C364.908,501.761 354.068,482.324 334.453,482.324Z" style="fill:rgb(225,2,113);fill-rule:nonzero;"/>
                        <path d="M655.623,482.686C649.292,482.686 645.175,483.261 642.754,483.837L642.754,566.211C645.18,566.784 649.084,566.784 652.655,566.784C678.423,566.971 695.249,552.772 695.249,522.678C695.425,496.522 680.107,482.686 655.623,482.686Z" style="fill:rgb(225,2,113);fill-rule:nonzero;"/>
                        <path d="M705.533,285.97L495.247,75.966C469.791,50.483 435.951,36.473 399.945,36.473C363.969,36.499 330.13,50.536 304.7,75.966L94.151,285.993C42.1,286.309 0,328.562 0,380.666L0,668.8C0,721.119 42.408,763.527 94.724,763.527L705.276,763.527C757.585,763.527 800,721.119 800,668.8L800,380.668C799.998,328.46 757.719,286.096 705.533,285.97ZM361.287,132.546C381.816,112.075 418.132,112.017 438.657,132.546L592.055,285.942L207.891,285.942L361.287,132.546ZM171.652,475.448L170.791,478.78C169.593,483.47 164.801,486.332 160.086,485.132C155.634,484.04 150.448,483.253 144.537,483.253C121.95,483.253 104.387,496.902 104.387,524.915C104.387,550.159 119.318,566.024 144.743,566.024C148.964,566.024 153.363,565.577 157.456,564.853C163.658,563.759 169.595,567.84 170.792,574.074C171.995,580.278 167.981,586.291 161.779,587.569C156.021,588.74 148.758,589.55 140.446,589.55C96.911,589.55 74.479,562.478 74.479,526.605C74.479,483.615 105.12,459.705 143.231,459.705C150.97,459.705 157.719,460.537 163.136,461.678C166.108,462.31 168.714,464.157 170.328,466.734C171.942,469.348 172.411,472.5 171.652,475.448ZM258.097,587.704L202.919,587.704C196.53,587.704 191.377,582.519 191.377,576.162L191.377,476.074C191.377,468.18 197.785,461.772 205.679,461.772C213.573,461.772 219.981,468.18 219.981,476.074L219.981,563.792L258.099,563.792C264.687,563.792 270.052,569.131 270.052,575.747C270.049,582.361 264.685,587.704 258.097,587.704ZM333.147,589.762C295.764,589.762 273.909,561.546 273.909,525.674C273.909,487.923 298.002,459.713 335.18,459.713C373.869,459.713 394.971,488.683 394.971,523.433C394.971,564.723 369.933,589.762 333.147,589.762ZM444.443,589.556C435.456,589.556 426.546,588.122 419.405,586.063C413.313,584.346 409.691,578.092 411.203,571.943L411.383,571.164C412.135,568.089 414.117,565.483 416.883,563.92C419.617,562.382 422.873,562.018 425.897,562.955C431.989,564.859 439.002,566.213 446.11,566.213C459.188,566.213 466.116,560.796 466.116,552.562C466.116,544.747 460.125,540.267 444.99,534.851C424.069,527.553 410.418,515.961 410.418,497.645C410.418,476.179 428.364,459.717 458.07,459.717C466.51,459.717 473.645,460.782 479.615,462.35C482.477,463.103 484.905,464.983 486.388,467.533C487.874,470.081 488.261,473.155 487.482,476.023L487.27,476.749C485.552,482.951 479.142,486.65 472.917,485.035C468.593,483.89 463.46,483.078 457.52,483.078C445.168,483.078 439.204,488.681 439.204,495.218C439.204,503.276 446.289,506.81 462.546,512.958C484.799,521.193 495.244,532.757 495.244,550.524C495.247,571.633 478.99,589.556 444.443,589.556ZM583.094,587.704L526.61,587.704C519.86,587.704 514.421,582.261 514.421,575.538L514.421,473.938C514.421,467.215 519.865,461.772 526.61,461.772L580.489,461.772C586.921,461.772 592.16,467.009 592.16,473.442C592.16,479.901 586.921,485.138 580.489,485.138L543.021,485.138L543.021,511.296L577.75,511.296C584.166,511.296 589.349,516.458 589.349,522.863C589.349,529.268 584.166,534.455 577.75,534.455L543.021,534.455L543.021,564.339L583.094,564.339C589.527,564.339 594.764,569.578 594.764,576.039C594.764,582.466 589.527,587.704 583.094,587.704ZM704.599,572.751C691.308,583.771 671.145,589.008 646.474,589.008C637.854,589.008 630.713,588.693 624.824,588.249C618.774,587.779 614.147,582.755 614.147,576.682L614.147,473.648C614.147,467.684 618.648,462.702 624.595,462.106C633.035,461.276 642.675,460.856 652.65,460.856C676.565,460.856 692.067,465.13 704.207,474.293C717.285,483.992 725.515,499.513 725.515,521.764C725.513,545.836 716.738,562.484 704.599,572.751Z" style="fill:rgb(225,2,113);fill-rule:nonzero;"/>
                    </g>
                </g>
                <g>
                    <g>
                        <path d="M171.652,475.448L170.791,478.78C169.593,483.47 164.801,486.332 160.086,485.132C155.634,484.04 150.448,483.253 144.537,483.253C121.95,483.253 104.387,496.902 104.387,524.915C104.387,550.159 119.318,566.024 144.743,566.024C148.964,566.024 153.363,565.577 157.456,564.853C163.658,563.759 169.595,567.84 170.792,574.074C171.995,580.278 167.981,586.291 161.779,587.569C156.021,588.74 148.758,589.55 140.446,589.55C96.911,589.55 74.479,562.478 74.479,526.605C74.479,483.615 105.12,459.705 143.231,459.705C150.97,459.705 157.719,460.537 163.136,461.678C166.108,462.31 168.714,464.157 170.328,466.734C171.942,469.348 172.411,472.5 171.652,475.448ZM258.097,587.704L202.919,587.704C196.53,587.704 191.377,582.519 191.377,576.162L191.377,476.074C191.377,468.18 197.785,461.772 205.679,461.772C213.573,461.772 219.981,468.18 219.981,476.074L219.981,563.792L258.099,563.792C264.687,563.792 270.052,569.131 270.052,575.747C270.049,582.361 264.685,587.704 258.097,587.704ZM333.147,589.762C295.764,589.762 273.909,561.546 273.909,525.674C273.909,487.923 298.002,459.713 335.18,459.713C373.869,459.713 394.971,488.683 394.971,523.433C394.971,564.723 369.933,589.762 333.147,589.762ZM334.453,482.324C315.199,482.324 303.999,500.633 303.999,525.103C303.999,549.772 315.565,567.148 334.635,567.148C353.889,567.148 364.91,548.833 364.91,524.371C364.908,501.761 354.068,482.324 334.453,482.324ZM444.443,589.556C435.456,589.556 426.546,588.122 419.405,586.063C413.313,584.346 409.691,578.092 411.203,571.943L411.383,571.164C412.135,568.089 414.117,565.483 416.883,563.92C419.617,562.382 422.873,562.018 425.897,562.955C431.989,564.859 439.002,566.213 446.11,566.213C459.188,566.213 466.116,560.796 466.116,552.562C466.116,544.747 460.125,540.267 444.99,534.851C424.069,527.553 410.418,515.961 410.418,497.645C410.418,476.179 428.364,459.717 458.07,459.717C466.51,459.717 473.645,460.782 479.615,462.35C482.477,463.103 484.905,464.983 486.388,467.533C487.874,470.081 488.261,473.155 487.482,476.023L487.27,476.749C485.552,482.951 479.142,486.65 472.917,485.035C468.593,483.89 463.46,483.078 457.52,483.078C445.168,483.078 439.204,488.681 439.204,495.218C439.204,503.276 446.289,506.81 462.546,512.958C484.799,521.193 495.244,532.757 495.244,550.524C495.247,571.633 478.99,589.556 444.443,589.556ZM583.094,587.704L526.61,587.704C519.86,587.704 514.421,582.261 514.421,575.538L514.421,473.938C514.421,467.215 519.865,461.772 526.61,461.772L580.489,461.772C586.921,461.772 592.16,467.009 592.16,473.442C592.16,479.901 586.921,485.138 580.489,485.138L543.021,485.138L543.021,511.296L577.75,511.296C584.166,511.296 589.349,516.458 589.349,522.863C589.349,529.268 584.166,534.455 577.75,534.455L543.021,534.455L543.021,564.339L583.094,564.339C589.527,564.339 594.764,569.578 594.764,576.039C594.764,582.466 589.527,587.704 583.094,587.704ZM704.599,572.751C691.308,583.771 671.145,589.008 646.474,589.008C637.854,589.008 630.713,588.693 624.824,588.249C618.774,587.779 614.147,582.755 614.147,576.682L614.147,473.648C614.147,467.684 618.648,462.702 624.595,462.106C633.035,461.276 642.675,460.856 652.65,460.856C676.565,460.856 692.067,465.13 704.207,474.293C717.285,483.992 725.515,499.513 725.515,521.764C725.513,545.836 716.738,562.484 704.599,572.751ZM655.623,482.686C649.292,482.686 645.175,483.261 642.754,483.837L642.754,566.211C645.18,566.784 649.084,566.784 652.655,566.784C678.423,566.971 695.249,552.772 695.249,522.678C695.425,496.522 680.107,482.686 655.623,482.686Z" style="fill:white;"/>
                    </g>
                </g>
            </g>
        </g>
    </g>
    <defs>
        <linearGradient id="_Linear1" x1="0" y1="0" x2="1" y2="0" gradientUnits="userSpaceOnUse" gradientTransform="matrix(-6.7469e-13,-283.333,240.833,-5.73486e-13,733.333,34980)"><stop offset="0" style="stop-color:rgb(255,232,63);stop-opacity:1"/><stop offset="1" style="stop-color:rgb(224,147,61);stop-opacity:1"/></linearGradient>
        <linearGradient id="_Linear2" x1="0" y1="0" x2="1" y2="0" gradientUnits="userSpaceOnUse" gradientTransform="matrix(2.09705,-233.333,77.7778,0.699016,444.228,34646.7)"><stop offset="0" style="stop-color:rgb(241,91,102);stop-opacity:1"/><stop offset="1" style="stop-color:rgb(140,45,97);stop-opacity:1"/></linearGradient>
        <linearGradient id="_Linear3" x1="0" y1="0" x2="1" y2="0" gradientUnits="userSpaceOnUse" gradientTransform="matrix(1.61111,-233.333,77.7778,0.537036,454.392,34646.7)"><stop offset="0" style="stop-color:white;stop-opacity:1"/><stop offset="1" style="stop-color:rgb(217,217,217);stop-opacity:1"/></linearGradient>
        <linearGradient id="_Linear4" x1="0" y1="0" x2="1" y2="0" gradientUnits="userSpaceOnUse" gradientTransform="matrix(2.30294,-293.493,660.36,5.18161,633.333,34973.5)"><stop offset="0" style="stop-color:rgb(91,203,245);stop-opacity:1"/><stop offset="1" style="stop-color:rgb(15,123,193);stop-opacity:1"/></linearGradient>
        <linearGradient id="_Linear5" x1="0" y1="0" x2="1" y2="0" gradientUnits="userSpaceOnUse" gradientTransform="matrix(3.51437e-13,-300,300,3.51437e-13,400,34980)"><stop offset="0" style="stop-color:rgb(91,203,245);stop-opacity:1"/><stop offset="1" style="stop-color:rgb(15,123,193);stop-opacity:1"/></linearGradient>
        <linearGradient id="_Linear7" x1="0" y1="0" x2="1" y2="0" gradientUnits="userSpaceOnUse" gradientTransform="matrix(619.975,0,0,792.896,100.437,398.61)"><stop offset="0" style="stop-color:rgb(163,207,98);stop-opacity:1"/><stop offset="1" style="stop-color:rgb(0,174,156);stop-opacity:1"/></linearGradient>
    </defs>
</svg>
