<?xml version="1.0" encoding="UTF-8" standalone="no"?>
<!DOCTYPE svg PUBLIC "-//W3C//DTD SVG 1.1//EN" "http://www.w3.org/Graphics/SVG/1.1/DTD/svg11.dtd">
<svg width="100%" height="100%" viewBox="0 0 601 140" version="1.1" xmlns="http://www.w3.org/2000/svg" xmlns:xlink="http://www.w3.org/1999/xlink" xml:space="preserve" xmlns:serif="http://www.serif.com/" style="fill-rule:evenodd;clip-rule:evenodd;stroke-linejoin:round;stroke-miterlimit:2;">
    <g transform="matrix(1,0,0,1,-202,-7950)">
        <g id="CustomError" transform="matrix(0.585938,0,0,0.182292,202.331,7950)">
            <rect x="0" y="0" width="1024" height="768" style="fill:none;"/>
            <g id="Livello-1" serif:id="Livello 1">
            </g>
            <g id="Gopher" transform="matrix(0.0209183,-0.854123,0.265727,0.0672374,396.84,836.596)">
                <path d="M381.081,363.552C378.301,364.788 373.668,395.058 387.876,396.602C397.452,397.529 423.707,400.618 429.884,396.602C441.931,388.88 440.695,370.347 433.9,365.714C422.471,358.301 384.17,362.008 381.081,363.552Z" style="fill:white;fill-rule:nonzero;"/>
                <path d="M715.598,106.873C739.382,155.985 667.104,161.236 670.811,183.166C677.606,222.703 672.973,281.39 667.722,339.151C658.764,437.066 731.969,671.506 579.382,765.714C550.656,783.629 482.394,793.514 415.058,795.058L414.44,795.058C347.104,793.514 269.575,783.629 240.849,765.714C88.571,671.506 161.776,437.066 153.127,339.151C147.568,281.39 142.934,222.703 150.039,183.166C153.745,161.236 81.467,156.293 105.251,106.873C125.637,64.556 175.985,101.931 188.649,88.649C253.205,21.622 331.66,3.707 393.436,2.162L427.413,2.162C488.88,5.251 567.336,21.931 632.201,88.649C644.865,101.931 694.903,64.556 715.598,106.873ZM381.081,363.552C378.301,364.788 373.668,395.058 387.876,396.602C397.452,397.529 423.707,400.618 429.884,396.602C441.931,388.88 440.695,370.347 433.9,365.714C422.471,358.301 384.17,362.008 381.081,363.552Z" style="fill:url(#_Linear1);fill-rule:nonzero;"/>
                <path d="M410.425,299.614C429.884,296.834 476.525,319.073 473.436,345.328C469.73,375.907 353.282,379.923 347.104,343.475C343.398,321.236 361.004,307.027 410.425,299.614ZM673.282,545.792C663.707,545.483 657.529,532.819 657.529,525.097C657.529,511.197 659.382,494.826 669.575,487.722C690.579,473.205 707.259,546.1 673.282,545.792ZM147.259,545.792C113.282,546.1 129.961,473.205 150.965,487.722C161.158,494.826 163.012,511.197 163.012,525.097C163.012,532.819 156.834,545.483 147.259,545.792ZM608.726,769.73C614.903,778.687 615.212,784.865 605.328,789.498C567.645,806.795 533.977,783.629 546.641,777.143C573.514,763.552 590.193,742.239 608.726,769.73ZM211.815,772.819C230.347,745.328 247.027,766.641 273.9,780.232C286.564,786.718 252.896,809.884 215.212,792.587C205.328,787.954 205.637,781.776 211.815,772.819Z" style="fill:rgb(172,163,155);fill-rule:nonzero;"/>
                <path d="M657.838,114.286C659.382,107.799 675.444,104.71 684.402,115.83C695.212,129.112 668.649,147.336 667.413,139.923C664.324,119.846 655.985,120.772 657.838,114.286ZM162.703,114.286C164.556,120.772 156.216,119.846 153.127,139.923C151.892,147.336 125.328,129.112 136.139,115.83C144.788,104.71 160.849,107.799 162.703,114.286ZM378.61,314.44C382.317,300.232 395.29,295.598 405.792,295.29C432.664,294.672 442.857,309.189 443.784,320.618C445.637,340.077 370.27,344.71 378.61,314.44Z" style="fill:rgb(65,65,65);fill-rule:nonzero;"/>
                <g transform="matrix(6.25276,0,0,1.16718,-2791.43,-97.5174)">
                    <g transform="matrix(1.45248,0,1.90324e-17,7.78115,-53.1959,-43152.4)">
                        <path d="M375.904,5581.68L373.938,5579.72C373.742,5579.52 373.742,5579.2 373.938,5579.01C374.133,5578.82 374.45,5578.82 374.645,5579.01L376.611,5580.98L378.578,5579.01C378.773,5578.82 379.09,5578.82 379.285,5579.01C379.48,5579.2 379.48,5579.52 379.285,5579.72L377.318,5581.68L379.285,5583.65C379.48,5583.85 379.48,5584.16 379.285,5584.36C379.09,5584.55 378.773,5584.55 378.578,5584.36L376.611,5582.39L374.645,5584.36C374.45,5584.55 374.133,5584.55 373.938,5584.36C373.742,5584.16 373.742,5583.85 373.938,5583.65L375.904,5581.68Z" style="fill:rgb(65,65,65);"/>
                    </g>
                    <g transform="matrix(1.45248,0,1.90324e-17,7.78115,-16.702,-43152.4)">
                        <path d="M375.904,5581.68L373.938,5579.72C373.742,5579.52 373.742,5579.2 373.938,5579.01C374.133,5578.82 374.45,5578.82 374.645,5579.01L376.611,5580.98L378.578,5579.01C378.773,5578.82 379.09,5578.82 379.285,5579.01C379.48,5579.2 379.48,5579.52 379.285,5579.72L377.318,5581.68L379.285,5583.65C379.48,5583.85 379.48,5584.16 379.285,5584.36C379.09,5584.55 378.773,5584.55 378.578,5584.36L376.611,5582.39L374.645,5584.36C374.45,5584.55 374.133,5584.55 373.938,5584.36C373.742,5584.16 373.742,5583.85 373.938,5583.65L375.904,5581.68Z" style="fill:rgb(65,65,65);"/>
                    </g>
                </g>
            </g>
            <g transform="matrix(-0.135371,-0.11659,-0.0362725,0.43512,631.529,386.341)">
                <path d="M19.909,453.653C-6.574,427.271 -6.574,384.509 19.909,358.127L336.621,45.439C370.532,11.654 404.416,0.4 449.629,0.4L735.387,0C772.822,0 799.956,30.633 799.953,67.945L799.953,338.07C799.953,353.999 799.953,428.121 766.07,461.906L443.653,780.195C417.172,806.602 374.26,806.602 347.751,780.195L19.909,453.653ZM637.409,125.084C616.702,125.084 599.9,141.889 599.9,162.594C599.9,183.298 616.704,200.103 637.409,200.103C658.114,200.103 674.919,183.274 674.919,162.594C674.919,141.864 658.114,125.084 637.409,125.084Z" style="fill:url(#_Linear2);"/>
                <path d="M637.409,225.114C602.925,225.114 574.892,197.08 574.892,162.596C574.892,128.112 602.925,100.079 637.409,100.079C671.893,100.079 699.927,128.137 699.927,162.596C699.927,197.08 671.893,225.114 637.409,225.114ZM637.409,125.084C616.702,125.084 599.9,141.889 599.9,162.594C599.9,183.298 616.704,200.103 637.409,200.103C658.114,200.103 674.919,183.274 674.919,162.594C674.919,141.864 658.114,125.084 637.409,125.084Z" style="fill:rgb(140,45,97);"/>
                <path d="M452.506,207.185C442.778,197.481 427.073,197.481 417.397,207.185L206.864,417.693C197.16,427.397 197.16,443.102 206.864,452.803C216.567,462.482 232.272,462.482 241.948,452.803L452.509,242.242C462.158,232.59 462.158,216.861 452.506,207.185ZM522.651,277.354C512.948,267.65 497.243,267.65 487.567,277.354L277.033,487.887C267.329,497.591 267.329,513.296 277.033,522.997C286.737,532.676 302.442,532.676 312.118,522.997L522.651,312.436C532.355,302.735 532.355,287.03 522.651,277.354ZM592.846,347.524C583.142,337.845 567.437,337.845 557.761,347.524L347.2,558.057C337.521,567.736 337.521,583.466 347.2,593.117C356.928,602.846 372.609,602.846 382.31,593.117L592.843,382.608C602.549,372.929 602.549,357.227 592.846,347.524Z" style="fill:rgb(241,91,102);fill-rule:nonzero;"/>
            </g>
            <g transform="matrix(1.70667,0,0,5.48571,-345.312,-43611.4)">
                <path d="M514.787,8062.97C513.35,8065.97 513.05,8068.43 502.237,8082.47C500.268,8085.03 498.017,8086.82 496.058,8087.8C494.544,8088.56 493.162,8088.85 492.127,8088.74C491.098,8088.63 490.319,8088.17 489.819,8087.47C489.277,8086.7 489.015,8084.66 489.515,8082.82L489.537,8082.82C490.481,8082.81 491.501,8082.86 492.588,8082.94C492.576,8083.07 492.548,8083.19 492.503,8083.32C492.334,8083.77 492.24,8085.16 492.239,8085.49C492.238,8085.56 492.256,8085.66 492.266,8085.71C492.372,8085.72 492.812,8085.77 493.136,8085.7C495.015,8085.32 497.627,8083.54 499.86,8080.64C511.121,8066.02 510.725,8064.24 512.426,8060.99C512.601,8060.65 512.886,8060.41 513.213,8060.28L514.787,8062.97ZM494.732,8002.51C495.986,7999.82 497.556,7998.4 499.192,7997.82C501.675,7996.93 504.551,7997.94 507.341,8000.27C513.333,8005.25 519.202,8016.19 520.244,8019.7C520.48,8020.5 520.026,8021.33 519.232,8021.57C518.439,8021.8 517.603,8021.35 517.368,8020.56C516.404,8017.3 510.966,8007.19 505.422,8002.57C503.597,8001.05 501.826,8000.06 500.201,8000.64C499.321,8000.95 498.558,8001.72 497.862,8002.97C497.153,8002.9 496.479,8002.81 495.844,8002.7C495.474,8002.63 495.103,8002.57 494.732,8002.51Z" style="fill:rgb(127,127,127);"/>
            </g>
        </g>
    </g>
    <defs>
        <linearGradient id="_Linear1" x1="0" y1="0" x2="1" y2="0" gradientUnits="userSpaceOnUse" gradientTransform="matrix(619.975,0,0,792.896,100.437,398.61)"><stop offset="0" style="stop-color:rgb(15,123,193);stop-opacity:1"/><stop offset="1" style="stop-color:rgb(91,203,245);stop-opacity:1"/></linearGradient>
        <linearGradient id="_Linear2" x1="0" y1="0" x2="1" y2="0" gradientUnits="userSpaceOnUse" gradientTransform="matrix(799.907,0,0,800,0.0466261,400)"><stop offset="0" style="stop-color:rgb(241,91,102);stop-opacity:1"/><stop offset="1" style="stop-color:rgb(140,45,97);stop-opacity:1"/></linearGradient>
    </defs>
</svg>
