<?xml version="1.0" encoding="UTF-8" standalone="no"?>
<!DOCTYPE svg PUBLIC "-//W3C//DTD SVG 1.1//EN" "http://www.w3.org/Graphics/SVG/1.1/DTD/svg11.dtd">
<svg width="100%" height="100%" viewBox="0 0 601 140" version="1.1" xmlns="http://www.w3.org/2000/svg" xmlns:xlink="http://www.w3.org/1999/xlink" xml:space="preserve" xmlns:serif="http://www.serif.com/" style="fill-rule:evenodd;clip-rule:evenodd;stroke-linejoin:round;stroke-miterlimit:2;">
    <g transform="matrix(1,0,0,1,-201,-5890)">
        <g id="Defer" transform="matrix(0.585938,0,0,0.182292,201.763,5890)">
            <rect x="0" y="0" width="1024" height="768" style="fill:none;"/>
            <g id="Gopher" transform="matrix(0.271279,0,0,0.871967,400.661,65.9196)">
                <g>
                    <path d="M381.081,363.552C378.301,364.788 373.668,395.058 387.876,396.602C397.452,397.529 423.707,400.618 429.884,396.602C441.931,388.88 440.695,370.347 433.9,365.714C422.471,358.301 384.17,362.008 381.081,363.552ZM302.625,136.834C270.811,133.127 217.375,162.78 209.344,225.792C200.695,291.274 277.915,356.139 352.046,291.274C391.892,256.371 405.792,148.88 302.625,136.834ZM517.606,136.834C414.44,148.88 428.34,256.371 468.185,291.274C542.317,356.139 619.537,291.274 610.888,225.792C603.166,162.78 549.73,133.127 517.606,136.834Z" style="fill:white;fill-rule:nonzero;"/>
                    <path d="M715.598,106.873C739.382,155.985 667.104,161.236 670.811,183.166C677.606,222.703 672.973,281.39 667.722,339.151C658.764,437.066 731.969,671.506 579.382,765.714C550.656,783.629 482.394,793.514 415.058,795.058L414.44,795.058C347.104,793.514 269.575,783.629 240.849,765.714C88.571,671.506 161.776,437.066 153.127,339.151C147.568,281.39 142.934,222.703 150.039,183.166C153.745,161.236 81.467,156.293 105.251,106.873C125.637,64.556 175.985,101.931 188.649,88.649C253.205,21.622 331.66,3.707 393.436,2.162L427.413,2.162C488.88,5.251 567.336,21.931 632.201,88.649C644.865,101.931 694.903,64.556 715.598,106.873ZM381.081,363.552C378.301,364.788 373.668,395.058 387.876,396.602C397.452,397.529 423.707,400.618 429.884,396.602C441.931,388.88 440.695,370.347 433.9,365.714C422.471,358.301 384.17,362.008 381.081,363.552ZM302.625,136.834C270.811,133.127 217.375,162.78 209.344,225.792C200.695,291.274 277.915,356.139 352.046,291.274C391.892,256.371 405.792,148.88 302.625,136.834ZM517.606,136.834C414.44,148.88 428.34,256.371 468.185,291.274C542.317,356.139 619.537,291.274 610.888,225.792C603.166,162.78 549.73,133.127 517.606,136.834Z" style="fill:url(#_Linear1);fill-rule:nonzero;"/>
                    <g transform="matrix(-0.0805091,-0.40508,0.40508,-0.0805091,376.882,789.728)">
                        <path d="M800,76.191L800,647.619L533.333,723.809L266.667,647.619L0,723.809L0,152.381L266.667,76.191L533.333,152.381L800,76.191Z" style="fill:rgb(242,242,242);fill-rule:nonzero;"/>
                        <path d="M815.233,76.191L815.233,647.619C815.233,654.42 810.724,660.397 804.185,662.265L537.518,738.456C534.782,739.238 531.883,739.238 529.148,738.456L266.667,663.461L4.185,738.456C-0.411,739.769 -5.357,738.849 -9.173,735.97C-12.989,733.092 -15.233,728.589 -15.233,723.809L-15.233,152.381C-15.233,145.58 -10.724,139.603 -4.185,137.735L262.482,61.544C265.218,60.762 268.117,60.762 270.852,61.544L533.333,136.539L795.815,61.544C800.411,60.231 805.357,61.151 809.173,64.03C812.989,66.908 815.233,71.411 815.233,76.191ZM800,76.191L533.333,152.381L266.667,76.191L0,152.381L0,723.809L266.667,647.619L533.333,723.809L800,647.619L800,76.191Z" style="fill:rgb(204,204,204);"/>
                        <path d="M266.667,76.191L266.667,647.619L533.333,723.809L533.333,152.381L266.667,76.191Z" style="fill:rgb(204,204,204);fill-rule:nonzero;"/>
                    </g>
                    <path d="M410.425,299.614C429.884,296.834 476.525,319.073 473.436,345.328C469.73,375.907 353.282,379.923 347.104,343.475C343.398,321.236 361.004,307.027 410.425,299.614ZM632.121,603.865C620.649,603.495 613.248,588.322 613.248,579.07C613.248,562.417 615.468,542.804 627.681,534.292C652.845,516.899 672.829,604.235 632.121,603.865ZM608.726,769.73C614.903,778.687 615.212,784.865 605.328,789.498C567.645,806.795 533.977,783.629 546.641,777.143C573.514,763.552 590.193,742.239 608.726,769.73ZM211.815,772.819C230.347,745.328 247.027,766.641 273.9,780.232C286.564,786.718 252.896,809.884 215.212,792.587C205.328,787.954 205.637,781.776 211.815,772.819Z" style="fill:rgb(172,163,155);fill-rule:nonzero;"/>
                    <path d="M657.838,114.286C659.382,107.799 675.444,104.71 684.402,115.83C695.212,129.112 668.649,147.336 667.413,139.923C664.324,119.846 655.985,120.772 657.838,114.286ZM162.703,114.286C164.556,120.772 156.216,119.846 153.127,139.923C151.892,147.336 125.328,129.112 136.139,115.83C144.788,104.71 160.849,107.799 162.703,114.286ZM524.71,277.293C505.263,277.293 489.498,261.528 489.498,242.08C489.498,222.633 505.263,206.868 524.71,206.868C544.158,206.868 559.923,222.633 559.923,242.08C559.923,261.528 544.158,277.293 524.71,277.293ZM515.444,238.065C521.585,238.065 526.564,233.087 526.564,226.945C526.564,220.804 521.585,215.826 515.444,215.826C509.303,215.826 504.324,220.804 504.324,226.945C504.324,233.087 509.303,238.065 515.444,238.065ZM378.61,314.44C382.317,300.232 395.29,295.598 405.792,295.29C432.664,294.672 442.857,309.189 443.784,320.618C445.637,340.077 370.27,344.71 378.61,314.44ZM302.121,277.293C282.674,277.293 266.909,261.528 266.909,242.08C266.909,222.633 282.674,206.868 302.121,206.868C321.569,206.868 337.334,222.633 337.334,242.08C337.334,261.528 321.569,277.293 302.121,277.293ZM311.388,238.065C317.529,238.065 322.507,233.087 322.507,226.945C322.507,220.804 317.529,215.826 311.388,215.826C305.246,215.826 300.268,220.804 300.268,226.945C300.268,233.087 305.246,238.065 311.388,238.065Z" style="fill:rgb(65,65,65);fill-rule:nonzero;"/>
                    <g id="g41846" transform="matrix(-0.288949,0,0,0.288949,384.259,291.844)">
                        <path id="path2960" d="M127.082,840.799L170.125,655.277L521.033,165.219C548.113,134.973 589.144,142.387 618.456,164.446C647.806,186.534 666.746,224.074 647.002,257.123C635.44,272.713 313.817,706.344 291.276,736.735L127.082,840.799Z" style="fill:rgb(196,160,0);"/>
                        <path id="path2964" d="M439.085,289.426C439.085,289.426 477.685,275.121 513.302,301.598C549.996,328.875 558.211,371.818 558.211,371.818L646.022,247.812C646.022,247.812 668.509,207.56 614.841,164.974C561.905,122.97 526.091,165.786 526.091,165.786L439.085,289.426Z" style="fill:url(#_Linear2);"/>
                        <path id="path2962" d="M439.085,289.426C439.085,289.426 477.685,275.121 513.302,301.598C549.996,328.875 558.211,371.818 558.211,371.818L592.802,322.031C592.802,322.031 591.8,277.51 552.998,248.431C513.129,218.553 473.676,239.64 473.676,239.64L439.085,289.426Z" style="fill:url(#_Linear3);"/>
                        <path id="path2982" d="M134.554,829.275L174.344,657.774C226.704,661.74 269.54,688.142 285.496,734.191L134.554,829.275Z" style="fill:url(#_Radial4);"/>
                        <path id="path2992" d="M145.379,776.411L130.482,837.516L185.548,801.89C179.029,780.335 162.757,775.991 145.379,776.411Z" style="fill:rgb(32,32,32);"/>
                        <path id="path3002" d="M173.815,656.948L235.182,671.75L507.655,298.62C481.738,281.179 457.343,284.446 438.994,290.118L173.815,656.948Z" style="fill:white;fill-opacity:0.36;"/>
                        <path id="path3004" d="M286.553,735.843L278.701,713.827L550.347,347.52C550.347,347.52 557.885,365.027 557.458,369.85L286.553,735.843Z" style="fill-opacity:0.36;"/>
                    </g>
                    <g transform="matrix(1.23672,-0.714018,0.715747,1.23971,-296.65,-78.4394)">
                        <path d="M147.259,545.792C113.282,546.1 129.961,473.205 150.965,487.722C161.158,494.826 163.012,511.197 163.012,525.097C163.012,532.819 156.834,545.483 147.259,545.792Z" style="fill:rgb(172,163,155);fill-rule:nonzero;"/>
                    </g>
                </g>
            </g>
        </g>
    </g>
    <defs>
        <linearGradient id="_Linear1" x1="0" y1="0" x2="1" y2="0" gradientUnits="userSpaceOnUse" gradientTransform="matrix(619.975,0,0,792.896,100.437,398.61)"><stop offset="0" style="stop-color:rgb(15,123,193);stop-opacity:1"/><stop offset="1" style="stop-color:rgb(91,203,245);stop-opacity:1"/></linearGradient>
        <linearGradient id="_Linear2" x1="0" y1="0" x2="1" y2="0" gradientUnits="userSpaceOnUse" gradientTransform="matrix(136.023,104.549,-104.549,136.023,521.056,162.781)"><stop offset="0" style="stop-color:rgb(239,41,41);stop-opacity:1"/><stop offset="0.5" style="stop-color:rgb(204,0,0);stop-opacity:1"/><stop offset="1" style="stop-color:rgb(164,0,0);stop-opacity:1"/></linearGradient>
        <linearGradient id="_Linear3" x1="0" y1="0" x2="1" y2="0" gradientUnits="userSpaceOnUse" gradientTransform="matrix(91.0024,54.6479,-54.6479,91.0024,487.413,261.119)"><stop offset="0" style="stop-color:rgb(238,238,236);stop-opacity:1"/><stop offset="1" style="stop-color:rgb(186,189,182);stop-opacity:1"/></linearGradient>
        <radialGradient id="_Radial4" cx="0" cy="0" r="1" gradientUnits="userSpaceOnUse" gradientTransform="matrix(243.969,-110.624,111.214,173.895,193.177,681.205)"><stop offset="0" style="stop-color:rgb(233,185,110);stop-opacity:1"/><stop offset="1" style="stop-color:rgb(233,185,110);stop-opacity:0"/></radialGradient>
    </defs>
</svg>
