<?xml version="1.0" encoding="UTF-8" standalone="no"?>
<!DOCTYPE svg PUBLIC "-//W3C//DTD SVG 1.1//EN" "http://www.w3.org/Graphics/SVG/1.1/DTD/svg11.dtd">
<svg width="100%" height="100%" viewBox="0 0 1000 140" version="1.1" xmlns="http://www.w3.org/2000/svg" xmlns:xlink="http://www.w3.org/1999/xlink" xml:space="preserve" xmlns:serif="http://www.serif.com/" style="fill-rule:evenodd;clip-rule:evenodd;stroke-linejoin:round;stroke-miterlimit:2;">
    <g transform="matrix(1,0,0,1,0,-790)">
        <g id="Efficiency" transform="matrix(0.976563,0,0,0.182292,0,790)">
            <rect x="0" y="0" width="1024" height="768" style="fill:none;"/>
            <g transform="matrix(1,0,0,1,-172.704,-9.09495e-13)">
                <g id="Gopher" transform="matrix(0.139388,0,0,0.746724,627.496,84.9222)">
                    <path d="M715.598,106.873C739.382,155.985 667.104,161.236 670.811,183.166C677.606,222.703 672.973,281.39 667.722,339.151C658.764,437.066 731.969,671.506 579.382,765.714C550.656,783.629 482.394,793.514 415.058,795.058L414.44,795.058C347.104,793.514 269.575,783.629 240.849,765.714C88.571,671.506 161.776,437.066 153.127,339.151C147.568,281.39 142.934,222.703 150.039,183.166C153.745,161.236 81.467,156.293 105.251,106.873C125.637,64.556 175.985,101.931 188.649,88.649C253.205,21.622 331.66,3.707 393.436,2.162L427.413,2.162C488.88,5.251 567.336,21.931 632.201,88.649C644.865,101.931 694.903,64.556 715.598,106.873ZM381.081,363.552C378.301,364.788 373.668,395.058 387.876,396.602C397.452,397.529 423.707,400.618 429.884,396.602C441.931,388.88 440.695,370.347 433.9,365.714C422.471,358.301 384.17,362.008 381.081,363.552ZM302.625,136.834C270.811,133.127 217.375,162.78 209.344,225.792C200.695,291.274 277.915,356.139 352.046,291.274C391.892,256.371 405.792,148.88 302.625,136.834ZM517.606,136.834C414.44,148.88 428.34,256.371 468.185,291.274C542.317,356.139 619.537,291.274 610.888,225.792C603.166,162.78 549.73,133.127 517.606,136.834Z" style="fill:url(#_Linear1);fill-rule:nonzero;"/>
                    <path d="M381.081,392.938C378.301,394.173 373.668,424.443 387.876,425.988C397.452,426.914 423.707,430.003 429.884,425.988C441.931,418.266 440.695,399.733 433.9,395.1C422.471,387.687 384.17,391.393 381.081,392.938ZM302.625,136.834C270.811,133.127 217.375,162.78 209.344,225.792C200.695,291.274 277.915,356.139 352.046,291.274C391.892,256.371 405.792,148.88 302.625,136.834ZM517.606,136.834C414.44,148.88 428.34,256.371 468.185,291.274C542.317,356.139 619.537,291.274 610.888,225.792C603.166,162.78 549.73,133.127 517.606,136.834Z" style="fill:white;fill-rule:nonzero;"/>
                    <path d="M410.425,328.999C429.884,326.219 476.525,348.459 473.436,374.714C469.73,405.293 353.282,409.308 347.104,372.86C343.398,350.621 361.004,336.413 410.425,328.999ZM673.282,545.792C663.707,545.483 657.529,532.819 657.529,525.097C657.529,511.197 659.382,494.826 669.575,487.722C690.579,473.205 707.259,546.1 673.282,545.792ZM147.259,545.792C113.282,546.1 129.961,473.205 150.965,487.722C161.158,494.826 163.012,511.197 163.012,525.097C163.012,532.819 156.834,545.483 147.259,545.792ZM608.726,769.73C614.903,778.687 615.212,784.865 605.328,789.498C567.645,806.795 533.977,783.629 546.641,777.143C573.514,763.552 590.193,742.239 608.726,769.73ZM211.815,772.819C230.347,745.328 247.027,766.641 273.9,780.232C286.564,786.718 252.896,809.884 215.212,792.587C205.328,787.954 205.637,781.776 211.815,772.819Z" style="fill:rgb(172,163,155);fill-rule:nonzero;"/>
                    <path d="M657.838,114.286C659.382,107.799 675.444,104.71 684.402,115.83C695.212,129.112 668.649,147.336 667.413,139.923C664.324,119.846 655.985,120.772 657.838,114.286ZM162.703,114.286C164.556,120.772 156.216,119.846 153.127,139.923C151.892,147.336 125.328,129.112 136.139,115.83C144.788,104.71 160.849,107.799 162.703,114.286ZM524.71,264.71C505.263,264.71 489.498,248.945 489.498,229.498C489.498,210.051 505.263,194.286 524.71,194.286C544.158,194.286 559.923,210.051 559.923,229.498C559.923,248.945 544.158,264.71 524.71,264.71ZM515.444,225.483C521.585,225.483 526.564,220.504 526.564,214.363C526.564,208.222 521.585,203.243 515.444,203.243C509.303,203.243 504.324,208.222 504.324,214.363C504.324,220.504 509.303,225.483 515.444,225.483ZM378.61,343.826C382.317,329.617 395.29,324.984 405.792,324.675C432.664,324.057 442.857,338.575 443.784,350.003C445.637,369.463 370.27,374.096 378.61,343.826ZM295.83,264.71C276.383,264.71 260.618,248.945 260.618,229.498C260.618,210.051 276.383,194.286 295.83,194.286C315.277,194.286 331.042,210.051 331.042,229.498C331.042,248.945 315.277,264.71 295.83,264.71ZM305.097,225.483C311.238,225.483 316.216,220.504 316.216,214.363C316.216,208.222 311.238,203.243 305.097,203.243C298.955,203.243 293.977,208.222 293.977,214.363C293.977,220.504 298.955,225.483 305.097,225.483Z" style="fill:rgb(65,65,65);fill-rule:nonzero;"/>
                </g>
                <g transform="matrix(0.139388,0,0,0.746724,627.496,84.9222)">
                    <path d="M144.933,485.823C148.681,427.805 156.255,374.554 153.127,339.151C147.568,281.39 142.934,222.703 150.039,183.166C153.745,161.236 81.467,156.293 105.251,106.873C125.637,64.556 175.985,101.931 188.649,88.649C253.205,21.622 331.66,3.707 393.436,2.162L427.413,2.162C488.88,5.251 567.336,21.931 632.201,88.649C644.865,101.931 694.903,64.556 715.598,106.873C739.382,155.985 667.104,161.236 670.811,183.166C677.606,222.703 672.973,281.39 667.722,339.151C664.483,374.554 671.986,427.808 675.673,485.827C692.516,486.933 702.817,540.338 677.545,545.407C676.847,625.8 660.387,706.866 592.696,756.731C598.08,757.851 603.324,761.718 608.726,769.73C614.903,778.687 615.212,784.865 605.328,789.498C571.51,805.021 540.926,787.956 544.161,779.604C509.981,788.788 462.292,793.975 415.058,795.058L414.44,795.058C362.445,793.865 304.373,787.7 267.385,776.705C269.49,777.912 271.66,779.099 273.9,780.232C286.564,786.718 252.896,809.884 215.212,792.587C205.328,787.954 205.637,781.776 211.815,772.819C218.384,763.073 224.721,759.461 231.362,759.464C160.625,709.864 143.638,627.287 143.003,545.409C117.689,540.342 128.049,486.794 144.933,485.823ZM516.077,123.58L516.059,123.582C480.577,127.726 457.422,142.205 443.277,160.843C426.651,182.75 422.365,210.952 426.619,237.282C430.83,263.352 443.448,287.341 459.397,301.312C493.367,331.036 528.101,336.277 556.681,327.909C600.18,315.173 630.115,269.796 624.125,224.125C615.262,151.989 552.86,119.336 516.077,123.58ZM304.171,123.582C267.744,119.338 205.304,151.958 196.109,224.105C190.081,269.742 220.026,315.165 263.551,327.909C292.13,336.277 326.865,331.036 360.835,301.312C376.784,287.341 389.402,263.352 393.613,237.282C397.866,210.952 393.581,182.75 376.955,160.843C362.81,142.205 339.653,127.725 304.171,123.582ZM410.116,317.062C337.668,317.062 278.849,345.894 278.849,381.407C278.849,416.92 337.668,445.752 410.116,445.752C482.564,445.752 541.383,416.92 541.383,381.407C541.383,345.894 482.564,317.062 410.116,317.062Z" style="fill:rgb(229,38,22);"/>
                </g>
                <g transform="matrix(0.0206418,0,0,0.0206418,672.571,523.39)">
                    <g transform="matrix(1.024,0,0,5.48571,3.63798e-15,-6473.14)">
                        <path d="M574,729.518C270.085,729.518 23.015,976.587 23.015,1280.5C23.015,1584.42 270.085,1831.49 574,1831.49C877.915,1831.49 1124.99,1584.42 1124.99,1280.5C1124.99,976.865 877.915,729.518 574,729.518Z" style="fill:white;fill-rule:nonzero;"/>
                    </g>
                    <g transform="matrix(1.024,0,0,5.48571,3.63798e-15,-6473.14)">
                        <path d="M574,1854.78C257.329,1854.78 0,1597.17 0,1280.78C0,964.386 257.607,706.78 574,706.78C890.671,706.78 1148,964.386 1148,1280.78C1148,1597.17 890.671,1854.78 574,1854.78ZM574,729.518C270.085,729.518 23.015,976.587 23.015,1280.5C23.015,1584.42 270.085,1831.49 574,1831.49C877.915,1831.49 1124.99,1584.42 1124.99,1280.5C1124.99,976.865 877.915,729.518 574,729.518Z" style="fill-rule:nonzero;"/>
                    </g>
                    <g transform="matrix(1.024,0,0,5.48571,3.63798e-15,-6473.14)">
                        <path d="M936.147,565.359L708.488,992.116L685.75,1034.82L733.167,1025.67L830.775,1006.81L627.241,1332.08L601.175,1373.67L649.701,1367.3L716.807,1358.42L196.879,1942.96L402.355,1565.28L423.984,1525.63L379.339,1531.45L294.21,1542.27L502.458,1197.59L529.078,1153.78L478.611,1163.21L412.892,1175.41L936.147,565.359ZM1054.83,391.773L352.719,1209.79L482.77,1185.67L249.843,1571.38L382.389,1554.47L80.693,2108.23L775.316,1327.09L646.651,1344L878.192,973.814L728.73,1002.93L1054.83,391.773Z" style="fill-rule:nonzero;"/>
                    </g>
                    <g transform="matrix(1.024,0,0,5.48571,3.63798e-15,-6473.14)">
                        <path d="M936.147,565.359L708.488,992.116L685.75,1034.82L733.167,1025.67L830.775,1006.81L627.241,1332.08L601.175,1373.67L649.701,1367.3L716.807,1358.42L196.879,1942.96L402.355,1565.28L423.984,1525.63L379.339,1531.45L294.21,1542.27L502.458,1197.59L529.078,1153.78L478.611,1163.21L412.892,1175.41L936.147,565.359Z" style="fill:rgb(255,242,0);fill-rule:nonzero;"/>
                    </g>
                    <g transform="matrix(1.024,0,0,5.48571,3.63798e-15,-6473.14)">
                        <path d="M886.511,1778.25L898.712,1778.25L898.712,1779.91L893.721,1779.91L893.721,1793.22L891.78,1793.22L891.78,1779.91L886.788,1779.91L886.788,1778.25L886.511,1778.25ZM912.854,1793.22L912.854,1780.47L908.695,1793.22L906.754,1793.22L902.594,1780.74L902.594,1793.22L900.653,1793.22L900.653,1778.25L903.426,1778.25L907.586,1791L911.745,1778.25L914.518,1778.25L914.518,1793.22L912.854,1793.22Z" style="fill-rule:nonzero;"/>
                    </g>
                </g>
            </g>
        </g>
    </g>
    <defs>
        <linearGradient id="_Linear1" x1="0" y1="0" x2="1" y2="0" gradientUnits="userSpaceOnUse" gradientTransform="matrix(619.975,0,0,792.896,100.437,398.61)"><stop offset="0" style="stop-color:rgb(15,123,193);stop-opacity:1"/><stop offset="1" style="stop-color:rgb(91,203,245);stop-opacity:1"/></linearGradient>
    </defs>
</svg>
