<?xml version="1.0" encoding="UTF-8" standalone="no"?>
<!DOCTYPE svg PUBLIC "-//W3C//DTD SVG 1.1//EN" "http://www.w3.org/Graphics/SVG/1.1/DTD/svg11.dtd">
<svg width="100%" height="100%" viewBox="0 0 601 140" version="1.1" xmlns="http://www.w3.org/2000/svg" xmlns:xlink="http://www.w3.org/1999/xlink" xml:space="preserve" xmlns:serif="http://www.serif.com/" style="fill-rule:evenodd;clip-rule:evenodd;stroke-linejoin:round;stroke-miterlimit:2;">
    <g transform="matrix(1,0,0,1,-201,-6910)">
        <g id="Embed" transform="matrix(0.585938,0,0,0.182292,201.763,6910)">
            <rect x="0" y="0" width="1024" height="768" style="fill:none;"/>
            <g transform="matrix(1.01216,0,0,1.01216,21.854,0.397147)">
                <g transform="matrix(0.0386561,0,0,0.124252,269.904,65.9608)">
                    <path d="M3854,649C3915,635 3952,638 3989,661C4052,699 4124,765 4137,796C4147,821 4136,973 4069,1659C4025,2117 3982,2513 3974,2539C3965,2569 3963,2588 3970,2590C3976,2592 4003,2609 4030,2627C4105,2678 5325,3645 5355,3678C5377,3702 5381,3716 5380,3771C5379,3890 5354,4039 5330,4075C5315,4098 5231,4156 5082,4248C4958,4325 4826,4407 4790,4430L4724,4471L4760,4516C4842,4618 4854,4701 4796,4777C4753,4833 4356,5112 4274,5144C4148,5193 4023,5164 3913,5060L3857,5007L3453,5257C3231,5395 3032,5513 3009,5521C2959,5537 2892,5529 2833,5499C2786,5475 2740,5432 2007,4713C1751,4461 1535,4243 1527,4227C1519,4212 1495,4099 1473,3977C1440,3788 1436,3748 1445,3703C1456,3653 1455,3650 1429,3637C1380,3611 1282,3493 1232,3400C1214,3365 1213,3324 1213,2450C1213,1714 1215,1529 1227,1497C1257,1410 1324,1363 1475,1321C1521,1308 2067,1154 2688,978C3309,802 3833,654 3854,649ZM4578,4621C4559,4587 4539,4582 4510,4602C4498,4610 4388,4679 4264,4755L4039,4895L4068,4919C4133,4975 4172,4963 4298,4851C4346,4808 4410,4764 4451,4745C4594,4678 4604,4668 4578,4621Z" style="fill:rgb(5,5,5);"/>
                </g>
                <g transform="matrix(0.0386561,0,0,0.124252,269.904,65.9608)">
                    <path d="M3976,3030C3924,3002 3888,3008 3769,3062C3244,3297 1764,3974 1764,3979C1764,3982 2013,4223 2318,4513C2916,5083 2936,5100 3024,5085C3072,5077 3086,5069 4198,4419C4667,4144 5049,3917 5048,3913C5043,3899 4009,3048 3976,3030Z" style="fill:rgb(242,13,13);"/>
                </g>
                <g transform="matrix(0.0386561,0,0,0.124252,269.904,65.9608)">
                    <path d="M3992,724C3954,697 3905,688 3859,701C3530,789 1392,1402 1364,1416C1312,1443 1285,1479 1271,1542C1264,1578 1260,1881 1260,2458C1261,3389 1259,3358 1317,3440C1388,3540 1381,3631 1378,2580C1376,1934 1379,1622 1386,1593C1401,1539 1449,1485 1502,1464C1525,1455 2081,1296 2738,1111C3395,927 3953,769 3979,762L4026,748L3992,724Z" style="fill:rgb(243,193,5);"/>
                </g>
                <g transform="matrix(0.0386561,0,0,0.124252,269.904,65.9608)">
                    <path d="M4089,826C4085,811 4073,806 4039,806C3986,806 3969,820 3969,862C3969,879 3936,1230 3895,1643C3842,2191 3817,2404 3805,2430C3795,2451 3769,2477 3745,2491C3721,2505 3193,2734 2573,3000C1516,3453 1444,3485 1440,3511C1435,3550 1465,3589 1499,3589C1515,3589 1747,3496 2016,3383C2284,3269 2660,3111 2851,3030C3949,2567 3917,2583 3930,2507C3946,2422 4095,844 4089,826Z" style="fill:rgb(65,65,65);"/>
                </g>
                <g transform="matrix(0.0386561,0,0,0.124252,269.904,65.9608)">
                    <path d="M4664,4489C4604,4428 4566,4414 4538,4442C4517,4462 4523,4475 4583,4544C4679,4655 4662,4701 4502,4778C4434,4811 4379,4848 4323,4897C4162,5039 4120,5042 3991,4917C3952,4880 3913,4849 3905,4849C3883,4849 3843,4879 3843,4896C3843,4921 3977,5054 4033,5085C4104,5123 4191,5127 4263,5094C4330,5063 4717,4793 4750,4754C4770,4730 4778,4710 4778,4676C4778,4623 4750,4577 4664,4489Z" style="fill:rgb(32,32,32);"/>
                </g>
                <g transform="matrix(0.0386561,0,0,0.124252,269.904,65.9608)">
                    <path d="M2337,4603C2058,4337 1755,4048 1663,3960L1495,3801L1529,3994C1557,4154 1567,4194 1589,4223C1604,4242 1883,4520 2209,4840C2818,5436 2868,5479 2944,5479C2962,5479 2996,5470 3019,5459C3048,5446 3779,4999 3820,4969C3821,4968 3814,4953 3804,4935C3780,4893 3794,4853 3842,4820C3890,4788 3938,4789 3969,4823C3983,4837 3998,4849 4004,4849C4016,4849 4470,4570 4493,4549C4506,4537 4506,4532 4491,4515C4464,4485 4469,4442 4504,4407C4544,4367 4604,4365 4650,4403C4667,4417 4683,4429 4686,4429C4697,4429 5255,4080 5278,4060C5296,4043 5303,4017 5314,3935C5321,3877 5325,3829 5323,3827C5320,3825 4839,4104 4253,4447C3666,4790 3158,5085 3124,5104C3042,5146 2968,5149 2895,5112C2860,5094 2684,4934 2337,4603Z" style="fill:rgb(243,193,5);"/>
                </g>
                <g transform="matrix(0.0386561,0,0,0.124252,269.904,65.9608)">
                    <path d="M3944,872C3949,838 3947,828 3936,829C3924,830 2976,1096 1775,1437C1524,1507 1487,1523 1455,1566C1433,1595 1433,1605 1430,2525C1428,3410 1429,3455 1446,3450C1490,3438 3711,2482 3741,2461C3763,2447 3779,2424 3787,2397C3794,2374 3831,2032 3869,1636C3907,1240 3941,897 3944,872Z" style="fill:rgb(65,65,65);"/>
                </g>
                <g transform="matrix(0.0386561,0,0,0.124252,269.904,65.9608)">
                    <path d="M3983,2656C3954,2641 3911,2642 3864,2659C3820,2675 1653,3603 1587,3634C1527,3662 1508,3692 1523,3732C1529,3748 1579,3806 1633,3859L1732,3957L1766,3942C1785,3934 2254,3721 2809,3468C3363,3215 3839,3002 3867,2994C3906,2982 3924,2981 3953,2991C3999,3006 3996,3003 4587,3492C4911,3761 5080,3894 5092,3891C5096.12,3889.82 5102.31,3887.2 5110.02,3883.47C5167.85,3855.5 5311.71,3765 5317,3750C5321,3741 5317,3723 5309,3710C5294,3687 4025,2679 3983,2656Z" style="fill:rgb(32,32,32);"/>
                </g>
                <g transform="matrix(0.0386561,0,0,0.124252,269.904,65.9608)">
                    <path d="M3976,3030C3924,3002 3888,3008 3769,3062C3244,3297 1764,3974 1764,3979C1764,3982 2013,4223 2318,4513C2916,5083 2936,5100 3024,5085C3072,5077 3086,5069 4198,4419C4667,4144 5049,3917 5048,3913C5043,3899 4009,3048 3976,3030Z" style="fill:rgb(65,65,65);"/>
                </g>
            </g>
            <g id="Gopher" transform="matrix(0.264184,0,0,0.849162,491.178,73.6218)">
                <path d="M381.081,363.552C378.301,364.788 373.668,395.058 387.876,396.602C397.452,397.529 423.707,400.618 429.884,396.602C441.931,388.88 440.695,370.347 433.9,365.714C422.471,358.301 384.17,362.008 381.081,363.552ZM302.625,136.834C270.811,133.127 217.375,162.78 209.344,225.792C200.695,291.274 277.915,356.139 352.046,291.274C391.892,256.371 405.792,148.88 302.625,136.834ZM517.606,136.834C414.44,148.88 428.34,256.371 468.185,291.274C542.317,356.139 619.537,291.274 610.888,225.792C603.166,162.78 549.73,133.127 517.606,136.834Z" style="fill:white;fill-rule:nonzero;"/>
                <path d="M715.598,106.873C739.382,155.985 667.104,161.236 670.811,183.166C677.606,222.703 672.973,281.39 667.722,339.151C658.764,437.066 731.969,671.506 579.382,765.714C550.656,783.629 482.394,793.514 415.058,795.058L414.44,795.058C347.104,793.514 269.575,783.629 240.849,765.714C88.571,671.506 161.776,437.066 153.127,339.151C147.568,281.39 142.934,222.703 150.039,183.166C153.745,161.236 81.467,156.293 105.251,106.873C125.637,64.556 175.985,101.931 188.649,88.649C253.205,21.622 331.66,3.707 393.436,2.162L427.413,2.162C488.88,5.251 567.336,21.931 632.201,88.649C644.865,101.931 694.903,64.556 715.598,106.873ZM381.081,363.552C378.301,364.788 373.668,395.058 387.876,396.602C397.452,397.529 423.707,400.618 429.884,396.602C441.931,388.88 440.695,370.347 433.9,365.714C422.471,358.301 384.17,362.008 381.081,363.552ZM302.625,136.834C270.811,133.127 217.375,162.78 209.344,225.792C200.695,291.274 277.915,356.139 352.046,291.274C391.892,256.371 405.792,148.88 302.625,136.834ZM517.606,136.834C414.44,148.88 428.34,256.371 468.185,291.274C542.317,356.139 619.537,291.274 610.888,225.792C603.166,162.78 549.73,133.127 517.606,136.834Z" style="fill:url(#_Linear1);fill-rule:nonzero;"/>
                <path d="M410.425,299.614C429.884,296.834 476.525,319.073 473.436,345.328C469.73,375.907 353.282,379.923 347.104,343.475C343.398,321.236 361.004,307.027 410.425,299.614ZM608.726,769.73C614.903,778.687 615.212,784.865 605.328,789.498C567.645,806.795 533.977,783.629 546.641,777.143C573.514,763.552 590.193,742.239 608.726,769.73ZM211.815,772.819C230.347,745.328 247.027,766.641 273.9,780.232C286.564,786.718 252.896,809.884 215.212,792.587C205.328,787.954 205.637,781.776 211.815,772.819Z" style="fill:rgb(172,163,155);fill-rule:nonzero;"/>
                <path d="M657.838,114.286C659.382,107.799 675.444,104.71 684.402,115.83C695.212,129.112 668.649,147.336 667.413,139.923C664.324,119.846 655.985,120.772 657.838,114.286ZM162.703,114.286C164.556,120.772 156.216,119.846 153.127,139.923C151.892,147.336 125.328,129.112 136.139,115.83C144.788,104.71 160.849,107.799 162.703,114.286ZM524.71,264.71C505.263,264.71 489.498,248.945 489.498,229.498C489.498,210.051 505.263,194.286 524.71,194.286C544.158,194.286 559.923,210.051 559.923,229.498C559.923,248.945 544.158,264.71 524.71,264.71ZM515.444,225.483C521.585,225.483 526.564,220.504 526.564,214.363C526.564,208.222 521.585,203.243 515.444,203.243C509.303,203.243 504.324,208.222 504.324,214.363C504.324,220.504 509.303,225.483 515.444,225.483ZM378.61,314.44C382.317,300.232 395.29,295.598 405.792,295.29C432.664,294.672 442.857,309.189 443.784,320.618C445.637,340.077 370.27,344.71 378.61,314.44ZM295.83,264.71C276.383,264.71 260.618,248.945 260.618,229.498C260.618,210.051 276.383,194.286 295.83,194.286C315.277,194.286 331.042,210.051 331.042,229.498C331.042,248.945 315.277,264.71 295.83,264.71ZM305.097,225.483C311.238,225.483 316.216,220.504 316.216,214.363C316.216,208.222 311.238,203.243 305.097,203.243C298.955,203.243 293.977,208.222 293.977,214.363C293.977,220.504 298.955,225.483 305.097,225.483Z" style="fill:rgb(65,65,65);fill-rule:nonzero;"/>
            </g>
            <g transform="matrix(0.142384,0,0,0.457664,535.188,406.436)">
                <path d="M799.004,159.279C797.358,154.661 793.934,150.863 789.472,148.795L636.95,78.385C604.506,67.394 571.453,58.713 538.078,52.368C536.903,52.138 535.734,52.027 534.58,52.027C526.318,52.027 518.92,57.73 517.079,66.095C504.892,119.749 457.397,159.918 399.997,159.918C342.6,159.918 295.102,119.751 282.918,66.095C281.055,57.73 273.671,52.027 265.414,52.027C264.261,52.027 263.092,52.138 261.917,52.368C228.544,58.713 195.491,67.394 162.996,78.385L10.528,148.792C6.039,150.86 2.591,154.658 1.023,159.277C-0.598,163.949 -0.306,168.992 1.979,173.399L68.193,304.073C71.293,310.275 77.597,313.997 84.267,313.997C85.989,313.997 87.735,313.748 89.457,313.231L162.999,291.434L162.999,729.893C162.999,739.85 171.123,747.971 181.106,747.971L618.896,747.971C628.853,747.971 636.952,739.847 636.952,729.893L636.952,291.44L710.546,313.237C712.268,313.754 714.011,314.003 715.73,314.003C722.387,314.003 728.667,310.281 731.81,304.079L798.048,173.405C800.279,168.995 800.598,163.952 799.004,159.279Z" style="fill:rgb(122,59,139);fill-rule:nonzero;"/>
            </g>
            <g transform="matrix(0.182886,0.851899,-0.265035,0.587847,662.359,25.3861)">
                <path d="M147.259,545.792C113.282,546.1 129.961,473.205 150.965,487.722C161.158,494.826 163.012,511.197 163.012,525.097C163.012,532.819 156.834,545.483 147.259,545.792Z" style="fill:rgb(172,163,155);fill-rule:nonzero;"/>
            </g>
            <g transform="matrix(0.160098,-0.891317,0.277299,0.514602,387.389,797.946)">
                <path d="M673.282,545.792C663.707,545.483 657.529,532.819 657.529,525.097C657.529,511.197 659.382,494.826 669.575,487.722C690.579,473.205 707.259,546.1 673.282,545.792Z" style="fill:rgb(172,163,155);fill-rule:nonzero;"/>
            </g>
        </g>
    </g>
    <defs>
        <linearGradient id="_Linear1" x1="0" y1="0" x2="1" y2="0" gradientUnits="userSpaceOnUse" gradientTransform="matrix(619.975,0,0,792.896,100.437,398.61)"><stop offset="0" style="stop-color:rgb(15,123,193);stop-opacity:1"/><stop offset="1" style="stop-color:rgb(91,203,245);stop-opacity:1"/></linearGradient>
    </defs>
</svg>
