<?xml version="1.0" encoding="UTF-8" standalone="no"?>
<!DOCTYPE svg PUBLIC "-//W3C//DTD SVG 1.1//EN" "http://www.w3.org/Graphics/SVG/1.1/DTD/svg11.dtd">
<svg width="100%" height="100%" viewBox="0 0 601 140" version="1.1" xmlns="http://www.w3.org/2000/svg" xmlns:xlink="http://www.w3.org/1999/xlink" xml:space="preserve" xmlns:serif="http://www.serif.com/" style="fill-rule:evenodd;clip-rule:evenodd;stroke-linejoin:round;stroke-miterlimit:2;">
    <g transform="matrix(1,0,0,1,-199,-4190)">
        <g id="Functions" transform="matrix(0.585938,0,0,0.182292,199.298,4190)">
            <rect x="0" y="0" width="1024" height="768" style="fill:none;"/>
            <g transform="matrix(1.66667,0,0,1,-338.909,0)">
                <g transform="matrix(0.798051,0,0,4.27527,25.3398,-17810)">
                    <g>
                        <g id="path2502" transform="matrix(0.2877,0,0,0.2877,516.775,4157.63)">
                            <path d="M339.995,255.465C340.278,260.893 342.006,266.701 347.106,269.446C348.178,270.023 349.332,270.438 350.515,270.717C352.322,271.143 354.191,271.262 356.042,271.196C359.034,271.091 362.443,271.129 365.289,270.033C366.274,269.654 366.846,268.779 367.78,268.368C369.432,267.642 371.004,266.748 372.67,266.048C375.969,264.662 379.486,263.692 383.079,263.595C390.254,263.401 398.136,265.25 402.853,271.068C406.51,275.579 407.403,282.082 403.975,286.99C403.2,288.099 402.243,289.076 401.167,289.896C397.696,292.538 393.212,293.465 388.926,293.465C386.675,293.465 384.339,292.768 382.202,292.134C378.174,290.939 373.97,289.33 370.634,286.692C369.741,285.986 368.59,285.613 367.499,285.343C365.305,284.8 363.004,284.674 360.752,284.764C354.382,285.021 346.274,287.299 343.735,293.879C343.402,294.741 343.184,295.645 343.073,296.562C342.89,298.069 342.994,299.601 343.281,301.089C344.055,305.105 345.581,308.999 346.872,312.862C349.057,319.4 351.175,326.08 351.833,332.977C352.486,339.836 351.35,346.62 350.282,353.377C361.095,350.743 372.15,347.7 383.353,347.384C393.839,347.088 404.277,349.277 414.49,351.382C415.573,351.605 416.709,351.608 417.808,351.562C418.664,351.526 419.517,351.444 420.365,351.32C421.039,351.221 421.71,351.095 422.374,350.94C425.65,350.172 430.242,348.266 429.973,344.179C429.751,340.816 426.883,337.905 424.571,335.753C422.96,334.254 421.427,332.672 419.996,331.001C418.878,329.696 417.823,328.337 416.848,326.922C416.032,325.739 415.273,324.516 414.587,323.253C414.065,322.293 413.585,321.31 413.158,320.305C412.804,319.472 412.487,318.624 412.214,317.761C410.772,313.206 410.362,306.901 414.799,303.83C417.041,302.278 419.569,301.144 422.15,300.285C428.442,298.189 435.83,297.407 442.173,299.729C443.909,300.364 445.583,301.165 447.199,302.061C448.543,302.806 449.849,303.623 451.108,304.505C452.103,305.202 453.07,305.941 453.999,306.724C458.614,310.612 463.677,316.817 461.37,323.271C460.347,326.131 458.731,328.682 456.89,331.08C454.353,334.382 451.046,337.776 452.421,342.274C452.719,343.248 453.169,344.17 453.686,345.044C455.81,348.632 459.445,351.005 463.202,352.62C469.843,355.474 477.232,356.496 484.369,357.208C486.989,357.469 489.613,357.67 492.24,357.837C498.335,358.227 504.457,358.394 510.562,358.165C515.21,357.99 519.899,357.619 524.448,356.603C529.229,355.535 533.905,353.965 538.348,351.898C533.568,342.199 528.834,332.478 524.101,322.756C522.255,318.964 520.412,315.17 518.551,311.385C517.425,309.096 516.389,306.706 515.066,304.519C513.598,302.095 511.377,300.133 509.095,298.498C505.023,295.58 500.218,293.415 495.25,292.645C492.335,292.193 489.28,292.253 486.476,293.244C484.725,293.862 483.86,295.732 482.392,296.772C480.138,298.368 477.159,298.703 474.48,298.825C464.056,299.299 452.733,295.841 446.462,287.016C445.162,285.186 444.124,283.158 443.489,281.002C443.005,279.364 442.756,277.648 442.828,275.939C442.881,274.701 443.105,273.467 443.525,272.3C443.835,271.441 444.25,270.62 444.765,269.865C448.615,264.229 456.427,263.943 462.517,264.887C467.477,265.656 472.29,267.269 476.92,269.173C478.552,269.844 480.251,270.353 481.967,270.759C483.344,271.085 484.738,271.341 486.141,271.527C487.234,271.673 488.333,271.775 489.435,271.827C490.242,271.865 491.05,271.875 491.858,271.852C495.687,271.744 501.37,270.836 502.309,266.309C502.438,265.688 502.463,265.049 502.414,264.417C502.334,263.383 502.061,262.369 501.699,261.4C501.092,259.774 500.231,258.249 499.283,256.801C496.82,253.039 493.869,249.574 490.997,246.128C486.683,240.952 482.266,235.856 477.772,230.835C465.322,232.035 452.541,232.208 440.083,231.09C432.752,230.432 424.781,229.465 418.178,225.974C416.62,225.151 415.182,224.058 414.121,222.639C412.017,219.825 411.803,216.018 413.228,212.855C414.202,210.695 416.241,209.218 417.62,207.341C418.602,206.004 419.159,204.423 418.605,202.79C415.379,193.28 404.305,188.763 394.883,189.541C390.06,189.939 384.334,192.015 382.847,197.134C382.628,197.889 382.514,198.673 382.493,199.459C382.46,200.682 382.646,201.904 382.967,203.082C383.428,204.774 384.659,206.121 385.946,207.252C388.012,209.067 390.463,210.474 392.298,212.546C393.049,213.395 393.708,214.337 394.18,215.37C395.765,218.841 394.507,222.409 391.737,224.849C388.714,227.511 384.611,228.799 380.683,229.314C376.216,229.9 371.656,230.015 367.16,230.199C359.533,230.51 351.895,230.638 344.262,230.55C343.852,230.546 343.442,230.54 343.032,230.534C342.162,235.512 341.342,240.504 340.707,245.519C340.293,248.789 339.822,252.161 339.995,255.465Z" style="fill:rgb(131,103,3);fill-rule:nonzero;"/>
                        </g>
                        <g id="path2504" transform="matrix(0.2877,0,0,0.2877,516.775,4158.91)">
                            <path d="M493.386,356.621C490.741,356.451 488.097,356.249 485.46,355.985C478.271,355.267 470.827,354.235 464.14,351.356C460.353,349.725 456.691,347.329 454.552,343.711C454.031,342.828 453.577,341.898 453.276,340.916C451.889,336.379 455.215,332.955 457.769,329.618C459.623,327.197 461.248,324.622 462.275,321.736C464.593,315.224 459.494,308.962 454.841,305.034C453.905,304.244 452.931,303.498 451.928,302.794C450.66,301.903 449.345,301.079 447.99,300.326C446.364,299.423 444.677,298.614 442.929,297.972C436.543,295.63 429.104,296.417 422.77,298.534C420.172,299.401 417.627,300.546 415.372,302.112C410.902,305.216 411.324,311.582 412.776,316.175C413.051,317.046 413.372,317.902 413.728,318.743C414.159,319.757 414.642,320.75 415.168,321.719C415.86,322.993 416.625,324.227 417.446,325.422C418.429,326.85 419.492,328.221 420.618,329.538C422.06,331.224 423.605,332.821 425.227,334.334C427.558,336.508 430.447,339.445 430.671,342.838C430.944,346.958 426.327,348.884 423.022,349.66C422.353,349.817 421.678,349.944 420.999,350.044C420.146,350.169 419.286,350.252 418.425,350.288C417.317,350.335 416.173,350.332 415.083,350.107C404.798,347.982 394.286,345.774 383.724,346.072C372.442,346.391 361.309,349.462 350.421,352.12C349.861,355.676 349.237,359.366 349.622,362.975C350.062,367.102 351.006,371.193 351.863,375.246C353.343,382.241 354.93,389.214 356.376,396.216C357.084,399.648 357.779,403.089 358.293,406.557C358.558,408.347 358.989,410.398 358.66,412.209C358.195,414.765 356.701,417.213 355.177,419.266C350.895,425.034 343.949,429.075 336.705,426.933C334.999,426.429 333.388,425.637 331.9,424.668C328.708,422.589 325.511,420.505 322.209,418.602C318.945,416.72 315.518,414.989 311.815,414.17C308.802,413.504 305.71,413.5 302.65,413.787C293.064,414.684 283.022,419.318 279.243,428.737C278.421,430.787 277.928,432.958 277.712,435.154C276.984,442.575 278.689,450.581 284.397,455.764C285.469,456.738 286.653,457.586 287.916,458.295C289.652,459.271 291.531,459.982 293.465,460.45C296.707,461.236 300.086,461.352 303.398,461.031C306.748,460.706 310.035,459.841 313.255,458.888C315.822,458.127 318.365,457.283 320.908,456.446C322.803,455.824 324.697,455.201 326.603,454.614C327.964,454.194 329.33,453.793 330.705,453.424C338.059,451.452 347.129,449.939 353.359,455.516C354.447,456.489 355.389,457.618 356.197,458.832C357.579,460.911 358.578,463.228 359.345,465.597C364.025,480.054 366.037,495.34 366.395,510.498C366.496,514.774 365.477,519.172 364.637,523.336C363.163,530.644 361.354,537.886 359.45,545.092C376.678,545.868 393.947,545.939 411.185,545.459C417.105,545.294 423.024,545.063 428.934,544.692C432.675,544.458 436.471,544.264 440.173,543.636C445.035,542.812 449.886,541.544 454.347,539.404C456.924,538.167 459.376,536.622 461.471,534.667C462.809,533.419 463.994,532.003 464.946,530.438C471.103,520.312 465.56,507.882 459.151,499.379C457.963,497.802 456.696,496.284 455.365,494.825C453.632,492.925 451.791,491.123 449.862,489.422C444.033,484.281 439.729,476.882 437.686,469.418C436.702,465.818 436.209,461.924 437.029,458.242C438.8,450.293 446.857,446.086 454.104,444.191C464.473,441.479 475.938,442.097 486.153,445.184C491.471,446.792 496.665,449.179 500.99,452.709C509.454,459.617 512.976,471.611 512.662,482.188C512.573,485.164 512.191,488.227 511.1,491.016C510.582,492.339 509.875,493.688 508.771,494.616C507.787,495.442 506.906,496.389 506.165,497.438C501.068,504.657 503.708,514.485 507.643,521.542C508.443,522.977 509.326,524.366 510.278,525.706C511.48,527.4 512.792,529.016 514.193,530.55C516.037,532.568 518.036,534.445 520.159,536.166C522.678,538.208 525.374,540.033 528.207,541.611C537.692,546.894 548.259,550.054 558.894,552.022C576.181,555.22 594.005,555.416 611.486,554.071C621.901,553.269 632.471,552.071 642.668,549.751C636.18,538.967 629.904,528.051 623.771,517.061C617.685,506.153 611.718,495.158 606.275,483.912C605.241,481.776 604.321,479.571 603.675,477.284C603.243,475.753 602.931,474.173 602.882,472.579C602.85,471.52 602.937,470.451 603.214,469.427C604.908,463.164 612.697,462.667 618.061,462.907C619.344,462.964 620.631,463.133 621.916,463.133C624.247,463.133 626.666,464.282 628.762,465.171C633.477,467.171 638.019,469.577 642.533,471.987C646.377,474.04 650.011,476.462 653.922,478.393C658.998,480.899 664.433,482.489 670.099,482.816C671.548,482.9 672.999,482.941 674.45,482.926C675.593,482.914 676.735,482.867 677.874,482.775C683.564,482.317 690.916,480.607 693.156,474.586C693.444,473.812 693.629,473.002 693.72,472.182C693.867,470.865 693.774,469.528 693.526,468.229C693.144,466.231 692.404,464.313 691.491,462.502C690.133,459.809 688.382,457.323 686.451,455.013C682.487,450.271 677.722,446.203 672.625,442.725C663.043,436.188 651.996,431.607 640.505,429.881C638.742,429.616 636.947,429.545 635.175,429.753C628.601,430.523 623.494,435.223 619.109,439.817C616.224,442.84 611.761,443.312 607.813,442.905C599.689,442.067 591.69,438.131 585.072,433.5C584.175,432.872 583.469,431.901 582.822,431.042C581.67,429.516 580.623,427.91 579.603,426.294C575.973,420.545 572.682,414.577 569.437,408.606C559.077,389.538 549.407,370.09 539.816,350.627C535.344,352.713 530.636,354.297 525.822,355.375C521.241,356.4 516.52,356.775 511.838,356.951C505.69,357.182 499.525,357.014 493.386,356.621Z" style="fill:rgb(56,27,64);fill-rule:nonzero;"/>
                        </g>
                        <g id="path2508" transform="matrix(0.2877,0,0,0.2877,516.775,4158.91)">
                            <path d="M359.345,465.597C358.578,463.228 357.579,460.911 356.197,458.832C355.389,457.618 354.447,456.489 353.359,455.516C347.129,449.939 338.059,451.452 330.705,453.424C329.33,453.793 327.964,454.194 326.603,454.614C324.697,455.201 322.803,455.824 320.908,456.446C318.365,457.283 315.822,458.127 313.255,458.888C310.035,459.841 306.748,460.706 303.398,461.031C300.086,461.352 296.707,461.236 293.465,460.45C291.531,459.982 289.652,459.271 287.916,458.295C286.653,457.586 285.469,456.738 284.397,455.764C278.689,450.581 276.984,442.575 277.712,435.154C277.928,432.958 278.421,430.787 279.243,428.737C283.022,419.318 293.064,414.684 302.65,413.787C305.71,413.5 308.802,413.504 311.815,414.17C315.518,414.989 318.945,416.72 322.209,418.602C325.511,420.505 328.708,422.589 331.9,424.668C333.388,425.637 334.999,426.429 336.705,426.933C343.949,429.076 350.895,425.034 355.177,419.266C356.701,417.213 358.195,414.765 358.66,412.209C358.989,410.398 358.558,408.347 358.293,406.557C357.779,403.089 357.084,399.648 356.376,396.216C354.93,389.214 353.343,382.241 351.863,375.246C351.006,371.193 350.062,367.102 349.622,362.975C349.237,359.366 349.861,355.676 350.421,352.12C345.385,353.349 340.351,354.587 335.311,355.8C320.631,359.334 304.912,359.695 290.267,355.821C286.252,354.759 282.298,353.37 278.587,351.494C276.25,350.313 273.947,348.935 272.006,347.161C271.523,346.719 271.087,346.219 270.748,345.657C268.537,341.994 271.798,337.898 274.258,335.366C274.776,334.833 275.311,334.318 275.858,333.815C276.53,333.199 277.22,332.603 277.921,332.02C278.892,331.213 279.884,330.433 280.885,329.665C282.164,328.684 283.474,327.739 284.721,326.717C290.763,321.764 291.872,313.332 290.379,306.077C289.417,301.404 284.249,298.708 280.142,297.337C269.716,293.857 257.67,295.704 248.279,301.187C246.33,302.326 244.492,303.687 242.952,305.346C242,306.372 241.167,307.511 240.512,308.748C236.263,316.771 240.754,326.133 245.512,332.81C246.386,334.038 247.311,335.229 248.265,336.396C248.637,336.85 248.953,337.351 249.176,337.894C250.224,340.44 248.782,342.981 246.939,344.716C242.819,348.596 236.636,350.187 231.149,350.645C228.157,350.895 225.135,350.883 222.135,350.906C217.208,350.944 212.28,350.912 207.353,350.864C193.403,350.729 179.453,350.445 165.506,350.129C156.431,373.532 147.46,397.013 137.73,420.155C136.82,422.321 136.029,424.557 135.564,426.864C135.279,428.28 135.115,429.736 135.215,431.182C135.275,432.05 135.434,432.915 135.735,433.734C137.442,438.387 142.98,439.118 147.282,438.964C148.068,438.936 148.852,438.879 149.634,438.8C150.633,438.699 151.628,438.562 152.618,438.401C153.956,438.182 155.285,437.917 156.608,437.625C158.25,437.262 159.877,436.825 161.524,436.482C163.538,436.062 165.383,435 167.132,433.964C169.124,432.784 171.079,431.544 173.123,430.453C178.369,427.653 184.056,426.009 189.999,425.641C194.323,425.373 198.781,425.689 202.867,427.217C204.643,427.881 206.334,428.778 207.845,429.926C208.932,430.752 209.921,431.704 210.783,432.763C216.764,440.113 215.602,450.768 211.635,458.76C205.114,471.897 191.156,479.58 176.725,479.907C167.989,480.105 160.476,475.16 154.552,469.168C153.049,467.648 151.63,466.051 150.217,464.448C149.082,463.158 147.973,461.762 146.625,460.681C144.361,458.865 141.041,458.455 138.241,458.568C130.229,458.893 123.45,464.045 119.178,470.56C115.333,476.423 111.794,482.507 108.464,488.676C105.05,495 101.841,501.474 99.289,508.2C96.407,515.797 94.102,523.616 92.331,531.545C91.292,536.196 90.342,540.924 89.846,545.668C99.12,543.797 108.652,542.874 118.061,542.038C134.24,540.599 150.493,539.997 166.735,539.997C170.599,539.997 174.465,540.137 178.315,540.484C180.727,540.701 183.132,541 185.52,541.405C187.249,541.699 188.968,542.048 190.671,542.467C199.737,544.697 209.922,549.368 213.23,558.847C213.672,560.114 213.971,561.43 214.121,562.763C214.334,564.659 214.247,566.584 213.888,568.457C213.399,571.014 212.412,573.477 211.009,575.67C209.07,578.702 206.656,581.357 203.923,583.69C200.834,586.328 197.421,588.588 194.566,591.496C191.114,595.012 188.767,599.336 187.195,603.982C185.666,608.498 184.601,613.214 184.428,617.992C184.101,627.007 187.451,635.584 194.569,641.289C195.848,642.314 197.225,643.318 198.689,644.062C205.498,647.523 213.636,648.633 221.186,648.688C227.345,648.734 233.519,647.978 239.482,646.435C242.049,645.772 244.667,645.018 247.105,643.967C249.735,642.833 252.262,641.3 254.614,639.677C262.788,634.038 268.977,625.857 271.337,616.143C272.161,612.75 272.522,609.252 272.482,605.762C272.461,603.938 272.256,602.11 271.776,600.347C270.014,593.869 264.423,590.046 260.443,584.995C257.969,581.856 256.217,578.269 255.247,574.391C253.138,565.97 252.713,556.277 257.928,548.853C258.829,547.572 259.873,546.393 261.031,545.338C262.619,543.89 264.412,542.677 266.318,541.689C268.994,540.3 271.884,539.347 274.831,538.73C278.878,537.882 283.076,537.631 287.196,537.984C290.267,538.247 293.327,538.706 296.382,539.102C301.74,539.796 307.099,540.48 312.465,541.114C327.551,542.899 342.694,544.294 357.871,545.021C358.397,545.046 358.923,545.068 359.45,545.092C361.354,537.886 363.163,530.644 364.637,523.336C365.477,519.172 366.496,514.774 366.395,510.498C366.037,495.34 364.025,480.054 359.345,465.597Z" style="fill:rgb(0,95,62);fill-rule:nonzero;"/>
                        </g>
                    </g>
                </g>
                <g transform="matrix(0.798051,0,0,4.27527,25.3398,-17815.5)">
                    <g>
                        <g id="path25021" serif:id="path2502" transform="matrix(0.2877,0,0,0.2877,516.775,4157.63)">
                            <path d="M339.995,255.465C340.278,260.893 342.006,266.701 347.106,269.446C348.178,270.023 349.332,270.438 350.515,270.717C352.322,271.143 354.191,271.262 356.042,271.196C359.034,271.091 362.443,271.129 365.289,270.033C366.274,269.654 366.846,268.779 367.78,268.368C369.432,267.642 371.004,266.748 372.67,266.048C375.969,264.662 379.486,263.692 383.079,263.595C390.254,263.401 398.136,265.25 402.853,271.068C406.51,275.579 407.403,282.082 403.975,286.99C403.2,288.099 402.243,289.076 401.167,289.896C397.696,292.538 393.212,293.465 388.926,293.465C386.675,293.465 384.339,292.768 382.202,292.134C378.174,290.939 373.97,289.33 370.634,286.692C369.741,285.986 368.59,285.613 367.499,285.343C365.305,284.8 363.004,284.674 360.752,284.764C354.382,285.021 346.274,287.299 343.735,293.879C343.402,294.741 343.184,295.645 343.073,296.562C342.89,298.069 342.994,299.601 343.281,301.089C344.055,305.105 345.581,308.999 346.872,312.862C349.057,319.4 351.175,326.08 351.833,332.977C352.486,339.836 351.35,346.62 350.282,353.377C361.095,350.743 372.15,347.7 383.353,347.384C393.839,347.088 404.277,349.277 414.49,351.382C415.573,351.605 416.709,351.608 417.808,351.562C418.664,351.526 419.517,351.444 420.365,351.32C421.039,351.221 421.71,351.095 422.374,350.94C425.65,350.172 430.242,348.266 429.973,344.179C429.751,340.816 426.883,337.905 424.571,335.753C422.96,334.254 421.427,332.672 419.996,331.001C418.878,329.696 417.823,328.337 416.848,326.922C416.032,325.739 415.273,324.516 414.587,323.253C414.065,322.293 413.585,321.31 413.158,320.305C412.804,319.472 412.487,318.624 412.214,317.761C410.772,313.206 410.362,306.901 414.799,303.83C417.041,302.278 419.569,301.144 422.15,300.285C428.442,298.189 435.83,297.407 442.173,299.729C443.909,300.364 445.583,301.165 447.199,302.061C448.543,302.806 449.849,303.623 451.108,304.505C452.103,305.202 453.07,305.941 453.999,306.724C458.614,310.612 463.677,316.817 461.37,323.271C460.347,326.131 458.731,328.682 456.89,331.08C454.353,334.382 451.046,337.776 452.421,342.274C452.719,343.248 453.169,344.17 453.686,345.044C455.81,348.632 459.445,351.005 463.202,352.62C469.843,355.474 477.232,356.496 484.369,357.208C486.989,357.469 489.613,357.67 492.24,357.837C498.335,358.227 504.457,358.394 510.562,358.165C515.21,357.99 519.899,357.619 524.448,356.603C529.229,355.535 533.905,353.965 538.348,351.898C533.568,342.199 528.834,332.478 524.101,322.756C522.255,318.964 520.412,315.17 518.551,311.385C517.425,309.096 516.389,306.706 515.066,304.519C513.598,302.095 511.377,300.133 509.095,298.498C505.023,295.58 500.218,293.415 495.25,292.645C492.335,292.193 489.28,292.253 486.476,293.244C484.725,293.862 483.86,295.732 482.392,296.772C480.138,298.368 477.159,298.703 474.48,298.825C464.056,299.299 452.733,295.841 446.462,287.016C445.162,285.186 444.124,283.158 443.489,281.002C443.005,279.364 442.756,277.648 442.828,275.939C442.881,274.701 443.105,273.467 443.525,272.3C443.835,271.441 444.25,270.62 444.765,269.865C448.615,264.229 456.427,263.943 462.517,264.887C467.477,265.656 472.29,267.269 476.92,269.173C478.552,269.844 480.251,270.353 481.967,270.759C483.344,271.085 484.738,271.341 486.141,271.527C487.234,271.673 488.333,271.775 489.435,271.827C490.242,271.865 491.05,271.875 491.858,271.852C495.687,271.744 501.37,270.836 502.309,266.309C502.438,265.688 502.463,265.049 502.414,264.417C502.334,263.383 502.061,262.369 501.699,261.4C501.092,259.774 500.231,258.249 499.283,256.801C496.82,253.039 493.869,249.574 490.997,246.128C486.683,240.952 482.266,235.856 477.772,230.835C465.322,232.035 452.541,232.208 440.083,231.09C432.752,230.432 424.781,229.465 418.178,225.974C416.62,225.151 415.182,224.058 414.121,222.639C412.017,219.825 411.803,216.018 413.228,212.855C414.202,210.695 416.241,209.218 417.62,207.341C418.602,206.004 419.159,204.423 418.605,202.79C415.379,193.28 404.305,188.763 394.883,189.541C390.06,189.939 384.334,192.015 382.847,197.134C382.628,197.889 382.514,198.673 382.493,199.459C382.46,200.682 382.646,201.904 382.967,203.082C383.428,204.774 384.659,206.121 385.946,207.252C388.012,209.067 390.463,210.474 392.298,212.546C393.049,213.395 393.708,214.337 394.18,215.37C395.765,218.841 394.507,222.409 391.737,224.849C388.714,227.511 384.611,228.799 380.683,229.314C376.216,229.9 371.656,230.015 367.16,230.199C359.533,230.51 351.895,230.638 344.262,230.55C343.852,230.546 343.442,230.54 343.032,230.534C342.162,235.512 341.342,240.504 340.707,245.519C340.293,248.789 339.822,252.161 339.995,255.465Z" style="fill:rgb(243,193,5);fill-rule:nonzero;"/>
                        </g>
                        <g id="path25041" serif:id="path2504" transform="matrix(0.2877,0,0,0.2877,516.775,4157.63)">
                            <path d="M492.24,357.837C489.613,357.67 486.989,357.469 484.369,357.208C477.232,356.496 469.843,355.474 463.202,352.62C459.445,351.005 455.81,348.632 453.686,345.044C453.169,344.17 452.719,343.248 452.421,342.274C451.046,337.776 454.353,334.382 456.89,331.08C458.731,328.682 460.347,326.131 461.37,323.271C463.677,316.817 458.614,310.612 453.999,306.724C453.07,305.941 452.103,305.202 451.108,304.505C449.849,303.623 448.543,302.806 447.199,302.061C445.583,301.165 443.909,300.364 442.173,299.729C435.83,297.407 428.442,298.189 422.15,300.285C419.569,301.144 417.041,302.278 414.799,303.83C410.362,306.901 410.772,313.206 412.214,317.761C412.487,318.624 412.804,319.472 413.158,320.305C413.585,321.31 414.065,322.293 414.587,323.253C415.273,324.516 416.032,325.739 416.848,326.922C417.823,328.337 418.878,329.696 419.996,331.001C421.427,332.672 422.96,334.254 424.571,335.753C426.883,337.905 429.751,340.816 429.973,344.179C430.242,348.266 425.65,350.172 422.374,350.94C421.71,351.095 421.039,351.221 420.365,351.32C419.517,351.444 418.664,351.526 417.808,351.562C416.709,351.608 415.573,351.605 414.49,351.382C404.277,349.277 393.839,347.088 383.353,347.384C372.15,347.7 361.095,350.743 350.282,353.377C349.725,356.901 349.106,360.558 349.487,364.135C349.924,368.225 350.861,372.28 351.712,376.297C353.181,383.231 354.756,390.142 356.19,397.083C356.894,400.486 357.583,403.897 358.093,407.335C358.356,409.109 358.784,411.143 358.457,412.938C357.995,415.473 356.512,417.9 354.999,419.935C350.746,425.657 343.849,429.66 336.66,427.537C334.967,427.037 333.368,426.252 331.891,425.291C328.721,423.23 325.548,421.163 322.27,419.276C319.029,417.411 315.627,415.694 311.951,414.883C308.96,414.222 305.89,414.219 302.852,414.503C293.342,415.392 283.369,419.98 279.617,429.325C278.801,431.358 278.311,433.511 278.098,435.688C277.375,443.05 279.071,450.988 284.735,456.126C285.8,457.092 286.975,457.933 288.229,458.636C289.953,459.604 291.817,460.309 293.737,460.774C296.956,461.553 300.31,461.667 303.597,461.349C307.095,461.011 310.523,460.083 313.878,459.076C316.259,458.361 318.618,457.578 320.979,456.803C322.86,456.185 324.741,455.567 326.633,454.985C327.983,454.569 329.339,454.171 330.704,453.805C338.003,451.85 347.007,450.348 353.192,455.88C354.272,456.845 355.207,457.964 356.009,459.169C357.381,461.23 358.373,463.528 359.134,465.878C363.779,480.216 365.775,495.379 366.13,510.414C366.23,514.656 365.219,519.019 364.385,523.15C362.921,530.401 361.126,537.585 359.236,544.735C376.336,545.505 393.477,545.575 410.587,545.099C416.462,544.935 422.338,544.706 428.204,544.338C431.918,544.105 435.685,543.913 439.359,543.29C444.186,542.472 449.001,541.215 453.428,539.091C455.987,537.864 458.42,536.332 460.501,534.392C461.829,533.153 463.005,531.749 463.95,530.196C470.062,520.15 464.562,507.819 458.202,499.384C457.022,497.82 455.765,496.315 454.444,494.867C452.724,492.982 450.897,491.195 448.983,489.508C443.199,484.41 438.927,477.071 436.9,469.667C435.923,466.097 435.434,462.235 436.25,458.583C438.01,450.696 446.012,446.527 453.202,444.649C463.496,441.96 474.876,442.572 485.017,445.634C490.294,447.228 495.45,449.595 499.743,453.097C508.141,459.945 511.636,471.841 511.321,482.333C511.232,485.285 510.852,488.323 509.768,491.089C509.255,492.401 508.552,493.74 507.456,494.66C506.48,495.479 505.605,496.418 504.869,497.459C499.808,504.62 502.427,514.37 506.331,521.37C507.126,522.794 508.002,524.172 508.946,525.501C510.14,527.182 511.442,528.785 512.832,530.307C514.662,532.309 516.646,534.171 518.753,535.879C521.253,537.905 523.929,539.716 526.74,541.281C536.155,546.523 546.643,549.658 557.199,551.61C574.357,554.784 592.049,554.978 609.4,553.644C619.738,552.848 630.229,551.659 640.351,549.357C633.913,538.658 627.686,527.828 621.601,516.925C615.563,506.105 609.643,495.199 604.245,484.042C603.219,481.924 602.306,479.737 601.666,477.469C601.238,475.95 600.929,474.383 600.881,472.802C600.849,471.752 600.936,470.692 601.212,469.676C602.897,463.462 610.63,462.972 615.952,463.209C617.226,463.266 618.504,463.434 619.779,463.434C622.093,463.434 624.493,464.573 626.574,465.455C631.253,467.438 635.761,469.825 640.241,472.215C644.055,474.251 647.662,476.654 651.543,478.569C656.582,481.055 661.976,482.631 667.599,482.956C669.037,483.039 670.478,483.08 671.918,483.065C673.052,483.053 674.186,483.006 675.316,482.915C680.963,482.461 688.263,480.767 690.49,474.793C690.776,474.025 690.96,473.222 691.051,472.409C691.198,471.102 691.107,469.776 690.861,468.487C690.483,466.507 689.749,464.604 688.844,462.808C687.498,460.138 685.761,457.672 683.846,455.382C679.913,450.678 675.185,446.644 670.129,443.196C660.618,436.712 649.655,432.171 638.251,430.46C636.502,430.197 634.72,430.127 632.96,430.333C626.435,431.096 621.362,435.756 617.005,440.312C614.139,443.31 609.709,443.777 605.789,443.374C597.728,442.544 589.788,438.642 583.219,434.048C582.33,433.426 581.629,432.462 580.987,431.611C579.845,430.098 578.806,428.505 577.794,426.903C574.195,421.204 570.93,415.286 567.713,409.366C557.442,390.467 547.856,371.189 538.348,351.898C533.905,353.965 529.229,355.535 524.448,356.603C519.899,357.619 515.21,357.99 510.562,358.165C504.457,358.394 498.335,358.227 492.24,357.837Z" style="fill:rgb(122,59,139);fill-rule:nonzero;"/>
                        </g>
                        <g id="path25081" serif:id="path2508" transform="matrix(0.2877,0,0,0.2877,516.775,4157.63)">
                            <path d="M359.134,465.878C358.373,463.528 357.381,461.23 356.009,459.169C355.207,457.964 354.272,456.845 353.192,455.88C347.007,450.348 338.003,451.85 330.704,453.805C329.339,454.171 327.983,454.569 326.633,454.985C324.741,455.567 322.86,456.185 320.979,456.803C318.618,457.578 316.259,458.361 313.878,459.076C310.523,460.083 307.095,461.011 303.597,461.349C300.31,461.667 296.956,461.553 293.737,460.774C291.817,460.309 289.953,459.604 288.229,458.636C286.975,457.933 285.8,457.092 284.735,456.126C279.071,450.988 277.375,443.05 278.098,435.688C278.311,433.511 278.801,431.358 279.617,429.325C283.369,419.98 293.342,415.392 302.852,414.503C305.89,414.219 308.96,414.222 311.951,414.883C315.627,415.694 319.029,417.411 322.27,419.276C325.548,421.163 328.721,423.23 331.891,425.291C333.368,426.252 334.967,427.037 336.66,427.537C343.849,429.66 350.746,425.657 354.999,419.935C356.512,417.9 357.995,415.473 358.457,412.938C358.784,411.143 358.356,409.109 358.093,407.335C357.583,403.897 356.894,400.486 356.19,397.083C354.756,390.142 353.181,383.231 351.712,376.297C350.861,372.28 349.924,368.225 349.487,364.135C349.106,360.558 349.725,356.901 350.282,353.377C345.281,354.595 340.282,355.822 335.278,357.024C320.7,360.527 305.094,360.884 290.551,357.045C284.242,355.38 277.33,352.943 272.417,348.463C271.936,348.025 271.503,347.53 271.166,346.973C268.97,343.342 272.209,339.282 274.649,336.775C275.163,336.247 275.695,335.736 276.238,335.239C276.905,334.628 277.59,334.037 278.286,333.46C279.25,332.66 280.235,331.888 281.229,331.127C282.499,330.155 283.8,329.218 285.038,328.205C291.032,323.302 292.137,314.948 290.651,307.757C289.694,303.122 284.555,300.456 280.481,299.1C270.127,295.653 258.166,297.478 248.835,302.913C246.9,304.041 245.075,305.389 243.546,307.033C242.601,308.049 241.774,309.177 241.124,310.404C236.907,318.355 241.379,327.633 246.102,334.243C246.971,335.46 247.89,336.64 248.838,337.796C249.206,338.245 249.521,338.742 249.743,339.281C250.784,341.803 249.352,344.322 247.524,346.04C243.431,349.888 237.293,351.462 231.847,351.915C228.876,352.163 225.875,352.151 222.896,352.174C218.004,352.212 213.111,352.18 208.218,352.133C194.365,351.999 180.514,351.717 166.664,351.404C157.668,374.602 148.774,397.877 139.129,420.817C138.226,422.964 137.442,425.181 136.981,427.468C136.699,428.873 136.537,430.316 136.637,431.749C136.697,432.61 136.855,433.468 137.153,434.28C138.851,438.896 144.351,439.619 148.619,439.466C149.398,439.438 150.177,439.382 150.953,439.303C151.945,439.203 152.932,439.068 153.916,438.908C155.243,438.691 156.563,438.428 157.876,438.138C159.507,437.779 161.121,437.345 162.756,437.005C164.755,436.588 166.586,435.536 168.322,434.508C170.299,433.338 172.24,432.109 174.268,431.027C179.477,428.25 185.121,426.621 191.02,426.256C195.312,425.99 199.738,426.303 203.795,427.818C205.558,428.476 207.237,429.366 208.738,430.504C209.816,431.323 210.799,432.268 211.655,433.318C217.674,440.703 216.413,451.433 212.348,459.412C205.799,472.266 192.057,479.749 177.858,480.07C169.187,480.266 161.729,475.363 155.845,469.419C154.353,467.912 152.943,466.328 151.541,464.738C150.413,463.459 149.312,462.074 147.974,461.002C145.726,459.201 142.431,458.795 139.65,458.907C131.7,459.228 124.972,464.336 120.731,470.8C116.916,476.615 113.405,482.649 110.101,488.768C106.714,495.041 103.53,501.463 100.999,508.134C98.14,515.671 95.854,523.428 94.097,531.294C93.067,535.909 92.125,540.6 91.634,545.306C100.838,543.45 110.299,542.535 119.638,541.705C135.697,540.277 151.83,539.679 167.95,539.679C171.786,539.679 175.624,539.819 179.445,540.163C181.839,540.379 184.226,540.675 186.596,541.077C188.312,541.368 190.019,541.715 191.71,542.13C200.707,544.342 210.818,548.975 214.102,558.382C214.541,559.639 214.837,560.945 214.986,562.268C215.198,564.15 215.112,566.06 214.756,567.919C214.271,570.456 213.291,572.9 211.899,575.076C209.974,578.085 207.578,580.719 204.866,583.035C201.8,585.653 198.412,587.896 195.579,590.781C192.152,594.27 189.823,598.562 188.262,603.172C185.167,612.316 183.949,622.816 188.539,631.691C189.317,633.196 190.247,634.622 191.306,635.944C192.771,637.772 194.481,639.396 196.355,640.8C198.913,642.716 201.765,644.219 204.745,645.362C209.307,647.111 214.168,648.034 219.037,648.325C222.08,648.507 225.137,648.44 228.171,648.147C244.482,646.57 261.443,638.232 268.951,623.035C270.005,620.901 270.853,618.667 271.485,616.373C272.509,612.655 272.959,608.793 272.915,604.939C272.894,603.129 272.69,601.314 272.214,599.565C270.465,593.136 264.916,589.343 260.965,584.329C258.51,581.215 256.771,577.655 255.807,573.807C253.714,565.451 253.292,555.833 258.468,548.467C259.362,547.195 260.399,546.026 261.547,544.979C263.123,543.542 264.904,542.339 266.796,541.358C269.452,539.981 272.32,539.035 275.245,538.422C279.262,537.581 283.429,537.333 287.518,537.683C290.567,537.943 293.604,538.399 296.636,538.792C301.954,539.481 307.274,540.158 312.6,540.788C327.574,542.559 342.605,543.943 357.668,544.664C358.191,544.689 358.713,544.711 359.236,544.735C361.126,537.585 362.921,530.401 364.385,523.15C365.219,519.019 366.23,514.656 366.13,510.414C365.775,495.379 363.779,480.216 359.134,465.878Z" style="fill:rgb(0,167,109);fill-rule:nonzero;"/>
                        </g>
                    </g>
                </g>
                <g id="Gopher" transform="matrix(0.0986482,0,0,0.528473,407.686,21.1071)">
                    <path d="M381.081,363.552C378.301,364.788 373.668,395.058 387.876,396.602C397.452,397.529 423.707,400.618 429.884,396.602C441.931,388.88 440.695,370.347 433.9,365.714C422.471,358.301 384.17,362.008 381.081,363.552ZM302.625,136.834C270.811,133.127 217.375,162.78 209.344,225.792C200.695,291.274 277.915,356.139 352.046,291.274C391.892,256.371 405.792,148.88 302.625,136.834ZM517.606,136.834C414.44,148.88 428.34,256.371 468.185,291.274C542.317,356.139 619.537,291.274 610.888,225.792C603.166,162.78 549.73,133.127 517.606,136.834Z" style="fill:white;fill-rule:nonzero;"/>
                    <path d="M715.598,106.873C739.382,155.985 667.104,161.236 670.811,183.166C677.606,222.703 672.973,281.39 667.722,339.151C658.764,437.066 731.969,671.506 579.382,765.714C550.656,783.629 482.394,793.514 415.058,795.058L414.44,795.058C347.104,793.514 269.575,783.629 240.849,765.714C88.571,671.506 161.776,437.066 153.127,339.151C147.568,281.39 142.934,222.703 150.039,183.166C153.745,161.236 81.467,156.293 105.251,106.873C125.637,64.556 175.985,101.931 188.649,88.649C253.205,21.622 331.66,3.707 393.436,2.162L427.413,2.162C488.88,5.251 567.336,21.931 632.201,88.649C644.865,101.931 694.903,64.556 715.598,106.873ZM381.081,363.552C378.301,364.788 373.668,395.058 387.876,396.602C397.452,397.529 423.707,400.618 429.884,396.602C441.931,388.88 440.695,370.347 433.9,365.714C422.471,358.301 384.17,362.008 381.081,363.552ZM302.625,136.834C270.811,133.127 217.375,162.78 209.344,225.792C200.695,291.274 277.915,356.139 352.046,291.274C391.892,256.371 405.792,148.88 302.625,136.834ZM517.606,136.834C414.44,148.88 428.34,256.371 468.185,291.274C542.317,356.139 619.537,291.274 610.888,225.792C603.166,162.78 549.73,133.127 517.606,136.834Z" style="fill:url(#_Linear1);fill-rule:nonzero;"/>
                    <path d="M410.425,299.614C429.884,296.834 476.525,319.073 473.436,345.328C469.73,375.907 353.282,379.923 347.104,343.475C343.398,321.236 361.004,307.027 410.425,299.614ZM608.726,769.73C614.903,778.687 615.212,784.865 605.328,789.498C567.645,806.795 533.977,783.629 546.641,777.143C573.514,763.552 590.193,742.239 608.726,769.73ZM211.815,772.819C230.347,745.328 247.027,766.641 273.9,780.232C286.564,786.718 252.896,809.884 215.212,792.587C205.328,787.954 205.637,781.776 211.815,772.819Z" style="fill:rgb(172,163,155);fill-rule:nonzero;"/>
                    <path d="M657.838,114.286C659.382,107.799 675.444,104.71 684.402,115.83C695.212,129.112 668.649,147.336 667.413,139.923C664.324,119.846 655.985,120.772 657.838,114.286ZM162.703,114.286C164.556,120.772 156.216,119.846 153.127,139.923C151.892,147.336 125.328,129.112 136.139,115.83C144.788,104.71 160.849,107.799 162.703,114.286ZM524.71,264.71C505.263,264.71 489.498,248.945 489.498,229.498C489.498,210.051 505.263,194.286 524.71,194.286C544.158,194.286 559.923,210.051 559.923,229.498C559.923,248.945 544.158,264.71 524.71,264.71ZM515.444,225.483C521.585,225.483 526.564,220.504 526.564,214.363C526.564,208.222 521.585,203.243 515.444,203.243C509.303,203.243 504.324,208.222 504.324,214.363C504.324,220.504 509.303,225.483 515.444,225.483ZM378.61,314.44C382.317,300.232 395.29,295.598 405.792,295.29C432.664,294.672 442.857,309.189 443.784,320.618C445.637,340.077 370.27,344.71 378.61,314.44ZM295.83,264.71C276.383,264.71 260.618,248.945 260.618,229.498C260.618,210.051 276.383,194.286 295.83,194.286C315.277,194.286 331.042,210.051 331.042,229.498C331.042,248.945 315.277,264.71 295.83,264.71ZM305.097,225.483C311.238,225.483 316.216,220.504 316.216,214.363C316.216,208.222 311.238,203.243 305.097,203.243C298.955,203.243 293.977,208.222 293.977,214.363C293.977,220.504 298.955,225.483 305.097,225.483Z" style="fill:rgb(65,65,65);fill-rule:nonzero;"/>
                </g>
                <g transform="matrix(0.862402,0,0,0.862402,71.4465,-81.9038)">
                    <g id="path2506" transform="matrix(0.176955,-0.32287,0.0602691,0.947971,376.007,281.429)">
                        <path d="M302.965,169.854C320.042,187.643 306.384,216.681 277.093,218.223C247.534,219.778 227.106,185.171 252.725,164.609C262.935,156.415 260.497,142.115 242.222,134.983C216.858,125.085 152.983,135.733 152.983,135.733C152.983,135.733 163.327,163.106 163.857,196.476C164.232,220.097 131.236,217.473 125.612,214.848C119.987,212.224 108.364,201.725 100.115,201.725C48.027,201.725 52.426,273.837 102.365,260.217C110.613,257.968 118.862,248.969 131.236,250.469C143.61,251.968 149.984,260.592 149.984,274.091C149.984,280.51 149.475,309.236 148.78,340.863C181.598,341.67 223.049,342.459 232.474,341.582C248.596,340.083 258.345,329.583 250.846,321.335C243.347,313.086 218.6,284.589 241.472,267.341C264.344,250.094 298.09,259.842 302.215,275.215C306.339,290.588 302.965,301.462 297.34,307.086C291.716,312.711 272.968,326.959 283.842,336.708C294.716,346.457 326.211,358.83 364.832,348.707C372.028,346.82 378.36,345.128 384.028,343.631C385.615,335 387.732,324.987 387.285,314.228C386.523,295.9 378.788,275.564 377.205,264.342C373.081,235.096 411.701,232.846 418.825,239.97C425.949,247.094 440.197,251.593 444.697,251.593C482.222,251.593 487.058,196.536 442.447,197.975C430.824,198.35 420.325,205.474 417.325,206.974C414.326,208.474 416.576,211.474 398.578,212.224C380.58,212.973 374.58,199.85 374.205,182.227C373.996,172.39 377.523,148.968 380.681,130.191C352.814,129.67 324.9,126.961 316.838,125.984C295.819,123.437 279.614,145.53 302.965,169.854Z" style="fill:rgb(115,1,60);fill-rule:nonzero;"/>
                    </g>
                    <g id="path25061" serif:id="path2506" transform="matrix(0.176955,-0.32287,0.0602691,0.947971,374.983,275.943)">
                        <path d="M302.965,169.854C320.042,187.643 306.384,216.681 277.093,218.223C247.534,219.778 227.106,185.171 252.725,164.609C262.935,156.415 260.497,142.115 242.222,134.983C216.858,125.085 152.983,135.733 152.983,135.733C152.983,135.733 163.327,163.106 163.857,196.476C164.232,220.097 131.236,217.473 125.612,214.848C119.987,212.224 108.364,201.725 100.115,201.725C48.027,201.725 52.426,273.837 102.365,260.217C110.613,257.968 118.862,248.969 131.236,250.469C143.61,251.968 149.984,260.592 149.984,274.091C149.984,280.51 149.475,309.236 148.78,340.863C181.598,341.67 223.049,342.459 232.474,341.582C248.596,340.083 258.345,329.583 250.846,321.335C243.347,313.086 218.6,284.589 241.472,267.341C264.344,250.094 298.09,259.842 302.215,275.215C306.339,290.588 302.965,301.462 297.34,307.086C291.716,312.711 272.968,326.959 283.842,336.708C294.716,346.457 326.211,358.83 364.832,348.707C372.028,346.82 378.36,345.128 384.028,343.631C385.615,335 387.732,324.987 387.285,314.228C386.523,295.9 378.788,275.564 377.205,264.342C373.081,235.096 411.701,232.846 418.825,239.97C425.949,247.094 440.197,251.593 444.697,251.593C482.222,251.593 487.058,196.536 442.447,197.975C430.824,198.35 420.325,205.474 417.325,206.974C414.326,208.474 416.576,211.474 398.578,212.224C380.58,212.973 374.58,199.85 374.205,182.227C373.996,172.39 377.523,148.968 380.681,130.191C352.814,129.67 324.9,126.961 316.838,125.984C295.819,123.437 279.614,145.53 302.965,169.854Z" style="fill:rgb(225,2,113);fill-rule:nonzero;"/>
                    </g>
                </g>
                <g transform="matrix(0.126878,0.324534,-0.0605796,0.679702,413.472,-316.087)">
                    <path d="M673.282,545.792C663.707,545.483 657.529,532.819 657.529,525.097C657.529,511.197 659.382,494.826 669.575,487.722C690.579,473.205 707.259,546.1 673.282,545.792Z" style="fill:rgb(172,163,155);fill-rule:nonzero;"/>
                </g>
                <g transform="matrix(0.119998,-0.392512,0.0732688,0.642846,343.056,179.616)">
                    <path d="M425.318,550.105C391.341,550.413 408.02,477.518 429.024,492.035C439.217,499.139 441.071,515.51 441.071,529.41C441.071,537.132 434.893,549.796 425.318,550.105Z" style="fill:rgb(172,163,155);fill-rule:nonzero;"/>
                </g>
            </g>
        </g>
    </g>
    <defs>
        <linearGradient id="_Linear1" x1="0" y1="0" x2="1" y2="0" gradientUnits="userSpaceOnUse" gradientTransform="matrix(619.975,0,0,792.896,100.437,398.61)"><stop offset="0" style="stop-color:rgb(15,123,193);stop-opacity:1"/><stop offset="1" style="stop-color:rgb(91,203,245);stop-opacity:1"/></linearGradient>
    </defs>
</svg>
