<?xml version="1.0" encoding="UTF-8" standalone="no"?>
<!DOCTYPE svg PUBLIC "-//W3C//DTD SVG 1.1//EN" "http://www.w3.org/Graphics/SVG/1.1/DTD/svg11.dtd">
<svg width="100%" height="100%" viewBox="0 0 601 140" version="1.1" xmlns="http://www.w3.org/2000/svg" xmlns:xlink="http://www.w3.org/1999/xlink" xml:space="preserve" xmlns:serif="http://www.serif.com/" style="fill-rule:evenodd;clip-rule:evenodd;stroke-linejoin:round;stroke-miterlimit:2;">
    <g transform="matrix(1,0,0,1,-199,-4190)">
        <g id="Functions" transform="matrix(0.585938,0,0,0.182292,199.298,4190)">
            <rect x="0" y="0" width="1024" height="768" style="fill:none;"/>
            <clipPath id="_clip1">
                <rect x="0" y="0" width="1024" height="768"/>
            </clipPath>
            <g clip-path="url(#_clip1)">
                <g transform="matrix(1.66667,0,0,1,-338.909,0)">
                    <g transform="matrix(0.798051,0,0,4.27527,25.3398,-17810)">
                        <g>
                            <g id="path2502" transform="matrix(0.2877,0,0,0.2877,516.775,4157.63)">
                                <path d="M339.995,255.465C340.32,261.694 342.49,271.674 356.042,271.196C357.514,271.144 362.184,270.971 364.688,270.236C366.605,269.673 366.954,268.731 367.78,268.368C369.381,267.664 375.804,263.792 383.079,263.595C411.583,262.823 413.847,293.465 388.926,293.465C385.882,293.465 375.833,290.802 370.634,286.692C365.482,282.619 339.95,283.821 343.281,301.089C344.604,307.95 350.701,321.104 351.833,332.977C352.545,340.452 351.157,347.84 350.282,353.377C379.865,346.17 385.233,345.351 414.49,351.382C419.655,352.447 439.357,349.518 424.571,335.753C410.469,322.625 408.101,308.467 414.799,303.83C421.306,299.325 433.498,296.554 442.173,299.729C451.012,302.963 464.934,313.3 461.37,323.271C457.688,333.572 448.354,336.034 453.686,345.044C459.269,354.477 475.971,356.798 492.24,357.837C503.979,358.587 516.191,358.447 524.448,356.603C529.486,355.477 534.278,353.791 538.348,351.898C526.545,327.949 516.462,306.826 515.066,304.519C510.929,297.685 496.467,289.714 486.476,293.244C483.396,294.332 484.324,298.377 474.48,298.825C453.349,299.786 441.668,285.536 442.899,275.021C443.866,266.768 452.912,259.3 476.92,269.173C487.641,273.582 510.845,274.459 499.283,256.801C497.805,254.544 494.573,249.608 477.772,230.835C470.685,231.518 433.422,234.032 418.178,225.974C411.45,222.418 411.642,216.374 413.228,212.855C414.688,209.615 419.993,206.882 418.605,202.79C412.472,184.71 378.091,185.187 382.967,203.082C384.042,207.026 389.552,209.444 392.298,212.546C398.878,219.981 392.268,227.795 380.683,229.314C376.739,229.831 360.731,230.74 344.262,230.55L343.032,230.534C342.031,236.263 339.709,250.002 339.995,255.465Z" style="fill:rgb(131,103,3);fill-rule:nonzero;"/>
                            </g>
                            <g id="path2504" transform="matrix(0.2877,0,0,0.2877,516.775,4158.91)">
                                <path d="M493.386,356.621C477.004,355.573 460.18,353.231 454.552,343.711C449.179,334.621 458.579,332.123 462.275,321.736C465.857,311.673 451.828,301.237 442.929,297.972C434.191,294.767 421.92,297.565 415.372,302.112C408.631,306.793 411.021,321.085 425.227,334.334C440.125,348.228 420.283,351.181 415.083,350.107C385.615,344.02 380.214,344.847 350.421,352.12C349.953,355.088 349.258,359.566 349.622,362.975C350.665,372.764 359.638,406.832 358.66,412.209C357.505,418.555 346.055,433.885 331.9,424.668C317.858,415.524 312.927,412.825 302.65,413.787C292.081,414.776 279.153,420.477 277.712,435.154C276.136,451.22 285.851,462.731 303.398,461.031C322.301,459.2 350.479,438.206 359.345,465.597C363.888,479.631 366.036,495.336 366.395,510.498C366.505,515.149 364.173,527.219 359.45,545.092C394.438,546.669 431.66,545.079 440.173,543.636C478.854,537.078 471.365,508.386 449.862,489.422C441.945,482.44 434.833,468.098 437.029,458.242C441.255,439.276 482.438,437.568 500.99,452.709C514.746,463.936 514.964,489.414 508.771,494.616C496.196,505.178 506.723,529.646 528.207,541.611C566.205,562.775 628.804,552.905 642.668,549.751C637.888,541.806 618.006,508.153 606.275,483.912C594.153,458.862 618.11,463.133 621.916,463.133C625.701,463.133 636.039,468.52 642.533,471.987C649.705,475.817 657.503,482.087 670.099,482.816C718.458,485.615 684.618,436.506 640.505,429.881C631.682,428.556 625.946,432.654 619.109,439.817C612.263,446.991 595.669,440.917 585.072,433.5C578.262,428.733 546.322,363.83 539.816,350.627C535.733,352.531 530.91,354.236 525.822,355.375C517.563,357.224 505.315,357.384 493.386,356.621Z" style="fill:rgb(56,27,64);fill-rule:nonzero;"/>
                            </g>
                            <g id="path2508" transform="matrix(0.2877,0,0,0.2877,516.775,4158.91)">
                                <path d="M359.345,465.597C350.479,438.206 322.302,459.2 303.398,461.031C285.851,462.731 276.136,451.22 277.712,435.154C279.153,420.477 292.081,414.776 302.65,413.787C312.951,412.822 317.91,415.558 331.9,424.668C346.055,433.885 357.505,418.555 358.66,412.209C359.638,406.832 350.666,372.77 349.622,362.975C349.26,359.58 349.946,355.132 350.421,352.12C344.094,353.664 340.967,354.438 335.311,355.8C305.447,362.99 280.283,354.725 272.006,347.161C264.553,340.348 280.192,330.43 284.721,326.717C289.197,323.048 292.417,315.98 290.379,306.077C288.472,296.812 266.507,290.544 248.279,301.187C228.843,312.537 244.864,332.237 248.265,336.396C252.96,342.136 244.031,349.571 231.149,350.645C222.439,351.372 180.383,350.466 165.506,350.129C153.217,381.82 142.645,408.467 137.73,420.155C126.466,446.948 155.997,437.634 161.524,436.482C167.821,435.169 174.327,426.612 189.999,425.641C230.559,423.128 218.53,478.96 176.725,479.907C160.671,480.271 150.715,463.961 146.625,460.681C142.342,457.246 128.458,456.409 119.178,470.56C115.241,476.563 104.776,493.738 99.289,508.2C91.987,527.446 89.999,544.203 89.846,545.668C90.762,545.483 103.517,543.032 125.688,541.423C137.992,540.53 151.786,539.997 166.735,539.997C216.538,539.997 218.395,564.12 211.009,575.67C203.095,588.047 192.847,587.284 187.195,603.982C179.982,625.288 187.862,637.72 198.252,643.826C204.46,647.474 224.73,652.328 246.042,644.374C247.764,643.732 258.484,639.14 265.626,628.844C269.994,622.548 272.585,614.805 272.482,605.762C272.307,590.45 259.233,590.314 255.247,574.391C247.465,543.306 272.01,536.684 287.196,537.984C293.869,538.555 324.373,543.416 357.871,545.021L359.45,545.092C364.143,527.334 366.506,515.187 366.395,510.498C366.037,495.349 363.891,479.641 359.345,465.597Z" style="fill:rgb(0,95,62);fill-rule:nonzero;"/>
                            </g>
                        </g>
                    </g>
                    <g transform="matrix(0.798051,0,0,4.27527,25.3398,-17815.5)">
                        <g>
                            <g id="path25021" serif:id="path2502" transform="matrix(0.2877,0,0,0.2877,516.775,4157.63)">
                                <path d="M339.995,255.465C340.32,261.694 342.49,271.674 356.042,271.196C357.514,271.144 362.184,270.971 364.688,270.236C366.605,269.673 366.954,268.731 367.78,268.368C369.381,267.664 375.804,263.792 383.079,263.595C411.583,262.823 413.847,293.465 388.926,293.465C385.882,293.465 375.833,290.802 370.634,286.692C365.482,282.619 339.95,283.821 343.281,301.089C344.604,307.95 350.701,321.104 351.833,332.977C352.545,340.452 351.157,347.84 350.282,353.377C379.865,346.17 385.233,345.351 414.49,351.382C419.655,352.447 439.357,349.518 424.571,335.753C410.469,322.625 408.101,308.467 414.799,303.83C421.306,299.325 433.498,296.554 442.173,299.729C451.012,302.963 464.934,313.3 461.37,323.271C457.688,333.572 448.354,336.034 453.686,345.044C459.269,354.477 475.971,356.798 492.24,357.837C503.979,358.587 516.191,358.447 524.448,356.603C529.486,355.477 534.278,353.791 538.348,351.898C526.545,327.949 516.462,306.826 515.066,304.519C510.929,297.685 496.467,289.714 486.476,293.244C483.396,294.332 484.324,298.377 474.48,298.825C453.349,299.786 441.668,285.536 442.899,275.021C443.866,266.768 452.912,259.3 476.92,269.173C487.641,273.582 510.845,274.459 499.283,256.801C497.805,254.544 494.573,249.608 477.772,230.835C470.685,231.518 433.422,234.032 418.178,225.974C411.45,222.418 411.642,216.374 413.228,212.855C414.688,209.615 419.993,206.882 418.605,202.79C412.472,184.71 378.091,185.187 382.967,203.082C384.042,207.026 389.552,209.444 392.298,212.546C398.878,219.981 392.268,227.795 380.683,229.314C376.739,229.831 360.731,230.74 344.262,230.55L343.032,230.534C342.031,236.263 339.709,250.002 339.995,255.465Z" style="fill:rgb(243,193,5);fill-rule:nonzero;"/>
                            </g>
                            <g id="path25041" serif:id="path2504" transform="matrix(0.2877,0,0,0.2877,516.775,4157.63)">
                                <path d="M492.24,357.837C475.978,356.799 459.27,354.479 453.686,345.044C448.356,336.037 457.691,333.562 461.37,323.271C464.934,313.3 451.012,302.963 442.173,299.729C433.498,296.554 421.306,299.325 414.799,303.83C408.101,308.467 410.469,322.625 424.571,335.753C439.357,349.518 419.655,352.447 414.49,351.382C385.234,345.351 379.864,346.171 350.282,353.377C349.817,356.318 349.127,360.756 349.487,364.135C350.522,373.832 359.428,407.606 358.457,412.938C357.31,419.228 345.944,434.431 331.891,425.291C317.951,416.225 313.054,413.549 302.852,414.503C292.363,415.483 279.526,421.133 278.098,435.688C276.534,451.621 286.184,463.035 303.597,461.349C322.359,459.533 350.335,438.714 359.134,465.878C363.643,479.798 365.775,495.376 366.13,510.414C366.239,515.028 363.925,527 359.236,544.735C393.965,546.299 430.91,544.722 439.359,543.29C477.751,536.784 470.327,508.32 448.983,489.508C441.126,482.583 434.068,468.358 436.25,458.583C440.447,439.775 481.333,438.082 499.743,453.097C513.395,464.23 513.604,489.501 507.456,494.66C494.971,505.138 505.419,529.411 526.74,541.281C564.457,562.281 626.591,552.487 640.351,549.357C635.618,541.491 615.883,508.091 604.245,484.042C592.221,459.198 615.999,463.434 619.779,463.434C623.537,463.434 633.799,468.778 640.241,472.215C647.358,476.013 655.096,482.233 667.599,482.956C715.595,485.731 682.044,437.03 638.251,430.46C629.494,429.146 623.796,433.209 617.005,440.312C610.204,447.426 593.734,441.401 583.219,434.048C576.465,429.324 544.816,365.021 538.348,351.898C534.292,353.785 529.501,355.474 524.448,356.603C516.246,358.435 504.083,358.594 492.24,357.837Z" style="fill:rgb(122,59,139);fill-rule:nonzero;"/>
                            </g>
                            <g id="path25081" serif:id="path2508" transform="matrix(0.2877,0,0,0.2877,516.775,4157.63)">
                                <path d="M359.134,465.878C350.335,438.714 322.362,459.533 303.597,461.349C286.184,463.035 276.534,451.621 278.098,435.688C279.526,421.133 292.363,415.483 302.852,414.503C313.078,413.546 318.002,416.258 331.891,425.291C345.944,434.431 357.31,419.228 358.457,412.938C359.428,407.607 350.522,373.831 349.487,364.135C349.128,360.77 349.81,356.362 350.282,353.377C343.984,354.911 340.9,355.673 335.278,357.024C305.621,364.15 280.635,355.957 272.417,348.463C265.013,341.711 280.542,331.883 285.038,328.205C289.482,324.57 292.678,317.566 290.651,307.757C288.755,298.578 266.931,292.372 248.835,302.913C229.544,314.151 245.449,333.663 248.838,337.796C253.502,343.483 244.638,350.851 231.847,351.915C223.199,352.636 181.441,351.738 166.664,351.404C154.486,382.807 144.002,409.227 139.129,420.817C127.957,447.385 157.277,438.146 162.756,437.005C169.006,435.703 175.462,427.218 191.02,426.256C231.288,423.764 219.35,479.131 177.858,480.07C161.922,480.431 152.036,464.256 147.974,461.002C143.722,457.596 129.938,456.765 120.731,470.8C116.822,476.758 106.442,493.79 100.999,508.134C93.756,527.225 91.785,543.851 91.634,545.306C92.542,545.123 105.202,542.691 127.209,541.094C139.421,540.208 153.113,539.679 167.95,539.679C217.387,539.679 219.228,563.616 211.899,575.076C204.043,587.359 193.872,586.601 188.262,603.172C167.299,665.096 273.56,661.503 272.915,604.939C272.741,589.743 259.764,589.608 255.807,573.807C248.081,542.956 272.453,536.393 287.518,537.683C294.142,538.249 324.419,543.072 357.668,544.664L359.236,544.735C363.894,527.114 366.24,515.065 366.13,510.414C365.775,495.389 363.646,479.807 359.134,465.878Z" style="fill:rgb(0,167,109);fill-rule:nonzero;"/>
                            </g>
                        </g>
                    </g>
                    <g id="Gopher" transform="matrix(0.0986482,0,0,0.528473,407.686,21.1071)">
                        <path d="M381.081,363.552C378.301,364.788 373.668,395.058 387.876,396.602C397.452,397.529 423.707,400.618 429.884,396.602C441.931,388.88 440.695,370.347 433.9,365.714C422.471,358.301 384.17,362.008 381.081,363.552ZM302.625,136.834C270.811,133.127 217.375,162.78 209.344,225.792C200.695,291.274 277.915,356.139 352.046,291.274C391.892,256.371 405.792,148.88 302.625,136.834ZM517.606,136.834C414.44,148.88 428.34,256.371 468.185,291.274C542.317,356.139 619.537,291.274 610.888,225.792C603.166,162.78 549.73,133.127 517.606,136.834Z" style="fill:white;fill-rule:nonzero;"/>
                        <path d="M715.598,106.873C739.382,155.985 667.104,161.236 670.811,183.166C677.606,222.703 672.973,281.39 667.722,339.151C658.764,437.066 731.969,671.506 579.382,765.714C550.656,783.629 482.394,793.514 415.058,795.058L414.44,795.058C347.104,793.514 269.575,783.629 240.849,765.714C88.571,671.506 161.776,437.066 153.127,339.151C147.568,281.39 142.934,222.703 150.039,183.166C153.745,161.236 81.467,156.293 105.251,106.873C125.637,64.556 175.985,101.931 188.649,88.649C253.205,21.622 331.66,3.707 393.436,2.162L427.413,2.162C488.88,5.251 567.336,21.931 632.201,88.649C644.865,101.931 694.903,64.556 715.598,106.873ZM381.081,363.552C378.301,364.788 373.668,395.058 387.876,396.602C397.452,397.529 423.707,400.618 429.884,396.602C441.931,388.88 440.695,370.347 433.9,365.714C422.471,358.301 384.17,362.008 381.081,363.552ZM302.625,136.834C270.811,133.127 217.375,162.78 209.344,225.792C200.695,291.274 277.915,356.139 352.046,291.274C391.892,256.371 405.792,148.88 302.625,136.834ZM517.606,136.834C414.44,148.88 428.34,256.371 468.185,291.274C542.317,356.139 619.537,291.274 610.888,225.792C603.166,162.78 549.73,133.127 517.606,136.834Z" style="fill:url(#_Linear2);fill-rule:nonzero;"/>
                        <path d="M410.425,299.614C429.884,296.834 476.525,319.073 473.436,345.328C469.73,375.907 353.282,379.923 347.104,343.475C343.398,321.236 361.004,307.027 410.425,299.614ZM608.726,769.73C614.903,778.687 615.212,784.865 605.328,789.498C567.645,806.795 533.977,783.629 546.641,777.143C573.514,763.552 590.193,742.239 608.726,769.73ZM211.815,772.819C230.347,745.328 247.027,766.641 273.9,780.232C286.564,786.718 252.896,809.884 215.212,792.587C205.328,787.954 205.637,781.776 211.815,772.819Z" style="fill:rgb(172,163,155);fill-rule:nonzero;"/>
                        <path d="M657.838,114.286C659.382,107.799 675.444,104.71 684.402,115.83C695.212,129.112 668.649,147.336 667.413,139.923C664.324,119.846 655.985,120.772 657.838,114.286ZM162.703,114.286C164.556,120.772 156.216,119.846 153.127,139.923C151.892,147.336 125.328,129.112 136.139,115.83C144.788,104.71 160.849,107.799 162.703,114.286ZM524.71,264.71C505.263,264.71 489.498,248.945 489.498,229.498C489.498,210.051 505.263,194.286 524.71,194.286C544.158,194.286 559.923,210.051 559.923,229.498C559.923,248.945 544.158,264.71 524.71,264.71ZM515.444,225.483C521.585,225.483 526.564,220.504 526.564,214.363C526.564,208.222 521.585,203.243 515.444,203.243C509.303,203.243 504.324,208.222 504.324,214.363C504.324,220.504 509.303,225.483 515.444,225.483ZM378.61,314.44C382.317,300.232 395.29,295.598 405.792,295.29C432.664,294.672 442.857,309.189 443.784,320.618C445.637,340.077 370.27,344.71 378.61,314.44ZM295.83,264.71C276.383,264.71 260.618,248.945 260.618,229.498C260.618,210.051 276.383,194.286 295.83,194.286C315.277,194.286 331.042,210.051 331.042,229.498C331.042,248.945 315.277,264.71 295.83,264.71ZM305.097,225.483C311.238,225.483 316.216,220.504 316.216,214.363C316.216,208.222 311.238,203.243 305.097,203.243C298.955,203.243 293.977,208.222 293.977,214.363C293.977,220.504 298.955,225.483 305.097,225.483Z" style="fill:rgb(65,65,65);fill-rule:nonzero;"/>
                    </g>
                    <g transform="matrix(0.862402,0,0,0.862402,71.4465,-81.9038)">
                        <g id="path2506" transform="matrix(0.176955,-0.32287,0.0602691,0.947971,376.007,281.429)">
                            <path d="M302.965,169.854C320.042,187.643 306.384,216.681 277.093,218.223C247.534,219.778 227.106,185.171 252.725,164.609C262.935,156.415 260.497,142.115 242.222,134.983C216.858,125.085 152.983,135.733 152.983,135.733C152.983,135.733 163.327,163.106 163.857,196.476C164.232,220.097 131.236,217.473 125.612,214.848C119.987,212.224 108.364,201.725 100.115,201.725C48.027,201.725 52.426,273.837 102.365,260.217C110.613,257.968 118.862,248.969 131.236,250.469C143.61,251.968 149.984,260.592 149.984,274.091C149.984,280.51 149.475,309.236 148.78,340.863C181.598,341.67 223.049,342.459 232.474,341.582C248.596,340.083 258.345,329.583 250.846,321.335C243.347,313.086 218.6,284.589 241.472,267.341C264.344,250.094 298.09,259.842 302.215,275.215C306.339,290.588 302.965,301.462 297.34,307.086C291.716,312.711 272.968,326.959 283.842,336.708C294.716,346.457 326.211,358.83 364.832,348.707C372.028,346.82 378.36,345.128 384.028,343.631C385.615,335 387.732,324.987 387.285,314.228C386.523,295.9 378.788,275.564 377.205,264.342C373.081,235.096 411.701,232.846 418.825,239.97C425.949,247.094 440.197,251.593 444.697,251.593C482.222,251.593 487.058,196.536 442.447,197.975C430.824,198.35 420.325,205.474 417.325,206.974C414.326,208.474 416.576,211.474 398.578,212.224C380.58,212.973 374.58,199.85 374.205,182.227C373.996,172.39 377.523,148.968 380.681,130.191C352.814,129.67 324.9,126.961 316.838,125.984C295.819,123.437 279.614,145.53 302.965,169.854Z" style="fill:rgb(115,1,60);fill-rule:nonzero;"/>
                        </g>
                        <g id="path25061" serif:id="path2506" transform="matrix(0.176955,-0.32287,0.0602691,0.947971,374.983,275.943)">
                            <path d="M302.965,169.854C320.042,187.643 306.384,216.681 277.093,218.223C247.534,219.778 227.106,185.171 252.725,164.609C262.935,156.415 260.497,142.115 242.222,134.983C216.858,125.085 152.983,135.733 152.983,135.733C152.983,135.733 163.327,163.106 163.857,196.476C164.232,220.097 131.236,217.473 125.612,214.848C119.987,212.224 108.364,201.725 100.115,201.725C48.027,201.725 52.426,273.837 102.365,260.217C110.613,257.968 118.862,248.969 131.236,250.469C143.61,251.968 149.984,260.592 149.984,274.091C149.984,280.51 149.475,309.236 148.78,340.863C181.598,341.67 223.049,342.459 232.474,341.582C248.596,340.083 258.345,329.583 250.846,321.335C243.347,313.086 218.6,284.589 241.472,267.341C264.344,250.094 298.09,259.842 302.215,275.215C306.339,290.588 302.965,301.462 297.34,307.086C291.716,312.711 272.968,326.959 283.842,336.708C294.716,346.457 326.211,358.83 364.832,348.707C372.028,346.82 378.36,345.128 384.028,343.631C385.615,335 387.732,324.987 387.285,314.228C386.523,295.9 378.788,275.564 377.205,264.342C373.081,235.096 411.701,232.846 418.825,239.97C425.949,247.094 440.197,251.593 444.697,251.593C482.222,251.593 487.058,196.536 442.447,197.975C430.824,198.35 420.325,205.474 417.325,206.974C414.326,208.474 416.576,211.474 398.578,212.224C380.58,212.973 374.58,199.85 374.205,182.227C373.996,172.39 377.523,148.968 380.681,130.191C352.814,129.67 324.9,126.961 316.838,125.984C295.819,123.437 279.614,145.53 302.965,169.854Z" style="fill:rgb(225,2,113);fill-rule:nonzero;"/>
                        </g>
                    </g>
                    <g transform="matrix(0.126878,0.324534,-0.0605796,0.679702,413.472,-316.087)">
                        <path d="M673.282,545.792C663.707,545.483 657.529,532.819 657.529,525.097C657.529,511.197 659.382,494.826 669.575,487.722C690.579,473.205 707.259,546.1 673.282,545.792Z" style="fill:rgb(172,163,155);fill-rule:nonzero;"/>
                    </g>
                    <g transform="matrix(0.119998,-0.392512,0.0732688,0.642846,343.056,179.616)">
                        <path d="M425.318,550.105C391.341,550.413 408.02,477.518 429.024,492.035C439.217,499.139 441.071,515.51 441.071,529.41C441.071,537.132 434.893,549.796 425.318,550.105Z" style="fill:rgb(172,163,155);fill-rule:nonzero;"/>
                    </g>
                </g>
            </g>
        </g>
    </g>
    <defs>
        <linearGradient id="_Linear2" x1="0" y1="0" x2="1" y2="0" gradientUnits="userSpaceOnUse" gradientTransform="matrix(619.975,0,0,792.896,100.437,398.61)"><stop offset="0" style="stop-color:rgb(15,123,193);stop-opacity:1"/><stop offset="1" style="stop-color:rgb(91,203,245);stop-opacity:1"/></linearGradient>
    </defs>
</svg>
