<?xml version="1.0" encoding="UTF-8" standalone="no"?>
<!DOCTYPE svg PUBLIC "-//W3C//DTD SVG 1.1//EN" "http://www.w3.org/Graphics/SVG/1.1/DTD/svg11.dtd">
<svg width="100%" height="100%" viewBox="0 0 601 140" version="1.1" xmlns="http://www.w3.org/2000/svg" xmlns:xlink="http://www.w3.org/1999/xlink" xml:space="preserve" xmlns:serif="http://www.serif.com/" style="fill-rule:evenodd;clip-rule:evenodd;stroke-linejoin:round;stroke-miterlimit:2;">
    <g transform="matrix(1,0,0,1,-200,-2320)">
        <g id="Hello-World" serif:id="Hello World" transform="matrix(0.585938,0,0,0.182292,200.677,2320)">
            <rect x="0" y="0" width="1024" height="768" style="fill:none;"/>
            <g transform="matrix(1.75758,0,0,1.05455,-390.291,-41.593)">
                <g transform="matrix(0.973836,0,0,0.973836,-20.1621,31.0115)">
                    <g id="Gopher" transform="matrix(0.113657,0,0,0.6036,464.58,268.953)">
                        <path d="M381.081,363.552C378.301,364.788 373.668,395.058 387.876,396.602C397.452,397.529 423.707,400.618 429.884,396.602C441.931,388.88 440.695,370.347 433.9,365.714C422.471,358.301 384.17,362.008 381.081,363.552ZM302.625,136.834C270.811,133.127 217.375,162.78 209.344,225.792C200.695,291.274 277.915,356.139 352.046,291.274C391.892,256.371 405.792,148.88 302.625,136.834ZM517.606,136.834C414.44,148.88 428.34,256.371 468.185,291.274C542.317,356.139 619.537,291.274 610.888,225.792C603.166,162.78 549.73,133.127 517.606,136.834Z" style="fill:white;fill-rule:nonzero;"/>
                        <path d="M142.985,539.869C142.788,467.423 107.899,399.539 49.32,357.626C34.738,347.103 24.493,339.773 24.493,339.773L43.503,283.52C43.503,283.52 114.211,336.187 142.388,357.175C144.591,358.82 147.532,359.051 149.96,357.769C152.389,356.488 153.878,353.919 153.794,351.155C153.676,346.959 153.463,342.952 153.127,339.151C147.568,281.39 142.934,222.703 150.039,183.166C153.745,161.236 81.467,156.293 105.251,106.873C125.637,64.556 175.985,101.931 188.649,88.649C253.205,21.622 331.66,3.707 393.436,2.162L427.413,2.162C488.88,5.251 567.336,21.931 632.201,88.649C644.865,101.931 694.903,64.556 715.598,106.873C739.382,155.985 667.104,161.236 670.811,183.166C677.606,222.703 672.973,281.39 667.722,339.151C658.764,437.066 731.969,671.506 579.382,765.714C550.656,783.629 482.394,793.514 415.058,795.058L414.44,795.058C347.104,793.514 269.575,783.629 240.849,765.714C160.424,715.958 142.895,627.085 142.985,539.869ZM517.606,136.834C414.44,148.88 428.34,256.371 468.185,291.274C542.317,356.139 619.537,291.274 610.888,225.792C603.166,162.78 549.73,133.127 517.606,136.834ZM381.081,363.552C378.301,364.788 373.668,395.058 387.876,396.602C397.452,397.529 423.707,400.618 429.884,396.602C441.931,388.88 440.695,370.347 433.9,365.714C422.471,358.301 384.17,362.008 381.081,363.552ZM302.625,136.834C270.811,133.127 217.375,162.78 209.344,225.792C200.695,291.274 277.915,356.139 352.046,291.274C391.892,256.371 405.792,148.88 302.625,136.834Z" style="fill:url(#_Linear1);"/>
                        <path d="M410.425,299.614C429.884,296.834 476.525,319.073 473.436,345.328C469.73,375.907 353.282,379.923 347.104,343.475C343.398,321.236 361.004,307.027 410.425,299.614ZM608.726,769.73C614.903,778.687 615.212,784.865 605.328,789.498C567.645,806.795 533.977,783.629 546.641,777.143C573.514,763.552 590.193,742.239 608.726,769.73ZM211.815,772.819C230.347,745.328 247.027,766.641 273.9,780.232C286.564,786.718 252.896,809.884 215.212,792.587C205.328,787.954 205.637,781.776 211.815,772.819Z" style="fill:rgb(172,163,155);fill-rule:nonzero;"/>
                        <path d="M657.838,114.286C659.382,107.799 675.444,104.71 684.402,115.83C695.212,129.112 668.649,147.336 667.413,139.923C664.324,119.846 655.985,120.772 657.838,114.286ZM162.703,114.286C164.556,120.772 156.216,119.846 153.127,139.923C151.892,147.336 125.328,129.112 136.139,115.83C144.788,104.71 160.849,107.799 162.703,114.286ZM526.316,264.71C506.869,264.71 491.104,248.945 491.104,229.498C491.104,210.051 506.869,194.286 526.316,194.286C545.764,194.286 561.529,210.051 561.529,229.498C561.529,248.945 545.764,264.71 526.316,264.71ZM517.05,225.483C523.191,225.483 528.17,220.504 528.17,214.363C528.17,208.222 523.191,203.243 517.05,203.243C510.909,203.243 505.93,208.222 505.93,214.363C505.93,220.504 510.909,225.483 517.05,225.483ZM378.61,314.44C382.317,300.232 395.29,295.598 405.792,295.29C432.664,294.672 442.857,309.189 443.784,320.618C445.637,340.077 370.27,344.71 378.61,314.44ZM294.224,264.71C274.777,264.71 259.012,248.945 259.012,229.498C259.012,210.051 274.777,194.286 294.224,194.286C313.672,194.286 329.437,210.051 329.437,229.498C329.437,248.945 313.672,264.71 294.224,264.71ZM303.491,225.483C309.632,225.483 314.61,220.504 314.61,214.363C314.61,208.222 309.632,203.243 303.491,203.243C297.349,203.243 292.371,208.222 292.371,214.363C292.371,220.504 297.349,225.483 303.491,225.483Z" style="fill:rgb(65,65,65);fill-rule:nonzero;"/>
                    </g>
                    <g transform="matrix(0.159715,-5.16851e-17,0,0.86834,435.357,164.84)">
                        <path d="M654.229,501.986C644.654,501.677 638.476,489.013 638.476,481.291C638.476,467.392 640.329,451.021 650.522,443.917C671.526,429.399 688.206,502.295 654.229,501.986Z" style="fill:rgb(172,163,155);fill-rule:nonzero;"/>
                    </g>
                    <g transform="matrix(0.173028,-0.764621,0.127942,0.830902,375.979,129.803)">
                        <path d="M147.259,545.792C113.282,546.1 129.961,473.205 150.965,487.722C161.158,494.826 163.012,511.197 163.012,525.097C163.012,532.819 156.834,545.483 147.259,545.792Z" style="fill:rgb(172,163,155);fill-rule:nonzero;"/>
                    </g>
                </g>
                <g transform="matrix(-0.391198,0,0,2.0957,606.638,-1251.55)">
                    <path d="M326.1,726.474C320.517,747.041 302.096,766.074 274.21,780.077C269.628,782.403 266.318,784.328 265.47,787.93L265.429,788.104L265.399,788.28C265.227,789.317 263.162,803.258 262.277,809.235C261.444,815.105 260.708,819.94 260.164,823.322C255.518,821.101 247.906,817.413 237.79,812.461C211.183,799.361 209.185,798.838 206.877,798.838C206.307,798.838 205.754,798.915 205.227,799.067C204.236,799.243 200.292,799.654 194.98,800.02C188.793,800.447 182.544,800.663 176.405,800.663L176.395,800.663C116.064,800.661 61.638,779.781 37.741,747.469C26.2,731.865 22.861,714.599 28.088,697.533C33.703,679.106 52.483,659.939 77.101,647.511C82.629,644.717 97.746,638.687 104.503,636.579C118.245,632.327 132.741,629.328 148.839,627.408C154.551,626.705 164.71,626.285 176.015,626.285C187.502,626.285 198.052,626.707 204.227,627.413C268.153,634.833 315.992,663.419 326.1,700.226C327.827,706.575 327.825,720.072 326.1,726.474Z" style="fill:white;fill-rule:nonzero;stroke:rgb(32,32,32);stroke-width:2.48px;"/>
                </g>
                <g transform="matrix(0.653485,0,0,3.50082,402.196,-7600.46)">
                    <g transform="matrix(36,0,0,36,156.56,2232.77)">
                        <path d="M0.607,-0.004C0.6,-0.002 0.588,0 0.573,0.002C0.557,0.004 0.541,0.005 0.526,0.005C0.511,0.005 0.497,0.004 0.486,0.002C0.474,-0.001 0.464,-0.005 0.456,-0.011C0.448,-0.017 0.442,-0.025 0.438,-0.036C0.434,-0.047 0.432,-0.061 0.432,-0.078L0.432,-0.234L0.24,-0.234L0.24,-0.004C0.233,-0.002 0.221,0 0.206,0.002C0.19,0.004 0.174,0.005 0.159,0.005C0.144,0.005 0.13,0.004 0.119,0.002C0.107,-0.001 0.097,-0.005 0.089,-0.011C0.081,-0.017 0.075,-0.025 0.071,-0.036C0.067,-0.047 0.065,-0.061 0.065,-0.078L0.065,-0.606C0.072,-0.607 0.084,-0.609 0.1,-0.612C0.116,-0.614 0.131,-0.615 0.146,-0.615C0.161,-0.615 0.175,-0.614 0.187,-0.612C0.198,-0.609 0.208,-0.605 0.216,-0.599C0.224,-0.593 0.23,-0.585 0.234,-0.574C0.238,-0.563 0.24,-0.549 0.24,-0.532L0.24,-0.372L0.432,-0.372L0.432,-0.606C0.439,-0.607 0.451,-0.609 0.467,-0.612C0.483,-0.614 0.498,-0.615 0.513,-0.615C0.528,-0.615 0.542,-0.614 0.554,-0.612C0.565,-0.609 0.575,-0.605 0.583,-0.599C0.591,-0.593 0.597,-0.585 0.601,-0.574C0.605,-0.563 0.607,-0.549 0.607,-0.532L0.607,-0.004Z" style="fill:rgb(32,32,32);fill-rule:nonzero;stroke:rgb(32,32,32);stroke-width:0.04px;"/>
                    </g>
                    <g transform="matrix(36,0,0,36,180.752,2232.77)">
                        <path d="M0.065,-0.513C0.065,-0.542 0.073,-0.564 0.09,-0.581C0.107,-0.598 0.129,-0.606 0.158,-0.606L0.488,-0.606C0.493,-0.599 0.497,-0.589 0.501,-0.577C0.504,-0.565 0.506,-0.552 0.506,-0.539C0.506,-0.514 0.501,-0.496 0.49,-0.485C0.478,-0.474 0.464,-0.469 0.446,-0.469L0.235,-0.469L0.235,-0.376L0.46,-0.376C0.465,-0.369 0.469,-0.359 0.473,-0.348C0.476,-0.336 0.478,-0.323 0.478,-0.31C0.478,-0.285 0.473,-0.267 0.462,-0.256C0.451,-0.245 0.437,-0.24 0.419,-0.24L0.235,-0.24L0.235,-0.135L0.492,-0.135C0.497,-0.128 0.501,-0.118 0.505,-0.106C0.508,-0.094 0.51,-0.081 0.51,-0.068C0.51,-0.043 0.505,-0.024 0.494,-0.014C0.483,-0.003 0.468,0.003 0.45,0.003L0.158,0.003C0.129,0.003 0.107,-0.005 0.09,-0.022C0.073,-0.039 0.065,-0.061 0.065,-0.09L0.065,-0.513Z" style="fill:rgb(32,32,32);fill-rule:nonzero;stroke:rgb(32,32,32);stroke-width:0.04px;"/>
                    </g>
                    <g transform="matrix(36,0,0,36,200.48,2232.77)">
                        <path d="M0.158,0.003C0.129,0.003 0.107,-0.005 0.09,-0.022C0.073,-0.039 0.065,-0.061 0.065,-0.09L0.065,-0.607C0.072,-0.608 0.084,-0.61 0.1,-0.613C0.116,-0.615 0.131,-0.616 0.146,-0.616C0.161,-0.616 0.175,-0.615 0.187,-0.613C0.198,-0.61 0.208,-0.606 0.216,-0.6C0.224,-0.594 0.23,-0.586 0.234,-0.575C0.238,-0.564 0.24,-0.55 0.24,-0.533L0.24,-0.138L0.469,-0.138C0.474,-0.131 0.478,-0.121 0.482,-0.109C0.486,-0.096 0.488,-0.083 0.488,-0.07C0.488,-0.043 0.482,-0.024 0.471,-0.014C0.46,-0.003 0.445,0.003 0.426,0.003L0.158,0.003Z" style="fill:rgb(32,32,32);fill-rule:nonzero;stroke:rgb(32,32,32);stroke-width:0.04px;"/>
                    </g>
                    <g transform="matrix(36,0,0,36,218.948,2232.77)">
                        <path d="M0.158,0.003C0.129,0.003 0.107,-0.005 0.09,-0.022C0.073,-0.039 0.065,-0.061 0.065,-0.09L0.065,-0.607C0.072,-0.608 0.084,-0.61 0.1,-0.613C0.116,-0.615 0.131,-0.616 0.146,-0.616C0.161,-0.616 0.175,-0.615 0.187,-0.613C0.198,-0.61 0.208,-0.606 0.216,-0.6C0.224,-0.594 0.23,-0.586 0.234,-0.575C0.238,-0.564 0.24,-0.55 0.24,-0.533L0.24,-0.138L0.469,-0.138C0.474,-0.131 0.478,-0.121 0.482,-0.109C0.486,-0.096 0.488,-0.083 0.488,-0.07C0.488,-0.043 0.482,-0.024 0.471,-0.014C0.46,-0.003 0.445,0.003 0.426,0.003L0.158,0.003Z" style="fill:rgb(32,32,32);fill-rule:nonzero;stroke:rgb(32,32,32);stroke-width:0.04px;"/>
                    </g>
                    <g transform="matrix(36,0,0,36,237.056,2232.77)">
                        <path d="M0.555,-0.243C0.555,-0.202 0.549,-0.165 0.536,-0.133C0.523,-0.1 0.505,-0.073 0.483,-0.051C0.46,-0.029 0.432,-0.012 0.4,-0.001C0.368,0.01 0.332,0.016 0.293,0.016C0.254,0.016 0.218,0.01 0.186,-0.002C0.154,-0.014 0.127,-0.031 0.104,-0.054C0.081,-0.076 0.063,-0.103 0.05,-0.135C0.037,-0.167 0.031,-0.203 0.031,-0.243C0.031,-0.282 0.037,-0.318 0.05,-0.35C0.063,-0.382 0.081,-0.409 0.104,-0.432C0.127,-0.454 0.154,-0.471 0.186,-0.483C0.218,-0.495 0.254,-0.501 0.293,-0.501C0.332,-0.501 0.368,-0.495 0.4,-0.483C0.432,-0.47 0.46,-0.453 0.483,-0.431C0.505,-0.408 0.523,-0.381 0.536,-0.349C0.549,-0.317 0.555,-0.282 0.555,-0.243ZM0.205,-0.243C0.205,-0.202 0.213,-0.171 0.229,-0.15C0.244,-0.128 0.266,-0.117 0.294,-0.117C0.322,-0.117 0.343,-0.128 0.359,-0.15C0.374,-0.172 0.381,-0.203 0.381,-0.243C0.381,-0.283 0.373,-0.314 0.358,-0.336C0.343,-0.357 0.321,-0.368 0.293,-0.368C0.265,-0.368 0.243,-0.357 0.228,-0.336C0.213,-0.314 0.205,-0.283 0.205,-0.243Z" style="fill:rgb(32,32,32);fill-rule:nonzero;stroke:rgb(32,32,32);stroke-width:0.04px;"/>
                    </g>
                    <g transform="matrix(36,0,0,36,146.984,2268.77)">
                        <path d="M0.345,-0.458C0.352,-0.461 0.364,-0.465 0.38,-0.47C0.395,-0.474 0.411,-0.476 0.427,-0.476C0.455,-0.476 0.478,-0.472 0.497,-0.464C0.516,-0.455 0.527,-0.443 0.531,-0.427C0.538,-0.4 0.545,-0.374 0.552,-0.351C0.558,-0.327 0.564,-0.304 0.57,-0.283C0.576,-0.261 0.582,-0.239 0.588,-0.218C0.593,-0.197 0.599,-0.174 0.604,-0.151L0.609,-0.151C0.615,-0.192 0.62,-0.231 0.625,-0.268C0.63,-0.305 0.634,-0.341 0.638,-0.377C0.642,-0.412 0.646,-0.448 0.65,-0.483C0.654,-0.518 0.658,-0.553 0.662,-0.589C0.687,-0.603 0.713,-0.61 0.741,-0.61C0.766,-0.61 0.787,-0.605 0.805,-0.594C0.823,-0.583 0.832,-0.565 0.832,-0.54C0.832,-0.525 0.831,-0.505 0.828,-0.478C0.825,-0.451 0.821,-0.42 0.816,-0.387C0.811,-0.354 0.805,-0.319 0.798,-0.282C0.791,-0.245 0.784,-0.21 0.777,-0.177C0.77,-0.144 0.762,-0.114 0.755,-0.087C0.747,-0.059 0.74,-0.039 0.733,-0.024C0.723,-0.015 0.707,-0.007 0.684,-0.001C0.661,0.005 0.638,0.008 0.614,0.008C0.583,0.008 0.556,0.004 0.535,-0.005C0.513,-0.013 0.5,-0.025 0.495,-0.04C0.486,-0.067 0.477,-0.098 0.467,-0.135C0.457,-0.172 0.446,-0.212 0.435,-0.256C0.426,-0.213 0.416,-0.17 0.406,-0.129C0.396,-0.088 0.387,-0.053 0.379,-0.024C0.369,-0.015 0.354,-0.007 0.334,-0.001C0.314,0.005 0.292,0.008 0.268,0.008C0.238,0.008 0.211,0.004 0.187,-0.005C0.162,-0.013 0.146,-0.025 0.139,-0.04C0.133,-0.052 0.127,-0.07 0.12,-0.094C0.113,-0.117 0.105,-0.144 0.098,-0.175C0.091,-0.205 0.083,-0.238 0.076,-0.273C0.068,-0.308 0.061,-0.344 0.055,-0.379C0.048,-0.414 0.042,-0.449 0.037,-0.483C0.032,-0.516 0.028,-0.547 0.025,-0.575C0.034,-0.584 0.047,-0.592 0.064,-0.599C0.081,-0.606 0.099,-0.61 0.118,-0.61C0.143,-0.61 0.164,-0.604 0.181,-0.594C0.197,-0.583 0.207,-0.564 0.211,-0.538C0.222,-0.47 0.231,-0.413 0.238,-0.368C0.245,-0.323 0.25,-0.286 0.255,-0.257C0.259,-0.228 0.262,-0.205 0.264,-0.189C0.266,-0.173 0.268,-0.16 0.27,-0.151L0.275,-0.151C0.281,-0.178 0.287,-0.202 0.292,-0.225C0.297,-0.248 0.303,-0.271 0.309,-0.294C0.314,-0.317 0.32,-0.341 0.326,-0.368C0.332,-0.394 0.338,-0.424 0.345,-0.458Z" style="fill:rgb(32,32,32);fill-rule:nonzero;stroke:rgb(32,32,32);stroke-width:0.04px;"/>
                    </g>
                    <g transform="matrix(36,0,0,36,178.052,2268.77)">
                        <path d="M0.035,-0.304C0.035,-0.356 0.043,-0.402 0.06,-0.442C0.076,-0.482 0.098,-0.516 0.127,-0.543C0.155,-0.57 0.188,-0.59 0.227,-0.604C0.265,-0.618 0.306,-0.625 0.351,-0.625C0.396,-0.625 0.437,-0.618 0.476,-0.604C0.514,-0.59 0.547,-0.57 0.576,-0.543C0.605,-0.516 0.627,-0.482 0.644,-0.442C0.66,-0.402 0.668,-0.356 0.668,-0.304C0.668,-0.252 0.66,-0.206 0.644,-0.166C0.628,-0.125 0.606,-0.091 0.578,-0.065C0.549,-0.038 0.516,-0.017 0.477,-0.003C0.438,0.011 0.396,0.018 0.351,0.018C0.306,0.018 0.264,0.011 0.225,-0.004C0.186,-0.018 0.153,-0.039 0.125,-0.066C0.097,-0.093 0.075,-0.127 0.059,-0.167C0.043,-0.207 0.035,-0.253 0.035,-0.304ZM0.215,-0.304C0.215,-0.243 0.227,-0.198 0.252,-0.168C0.277,-0.138 0.31,-0.123 0.351,-0.123C0.393,-0.123 0.426,-0.138 0.451,-0.168C0.476,-0.198 0.488,-0.243 0.488,-0.304C0.488,-0.364 0.476,-0.409 0.452,-0.439C0.427,-0.469 0.394,-0.484 0.352,-0.484C0.311,-0.484 0.278,-0.469 0.253,-0.44C0.228,-0.41 0.215,-0.365 0.215,-0.304Z" style="fill:rgb(32,32,32);fill-rule:nonzero;stroke:rgb(32,32,32);stroke-width:0.04px;"/>
                    </g>
                    <g transform="matrix(36,0,0,36,203.36,2268.77)">
                        <path d="M0.239,-0.196L0.239,-0.004C0.232,-0.002 0.22,0 0.205,0.002C0.189,0.004 0.173,0.005 0.158,0.005C0.143,0.005 0.129,0.004 0.118,0.002C0.106,-0.001 0.096,-0.005 0.089,-0.011C0.081,-0.017 0.075,-0.025 0.071,-0.036C0.067,-0.047 0.065,-0.061 0.065,-0.078L0.065,-0.549C0.065,-0.563 0.069,-0.574 0.077,-0.582C0.084,-0.589 0.095,-0.595 0.108,-0.6C0.131,-0.608 0.157,-0.614 0.187,-0.618C0.217,-0.621 0.249,-0.623 0.283,-0.623C0.375,-0.623 0.444,-0.604 0.491,-0.565C0.538,-0.526 0.561,-0.474 0.561,-0.408C0.561,-0.367 0.55,-0.331 0.529,-0.302C0.508,-0.273 0.482,-0.25 0.453,-0.234C0.477,-0.201 0.501,-0.171 0.524,-0.142C0.547,-0.113 0.566,-0.087 0.579,-0.064C0.572,-0.041 0.56,-0.023 0.543,-0.011C0.525,0.002 0.505,0.008 0.483,0.008C0.468,0.008 0.456,0.006 0.445,0.003C0.434,-0 0.425,-0.005 0.417,-0.011C0.409,-0.017 0.402,-0.024 0.395,-0.033C0.388,-0.042 0.382,-0.051 0.376,-0.061L0.292,-0.196L0.239,-0.196ZM0.302,-0.329C0.327,-0.329 0.347,-0.335 0.362,-0.349C0.377,-0.362 0.384,-0.381 0.384,-0.406C0.384,-0.431 0.376,-0.451 0.36,-0.464C0.343,-0.476 0.317,-0.483 0.282,-0.483C0.272,-0.483 0.264,-0.483 0.258,-0.482C0.252,-0.481 0.245,-0.48 0.238,-0.479L0.238,-0.329L0.302,-0.329Z" style="fill:rgb(32,32,32);fill-rule:nonzero;stroke:rgb(32,32,32);stroke-width:0.04px;"/>
                    </g>
                    <g transform="matrix(36,0,0,36,225.284,2268.77)">
                        <path d="M0.158,0.003C0.129,0.003 0.107,-0.005 0.09,-0.022C0.073,-0.039 0.065,-0.061 0.065,-0.09L0.065,-0.607C0.072,-0.608 0.084,-0.61 0.1,-0.613C0.116,-0.615 0.131,-0.616 0.146,-0.616C0.161,-0.616 0.175,-0.615 0.187,-0.613C0.198,-0.61 0.208,-0.606 0.216,-0.6C0.224,-0.594 0.23,-0.586 0.234,-0.575C0.238,-0.564 0.24,-0.55 0.24,-0.533L0.24,-0.138L0.469,-0.138C0.474,-0.131 0.478,-0.121 0.482,-0.109C0.486,-0.096 0.488,-0.083 0.488,-0.07C0.488,-0.043 0.482,-0.024 0.471,-0.014C0.46,-0.003 0.445,0.003 0.426,0.003L0.158,0.003Z" style="fill:rgb(32,32,32);fill-rule:nonzero;stroke:rgb(32,32,32);stroke-width:0.04px;"/>
                    </g>
                    <g transform="matrix(36,0,0,36,243.752,2268.77)">
                        <path d="M0.239,-0.13C0.246,-0.129 0.255,-0.128 0.266,-0.127C0.277,-0.126 0.287,-0.125 0.296,-0.125C0.319,-0.125 0.339,-0.128 0.359,-0.135C0.378,-0.142 0.394,-0.152 0.408,-0.166C0.421,-0.18 0.432,-0.198 0.44,-0.221C0.447,-0.243 0.451,-0.27 0.451,-0.301C0.451,-0.361 0.437,-0.406 0.409,-0.437C0.381,-0.467 0.344,-0.482 0.297,-0.482C0.288,-0.482 0.278,-0.482 0.269,-0.481C0.259,-0.48 0.249,-0.479 0.239,-0.478L0.239,-0.13ZM0.295,0.016C0.284,0.016 0.271,0.016 0.256,0.015C0.241,0.014 0.226,0.013 0.211,0.011C0.195,0.009 0.179,0.007 0.164,0.004C0.148,0.001 0.133,-0.004 0.12,-0.009C0.083,-0.023 0.065,-0.047 0.065,-0.082L0.065,-0.549C0.065,-0.563 0.069,-0.574 0.077,-0.582C0.084,-0.589 0.095,-0.595 0.108,-0.6C0.137,-0.609 0.167,-0.616 0.199,-0.619C0.231,-0.622 0.26,-0.623 0.285,-0.623C0.337,-0.623 0.384,-0.617 0.427,-0.604C0.469,-0.591 0.505,-0.572 0.536,-0.546C0.566,-0.519 0.589,-0.486 0.606,-0.446C0.623,-0.406 0.631,-0.359 0.631,-0.304C0.631,-0.251 0.623,-0.204 0.607,-0.165C0.591,-0.125 0.568,-0.091 0.539,-0.065C0.509,-0.038 0.473,-0.017 0.432,-0.004C0.391,0.009 0.345,0.016 0.295,0.016Z" style="fill:rgb(32,32,32);fill-rule:nonzero;stroke:rgb(32,32,32);stroke-width:0.04px;"/>
                    </g>
                </g>
            </g>
        </g>
    </g>
    <defs>
        <linearGradient id="_Linear1" x1="0" y1="0" x2="1" y2="0" gradientUnits="userSpaceOnUse" gradientTransform="matrix(619.975,0,0,792.896,100.437,398.61)"><stop offset="0" style="stop-color:rgb(15,123,193);stop-opacity:1"/><stop offset="1" style="stop-color:rgb(91,203,245);stop-opacity:1"/></linearGradient>
    </defs>
</svg>
