<?xml version="1.0" encoding="UTF-8" standalone="no"?>
<!DOCTYPE svg PUBLIC "-//W3C//DTD SVG 1.1//EN" "http://www.w3.org/Graphics/SVG/1.1/DTD/svg11.dtd">
<svg width="100%" height="100%" viewBox="0 0 601 140" version="1.1" xmlns="http://www.w3.org/2000/svg" xmlns:xlink="http://www.w3.org/1999/xlink" xml:space="preserve" xmlns:serif="http://www.serif.com/" style="fill-rule:evenodd;clip-rule:evenodd;stroke-linejoin:round;stroke-miterlimit:2;">
    <g transform="matrix(1,0,0,1,-198,-3170)">
        <g id="IfElse" transform="matrix(0.585938,0,0,0.182292,198.553,3170)">
            <rect x="0" y="0" width="1024" height="768" style="fill:none;"/>
            <g transform="matrix(1.66667,0,0,1,-339.755,0)">
                <g transform="matrix(0.512859,0,0,2.74746,648.537,-8255.3)">
                    <rect x="-274.502" y="3064.16" width="16.551" height="218.078" style="fill:rgb(111,116,114);"/>
                </g>
                <g transform="matrix(0.801081,0,0,4.2915,734.345,-13008.8)">
                    <g transform="matrix(1.07316,0,0,1.44439,200.181,-1086.08)">
                        <path d="M-377.13,2894.45C-378.136,2895.26 -379.463,2895.64 -380.742,2895.7C-406.941,2896.78 -433.139,2897.86 -459.338,2898.93C-460.244,2898.97 -461.193,2898.76 -461.936,2898.22C-462.556,2897.78 -463.001,2897.09 -463.001,2896.31C-463.001,2888.31 -463.001,2880.31 -463.001,2872.31C-463.001,2871.51 -462.544,2870.79 -461.969,2870.27C-461.277,2869.64 -460.378,2869.25 -459.459,2869.12C-434.292,2865.48 -409.124,2861.84 -383.957,2858.2C-382.739,2858.03 -381.418,2858.14 -380.319,2858.73C-372.38,2862.98 -364.482,2867.31 -356.623,2871.71C-354.542,2872.88 -354.212,2875.29 -356.053,2876.87C-363.003,2882.82 -370.029,2888.68 -377.13,2894.45Z" style="fill:rgb(0,132,86);"/>
                    </g>
                    <g transform="matrix(1.07316,0,0,1.44439,198.181,-1088.08)">
                        <path d="M-377.13,2894.45C-378.136,2895.26 -379.463,2895.64 -380.742,2895.7C-406.941,2896.78 -433.139,2897.86 -459.338,2898.93C-460.244,2898.97 -461.193,2898.76 -461.936,2898.22C-462.556,2897.78 -463.001,2897.09 -463.001,2896.31C-463.001,2888.31 -463.001,2880.31 -463.001,2872.31C-463.001,2871.51 -462.544,2870.79 -461.969,2870.27C-461.277,2869.64 -460.378,2869.25 -459.459,2869.12C-434.292,2865.48 -409.124,2861.84 -383.957,2858.2C-382.739,2858.03 -381.418,2858.14 -380.319,2858.73C-372.38,2862.98 -364.482,2867.31 -356.623,2871.71C-354.542,2872.88 -354.212,2875.29 -356.053,2876.87C-363.003,2882.82 -370.029,2888.68 -377.13,2894.45Z" style="fill:rgb(0,167,109);"/>
                    </g>
                    <g transform="matrix(0.425401,0,0,0.466608,-51.0868,1687.72)">
                        <path d="M-526.924,2991.65C-526.868,2994.5 -526.812,2997.34 -526.755,3000.19C-528.56,3000.39 -530.365,3000.61 -532.17,3000.81C-535.621,3001.21 -540.365,3001.54 -543.121,2998.93C-544.675,2997.48 -545.046,2995.2 -545.073,2993.18C-545.189,2984.49 -545.305,2975.81 -545.42,2967.12C-547.36,2967.36 -549.299,2967.61 -551.238,2967.85C-551.267,2965.26 -551.296,2962.67 -551.325,2960.09C-549.391,2959.82 -547.457,2959.56 -545.524,2959.3C-545.575,2955.41 -545.626,2951.53 -545.677,2947.64C-542.048,2947.09 -538.42,2946.55 -534.791,2946C-534.724,2949.94 -534.656,2953.88 -534.589,2957.82C-532.263,2957.51 -529.937,2957.19 -527.61,2956.88C-527.558,2959.54 -527.506,2962.21 -527.453,2964.88C-529.787,2965.17 -532.12,2965.46 -534.453,2965.75C-534.323,2973.3 -534.193,2980.86 -534.062,2988.41C-534.046,2989.33 -534.119,2990.98 -533.33,2991.66C-532.397,2992.46 -530.234,2992.03 -529.17,2991.94C-528.802,2991.9 -528.435,2991.86 -528.068,2991.82C-527.686,2991.77 -527.305,2991.72 -526.924,2991.65Z" style="fill:rgb(32,32,32);stroke:rgb(32,32,32);stroke-width:2.86px;"/>
                        <path d="M-497.513,2963.19C-501.357,2963.66 -505.246,2965.23 -507.012,2968.91C-508.176,2971.35 -508.237,2974.32 -508.167,2976.95C-507.979,2984.05 -507.791,2991.16 -507.602,2998.26C-511.553,2998.57 -515.504,2998.89 -519.455,2999.2C-519.782,2984.64 -520.107,2970.07 -520.43,2955.51C-516.75,2955.01 -513.07,2954.51 -509.389,2954.01C-509.323,2956.56 -509.256,2959.11 -509.19,2961.66C-507.919,2959.34 -506.544,2956.87 -504.61,2955.02C-502.289,2952.76 -499.204,2951.56 -496.028,2951.13C-495.839,2951.1 -495.65,2951.08 -495.461,2951.07C-495.116,2951.05 -494.773,2951.02 -494.429,2950.99C-494.304,2954.99 -494.179,2958.98 -494.053,2962.98C-494.716,2962.99 -495.42,2963.01 -496.083,2963.06C-496.523,2963.09 -497.067,2963.14 -497.513,2963.19Z" style="fill:rgb(32,32,32);stroke:rgb(32,32,32);stroke-width:2.86px;"/>
                        <path d="M-455.027,2987.32C-455.214,2987.57 -455.828,2988.62 -455.878,2988.71C-456.325,2989.47 -456.877,2990.16 -457.517,2990.77C-459.176,2992.4 -461.053,2993.89 -463.208,2994.81C-465.268,2995.68 -467.5,2996.1 -469.722,2996.28C-475.397,2996.72 -481.362,2995.37 -484.314,2990.05C-486.267,2986.58 -486.618,2982.26 -486.75,2978.36C-487.058,2969.26 -487.366,2960.16 -487.672,2951.06C-483.488,2950.49 -479.304,2949.92 -475.119,2949.36C-474.768,2958.59 -474.416,2967.83 -474.063,2977.07C-473.988,2979.01 -473.822,2981.18 -472.866,2982.93C-471.469,2985.47 -468.639,2986.1 -465.939,2985.86C-462.07,2985.51 -458.701,2983.61 -457.175,2979.92C-456.25,2977.57 -456.123,2974.96 -456.234,2972.47C-456.611,2963.96 -456.987,2955.45 -457.362,2946.95C-453.013,2946.36 -448.663,2945.77 -444.314,2945.18C-443.54,2961.13 -442.762,2977.08 -441.982,2993.03C-446.23,2993.37 -450.479,2993.71 -454.727,2994.05C-454.827,2991.81 -454.927,2989.56 -455.027,2987.32Z" style="fill:rgb(32,32,32);stroke:rgb(32,32,32);stroke-width:2.86px;"/>
                        <path d="M-384.41,2973.29C-384.604,2976.94 -386.588,2980.25 -388.861,2983C-393.523,2988.77 -400.569,2991.43 -407.803,2991.99C-414.203,2992.49 -420.538,2990.95 -425.85,2987.31C-431.972,2983.11 -434.009,2975.57 -434.373,2968.52C-434.74,2961.4 -433.369,2954.07 -428.681,2948.5C-424.3,2943.29 -418.127,2940.33 -411.434,2939.41C-407.444,2938.87 -403.336,2938.97 -399.456,2940.12C-395.778,2941.2 -392.579,2943.42 -390.136,2946.36C-387.715,2949.22 -386.147,2952.68 -385.308,2956.31C-384.557,2959.6 -384.348,2963.01 -384.172,2966.37C-396.339,2967.62 -408.506,2968.88 -420.673,2970.14C-420.298,2974.08 -418.824,2978.12 -415.141,2980.08C-413.008,2981.24 -410.543,2981.54 -408.149,2981.33C-405.608,2981.1 -403.12,2980.22 -401.29,2978.39C-400.235,2977.35 -399.477,2976.03 -398.898,2974.68C-394.069,2974.22 -389.24,2973.75 -384.41,2973.29ZM-399.429,2959.22C-399.799,2956.38 -400.876,2953.51 -403.266,2951.76C-405.453,2950.16 -408.147,2949.68 -410.802,2950.01C-413.566,2950.36 -416.229,2951.48 -417.984,2953.71C-419.761,2955.97 -420.582,2958.81 -420.815,2961.64C-413.686,2960.84 -406.558,2960.03 -399.429,2959.22Z" style="fill:rgb(32,32,32);stroke:rgb(32,32,32);stroke-width:2.86px;"/>
                    </g>
                </g>
                <g transform="matrix(0.691631,0,0,3.70517,674.039,-10194.8)">
                    <g transform="matrix(-1.13197,-1.38626e-16,1.70103e-16,-1.389,-726.031,6873.41)">
                        <path d="M-357.429,2897.86C-358.368,2898.66 -359.595,2899.09 -360.824,2899.09C-393.658,2899.09 -426.493,2899.09 -459.327,2899.09C-460.291,2899.09 -461.24,2898.71 -461.929,2898.03C-462.607,2897.37 -463.001,2896.45 -463.001,2895.5C-463.001,2885.43 -463.001,2875.36 -463.001,2865.29C-463.001,2864.31 -462.591,2863.36 -461.924,2862.64C-461.244,2861.92 -460.302,2861.44 -459.308,2861.35C-426.275,2858.41 -393.242,2855.46 -360.209,2852.52C-359.017,2852.41 -357.777,2852.71 -356.824,2853.45C-349.299,2859.32 -341.826,2865.26 -334.407,2871.26C-333.399,2872.08 -332.797,2873.31 -332.818,2874.61C-332.84,2875.96 -333.512,2877.23 -334.518,2878.11C-342.106,2884.75 -349.743,2891.34 -357.429,2897.86Z" style="fill:rgb(168,1,87);"/>
                    </g>
                    <g transform="matrix(-1.13197,-1.38626e-16,1.70103e-16,-1.389,-724.031,6871.41)">
                        <path d="M-357.429,2897.86C-358.368,2898.66 -359.595,2899.09 -360.824,2899.09C-393.658,2899.09 -426.493,2899.09 -459.327,2899.09C-460.291,2899.09 -461.24,2898.71 -461.929,2898.03C-462.607,2897.37 -463.001,2896.45 -463.001,2895.5C-463.001,2885.43 -463.001,2875.36 -463.001,2865.29C-463.001,2864.31 -462.591,2863.36 -461.924,2862.64C-461.244,2861.92 -460.302,2861.44 -459.308,2861.35C-426.275,2858.41 -393.242,2855.46 -360.209,2852.52C-359.017,2852.41 -357.777,2852.71 -356.824,2853.45C-349.299,2859.32 -341.826,2865.26 -334.407,2871.26C-333.399,2872.08 -332.797,2873.31 -332.818,2874.61C-332.84,2875.96 -333.512,2877.23 -334.518,2878.11C-342.106,2884.75 -349.743,2891.34 -357.429,2897.86Z" style="fill:rgb(225,2,113);"/>
                    </g>
                    <g transform="matrix(0.448715,0,0,0.448715,-71.7553,1540.17)">
                        <path d="M-500.653,2933.9C-500.692,2938.26 -500.732,2942.61 -500.771,2946.97C-502.104,2946.82 -503.463,2946.84 -504.801,2946.84C-506.228,2946.84 -507.855,2947.15 -508.737,2948.38C-509.439,2949.37 -509.841,2950.53 -509.853,2951.74C-509.869,2953.48 -509.885,2955.22 -509.902,2956.96C-506.771,2956.84 -503.64,2956.72 -500.509,2956.59C-500.543,2960.37 -500.577,2964.15 -500.611,2967.93C-503.744,2968.08 -506.877,2968.23 -510.009,2968.38C-510.167,2985.05 -510.324,3001.72 -510.481,3018.39C-515.307,3018.8 -520.133,3019.22 -524.959,3019.64C-524.79,3002.78 -524.622,2985.93 -524.453,2969.07C-527.179,2969.2 -529.904,2969.33 -532.63,2969.46C-532.59,2965.59 -532.55,2961.72 -532.51,2957.84C-529.837,2957.74 -527.164,2957.63 -524.491,2957.53C-524.478,2956.19 -524.465,2954.85 -524.451,2953.51C-524.406,2949.01 -524.235,2943.32 -521.299,2939.6C-518.423,2934.52 -511.299,2933.79 -506.11,2933.68C-505.302,2933.66 -504.461,2933.67 -503.653,2933.71C-502.652,2933.77 -501.652,2933.84 -500.653,2933.9Z" style="fill:rgb(32,32,32);stroke:rgb(32,32,32);stroke-width:3.3px;"/>
                        <path d="M-490.365,2962.24C-486.083,2955.96 -478.548,2953.74 -471.287,2953.47C-466.009,2953.28 -460.683,2954.22 -456.014,2956.76C-450.858,2959.57 -449.465,2965.54 -449.503,2971C-449.566,2980.03 -449.63,2989.06 -449.693,2998.09C-449.708,3000.29 -449.682,3002.74 -449.646,3004.92C-449.594,3006.2 -449.586,3007.85 -448.867,3008.97C-448.397,3009.71 -447.678,3010.24 -446.888,3010.59C-446.893,3011.35 -446.898,3012.11 -446.904,3012.87C-451.838,3013.3 -456.773,3013.72 -461.707,3014.15C-462.084,3013.07 -462.383,3011.96 -462.548,3010.83C-462.722,3009.64 -462.83,3008.44 -462.907,3007.24C-464.803,3009.71 -467.032,3011.92 -469.529,3013.78C-472.505,3015.98 -476.023,3017.28 -479.702,3017.6C-484.077,3017.99 -488.435,3016.93 -491.73,3013.93C-495.365,3010.61 -496.456,3005.59 -496.414,3000.84C-496.355,2994.27 -494.07,2987.92 -488.574,2984C-484.987,2981.45 -480.512,2980.23 -476.26,2979.37C-474.684,2979.06 -473.108,2978.75 -471.532,2978.43C-469.693,2978.07 -467.708,2977.67 -466.049,2976.75C-464.28,2975.8 -463.091,2974.2 -463.075,2972.15C-463.061,2970.27 -463.53,2968.2 -465.277,2967.19C-467.223,2966.07 -469.69,2966.01 -471.872,2966.11C-474.486,2966.23 -477.259,2966.99 -478.864,2969.21C-480.022,2970.87 -480.578,2972.89 -480.869,2974.86C-485.396,2975.11 -489.922,2975.35 -494.448,2975.6C-494.147,2970.91 -493.01,2966.17 -490.365,2962.24ZM-480.279,3004.32C-478.947,3005.47 -477.233,3005.91 -475.497,3005.77C-472.404,3005.53 -469.567,3004.16 -467.235,3002.15C-464.112,2999.45 -463.367,2994.96 -463.266,2991.05C-463.251,2989.11 -463.237,2987.18 -463.222,2985.24C-464.047,2985.88 -464.927,2986.45 -465.862,2986.92C-467.022,2987.49 -468.279,2987.88 -469.524,2988.23C-470.561,2988.51 -471.599,2988.8 -472.637,2989.09C-474.79,2989.67 -477.126,2990.34 -478.95,2991.67C-481.197,2993.32 -482.221,2995.89 -482.244,2998.62C-482.26,3000.63 -481.934,3002.97 -480.279,3004.32Z" style="fill:rgb(32,32,32);stroke:rgb(32,32,32);stroke-width:3.3px;"/>
                        <path d="M-437.058,2933.04C-432.652,2932.94 -428.246,2932.85 -423.839,2932.75C-423.994,2958.8 -424.149,2984.85 -424.304,3010.91C-428.726,3011.29 -433.149,3011.67 -437.571,3012.06C-437.4,2985.72 -437.229,2959.38 -437.058,2933.04Z" style="fill:rgb(32,32,32);stroke:rgb(32,32,32);stroke-width:3.3px;"/>
                        <path d="M-377.791,2953.85C-373.33,2957.01 -371.85,2962.7 -371.447,2967.87C-375.599,2968.09 -379.752,2968.31 -383.904,2968.53C-384.041,2967.02 -384.37,2965.42 -385.251,2964.15C-386.863,2961.9 -389.723,2961.38 -392.323,2961.5C-394.316,2961.6 -396.679,2961.89 -398.242,2963.28C-399.289,2964.22 -400.022,2965.47 -400.029,2966.9C-400.037,2968.37 -399.493,2969.75 -398.165,2970.49C-394.484,2972.63 -389.059,2973.02 -384.984,2973.82C-380.929,2974.7 -376.752,2976.25 -373.836,2979.33C-371.275,2982.1 -370.212,2985.76 -370.226,2989.48C-370.245,2994.63 -371.987,2999.55 -375.52,3003.33C-379.716,3007.83 -386.038,3009.49 -391.968,3010.01C-397.803,3010.53 -404.522,3010.06 -409.006,3005.83C-412.9,3002.15 -414.535,2997 -414.505,2991.73C-410.139,2991.42 -405.772,2991.11 -401.406,2990.8C-401.226,2992.63 -400.933,2994.83 -399.681,2996.29C-397.614,2998.72 -393.852,2998.79 -390.937,2998.56C-388.889,2998.4 -386.755,2997.97 -385.017,2996.81C-383.631,2995.89 -382.825,2994.47 -382.818,2992.8C-382.812,2991.36 -383.331,2990 -384.565,2989.18C-388.089,2986.86 -393.757,2986.49 -397.746,2985.66C-401.826,2984.76 -406.427,2983.45 -409.483,2980.42C-412.157,2977.81 -412.903,2973.94 -412.883,2970.34C-412.855,2965.16 -410.922,2960.31 -407.431,2956.49C-403.572,2952.27 -398.046,2950.48 -392.448,2950.27C-387.364,2950.08 -382.053,2950.89 -377.791,2953.85Z" style="fill:rgb(32,32,32);stroke:rgb(32,32,32);stroke-width:3.3px;"/>
                        <path d="M-322.088,2986.49C-322.437,2990.12 -324.148,2993.47 -326.239,2996.4C-330.068,3001.86 -335.912,3005 -342.521,3005.59C-348.302,3006.1 -353.763,3004.13 -358.04,3000.24C-363.825,2994.97 -364.813,2986.17 -364.788,2978.8C-364.762,2971.14 -363.433,2962.87 -358.564,2956.67C-354.668,2951.71 -349.137,2948.76 -342.798,2948.52C-339.287,2948.39 -335.755,2949.02 -332.616,2950.64C-329.408,2952.29 -326.966,2955.05 -325.229,2958.17C-323.355,2961.47 -322.321,2965.17 -321.856,2968.92C-321.433,2972.38 -321.459,2975.9 -321.506,2979.37C-331.849,2980.05 -342.191,2980.74 -352.534,2981.42C-352.422,2985.38 -351.638,2990.07 -348.208,2992.57C-346.485,2993.85 -344.359,2994.3 -342.241,2994.14C-339.927,2993.96 -337.8,2992.97 -336.267,2991.21C-335.286,2990.1 -334.602,2988.74 -334.059,2987.36C-330.069,2987.07 -326.079,2986.78 -322.088,2986.49ZM-333.651,2970.96C-333.798,2968.05 -334.429,2964.9 -336.474,2962.7C-338.134,2960.91 -340.393,2960.01 -342.827,2960.13C-345.422,2960.25 -347.755,2961.39 -349.288,2963.51C-351.073,2965.99 -351.867,2969.04 -352.21,2972.03C-346.023,2971.67 -339.837,2971.32 -333.651,2970.96Z" style="fill:rgb(32,32,32);stroke:rgb(32,32,32);stroke-width:3.3px;"/>
                    </g>
                </g>
                <g transform="matrix(1,0,0,1,-40.96,0)">
                    <g id="Gopher" transform="matrix(0.0978604,0,0,0.524252,557.355,343.701)">
                        <path d="M673.282,545.792C663.707,545.483 657.529,532.819 657.529,525.097C657.529,511.197 659.382,494.826 669.575,487.722C690.579,473.205 707.259,546.1 673.282,545.792ZM147.259,545.792C113.282,546.1 129.961,473.205 150.965,487.722C161.158,494.826 163.012,511.197 163.012,525.097C163.012,532.819 156.834,545.483 147.259,545.792ZM608.726,769.73C614.903,778.687 615.212,784.865 605.328,789.498C567.645,806.795 533.977,783.629 546.641,777.143C573.514,763.552 590.193,742.239 608.726,769.73ZM211.815,772.819C230.347,745.328 247.027,766.641 273.9,780.232C286.564,786.718 252.896,809.884 215.212,792.587C205.328,787.954 205.637,781.776 211.815,772.819Z" style="fill:rgb(172,163,155);fill-rule:nonzero;"/>
                        <path d="M715.598,106.873C739.382,155.985 667.104,161.236 670.811,183.166C677.606,222.703 672.973,281.39 667.722,339.151C658.764,437.066 731.969,671.506 579.382,765.714C550.656,783.629 482.394,793.514 415.058,795.058L414.44,795.058C347.104,793.514 269.575,783.629 240.849,765.714C88.571,671.506 161.776,437.066 153.127,339.151C147.568,281.39 142.934,222.703 150.039,183.166C153.745,161.236 81.467,156.293 105.251,106.873C125.637,64.556 175.985,101.931 188.649,88.649C253.205,21.622 331.66,3.707 393.436,2.162L427.413,2.162C488.88,5.251 567.336,21.931 632.201,88.649C644.865,101.931 694.903,64.556 715.598,106.873Z" style="fill:url(#_Linear1);fill-rule:nonzero;"/>
                    </g>
                    <g transform="matrix(1,0,0,1,0,-16.4571)">
                        <g transform="matrix(1.024,0,0,5.48571,-87.2033,-17157.9)">
                            <path d="M674.705,3265.05C671.153,3264.12 668.675,3260.91 668.675,3257.24C668.675,3256.04 668.945,3254.85 669.465,3253.76" style="fill:none;stroke:rgb(0,124,183);stroke-width:1px;stroke-linecap:round;stroke-miterlimit:1.5;"/>
                        </g>
                        <g transform="matrix(-1.024,0,0,5.48571,1282.24,-17157.9)">
                            <path d="M674.705,3265.05C671.153,3264.12 668.675,3260.91 668.675,3257.24C668.675,3256.04 668.945,3254.85 669.465,3253.76" style="fill:none;stroke:rgb(0,124,183);stroke-width:1px;stroke-linecap:round;stroke-miterlimit:1.5;"/>
                        </g>
                    </g>
                </g>
            </g>
        </g>
    </g>
    <defs>
        <linearGradient id="_Linear1" x1="0" y1="0" x2="1" y2="0" gradientUnits="userSpaceOnUse" gradientTransform="matrix(619.975,0,0,792.896,100.437,398.61)"><stop offset="0" style="stop-color:rgb(15,123,193);stop-opacity:1"/><stop offset="1" style="stop-color:rgb(91,203,245);stop-opacity:1"/></linearGradient>
    </defs>
</svg>
