<?xml version="1.0" encoding="UTF-8" standalone="no"?>
<!DOCTYPE svg PUBLIC "-//W3C//DTD SVG 1.1//EN" "http://www.w3.org/Graphics/SVG/1.1/DTD/svg11.dtd">
<svg width="100%" height="100%" viewBox="0 0 601 140" version="1.1" xmlns="http://www.w3.org/2000/svg" xmlns:xlink="http://www.w3.org/1999/xlink" xml:space="preserve" xmlns:serif="http://www.serif.com/" style="fill-rule:evenodd;clip-rule:evenodd;stroke-linejoin:round;stroke-miterlimit:2;">
    <g transform="matrix(1,0,0,1,-202,-10670)">
        <g id="Mutexes" transform="matrix(0.585938,0,0,0.182292,202.392,10670)">
            <rect x="0" y="0" width="1024" height="768" style="fill:none;"/>
            <g transform="matrix(0.318095,0,0,1.02245,384.762,134.046)">
                <path d="M400,244.467C191.356,244.467 22.222,319.089 22.222,411.133C22.222,503.178 191.356,577.8 400,577.8C608.644,577.8 777.778,503.178 777.778,411.133C777.778,319.089 608.644,244.467 400,244.467Z" style="fill:rgb(65,65,65);fill-rule:nonzero;"/>
                <path d="M752.689,428.533C754.444,422.844 755.556,417.067 755.556,411.133C755.556,379.622 729.778,351.667 688.889,328.933L688.889,390.667C712.956,402 734.444,414.667 752.689,428.533ZM111.111,328.933C70.222,351.667 44.444,379.622 44.444,411.133C44.444,417.067 45.556,422.844 47.311,428.533C65.556,414.667 87.044,402 111.111,390.667L111.111,328.933Z" style="fill:rgb(127,132,130);fill-rule:nonzero;"/>
                <path d="M400,266.689C294.089,266.689 180.667,290.244 111.111,328.933L111.111,390.667C186.622,355.156 288.156,333.356 400,333.356C511.844,333.356 613.378,355.156 688.889,390.667L688.889,328.933C619.333,290.244 505.911,266.689 400,266.689Z" style="fill:rgb(111,116,114);fill-rule:nonzero;"/>
            </g>
            <g id="Gopher" transform="matrix(0.336286,0,0,1.08092,373.98,37.1721)">
                <path d="M381.081,363.552C378.301,364.788 373.668,395.058 387.876,396.602C397.452,397.529 423.707,400.618 429.884,396.602C441.931,388.88 440.695,370.347 433.9,365.714C422.471,358.301 384.17,362.008 381.081,363.552ZM302.625,136.834C270.811,133.127 217.375,162.78 209.344,225.792C200.695,291.274 277.915,356.139 352.046,291.274C391.892,256.371 405.792,148.88 302.625,136.834ZM517.606,136.834C414.44,148.88 428.34,256.371 468.185,291.274C542.317,356.139 619.537,291.274 610.888,225.792C603.166,162.78 549.73,133.127 517.606,136.834Z" style="fill:white;fill-rule:nonzero;"/>
                <path d="M144.301,579.296C137.772,488.672 157.897,393.15 153.127,339.151C147.568,281.39 142.934,222.703 150.039,183.166C153.745,161.236 81.467,156.293 105.251,106.873C125.637,64.556 175.985,101.931 188.649,88.649C253.205,21.622 331.66,3.707 393.436,2.162L427.413,2.162C488.88,5.251 567.336,21.931 632.201,88.649C644.865,101.931 694.903,64.556 715.598,106.873C739.382,155.985 667.104,161.236 670.811,183.166C677.606,222.703 672.973,281.39 667.722,339.151C662.779,393.186 682.858,488.801 676.202,579.481C610.789,614.281 515.949,636.166 410.425,636.166C304.714,636.166 209.725,614.204 144.301,579.296ZM302.625,136.834C270.811,133.127 217.375,162.78 209.344,225.792C200.695,291.274 277.915,356.139 352.046,291.274C391.892,256.371 405.792,148.88 302.625,136.834ZM381.081,363.552C378.301,364.788 373.668,395.058 387.876,396.602C397.452,397.529 423.707,400.618 429.884,396.602C441.931,388.88 440.695,370.347 433.9,365.714C422.471,358.301 384.17,362.008 381.081,363.552ZM517.606,136.834C414.44,148.88 428.34,256.371 468.185,291.274C542.317,356.139 619.537,291.274 610.888,225.792C603.166,162.78 549.73,133.127 517.606,136.834Z" style="fill:url(#_Linear1);"/>
                <path d="M410.425,299.614C429.884,296.834 476.525,319.073 473.436,345.328C469.73,375.907 353.282,379.923 347.104,343.475C343.398,321.236 361.004,307.027 410.425,299.614ZM673.282,545.792C663.707,545.483 657.529,532.819 657.529,525.097C657.529,511.197 659.382,494.826 669.575,487.722C690.579,473.205 707.259,546.1 673.282,545.792ZM147.259,545.792C113.282,546.1 129.961,473.205 150.965,487.722C161.158,494.826 163.012,511.197 163.012,525.097C163.012,532.819 156.834,545.483 147.259,545.792Z" style="fill:rgb(172,163,155);fill-rule:nonzero;"/>
                <path d="M657.838,114.286C659.382,107.799 675.444,104.71 684.402,115.83C695.212,129.112 668.649,147.336 667.413,139.923C664.324,119.846 655.985,120.772 657.838,114.286ZM162.703,114.286C164.556,120.772 156.216,119.846 153.127,139.923C151.892,147.336 125.328,129.112 136.139,115.83C144.788,104.71 160.849,107.799 162.703,114.286ZM524.71,264.71C505.263,264.71 489.498,248.945 489.498,229.498C489.498,210.051 505.263,194.286 524.71,194.286C544.158,194.286 559.923,210.051 559.923,229.498C559.923,248.945 544.158,264.71 524.71,264.71ZM515.444,225.483C521.585,225.483 526.564,220.504 526.564,214.363C526.564,208.222 521.585,203.243 515.444,203.243C509.303,203.243 504.324,208.222 504.324,214.363C504.324,220.504 509.303,225.483 515.444,225.483ZM378.61,314.44C382.317,300.232 395.29,295.598 405.792,295.29C432.664,294.672 442.857,309.189 443.784,320.618C445.637,340.077 370.27,344.71 378.61,314.44ZM295.83,264.71C276.383,264.71 260.618,248.945 260.618,229.498C260.618,210.051 276.383,194.286 295.83,194.286C315.277,194.286 331.042,210.051 331.042,229.498C331.042,248.945 315.277,264.71 295.83,264.71ZM305.097,225.483C311.238,225.483 316.216,220.504 316.216,214.363C316.216,208.222 311.238,203.243 305.097,203.243C298.955,203.243 293.977,208.222 293.977,214.363C293.977,220.504 298.955,225.483 305.097,225.483Z" style="fill:rgb(65,65,65);fill-rule:nonzero;"/>
            </g>
            <g transform="matrix(0.318095,0,0,1.02245,384.762,134.046)">
                <path d="M671.177,281.909C685.667,288.255 699.026,295.097 711.109,302.37C761.347,332.606 789.839,370.772 789.839,411.133C789.839,451.495 761.347,489.66 711.109,519.897C640.951,562.123 527.77,589.861 400,589.861C272.23,589.861 159.049,562.123 88.891,519.897C38.653,489.66 10.161,451.495 10.161,411.133C10.161,370.772 38.653,332.606 88.891,302.37C100.959,295.106 114.3,288.271 128.769,281.933C128.788,290.739 128.336,299.712 127.601,308.957C118.268,313.423 109.494,318.123 101.33,323.037C59.908,347.968 34.283,377.854 34.283,411.133C34.283,444.413 59.908,474.298 101.33,499.229C168.652,539.749 277.396,565.739 400,565.739C522.604,565.739 631.348,539.749 698.67,499.229C740.092,474.298 765.717,444.413 765.717,411.133C765.717,377.854 740.092,347.968 698.67,323.037C690.469,318.101 681.653,313.381 672.273,308.897C671.562,299.665 671.134,290.703 671.177,281.909ZM276.755,241.368C280.613,240.789 284.499,240.237 288.411,239.711C284.475,240.551 280.585,241.097 276.755,241.368ZM509.926,239.489C514.564,240.102 519.165,240.753 523.729,241.441C519.205,241.183 514.597,240.543 509.926,239.489Z" style="fill:rgb(65,65,65);"/>
            </g>
        </g>
    </g>
    <defs>
        <linearGradient id="_Linear1" x1="0" y1="0" x2="1" y2="0" gradientUnits="userSpaceOnUse" gradientTransform="matrix(619.975,0,0,792.896,100.437,398.61)"><stop offset="0" style="stop-color:rgb(15,123,193);stop-opacity:1"/><stop offset="1" style="stop-color:rgb(91,203,245);stop-opacity:1"/></linearGradient>
    </defs>
</svg>
