<?xml version="1.0" encoding="UTF-8" standalone="no"?>
<!DOCTYPE svg PUBLIC "-//W3C//DTD SVG 1.1//EN" "http://www.w3.org/Graphics/SVG/1.1/DTD/svg11.dtd">
<svg width="100%" height="100%" viewBox="0 0 601 140" version="1.1" xmlns="http://www.w3.org/2000/svg" xmlns:xlink="http://www.w3.org/1999/xlink" xml:space="preserve" xmlns:serif="http://www.serif.com/" style="fill-rule:evenodd;clip-rule:evenodd;stroke-linejoin:round;stroke-miterlimit:2;">
    <g transform="matrix(1,0,0,1,-201,-5720)">
        <g id="Panic" transform="matrix(0.585938,0,0,0.182292,201.763,5720)">
            <rect x="0" y="0" width="1024" height="768" style="fill:none;"/>
            <g id="Gopher" transform="matrix(0.274114,0,0,0.881081,394.359,58.6385)">
                <path d="M715.598,106.873C739.382,155.985 667.104,161.236 670.811,183.166C677.606,222.703 672.973,281.39 667.722,339.151C658.764,437.066 731.969,671.506 579.382,765.714C550.656,783.629 482.394,793.514 415.058,795.058L414.44,795.058C347.104,793.514 269.575,783.629 240.849,765.714C88.571,671.506 161.776,437.066 153.127,339.151C147.568,281.39 142.934,222.703 150.039,183.166C153.745,161.236 81.467,156.293 105.251,106.873C125.637,64.556 175.985,101.931 188.649,88.649C253.205,21.622 331.66,3.707 393.436,2.162L427.413,2.162C488.88,5.251 567.336,21.931 632.201,88.649C644.865,101.931 694.903,64.556 715.598,106.873Z" style="fill:url(#_Linear1);fill-rule:nonzero;"/>
                <g transform="matrix(6.22612,0,0,6.22612,-1582.32,-35769)">
                    <ellipse cx="320.038" cy="5810.12" rx="11.406" ry="13.958" style="fill:rgb(32,32,32);"/>
                    <path d="M320.038,5794.17C327.317,5794.17 333.444,5801.22 333.444,5810.12C333.444,5819.03 327.317,5826.08 320.038,5826.08C312.759,5826.08 306.632,5819.03 306.632,5810.12C306.632,5801.22 312.759,5794.17 320.038,5794.17ZM320.038,5796.17C313.743,5796.17 308.632,5802.42 308.632,5810.12C308.632,5817.83 313.743,5824.08 320.038,5824.08C326.333,5824.08 331.444,5817.83 331.444,5810.12C331.444,5802.42 326.333,5796.17 320.038,5796.17Z" style="fill:rgb(0,165,228);"/>
                </g>
                <g transform="matrix(1,0,0,1,0,-18.6784)">
                    <path d="M381.081,363.552C378.301,364.788 373.668,395.058 387.876,396.602C397.452,397.529 423.707,400.618 429.884,396.602C441.931,388.88 440.695,370.347 433.9,365.714C422.471,358.301 384.17,362.008 381.081,363.552Z" style="fill:white;fill-rule:nonzero;"/>
                </g>
                <g transform="matrix(6.96073,0,0,6.96073,-3075.37,-39916)">
                    <circle cx="482.025" cy="5766.4" r="15.62" style="fill:white;"/>
                </g>
                <g transform="matrix(6.96073,0,0,6.96073,-2815.09,-39916)">
                    <circle cx="482.025" cy="5766.4" r="15.62" style="fill:white;"/>
                </g>
                <path d="M410.425,280.936C429.884,278.156 476.525,300.395 473.436,326.65C469.73,357.229 353.282,361.244 347.104,324.797C343.398,302.557 361.004,288.349 410.425,280.936ZM608.726,769.73C614.903,778.687 615.212,784.865 605.328,789.498C567.645,806.795 533.977,783.629 546.641,777.143C573.514,763.552 590.193,742.239 608.726,769.73ZM211.815,772.819C230.347,745.328 247.027,766.641 273.9,780.232C286.564,786.718 252.896,809.884 215.212,792.587C205.328,787.954 205.637,781.776 211.815,772.819Z" style="fill:rgb(172,163,155);fill-rule:nonzero;"/>
                <g transform="matrix(1.53217,0.276763,-0.316787,1.75374,-195.336,-802.052)">
                    <path d="M673.282,545.792C663.707,545.483 657.529,532.819 657.529,525.097C657.529,511.197 659.382,494.826 669.575,487.722C690.579,473.205 707.259,546.1 673.282,545.792Z" style="fill:rgb(172,163,155);fill-rule:nonzero;"/>
                </g>
                <g transform="matrix(1.5429,-0.208799,0.238994,1.76603,-206.973,-590.883)">
                    <path d="M147.259,545.792C113.282,546.1 129.961,473.205 150.965,487.722C161.158,494.826 163.012,511.197 163.012,525.097C163.012,532.819 156.834,545.483 147.259,545.792Z" style="fill:rgb(172,163,155);fill-rule:nonzero;"/>
                </g>
                <path d="M657.838,114.286C659.382,107.799 675.444,104.71 684.402,115.83C695.212,129.112 668.649,147.336 667.413,139.923C664.324,119.846 655.985,120.772 657.838,114.286ZM162.703,114.286C164.556,120.772 156.216,119.846 153.127,139.923C151.892,147.336 125.328,129.112 136.139,115.83C144.788,104.71 160.849,107.799 162.703,114.286ZM543.389,258.484C523.942,258.484 508.176,242.719 508.176,223.272C508.176,203.825 523.942,188.06 543.389,188.06C562.836,188.06 578.601,203.825 578.601,223.272C578.601,242.719 562.836,258.484 543.389,258.484ZM540.157,216.345C546.298,216.345 551.277,211.366 551.277,205.225C551.277,199.084 546.298,194.106 540.157,194.106C534.016,194.106 529.038,199.084 529.038,205.225C529.038,211.366 534.016,216.345 540.157,216.345ZM378.61,301.988C382.317,287.779 395.29,283.146 405.792,282.837C432.664,282.22 442.857,296.737 443.784,308.166C445.637,327.625 370.27,332.258 378.61,301.988ZM277.152,258.484C257.705,258.484 241.939,242.719 241.939,223.272C241.939,203.825 257.705,188.06 277.152,188.06C296.599,188.06 312.364,203.825 312.364,223.272C312.364,242.719 296.599,258.484 277.152,258.484ZM279.876,216.752C286.017,216.752 290.996,211.774 290.996,205.632C290.996,199.491 286.017,194.513 279.876,194.513C273.735,194.513 268.756,199.491 268.756,205.632C268.756,211.774 273.735,216.752 279.876,216.752Z" style="fill:rgb(65,65,65);fill-rule:nonzero;"/>
            </g>
        </g>
    </g>
    <defs>
        <linearGradient id="_Linear1" x1="0" y1="0" x2="1" y2="0" gradientUnits="userSpaceOnUse" gradientTransform="matrix(619.975,0,0,792.896,100.437,398.61)"><stop offset="0" style="stop-color:rgb(15,123,193);stop-opacity:1"/><stop offset="1" style="stop-color:rgb(91,203,245);stop-opacity:1"/></linearGradient>
    </defs>
</svg>
