<?xml version="1.0" encoding="UTF-8" standalone="no"?>
<!DOCTYPE svg PUBLIC "-//W3C//DTD SVG 1.1//EN" "http://www.w3.org/Graphics/SVG/1.1/DTD/svg11.dtd">
<svg width="100%" height="100%" viewBox="0 0 601 140" version="1.1" xmlns="http://www.w3.org/2000/svg" xmlns:xlink="http://www.w3.org/1999/xlink" xml:space="preserve" xmlns:serif="http://www.serif.com/" style="fill-rule:evenodd;clip-rule:evenodd;stroke-linejoin:round;stroke-miterlimit:2;">
    <g transform="matrix(1,0,0,1,-199,-4530)">
        <g id="Pointers" transform="matrix(0.585938,0,0,0.182292,199.298,4530)">
            <rect x="0" y="0" width="1024" height="768" style="fill:none;"/>
            <g id="Gopher">
            </g>
            <g transform="matrix(2.47591,0,0,1.48555,-814.541,-26.6701)">
                <g transform="matrix(0.512859,0,0,1.68695,648.537,-5005.75)">
                    <rect x="-274.502" y="3064.16" width="16.551" height="218.078" style="fill:url(#_Linear1);"/>
                </g>
                <g transform="matrix(0.801081,0,0,4.2915,727.766,-13014.3)">
                    <g transform="matrix(1.07316,0,0,1.44439,200.181,-1086.08)">
                        <path d="M-377.13,2894.45C-378.136,2895.26 -379.463,2895.64 -380.742,2895.7C-406.941,2896.78 -433.139,2897.86 -459.338,2898.93C-460.244,2898.97 -461.193,2898.76 -461.936,2898.22C-462.556,2897.78 -463.001,2897.09 -463.001,2896.31C-463.001,2888.31 -463.001,2880.31 -463.001,2872.31C-463.001,2871.51 -462.544,2870.79 -461.969,2870.27C-461.277,2869.64 -460.378,2869.25 -459.459,2869.12C-434.292,2865.48 -409.124,2861.84 -383.957,2858.2C-382.739,2858.03 -381.418,2858.14 -380.319,2858.73C-372.38,2862.98 -364.482,2867.31 -356.623,2871.71C-354.542,2872.88 -354.212,2875.29 -356.053,2876.87C-363.003,2882.82 -370.029,2888.68 -377.13,2894.45Z" style="fill:rgb(0,132,86);"/>
                    </g>
                    <g transform="matrix(1.07316,0,0,1.44439,198.181,-1088.08)">
                        <path d="M-377.13,2894.45C-378.136,2895.26 -379.463,2895.64 -380.742,2895.7C-406.941,2896.78 -433.139,2897.86 -459.338,2898.93C-460.244,2898.97 -461.193,2898.76 -461.936,2898.22C-462.556,2897.78 -463.001,2897.09 -463.001,2896.31C-463.001,2888.31 -463.001,2880.31 -463.001,2872.31C-463.001,2871.51 -462.544,2870.79 -461.969,2870.27C-461.277,2869.64 -460.378,2869.25 -459.459,2869.12C-434.292,2865.48 -409.124,2861.84 -383.957,2858.2C-382.739,2858.03 -381.418,2858.14 -380.319,2858.73C-372.38,2862.98 -364.482,2867.31 -356.623,2871.71C-354.542,2872.88 -354.212,2875.29 -356.053,2876.87C-363.003,2882.82 -370.029,2888.68 -377.13,2894.45Z" style="fill:rgb(0,167,109);"/>
                    </g>
                    <g transform="matrix(1.27827,0,0,1.27827,-889.105,-2810.18)">
                        <g id="Gopher1" serif:id="Gopher" transform="matrix(0.0413141,0,0,0.040839,480.343,4586.36)">
                            <g>
                                <path d="M414.662,368.448C411.448,370.201 406.367,402.473 422.853,401.815C433.603,401.271 464.738,400.291 471.97,395.057C486.055,384.977 484.439,365.583 476.386,361.844C462.932,355.994 418.251,366.309 414.662,368.448ZM322.965,149.465C287.529,152.376 228.02,193.06 219.519,258.106C210.335,325.869 297.419,377.579 380.519,298.458C426.44,254.695 440.614,139.826 322.965,149.465ZM573.448,102.502C450.601,138.332 469.044,247.869 516.146,277.051C606.415,332.9 699.659,247.65 688.149,178.246C677.845,111.545 612.592,91.134 573.448,102.502Z" style="fill:rgb(0,233,152);fill-rule:nonzero;"/>
                                <path d="M817.503,23.283C848.442,72.164 757.194,95.146 762.137,118.423C771.282,160.785 766.228,227.303 760.526,291.592C754.833,355.32 784.85,468.092 773.261,573.93C765.974,640.476 741.568,720.528 656.332,773.24C621.616,794.904 539.789,810.838 458.444,817.472L457.716,817.516C380.326,820.638 290.739,816.093 258.007,799.765C89.225,716.335 168.903,479.714 158.705,381.046C152.383,324.749 147.054,267.453 154.534,226.937C158.437,204.468 80.89,214.072 106.039,160.763C127.701,114.89 182.31,141.064 195.992,125.2C225.678,91.071 295.956,20.593 425.663,-9.991L465.168,-18.418C538.123,-30.695 632.511,-32.787 712.655,23.556C728.601,35.045 790.759,-18.517 817.503,23.283ZM414.662,368.448C411.448,370.201 406.367,402.473 422.853,401.815C433.603,401.271 464.738,400.291 471.97,395.057C486.055,384.977 484.439,365.583 476.386,361.844C462.932,355.994 418.251,366.309 414.662,368.448ZM322.965,149.465C287.529,152.376 228.02,193.06 219.519,258.106C210.335,325.869 297.419,377.579 380.519,298.458C426.44,254.695 440.614,139.826 322.965,149.465ZM573.448,102.502C450.601,138.332 469.044,247.869 516.146,277.051C606.415,332.9 699.659,247.65 688.149,178.246C677.845,111.545 612.592,91.134 573.448,102.502Z" style="fill:rgb(0,118,76);fill-rule:nonzero;"/>
                                <path d="M448.213,296.52C471.186,289.98 526.345,305.143 522.965,333.465C518.909,366.397 382.74,390.223 375.289,353.321C370.803,330.729 391.451,313.044 448.213,296.52ZM770.55,520.11C758.512,521.078 750.512,507.902 750.401,499.318C750.211,484.664 752.046,465.676 765.022,456.07C791.407,436.674 813.528,515.776 770.55,520.11ZM153.42,587.326C116.6,591.645 134.338,517.414 157.143,529.066C168.587,534.974 170.395,551.889 170.466,564.791C170.508,572.507 163.814,585.886 153.42,587.326ZM692.757,775.244C700.496,784.527 701.108,791.396 688.795,797.302C642.533,819.09 600.809,796.415 616.243,788.35C649.024,771.409 669.409,746.569 692.757,775.244ZM225.662,809.118C246.149,779.829 265.019,800.256 295.315,812.187C309.671,817.923 271.91,843.992 229.564,828.914C218.423,824.849 218.981,818.463 225.662,809.118Z" style="fill:rgb(0,216,140);fill-rule:nonzero;"/>
                                <path d="M744.907,45.486C746.745,37.973 766.832,30.699 778.224,40.81C792.017,52.9 758.913,79.385 757.251,71.463C753.116,50.166 742.702,53.01 744.907,45.486ZM167.887,156.165C169.916,162.158 160.869,163.138 157.649,183.524C156.357,191.078 127.619,178.513 139.186,163.196C148.448,150.441 165.845,150.133 167.887,156.165ZM583.482,237.88C560.164,241.679 541.059,228.023 540.844,207.294C540.629,186.576 559.363,166.512 582.659,162.402C606.226,158.244 625.479,171.975 625.718,192.893C625.958,213.829 607.063,234.038 583.482,237.88ZM571.871,197.726C579.266,196.466 585.199,190.084 585.127,183.524C585.056,176.969 579.012,172.652 571.615,173.945C564.249,175.232 558.332,181.599 558.401,188.137C558.471,194.673 564.499,198.983 571.871,197.726ZM411.354,317.727C415.483,302.411 430.363,295.116 442.763,292.84C474.327,287.231 486.377,300.777 487.576,312.564C489.951,332.687 401.95,350.79 411.354,317.727ZM316.265,281.42C294.417,284.98 276.573,271.919 276.437,252.165C276.3,232.424 293.902,213.357 315.73,209.504C337.808,205.608 355.802,218.737 355.96,238.668C356.119,258.616 338.355,277.82 316.265,281.42ZM326.444,239.564C333.408,238.377 339.013,232.289 338.965,226.013C338.916,219.741 333.237,215.599 326.272,216.816C319.334,218.029 313.745,224.103 313.791,230.358C313.838,236.612 319.501,240.748 326.444,239.564Z" style="fill:rgb(0,81,53);fill-rule:nonzero;"/>
                            </g>
                        </g>
                    </g>
                </g>
            </g>
        </g>
    </g>
    <defs>
        <linearGradient id="_Linear1" x1="0" y1="0" x2="1" y2="0" gradientUnits="userSpaceOnUse" gradientTransform="matrix(16.5505,0,0,218.078,-274.502,3173.2)"><stop offset="0" style="stop-color:rgb(172,163,155);stop-opacity:1"/><stop offset="1" style="stop-color:rgb(65,65,65);stop-opacity:1"/></linearGradient>
    </defs>
</svg>
