<?xml version="1.0" encoding="UTF-8" standalone="no"?>
<!DOCTYPE svg PUBLIC "-//W3C//DTD SVG 1.1//EN" "http://www.w3.org/Graphics/SVG/1.1/DTD/svg11.dtd">
<svg width="100%" height="100%" viewBox="0 0 601 140" version="1.1" xmlns="http://www.w3.org/2000/svg" xmlns:xlink="http://www.w3.org/1999/xlink" xml:space="preserve" xmlns:serif="http://www.serif.com/" style="fill-rule:evenodd;clip-rule:evenodd;stroke-linejoin:round;stroke-miterlimit:2;">
    <g transform="matrix(1,0,0,1,-202,-9480)">
        <g id="Range-over-Channels" serif:id="Range over Channels" transform="matrix(0.585938,0,0,0.182292,202.331,9480)">
            <rect x="0" y="0" width="1024" height="768" style="fill:none;"/>
            <g id="Gopher" transform="matrix(0.240638,0,0,0.773479,453.143,32.6042)">
                <path d="M381.081,363.552C378.301,364.788 373.668,395.058 387.876,396.602C397.452,397.529 423.707,400.618 429.884,396.602C441.931,388.88 440.695,370.347 433.9,365.714C422.471,358.301 384.17,362.008 381.081,363.552ZM302.625,136.834C270.811,133.127 217.375,162.78 209.344,225.792C200.695,291.274 277.915,356.139 352.046,291.274C391.892,256.371 405.792,148.88 302.625,136.834ZM517.606,136.834C414.44,148.88 428.34,256.371 468.185,291.274C542.317,356.139 619.537,291.274 610.888,225.792C603.166,162.78 549.73,133.127 517.606,136.834Z" style="fill:white;fill-rule:nonzero;"/>
                <path d="M715.598,106.873C739.382,155.985 667.104,161.236 670.811,183.166C677.606,222.703 672.973,281.39 667.722,339.151C658.764,437.066 731.969,671.506 579.382,765.714C550.656,783.629 482.394,793.514 415.058,795.058L414.44,795.058C347.104,793.514 269.575,783.629 240.849,765.714C88.571,671.506 161.776,437.066 153.127,339.151C147.568,281.39 142.934,222.703 150.039,183.166C153.745,161.236 81.467,156.293 105.251,106.873C125.637,64.556 175.985,101.931 188.649,88.649C253.205,21.622 331.66,3.707 393.436,2.162L427.413,2.162C488.88,5.251 567.336,21.931 632.201,88.649C644.865,101.931 694.903,64.556 715.598,106.873ZM381.081,363.552C378.301,364.788 373.668,395.058 387.876,396.602C397.452,397.529 423.707,400.618 429.884,396.602C441.931,388.88 440.695,370.347 433.9,365.714C422.471,358.301 384.17,362.008 381.081,363.552ZM302.625,136.834C270.811,133.127 217.375,162.78 209.344,225.792C200.695,291.274 277.915,356.139 352.046,291.274C391.892,256.371 405.792,148.88 302.625,136.834ZM517.606,136.834C414.44,148.88 428.34,256.371 468.185,291.274C542.317,356.139 619.537,291.274 610.888,225.792C603.166,162.78 549.73,133.127 517.606,136.834Z" style="fill:url(#_Linear1);fill-rule:nonzero;"/>
                <path d="M410.425,299.614C429.884,296.834 476.525,319.073 473.436,345.328C469.73,375.907 353.282,379.923 347.104,343.475C343.398,321.236 361.004,307.027 410.425,299.614ZM608.726,769.73C614.903,778.687 615.212,784.865 605.328,789.498C567.645,806.795 533.977,783.629 546.641,777.143C573.514,763.552 590.193,742.239 608.726,769.73ZM211.815,772.819C230.347,745.328 247.027,766.641 273.9,780.232C286.564,786.718 252.896,809.884 215.212,792.587C205.328,787.954 205.637,781.776 211.815,772.819Z" style="fill:rgb(172,163,155);fill-rule:nonzero;"/>
                <path d="M657.838,114.286C659.382,107.799 675.444,104.71 684.402,115.83C695.212,129.112 668.649,147.336 667.413,139.923C664.324,119.846 655.985,120.772 657.838,114.286ZM162.703,114.286C164.556,120.772 156.216,119.846 153.127,139.923C151.892,147.336 125.328,129.112 136.139,115.83C144.788,104.71 160.849,107.799 162.703,114.286ZM524.71,264.71C505.263,264.71 489.498,248.945 489.498,229.498C489.498,210.051 505.263,194.286 524.71,194.286C544.158,194.286 559.923,210.051 559.923,229.498C559.923,248.945 544.158,264.71 524.71,264.71ZM515.444,225.483C521.585,225.483 526.564,220.504 526.564,214.363C526.564,208.222 521.585,203.243 515.444,203.243C509.303,203.243 504.324,208.222 504.324,214.363C504.324,220.504 509.303,225.483 515.444,225.483ZM378.61,314.44C382.317,300.232 395.29,295.598 405.792,295.29C432.664,294.672 442.857,309.189 443.784,320.618C445.637,340.077 370.27,344.71 378.61,314.44ZM295.83,264.71C276.383,264.71 260.618,248.945 260.618,229.498C260.618,210.051 276.383,194.286 295.83,194.286C315.277,194.286 331.042,210.051 331.042,229.498C331.042,248.945 315.277,264.71 295.83,264.71ZM305.097,225.483C311.238,225.483 316.216,220.504 316.216,214.363C316.216,208.222 311.238,203.243 305.097,203.243C298.955,203.243 293.977,208.222 293.977,214.363C293.977,220.504 298.955,225.483 305.097,225.483Z" style="fill:rgb(65,65,65);fill-rule:nonzero;"/>
            </g>
            <g transform="matrix(2.05127,0,0,1.23076,-727.944,-178.237)">
                <g transform="matrix(0.170309,0.235447,-0.0439501,0.912369,543.121,-154.862)">
                    <path d="M673.282,545.792C663.707,545.483 657.529,532.819 657.529,525.097C657.529,511.197 659.382,494.826 669.575,487.722C690.579,473.205 707.259,546.1 673.282,545.792Z" style="fill:rgb(172,163,155);fill-rule:nonzero;"/>
                </g>
                <g transform="matrix(0.17054,0.230604,-0.0430461,0.913605,540.462,-96.661)">
                    <path d="M554.79,545.792C520.813,546.1 537.492,473.205 558.496,487.722C568.689,494.826 570.543,511.197 570.543,525.097C570.543,532.819 564.365,545.483 554.79,545.792Z" style="fill:rgb(172,163,155);fill-rule:nonzero;"/>
                </g>
            </g>
            <g transform="matrix(1.70667,0,0,5.48571,-336.699,-34153.9)">
                <path d="M663.965,6331.88C667.873,6331.88 671.621,6333.44 674.384,6336.2C677.147,6338.96 678.699,6342.71 678.699,6346.62C678.699,6346.62 678.699,6346.62 678.699,6346.62C678.699,6350.53 677.147,6354.27 674.384,6357.04C671.621,6359.8 667.873,6361.35 663.965,6361.35C605.369,6361.35 389.2,6361.35 330.604,6361.35C326.696,6361.35 322.948,6359.8 320.185,6357.04C317.422,6354.27 315.87,6350.53 315.87,6346.62C315.87,6346.62 315.87,6346.62 315.87,6346.62C315.87,6342.71 317.422,6338.96 320.185,6336.2C322.948,6333.44 326.696,6331.88 330.604,6331.88C389.2,6331.88 605.369,6331.88 663.965,6331.88Z" style="fill:rgb(65,65,65);"/>
                <path d="M663.965,6327.88C668.934,6327.88 673.699,6329.86 677.212,6333.37C680.726,6336.88 682.699,6341.65 682.699,6346.62C682.699,6351.59 680.726,6356.35 677.212,6359.86C673.699,6363.38 668.934,6365.35 663.965,6365.35L330.604,6365.35C325.635,6365.35 320.87,6363.38 317.357,6359.86C313.843,6356.35 311.87,6351.59 311.87,6346.62C311.87,6341.65 313.843,6336.88 317.357,6333.37C320.87,6329.86 325.635,6327.88 330.604,6327.88L663.965,6327.88ZM663.965,6331.88L330.604,6331.88C326.696,6331.88 322.948,6333.44 320.185,6336.2C317.422,6338.96 315.87,6342.71 315.87,6346.62C315.87,6350.53 317.422,6354.27 320.185,6357.04C322.948,6359.8 326.696,6361.35 330.604,6361.35L663.965,6361.35C667.873,6361.35 671.621,6359.8 674.384,6357.04C677.147,6354.27 678.699,6350.53 678.699,6346.62C678.699,6342.71 677.147,6338.96 674.384,6336.2C671.621,6333.44 667.873,6331.88 663.965,6331.88Z" style="fill:rgb(5,5,5);"/>
            </g>
            <g transform="matrix(2.42597,0,0,7.79775,-1007.19,-48511.3)">
                <circle cx="508.963" cy="6306.07" r="10.366" style="fill:rgb(111,116,114);"/>
            </g>
            <g transform="matrix(2.42597,0,0,7.79775,-438.259,-48511.3)">
                <circle cx="508.963" cy="6306.07" r="10.366" style="fill:rgb(111,116,114);"/>
            </g>
            <g transform="matrix(2.42597,0,0,7.79775,-893.407,-48511.3)">
                <circle cx="508.963" cy="6306.07" r="10.366" style="fill:rgb(111,116,114);"/>
            </g>
            <g transform="matrix(2.42597,0,0,7.79775,-779.62,-48511.3)">
                <circle cx="508.963" cy="6306.07" r="10.366" style="fill:rgb(111,116,114);"/>
            </g>
            <g transform="matrix(2.42597,0,0,7.79775,-665.833,-48511.3)">
                <circle cx="508.963" cy="6306.07" r="10.366" style="fill:rgb(111,116,114);"/>
            </g>
            <g transform="matrix(2.42597,0,0,7.79775,-552.046,-48511.3)">
                <circle cx="508.963" cy="6306.07" r="10.366" style="fill:rgb(111,116,114);"/>
            </g>
            <g transform="matrix(2.7919,0,0,9.61846,-946.194,-91328.7)">
                <rect x="424.9" y="9539.26" width="14.671" height="13.688" style="fill:url(#_Linear2);"/>
                <path d="M440.008,9539.26L440.008,9552.95C440.008,9553.17 439.812,9553.36 439.571,9553.36L424.9,9553.36C424.658,9553.36 424.462,9553.17 424.462,9552.95L424.462,9539.26C424.462,9539.03 424.658,9538.85 424.9,9538.85L439.571,9538.85C439.812,9538.85 440.008,9539.03 440.008,9539.26ZM439.571,9539.26L424.9,9539.26L424.9,9552.95L439.571,9552.95L439.571,9539.26Z" style="fill:rgb(225,2,113);"/>
            </g>
            <g transform="matrix(2.7919,0,0,9.61846,-888.168,-91328.7)">
                <rect x="424.9" y="9539.26" width="14.671" height="13.688" style="fill:url(#_Linear3);"/>
                <path d="M440.008,9539.26L440.008,9552.95C440.008,9553.17 439.812,9553.36 439.571,9553.36L424.9,9553.36C424.658,9553.36 424.462,9553.17 424.462,9552.95L424.462,9539.26C424.462,9539.03 424.658,9538.85 424.9,9538.85L439.571,9538.85C439.812,9538.85 440.008,9539.03 440.008,9539.26ZM439.571,9539.26L424.9,9539.26L424.9,9552.95L439.571,9552.95L439.571,9539.26Z" style="fill:rgb(225,2,113);"/>
            </g>
            <g transform="matrix(2.7919,0,0,9.61846,-830.141,-91328.7)">
                <rect x="424.9" y="9539.26" width="14.671" height="13.688" style="fill:url(#_Linear4);"/>
                <path d="M440.008,9539.26L440.008,9552.95C440.008,9553.17 439.812,9553.36 439.571,9553.36L424.9,9553.36C424.658,9553.36 424.462,9553.17 424.462,9552.95L424.462,9539.26C424.462,9539.03 424.658,9538.85 424.9,9538.85L439.571,9538.85C439.812,9538.85 440.008,9539.03 440.008,9539.26ZM439.571,9539.26L424.9,9539.26L424.9,9552.95L439.571,9552.95L439.571,9539.26Z" style="fill:rgb(225,2,113);"/>
            </g>
            <g transform="matrix(2.7919,0,0,9.61846,-772.114,-91328.7)">
                <rect x="424.9" y="9539.26" width="14.671" height="13.688" style="fill:url(#_Linear5);"/>
                <path d="M440.008,9539.26L440.008,9552.95C440.008,9553.17 439.812,9553.36 439.571,9553.36L424.9,9553.36C424.658,9553.36 424.462,9553.17 424.462,9552.95L424.462,9539.26C424.462,9539.03 424.658,9538.85 424.9,9538.85L439.571,9538.85C439.812,9538.85 440.008,9539.03 440.008,9539.26ZM439.571,9539.26L424.9,9539.26L424.9,9552.95L439.571,9552.95L439.571,9539.26Z" style="fill:rgb(225,2,113);"/>
            </g>
            <g transform="matrix(2.7919,0,0,9.61846,-714.088,-91328.7)">
                <rect x="424.9" y="9539.26" width="14.671" height="13.688" style="fill:url(#_Linear6);"/>
                <path d="M440.008,9539.26L440.008,9552.95C440.008,9553.17 439.812,9553.36 439.571,9553.36L424.9,9553.36C424.658,9553.36 424.462,9553.17 424.462,9552.95L424.462,9539.26C424.462,9539.03 424.658,9538.85 424.9,9538.85L439.571,9538.85C439.812,9538.85 440.008,9539.03 440.008,9539.26ZM439.571,9539.26L424.9,9539.26L424.9,9552.95L439.571,9552.95L439.571,9539.26Z" style="fill:rgb(225,2,113);"/>
            </g>
            <g transform="matrix(2.7919,0,0,9.61846,-599.186,-91329.8)">
                <rect x="424.9" y="9539.26" width="14.671" height="13.688" style="fill:url(#_Linear7);"/>
                <path d="M440.008,9539.26L440.008,9552.95C440.008,9553.17 439.812,9553.36 439.571,9553.36L424.9,9553.36C424.658,9553.36 424.462,9553.17 424.462,9552.95L424.462,9539.26C424.462,9539.03 424.658,9538.85 424.9,9538.85L439.571,9538.85C439.812,9538.85 440.008,9539.03 440.008,9539.26ZM439.571,9539.26L424.9,9539.26L424.9,9552.95L439.571,9552.95L439.571,9539.26Z" style="fill:rgb(225,2,113);"/>
            </g>
            <g transform="matrix(2.7919,0,0,9.61846,-541.16,-91329.8)">
                <rect x="424.9" y="9539.26" width="14.671" height="13.688" style="fill:url(#_Linear8);"/>
                <path d="M440.008,9539.26L440.008,9552.95C440.008,9553.17 439.812,9553.36 439.571,9553.36L424.9,9553.36C424.658,9553.36 424.462,9553.17 424.462,9552.95L424.462,9539.26C424.462,9539.03 424.658,9538.85 424.9,9538.85L439.571,9538.85C439.812,9538.85 440.008,9539.03 440.008,9539.26ZM439.571,9539.26L424.9,9539.26L424.9,9552.95L439.571,9552.95L439.571,9539.26Z" style="fill:rgb(225,2,113);"/>
            </g>
            <g transform="matrix(2.7919,0,0,9.61846,-483.133,-91329.8)">
                <rect x="424.9" y="9539.26" width="14.671" height="13.688" style="fill:url(#_Linear9);"/>
                <path d="M440.008,9539.26L440.008,9552.95C440.008,9553.17 439.812,9553.36 439.571,9553.36L424.9,9553.36C424.658,9553.36 424.462,9553.17 424.462,9552.95L424.462,9539.26C424.462,9539.03 424.658,9538.85 424.9,9538.85L439.571,9538.85C439.812,9538.85 440.008,9539.03 440.008,9539.26ZM439.571,9539.26L424.9,9539.26L424.9,9552.95L439.571,9552.95L439.571,9539.26Z" style="fill:rgb(225,2,113);"/>
            </g>
            <g transform="matrix(2.64068,-2.91337,0.971475,9.09748,-9863.46,-85163.1)">
                <rect x="424.9" y="9539.26" width="14.671" height="13.688" style="fill:url(#_Linear10);"/>
                <path d="M440.008,9539.26L440.008,9552.95C440.008,9553.17 439.812,9553.36 439.571,9553.36L424.9,9553.36C424.658,9553.36 424.462,9553.17 424.462,9552.95L424.462,9539.26C424.462,9539.03 424.658,9538.85 424.9,9538.85L439.571,9538.85C439.812,9538.85 440.008,9539.03 440.008,9539.26ZM439.571,9539.26L424.9,9539.26L424.9,9552.95L439.571,9552.95L439.571,9539.26Z" style="fill:rgb(225,2,113);"/>
            </g>
        </g>
    </g>
    <defs>
        <linearGradient id="_Linear1" x1="0" y1="0" x2="1" y2="0" gradientUnits="userSpaceOnUse" gradientTransform="matrix(619.975,0,0,792.896,100.437,398.61)"><stop offset="0" style="stop-color:rgb(15,123,193);stop-opacity:1"/><stop offset="1" style="stop-color:rgb(91,203,245);stop-opacity:1"/></linearGradient>
        <linearGradient id="_Linear2" x1="0" y1="0" x2="1" y2="0" gradientUnits="userSpaceOnUse" gradientTransform="matrix(4.59186,6.07465,-6.51091,4.28419,432.235,9544.27)"><stop offset="0" style="stop-color:rgb(241,91,102);stop-opacity:1"/><stop offset="1" style="stop-color:rgb(140,45,97);stop-opacity:1"/></linearGradient>
        <linearGradient id="_Linear3" x1="0" y1="0" x2="1" y2="0" gradientUnits="userSpaceOnUse" gradientTransform="matrix(4.59186,6.07465,-6.51091,4.28419,432.235,9544.27)"><stop offset="0" style="stop-color:rgb(241,91,102);stop-opacity:1"/><stop offset="1" style="stop-color:rgb(140,45,97);stop-opacity:1"/></linearGradient>
        <linearGradient id="_Linear4" x1="0" y1="0" x2="1" y2="0" gradientUnits="userSpaceOnUse" gradientTransform="matrix(4.59186,6.07465,-6.51091,4.28419,432.235,9544.27)"><stop offset="0" style="stop-color:rgb(241,91,102);stop-opacity:1"/><stop offset="1" style="stop-color:rgb(140,45,97);stop-opacity:1"/></linearGradient>
        <linearGradient id="_Linear5" x1="0" y1="0" x2="1" y2="0" gradientUnits="userSpaceOnUse" gradientTransform="matrix(4.59186,6.07465,-6.51091,4.28419,432.235,9544.27)"><stop offset="0" style="stop-color:rgb(241,91,102);stop-opacity:1"/><stop offset="1" style="stop-color:rgb(140,45,97);stop-opacity:1"/></linearGradient>
        <linearGradient id="_Linear6" x1="0" y1="0" x2="1" y2="0" gradientUnits="userSpaceOnUse" gradientTransform="matrix(4.59186,6.07465,-6.51091,4.28419,432.235,9544.27)"><stop offset="0" style="stop-color:rgb(241,91,102);stop-opacity:1"/><stop offset="1" style="stop-color:rgb(140,45,97);stop-opacity:1"/></linearGradient>
        <linearGradient id="_Linear7" x1="0" y1="0" x2="1" y2="0" gradientUnits="userSpaceOnUse" gradientTransform="matrix(4.59186,6.07465,-6.51091,4.28419,432.235,9544.27)"><stop offset="0" style="stop-color:rgb(241,91,102);stop-opacity:1"/><stop offset="1" style="stop-color:rgb(140,45,97);stop-opacity:1"/></linearGradient>
        <linearGradient id="_Linear8" x1="0" y1="0" x2="1" y2="0" gradientUnits="userSpaceOnUse" gradientTransform="matrix(4.59186,6.07465,-6.51091,4.28419,432.235,9544.27)"><stop offset="0" style="stop-color:rgb(241,91,102);stop-opacity:1"/><stop offset="1" style="stop-color:rgb(140,45,97);stop-opacity:1"/></linearGradient>
        <linearGradient id="_Linear9" x1="0" y1="0" x2="1" y2="0" gradientUnits="userSpaceOnUse" gradientTransform="matrix(4.59186,6.07465,-6.51091,4.28419,432.235,9544.27)"><stop offset="0" style="stop-color:rgb(241,91,102);stop-opacity:1"/><stop offset="1" style="stop-color:rgb(140,45,97);stop-opacity:1"/></linearGradient>
        <linearGradient id="_Linear10" x1="0" y1="0" x2="1" y2="0" gradientUnits="userSpaceOnUse" gradientTransform="matrix(4.59186,6.07465,-6.51091,4.28419,432.235,9544.27)"><stop offset="0" style="stop-color:rgb(241,91,102);stop-opacity:1"/><stop offset="1" style="stop-color:rgb(140,45,97);stop-opacity:1"/></linearGradient>
    </defs>
</svg>
