<?xml version="1.0" encoding="UTF-8" standalone="no"?>
<!DOCTYPE svg PUBLIC "-//W3C//DTD SVG 1.1//EN" "http://www.w3.org/Graphics/SVG/1.1/DTD/svg11.dtd">
<svg width="100%" height="100%" viewBox="0 0 601 140" version="1.1" xmlns="http://www.w3.org/2000/svg" xmlns:xlink="http://www.w3.org/1999/xlink" xml:space="preserve" xmlns:serif="http://www.serif.com/" style="fill-rule:evenodd;clip-rule:evenodd;stroke-linejoin:round;stroke-miterlimit:1.5;">
    <g transform="matrix(1,0,0,1,-199,-4020)">
        <g id="Range" transform="matrix(0.585938,0,0,0.182292,199.298,4020)">
            <rect x="0" y="0" width="1024" height="768" style="fill:none;"/>
            <g transform="matrix(2.14173,0,0,1.28504,-507.624,-224.394)">
                <g transform="matrix(1.024,0,0,5.48571,8.71689,-22074.4)">
                    <g>
                        <path d="M571.481,4099.56C572.231,4103.49 572.981,4107.43 573.731,4111.36C496.403,4126.11 416.407,4126.11 339.079,4111.36C339.828,4107.43 340.578,4103.49 341.328,4099.56C417.174,4114.03 495.636,4114.03 571.481,4099.56Z" style="fill:rgb(243,193,5);"/>
                        <g transform="matrix(1,0,0,1,-2,0)">
                            <path d="M345.523,4099.98C345.25,4101.44 344.977,4102.9 344.704,4104.35" style="fill:none;stroke:rgb(242,13,13);stroke-width:1px;"/>
                        </g>
                        <g transform="matrix(1,0,0,1,0.9963,4.54747e-13)">
                            <path d="M345.499,4100.52C345.233,4101.99 344.967,4103.45 344.702,4104.91" style="fill:none;stroke:rgb(242,13,13);stroke-width:1px;"/>
                        </g>
                        <g transform="matrix(1,0,0,1,3.9926,4.54747e-13)">
                            <path d="M345.476,4101.06C345.218,4102.52 344.959,4103.98 344.701,4105.44" style="fill:none;stroke:rgb(242,13,13);stroke-width:1px;"/>
                        </g>
                        <g transform="matrix(1,0,0,1,6.9889,4.54747e-13)">
                            <path d="M345.456,4101.58C345.205,4103.04 344.954,4104.5 344.702,4105.97" style="fill:none;stroke:rgb(242,13,13);stroke-width:1px;"/>
                        </g>
                        <g transform="matrix(1,0,0,1.34814,9.9852,-1427.22)">
                            <path d="M345.438,4101.43C345.109,4102.9 344.78,4104.36 344.451,4105.82" style="fill:none;stroke:rgb(242,13,13);stroke-width:1px;"/>
                        </g>
                        <g transform="matrix(1,0,0,1,12.9815,4.54747e-13)">
                            <path d="M345.421,4102.57C345.184,4104.04 344.947,4105.5 344.71,4106.97" style="fill:none;stroke:rgb(242,13,13);stroke-width:1px;"/>
                        </g>
                        <g transform="matrix(1,0,0,1,15.9778,4.54747e-13)">
                            <path d="M345.406,4103.05C345.177,4104.51 344.947,4105.98 344.717,4107.44" style="fill:none;stroke:rgb(242,13,13);stroke-width:1px;"/>
                        </g>
                        <g transform="matrix(1,0,0,1,18.9741,4.54747e-13)">
                            <path d="M345.393,4103.51C345.171,4104.97 344.948,4106.44 344.726,4107.91" style="fill:none;stroke:rgb(242,13,13);stroke-width:1px;"/>
                        </g>
                        <g transform="matrix(1,0,0,1,21.9704,4.54747e-13)">
                            <path d="M345.382,4103.95C345.167,4105.42 344.951,4106.89 344.736,4108.36" style="fill:none;stroke:rgb(242,13,13);stroke-width:1px;"/>
                        </g>
                        <g transform="matrix(1,0,0,1.34814,24.9667,-1427.22)">
                            <path d="M345.372,4103.14C345.092,4104.61 344.811,4106.07 344.531,4107.55" style="fill:none;stroke:rgb(242,13,13);stroke-width:1px;"/>
                        </g>
                        <g transform="matrix(1,0,0,1,27.963,4.54747e-13)">
                            <path d="M345.364,4104.8C345.163,4106.27 344.962,4107.74 344.761,4109.21" style="fill:none;stroke:rgb(242,13,13);stroke-width:1px;"/>
                        </g>
                        <g transform="matrix(1,0,0,1,30.9593,4.54747e-13)">
                            <path d="M345.357,4105.2C345.164,4106.67 344.97,4108.14 344.776,4109.61" style="fill:none;stroke:rgb(242,13,13);stroke-width:1px;"/>
                        </g>
                        <g transform="matrix(1,0,0,1,33.9556,4.54747e-13)">
                            <path d="M345.352,4105.58C345.166,4107.06 344.979,4108.53 344.793,4110" style="fill:none;stroke:rgb(242,13,13);stroke-width:1px;"/>
                        </g>
                        <g transform="matrix(1,0,0,1,36.9519,4.54747e-13)">
                            <path d="M345.348,4105.95C345.169,4107.43 344.99,4108.9 344.811,4110.37" style="fill:none;stroke:rgb(242,13,13);stroke-width:1px;"/>
                        </g>
                        <g transform="matrix(1,0,0,1.34814,39.9482,-1427.22)">
                            <path d="M345.346,4104.57C345.114,4106.04 344.882,4107.52 344.65,4108.99" style="fill:none;stroke:rgb(242,13,13);stroke-width:1px;"/>
                        </g>
                        <g transform="matrix(1,0,0,1,42.9445,4.54747e-13)">
                            <path d="M345.344,4106.65C345.18,4108.13 345.015,4109.6 344.85,4111.08" style="fill:none;stroke:rgb(242,13,13);stroke-width:1px;"/>
                        </g>
                        <g transform="matrix(1,0,0,1,45.9408,4.54747e-13)">
                            <path d="M345.344,4106.98C345.187,4108.45 345.029,4109.93 344.872,4111.41" style="fill:none;stroke:rgb(242,13,13);stroke-width:1px;"/>
                        </g>
                        <g transform="matrix(1,0,0,1,48.9371,4.54747e-13)">
                            <path d="M345.345,4107.29C345.195,4108.77 345.045,4110.24 344.895,4111.72" style="fill:none;stroke:rgb(242,13,13);stroke-width:1px;"/>
                        </g>
                        <g transform="matrix(1,0,0,1,51.9334,4.54747e-13)">
                            <path d="M345.348,4107.59C345.205,4109.07 345.062,4110.54 344.919,4112.02" style="fill:none;stroke:rgb(242,13,13);stroke-width:1px;"/>
                        </g>
                        <g transform="matrix(1,0,0,1.34814,54.9297,-1427.22)">
                            <path d="M345.351,4105.73C345.168,4107.2 344.985,4108.68 344.803,4110.16" style="fill:none;stroke:rgb(242,13,13);stroke-width:1px;"/>
                        </g>
                        <g transform="matrix(1,0,0,1,57.926,4.54747e-13)">
                            <path d="M345.356,4108.14C345.227,4109.62 345.099,4111.1 344.97,4112.57" style="fill:none;stroke:rgb(242,13,13);stroke-width:1px;"/>
                        </g>
                        <g transform="matrix(1,0,0,1,60.9223,4.54747e-13)">
                            <path d="M345.361,4108.39C345.24,4109.87 345.119,4111.35 344.997,4112.83" style="fill:none;stroke:rgb(242,13,13);stroke-width:1px;"/>
                        </g>
                        <g transform="matrix(1,0,0,1,63.9186,4.54747e-13)">
                            <path d="M345.367,4108.63C345.253,4110.11 345.139,4111.59 345.026,4113.07" style="fill:none;stroke:rgb(242,13,13);stroke-width:1px;"/>
                        </g>
                        <g transform="matrix(1,0,0,1,66.9149,4.54747e-13)">
                            <path d="M345.374,4108.85C345.268,4110.33 345.161,4111.82 345.054,4113.3" style="fill:none;stroke:rgb(242,13,13);stroke-width:1px;"/>
                        </g>
                        <g transform="matrix(1,0,0,1.34814,69.9112,-1427.22)">
                            <path d="M345.382,4106.61C345.248,4108.09 345.114,4109.57 344.98,4111.05" style="fill:none;stroke:rgb(242,13,13);stroke-width:1px;"/>
                        </g>
                        <g transform="matrix(1,0,0,1,72.9075,4.54747e-13)">
                            <path d="M345.391,4109.26C345.299,4110.74 345.207,4112.22 345.115,4113.7" style="fill:none;stroke:rgb(242,13,13);stroke-width:1px;"/>
                        </g>
                        <g transform="matrix(1,0,0,1,75.9038,4.54747e-13)">
                            <path d="M345.4,4109.44C345.315,4110.92 345.231,4112.4 345.146,4113.88" style="fill:none;stroke:rgb(242,13,13);stroke-width:1px;"/>
                        </g>
                        <g transform="matrix(1,0,0,1,78.9001,4.54747e-13)">
                            <path d="M345.41,4109.6C345.333,4111.08 345.255,4112.57 345.178,4114.05" style="fill:none;stroke:rgb(242,13,13);stroke-width:1px;"/>
                        </g>
                        <g transform="matrix(1,0,0,1,81.8964,4.54747e-13)">
                            <path d="M345.421,4109.75C345.35,4111.23 345.28,4112.72 345.21,4114.2" style="fill:none;stroke:rgb(242,13,13);stroke-width:1px;"/>
                        </g>
                        <g transform="matrix(1,0,0,1.34814,84.8927,-1427.22)">
                            <path d="M345.432,4107.22C345.347,4108.7 345.262,4110.19 345.177,4111.67" style="fill:none;stroke:rgb(242,13,13);stroke-width:1px;"/>
                        </g>
                        <g transform="matrix(1,0,0,1,87.889,4.54747e-13)">
                            <path d="M345.443,4110.01C345.388,4111.49 345.332,4112.97 345.276,4114.46" style="fill:none;stroke:rgb(242,13,13);stroke-width:1px;"/>
                        </g>
                        <g transform="matrix(1,0,0,1,90.8853,4.54747e-13)">
                            <path d="M345.455,4110.11C345.407,4111.6 345.358,4113.08 345.31,4114.56" style="fill:none;stroke:rgb(242,13,13);stroke-width:1px;"/>
                        </g>
                        <g transform="matrix(1,0,0,1,93.8816,4.54747e-13)">
                            <path d="M345.468,4110.2C345.427,4111.69 345.385,4113.17 345.344,4114.65" style="fill:none;stroke:rgb(242,13,13);stroke-width:1px;"/>
                        </g>
                        <g transform="matrix(1,0,0,1,96.8779,4.54747e-13)">
                            <path d="M345.48,4110.28C345.447,4111.76 345.413,4113.25 345.379,4114.73" style="fill:none;stroke:rgb(242,13,13);stroke-width:1px;"/>
                        </g>
                        <g transform="matrix(1,0,0,1.34814,99.8742,-1427.22)">
                            <path d="M345.493,4107.56C345.457,4109.04 345.421,4110.53 345.385,4112.01" style="fill:none;stroke:rgb(242,13,13);stroke-width:1px;"/>
                        </g>
                        <g transform="matrix(1,0,0,1,102.87,4.54747e-13)">
                            <path d="M345.506,4110.39C345.487,4111.87 345.468,4113.36 345.448,4114.84" style="fill:none;stroke:rgb(242,13,13);stroke-width:1px;"/>
                        </g>
                        <g transform="matrix(1,0,0,1,105.867,4.54747e-13)">
                            <path d="M345.52,4110.42C345.508,4111.9 345.495,4113.39 345.483,4114.87" style="fill:none;stroke:rgb(242,13,13);stroke-width:1px;"/>
                        </g>
                        <g transform="matrix(1,0,0,1,108.863,4.54747e-13)">
                            <path d="M345.533,4110.44C345.528,4111.92 345.523,4113.41 345.519,4114.89" style="fill:none;stroke:rgb(242,13,13);stroke-width:1px;"/>
                        </g>
                        <g transform="matrix(1,0,0,1,111.859,4.54747e-13)">
                            <path d="M345.546,4110.44C345.549,4111.92 345.551,4113.41 345.554,4114.89" style="fill:none;stroke:rgb(242,13,13);stroke-width:1px;"/>
                        </g>
                        <g transform="matrix(1,0,0,1.34814,114.856,-1427.22)">
                            <path d="M345.56,4107.62C345.573,4109.11 345.586,4110.59 345.599,4112.07" style="fill:none;stroke:rgb(242,13,13);stroke-width:1px;"/>
                        </g>
                        <g transform="matrix(1,0,0,1,117.852,4.54747e-13)">
                            <path d="M345.573,4110.4C345.59,4111.89 345.607,4113.37 345.624,4114.85" style="fill:none;stroke:rgb(242,13,13);stroke-width:1px;"/>
                        </g>
                        <g transform="matrix(1,0,0,1,120.848,4.54747e-13)">
                            <path d="M345.586,4110.36C345.611,4111.84 345.635,4113.33 345.659,4114.81" style="fill:none;stroke:rgb(242,13,13);stroke-width:1px;"/>
                        </g>
                        <g transform="matrix(1,0,0,1,123.845,4.54747e-13)">
                            <path d="M345.599,4110.3C345.631,4111.79 345.662,4113.27 345.694,4114.75" style="fill:none;stroke:rgb(242,13,13);stroke-width:1px;"/>
                        </g>
                        <g transform="matrix(1,0,0,1,126.841,4.54747e-13)">
                            <path d="M345.612,4110.23C345.651,4111.72 345.69,4113.2 345.728,4114.68" style="fill:none;stroke:rgb(242,13,13);stroke-width:1px;"/>
                        </g>
                        <g transform="matrix(1,0,0,1.34814,129.837,-1427.22)">
                            <path d="M345.624,4107.41C345.687,4108.9 345.749,4110.38 345.811,4111.86" style="fill:none;stroke:rgb(242,13,13);stroke-width:1px;"/>
                        </g>
                        <g transform="matrix(1,0,0,1,132.833,4.54747e-13)">
                            <path d="M345.637,4110.04C345.69,4111.53 345.743,4113.01 345.797,4114.49" style="fill:none;stroke:rgb(242,13,13);stroke-width:1px;"/>
                        </g>
                        <g transform="matrix(1,0,0,1,135.83,4.54747e-13)">
                            <path d="M345.648,4109.93C345.709,4111.41 345.77,4112.9 345.83,4114.38" style="fill:none;stroke:rgb(242,13,13);stroke-width:1px;"/>
                        </g>
                        <g transform="matrix(1,0,0,1,138.826,4.54747e-13)">
                            <path d="M345.66,4109.8C345.727,4111.28 345.795,4112.76 345.863,4114.25" style="fill:none;stroke:rgb(242,13,13);stroke-width:1px;"/>
                        </g>
                        <g transform="matrix(1,0,0,1,141.822,4.54747e-13)">
                            <path d="M345.67,4109.65C345.745,4111.14 345.821,4112.62 345.896,4114.1" style="fill:none;stroke:rgb(242,13,13);stroke-width:1px;"/>
                        </g>
                        <g transform="matrix(1,0,0,1.34814,144.819,-1427.22)">
                            <path d="M345.681,4106.93C345.792,4108.41 345.903,4109.89 346.014,4111.38" style="fill:none;stroke:rgb(242,13,13);stroke-width:1px;"/>
                        </g>
                        <g transform="matrix(1,0,0,1,147.815,4.54747e-13)">
                            <path d="M345.69,4109.32C345.78,4110.8 345.869,4112.28 345.959,4113.76" style="fill:none;stroke:rgb(242,13,13);stroke-width:1px;"/>
                        </g>
                        <g transform="matrix(1,0,0,1,150.811,4.54747e-13)">
                            <path d="M345.699,4109.13C345.796,4110.61 345.893,4112.09 345.99,4113.57" style="fill:none;stroke:rgb(242,13,13);stroke-width:1px;"/>
                        </g>
                        <g transform="matrix(1,0,0,1,153.808,4.54747e-13)">
                            <path d="M345.707,4108.93C345.811,4110.41 345.916,4111.89 346.02,4113.37" style="fill:none;stroke:rgb(242,13,13);stroke-width:1px;"/>
                        </g>
                        <g transform="matrix(1,0,0,1,156.804,4.54747e-13)">
                            <path d="M345.715,4108.71C345.826,4110.19 345.937,4111.67 346.049,4113.15" style="fill:none;stroke:rgb(242,13,13);stroke-width:1px;"/>
                        </g>
                        <g transform="matrix(1,0,0,1.34814,159.8,-1427.22)">
                            <path d="M345.721,4106.17C345.881,4107.65 346.041,4109.13 346.201,4110.61" style="fill:none;stroke:rgb(242,13,13);stroke-width:1px;"/>
                        </g>
                        <g transform="matrix(1,0,0,1,162.796,4.54747e-13)">
                            <path d="M345.727,4108.23C345.853,4109.7 345.979,4111.18 346.105,4112.66" style="fill:none;stroke:rgb(242,13,13);stroke-width:1px;"/>
                        </g>
                        <g transform="matrix(1,0,0,1,165.793,4.54747e-13)">
                            <path d="M345.732,4107.96C345.865,4109.44 345.998,4110.92 346.131,4112.4" style="fill:none;stroke:rgb(242,13,13);stroke-width:1px;"/>
                        </g>
                        <g transform="matrix(1,0,0,1,168.789,4.54747e-13)">
                            <path d="M345.735,4107.68C345.876,4109.16 346.016,4110.64 346.157,4112.12" style="fill:none;stroke:rgb(242,13,13);stroke-width:1px;"/>
                        </g>
                        <g transform="matrix(1,0,0,1,171.785,4.54747e-13)">
                            <path d="M345.738,4107.39C345.886,4108.87 346.033,4110.35 346.181,4111.82" style="fill:none;stroke:rgb(242,13,13);stroke-width:1px;"/>
                        </g>
                        <g transform="matrix(1,0,0,1.34814,174.782,-1427.22)">
                            <path d="M345.739,4105.14C345.948,4106.62 346.157,4108.09 346.366,4109.57" style="fill:none;stroke:rgb(242,13,13);stroke-width:1px;"/>
                        </g>
                        <g transform="matrix(1,0,0,1,177.778,4.54747e-13)">
                            <path d="M345.74,4106.76C345.902,4108.24 346.064,4109.71 346.227,4111.19" style="fill:none;stroke:rgb(242,13,13);stroke-width:1px;"/>
                        </g>
                        <g transform="matrix(1,0,0,1,180.774,4.54747e-13)">
                            <path d="M345.739,4106.43C345.909,4107.9 346.078,4109.38 346.247,4110.85" style="fill:none;stroke:rgb(242,13,13);stroke-width:1px;"/>
                        </g>
                        <g transform="matrix(1,0,0,1,183.771,4.54747e-13)">
                            <path d="M345.737,4106.07C345.914,4107.55 346.09,4109.02 346.267,4110.49" style="fill:none;stroke:rgb(242,13,13);stroke-width:1px;"/>
                        </g>
                        <g transform="matrix(1,0,0,1,186.767,4.54747e-13)">
                            <path d="M345.734,4105.71C345.918,4107.18 346.101,4108.65 346.285,4110.13" style="fill:none;stroke:rgb(242,13,13);stroke-width:1px;"/>
                        </g>
                        <g transform="matrix(1,0,0,1.34814,189.763,-1427.22)">
                            <path d="M345.729,4103.84C345.987,4105.31 346.244,4106.78 346.502,4108.25" style="fill:none;stroke:rgb(242,13,13);stroke-width:1px;"/>
                        </g>
                        <g transform="matrix(1,0,0,1,192.759,4.54747e-13)">
                            <path d="M345.723,4104.93C345.921,4106.4 346.119,4107.87 346.318,4109.34" style="fill:none;stroke:rgb(242,13,13);stroke-width:1px;"/>
                        </g>
                        <g transform="matrix(1,0,0,1,195.756,4.54747e-13)">
                            <path d="M345.715,4104.52C345.92,4105.99 346.126,4107.46 346.332,4108.93" style="fill:none;stroke:rgb(242,13,13);stroke-width:1px;"/>
                        </g>
                        <g transform="matrix(1,0,0,1,198.752,4.54747e-13)">
                            <path d="M345.706,4104.1C345.918,4105.56 346.131,4107.03 346.344,4108.5" style="fill:none;stroke:rgb(242,13,13);stroke-width:1px;"/>
                        </g>
                        <g transform="matrix(1,0,0,1,201.748,4.54747e-13)">
                            <path d="M345.695,4103.65C345.915,4105.12 346.135,4106.59 346.355,4108.06" style="fill:none;stroke:rgb(242,13,13);stroke-width:1px;"/>
                        </g>
                        <g transform="matrix(1,0,0,1.34814,204.745,-1427.22)">
                            <path d="M345.682,4102.26C345.989,4103.73 346.295,4105.19 346.601,4106.66" style="fill:none;stroke:rgb(242,13,13);stroke-width:1px;"/>
                        </g>
                        <g transform="matrix(1,0,0,1,207.741,4.54747e-13)">
                            <path d="M345.668,4102.73C345.903,4104.2 346.137,4105.66 346.371,4107.13" style="fill:none;stroke:rgb(242,13,13);stroke-width:1px;"/>
                        </g>
                        <g transform="matrix(1,0,0,1,210.737,4.54747e-13)">
                            <path d="M345.652,4102.25C345.894,4103.71 346.135,4105.18 346.377,4106.64" style="fill:none;stroke:rgb(242,13,13);stroke-width:1px;"/>
                        </g>
                        <g transform="matrix(1,0,0,1,213.734,4.54747e-13)">
                            <path d="M345.634,4101.75C345.883,4103.21 346.132,4104.67 346.381,4106.14" style="fill:none;stroke:rgb(242,13,13);stroke-width:1px;"/>
                        </g>
                        <g transform="matrix(1,0,0,1,216.73,4.54747e-13)">
                            <path d="M345.615,4101.23C345.871,4102.7 346.127,4104.16 346.383,4105.62" style="fill:none;stroke:rgb(242,13,13);stroke-width:1px;"/>
                        </g>
                        <g transform="matrix(1,0,0,1.34814,219.726,-1427.22)">
                            <path d="M345.593,4100.41C345.948,4101.87 346.303,4103.33 346.658,4104.79" style="fill:none;stroke:rgb(242,13,13);stroke-width:1px;"/>
                        </g>
                        <g transform="matrix(1,0,0,1,222.722,4.54747e-13)">
                            <path d="M345.57,4100.16C345.84,4101.62 346.11,4103.08 346.381,4104.54" style="fill:none;stroke:rgb(242,13,13);stroke-width:1px;"/>
                        </g>
                    </g>
                </g>
                <g transform="matrix(-1.09965,0,0,1.09965,872.175,-58.0105)">
                    <g id="Gopher" transform="matrix(0.113657,0,0,0.6036,464.58,268.953)">
                        <path d="M381.081,363.552C378.301,364.788 373.668,395.058 387.876,396.602C397.452,397.529 423.707,400.618 429.884,396.602C441.931,388.88 440.695,370.347 433.9,365.714C422.471,358.301 384.17,362.008 381.081,363.552ZM302.625,136.834C270.811,133.127 217.375,162.78 209.344,225.792C200.695,291.274 277.915,356.139 352.046,291.274C391.892,256.371 405.792,148.88 302.625,136.834ZM517.606,136.834C414.44,148.88 428.34,256.371 468.185,291.274C542.317,356.139 619.537,291.274 610.888,225.792C603.166,162.78 549.73,133.127 517.606,136.834Z" style="fill:white;fill-rule:nonzero;"/>
                        <path d="M143.488,513.987C145.054,459.554 119.546,407.934 75.515,376.429C48.568,356.998 24.493,339.773 24.493,339.773L43.503,283.52C43.503,283.52 120.005,340.503 145.57,359.546C147.157,360.729 149.272,360.904 151.029,359.997C152.786,359.09 153.882,357.257 153.859,355.267C153.8,349.56 153.571,344.176 153.127,339.151C147.568,281.39 142.934,222.703 150.039,183.166C153.745,161.236 81.467,156.293 105.251,106.873C125.637,64.556 175.985,101.931 188.649,88.649C253.205,21.622 331.66,3.707 393.436,2.162L427.413,2.162C488.88,5.251 567.336,21.931 632.201,88.649C644.865,101.931 694.903,64.556 715.598,106.873C739.382,155.985 667.104,161.236 670.811,183.166C677.606,222.703 672.973,281.39 667.722,339.151C658.764,437.066 731.969,671.506 579.382,765.714C550.656,783.629 482.394,793.514 415.058,795.058L414.44,795.058C347.104,793.514 269.575,783.629 240.849,765.714C152.441,711.019 140.035,609.057 143.488,513.987ZM517.606,136.834C414.44,148.88 428.34,256.371 468.185,291.274C542.317,356.139 619.537,291.274 610.888,225.792C603.166,162.78 549.73,133.127 517.606,136.834ZM381.081,363.552C378.301,364.788 373.668,395.058 387.876,396.602C397.452,397.529 423.707,400.618 429.884,396.602C441.931,388.88 440.695,370.347 433.9,365.714C422.471,358.301 384.17,362.008 381.081,363.552ZM302.625,136.834C270.811,133.127 217.375,162.78 209.344,225.792C200.695,291.274 277.915,356.139 352.046,291.274C391.892,256.371 405.792,148.88 302.625,136.834Z" style="fill:url(#_Linear1);"/>
                        <path d="M410.425,299.614C429.884,296.834 476.525,319.073 473.436,345.328C469.73,375.907 353.282,379.923 347.104,343.475C343.398,321.236 361.004,307.027 410.425,299.614ZM608.726,769.73C614.903,778.687 615.212,784.865 605.328,789.498C567.645,806.795 533.977,783.629 546.641,777.143C573.514,763.552 590.193,742.239 608.726,769.73ZM211.815,772.819C230.347,745.328 247.027,766.641 273.9,780.232C286.564,786.718 252.896,809.884 215.212,792.587C205.328,787.954 205.637,781.776 211.815,772.819Z" style="fill:rgb(172,163,155);fill-rule:nonzero;"/>
                        <path d="M657.838,114.286C659.382,107.799 675.444,104.71 684.402,115.83C695.212,129.112 668.649,147.336 667.413,139.923C664.324,119.846 655.985,120.772 657.838,114.286ZM162.703,114.286C164.556,120.772 156.216,119.846 153.127,139.923C151.892,147.336 125.328,129.112 136.139,115.83C144.788,104.71 160.849,107.799 162.703,114.286ZM509.93,264.71C490.483,264.71 474.718,248.945 474.718,229.498C474.718,210.051 490.483,194.286 509.93,194.286C529.377,194.286 545.142,210.051 545.142,229.498C545.142,248.945 529.377,264.71 509.93,264.71ZM500.664,225.483C506.805,225.483 511.783,220.504 511.783,214.363C511.783,208.222 506.805,203.243 500.664,203.243C494.522,203.243 489.544,208.222 489.544,214.363C489.544,220.504 494.522,225.483 500.664,225.483ZM378.61,314.44C382.317,300.232 395.29,295.598 405.792,295.29C432.664,294.672 442.857,309.189 443.784,320.618C445.637,340.077 370.27,344.71 378.61,314.44ZM269.645,264.71C250.198,264.71 234.433,248.945 234.433,229.498C234.433,210.051 250.198,194.286 269.645,194.286C289.092,194.286 304.857,210.051 304.857,229.498C304.857,248.945 289.092,264.71 269.645,264.71ZM278.911,225.483C285.053,225.483 290.031,220.504 290.031,214.363C290.031,208.222 285.053,203.243 278.911,203.243C272.77,203.243 267.792,208.222 267.792,214.363C267.792,220.504 272.77,225.483 278.911,225.483Z" style="fill:rgb(65,65,65);fill-rule:nonzero;"/>
                    </g>
                    <g transform="matrix(0.159715,0,0,0.86834,435.357,164.84)">
                        <path d="M654.229,501.986C644.654,501.677 638.476,489.013 638.476,481.291C638.476,467.392 640.329,451.021 650.522,443.917C671.526,429.399 688.206,502.295 654.229,501.986Z" style="fill:rgb(172,163,155);fill-rule:nonzero;"/>
                    </g>
                    <g transform="matrix(0.173028,-0.764621,0.127942,0.830902,375.979,129.803)">
                        <path d="M147.259,545.792C113.282,546.1 129.961,473.205 150.965,487.722C161.158,494.826 163.012,511.197 163.012,525.097C163.012,532.819 156.834,545.483 147.259,545.792Z" style="fill:rgb(172,163,155);fill-rule:nonzero;"/>
                    </g>
                </g>
                <g transform="matrix(1.09965,0,0,1.09965,79.9759,-58.0105)">
                    <g id="Gopher1" serif:id="Gopher" transform="matrix(0.113657,0,0,0.6036,464.58,268.953)">
                        <path d="M381.081,363.552C378.301,364.788 373.668,395.058 387.876,396.602C397.452,397.529 423.707,400.618 429.884,396.602C441.931,388.88 440.695,370.347 433.9,365.714C422.471,358.301 384.17,362.008 381.081,363.552ZM302.625,136.834C270.811,133.127 217.375,162.78 209.344,225.792C200.695,291.274 277.915,356.139 352.046,291.274C391.892,256.371 405.792,148.88 302.625,136.834ZM517.606,136.834C414.44,148.88 428.34,256.371 468.185,291.274C542.317,356.139 619.537,291.274 610.888,225.792C603.166,162.78 549.73,133.127 517.606,136.834Z" style="fill:white;fill-rule:nonzero;"/>
                        <path d="M143.488,513.987C145.054,459.554 119.546,407.934 75.515,376.429C48.568,356.998 24.493,339.773 24.493,339.773L43.503,283.52C43.503,283.52 120.005,340.503 145.57,359.546C147.157,360.729 149.272,360.904 151.029,359.997C152.786,359.09 153.882,357.257 153.859,355.267C153.8,349.56 153.571,344.176 153.127,339.151C147.568,281.39 142.934,222.703 150.039,183.166C153.745,161.236 81.467,156.293 105.251,106.873C125.637,64.556 175.985,101.931 188.649,88.649C253.205,21.622 331.66,3.707 393.436,2.162L427.413,2.162C488.88,5.251 567.336,21.931 632.201,88.649C644.865,101.931 694.903,64.556 715.598,106.873C739.382,155.985 667.104,161.236 670.811,183.166C677.606,222.703 672.973,281.39 667.722,339.151C658.764,437.066 731.969,671.506 579.382,765.714C550.656,783.629 482.394,793.514 415.058,795.058L414.44,795.058C347.104,793.514 269.575,783.629 240.849,765.714C152.441,711.019 140.035,609.057 143.488,513.987ZM517.606,136.834C414.44,148.88 428.34,256.371 468.185,291.274C542.317,356.139 619.537,291.274 610.888,225.792C603.166,162.78 549.73,133.127 517.606,136.834ZM381.081,363.552C378.301,364.788 373.668,395.058 387.876,396.602C397.452,397.529 423.707,400.618 429.884,396.602C441.931,388.88 440.695,370.347 433.9,365.714C422.471,358.301 384.17,362.008 381.081,363.552ZM302.625,136.834C270.811,133.127 217.375,162.78 209.344,225.792C200.695,291.274 277.915,356.139 352.046,291.274C391.892,256.371 405.792,148.88 302.625,136.834Z" style="fill:url(#_Linear2);"/>
                        <path d="M410.425,299.614C429.884,296.834 476.525,319.073 473.436,345.328C469.73,375.907 353.282,379.923 347.104,343.475C343.398,321.236 361.004,307.027 410.425,299.614ZM608.726,769.73C614.903,778.687 615.212,784.865 605.328,789.498C567.645,806.795 533.977,783.629 546.641,777.143C573.514,763.552 590.193,742.239 608.726,769.73ZM211.815,772.819C230.347,745.328 247.027,766.641 273.9,780.232C286.564,786.718 252.896,809.884 215.212,792.587C205.328,787.954 205.637,781.776 211.815,772.819Z" style="fill:rgb(172,163,155);fill-rule:nonzero;"/>
                        <path d="M657.838,114.286C659.382,107.799 675.444,104.71 684.402,115.83C695.212,129.112 668.649,147.336 667.413,139.923C664.324,119.846 655.985,120.772 657.838,114.286ZM162.703,114.286C164.556,120.772 156.216,119.846 153.127,139.923C151.892,147.336 125.328,129.112 136.139,115.83C144.788,104.71 160.849,107.799 162.703,114.286ZM509.93,264.71C490.483,264.71 474.718,248.945 474.718,229.498C474.718,210.051 490.483,194.286 509.93,194.286C529.377,194.286 545.142,210.051 545.142,229.498C545.142,248.945 529.377,264.71 509.93,264.71ZM500.664,225.483C506.805,225.483 511.783,220.504 511.783,214.363C511.783,208.222 506.805,203.243 500.664,203.243C494.522,203.243 489.544,208.222 489.544,214.363C489.544,220.504 494.522,225.483 500.664,225.483ZM378.61,314.44C382.317,300.232 395.29,295.598 405.792,295.29C432.664,294.672 442.857,309.189 443.784,320.618C445.637,340.077 370.27,344.71 378.61,314.44ZM269.645,264.71C250.198,264.71 234.433,248.945 234.433,229.498C234.433,210.051 250.198,194.286 269.645,194.286C289.092,194.286 304.857,210.051 304.857,229.498C304.857,248.945 289.092,264.71 269.645,264.71ZM278.911,225.483C285.053,225.483 290.031,220.504 290.031,214.363C290.031,208.222 285.053,203.243 278.911,203.243C272.77,203.243 267.792,208.222 267.792,214.363C267.792,220.504 272.77,225.483 278.911,225.483Z" style="fill:rgb(65,65,65);fill-rule:nonzero;"/>
                    </g>
                    <g transform="matrix(0.159715,0,0,0.86834,435.357,164.84)">
                        <path d="M654.229,501.986C644.654,501.677 638.476,489.013 638.476,481.291C638.476,467.392 640.329,451.021 650.522,443.917C671.526,429.399 688.206,502.295 654.229,501.986Z" style="fill:rgb(172,163,155);fill-rule:nonzero;"/>
                    </g>
                    <g transform="matrix(0.173028,-0.764621,0.127942,0.830902,375.979,129.803)">
                        <path d="M147.259,545.792C113.282,546.1 129.961,473.205 150.965,487.722C161.158,494.826 163.012,511.197 163.012,525.097C163.012,532.819 156.834,545.483 147.259,545.792Z" style="fill:rgb(172,163,155);fill-rule:nonzero;"/>
                    </g>
                </g>
            </g>
        </g>
    </g>
    <defs>
        <linearGradient id="_Linear1" x1="0" y1="0" x2="1" y2="0" gradientUnits="userSpaceOnUse" gradientTransform="matrix(619.975,0,0,792.896,100.437,398.61)"><stop offset="0" style="stop-color:rgb(91,203,245);stop-opacity:1"/><stop offset="1" style="stop-color:rgb(15,123,193);stop-opacity:1"/></linearGradient>
        <linearGradient id="_Linear2" x1="0" y1="0" x2="1" y2="0" gradientUnits="userSpaceOnUse" gradientTransform="matrix(619.975,0,0,792.896,100.437,398.61)"><stop offset="0" style="stop-color:rgb(140,45,97);stop-opacity:1"/><stop offset="1" style="stop-color:rgb(241,91,102);stop-opacity:1"/></linearGradient>
    </defs>
</svg>
