<?xml version="1.0" encoding="UTF-8" standalone="no"?>
<!DOCTYPE svg PUBLIC "-//W3C//DTD SVG 1.1//EN" "http://www.w3.org/Graphics/SVG/1.1/DTD/svg11.dtd">
<svg width="100%" height="100%" viewBox="0 0 601 140" version="1.1" xmlns="http://www.w3.org/2000/svg" xmlns:xlink="http://www.w3.org/1999/xlink" xml:space="preserve" xmlns:serif="http://www.serif.com/" style="fill-rule:evenodd;clip-rule:evenodd;stroke-linejoin:round;stroke-miterlimit:2;">
    <g transform="matrix(1,0,0,1,-202,-11010)">
        <g id="Sorting-by-Function" serif:id="Sorting by Function" transform="matrix(0.585938,0,0,0.182292,202.392,11010)">
            <rect x="0" y="0" width="1024" height="768" style="fill:none;"/>
            <g id="Gopher" transform="matrix(0.224491,0,0,0.721579,419.863,94.9934)">
                <g>
                    <path d="M381.081,363.552C378.301,364.788 373.668,395.058 387.876,396.602C397.452,397.529 423.707,400.618 429.884,396.602C441.931,388.88 440.695,370.347 433.9,365.714C422.471,358.301 384.17,362.008 381.081,363.552ZM302.625,136.834C270.811,133.127 217.375,162.78 209.344,225.792C200.695,291.274 277.915,356.139 352.046,291.274C391.892,256.371 405.792,148.88 302.625,136.834ZM517.606,136.834C414.44,148.88 428.34,256.371 468.185,291.274C542.317,356.139 619.537,291.274 610.888,225.792C603.166,162.78 549.73,133.127 517.606,136.834Z" style="fill:white;fill-rule:nonzero;"/>
                    <path d="M715.598,106.873C739.382,155.985 667.104,161.236 670.811,183.166C677.606,222.703 672.973,281.39 667.722,339.151C658.764,437.066 731.969,671.506 579.382,765.714C550.656,783.629 482.394,793.514 415.058,795.058L414.44,795.058C347.104,793.514 269.575,783.629 240.849,765.714C88.571,671.506 161.776,437.066 153.127,339.151C147.568,281.39 142.934,222.703 150.039,183.166C153.745,161.236 81.467,156.293 105.251,106.873C125.637,64.556 175.985,101.931 188.649,88.649C253.205,21.622 331.66,3.707 393.436,2.162L427.413,2.162C488.88,5.251 567.336,21.931 632.201,88.649C644.865,101.931 694.903,64.556 715.598,106.873ZM381.081,363.552C378.301,364.788 373.668,395.058 387.876,396.602C397.452,397.529 423.707,400.618 429.884,396.602C441.931,388.88 440.695,370.347 433.9,365.714C422.471,358.301 384.17,362.008 381.081,363.552ZM302.625,136.834C270.811,133.127 217.375,162.78 209.344,225.792C200.695,291.274 277.915,356.139 352.046,291.274C391.892,256.371 405.792,148.88 302.625,136.834ZM517.606,136.834C414.44,148.88 428.34,256.371 468.185,291.274C542.317,356.139 619.537,291.274 610.888,225.792C603.166,162.78 549.73,133.127 517.606,136.834Z" style="fill:url(#_Linear1);fill-rule:nonzero;"/>
                    <g transform="matrix(3.14916,0,0,3.14916,-325.007,-33638)">
                        <g transform="matrix(119.302,0,0,113.798,177.305,10909.1)">
                            <path d="M0.419,0.017C0.363,0.017 0.31,0.007 0.26,-0.012C0.21,-0.031 0.167,-0.058 0.13,-0.093C0.093,-0.128 0.064,-0.169 0.043,-0.218C0.021,-0.266 0.01,-0.318 0.01,-0.375C0.01,-0.431 0.021,-0.483 0.043,-0.532C0.064,-0.58 0.093,-0.621 0.13,-0.656C0.167,-0.691 0.21,-0.718 0.26,-0.738C0.31,-0.757 0.363,-0.767 0.419,-0.767C0.475,-0.767 0.528,-0.757 0.578,-0.738C0.628,-0.718 0.671,-0.691 0.708,-0.656C0.745,-0.621 0.774,-0.58 0.796,-0.532C0.817,-0.483 0.828,-0.431 0.828,-0.375C0.828,-0.318 0.817,-0.266 0.796,-0.218C0.774,-0.169 0.745,-0.128 0.708,-0.093C0.671,-0.058 0.628,-0.031 0.578,-0.012C0.528,0.007 0.475,0.017 0.419,0.017ZM0.419,-0.222C0.464,-0.222 0.5,-0.237 0.528,-0.266C0.556,-0.295 0.57,-0.331 0.57,-0.375C0.57,-0.419 0.556,-0.456 0.528,-0.485C0.5,-0.514 0.464,-0.528 0.419,-0.528C0.374,-0.528 0.338,-0.514 0.311,-0.485C0.283,-0.456 0.269,-0.419 0.269,-0.375C0.269,-0.331 0.283,-0.295 0.311,-0.266C0.338,-0.237 0.374,-0.222 0.419,-0.222Z" style="fill:rgb(243,193,5);fill-rule:nonzero;"/>
                        </g>
                    </g>
                    <path d="M410.425,299.614C429.884,296.834 476.525,319.073 473.436,345.328C469.73,375.907 353.282,379.923 347.104,343.475C343.398,321.236 361.004,307.027 410.425,299.614ZM608.726,769.73C614.903,778.687 615.212,784.865 605.328,789.498C567.645,806.795 533.977,783.629 546.641,777.143C573.514,763.552 590.193,742.239 608.726,769.73ZM211.815,772.819C230.347,745.328 247.027,766.641 273.9,780.232C286.564,786.718 252.896,809.884 215.212,792.587C205.328,787.954 205.637,781.776 211.815,772.819Z" style="fill:rgb(172,163,155);fill-rule:nonzero;"/>
                    <g transform="matrix(1,0,0,1,-26.9819,14.2608)">
                        <path d="M569.209,603.865C557.737,603.495 550.336,588.322 550.336,579.07C550.336,562.417 552.556,542.804 564.769,534.292C589.933,516.899 609.917,604.235 569.209,603.865Z" style="fill:rgb(172,163,155);fill-rule:nonzero;"/>
                    </g>
                    <path d="M657.838,114.286C659.382,107.799 675.444,104.71 684.402,115.83C695.212,129.112 668.649,147.336 667.413,139.923C664.324,119.846 655.985,120.772 657.838,114.286ZM162.703,114.286C164.556,120.772 156.216,119.846 153.127,139.923C151.892,147.336 125.328,129.112 136.139,115.83C144.788,104.71 160.849,107.799 162.703,114.286ZM524.71,277.293C505.263,277.293 489.498,261.528 489.498,242.08C489.498,222.633 505.263,206.868 524.71,206.868C544.158,206.868 559.923,222.633 559.923,242.08C559.923,261.528 544.158,277.293 524.71,277.293ZM515.444,238.065C521.585,238.065 526.564,233.087 526.564,226.945C526.564,220.804 521.585,215.826 515.444,215.826C509.303,215.826 504.324,220.804 504.324,226.945C504.324,233.087 509.303,238.065 515.444,238.065ZM378.61,314.44C382.317,300.232 395.29,295.598 405.792,295.29C432.664,294.672 442.857,309.189 443.784,320.618C445.637,340.077 370.27,344.71 378.61,314.44ZM302.121,277.293C282.674,277.293 266.909,261.528 266.909,242.08C266.909,222.633 282.674,206.868 302.121,206.868C321.569,206.868 337.334,222.633 337.334,242.08C337.334,261.528 321.569,277.293 302.121,277.293ZM311.388,238.065C317.529,238.065 322.507,233.087 322.507,226.945C322.507,220.804 317.529,215.826 311.388,215.826C305.246,215.826 300.268,220.804 300.268,226.945C300.268,233.087 305.246,238.065 311.388,238.065Z" style="fill:rgb(65,65,65);fill-rule:nonzero;"/>
                    <g transform="matrix(1.3367,0.502521,-0.503738,1.33993,309.256,-238.701)">
                        <path d="M147.259,545.792C113.282,546.1 129.961,473.205 150.965,487.722C161.158,494.826 163.012,511.197 163.012,525.097C163.012,532.819 156.834,545.483 147.259,545.792Z" style="fill:rgb(172,163,155);fill-rule:nonzero;"/>
                    </g>
                </g>
            </g>
            <g id="Gopher1" serif:id="Gopher" transform="matrix(0.224491,0,0,0.721579,260.858,94.9934)">
                <g>
                    <path d="M381.081,363.552C378.301,364.788 373.668,395.058 387.876,396.602C397.452,397.529 423.707,400.618 429.884,396.602C441.931,388.88 440.695,370.347 433.9,365.714C422.471,358.301 384.17,362.008 381.081,363.552ZM302.625,136.834C270.811,133.127 217.375,162.78 209.344,225.792C200.695,291.274 277.915,356.139 352.046,291.274C391.892,256.371 405.792,148.88 302.625,136.834ZM517.606,136.834C414.44,148.88 428.34,256.371 468.185,291.274C542.317,356.139 619.537,291.274 610.888,225.792C603.166,162.78 549.73,133.127 517.606,136.834Z" style="fill:white;fill-rule:nonzero;"/>
                    <path d="M715.598,106.873C739.382,155.985 667.104,161.236 670.811,183.166C677.606,222.703 672.973,281.39 667.722,339.151C658.764,437.066 731.969,671.506 579.382,765.714C550.656,783.629 482.394,793.514 415.058,795.058L414.44,795.058C347.104,793.514 269.575,783.629 240.849,765.714C88.571,671.506 161.776,437.066 153.127,339.151C147.568,281.39 142.934,222.703 150.039,183.166C153.745,161.236 81.467,156.293 105.251,106.873C125.637,64.556 175.985,101.931 188.649,88.649C253.205,21.622 331.66,3.707 393.436,2.162L427.413,2.162C488.88,5.251 567.336,21.931 632.201,88.649C644.865,101.931 694.903,64.556 715.598,106.873ZM381.081,363.552C378.301,364.788 373.668,395.058 387.876,396.602C397.452,397.529 423.707,400.618 429.884,396.602C441.931,388.88 440.695,370.347 433.9,365.714C422.471,358.301 384.17,362.008 381.081,363.552ZM302.625,136.834C270.811,133.127 217.375,162.78 209.344,225.792C200.695,291.274 277.915,356.139 352.046,291.274C391.892,256.371 405.792,148.88 302.625,136.834ZM517.606,136.834C414.44,148.88 428.34,256.371 468.185,291.274C542.317,356.139 619.537,291.274 610.888,225.792C603.166,162.78 549.73,133.127 517.606,136.834Z" style="fill:url(#_Linear2);fill-rule:nonzero;"/>
                    <g transform="matrix(3.14916,0,0,3.14916,-305.357,-33671.1)">
                        <g transform="matrix(119.302,0,0,113.798,177.305,10909.1)">
                            <path d="M0.419,0.017C0.363,0.017 0.31,0.007 0.26,-0.012C0.21,-0.031 0.167,-0.058 0.13,-0.093C0.093,-0.128 0.064,-0.169 0.043,-0.218C0.021,-0.266 0.01,-0.318 0.01,-0.375C0.01,-0.431 0.021,-0.483 0.043,-0.532C0.064,-0.58 0.093,-0.621 0.13,-0.656C0.167,-0.691 0.21,-0.718 0.26,-0.738C0.31,-0.757 0.363,-0.767 0.419,-0.767C0.475,-0.767 0.528,-0.757 0.578,-0.738C0.628,-0.718 0.671,-0.691 0.708,-0.656C0.745,-0.621 0.774,-0.58 0.796,-0.532C0.817,-0.483 0.828,-0.431 0.828,-0.375C0.828,-0.318 0.817,-0.266 0.796,-0.218C0.774,-0.169 0.745,-0.128 0.708,-0.093C0.671,-0.058 0.628,-0.031 0.578,-0.012C0.528,0.007 0.475,0.017 0.419,0.017ZM0.419,-0.222C0.464,-0.222 0.5,-0.237 0.528,-0.266C0.556,-0.295 0.57,-0.331 0.57,-0.375C0.57,-0.419 0.556,-0.456 0.528,-0.485C0.5,-0.514 0.464,-0.528 0.419,-0.528C0.374,-0.528 0.338,-0.514 0.311,-0.485C0.283,-0.456 0.269,-0.419 0.269,-0.375C0.269,-0.331 0.283,-0.295 0.311,-0.266C0.338,-0.237 0.374,-0.222 0.419,-0.222Z" style="fill:rgb(225,2,113);fill-rule:nonzero;"/>
                        </g>
                    </g>
                    <path d="M410.425,299.614C429.884,296.834 476.525,319.073 473.436,345.328C469.73,375.907 353.282,379.923 347.104,343.475C343.398,321.236 361.004,307.027 410.425,299.614ZM608.726,769.73C614.903,778.687 615.212,784.865 605.328,789.498C567.645,806.795 533.977,783.629 546.641,777.143C573.514,763.552 590.193,742.239 608.726,769.73ZM211.815,772.819C230.347,745.328 247.027,766.641 273.9,780.232C286.564,786.718 252.896,809.884 215.212,792.587C205.328,787.954 205.637,781.776 211.815,772.819Z" style="fill:rgb(172,163,155);fill-rule:nonzero;"/>
                    <g transform="matrix(0.910659,0.413159,-0.413159,0.910659,269.209,-164.169)">
                        <path d="M569.209,603.865C557.737,603.495 550.336,588.322 550.336,579.07C550.336,562.417 552.556,542.804 564.769,534.292C589.933,516.899 609.917,604.235 569.209,603.865Z" style="fill:rgb(172,163,155);fill-rule:nonzero;"/>
                    </g>
                    <path d="M657.838,114.286C659.382,107.799 675.444,104.71 684.402,115.83C695.212,129.112 668.649,147.336 667.413,139.923C664.324,119.846 655.985,120.772 657.838,114.286ZM162.703,114.286C164.556,120.772 156.216,119.846 153.127,139.923C151.892,147.336 125.328,129.112 136.139,115.83C144.788,104.71 160.849,107.799 162.703,114.286ZM524.71,277.293C505.263,277.293 489.498,261.528 489.498,242.08C489.498,222.633 505.263,206.868 524.71,206.868C544.158,206.868 559.923,222.633 559.923,242.08C559.923,261.528 544.158,277.293 524.71,277.293ZM515.444,238.065C521.585,238.065 526.564,233.087 526.564,226.945C526.564,220.804 521.585,215.826 515.444,215.826C509.303,215.826 504.324,220.804 504.324,226.945C504.324,233.087 509.303,238.065 515.444,238.065ZM378.61,314.44C382.317,300.232 395.29,295.598 405.792,295.29C432.664,294.672 442.857,309.189 443.784,320.618C445.637,340.077 370.27,344.71 378.61,314.44ZM302.121,277.293C282.674,277.293 266.909,261.528 266.909,242.08C266.909,222.633 282.674,206.868 302.121,206.868C321.569,206.868 337.334,222.633 337.334,242.08C337.334,261.528 321.569,277.293 302.121,277.293ZM311.388,238.065C317.529,238.065 322.507,233.087 322.507,226.945C322.507,220.804 317.529,215.826 311.388,215.826C305.246,215.826 300.268,220.804 300.268,226.945C300.268,233.087 305.246,238.065 311.388,238.065Z" style="fill:rgb(65,65,65);fill-rule:nonzero;"/>
                    <g transform="matrix(1.24551,0.698557,-0.700248,1.24853,455.761,-275.302)">
                        <path d="M147.259,545.792C113.282,546.1 129.961,473.205 150.965,487.722C161.158,494.826 163.012,511.197 163.012,525.097C163.012,532.819 156.834,545.483 147.259,545.792Z" style="fill:rgb(172,163,155);fill-rule:nonzero;"/>
                    </g>
                </g>
            </g>
            <g id="Gopher2" serif:id="Gopher" transform="matrix(0.224491,0,0,0.721579,578.869,94.9934)">
                <g>
                    <path d="M381.081,363.552C378.301,364.788 373.668,395.058 387.876,396.602C397.452,397.529 423.707,400.618 429.884,396.602C441.931,388.88 440.695,370.347 433.9,365.714C422.471,358.301 384.17,362.008 381.081,363.552ZM302.625,136.834C270.811,133.127 217.375,162.78 209.344,225.792C200.695,291.274 277.915,356.139 352.046,291.274C391.892,256.371 405.792,148.88 302.625,136.834ZM517.606,136.834C414.44,148.88 428.34,256.371 468.185,291.274C542.317,356.139 619.537,291.274 610.888,225.792C603.166,162.78 549.73,133.127 517.606,136.834Z" style="fill:white;fill-rule:nonzero;"/>
                    <path d="M715.598,106.873C739.382,155.985 667.104,161.236 670.811,183.166C677.606,222.703 672.973,281.39 667.722,339.151C658.764,437.066 731.969,671.506 579.382,765.714C550.656,783.629 482.394,793.514 415.058,795.058L414.44,795.058C347.104,793.514 269.575,783.629 240.849,765.714C88.571,671.506 161.776,437.066 153.127,339.151C147.568,281.39 142.934,222.703 150.039,183.166C153.745,161.236 81.467,156.293 105.251,106.873C125.637,64.556 175.985,101.931 188.649,88.649C253.205,21.622 331.66,3.707 393.436,2.162L427.413,2.162C488.88,5.251 567.336,21.931 632.201,88.649C644.865,101.931 694.903,64.556 715.598,106.873ZM381.081,363.552C378.301,364.788 373.668,395.058 387.876,396.602C397.452,397.529 423.707,400.618 429.884,396.602C441.931,388.88 440.695,370.347 433.9,365.714C422.471,358.301 384.17,362.008 381.081,363.552ZM302.625,136.834C270.811,133.127 217.375,162.78 209.344,225.792C200.695,291.274 277.915,356.139 352.046,291.274C391.892,256.371 405.792,148.88 302.625,136.834ZM517.606,136.834C414.44,148.88 428.34,256.371 468.185,291.274C542.317,356.139 619.537,291.274 610.888,225.792C603.166,162.78 549.73,133.127 517.606,136.834Z" style="fill:url(#_Linear3);fill-rule:nonzero;"/>
                    <g transform="matrix(3.14916,0,0,3.14916,-287.862,-33685.3)">
                        <g transform="matrix(119.302,0,0,113.798,177.305,10909.1)">
                            <path d="M0.419,0.017C0.363,0.017 0.31,0.007 0.26,-0.012C0.21,-0.031 0.167,-0.058 0.13,-0.093C0.093,-0.128 0.064,-0.169 0.043,-0.218C0.021,-0.266 0.01,-0.318 0.01,-0.375C0.01,-0.431 0.021,-0.483 0.043,-0.532C0.064,-0.58 0.093,-0.621 0.13,-0.656C0.167,-0.691 0.21,-0.718 0.26,-0.738C0.31,-0.757 0.363,-0.767 0.419,-0.767C0.475,-0.767 0.528,-0.757 0.578,-0.738C0.628,-0.718 0.671,-0.691 0.708,-0.656C0.745,-0.621 0.774,-0.58 0.796,-0.532C0.817,-0.483 0.828,-0.431 0.828,-0.375C0.828,-0.318 0.817,-0.266 0.796,-0.218C0.774,-0.169 0.745,-0.128 0.708,-0.093C0.671,-0.058 0.628,-0.031 0.578,-0.012C0.528,0.007 0.475,0.017 0.419,0.017ZM0.419,-0.222C0.464,-0.222 0.5,-0.237 0.528,-0.266C0.556,-0.295 0.57,-0.331 0.57,-0.375C0.57,-0.419 0.556,-0.456 0.528,-0.485C0.5,-0.514 0.464,-0.528 0.419,-0.528C0.374,-0.528 0.338,-0.514 0.311,-0.485C0.283,-0.456 0.269,-0.419 0.269,-0.375C0.269,-0.331 0.283,-0.295 0.311,-0.266C0.338,-0.237 0.374,-0.222 0.419,-0.222Z" style="fill:rgb(122,59,139);fill-rule:nonzero;"/>
                        </g>
                    </g>
                    <path d="M410.425,299.614C429.884,296.834 476.525,319.073 473.436,345.328C469.73,375.907 353.282,379.923 347.104,343.475C343.398,321.236 361.004,307.027 410.425,299.614ZM608.726,769.73C614.903,778.687 615.212,784.865 605.328,789.498C567.645,806.795 533.977,783.629 546.641,777.143C573.514,763.552 590.193,742.239 608.726,769.73ZM211.815,772.819C230.347,745.328 247.027,766.641 273.9,780.232C286.564,786.718 252.896,809.884 215.212,792.587C205.328,787.954 205.637,781.776 211.815,772.819Z" style="fill:rgb(172,163,155);fill-rule:nonzero;"/>
                    <g transform="matrix(0.971707,0.23619,-0.23619,0.971707,146.536,-96.2689)">
                        <path d="M569.209,603.865C557.737,603.495 550.336,588.322 550.336,579.07C550.336,562.417 552.556,542.804 564.769,534.292C589.933,516.899 609.917,604.235 569.209,603.865Z" style="fill:rgb(172,163,155);fill-rule:nonzero;"/>
                    </g>
                    <path d="M657.838,114.286C659.382,107.799 675.444,104.71 684.402,115.83C695.212,129.112 668.649,147.336 667.413,139.923C664.324,119.846 655.985,120.772 657.838,114.286ZM162.703,114.286C164.556,120.772 156.216,119.846 153.127,139.923C151.892,147.336 125.328,129.112 136.139,115.83C144.788,104.71 160.849,107.799 162.703,114.286ZM524.71,277.293C505.263,277.293 489.498,261.528 489.498,242.08C489.498,222.633 505.263,206.868 524.71,206.868C544.158,206.868 559.923,222.633 559.923,242.08C559.923,261.528 544.158,277.293 524.71,277.293ZM515.444,238.065C521.585,238.065 526.564,233.087 526.564,226.945C526.564,220.804 521.585,215.826 515.444,215.826C509.303,215.826 504.324,220.804 504.324,226.945C504.324,233.087 509.303,238.065 515.444,238.065ZM378.61,314.44C382.317,300.232 395.29,295.598 405.792,295.29C432.664,294.672 442.857,309.189 443.784,320.618C445.637,340.077 370.27,344.71 378.61,314.44ZM302.121,277.293C282.674,277.293 266.909,261.528 266.909,242.08C266.909,222.633 282.674,206.868 302.121,206.868C321.569,206.868 337.334,222.633 337.334,242.08C337.334,261.528 321.569,277.293 302.121,277.293ZM311.388,238.065C317.529,238.065 322.507,233.087 322.507,226.945C322.507,220.804 317.529,215.826 311.388,215.826C305.246,215.826 300.268,220.804 300.268,226.945C300.268,233.087 305.246,238.065 311.388,238.065Z" style="fill:rgb(65,65,65);fill-rule:nonzero;"/>
                    <g transform="matrix(1.42802,0.00655449,-0.00657036,1.43148,70.0347,-204.409)">
                        <path d="M147.259,545.792C113.282,546.1 129.961,473.205 150.965,487.722C161.158,494.826 163.012,511.197 163.012,525.097C163.012,532.819 156.834,545.483 147.259,545.792Z" style="fill:rgb(172,163,155);fill-rule:nonzero;"/>
                    </g>
                </g>
            </g>
        </g>
    </g>
    <defs>
        <linearGradient id="_Linear1" x1="0" y1="0" x2="1" y2="0" gradientUnits="userSpaceOnUse" gradientTransform="matrix(619.975,0,0,792.896,100.437,398.61)"><stop offset="0" style="stop-color:rgb(15,123,193);stop-opacity:1"/><stop offset="1" style="stop-color:rgb(91,203,245);stop-opacity:1"/></linearGradient>
        <linearGradient id="_Linear2" x1="0" y1="0" x2="1" y2="0" gradientUnits="userSpaceOnUse" gradientTransform="matrix(619.975,0,0,792.896,100.437,398.61)"><stop offset="0" style="stop-color:rgb(15,123,193);stop-opacity:1"/><stop offset="1" style="stop-color:rgb(91,203,245);stop-opacity:1"/></linearGradient>
        <linearGradient id="_Linear3" x1="0" y1="0" x2="1" y2="0" gradientUnits="userSpaceOnUse" gradientTransform="matrix(619.975,0,0,792.896,100.437,398.61)"><stop offset="0" style="stop-color:rgb(15,123,193);stop-opacity:1"/><stop offset="1" style="stop-color:rgb(91,203,245);stop-opacity:1"/></linearGradient>
    </defs>
</svg>
