<?xml version="1.0" encoding="UTF-8" standalone="no"?>
<!DOCTYPE svg PUBLIC "-//W3C//DTD SVG 1.1//EN" "http://www.w3.org/Graphics/SVG/1.1/DTD/svg11.dtd">
<svg width="100%" height="100%" viewBox="0 0 1000 140" version="1.1" xmlns="http://www.w3.org/2000/svg" xmlns:xlink="http://www.w3.org/1999/xlink" xml:space="preserve" xmlns:serif="http://www.serif.com/" style="fill-rule:evenodd;clip-rule:evenodd;stroke-miterlimit:10;">
    <g transform="matrix(1,0,0,1,0,-1130)">
        <g id="Standard-Library" serif:id="Standard Library" transform="matrix(0.976563,0,0,0.182292,1.7053e-13,1130)">
            <rect x="0" y="0" width="1024" height="768" style="fill:none;"/>
            <g transform="matrix(0.248797,0,0,1.33284,394.186,-267.198)">
                <g id="Warstwa_1">
                </g>
                <g id="Warstwa_2">
                    <g id="XMLID_4_">
                        <g>
                            <path d="M501.6,259.91C496.49,254.23 490.58,249.35 484.08,245.2C479.73,242.43 475.11,239.97 470.28,237.81C424.25,217.18 359.85,223.67 331.71,233.83C314.28,240.12 299.61,249.74 287.34,261.77C283.4,265.61 279.73,269.71 276.28,274.02C270.19,281.64 264.83,289.93 260.14,298.72C257.37,303.88 254.84,309.22 252.53,314.71C235.14,355.77 229.65,404.92 230.37,448.44C230.44,452.42 230.41,456.4 230.31,460.38C228.23,537.54 236.35,615.76 275.69,661.61C326.27,720.56 389.13,732.05 488.07,710.68C542.66,698.88 560.19,679.24 569.45,638.97C574.99,614.92 597.27,554.48 545.76,492.59C526.23,469.15 511.98,435.04 522.57,399.22C534.4,359.21 537.71,320.48 513.29,277.25C512.36,275.31 511.35,273.46 510.26,271.65C507.72,267.4 504.82,263.5 501.6,259.91Z" style="fill:url(#_Linear1);fill-rule:nonzero;"/>
                            <path d="M252.82,278.77C252.89,278.67 253.07,278.44 253.34,278.02C253.23,278.19 253.13,278.36 253.05,278.53C254.48,276.9 261.93,269.02 271.47,274.2L276.27,274.02C279.72,269.71 283.39,265.61 287.33,261.77C275.69,253.12 257.81,252.11 246.49,261.08C234.63,270.47 230.47,288.59 237,302.35C239.43,307.47 246.57,313.27 252.52,314.7C254.83,309.22 257.37,303.88 260.13,298.71L257.34,297.16C252.4,292.95 249.78,284.14 253.05,278.52C252.95,278.65 252.87,278.73 252.82,278.77Z" style="fill:url(#_Linear2);fill-rule:nonzero;"/>
                            <path d="M253.05,278.53C249.78,284.15 252.39,292.95 257.34,297.17L260.13,298.72C264.82,289.93 270.18,281.64 276.27,274.02L271.47,274.2C261.93,269.02 254.48,276.9 253.05,278.53Z" style="fill:url(#_Linear3);fill-rule:nonzero;"/>
                            <path d="M252.82,278.77C252.87,278.73 252.94,278.65 253.05,278.53C253.13,278.36 253.23,278.19 253.34,278.02C253.07,278.44 252.9,278.68 252.82,278.77Z" style="fill:url(#_Linear4);fill-rule:nonzero;"/>
                            <path d="M470.56,234.67L470.28,237.81C475.1,239.97 479.72,242.43 484.08,245.2L484.33,242.84C490.4,236.75 504.91,239.99 505.78,248.6C505.96,250.45 505.46,253.89 505.02,255.71C504.62,257.32 503.15,259.1 501.61,259.91C504.83,263.5 507.74,267.4 510.27,271.65C518.38,264.73 523.66,250.85 521.03,240.67C518.26,229.96 508.63,221.45 497.81,220.17C486.99,218.89 475.67,224.91 470.56,234.67Z" style="fill:url(#_Linear5);fill-rule:nonzero;"/>
                            <path d="M484.32,242.84L484.07,245.2C490.57,249.35 496.49,254.23 501.59,259.91C503.13,259.1 504.6,257.32 505,255.71C505.44,253.9 505.94,250.45 505.76,248.6C504.91,239.99 490.39,236.74 484.32,242.84Z" style="fill:url(#_Linear6);fill-rule:nonzero;"/>
                        </g>
                    </g>
                    <g transform="matrix(0.9874,-0.1582,0.1582,0.9874,-48.2142,78.5706)">
                        <ellipse cx="469.27" cy="342.04" rx="50.37" ry="45.93" style="fill:white;stroke:white;stroke-width:1px;"/>
                    </g>
                    <g transform="matrix(0.9874,-0.1582,0.1582,0.9874,-51.1088,57.8425)">
                        <ellipse cx="337.66" cy="349.86" rx="50.37" ry="45.93" style="fill:white;stroke:white;stroke-width:1px;"/>
                    </g>
                    <g transform="matrix(0.936,-0.3521,0.3521,0.936,-96.6588,186.153)">
                        <ellipse cx="463.39" cy="358.78" rx="15.24" ry="14.92" style="fill:rgb(32,32,32);"/>
                    </g>
                    <g transform="matrix(0.9707,-0.2403,0.2403,0.9707,-76.8771,94.7695)">
                        <ellipse cx="350.2" cy="362.65" rx="15.23" ry="14.93" style="fill:rgb(32,32,32);"/>
                    </g>
                    <g>
                        <path d="M427.42,423.83C428.57,429.09 429.72,434.35 430.86,439.61C431.56,442.82 432.26,446.26 431.45,449.26C430.63,452.29 428.31,454.34 425.74,454.81C420.68,455.73 416.56,456.95 413.96,451.07C411.63,445.8 410.78,435.77 409.59,430.05C409.19,428.14 408.15,422.63 411.01,421.76C413.81,420.91 415.34,419.85 418.19,419.24C421.04,418.63 424.22,419.74 426.6,422.17" style="fill:white;fill-rule:nonzero;"/>
                    </g>
                    <g>
                        <path d="M410.1,429.18C410.37,434.56 410.64,439.94 410.91,445.33C411.07,448.62 411.2,452.12 409.96,454.94C408.71,457.78 406.18,459.41 403.66,459.44C398.7,459.49 396.56,457.42 394.57,453.68C391.94,448.72 392.4,438.12 392.17,432.28C392.09,430.33 391.97,424.72 394.82,424.35C397.61,423.99 399.23,423.2 402.04,423.09C404.85,422.98 407.7,424.61 409.58,427.41" style="fill:white;fill-rule:nonzero;"/>
                    </g>
                    <g>
                        <path d="M370.04,420.59C383.63,395.97 422.42,392.49 443.76,409.72C446.8,412.18 450.76,421.08 449.23,424.71C445.31,434 428.62,433.13 421.22,431.27C414.52,429.58 407.44,430.28 401.3,433.48C388.38,440.22 371.28,449.13 367.88,434.09C366.83,429.5 367.77,424.69 370.04,420.59Z" style="fill:rgb(172,163,155);fill-rule:nonzero;"/>
                    </g>
                    <g transform="matrix(0.9844,-0.176,0.176,0.9844,-59.2447,68.4264)">
                        <ellipse cx="356.04" cy="368.13" rx="4.81" ry="4.57" style="fill:white;"/>
                    </g>
                    <g transform="matrix(0.9844,-0.176,0.176,0.9844,-56.6788,86.81)">
                        <ellipse cx="460.94" cy="362.86" rx="4.81" ry="4.57" style="fill:white;"/>
                    </g>
                </g>
                <g id="Warstwa_3">
                    <g>
                        <g>
                            <g>
                                <path d="M413.046,482.007L412.11,479.92C412.11,479.92 453.32,443 530.81,442C531.199,444.9 531.484,447.575 531.702,449.945C534.056,450.011 536.439,450.112 538.85,450.25C536.497,451.03 534.189,451.797 531.927,452.548C532.17,455.549 532.309,457.876 532.45,459.3C436.78,503.94 424.88,503.13 424.88,503.13L418.648,491.803C417.712,492.226 417.67,492.31 417.67,492.31L413.429,482.859C412.502,483.481 412.03,483.83 412.03,483.83L411.52,483.06C411.52,483.06 412.031,482.681 413.046,482.007ZM409.563,484.118L405.68,493.46C405.68,493.46 404.16,491.47 278.61,475.08C365.15,445.41 411.42,479.65 411.42,479.65L409.934,483.226C410.026,483.386 411.864,486.57 409.65,484.21C409.621,484.18 409.592,484.149 409.563,484.118Z" style="fill:white;"/>
                                <path d="M417.32,657.91L293.95,638.43C290.78,637.94 288.44,635.83 288.19,633.21L273.01,477.28C272.64,473.39 276.89,470.09 281.68,470.56L396.385,481.858C397.138,481.533 400.839,480.162 411.78,479.12C413.29,478.98 422.77,478.88 424.09,478.94C424.051,478.943 424.011,478.946 423.972,478.949C426.669,478.886 428.862,478.955 430.517,479.061L543.07,445.67C547.76,444.29 552.68,446.76 553.07,450.74L568.22,606.41C568.48,609.08 566.56,611.66 563.47,612.76L448.64,653.97L448.639,653.962L448.619,653.97L448.62,653.98L417.32,657.91Z" style="fill:url(#_Linear7);"/>
                            </g>
                        </g>
                    </g>
                </g>
                <g id="Warstwa_4">
                    <g>
                        <path d="M562.94,502.1C555.36,500.66 548.62,504.35 541.46,505.47C539.43,505.79 537.34,506.14 535.93,508.03C534.52,509.92 533.92,513.75 535.11,518.01C536.86,524.28 541.18,528.01 544.64,529.88C554.5,535.23 557.1,534.37 565,532C575,529 573,504 562.94,502.1Z" style="fill:rgb(172,163,155);fill-rule:nonzero;"/>
                    </g>
                    <g>
                        <path d="M258.05,544.26C263.19,536.49 275.97,535.3 284.93,530.83C289.33,528.63 294.9,526.48 300.5,529.25C304.51,531.24 307.09,535.3 307.56,538.88C308.03,542.46 306.77,545.64 305.16,548.49C299.49,558.53 289.3,565.92 276.56,569.22C276.57,569.21 251.67,553.91 258.05,544.26Z" style="fill:rgb(172,163,155);fill-rule:nonzero;"/>
                    </g>
                    <g>
                        <path d="M510.01,683.49C519.21,663.64 528.87,643.16 544.91,628.7C577.22,602.69 575.5,659.9 559.65,675.28C552.39,689.99 499.2,715.51 510.01,683.49Z" style="fill:rgb(172,163,155);fill-rule:nonzero;"/>
                    </g>
                    <g>
                        <path d="M299.93,690.2C296.47,684.86 293.6,678.84 293.42,672.57C293.25,666.3 296.35,659.8 301.97,657.75C307.52,655.72 313.79,658.3 319.38,660.84C328.58,665.02 337.93,669.28 345.76,675.92C353.59,682.55 361.61,701.63 361.61,701.63C366.42,707.61 362.99,717.19 356.52,720.4C350.06,723.61 342.1,722.04 335.14,719.28C320.99,713.68 308.43,703.3 299.93,690.2Z" style="fill:rgb(172,163,155);fill-rule:nonzero;"/>
                    </g>
                    <g transform="matrix(0.9986,-0.0538,0.0538,0.9986,-20.8857,22.4685)">
                        <ellipse cx="406.91" cy="399.19" rx="22.2" ry="10.4" style="fill:rgb(32,32,32);"/>
                    </g>
                </g>
            </g>
        </g>
    </g>
    <defs>
        <linearGradient id="_Linear1" x1="0" y1="0" x2="1" y2="0" gradientUnits="userSpaceOnUse" gradientTransform="matrix(348.991,0,0,500.65,230.011,470.324)"><stop offset="0" style="stop-color:rgb(15,123,193);stop-opacity:1"/><stop offset="1" style="stop-color:rgb(91,203,245);stop-opacity:1"/></linearGradient>
        <linearGradient id="_Linear2" x1="0" y1="0" x2="1" y2="0" gradientUnits="userSpaceOnUse" gradientTransform="matrix(348.991,0,0,500.65,230.011,470.324)"><stop offset="0" style="stop-color:rgb(15,123,193);stop-opacity:1"/><stop offset="1" style="stop-color:rgb(91,203,245);stop-opacity:1"/></linearGradient>
        <linearGradient id="_Linear3" x1="0" y1="0" x2="1" y2="0" gradientUnits="userSpaceOnUse" gradientTransform="matrix(348.991,0,0,500.65,230.011,470.324)"><stop offset="0" style="stop-color:rgb(15,123,193);stop-opacity:1"/><stop offset="1" style="stop-color:rgb(91,203,245);stop-opacity:1"/></linearGradient>
        <linearGradient id="_Linear4" x1="0" y1="0" x2="1" y2="0" gradientUnits="userSpaceOnUse" gradientTransform="matrix(348.991,0,0,500.65,230.011,470.324)"><stop offset="0" style="stop-color:rgb(15,123,193);stop-opacity:1"/><stop offset="1" style="stop-color:rgb(91,203,245);stop-opacity:1"/></linearGradient>
        <linearGradient id="_Linear5" x1="0" y1="0" x2="1" y2="0" gradientUnits="userSpaceOnUse" gradientTransform="matrix(348.991,0,0,500.65,230.011,470.324)"><stop offset="0" style="stop-color:rgb(15,123,193);stop-opacity:1"/><stop offset="1" style="stop-color:rgb(91,203,245);stop-opacity:1"/></linearGradient>
        <linearGradient id="_Linear6" x1="0" y1="0" x2="1" y2="0" gradientUnits="userSpaceOnUse" gradientTransform="matrix(348.991,0,0,500.65,230.011,470.324)"><stop offset="0" style="stop-color:rgb(15,123,193);stop-opacity:1"/><stop offset="1" style="stop-color:rgb(91,203,245);stop-opacity:1"/></linearGradient>
        <linearGradient id="_Linear7" x1="0" y1="0" x2="1" y2="0" gradientUnits="userSpaceOnUse" gradientTransform="matrix(295.256,0,0,212.626,272.988,551.597)"><stop offset="0" style="stop-color:rgb(250,166,63);stop-opacity:1"/><stop offset="1" style="stop-color:rgb(201,23,84);stop-opacity:1"/></linearGradient>
    </defs>
</svg>
