<?xml version="1.0" encoding="UTF-8" standalone="no"?>
<!DOCTYPE svg PUBLIC "-//W3C//DTD SVG 1.1//EN" "http://www.w3.org/Graphics/SVG/1.1/DTD/svg11.dtd">
<svg width="100%" height="100%" viewBox="0 0 1000 140" version="1.1" xmlns="http://www.w3.org/2000/svg" xmlns:xlink="http://www.w3.org/1999/xlink" xml:space="preserve" xmlns:serif="http://www.serif.com/" style="fill-rule:evenodd;clip-rule:evenodd;stroke-linecap:round;stroke-linejoin:round;stroke-miterlimit:1.5;">
    <g transform="matrix(1,0,0,1,0,-1300)">
        <g id="Static-Typing" serif:id="Static Typing" transform="matrix(0.976562,0,0,0.182292,2.84217e-13,1300)">
            <rect x="0" y="0" width="1024" height="768" style="fill:none;"/>
            <g id="Gopher" transform="matrix(0.150775,0,0,0.807721,450.465,46.6882)">
                <path d="M381.081,363.552C378.301,364.788 373.668,395.058 387.876,396.602C397.452,397.529 423.707,400.618 429.884,396.602C441.931,388.88 440.695,370.347 433.9,365.714C422.471,358.301 384.17,362.008 381.081,363.552ZM302.625,136.834C270.811,133.127 217.375,162.78 209.344,225.792C200.695,291.274 277.915,356.139 352.046,291.274C391.892,256.371 405.792,148.88 302.625,136.834ZM517.606,136.834C414.44,148.88 428.34,256.371 468.185,291.274C542.317,356.139 619.537,291.274 610.888,225.792C603.166,162.78 549.73,133.127 517.606,136.834Z" style="fill:white;fill-rule:nonzero;"/>
                <path d="M715.598,106.873C739.382,155.985 667.104,161.236 670.811,183.166C677.606,222.703 672.973,281.39 667.722,339.151C658.764,437.066 731.969,671.506 579.382,765.714C550.656,783.629 482.394,793.514 415.058,795.058L414.44,795.058C347.104,793.514 269.575,783.629 240.849,765.714C88.571,671.506 161.776,437.066 153.127,339.151C147.568,281.39 142.934,222.703 150.039,183.166C153.745,161.236 81.467,156.293 105.251,106.873C125.637,64.556 175.985,101.931 188.649,88.649C253.205,21.622 331.66,3.707 393.436,2.162L427.413,2.162C488.88,5.251 567.336,21.931 632.201,88.649C644.865,101.931 694.903,64.556 715.598,106.873ZM381.081,363.552C378.301,364.788 373.668,395.058 387.876,396.602C397.452,397.529 423.707,400.618 429.884,396.602C441.931,388.88 440.695,370.347 433.9,365.714C422.471,358.301 384.17,362.008 381.081,363.552ZM302.625,136.834C270.811,133.127 217.375,162.78 209.344,225.792C200.695,291.274 277.915,356.139 352.046,291.274C391.892,256.371 405.792,148.88 302.625,136.834ZM517.606,136.834C414.44,148.88 428.34,256.371 468.185,291.274C542.317,356.139 619.537,291.274 610.888,225.792C603.166,162.78 549.73,133.127 517.606,136.834Z" style="fill:url(#_Linear1);fill-rule:nonzero;"/>
                <g transform="matrix(6.63241,0,0,1.23805,-2987.67,-57.8024)">
                    <g transform="matrix(1.024,0,0,5.48571,109.707,-7064.7)">
                        <path d="M359.859,1403.46C359.923,1404.19 360.384,1404.83 361.057,1405.12C361.731,1405.41 362.51,1405.31 363.086,1404.85C367.532,1401.25 371.268,1399.19 374.451,1398.33C375.017,1398.19 375.615,1398.31 376.088,1398.65C378.824,1400.61 388.407,1407.51 391.781,1409.94C392.488,1410.45 393.443,1410.45 394.142,1409.93C397.526,1407.41 407.196,1400.23 409.421,1398.58C409.735,1398.35 410.11,1398.21 410.5,1398.19C416.142,1397.88 420.72,1399.61 424.585,1403.28C425.145,1403.81 425.965,1403.95 426.674,1403.65C427.384,1403.35 427.849,1402.66 427.858,1401.89C428.125,1385.34 430.695,1371.55 435.066,1359.86C435.455,1358.84 434.951,1357.69 433.935,1357.29C427.282,1354.61 421.813,1350.64 417.428,1345.48C417.066,1345.05 416.535,1344.79 415.969,1344.77C415.403,1344.75 414.855,1344.97 414.463,1345.38C409.317,1350.56 402.312,1354.98 393.684,1358.74C393.221,1358.94 392.699,1358.96 392.223,1358.79C383.557,1355.74 376.911,1351.24 372.083,1345.44C371.72,1344.99 371.18,1344.72 370.604,1344.7C370.027,1344.68 369.47,1344.91 369.077,1345.34C364.567,1350.12 359.327,1354.34 352.378,1357.2C351.391,1357.6 350.895,1358.71 351.252,1359.71C359.306,1381.66 358.754,1391.38 359.859,1403.46Z" style="fill:white;stroke:rgb(172,163,155);stroke-width:0.5px;"/>
                    </g>
                    <g transform="matrix(1.02366,-0.0186685,-0.00348479,5.29659,114.744,-6798.6)">
                        <path d="M370.408,1345.49L375.155,1397.85" style="fill:none;stroke:rgb(172,163,155);stroke-width:0.51px;"/>
                    </g>
                    <g transform="matrix(1.02028,0.445136,-0.0870804,5.27604,251.133,-6877.75)">
                        <path d="M370.704,1347.67L375.056,1397.64" style="fill:none;stroke:rgb(172,163,155);stroke-width:0.51px;"/>
                    </g>
                    <g transform="matrix(1.00029,1.16521,-0.216768,5.16776,456.577,-7063.77)">
                        <path d="M370.503,1345.24L376.074,1397.78" style="fill:none;stroke:rgb(172,163,155);stroke-width:0.51px;"/>
                    </g>
                </g>
                <path d="M410.425,299.614C429.884,296.834 476.525,319.073 473.436,345.328C469.73,375.907 353.282,379.923 347.104,343.475C343.398,321.236 361.004,307.027 410.425,299.614ZM673.282,545.792C663.707,545.483 657.529,532.819 657.529,525.097C657.529,511.197 659.382,494.826 669.575,487.722C690.579,473.205 707.259,546.1 673.282,545.792ZM147.259,545.792C113.282,546.1 129.961,473.205 150.965,487.722C161.158,494.826 163.012,511.197 163.012,525.097C163.012,532.819 156.834,545.483 147.259,545.792ZM608.726,769.73C614.903,778.687 615.212,784.865 605.328,789.498C567.645,806.795 533.977,783.629 546.641,777.143C573.514,763.552 590.193,742.239 608.726,769.73ZM211.815,772.819C230.347,745.328 247.027,766.641 273.9,780.232C286.564,786.718 252.896,809.884 215.212,792.587C205.328,787.954 205.637,781.776 211.815,772.819Z" style="fill:rgb(172,163,155);fill-rule:nonzero;"/>
                <path d="M657.838,114.286C659.382,107.799 675.444,104.71 684.402,115.83C695.212,129.112 668.649,147.336 667.413,139.923C664.324,119.846 655.985,120.772 657.838,114.286ZM162.703,114.286C164.556,120.772 156.216,119.846 153.127,139.923C151.892,147.336 125.328,129.112 136.139,115.83C144.788,104.71 160.849,107.799 162.703,114.286ZM517.919,291.877C498.472,291.877 482.706,276.112 482.706,256.664C482.706,237.217 498.472,221.452 517.919,221.452C537.366,221.452 553.131,237.217 553.131,256.664C553.131,276.112 537.366,291.877 517.919,291.877ZM508.652,252.649C514.794,252.649 519.772,247.671 519.772,241.529C519.772,235.388 514.794,230.41 508.652,230.41C502.511,230.41 497.533,235.388 497.533,241.529C497.533,247.671 502.511,252.649 508.652,252.649ZM378.61,314.44C382.317,300.232 395.29,295.598 405.792,295.29C432.664,294.672 442.857,309.189 443.784,320.618C445.637,340.077 370.27,344.71 378.61,314.44ZM302.622,291.877C283.174,291.877 267.409,276.112 267.409,256.664C267.409,237.217 283.174,221.452 302.622,221.452C322.069,221.452 337.834,237.217 337.834,256.664C337.834,276.112 322.069,291.877 302.622,291.877ZM311.888,252.649C318.029,252.649 323.008,247.671 323.008,241.529C323.008,235.388 318.029,230.41 311.888,230.41C305.747,230.41 300.768,235.388 300.768,241.529C300.768,247.671 305.747,252.649 311.888,252.649Z" style="fill:rgb(65,65,65);fill-rule:nonzero;"/>
            </g>
        </g>
    </g>
    <defs>
        <linearGradient id="_Linear1" x1="0" y1="0" x2="1" y2="0" gradientUnits="userSpaceOnUse" gradientTransform="matrix(619.975,0,0,792.896,100.437,398.61)"><stop offset="0" style="stop-color:rgb(15,123,193);stop-opacity:1"/><stop offset="1" style="stop-color:rgb(91,203,245);stop-opacity:1"/></linearGradient>
    </defs>
</svg>
