<?xml version="1.0" encoding="UTF-8" standalone="no"?>
<!DOCTYPE svg PUBLIC "-//W3C//DTD SVG 1.1//EN" "http://www.w3.org/Graphics/SVG/1.1/DTD/svg11.dtd">
<svg width="100%" height="100%" viewBox="0 0 601 140" version="1.1" xmlns="http://www.w3.org/2000/svg" xmlns:xlink="http://www.w3.org/1999/xlink" xml:space="preserve" xmlns:serif="http://www.serif.com/" style="fill-rule:evenodd;clip-rule:evenodd;stroke-linejoin:round;stroke-miterlimit:2;">
    <g transform="matrix(1,0,0,1,-201,-6060)">
        <g id="String-Functions" serif:id="String Functions" transform="matrix(0.585938,0,0,0.182292,201.763,6060)">
            <rect x="0" y="0" width="1024" height="768" style="fill:none;"/>
            <g id="Gopher" transform="matrix(0.191128,0,0,0.614339,428.045,129.236)">
                <path d="M381.081,363.552C378.301,364.788 373.668,395.058 387.876,396.602C397.452,397.529 423.707,400.618 429.884,396.602C441.931,388.88 440.695,370.347 433.9,365.714C422.471,358.301 384.17,362.008 381.081,363.552ZM302.625,136.834C270.811,133.127 217.375,162.78 209.344,225.792C200.695,291.274 277.915,356.139 352.046,291.274C391.892,256.371 405.792,148.88 302.625,136.834ZM517.606,136.834C414.44,148.88 428.34,256.371 468.185,291.274C542.317,356.139 619.537,291.274 610.888,225.792C603.166,162.78 549.73,133.127 517.606,136.834Z" style="fill:white;fill-rule:nonzero;"/>
                <path d="M715.598,106.873C739.382,155.985 667.104,161.236 670.811,183.166C677.606,222.703 672.973,281.39 667.722,339.151C658.764,437.066 731.969,671.506 579.382,765.714C550.656,783.629 482.394,793.514 415.058,795.058L414.44,795.058C347.104,793.514 269.575,783.629 240.849,765.714C88.571,671.506 161.776,437.066 153.127,339.151C147.568,281.39 142.934,222.703 150.039,183.166C153.745,161.236 81.467,156.293 105.251,106.873C125.637,64.556 175.985,101.931 188.649,88.649C253.205,21.622 331.66,3.707 393.436,2.162L427.413,2.162C488.88,5.251 567.336,21.931 632.201,88.649C644.865,101.931 694.903,64.556 715.598,106.873ZM381.081,363.552C378.301,364.788 373.668,395.058 387.876,396.602C397.452,397.529 423.707,400.618 429.884,396.602C441.931,388.88 440.695,370.347 433.9,365.714C422.471,358.301 384.17,362.008 381.081,363.552ZM302.625,136.834C270.811,133.127 217.375,162.78 209.344,225.792C200.695,291.274 277.915,356.139 352.046,291.274C391.892,256.371 405.792,148.88 302.625,136.834ZM517.606,136.834C414.44,148.88 428.34,256.371 468.185,291.274C542.317,356.139 619.537,291.274 610.888,225.792C603.166,162.78 549.73,133.127 517.606,136.834Z" style="fill:url(#_Linear1);fill-rule:nonzero;"/>
                <path d="M410.425,299.614C429.884,296.834 476.525,319.073 473.436,345.328C469.73,375.907 353.282,379.923 347.104,343.475C343.398,321.236 361.004,307.027 410.425,299.614ZM608.726,769.73C614.903,778.687 615.212,784.865 605.328,789.498C567.645,806.795 533.977,783.629 546.641,777.143C573.514,763.552 590.193,742.239 608.726,769.73ZM211.815,772.819C230.347,745.328 247.027,766.641 273.9,780.232C286.564,786.718 252.896,809.884 215.212,792.587C205.328,787.954 205.637,781.776 211.815,772.819Z" style="fill:rgb(172,163,155);fill-rule:nonzero;"/>
                <path d="M657.838,114.286C659.382,107.799 675.444,104.71 684.402,115.83C695.212,129.112 668.649,147.336 667.413,139.923C664.324,119.846 655.985,120.772 657.838,114.286ZM162.703,114.286C164.556,120.772 156.216,119.846 153.127,139.923C151.892,147.336 125.328,129.112 136.139,115.83C144.788,104.71 160.849,107.799 162.703,114.286ZM515.781,300.428C496.334,300.428 480.569,284.663 480.569,265.216C480.569,245.769 496.334,230.004 515.781,230.004C535.228,230.004 550.993,245.769 550.993,265.216C550.993,284.663 535.228,300.428 515.781,300.428ZM506.515,261.2C512.656,261.2 517.634,256.222 517.634,250.081C517.634,243.94 512.656,238.961 506.515,238.961C500.373,238.961 495.395,243.94 495.395,250.081C495.395,256.222 500.373,261.2 506.515,261.2ZM378.61,314.44C382.317,300.232 395.29,295.598 405.792,295.29C432.664,294.672 442.857,309.189 443.784,320.618C445.637,340.077 370.27,344.71 378.61,314.44ZM304.76,300.428C285.312,300.428 269.547,284.663 269.547,265.216C269.547,245.769 285.312,230.004 304.76,230.004C324.207,230.004 339.972,245.769 339.972,265.216C339.972,284.663 324.207,300.428 304.76,300.428ZM314.026,261.2C320.167,261.2 325.146,256.222 325.146,250.081C325.146,243.94 320.167,238.961 314.026,238.961C307.885,238.961 302.906,243.94 302.906,250.081C302.906,256.222 307.885,261.2 314.026,261.2Z" style="fill:rgb(65,65,65);fill-rule:nonzero;"/>
            </g>
            <g transform="matrix(1.66667,0,0,1,-342.808,12.8526)">
                <g transform="matrix(0.319567,0,0,1.71196,412.131,30.3654)">
                    <path d="M384.408,280.921L225.458,280.921L225.458,170.895C225.458,169.022 226.977,167.503 228.85,167.503L381.017,167.503C382.89,167.503 384.408,169.022 384.408,170.895L384.408,280.921Z" style="fill:white;fill-rule:nonzero;stroke:rgb(172,163,155);stroke-width:1.6px;"/>
                </g>
                <g transform="matrix(-0.319567,0,0,1.71196,607.329,-57.7226)">
                    <path d="M143.771,239.283C138.652,237.86 134.883,233.158 134.883,227.591L134.883,202.459C134.883,195.77 140.326,190.328 147.015,190.328L153.904,190.328C160.593,190.328 166.036,195.77 166.036,202.459L166.036,227.591C166.036,232.517 163.085,236.767 158.858,238.665L158.858,296.931L167.297,296.931C169.616,292.202 174.481,288.938 180.094,288.938L183.855,288.938C187.07,282.698 193.579,278.421 201.069,278.421L408.472,278.421C415.962,278.421 422.471,282.698 425.686,288.938L429.791,288.938C437.645,288.938 444.036,295.329 444.036,303.183L444.036,305.895C444.036,313.75 437.645,320.14 429.791,320.14L425.686,320.14C422.471,326.38 415.962,330.658 408.472,330.658L408.055,330.658C408.002,330.704 407.947,330.747 407.89,330.789L453.334,410.025L453.39,410.123C455.57,413.959 456.479,418.317 456.12,422.584C456.167,423.254 456.191,423.918 456.191,424.57L456.191,444.019C456.191,459.234 443.871,471.613 428.727,471.613L182.99,471.613C167.846,471.613 155.525,459.234 155.525,444.019L155.525,424.145C155.525,422.923 155.606,421.67 155.766,420.419C155.792,420.212 155.844,420.014 155.916,419.827C156.027,416.631 156.841,413.449 158.366,410.546L158.463,410.362L201.065,330.658C193.577,330.657 187.069,326.379 183.854,320.14L180.094,320.14C174.43,320.14 169.528,316.817 167.234,312.018L148.454,312.018C145.872,312.018 143.771,309.917 143.771,307.335L143.771,239.283Z" style="fill:rgb(65,65,65);"/>
                    <path d="M454.76,413.02C454.339,413.219 453.872,413.327 453.39,413.327C452.237,413.327 451.174,412.708 450.604,411.706C452.46,414.972 453.232,418.683 452.927,422.315C452.913,422.479 452.912,422.644 452.924,422.808C452.966,423.403 452.987,423.992 452.987,424.57L452.987,444.019C452.987,457.463 442.108,468.409 428.727,468.409L182.99,468.409C169.609,468.409 158.729,457.463 158.729,444.019L158.729,424.145C158.729,423.082 158.799,421.992 158.935,420.903C159.045,420.593 159.107,420.267 159.119,419.938C159.213,417.217 159.904,414.507 161.203,412.036L161.289,411.873L161.295,411.861L203.891,332.168C204.422,331.175 204.393,329.977 203.814,329.011C203.235,328.045 202.192,327.454 201.066,327.454C194.816,327.453 189.386,323.88 186.703,318.672C186.153,317.606 185.054,316.936 183.854,316.936L180.094,316.936C175.703,316.936 171.904,314.357 170.125,310.636C169.593,309.523 168.468,308.814 167.234,308.814L148.454,308.814C147.639,308.814 146.975,308.15 146.975,307.335L146.975,239.283C146.975,237.843 146.016,236.58 144.629,236.195C140.861,235.149 138.087,231.688 138.087,227.591L138.087,202.459C138.087,197.537 142.093,193.532 147.015,193.532L153.904,193.532C158.826,193.532 162.832,197.537 162.832,202.459L162.832,227.591C162.832,231.218 160.657,234.344 157.545,235.742C156.394,236.259 155.654,237.403 155.654,238.665L155.654,296.931C155.654,298.701 157.088,300.135 158.858,300.135L167.297,300.135C168.519,300.135 169.635,299.44 170.174,298.342C171.972,294.675 175.742,292.142 180.094,292.142L183.855,292.142C185.054,292.142 186.154,291.472 186.703,290.406C189.387,285.198 194.818,281.625 201.069,281.625L408.472,281.625C414.723,281.625 420.154,285.198 422.837,290.406C423.387,291.472 424.486,292.142 425.686,292.142L429.791,292.142C435.878,292.142 440.832,297.096 440.832,303.183L440.832,305.895C440.832,311.983 435.878,316.936 429.791,316.936L425.686,316.936C424.486,316.936 423.387,317.606 422.837,318.673C420.154,323.881 414.723,327.454 408.472,327.454L408.471,330.658C415.96,330.658 422.471,326.38 425.686,320.14L429.791,320.14C437.645,320.14 444.036,313.75 444.036,305.895L444.036,303.183C444.036,295.329 437.645,288.938 429.791,288.938L425.686,288.938C422.471,282.698 415.962,278.421 408.472,278.421L201.069,278.421C193.579,278.421 187.07,282.698 183.855,288.938L180.094,288.938C174.481,288.938 169.616,292.202 167.297,296.931L158.858,296.931L158.858,238.665C163.085,236.767 166.036,232.517 166.036,227.591L166.036,202.459C166.036,195.77 160.593,190.328 153.904,190.328L147.015,190.328C140.326,190.328 134.883,195.77 134.883,202.459L134.883,227.591C134.883,233.158 138.652,237.86 143.771,239.283L143.771,307.335C143.771,309.917 145.872,312.018 148.454,312.018L167.234,312.018C169.528,316.817 174.43,320.14 180.094,320.14L183.854,320.14C187.069,326.379 193.577,330.657 201.065,330.658L158.463,410.362L158.366,410.546C156.841,413.449 156.027,416.631 155.916,419.827C155.844,420.014 155.792,420.212 155.766,420.419C155.606,421.67 155.525,422.923 155.525,424.145L155.525,444.019C155.525,459.234 167.846,471.613 182.99,471.613L428.727,471.613C443.871,471.613 456.191,459.234 456.191,444.019L456.191,424.57C456.191,423.918 456.167,423.254 456.12,422.584C456.391,419.359 455.938,416.083 454.76,413.02ZM408.055,331.077L408.055,333.862L405.96,328.232C404.674,329.202 404.306,330.98 405.11,332.383L450.553,411.618L453.39,413.327L454.26,411.827C454.244,411.791 454.227,411.756 454.21,411.719C453.96,411.177 453.687,410.645 453.39,410.123L453.334,410.025L408.055,331.077ZM408.471,330.658L408.466,327.454L408.056,327.454L408.055,330.658L408.471,330.658Z" style="fill:rgb(96,96,96);"/>
                </g>
            </g>
        </g>
    </g>
    <defs>
        <linearGradient id="_Linear1" x1="0" y1="0" x2="1" y2="0" gradientUnits="userSpaceOnUse" gradientTransform="matrix(619.975,0,0,792.896,100.437,398.61)"><stop offset="0" style="stop-color:rgb(15,123,193);stop-opacity:1"/><stop offset="1" style="stop-color:rgb(91,203,245);stop-opacity:1"/></linearGradient>
    </defs>
</svg>
