<?xml version="1.0" encoding="UTF-8" standalone="no"?>
<!DOCTYPE svg PUBLIC "-//W3C//DTD SVG 1.1//EN" "http://www.w3.org/Graphics/SVG/1.1/DTD/svg11.dtd">
<svg width="100%" height="100%" viewBox="0 0 601 140" version="1.1" xmlns="http://www.w3.org/2000/svg" xmlns:xlink="http://www.w3.org/1999/xlink" xml:space="preserve" xmlns:serif="http://www.serif.com/" style="fill-rule:evenodd;clip-rule:evenodd;stroke-linejoin:round;stroke-miterlimit:2;">
    <g transform="matrix(1,0,0,1,-202,-4700)">
        <g id="Structs" transform="matrix(0.585938,0,0,0.182292,202.331,4700)">
            <rect x="0" y="0" width="1024" height="768" style="fill:none;"/>
            <g id="Gopher">
            </g>
            <g transform="matrix(1.66667,0,0,1,-409.94,67.8049)">
                <g id="Gopher1" serif:id="Gopher" transform="matrix(0.162767,0,0,0.871967,486.361,-1.88533)">
                    <path d="M381.081,363.552C378.301,364.788 373.668,395.058 387.876,396.602C397.452,397.529 423.707,400.618 429.884,396.602C441.931,388.88 440.695,370.347 433.9,365.714C422.471,358.301 384.17,362.008 381.081,363.552ZM302.625,136.834C270.811,133.127 217.375,162.78 209.344,225.792C200.695,291.274 277.915,356.139 352.046,291.274C391.892,256.371 405.792,148.88 302.625,136.834ZM517.606,136.834C414.44,148.88 428.34,256.371 468.185,291.274C542.317,356.139 619.537,291.274 610.888,225.792C603.166,162.78 549.73,133.127 517.606,136.834Z" style="fill:white;fill-rule:nonzero;"/>
                    <path d="M715.598,106.873C739.382,155.985 667.104,161.236 670.811,183.166C677.606,222.703 672.973,281.39 667.722,339.151C658.764,437.066 731.969,671.506 579.382,765.714C550.656,783.629 482.394,793.514 415.058,795.058L414.44,795.058C347.104,793.514 269.575,783.629 240.849,765.714C88.571,671.506 161.776,437.066 153.127,339.151C147.568,281.39 142.934,222.703 150.039,183.166C153.745,161.236 81.467,156.293 105.251,106.873C125.637,64.556 175.985,101.931 188.649,88.649C253.205,21.622 331.66,3.707 393.436,2.162L427.413,2.162C488.88,5.251 567.336,21.931 632.201,88.649C644.865,101.931 694.903,64.556 715.598,106.873ZM381.081,363.552C378.301,364.788 373.668,395.058 387.876,396.602C397.452,397.529 423.707,400.618 429.884,396.602C441.931,388.88 440.695,370.347 433.9,365.714C422.471,358.301 384.17,362.008 381.081,363.552ZM302.625,136.834C270.811,133.127 217.375,162.78 209.344,225.792C200.695,291.274 277.915,356.139 352.046,291.274C391.892,256.371 405.792,148.88 302.625,136.834ZM517.606,136.834C414.44,148.88 428.34,256.371 468.185,291.274C542.317,356.139 619.537,291.274 610.888,225.792C603.166,162.78 549.73,133.127 517.606,136.834Z" style="fill:url(#_Linear1);fill-rule:nonzero;"/>
                    <path d="M410.425,299.614C429.884,296.834 476.525,319.073 473.436,345.328C469.73,375.907 353.282,379.923 347.104,343.475C343.398,321.236 361.004,307.027 410.425,299.614ZM673.282,545.792C663.707,545.483 657.529,532.819 657.529,525.097C657.529,511.197 659.382,494.826 669.575,487.722C690.579,473.205 707.259,546.1 673.282,545.792ZM147.259,545.792C113.282,546.1 129.961,473.205 150.965,487.722C161.158,494.826 163.012,511.197 163.012,525.097C163.012,532.819 156.834,545.483 147.259,545.792ZM608.726,769.73C614.903,778.687 615.212,784.865 605.328,789.498C567.645,806.795 533.977,783.629 546.641,777.143C573.514,763.552 590.193,742.239 608.726,769.73ZM211.815,772.819C230.347,745.328 247.027,766.641 273.9,780.232C286.564,786.718 252.896,809.884 215.212,792.587C205.328,787.954 205.637,781.776 211.815,772.819Z" style="fill:rgb(172,163,155);fill-rule:nonzero;"/>
                    <path d="M657.838,114.286C659.382,107.799 675.444,104.71 684.402,115.83C695.212,129.112 668.649,147.336 667.413,139.923C664.324,119.846 655.985,120.772 657.838,114.286ZM162.703,114.286C164.556,120.772 156.216,119.846 153.127,139.923C151.892,147.336 125.328,129.112 136.139,115.83C144.788,104.71 160.849,107.799 162.703,114.286ZM524.71,264.71C505.263,264.71 489.498,248.945 489.498,229.498C489.498,210.051 505.263,194.286 524.71,194.286C544.158,194.286 559.923,210.051 559.923,229.498C559.923,248.945 544.158,264.71 524.71,264.71ZM515.444,225.483C521.585,225.483 526.564,220.504 526.564,214.363C526.564,208.222 521.585,203.243 515.444,203.243C509.303,203.243 504.324,208.222 504.324,214.363C504.324,220.504 509.303,225.483 515.444,225.483ZM378.61,314.44C382.317,300.232 395.29,295.598 405.792,295.29C432.664,294.672 442.857,309.189 443.784,320.618C445.637,340.077 370.27,344.71 378.61,314.44ZM295.83,264.71C276.383,264.71 260.618,248.945 260.618,229.498C260.618,210.051 276.383,194.286 295.83,194.286C315.277,194.286 331.042,210.051 331.042,229.498C331.042,248.945 315.277,264.71 295.83,264.71ZM305.097,225.483C311.238,225.483 316.216,220.504 316.216,214.363C316.216,208.222 311.238,203.243 305.097,203.243C298.955,203.243 293.977,208.222 293.977,214.363C293.977,220.504 298.955,225.483 305.097,225.483Z" style="fill:rgb(65,65,65);fill-rule:nonzero;"/>
                </g>
                <g transform="matrix(0.108113,0,0,0.579177,509.919,275.496)">
                    <path d="M800,76.191L800,647.619L533.333,723.809L266.667,647.619L0,723.809L0,152.381L266.667,76.191L533.333,152.381L800,76.191Z" style="fill:rgb(37,213,37);fill-rule:nonzero;"/>
                    <path d="M266.667,76.191L266.667,647.619L533.333,723.809L533.333,152.381L266.667,76.191Z" style="fill:rgb(33,192,33);fill-rule:nonzero;"/>
                    <path d="M713.366,206.281C709.786,203.58 705.147,202.709 700.837,203.95L533.333,251.809L270.592,176.741C268.027,176.008 265.308,176.008 262.742,176.741L91.314,225.72C85.181,227.475 80.955,233.078 80.955,239.458L80.955,582.314C80.955,586.798 83.058,591.019 86.636,593.717C90.216,596.416 94.852,597.284 99.164,596.048L266.667,548.189L529.408,623.258C530.689,623.623 532.011,623.808 533.333,623.808C534.653,623.808 535.975,623.623 537.256,623.258L708.684,574.278C714.817,572.523 719.047,566.92 719.047,560.541L719.047,217.686C719.047,213.203 716.942,208.981 713.366,206.281ZM533.333,594.667L270.592,519.598C269.311,519.233 267.989,519.048 266.667,519.048C265.347,519.048 264.025,519.233 262.742,519.598L109.523,563.375L109.523,497.852L126.634,492.964C134.22,490.798 138.614,482.889 136.445,475.305C134.278,467.719 126.366,463.322 118.784,465.495L109.523,468.141L109.523,355.711C142.088,349.077 166.666,320.214 166.666,285.72C166.666,277.828 160.269,271.434 152.38,271.434C144.491,271.434 138.094,277.828 138.094,285.72C138.094,304.344 126.148,320.222 109.522,326.12L109.522,250.239L266.664,205.334L385.711,239.348L385.711,257.15C385.711,265.042 392.108,271.436 399.997,271.436C407.886,271.436 414.283,265.042 414.283,257.15L414.283,247.512L529.405,280.406C531.97,281.139 534.689,281.139 537.255,280.406L690.473,236.631L690.473,313.664C685.287,316.975 682.65,323.403 684.428,329.623C685.422,333.103 687.647,335.875 690.473,337.686L690.473,444.3C657.909,450.934 633.331,479.797 633.331,514.291C633.331,522.183 639.728,528.577 647.617,528.577C655.506,528.577 661.903,522.183 661.903,514.291C661.903,495.667 673.845,479.789 690.475,473.891L690.475,549.772L533.333,594.667Z" style="fill:rgb(248,248,249);fill-rule:nonzero;"/>
                    <path d="M556.88,351.206L529.408,359.056C521.822,361.223 517.428,369.131 519.597,376.716C521.389,382.991 527.109,387.08 533.325,387.08C534.623,387.08 535.945,386.9 537.256,386.525L564.728,378.675C572.314,376.509 576.708,368.6 574.539,361.016C572.373,353.431 564.463,349.025 556.88,351.206Z" style="fill:rgb(248,248,249);fill-rule:nonzero;"/>
                    <path d="M656.958,337.469C654.791,329.884 646.88,325.484 639.297,327.659L611.825,335.509C604.239,337.677 599.845,345.584 602.014,353.169C603.806,359.444 609.527,363.533 615.742,363.533C617.041,363.533 618.363,363.353 619.675,362.978L647.147,355.128C654.733,352.962 659.125,345.053 656.958,337.469Z" style="fill:rgb(248,248,249);fill-rule:nonzero;"/>
                    <path d="M262.742,424.358L256.145,426.242C248.559,428.411 244.166,436.317 246.334,443.905C248.127,450.18 253.845,454.269 260.063,454.269C261.361,454.269 262.683,454.089 263.994,453.716L270.591,451.831C278.177,449.661 282.57,441.756 280.402,434.17C278.236,426.584 270.323,422.191 262.742,424.358Z" style="fill:rgb(248,248,249);fill-rule:nonzero;"/>
                    <path d="M201.202,441.942L173.73,449.792C166.144,451.959 161.75,459.867 163.919,467.452C165.711,473.727 171.431,477.816 177.647,477.816C178.945,477.816 180.267,477.636 181.578,477.261L209.05,469.411C216.636,467.244 221.03,459.336 218.861,451.752C216.695,444.169 208.789,439.766 201.202,441.942Z" style="fill:rgb(248,248,249);fill-rule:nonzero;"/>
                    <path d="M442.019,481.503L365.828,459.731C358.252,457.558 350.336,461.955 348.167,469.541C346,477.125 350.392,485.034 357.978,487.2L434.169,508.972C435.48,509.347 436.802,509.527 438.1,509.527C444.316,509.527 450.036,505.434 451.83,499.161C454,491.577 449.606,483.67 442.019,481.503Z" style="fill:rgb(248,248,249);fill-rule:nonzero;"/>
                    <path d="M400,357.147C407.889,357.147 414.286,350.753 414.286,342.861L414.286,314.289C414.286,306.397 407.889,300.003 400,300.003C392.111,300.003 385.714,306.397 385.714,314.289L385.714,342.861C385.714,350.753 392.111,357.147 400,357.147Z" style="fill:rgb(248,248,249);fill-rule:nonzero;"/>
                    <path d="M400,442.861C407.889,442.861 414.286,436.467 414.286,428.575L414.286,400.003C414.286,392.111 407.889,385.717 400,385.717C392.111,385.717 385.714,392.111 385.714,400.003L385.714,428.575C385.714,436.467 392.111,442.861 400,442.861Z" style="fill:rgb(248,248,249);fill-rule:nonzero;"/>
                    <path d="M270.592,519.598C269.311,519.233 267.989,519.048 266.667,519.048L266.667,548.191L529.408,623.259C530.689,623.625 532.011,623.809 533.333,623.809L533.333,594.667L270.592,519.598Z" style="fill:rgb(237,237,237);fill-rule:nonzero;"/>
                    <path d="M385.714,239.345L385.714,257.147C385.714,265.039 392.111,271.433 400,271.433C407.889,271.433 414.286,265.039 414.286,257.147L414.286,247.509L529.408,280.403C530.689,280.769 532.011,280.953 533.333,280.953L533.333,251.811L270.592,176.742C269.311,176.377 267.989,176.192 266.667,176.192L266.667,205.334L385.714,239.345Z" style="fill:rgb(237,237,237);fill-rule:nonzero;"/>
                    <path d="M529.408,359.055C521.822,361.222 517.428,369.13 519.597,376.714C521.389,382.989 527.109,387.078 533.325,387.078L533.333,387.078L533.333,357.933L529.408,359.055Z" style="fill:rgb(237,237,237);fill-rule:nonzero;"/>
                    <path d="M270.591,451.833C278.177,449.664 282.57,441.758 280.402,434.172C278.609,427.895 272.883,423.817 266.666,423.817L266.666,452.955L270.591,451.833Z" style="fill:rgb(237,237,237);fill-rule:nonzero;"/>
                    <path d="M442.019,481.503L365.828,459.731C358.252,457.558 350.336,461.955 348.167,469.541C346,477.125 350.392,485.034 357.978,487.2L434.169,508.972C435.48,509.347 436.802,509.527 438.1,509.527C444.316,509.527 450.036,505.434 451.83,499.161C454,491.577 449.606,483.67 442.019,481.503Z" style="fill:rgb(237,237,237);fill-rule:nonzero;"/>
                    <path d="M400,357.147C407.889,357.147 414.286,350.753 414.286,342.861L414.286,314.289C414.286,306.397 407.889,300.003 400,300.003C392.111,300.003 385.714,306.397 385.714,314.289L385.714,342.861C385.714,350.753 392.111,357.147 400,357.147Z" style="fill:rgb(237,237,237);fill-rule:nonzero;"/>
                    <path d="M400,442.861C407.889,442.861 414.286,436.467 414.286,428.575L414.286,400.003C414.286,392.111 407.889,385.717 400,385.717C392.111,385.717 385.714,392.111 385.714,400.003L385.714,428.575C385.714,436.467 392.111,442.861 400,442.861Z" style="fill:rgb(237,237,237);fill-rule:nonzero;"/>
                </g>
            </g>
        </g>
    </g>
    <defs>
        <linearGradient id="_Linear1" x1="0" y1="0" x2="1" y2="0" gradientUnits="userSpaceOnUse" gradientTransform="matrix(619.975,0,0,792.896,100.437,398.61)"><stop offset="0" style="stop-color:rgb(15,123,193);stop-opacity:1"/><stop offset="1" style="stop-color:rgb(91,203,245);stop-opacity:1"/></linearGradient>
    </defs>
</svg>
