<?xml version="1.0" encoding="UTF-8" standalone="no"?>
<!DOCTYPE svg PUBLIC "-//W3C//DTD SVG 1.1//EN" "http://www.w3.org/Graphics/SVG/1.1/DTD/svg11.dtd">
<svg width="100%" height="100%" viewBox="0 0 601 140" version="1.1" xmlns="http://www.w3.org/2000/svg" xmlns:xlink="http://www.w3.org/1999/xlink" xml:space="preserve" xmlns:serif="http://www.serif.com/" style="fill-rule:evenodd;clip-rule:evenodd;stroke-linejoin:round;stroke-miterlimit:2;">
    <g transform="matrix(1,0,0,1,-198,-3340)">
        <g id="Switch" transform="matrix(0.585938,0,0,0.182292,198.553,3340)">
            <rect x="0" y="0" width="1024" height="768" style="fill:none;"/>
            <g transform="matrix(1.66667,0,0,1,-351.778,0)">
                <g id="Gopher" transform="matrix(0.0968103,0,0,0.512663,496.337,12.8422)">
                    <path d="M381.081,363.552C378.301,364.788 373.668,395.058 387.876,396.602C397.452,397.529 423.707,400.618 429.884,396.602C441.931,388.88 440.695,370.347 433.9,365.714C422.471,358.301 384.17,362.008 381.081,363.552ZM302.625,136.834C270.811,133.127 217.375,162.78 209.344,225.792C200.695,291.274 277.915,356.139 352.046,291.274C391.892,256.371 405.792,148.88 302.625,136.834ZM517.606,136.834C414.44,148.88 428.34,256.371 468.185,291.274C542.317,356.139 619.537,291.274 610.888,225.792C603.166,162.78 549.73,133.127 517.606,136.834Z" style="fill:white;fill-rule:nonzero;"/>
                    <path d="M715.598,106.873C739.382,155.985 667.104,161.236 670.811,183.166C677.606,222.703 672.973,281.39 667.722,339.151C658.764,437.066 731.969,671.506 579.382,765.714C550.656,783.629 482.394,793.514 415.058,795.058L414.44,795.058C347.104,793.514 269.575,783.629 240.849,765.714C88.571,671.506 161.776,437.066 153.127,339.151C147.568,281.39 142.934,222.703 150.039,183.166C153.745,161.236 81.467,156.293 105.251,106.873C125.637,64.556 175.985,101.931 188.649,88.649C253.205,21.622 331.66,3.707 393.436,2.162L427.413,2.162C488.88,5.251 567.336,21.931 632.201,88.649C644.865,101.931 694.903,64.556 715.598,106.873ZM381.081,363.552C378.301,364.788 373.668,395.058 387.876,396.602C397.452,397.529 423.707,400.618 429.884,396.602C441.931,388.88 440.695,370.347 433.9,365.714C422.471,358.301 384.17,362.008 381.081,363.552ZM302.625,136.834C270.811,133.127 217.375,162.78 209.344,225.792C200.695,291.274 277.915,356.139 352.046,291.274C391.892,256.371 405.792,148.88 302.625,136.834ZM517.606,136.834C414.44,148.88 428.34,256.371 468.185,291.274C542.317,356.139 619.537,291.274 610.888,225.792C603.166,162.78 549.73,133.127 517.606,136.834Z" style="fill:url(#_Linear1);fill-rule:nonzero;"/>
                    <path d="M410.425,299.614C429.884,296.834 476.525,319.073 473.436,345.328C469.73,375.907 353.282,379.923 347.104,343.475C343.398,321.236 361.004,307.027 410.425,299.614ZM673.282,545.792C663.707,545.483 657.529,532.819 657.529,525.097C657.529,511.197 659.382,494.826 669.575,487.722C690.579,473.205 707.259,546.1 673.282,545.792ZM147.259,545.792C113.282,546.1 129.961,473.205 150.965,487.722C161.158,494.826 163.012,511.197 163.012,525.097C163.012,532.819 156.834,545.483 147.259,545.792ZM608.726,769.73C614.903,778.687 615.212,784.865 605.328,789.498C567.645,806.795 533.977,783.629 546.641,777.143C573.514,763.552 590.193,742.239 608.726,769.73ZM211.815,772.819C230.347,745.328 247.027,766.641 273.9,780.232C286.564,786.718 252.896,809.884 215.212,792.587C205.328,787.954 205.637,781.776 211.815,772.819Z" style="fill:rgb(172,163,155);fill-rule:nonzero;"/>
                    <path d="M657.838,114.286C659.382,107.799 675.444,104.71 684.402,115.83C695.212,129.112 668.649,147.336 667.413,139.923C664.324,119.846 655.985,120.772 657.838,114.286ZM162.703,114.286C164.556,120.772 156.216,119.846 153.127,139.923C151.892,147.336 125.328,129.112 136.139,115.83C144.788,104.71 160.849,107.799 162.703,114.286ZM524.71,264.71C505.263,264.71 489.498,248.945 489.498,229.498C489.498,210.051 505.263,194.286 524.71,194.286C544.158,194.286 559.923,210.051 559.923,229.498C559.923,248.945 544.158,264.71 524.71,264.71ZM515.444,225.483C521.585,225.483 526.564,220.504 526.564,214.363C526.564,208.222 521.585,203.243 515.444,203.243C509.303,203.243 504.324,208.222 504.324,214.363C504.324,220.504 509.303,225.483 515.444,225.483ZM378.61,314.44C382.317,300.232 395.29,295.598 405.792,295.29C432.664,294.672 442.857,309.189 443.784,320.618C445.637,340.077 370.27,344.71 378.61,314.44ZM295.83,264.71C276.383,264.71 260.618,248.945 260.618,229.498C260.618,210.051 276.383,194.286 295.83,194.286C315.277,194.286 331.042,210.051 331.042,229.498C331.042,248.945 315.277,264.71 295.83,264.71ZM305.097,225.483C311.238,225.483 316.216,220.504 316.216,214.363C316.216,208.222 311.238,203.243 305.097,203.243C298.955,203.243 293.977,208.222 293.977,214.363C293.977,220.504 298.955,225.483 305.097,225.483Z" style="fill:rgb(65,65,65);fill-rule:nonzero;"/>
                </g>
                <g transform="matrix(0.464577,0,0,2.46019,500.556,-8678.69)">
                    <g>
                        <g transform="matrix(1,0,0,1,0.0132601,0)">
                            <path d="M183.073,3837.6L-106.854,3837.6L-112.037,3761.39C-112.037,3761.39 -98.329,3678.68 -92.918,3646.03C-91.672,3638.51 -85.238,3633 -77.701,3633C-33.583,3633 109.644,3633 153.857,3633C161.43,3633 167.895,3638.54 169.148,3646.1C174.566,3678.78 188.256,3761.39 188.256,3761.39L183.073,3837.6Z" style="fill:rgb(243,193,5);"/>
                        </g>
                        <path d="M188.243,3761.58L183.073,3837.6L-106.854,3837.6L-112.024,3761.58L188.243,3761.58Z" style="fill:rgb(165,130,4);"/>
                        <path d="M-95.613,3837.6L-100.349,3772.84L174.449,3773.2L170.687,3837.6L-95.613,3837.6Z" style="fill:rgb(103,81,2);"/>
                        <rect x="-74.333" y="3654.14" width="222.36" height="84.595" style="fill:rgb(165,130,4);"/>
                        <path d="M-81.578,3644.81L-74.333,3654.14L-74.333,3738.74L-100.349,3750.97L-81.578,3644.81Z" style="fill:rgb(251,215,86);"/>
                        <g transform="matrix(-1,0,0,1,74.0999,0)">
                            <path d="M-81.578,3644.81L-74.333,3654.14L-74.333,3738.74L-100.349,3750.97L-81.578,3644.81Z" style="fill:rgb(251,215,86);"/>
                        </g>
                        <path d="M-82.094,3644.81L156.115,3644.81L148.027,3654.14L-74.333,3654.14L-82.094,3644.81Z" style="fill:rgb(103,81,2);"/>
                        <path d="M-74.333,3738.74L-100.349,3750.97L174.449,3750.97L148.433,3738.74L-74.333,3738.74Z" style="fill:rgb(252,223,117);"/>
                    </g>
                    <g>
                        <g transform="matrix(1.0077,0,0,1,-1.29653,0)">
                            <rect x="-91.371" y="3699.35" width="259.773" height="6.195" style="fill:rgb(227,179,5);"/>
                        </g>
                        <path d="M-93.371,3699.35L-74.191,3691.28L148.027,3690.97L168.402,3699.35L-93.371,3699.35Z" style="fill:rgb(252,223,117);"/>
                    </g>
                </g>
            </g>
            <g transform="matrix(2.08994,0,0,1.25396,-390.085,-66.2765)">
                <g transform="matrix(0.324614,0,0,1.73901,278.231,-5541.2)">
                    <path d="M377.28,3376.13L374.887,3373.63L377.28,3365.86C384.512,3364.9 389.696,3361.83 392.832,3356.64L399.847,3354.25L402.24,3356.64L402.24,3407.24L389.568,3407.24L387.367,3404.84L389.568,3371.43C387.008,3373.41 382.912,3374.98 377.28,3376.13Z" style="fill:rgb(0,118,77);fill-rule:nonzero;"/>
                </g>
                <g transform="matrix(0.324614,0,0,1.73901,277.454,-5545.36)">
                    <path d="M377.28,3376.13L377.28,3365.86C384.512,3364.9 389.696,3361.83 392.832,3356.64L402.24,3356.64L402.24,3407.24L389.568,3407.24L389.568,3371.43C387.008,3373.41 382.912,3374.98 377.28,3376.13Z" style="fill:rgb(0,167,109);fill-rule:nonzero;"/>
                </g>
            </g>
            <g transform="matrix(1.91269,0,0,1.14761,-57.4239,124.693)">
                <g transform="matrix(1.024,0,0,5.48571,-5.82077e-14,-18322.3)">
                    <path d="M266.832,3405.97L265.926,3404.88L266.832,3402.83L258.512,3402.83L257.512,3401.79L258.512,3400.18L267.12,3389.11L270.051,3388.11L271.024,3389.11L271.024,3399.76L272.488,3398.78L273.488,3399.76L273.488,3402.83L271.024,3402.83L271.024,3405.97L266.832,3405.97ZM262.672,3399.76L266.832,3399.76L266.832,3394.35L262.672,3399.76Z" style="fill:rgb(0,114,155);fill-rule:nonzero;"/>
                </g>
                <g transform="matrix(1.024,0,0,5.48571,-1.024,-18327.8)">
                    <path d="M266.832,3405.97L266.832,3402.83L258.512,3402.83L258.512,3400.18L267.12,3389.11L271.024,3389.11L271.024,3399.76L273.488,3399.76L273.488,3402.83L271.024,3402.83L271.024,3405.97L266.832,3405.97ZM262.672,3399.76L266.832,3399.76L266.832,3394.35L262.672,3399.76Z" style="fill:rgb(0,165,228);fill-rule:nonzero;"/>
                </g>
            </g>
            <g transform="matrix(1.95267,0,0,1.1716,-204.236,-17.6256)">
                <g transform="matrix(0.805872,0,0,4.31717,137.271,-14279.8)">
                    <path d="M281.208,3378.23L275.922,3377.38C275.972,3377.18 274.609,3376.21 274.668,3376.03C275.755,3372.61 279.747,3371.68 283.81,3371.68C286.033,3371.68 287.802,3372.29 289.116,3373.49C290.431,3374.7 291.088,3376.29 291.088,3378.27C291.088,3379.68 290.709,3380.92 289.95,3381.99C289.191,3383.06 287.727,3384.45 285.558,3386.16C284.013,3387.38 283.078,3388.29 282.753,3388.88L290.265,3387.62L291.536,3388.88L291.536,3393.31L275.596,3393.31C275.596,3393.03 274.298,3392.33 274.326,3392.04C274.47,3390.56 276.304,3389.54 277.203,3388.15C278.273,3386.5 279.629,3385.02 281.269,3383.72C282.909,3382.42 284.034,3381.37 284.644,3380.59C285.254,3379.8 285.558,3379 285.558,3378.19C285.558,3377.57 285.362,3377.06 284.969,3376.68C284.576,3376.3 284.081,3376.12 283.485,3376.12C282.292,3376.12 281.533,3376.82 281.208,3378.23Z" style="fill:rgb(171,1,89);fill-rule:nonzero;"/>
                </g>
                <g transform="matrix(0.805872,0,0,4.31717,136.247,-14285.3)">
                    <path d="M281.208,3378.23L275.922,3377.38C276.898,3373.58 279.527,3371.68 283.81,3371.68C286.033,3371.68 287.802,3372.29 289.116,3373.49C290.431,3374.7 291.088,3376.29 291.088,3378.27C291.088,3379.68 290.709,3380.92 289.95,3381.99C289.191,3383.06 287.727,3384.45 285.558,3386.16C284.013,3387.38 283.078,3388.29 282.753,3388.88L291.536,3388.88L291.536,3393.31L275.596,3393.31C275.596,3391.53 276.132,3389.8 277.203,3388.15C278.273,3386.5 279.629,3385.02 281.269,3383.72C282.909,3382.42 284.034,3381.37 284.644,3380.59C285.254,3379.8 285.558,3379 285.558,3378.19C285.558,3377.57 285.362,3377.06 284.969,3376.68C284.576,3376.3 284.081,3376.12 283.485,3376.12C282.292,3376.12 281.533,3376.82 281.208,3378.23Z" style="fill:rgb(225,2,113);fill-rule:nonzero;"/>
                </g>
            </g>
            <g transform="matrix(1.85616,0,0,1.1137,85.218,24.2137)">
                <g transform="matrix(1.024,0,0,5.48571,-5.82077e-14,-18322.3)">
                    <path d="M250.264,3393.07L250.68,3393.07C251.234,3393.07 251.693,3392.89 252.056,3392.54C252.418,3392.19 252.6,3391.72 252.6,3391.15C252.6,3390.72 252.472,3390.33 252.216,3389.98C251.96,3389.63 251.586,3389.45 251.096,3389.45C250.264,3389.45 249.677,3389.86 249.336,3390.67L245.368,3390.03C245.442,3389.82 244.407,3389.15 244.495,3388.96C245.509,3386.74 248.506,3386.09 251.256,3386.09C252.706,3386.09 253.986,3386.48 255.096,3387.26C256.205,3388.04 256.76,3389.16 256.76,3390.64C256.76,3392.24 255.97,3393.41 254.392,3394.16C255.373,3394.48 256.152,3395.04 256.728,3395.84C257.304,3396.64 257.592,3397.54 257.592,3398.54C257.592,3399.99 257,3401.18 255.816,3402.11C254.632,3403.04 253.09,3403.5 251.192,3403.5C249.549,3403.5 248.125,3403.09 246.92,3402.27C245.714,3401.45 244.973,3400.37 244.696,3399.02L247.645,3397.28L248.664,3398.28C248.77,3398.9 249.053,3399.41 249.512,3399.82C249.97,3400.23 250.53,3400.43 251.192,3400.43C251.81,3400.43 252.328,3400.24 252.744,3399.85C253.16,3399.47 253.368,3398.96 253.368,3398.32C253.368,3397.57 253.133,3396.98 252.664,3396.54C252.194,3396.1 251.49,3395.89 250.552,3395.89L249.944,3395.92L249.062,3394.85L250.264,3393.07Z" style="fill:rgb(100,48,114);"/>
                </g>
                <g transform="matrix(1.024,0,0,5.48571,-1.024,-18327.8)">
                    <path d="M250.264,3393.07L250.68,3393.07C251.234,3393.07 251.693,3392.89 252.056,3392.54C252.418,3392.19 252.6,3391.72 252.6,3391.15C252.6,3390.72 252.472,3390.33 252.216,3389.98C251.96,3389.63 251.586,3389.45 251.096,3389.45C250.264,3389.45 249.677,3389.86 249.336,3390.67L245.368,3390.03C246.306,3387.41 248.269,3386.09 251.256,3386.09C252.706,3386.09 253.986,3386.48 255.096,3387.26C256.205,3388.04 256.76,3389.16 256.76,3390.64C256.76,3392.24 255.97,3393.41 254.392,3394.16C255.373,3394.48 256.152,3395.04 256.728,3395.84C257.304,3396.64 257.592,3397.54 257.592,3398.54C257.592,3399.99 257,3401.18 255.816,3402.11C254.632,3403.04 253.09,3403.5 251.192,3403.5C249.549,3403.5 248.125,3403.09 246.92,3402.27C245.714,3401.45 244.973,3400.37 244.696,3399.02L248.664,3398.28C248.77,3398.9 249.053,3399.41 249.512,3399.82C249.97,3400.23 250.53,3400.43 251.192,3400.43C251.81,3400.43 252.328,3400.24 252.744,3399.85C253.16,3399.47 253.368,3398.96 253.368,3398.32C253.368,3397.57 253.133,3396.98 252.664,3396.54C252.194,3396.1 251.49,3395.89 250.552,3395.89L249.944,3395.92L250.264,3393.07Z" style="fill:rgb(122,59,139);"/>
                </g>
            </g>
            <g transform="matrix(1.5368,0,0,0.922081,171.882,83.7876)">
                <g transform="matrix(1.024,0,0,5.48571,-5.82077e-14,-18322.3)">
                    <path d="M217.367,3415.15L217.367,3429.53L214.662,3429.53L213.717,3428.86L214.662,3428.05C214.265,3428.68 213.813,3429.14 213.305,3429.43C212.797,3429.72 212.166,3429.86 211.41,3429.86C210.167,3429.86 209.12,3429.36 208.271,3428.35C207.421,3427.35 206.996,3426.06 206.996,3424.48C206.996,3422.66 207.415,3421.23 208.251,3420.19C209.088,3419.15 210.206,3418.63 211.606,3418.63C212.25,3418.63 212.823,3418.77 213.324,3419.05C213.826,3419.34 214.233,3419.73 214.545,3420.23L214.545,3415.15L216.367,3414.15L217.367,3415.15ZM209.867,3424.27C209.867,3425.26 210.063,3426.04 210.453,3426.63C210.837,3427.22 211.423,3427.52 212.211,3427.52C212.999,3427.52 213.598,3427.22 214.008,3426.64C214.418,3426.05 214.623,3425.29 214.623,3424.36C214.623,3423.06 214.294,3422.13 213.637,3421.57C213.233,3421.23 212.764,3421.06 212.231,3421.06C211.417,3421.06 210.819,3421.37 210.439,3421.98C210.058,3422.6 209.867,3423.36 209.867,3424.27Z" style="fill:rgb(177,63,10);fill-rule:nonzero;"/>
                    <path d="M229.008,3426.4C228.936,3427.03 228.608,3427.68 228.022,3428.33C227.11,3429.36 225.834,3429.88 224.194,3429.88C222.839,3429.88 221.645,3429.44 220.61,3428.57C219.574,3427.7 219.057,3426.28 219.057,3424.31C219.057,3422.47 219.524,3421.06 220.458,3420.08C221.392,3419.09 222.605,3418.6 224.096,3418.6C224.981,3418.6 225.779,3418.77 226.488,3419.1C227.198,3419.43 227.784,3419.95 228.246,3420.67C228.663,3421.3 228.933,3422.03 229.057,3422.87C229.128,3423.36 229.158,3424.06 229.145,3424.98L221.86,3424.98C221.899,3426.05 222.234,3426.79 222.865,3427.22C223.249,3427.49 223.712,3427.62 224.252,3427.62C224.825,3427.62 225.291,3427.46 225.649,3427.14C225.844,3426.96 226.016,3426.72 226.166,3426.4L228.148,3425.43L229.008,3426.4ZM226.254,3423.14C226.208,3422.41 225.985,3421.85 225.585,3421.47C225.185,3421.09 224.688,3420.89 224.096,3420.89C223.451,3420.89 222.952,3421.1 222.597,3421.5C222.242,3421.9 222.019,3422.45 221.928,3423.14L226.254,3423.14Z" style="fill:rgb(177,63,10);fill-rule:nonzero;"/>
                    <path d="M236.01,3415.05L236.01,3417.31C235.854,3417.29 235.592,3417.28 235.224,3417.27C234.856,3417.26 234.602,3417.34 234.462,3417.51C234.322,3417.68 234.252,3417.87 234.252,3418.08L234.252,3418.98L235.009,3418.08L236.078,3418.98L236.078,3420.94L234.252,3420.94L234.252,3429.53L231.479,3429.53L230.446,3428.53L231.479,3420.94L229.926,3420.94L228.926,3419.92L229.926,3418.98L231.449,3418.98L231.449,3418.3C231.449,3417.16 231.641,3416.37 232.026,3415.94C232.429,3415.31 233.402,3414.99 234.945,3414.99C235.121,3414.99 234.883,3414.14 235.026,3414.15C235.169,3414.16 235.763,3415.03 236.01,3415.05Z" style="fill:rgb(177,63,10);fill-rule:nonzero;"/>
                    <path d="M238.08,3420.04C238.816,3419.1 240.079,3418.63 241.869,3418.63C243.035,3418.63 244.07,3418.86 244.975,3419.32C245.88,3419.78 246.332,3420.66 246.332,3421.94L246.332,3426.82C246.332,3427.16 246.339,3427.57 246.352,3428.05C246.371,3428.42 246.427,3428.66 246.518,3428.8C246.609,3428.93 246.746,3429.03 246.928,3429.12L246.928,3429.53L243.901,3429.53C243.816,3429.31 243.757,3429.11 243.725,3428.92C243.692,3428.73 243.666,3428.52 243.647,3428.28C243.263,3428.7 242.82,3429.05 242.319,3429.34C241.72,3429.69 241.042,3429.86 240.287,3429.86C239.324,3429.86 238.528,3429.59 237.9,3429.03C237.271,3428.49 236.957,3427.7 236.957,3426.7C236.957,3425.39 237.462,3424.44 238.471,3423.85C239.024,3423.53 239.838,3423.31 240.912,3423.17L241.86,3423.05C242.374,3422.99 242.742,3422.91 242.963,3422.81C243.36,3422.64 243.559,3422.38 243.559,3422.02C243.559,3421.58 243.407,3421.28 243.105,3421.12C242.802,3420.95 242.358,3420.87 241.772,3420.87C241.114,3420.87 240.649,3421.03 240.375,3421.35C240.18,3421.6 240.05,3421.92 239.985,3422.33L237.299,3422.33C237.31,3422.16 236.427,3421.41 236.451,3421.26C236.559,3420.55 237.702,3420.53 238.08,3420.04ZM240.151,3427.52C240.411,3427.73 240.73,3427.84 241.108,3427.84C241.707,3427.84 242.258,3427.66 242.763,3427.31C243.267,3426.96 243.529,3426.32 243.549,3425.39L243.549,3424.35C243.373,3424.46 243.196,3424.55 243.017,3424.62C242.838,3424.69 242.592,3424.75 242.279,3424.81L241.654,3424.93C241.069,3425.03 240.649,3425.16 240.395,3425.31C239.965,3425.56 239.75,3425.96 239.75,3426.49C239.75,3426.97 239.884,3427.31 240.151,3427.52Z" style="fill:rgb(177,63,10);fill-rule:nonzero;"/>
                    <path d="M255.629,3428.02C255.603,3428.06 255.538,3428.15 255.434,3428.32C255.33,3428.48 255.206,3428.62 255.063,3428.75C254.626,3429.14 254.205,3429.4 253.798,3429.55C253.391,3429.69 252.914,3429.76 252.367,3429.76C250.792,3429.76 249.731,3429.2 249.184,3428.06C248.878,3427.44 248.725,3426.52 248.725,3425.3L248.725,3418.88L250.555,3417.95L251.576,3418.88L251.576,3425.3C251.576,3425.91 251.648,3426.36 251.791,3426.67C252.045,3427.21 252.543,3427.48 253.285,3427.48C254.236,3427.48 254.887,3427.09 255.238,3426.33C255.421,3425.91 255.512,3425.36 255.512,3424.67L255.512,3418.88L257.334,3417.88L258.334,3418.88L258.334,3429.53L255.629,3429.53L254.688,3428.53L255.629,3428.02Z" style="fill:rgb(177,63,10);fill-rule:nonzero;"/>
                    <path d="M261.078,3415.13L262.861,3414.15L263.861,3415.13L263.861,3429.53L261.078,3429.53L260.078,3428.53L261.078,3415.13Z" style="fill:rgb(177,63,10);fill-rule:nonzero;"/>
                    <path d="M271.449,3427.55L271.449,3429.63L270.131,3429.67C268.816,3429.72 267.917,3429.49 267.436,3428.99C267.123,3428.67 266.967,3428.18 266.967,3427.52L266.967,3420.96L265.483,3420.96L264.562,3419.9L265.483,3418.98L266.967,3418.98L266.967,3416.01L268.693,3415.01L269.721,3416.01L269.721,3418.98L270.449,3417.88L271.449,3418.98L271.449,3420.96L269.721,3420.96L269.721,3426.59C269.721,3427.03 269.776,3427.3 269.887,3427.4C269.998,3427.51 270.355,3426.6 270.449,3426.6C270.544,3426.6 271.358,3427.55 271.449,3427.55Z" style="fill:rgb(177,63,10);fill-rule:nonzero;"/>
                </g>
                <g transform="matrix(1.024,0,0,5.48571,-1.024,-18327.8)">
                    <path d="M217.367,3415.15L217.367,3429.53L214.662,3429.53L214.662,3428.05C214.265,3428.68 213.813,3429.14 213.305,3429.43C212.797,3429.72 212.166,3429.86 211.41,3429.86C210.167,3429.86 209.12,3429.36 208.271,3428.35C207.421,3427.35 206.996,3426.06 206.996,3424.48C206.996,3422.66 207.415,3421.23 208.251,3420.19C209.088,3419.15 210.206,3418.63 211.606,3418.63C212.25,3418.63 212.823,3418.77 213.324,3419.05C213.826,3419.34 214.233,3419.73 214.545,3420.23L214.545,3415.15L217.367,3415.15ZM209.867,3424.27C209.867,3425.26 210.063,3426.04 210.453,3426.63C210.837,3427.22 211.423,3427.52 212.211,3427.52C212.999,3427.52 213.598,3427.22 214.008,3426.64C214.418,3426.05 214.623,3425.29 214.623,3424.36C214.623,3423.06 214.294,3422.13 213.637,3421.57C213.233,3421.23 212.764,3421.06 212.231,3421.06C211.417,3421.06 210.819,3421.37 210.439,3421.98C210.058,3422.6 209.867,3423.36 209.867,3424.27Z" style="fill:rgb(243,111,49);fill-rule:nonzero;"/>
                    <path d="M229.008,3426.4C228.936,3427.03 228.608,3427.68 228.022,3428.33C227.11,3429.36 225.834,3429.88 224.194,3429.88C222.839,3429.88 221.645,3429.44 220.61,3428.57C219.574,3427.7 219.057,3426.28 219.057,3424.31C219.057,3422.47 219.524,3421.06 220.458,3420.08C221.392,3419.09 222.605,3418.6 224.096,3418.6C224.981,3418.6 225.779,3418.77 226.488,3419.1C227.198,3419.43 227.784,3419.95 228.246,3420.67C228.663,3421.3 228.933,3422.03 229.057,3422.87C229.128,3423.36 229.158,3424.06 229.145,3424.98L221.86,3424.98C221.899,3426.05 222.234,3426.79 222.865,3427.22C223.249,3427.49 223.712,3427.62 224.252,3427.62C224.825,3427.62 225.291,3427.46 225.649,3427.14C225.844,3426.96 226.016,3426.72 226.166,3426.4L229.008,3426.4ZM226.254,3423.14C226.208,3422.41 225.985,3421.85 225.585,3421.47C225.185,3421.09 224.688,3420.89 224.096,3420.89C223.451,3420.89 222.952,3421.1 222.597,3421.5C222.242,3421.9 222.019,3422.45 221.928,3423.14L226.254,3423.14Z" style="fill:rgb(243,111,49);fill-rule:nonzero;"/>
                    <path d="M236.01,3415.05L236.01,3417.31C235.854,3417.29 235.592,3417.28 235.224,3417.27C234.856,3417.26 234.602,3417.34 234.462,3417.51C234.322,3417.68 234.252,3417.87 234.252,3418.08L234.252,3418.98L236.078,3418.98L236.078,3420.94L234.252,3420.94L234.252,3429.53L231.479,3429.53L231.479,3420.94L229.926,3420.94L229.926,3418.98L231.449,3418.98L231.449,3418.3C231.449,3417.16 231.641,3416.37 232.026,3415.94C232.429,3415.31 233.402,3414.99 234.945,3414.99C235.121,3414.99 235.281,3414.99 235.424,3415C235.567,3415.01 235.763,3415.03 236.01,3415.05Z" style="fill:rgb(243,111,49);fill-rule:nonzero;"/>
                    <path d="M238.08,3420.04C238.816,3419.1 240.079,3418.63 241.869,3418.63C243.035,3418.63 244.07,3418.86 244.975,3419.32C245.88,3419.78 246.332,3420.66 246.332,3421.94L246.332,3426.82C246.332,3427.16 246.339,3427.57 246.352,3428.05C246.371,3428.42 246.427,3428.66 246.518,3428.8C246.609,3428.93 246.746,3429.03 246.928,3429.12L246.928,3429.53L243.901,3429.53C243.816,3429.31 243.757,3429.11 243.725,3428.92C243.692,3428.73 243.666,3428.52 243.647,3428.28C243.263,3428.7 242.82,3429.05 242.319,3429.34C241.72,3429.69 241.042,3429.86 240.287,3429.86C239.324,3429.86 238.528,3429.59 237.9,3429.03C237.271,3428.49 236.957,3427.7 236.957,3426.7C236.957,3425.39 237.462,3424.44 238.471,3423.85C239.024,3423.53 239.838,3423.31 240.912,3423.17L241.86,3423.05C242.374,3422.99 242.742,3422.91 242.963,3422.81C243.36,3422.64 243.559,3422.38 243.559,3422.02C243.559,3421.58 243.407,3421.28 243.105,3421.12C242.802,3420.95 242.358,3420.87 241.772,3420.87C241.114,3420.87 240.649,3421.03 240.375,3421.35C240.18,3421.6 240.05,3421.92 239.985,3422.33L237.299,3422.33C237.358,3421.4 237.618,3420.64 238.08,3420.04ZM240.151,3427.52C240.411,3427.73 240.73,3427.84 241.108,3427.84C241.707,3427.84 242.258,3427.66 242.763,3427.31C243.267,3426.96 243.529,3426.32 243.549,3425.39L243.549,3424.35C243.373,3424.46 243.196,3424.55 243.017,3424.62C242.838,3424.69 242.592,3424.75 242.279,3424.81L241.654,3424.93C241.069,3425.03 240.649,3425.16 240.395,3425.31C239.965,3425.56 239.75,3425.96 239.75,3426.49C239.75,3426.97 239.884,3427.31 240.151,3427.52Z" style="fill:rgb(243,111,49);fill-rule:nonzero;"/>
                    <path d="M255.629,3428.02C255.603,3428.06 255.538,3428.15 255.434,3428.32C255.33,3428.48 255.206,3428.62 255.063,3428.75C254.626,3429.14 254.205,3429.4 253.798,3429.55C253.391,3429.69 252.914,3429.76 252.367,3429.76C250.792,3429.76 249.731,3429.2 249.184,3428.06C248.878,3427.44 248.725,3426.52 248.725,3425.3L248.725,3418.88L251.576,3418.88L251.576,3425.3C251.576,3425.91 251.648,3426.36 251.791,3426.67C252.045,3427.21 252.543,3427.48 253.285,3427.48C254.236,3427.48 254.887,3427.09 255.238,3426.33C255.421,3425.91 255.512,3425.36 255.512,3424.67L255.512,3418.88L258.334,3418.88L258.334,3429.53L255.629,3429.53L255.629,3428.02Z" style="fill:rgb(243,111,49);fill-rule:nonzero;"/>
                    <rect x="261.078" y="3415.13" width="2.783" height="14.395" style="fill:rgb(243,111,49);fill-rule:nonzero;"/>
                    <path d="M271.449,3427.55L271.449,3429.63L270.131,3429.67C268.816,3429.72 267.917,3429.49 267.436,3428.99C267.123,3428.67 266.967,3428.18 266.967,3427.52L266.967,3420.96L265.483,3420.96L265.483,3418.98L266.967,3418.98L266.967,3416.01L269.721,3416.01L269.721,3418.98L271.449,3418.98L271.449,3420.96L269.721,3420.96L269.721,3426.59C269.721,3427.03 269.776,3427.3 269.887,3427.4C269.998,3427.51 270.336,3427.57 270.902,3427.57C270.987,3427.57 271.077,3427.56 271.171,3427.56C271.265,3427.56 271.358,3427.55 271.449,3427.55Z" style="fill:rgb(243,111,49);fill-rule:nonzero;"/>
                </g>
            </g>
        </g>
    </g>
    <defs>
        <linearGradient id="_Linear1" x1="0" y1="0" x2="1" y2="0" gradientUnits="userSpaceOnUse" gradientTransform="matrix(619.975,0,0,792.896,100.437,398.61)"><stop offset="0" style="stop-color:rgb(15,123,193);stop-opacity:1"/><stop offset="1" style="stop-color:rgb(91,203,245);stop-opacity:1"/></linearGradient>
    </defs>
</svg>
