<?xml version="1.0" encoding="UTF-8" standalone="no"?>
<!DOCTYPE svg PUBLIC "-//W3C//DTD SVG 1.1//EN" "http://www.w3.org/Graphics/SVG/1.1/DTD/svg11.dtd">
<svg width="100%" height="100%" viewBox="0 0 601 140" version="1.1" xmlns="http://www.w3.org/2000/svg" xmlns:xlink="http://www.w3.org/1999/xlink" xml:space="preserve" xmlns:serif="http://www.serif.com/" style="fill-rule:evenodd;clip-rule:evenodd;stroke-linejoin:round;stroke-miterlimit:2;">
    <g transform="matrix(1,0,0,1,-198,-2660)">
        <g id="Variables" transform="matrix(0.585938,0,0,0.182292,198.553,2660)">
            <rect x="0" y="0" width="1024" height="768" style="fill:none;"/>
            <g transform="matrix(1.66667,0,0,1,-440.022,0)">
                <g id="Gopher" transform="matrix(0.122338,0,0,0.655381,477.806,237.26)">
                    <path d="M381.081,363.552C378.301,364.788 373.668,395.058 387.876,396.602C397.452,397.529 423.707,400.618 429.884,396.602C441.931,388.88 440.695,370.347 433.9,365.714C422.471,358.301 384.17,362.008 381.081,363.552ZM302.625,136.834C270.811,133.127 217.375,162.78 209.344,225.792C200.695,291.274 277.915,356.139 352.046,291.274C391.892,256.371 405.792,148.88 302.625,136.834ZM517.606,136.834C414.44,148.88 428.34,256.371 468.185,291.274C542.317,356.139 619.537,291.274 610.888,225.792C603.166,162.78 549.73,133.127 517.606,136.834Z" style="fill:white;fill-rule:nonzero;"/>
                    <path d="M715.598,106.873C739.382,155.985 667.104,161.236 670.811,183.166C677.606,222.703 672.973,281.39 667.722,339.151C658.764,437.066 731.969,671.506 579.382,765.714C550.656,783.629 482.394,793.514 415.058,795.058L414.44,795.058C347.104,793.514 269.575,783.629 240.849,765.714C88.571,671.506 161.776,437.066 153.127,339.151C147.568,281.39 142.934,222.703 150.039,183.166C153.745,161.236 81.467,156.293 105.251,106.873C125.637,64.556 175.985,101.931 188.649,88.649C253.205,21.622 331.66,3.707 393.436,2.162L427.413,2.162C488.88,5.251 567.336,21.931 632.201,88.649C644.865,101.931 694.903,64.556 715.598,106.873ZM381.081,363.552C378.301,364.788 373.668,395.058 387.876,396.602C397.452,397.529 423.707,400.618 429.884,396.602C441.931,388.88 440.695,370.347 433.9,365.714C422.471,358.301 384.17,362.008 381.081,363.552ZM302.625,136.834C270.811,133.127 217.375,162.78 209.344,225.792C200.695,291.274 277.915,356.139 352.046,291.274C391.892,256.371 405.792,148.88 302.625,136.834ZM517.606,136.834C414.44,148.88 428.34,256.371 468.185,291.274C542.317,356.139 619.537,291.274 610.888,225.792C603.166,162.78 549.73,133.127 517.606,136.834Z" style="fill:url(#_Linear1);fill-rule:nonzero;"/>
                    <path d="M410.425,299.614C429.884,296.834 476.525,319.073 473.436,345.328C469.73,375.907 353.282,379.923 347.104,343.475C343.398,321.236 361.004,307.027 410.425,299.614ZM673.282,545.792C663.707,545.483 657.529,532.819 657.529,525.097C657.529,511.197 659.382,494.826 669.575,487.722C690.579,473.205 707.259,546.1 673.282,545.792ZM147.259,545.792C113.282,546.1 129.961,473.205 150.965,487.722C161.158,494.826 163.012,511.197 163.012,525.097C163.012,532.819 156.834,545.483 147.259,545.792ZM608.726,769.73C614.903,778.687 615.212,784.865 605.328,789.498C567.645,806.795 533.977,783.629 546.641,777.143C573.514,763.552 590.193,742.239 608.726,769.73ZM211.815,772.819C230.347,745.328 247.027,766.641 273.9,780.232C286.564,786.718 252.896,809.884 215.212,792.587C205.328,787.954 205.637,781.776 211.815,772.819Z" style="fill:rgb(172,163,155);fill-rule:nonzero;"/>
                    <path d="M657.838,114.286C659.382,107.799 675.444,104.71 684.402,115.83C695.212,129.112 668.649,147.336 667.413,139.923C664.324,119.846 655.985,120.772 657.838,114.286ZM162.703,114.286C164.556,120.772 156.216,119.846 153.127,139.923C151.892,147.336 125.328,129.112 136.139,115.83C144.788,104.71 160.849,107.799 162.703,114.286ZM544.741,234.664C525.294,234.664 509.529,218.899 509.529,199.452C509.529,180.004 525.294,164.239 544.741,164.239C564.189,164.239 579.954,180.004 579.954,199.452C579.954,218.899 564.189,234.664 544.741,234.664ZM535.475,195.436C541.616,195.436 546.595,190.458 546.595,184.316C546.595,178.175 541.616,173.197 535.475,173.197C529.334,173.197 524.355,178.175 524.355,184.316C524.355,190.458 529.334,195.436 535.475,195.436ZM378.61,314.44C382.317,300.232 395.29,295.598 405.792,295.29C432.664,294.672 442.857,309.189 443.784,320.618C445.637,340.077 370.27,344.71 378.61,314.44ZM315.861,234.664C296.414,234.664 280.649,218.899 280.649,199.452C280.649,180.004 296.414,164.239 315.861,164.239C335.308,164.239 351.073,180.004 351.073,199.452C351.073,218.899 335.308,234.664 315.861,234.664ZM325.128,195.436C331.269,195.436 336.247,190.458 336.247,184.316C336.247,178.175 331.269,173.197 325.128,173.197C318.986,173.197 314.008,178.175 314.008,184.316C314.008,190.458 318.986,195.436 325.128,195.436Z" style="fill:rgb(65,65,65);fill-rule:nonzero;"/>
                </g>
                <g transform="matrix(0.361334,0,0,1.93572,349.135,-21.0274)">
                    <path d="M796.945,161.215L788.279,160.742L787.032,168.475C782.084,199.127 755.976,221.249 725.014,221.029C721.191,221 715.839,220.516 713.325,219.972C703.721,217.884 697.73,215.4 690.429,210.479L685.238,206.978L677.035,211.027C673.385,212.827 667.974,214.836 665.223,215.415C638.904,220.899 613.032,204.87 606.314,178.919C605.26,174.838 604.436,173.129 603.167,172.387C602.522,172.011 601.778,171.906 601.107,172.086C600.636,172.187 597.97,172.458 594.376,172.687C583.867,173.368 575.517,170.073 568.104,162.306C563.709,157.695 561.835,154.485 560.08,148.568C557.747,140.691 559.195,129.502 563.451,122.538C566.121,118.16 572.304,112.393 576.686,110.195L582.096,107.475L583.266,101.392C586.671,83.694 602.831,70.349 620.857,70.349L627.362,70.349L628.069,63.64C629.886,46.247 643.004,30.397 660.71,24.2C664.665,22.817 666.704,22.591 675.257,22.591C683.809,22.591 685.849,22.817 689.803,24.2C703.11,28.857 713.81,38.731 719.156,51.289C721.99,57.964 723.778,57.688 724.743,57.543C725.833,57.374 729.937,55.905 730.755,55.61C736.538,53.508 747.272,52.994 753.725,54.509C766.513,57.516 777.792,66.377 783.163,77.636C784.689,80.832 786.13,83.853 789.531,82.869C792.588,81.985 802.939,81.75 806.835,82.477C813.832,83.789 821.078,87.665 826.715,93.113C834.536,100.661 838.936,110.544 839.106,120.94C839.275,131.337 835.199,141.382 827.63,149.225C819.317,157.835 808.991,161.857 796.945,161.215ZM616.354,217.911C612.904,224.36 605.115,226.943 598.991,223.673C595.862,221.998 593.542,219.252 592.459,215.941C591.387,212.665 591.663,209.243 593.238,206.301C594.908,203.174 597.651,200.855 600.962,199.773C604.238,198.701 607.661,198.978 610.6,200.549C617.047,203.997 619.628,211.786 616.354,217.911ZM584.359,234.961C582.414,233.904 581.268,231.803 581.293,229.34C581.318,226.874 582.51,224.794 584.481,223.775C586.082,222.946 587.89,222.757 589.57,223.238C591.203,223.706 592.511,224.756 593.255,226.197C594.943,229.459 593.776,232.356 592.122,233.979C590.474,235.596 587.57,236.704 584.359,234.961ZM574.468,238.914C575.271,238.163 576.86,237.165 578.506,238.92C579.16,239.614 579.495,240.354 579.473,241.06C579.448,241.888 578.929,242.544 578.497,242.95C577.699,243.699 576.115,244.697 574.463,242.942C573.714,242.144 572.719,240.56 574.468,238.914Z" style="fill:white;fill-rule:nonzero;stroke:black;stroke-width:2.83px;"/>
                </g>
                <g transform="matrix(0.270634,-0.210409,0.0392764,1.44983,350.23,-3556.73)">
                    <g transform="matrix(36,0,0,36,412.186,2652.61)">
                        <path d="M0.26,-0.108C0.271,-0.108 0.284,-0.109 0.298,-0.112C0.311,-0.114 0.321,-0.117 0.328,-0.121L0.328,-0.201L0.256,-0.195C0.237,-0.194 0.222,-0.19 0.21,-0.183C0.198,-0.176 0.192,-0.166 0.192,-0.153C0.192,-0.14 0.197,-0.129 0.208,-0.121C0.218,-0.112 0.235,-0.108 0.26,-0.108ZM0.252,-0.501C0.288,-0.501 0.321,-0.497 0.351,-0.49C0.38,-0.483 0.405,-0.472 0.427,-0.457C0.448,-0.442 0.464,-0.423 0.475,-0.4C0.486,-0.377 0.492,-0.349 0.492,-0.318L0.492,-0.094C0.492,-0.077 0.487,-0.063 0.478,-0.052C0.468,-0.041 0.456,-0.031 0.443,-0.023C0.4,0.003 0.339,0.016 0.26,0.016C0.225,0.016 0.193,0.013 0.165,0.006C0.136,-0.001 0.112,-0.011 0.092,-0.024C0.071,-0.037 0.055,-0.054 0.045,-0.075C0.034,-0.096 0.028,-0.12 0.028,-0.147C0.028,-0.193 0.042,-0.228 0.069,-0.253C0.096,-0.278 0.139,-0.293 0.196,-0.299L0.327,-0.313L0.327,-0.32C0.327,-0.339 0.319,-0.353 0.302,-0.362C0.285,-0.37 0.26,-0.374 0.228,-0.374C0.203,-0.374 0.178,-0.371 0.154,-0.366C0.13,-0.361 0.108,-0.354 0.089,-0.346C0.08,-0.352 0.073,-0.361 0.067,-0.374C0.061,-0.386 0.058,-0.399 0.058,-0.412C0.058,-0.429 0.062,-0.443 0.071,-0.454C0.079,-0.464 0.092,-0.473 0.109,-0.48C0.128,-0.487 0.151,-0.493 0.178,-0.496C0.204,-0.499 0.229,-0.501 0.252,-0.501Z" style="fill:rgb(243,111,49);fill-rule:nonzero;"/>
                    </g>
                    <g transform="matrix(36,0,0,36,431.77,2652.61)">
                        <path d="M0.032,-0.395C0.032,-0.423 0.041,-0.446 0.058,-0.465C0.075,-0.484 0.099,-0.493 0.129,-0.493C0.159,-0.493 0.183,-0.484 0.2,-0.465C0.217,-0.446 0.226,-0.423 0.226,-0.395C0.226,-0.367 0.217,-0.344 0.2,-0.325C0.183,-0.306 0.159,-0.297 0.129,-0.297C0.099,-0.297 0.075,-0.306 0.058,-0.325C0.041,-0.344 0.032,-0.367 0.032,-0.395ZM0.032,-0.081C0.032,-0.109 0.041,-0.132 0.058,-0.151C0.075,-0.17 0.099,-0.179 0.129,-0.179C0.159,-0.179 0.183,-0.17 0.2,-0.151C0.217,-0.132 0.226,-0.109 0.226,-0.081C0.226,-0.053 0.217,-0.03 0.2,-0.011C0.183,0.008 0.159,0.017 0.129,0.017C0.099,0.017 0.075,0.008 0.058,-0.011C0.041,-0.03 0.032,-0.053 0.032,-0.081Z" style="fill:rgb(243,111,49);fill-rule:nonzero;"/>
                    </g>
                    <g transform="matrix(36,0,0,36,441.058,2652.61)">
                        <path d="M0.048,-0.328C0.043,-0.335 0.04,-0.345 0.037,-0.357C0.034,-0.369 0.032,-0.381 0.032,-0.393C0.032,-0.417 0.037,-0.435 0.048,-0.446C0.059,-0.456 0.073,-0.462 0.091,-0.462L0.441,-0.462C0.444,-0.454 0.448,-0.444 0.452,-0.433C0.455,-0.421 0.457,-0.409 0.457,-0.396C0.457,-0.373 0.452,-0.356 0.441,-0.345C0.43,-0.334 0.416,-0.328 0.399,-0.328L0.048,-0.328ZM0.048,-0.129C0.043,-0.136 0.04,-0.146 0.037,-0.158C0.034,-0.17 0.032,-0.182 0.032,-0.194C0.032,-0.218 0.037,-0.236 0.048,-0.247C0.059,-0.258 0.073,-0.263 0.091,-0.263L0.441,-0.263C0.444,-0.255 0.448,-0.245 0.452,-0.234C0.455,-0.222 0.457,-0.21 0.457,-0.197C0.457,-0.174 0.452,-0.157 0.441,-0.146C0.43,-0.134 0.416,-0.129 0.399,-0.129L0.048,-0.129Z" style="fill:rgb(243,111,49);fill-rule:nonzero;"/>
                    </g>
                    <g transform="matrix(36,0,0,36,458.662,2652.61)">
                        <path d="M0.158,-0.404C0.151,-0.4 0.142,-0.397 0.132,-0.396C0.122,-0.395 0.111,-0.394 0.1,-0.394C0.083,-0.394 0.069,-0.397 0.058,-0.404C0.046,-0.41 0.039,-0.421 0.038,-0.438L0.025,-0.637C0.045,-0.653 0.072,-0.661 0.105,-0.661C0.128,-0.661 0.147,-0.657 0.161,-0.648C0.174,-0.639 0.181,-0.624 0.181,-0.601C0.181,-0.592 0.18,-0.579 0.179,-0.562C0.178,-0.545 0.176,-0.528 0.174,-0.509C0.171,-0.49 0.169,-0.471 0.166,-0.452C0.163,-0.433 0.161,-0.417 0.158,-0.404ZM0.359,-0.404C0.352,-0.4 0.343,-0.397 0.333,-0.396C0.323,-0.395 0.312,-0.394 0.301,-0.394C0.284,-0.394 0.27,-0.397 0.259,-0.404C0.247,-0.41 0.24,-0.421 0.239,-0.438L0.226,-0.637C0.246,-0.653 0.273,-0.661 0.306,-0.661C0.329,-0.661 0.348,-0.657 0.362,-0.648C0.375,-0.639 0.382,-0.624 0.382,-0.601C0.382,-0.592 0.381,-0.579 0.38,-0.562C0.379,-0.545 0.377,-0.528 0.375,-0.509C0.372,-0.49 0.37,-0.471 0.367,-0.452C0.364,-0.433 0.362,-0.417 0.359,-0.404Z" style="fill:rgb(243,111,49);fill-rule:nonzero;"/>
                    </g>
                    <g transform="matrix(36,0,0,36,473.422,2652.61)">
                        <path d="M0.048,-0.621C0.048,-0.646 0.056,-0.668 0.074,-0.685C0.091,-0.702 0.113,-0.711 0.141,-0.711C0.169,-0.711 0.192,-0.702 0.209,-0.685C0.226,-0.668 0.234,-0.646 0.234,-0.621C0.234,-0.596 0.226,-0.574 0.209,-0.557C0.192,-0.54 0.169,-0.531 0.141,-0.531C0.113,-0.531 0.091,-0.54 0.074,-0.557C0.056,-0.574 0.048,-0.596 0.048,-0.621ZM0.226,-0.001C0.219,0 0.208,0.002 0.194,0.005C0.179,0.007 0.165,0.008 0.15,0.008C0.135,0.008 0.122,0.007 0.111,0.005C0.099,0.003 0.089,-0.001 0.081,-0.007C0.073,-0.013 0.067,-0.021 0.063,-0.032C0.058,-0.042 0.056,-0.055 0.056,-0.072L0.056,-0.479C0.063,-0.48 0.074,-0.482 0.089,-0.485C0.103,-0.487 0.117,-0.488 0.132,-0.488C0.147,-0.488 0.16,-0.487 0.172,-0.485C0.183,-0.483 0.193,-0.479 0.201,-0.473C0.209,-0.467 0.215,-0.459 0.22,-0.449C0.224,-0.438 0.226,-0.425 0.226,-0.408L0.226,-0.001Z" style="fill:rgb(243,111,49);fill-rule:nonzero;"/>
                    </g>
                    <g transform="matrix(36,0,0,36,483.574,2652.61)">
                        <path d="M0.36,-0.308C0.36,-0.329 0.354,-0.344 0.343,-0.354C0.331,-0.363 0.315,-0.368 0.295,-0.368C0.282,-0.368 0.269,-0.366 0.256,-0.363C0.243,-0.36 0.231,-0.355 0.222,-0.348L0.222,-0.001C0.215,0.001 0.205,0.003 0.191,0.005C0.176,0.007 0.161,0.008 0.146,0.008C0.131,0.008 0.118,0.007 0.107,0.005C0.095,0.003 0.085,-0.001 0.077,-0.007C0.069,-0.013 0.063,-0.021 0.059,-0.032C0.054,-0.042 0.052,-0.055 0.052,-0.072L0.052,-0.372C0.052,-0.39 0.056,-0.405 0.064,-0.416C0.071,-0.427 0.082,-0.438 0.095,-0.447C0.118,-0.463 0.146,-0.476 0.181,-0.486C0.215,-0.496 0.253,-0.501 0.295,-0.501C0.37,-0.501 0.428,-0.485 0.469,-0.452C0.51,-0.419 0.53,-0.373 0.53,-0.314L0.53,-0.001C0.523,0.001 0.513,0.003 0.499,0.005C0.484,0.007 0.469,0.008 0.454,0.008C0.439,0.008 0.426,0.007 0.415,0.005C0.403,0.003 0.393,-0.001 0.385,-0.007C0.377,-0.013 0.371,-0.021 0.367,-0.032C0.362,-0.042 0.36,-0.055 0.36,-0.072L0.36,-0.308Z" style="fill:rgb(243,111,49);fill-rule:nonzero;"/>
                    </g>
                    <g transform="matrix(36,0,0,36,504.562,2652.61)">
                        <path d="M0.048,-0.621C0.048,-0.646 0.056,-0.668 0.074,-0.685C0.091,-0.702 0.113,-0.711 0.141,-0.711C0.169,-0.711 0.192,-0.702 0.209,-0.685C0.226,-0.668 0.234,-0.646 0.234,-0.621C0.234,-0.596 0.226,-0.574 0.209,-0.557C0.192,-0.54 0.169,-0.531 0.141,-0.531C0.113,-0.531 0.091,-0.54 0.074,-0.557C0.056,-0.574 0.048,-0.596 0.048,-0.621ZM0.226,-0.001C0.219,0 0.208,0.002 0.194,0.005C0.179,0.007 0.165,0.008 0.15,0.008C0.135,0.008 0.122,0.007 0.111,0.005C0.099,0.003 0.089,-0.001 0.081,-0.007C0.073,-0.013 0.067,-0.021 0.063,-0.032C0.058,-0.042 0.056,-0.055 0.056,-0.072L0.056,-0.479C0.063,-0.48 0.074,-0.482 0.089,-0.485C0.103,-0.487 0.117,-0.488 0.132,-0.488C0.147,-0.488 0.16,-0.487 0.172,-0.485C0.183,-0.483 0.193,-0.479 0.201,-0.473C0.209,-0.467 0.215,-0.459 0.22,-0.449C0.224,-0.438 0.226,-0.425 0.226,-0.408L0.226,-0.001Z" style="fill:rgb(243,111,49);fill-rule:nonzero;"/>
                    </g>
                    <g transform="matrix(36,0,0,36,514.714,2652.61)">
                        <path d="M0.222,-0.167C0.222,-0.15 0.228,-0.137 0.239,-0.13C0.25,-0.123 0.265,-0.119 0.285,-0.119C0.295,-0.119 0.305,-0.12 0.316,-0.122C0.327,-0.123 0.336,-0.125 0.344,-0.128C0.35,-0.121 0.355,-0.113 0.36,-0.104C0.364,-0.094 0.366,-0.084 0.366,-0.071C0.366,-0.046 0.357,-0.025 0.338,-0.009C0.319,0.007 0.285,0.015 0.237,0.015C0.178,0.015 0.133,0.002 0.102,-0.025C0.07,-0.052 0.054,-0.095 0.054,-0.155L0.054,-0.583C0.061,-0.585 0.072,-0.587 0.086,-0.59C0.099,-0.592 0.114,-0.593 0.129,-0.593C0.158,-0.593 0.181,-0.588 0.198,-0.578C0.214,-0.567 0.222,-0.545 0.222,-0.512L0.222,-0.448L0.353,-0.448C0.357,-0.441 0.361,-0.432 0.365,-0.421C0.368,-0.409 0.37,-0.397 0.37,-0.384C0.37,-0.361 0.365,-0.344 0.355,-0.334C0.344,-0.323 0.33,-0.318 0.313,-0.318L0.222,-0.318L0.222,-0.167Z" style="fill:rgb(243,111,49);fill-rule:nonzero;"/>
                    </g>
                    <g transform="matrix(36,0,0,36,529.114,2652.61)">
                        <path d="M0.048,-0.621C0.048,-0.646 0.056,-0.668 0.074,-0.685C0.091,-0.702 0.113,-0.711 0.141,-0.711C0.169,-0.711 0.192,-0.702 0.209,-0.685C0.226,-0.668 0.234,-0.646 0.234,-0.621C0.234,-0.596 0.226,-0.574 0.209,-0.557C0.192,-0.54 0.169,-0.531 0.141,-0.531C0.113,-0.531 0.091,-0.54 0.074,-0.557C0.056,-0.574 0.048,-0.596 0.048,-0.621ZM0.226,-0.001C0.219,0 0.208,0.002 0.194,0.005C0.179,0.007 0.165,0.008 0.15,0.008C0.135,0.008 0.122,0.007 0.111,0.005C0.099,0.003 0.089,-0.001 0.081,-0.007C0.073,-0.013 0.067,-0.021 0.063,-0.032C0.058,-0.042 0.056,-0.055 0.056,-0.072L0.056,-0.479C0.063,-0.48 0.074,-0.482 0.089,-0.485C0.103,-0.487 0.117,-0.488 0.132,-0.488C0.147,-0.488 0.16,-0.487 0.172,-0.485C0.183,-0.483 0.193,-0.479 0.201,-0.473C0.209,-0.467 0.215,-0.459 0.22,-0.449C0.224,-0.438 0.226,-0.425 0.226,-0.408L0.226,-0.001Z" style="fill:rgb(243,111,49);fill-rule:nonzero;"/>
                    </g>
                    <g transform="matrix(36,0,0,36,539.266,2652.61)">
                        <path d="M0.26,-0.108C0.271,-0.108 0.284,-0.109 0.298,-0.112C0.311,-0.114 0.321,-0.117 0.328,-0.121L0.328,-0.201L0.256,-0.195C0.237,-0.194 0.222,-0.19 0.21,-0.183C0.198,-0.176 0.192,-0.166 0.192,-0.153C0.192,-0.14 0.197,-0.129 0.208,-0.121C0.218,-0.112 0.235,-0.108 0.26,-0.108ZM0.252,-0.501C0.288,-0.501 0.321,-0.497 0.351,-0.49C0.38,-0.483 0.405,-0.472 0.427,-0.457C0.448,-0.442 0.464,-0.423 0.475,-0.4C0.486,-0.377 0.492,-0.349 0.492,-0.318L0.492,-0.094C0.492,-0.077 0.487,-0.063 0.478,-0.052C0.468,-0.041 0.456,-0.031 0.443,-0.023C0.4,0.003 0.339,0.016 0.26,0.016C0.225,0.016 0.193,0.013 0.165,0.006C0.136,-0.001 0.112,-0.011 0.092,-0.024C0.071,-0.037 0.055,-0.054 0.045,-0.075C0.034,-0.096 0.028,-0.12 0.028,-0.147C0.028,-0.193 0.042,-0.228 0.069,-0.253C0.096,-0.278 0.139,-0.293 0.196,-0.299L0.327,-0.313L0.327,-0.32C0.327,-0.339 0.319,-0.353 0.302,-0.362C0.285,-0.37 0.26,-0.374 0.228,-0.374C0.203,-0.374 0.178,-0.371 0.154,-0.366C0.13,-0.361 0.108,-0.354 0.089,-0.346C0.08,-0.352 0.073,-0.361 0.067,-0.374C0.061,-0.386 0.058,-0.399 0.058,-0.412C0.058,-0.429 0.062,-0.443 0.071,-0.454C0.079,-0.464 0.092,-0.473 0.109,-0.48C0.128,-0.487 0.151,-0.493 0.178,-0.496C0.204,-0.499 0.229,-0.501 0.252,-0.501Z" style="fill:rgb(243,111,49);fill-rule:nonzero;"/>
                    </g>
                    <g transform="matrix(36,0,0,36,558.85,2652.61)">
                        <path d="M0.225,-0.001C0.218,0 0.207,0.002 0.193,0.005C0.178,0.007 0.164,0.008 0.149,0.008C0.134,0.008 0.121,0.007 0.11,0.005C0.098,0.003 0.088,-0.001 0.08,-0.007C0.072,-0.013 0.066,-0.021 0.062,-0.032C0.057,-0.042 0.055,-0.055 0.055,-0.072L0.055,-0.652C0.062,-0.653 0.073,-0.655 0.088,-0.658C0.102,-0.66 0.116,-0.661 0.131,-0.661C0.146,-0.661 0.159,-0.66 0.171,-0.658C0.182,-0.656 0.192,-0.652 0.2,-0.646C0.208,-0.64 0.214,-0.632 0.219,-0.622C0.223,-0.611 0.225,-0.598 0.225,-0.581L0.225,-0.001Z" style="fill:rgb(243,111,49);fill-rule:nonzero;"/>
                    </g>
                    <g transform="matrix(36,0,0,36,568.93,2652.61)">
                        <path d="M0.158,-0.404C0.151,-0.4 0.142,-0.397 0.132,-0.396C0.122,-0.395 0.111,-0.394 0.1,-0.394C0.083,-0.394 0.069,-0.397 0.058,-0.404C0.046,-0.41 0.039,-0.421 0.038,-0.438L0.025,-0.637C0.045,-0.653 0.072,-0.661 0.105,-0.661C0.128,-0.661 0.147,-0.657 0.161,-0.648C0.174,-0.639 0.181,-0.624 0.181,-0.601C0.181,-0.592 0.18,-0.579 0.179,-0.562C0.178,-0.545 0.176,-0.528 0.174,-0.509C0.171,-0.49 0.169,-0.471 0.166,-0.452C0.163,-0.433 0.161,-0.417 0.158,-0.404ZM0.359,-0.404C0.352,-0.4 0.343,-0.397 0.333,-0.396C0.323,-0.395 0.312,-0.394 0.301,-0.394C0.284,-0.394 0.27,-0.397 0.259,-0.404C0.247,-0.41 0.24,-0.421 0.239,-0.438L0.226,-0.637C0.246,-0.653 0.273,-0.661 0.306,-0.661C0.329,-0.661 0.348,-0.657 0.362,-0.648C0.375,-0.639 0.382,-0.624 0.382,-0.601C0.382,-0.592 0.381,-0.579 0.38,-0.562C0.379,-0.545 0.377,-0.528 0.375,-0.509C0.372,-0.49 0.37,-0.471 0.367,-0.452C0.364,-0.433 0.362,-0.417 0.359,-0.404Z" style="fill:rgb(243,111,49);fill-rule:nonzero;"/>
                    </g>
                </g>
                <g transform="matrix(0.258075,-0.484598,0.0904582,1.38255,249.607,-3113.22)">
                    <g transform="matrix(36,0,0,36,412.186,2652.61)">
                        <path d="M0.054,-0.486C0.054,-0.52 0.06,-0.549 0.072,-0.574C0.083,-0.598 0.099,-0.618 0.119,-0.634C0.139,-0.649 0.163,-0.661 0.19,-0.668C0.217,-0.675 0.245,-0.679 0.276,-0.679C0.325,-0.679 0.362,-0.673 0.385,-0.66C0.408,-0.647 0.42,-0.624 0.42,-0.593C0.42,-0.58 0.417,-0.568 0.412,-0.557C0.406,-0.546 0.4,-0.538 0.393,-0.533C0.38,-0.536 0.367,-0.539 0.354,-0.542C0.34,-0.544 0.324,-0.545 0.306,-0.545C0.277,-0.545 0.255,-0.54 0.239,-0.531C0.223,-0.521 0.215,-0.504 0.215,-0.48L0.215,-0.448L0.379,-0.448C0.383,-0.441 0.387,-0.432 0.391,-0.421C0.394,-0.409 0.396,-0.397 0.396,-0.384C0.396,-0.361 0.391,-0.344 0.381,-0.334C0.37,-0.323 0.356,-0.318 0.339,-0.318L0.224,-0.318L0.224,-0.001C0.217,0.001 0.207,0.003 0.193,0.005C0.178,0.007 0.163,0.008 0.148,0.008C0.133,0.008 0.12,0.007 0.109,0.005C0.097,0.003 0.087,-0.001 0.079,-0.007C0.071,-0.013 0.065,-0.021 0.061,-0.032C0.056,-0.042 0.054,-0.055 0.054,-0.072L0.054,-0.486Z" style="fill:rgb(0,167,109);fill-rule:nonzero;"/>
                    </g>
                    <g transform="matrix(36,0,0,36,427.666,2652.61)">
                        <path d="M0.032,-0.395C0.032,-0.423 0.041,-0.446 0.058,-0.465C0.075,-0.484 0.099,-0.493 0.129,-0.493C0.159,-0.493 0.183,-0.484 0.2,-0.465C0.217,-0.446 0.226,-0.423 0.226,-0.395C0.226,-0.367 0.217,-0.344 0.2,-0.325C0.183,-0.306 0.159,-0.297 0.129,-0.297C0.099,-0.297 0.075,-0.306 0.058,-0.325C0.041,-0.344 0.032,-0.367 0.032,-0.395ZM0.032,-0.081C0.032,-0.109 0.041,-0.132 0.058,-0.151C0.075,-0.17 0.099,-0.179 0.129,-0.179C0.159,-0.179 0.183,-0.17 0.2,-0.151C0.217,-0.132 0.226,-0.109 0.226,-0.081C0.226,-0.053 0.217,-0.03 0.2,-0.011C0.183,0.008 0.159,0.017 0.129,0.017C0.099,0.017 0.075,0.008 0.058,-0.011C0.041,-0.03 0.032,-0.053 0.032,-0.081Z" style="fill:rgb(0,167,109);fill-rule:nonzero;"/>
                    </g>
                    <g transform="matrix(36,0,0,36,436.954,2652.61)">
                        <path d="M0.048,-0.328C0.043,-0.335 0.04,-0.345 0.037,-0.357C0.034,-0.369 0.032,-0.381 0.032,-0.393C0.032,-0.417 0.037,-0.435 0.048,-0.446C0.059,-0.456 0.073,-0.462 0.091,-0.462L0.441,-0.462C0.444,-0.454 0.448,-0.444 0.452,-0.433C0.455,-0.421 0.457,-0.409 0.457,-0.396C0.457,-0.373 0.452,-0.356 0.441,-0.345C0.43,-0.334 0.416,-0.328 0.399,-0.328L0.048,-0.328ZM0.048,-0.129C0.043,-0.136 0.04,-0.146 0.037,-0.158C0.034,-0.17 0.032,-0.182 0.032,-0.194C0.032,-0.218 0.037,-0.236 0.048,-0.247C0.059,-0.258 0.073,-0.263 0.091,-0.263L0.441,-0.263C0.444,-0.255 0.448,-0.245 0.452,-0.234C0.455,-0.222 0.457,-0.21 0.457,-0.197C0.457,-0.174 0.452,-0.157 0.441,-0.146C0.43,-0.134 0.416,-0.129 0.399,-0.129L0.048,-0.129Z" style="fill:rgb(0,167,109);fill-rule:nonzero;"/>
                    </g>
                    <g transform="matrix(36,0,0,36,454.558,2652.61)">
                        <path d="M0.158,-0.404C0.151,-0.4 0.142,-0.397 0.132,-0.396C0.122,-0.395 0.111,-0.394 0.1,-0.394C0.083,-0.394 0.069,-0.397 0.058,-0.404C0.046,-0.41 0.039,-0.421 0.038,-0.438L0.025,-0.637C0.045,-0.653 0.072,-0.661 0.105,-0.661C0.128,-0.661 0.147,-0.657 0.161,-0.648C0.174,-0.639 0.181,-0.624 0.181,-0.601C0.181,-0.592 0.18,-0.579 0.179,-0.562C0.178,-0.545 0.176,-0.528 0.174,-0.509C0.171,-0.49 0.169,-0.471 0.166,-0.452C0.163,-0.433 0.161,-0.417 0.158,-0.404ZM0.359,-0.404C0.352,-0.4 0.343,-0.397 0.333,-0.396C0.323,-0.395 0.312,-0.394 0.301,-0.394C0.284,-0.394 0.27,-0.397 0.259,-0.404C0.247,-0.41 0.24,-0.421 0.239,-0.438L0.226,-0.637C0.246,-0.653 0.273,-0.661 0.306,-0.661C0.329,-0.661 0.348,-0.657 0.362,-0.648C0.375,-0.639 0.382,-0.624 0.382,-0.601C0.382,-0.592 0.381,-0.579 0.38,-0.562C0.379,-0.545 0.377,-0.528 0.375,-0.509C0.372,-0.49 0.37,-0.471 0.367,-0.452C0.364,-0.433 0.362,-0.417 0.359,-0.404Z" style="fill:rgb(0,167,109);fill-rule:nonzero;"/>
                    </g>
                    <g transform="matrix(36,0,0,36,467.878,2652.61)">
                        <path d="M0.26,-0.108C0.271,-0.108 0.284,-0.109 0.298,-0.112C0.311,-0.114 0.321,-0.117 0.328,-0.121L0.328,-0.201L0.256,-0.195C0.237,-0.194 0.222,-0.19 0.21,-0.183C0.198,-0.176 0.192,-0.166 0.192,-0.153C0.192,-0.14 0.197,-0.129 0.208,-0.121C0.218,-0.112 0.235,-0.108 0.26,-0.108ZM0.252,-0.501C0.288,-0.501 0.321,-0.497 0.351,-0.49C0.38,-0.483 0.405,-0.472 0.427,-0.457C0.448,-0.442 0.464,-0.423 0.475,-0.4C0.486,-0.377 0.492,-0.349 0.492,-0.318L0.492,-0.094C0.492,-0.077 0.487,-0.063 0.478,-0.052C0.468,-0.041 0.456,-0.031 0.443,-0.023C0.4,0.003 0.339,0.016 0.26,0.016C0.225,0.016 0.193,0.013 0.165,0.006C0.136,-0.001 0.112,-0.011 0.092,-0.024C0.071,-0.037 0.055,-0.054 0.045,-0.075C0.034,-0.096 0.028,-0.12 0.028,-0.147C0.028,-0.193 0.042,-0.228 0.069,-0.253C0.096,-0.278 0.139,-0.293 0.196,-0.299L0.327,-0.313L0.327,-0.32C0.327,-0.339 0.319,-0.353 0.302,-0.362C0.285,-0.37 0.26,-0.374 0.228,-0.374C0.203,-0.374 0.178,-0.371 0.154,-0.366C0.13,-0.361 0.108,-0.354 0.089,-0.346C0.08,-0.352 0.073,-0.361 0.067,-0.374C0.061,-0.386 0.058,-0.399 0.058,-0.412C0.058,-0.429 0.062,-0.443 0.071,-0.454C0.079,-0.464 0.092,-0.473 0.109,-0.48C0.128,-0.487 0.151,-0.493 0.178,-0.496C0.204,-0.499 0.229,-0.501 0.252,-0.501Z" style="fill:rgb(0,167,109);fill-rule:nonzero;"/>
                    </g>
                    <g transform="matrix(36,0,0,36,487.462,2652.61)">
                        <path d="M0.275,-0.501C0.315,-0.501 0.352,-0.496 0.387,-0.486C0.421,-0.475 0.45,-0.459 0.475,-0.438C0.5,-0.417 0.519,-0.39 0.533,-0.358C0.547,-0.325 0.554,-0.287 0.554,-0.242C0.554,-0.199 0.548,-0.162 0.536,-0.13C0.524,-0.098 0.507,-0.071 0.485,-0.05C0.463,-0.028 0.437,-0.012 0.406,-0.001C0.375,0.01 0.34,0.015 0.302,0.015C0.273,0.015 0.247,0.011 0.222,0.002L0.222,0.168C0.215,0.17 0.205,0.172 0.19,0.175C0.175,0.177 0.16,0.178 0.145,0.178C0.13,0.178 0.117,0.177 0.106,0.175C0.094,0.173 0.084,0.169 0.076,0.163C0.068,0.157 0.062,0.149 0.058,0.139C0.054,0.128 0.052,0.115 0.052,0.098L0.052,-0.382C0.052,-0.4 0.056,-0.415 0.064,-0.426C0.071,-0.437 0.082,-0.448 0.095,-0.457C0.116,-0.47 0.141,-0.481 0.172,-0.489C0.203,-0.497 0.237,-0.501 0.275,-0.501ZM0.277,-0.119C0.346,-0.119 0.38,-0.16 0.38,-0.242C0.38,-0.285 0.372,-0.316 0.355,-0.337C0.337,-0.358 0.313,-0.368 0.281,-0.368C0.268,-0.368 0.257,-0.367 0.247,-0.364C0.237,-0.361 0.228,-0.357 0.221,-0.353L0.221,-0.133C0.229,-0.129 0.238,-0.126 0.247,-0.123C0.256,-0.12 0.266,-0.119 0.277,-0.119Z" style="fill:rgb(0,167,109);fill-rule:nonzero;"/>
                    </g>
                    <g transform="matrix(36,0,0,36,508.522,2652.61)">
                        <path d="M0.275,-0.501C0.315,-0.501 0.352,-0.496 0.387,-0.486C0.421,-0.475 0.45,-0.459 0.475,-0.438C0.5,-0.417 0.519,-0.39 0.533,-0.358C0.547,-0.325 0.554,-0.287 0.554,-0.242C0.554,-0.199 0.548,-0.162 0.536,-0.13C0.524,-0.098 0.507,-0.071 0.485,-0.05C0.463,-0.028 0.437,-0.012 0.406,-0.001C0.375,0.01 0.34,0.015 0.302,0.015C0.273,0.015 0.247,0.011 0.222,0.002L0.222,0.168C0.215,0.17 0.205,0.172 0.19,0.175C0.175,0.177 0.16,0.178 0.145,0.178C0.13,0.178 0.117,0.177 0.106,0.175C0.094,0.173 0.084,0.169 0.076,0.163C0.068,0.157 0.062,0.149 0.058,0.139C0.054,0.128 0.052,0.115 0.052,0.098L0.052,-0.382C0.052,-0.4 0.056,-0.415 0.064,-0.426C0.071,-0.437 0.082,-0.448 0.095,-0.457C0.116,-0.47 0.141,-0.481 0.172,-0.489C0.203,-0.497 0.237,-0.501 0.275,-0.501ZM0.277,-0.119C0.346,-0.119 0.38,-0.16 0.38,-0.242C0.38,-0.285 0.372,-0.316 0.355,-0.337C0.337,-0.358 0.313,-0.368 0.281,-0.368C0.268,-0.368 0.257,-0.367 0.247,-0.364C0.237,-0.361 0.228,-0.357 0.221,-0.353L0.221,-0.133C0.229,-0.129 0.238,-0.126 0.247,-0.123C0.256,-0.12 0.266,-0.119 0.277,-0.119Z" style="fill:rgb(0,167,109);fill-rule:nonzero;"/>
                    </g>
                    <g transform="matrix(36,0,0,36,529.582,2652.61)">
                        <path d="M0.225,-0.001C0.218,0 0.207,0.002 0.193,0.005C0.178,0.007 0.164,0.008 0.149,0.008C0.134,0.008 0.121,0.007 0.11,0.005C0.098,0.003 0.088,-0.001 0.08,-0.007C0.072,-0.013 0.066,-0.021 0.062,-0.032C0.057,-0.042 0.055,-0.055 0.055,-0.072L0.055,-0.652C0.062,-0.653 0.073,-0.655 0.088,-0.658C0.102,-0.66 0.116,-0.661 0.131,-0.661C0.146,-0.661 0.159,-0.66 0.171,-0.658C0.182,-0.656 0.192,-0.652 0.2,-0.646C0.208,-0.64 0.214,-0.632 0.219,-0.622C0.223,-0.611 0.225,-0.598 0.225,-0.581L0.225,-0.001Z" style="fill:rgb(0,167,109);fill-rule:nonzero;"/>
                    </g>
                    <g transform="matrix(36,0,0,36,539.662,2652.61)">
                        <path d="M0.309,0.016C0.27,0.016 0.233,0.011 0.2,-0.001C0.166,-0.012 0.136,-0.028 0.112,-0.05C0.087,-0.072 0.067,-0.1 0.053,-0.133C0.038,-0.166 0.031,-0.205 0.031,-0.25C0.031,-0.294 0.038,-0.332 0.053,-0.364C0.067,-0.395 0.086,-0.421 0.109,-0.442C0.132,-0.462 0.159,-0.477 0.189,-0.487C0.219,-0.496 0.25,-0.501 0.281,-0.501C0.316,-0.501 0.349,-0.496 0.378,-0.485C0.407,-0.474 0.432,-0.46 0.453,-0.441C0.474,-0.422 0.49,-0.4 0.502,-0.374C0.513,-0.348 0.519,-0.32 0.519,-0.289C0.519,-0.266 0.513,-0.249 0.5,-0.237C0.487,-0.225 0.47,-0.217 0.447,-0.214L0.2,-0.177C0.207,-0.155 0.222,-0.139 0.245,-0.128C0.268,-0.117 0.294,-0.111 0.323,-0.111C0.35,-0.111 0.376,-0.115 0.401,-0.122C0.425,-0.129 0.445,-0.137 0.46,-0.146C0.471,-0.139 0.48,-0.13 0.487,-0.118C0.494,-0.106 0.498,-0.093 0.498,-0.08C0.498,-0.05 0.484,-0.028 0.456,-0.013C0.435,-0.002 0.411,0.006 0.384,0.01C0.357,0.014 0.332,0.016 0.309,0.016ZM0.281,-0.377C0.265,-0.377 0.251,-0.374 0.24,-0.369C0.228,-0.364 0.218,-0.357 0.211,-0.349C0.204,-0.34 0.198,-0.331 0.195,-0.321C0.191,-0.31 0.189,-0.3 0.188,-0.289L0.359,-0.317C0.357,-0.33 0.35,-0.344 0.337,-0.357C0.324,-0.37 0.306,-0.377 0.281,-0.377Z" style="fill:rgb(0,167,109);fill-rule:nonzero;"/>
                    </g>
                    <g transform="matrix(36,0,0,36,558.706,2652.61)">
                        <path d="M0.158,-0.404C0.151,-0.4 0.142,-0.397 0.132,-0.396C0.122,-0.395 0.111,-0.394 0.1,-0.394C0.083,-0.394 0.069,-0.397 0.058,-0.404C0.046,-0.41 0.039,-0.421 0.038,-0.438L0.025,-0.637C0.045,-0.653 0.072,-0.661 0.105,-0.661C0.128,-0.661 0.147,-0.657 0.161,-0.648C0.174,-0.639 0.181,-0.624 0.181,-0.601C0.181,-0.592 0.18,-0.579 0.179,-0.562C0.178,-0.545 0.176,-0.528 0.174,-0.509C0.171,-0.49 0.169,-0.471 0.166,-0.452C0.163,-0.433 0.161,-0.417 0.158,-0.404ZM0.359,-0.404C0.352,-0.4 0.343,-0.397 0.333,-0.396C0.323,-0.395 0.312,-0.394 0.301,-0.394C0.284,-0.394 0.27,-0.397 0.259,-0.404C0.247,-0.41 0.24,-0.421 0.239,-0.438L0.226,-0.637C0.246,-0.653 0.273,-0.661 0.306,-0.661C0.329,-0.661 0.348,-0.657 0.362,-0.648C0.375,-0.639 0.382,-0.624 0.382,-0.601C0.382,-0.592 0.381,-0.579 0.38,-0.562C0.379,-0.545 0.377,-0.528 0.375,-0.509C0.372,-0.49 0.37,-0.471 0.367,-0.452C0.364,-0.433 0.362,-0.417 0.359,-0.404Z" style="fill:rgb(0,167,109);fill-rule:nonzero;"/>
                    </g>
                </g>
                <g transform="matrix(0.271913,0.156083,-0.0291356,1.45668,527.846,-3659.14)">
                    <g transform="matrix(36,0,0,36,412.186,2652.61)">
                        <path d="M0.031,-0.243C0.031,-0.287 0.038,-0.325 0.051,-0.358C0.064,-0.39 0.083,-0.417 0.107,-0.438C0.13,-0.459 0.158,-0.475 0.19,-0.486C0.221,-0.496 0.255,-0.501 0.292,-0.501C0.305,-0.501 0.318,-0.5 0.331,-0.498C0.344,-0.495 0.354,-0.492 0.362,-0.489L0.362,-0.651C0.369,-0.653 0.379,-0.655 0.394,-0.658C0.409,-0.66 0.424,-0.661 0.439,-0.661C0.454,-0.661 0.467,-0.66 0.479,-0.658C0.49,-0.656 0.5,-0.652 0.508,-0.646C0.516,-0.64 0.522,-0.632 0.526,-0.622C0.53,-0.611 0.532,-0.598 0.532,-0.581L0.532,-0.107C0.532,-0.076 0.517,-0.051 0.488,-0.032C0.469,-0.019 0.444,-0.008 0.413,0.002C0.382,0.011 0.347,0.016 0.307,0.016C0.264,0.016 0.225,0.01 0.191,-0.002C0.156,-0.014 0.127,-0.031 0.104,-0.054C0.08,-0.077 0.062,-0.104 0.05,-0.136C0.037,-0.167 0.031,-0.203 0.031,-0.243ZM0.315,-0.368C0.279,-0.368 0.251,-0.358 0.232,-0.337C0.213,-0.316 0.203,-0.285 0.203,-0.243C0.203,-0.202 0.212,-0.17 0.23,-0.15C0.248,-0.129 0.274,-0.118 0.308,-0.118C0.32,-0.118 0.331,-0.12 0.341,-0.124C0.35,-0.127 0.358,-0.131 0.363,-0.136L0.363,-0.356C0.35,-0.364 0.334,-0.368 0.315,-0.368Z" style="fill:rgb(122,59,139);fill-rule:nonzero;"/>
                    </g>
                    <g transform="matrix(36,0,0,36,433.282,2652.61)">
                        <path d="M0.032,-0.395C0.032,-0.423 0.041,-0.446 0.058,-0.465C0.075,-0.484 0.099,-0.493 0.129,-0.493C0.159,-0.493 0.183,-0.484 0.2,-0.465C0.217,-0.446 0.226,-0.423 0.226,-0.395C0.226,-0.367 0.217,-0.344 0.2,-0.325C0.183,-0.306 0.159,-0.297 0.129,-0.297C0.099,-0.297 0.075,-0.306 0.058,-0.325C0.041,-0.344 0.032,-0.367 0.032,-0.395ZM0.032,-0.081C0.032,-0.109 0.041,-0.132 0.058,-0.151C0.075,-0.17 0.099,-0.179 0.129,-0.179C0.159,-0.179 0.183,-0.17 0.2,-0.151C0.217,-0.132 0.226,-0.109 0.226,-0.081C0.226,-0.053 0.217,-0.03 0.2,-0.011C0.183,0.008 0.159,0.017 0.129,0.017C0.099,0.017 0.075,0.008 0.058,-0.011C0.041,-0.03 0.032,-0.053 0.032,-0.081Z" style="fill:rgb(122,59,139);fill-rule:nonzero;"/>
                    </g>
                    <g transform="matrix(36,0,0,36,442.57,2652.61)">
                        <path d="M0.048,-0.328C0.043,-0.335 0.04,-0.345 0.037,-0.357C0.034,-0.369 0.032,-0.381 0.032,-0.393C0.032,-0.417 0.037,-0.435 0.048,-0.446C0.059,-0.456 0.073,-0.462 0.091,-0.462L0.441,-0.462C0.444,-0.454 0.448,-0.444 0.452,-0.433C0.455,-0.421 0.457,-0.409 0.457,-0.396C0.457,-0.373 0.452,-0.356 0.441,-0.345C0.43,-0.334 0.416,-0.328 0.399,-0.328L0.048,-0.328ZM0.048,-0.129C0.043,-0.136 0.04,-0.146 0.037,-0.158C0.034,-0.17 0.032,-0.182 0.032,-0.194C0.032,-0.218 0.037,-0.236 0.048,-0.247C0.059,-0.258 0.073,-0.263 0.091,-0.263L0.441,-0.263C0.444,-0.255 0.448,-0.245 0.452,-0.234C0.455,-0.222 0.457,-0.21 0.457,-0.197C0.457,-0.174 0.452,-0.157 0.441,-0.146C0.43,-0.134 0.416,-0.129 0.399,-0.129L0.048,-0.129Z" style="fill:rgb(122,59,139);fill-rule:nonzero;"/>
                    </g>
                    <g transform="matrix(36,0,0,36,460.174,2652.61)">
                        <path d="M0.222,-0.167C0.222,-0.15 0.228,-0.137 0.239,-0.13C0.25,-0.123 0.265,-0.119 0.285,-0.119C0.295,-0.119 0.305,-0.12 0.316,-0.122C0.327,-0.123 0.336,-0.125 0.344,-0.128C0.35,-0.121 0.355,-0.113 0.36,-0.104C0.364,-0.094 0.366,-0.084 0.366,-0.071C0.366,-0.046 0.357,-0.025 0.338,-0.009C0.319,0.007 0.285,0.015 0.237,0.015C0.178,0.015 0.133,0.002 0.102,-0.025C0.07,-0.052 0.054,-0.095 0.054,-0.155L0.054,-0.583C0.061,-0.585 0.072,-0.587 0.086,-0.59C0.099,-0.592 0.114,-0.593 0.129,-0.593C0.158,-0.593 0.181,-0.588 0.198,-0.578C0.214,-0.567 0.222,-0.545 0.222,-0.512L0.222,-0.448L0.353,-0.448C0.357,-0.441 0.361,-0.432 0.365,-0.421C0.368,-0.409 0.37,-0.397 0.37,-0.384C0.37,-0.361 0.365,-0.344 0.355,-0.334C0.344,-0.323 0.33,-0.318 0.313,-0.318L0.222,-0.318L0.222,-0.167Z" style="fill:rgb(122,59,139);fill-rule:nonzero;"/>
                    </g>
                    <g transform="matrix(36,0,0,36,474.574,2652.61)">
                        <path d="M0.222,-0.001C0.215,0.001 0.205,0.003 0.191,0.005C0.176,0.007 0.161,0.008 0.146,0.008C0.131,0.008 0.118,0.007 0.107,0.005C0.095,0.003 0.085,-0.001 0.077,-0.007C0.069,-0.013 0.063,-0.021 0.059,-0.032C0.054,-0.042 0.052,-0.055 0.052,-0.072L0.052,-0.372C0.052,-0.387 0.055,-0.401 0.061,-0.412C0.066,-0.423 0.074,-0.432 0.085,-0.441C0.096,-0.45 0.109,-0.458 0.125,-0.465C0.14,-0.472 0.157,-0.478 0.175,-0.483C0.193,-0.488 0.212,-0.493 0.231,-0.496C0.25,-0.499 0.27,-0.5 0.289,-0.5C0.321,-0.5 0.346,-0.494 0.365,-0.482C0.384,-0.469 0.393,-0.449 0.393,-0.421C0.393,-0.412 0.392,-0.403 0.389,-0.394C0.386,-0.385 0.383,-0.376 0.379,-0.369C0.365,-0.369 0.351,-0.368 0.336,-0.367C0.321,-0.366 0.307,-0.364 0.293,-0.361C0.279,-0.358 0.266,-0.356 0.254,-0.353C0.241,-0.349 0.231,-0.346 0.222,-0.342L0.222,-0.001Z" style="fill:rgb(122,59,139);fill-rule:nonzero;"/>
                    </g>
                    <g transform="matrix(36,0,0,36,489.37,2652.61)">
                        <path d="M0.052,-0.479C0.059,-0.481 0.069,-0.483 0.084,-0.485C0.098,-0.487 0.113,-0.488 0.128,-0.488C0.143,-0.488 0.156,-0.487 0.168,-0.485C0.179,-0.483 0.189,-0.479 0.197,-0.473C0.205,-0.467 0.211,-0.459 0.216,-0.449C0.22,-0.438 0.222,-0.425 0.222,-0.408L0.222,-0.193C0.222,-0.166 0.229,-0.146 0.242,-0.135C0.255,-0.123 0.275,-0.117 0.3,-0.117C0.315,-0.117 0.328,-0.118 0.338,-0.121C0.347,-0.124 0.355,-0.126 0.36,-0.129L0.36,-0.479C0.367,-0.481 0.377,-0.483 0.392,-0.485C0.406,-0.487 0.421,-0.488 0.436,-0.488C0.451,-0.488 0.464,-0.487 0.476,-0.485C0.487,-0.483 0.497,-0.479 0.505,-0.473C0.513,-0.467 0.519,-0.459 0.524,-0.449C0.528,-0.438 0.53,-0.425 0.53,-0.408L0.53,-0.104C0.53,-0.071 0.516,-0.046 0.488,-0.029C0.465,-0.014 0.437,-0.003 0.405,0.005C0.372,0.012 0.337,0.016 0.299,0.016C0.263,0.016 0.23,0.012 0.2,0.004C0.169,-0.004 0.143,-0.016 0.121,-0.033C0.099,-0.05 0.082,-0.071 0.07,-0.098C0.058,-0.124 0.052,-0.156 0.052,-0.193L0.052,-0.479Z" style="fill:rgb(122,59,139);fill-rule:nonzero;"/>
                    </g>
                    <g transform="matrix(36,0,0,36,510.322,2652.61)">
                        <path d="M0.309,0.016C0.27,0.016 0.233,0.011 0.2,-0.001C0.166,-0.012 0.136,-0.028 0.112,-0.05C0.087,-0.072 0.067,-0.1 0.053,-0.133C0.038,-0.166 0.031,-0.205 0.031,-0.25C0.031,-0.294 0.038,-0.332 0.053,-0.364C0.067,-0.395 0.086,-0.421 0.109,-0.442C0.132,-0.462 0.159,-0.477 0.189,-0.487C0.219,-0.496 0.25,-0.501 0.281,-0.501C0.316,-0.501 0.349,-0.496 0.378,-0.485C0.407,-0.474 0.432,-0.46 0.453,-0.441C0.474,-0.422 0.49,-0.4 0.502,-0.374C0.513,-0.348 0.519,-0.32 0.519,-0.289C0.519,-0.266 0.513,-0.249 0.5,-0.237C0.487,-0.225 0.47,-0.217 0.447,-0.214L0.2,-0.177C0.207,-0.155 0.222,-0.139 0.245,-0.128C0.268,-0.117 0.294,-0.111 0.323,-0.111C0.35,-0.111 0.376,-0.115 0.401,-0.122C0.425,-0.129 0.445,-0.137 0.46,-0.146C0.471,-0.139 0.48,-0.13 0.487,-0.118C0.494,-0.106 0.498,-0.093 0.498,-0.08C0.498,-0.05 0.484,-0.028 0.456,-0.013C0.435,-0.002 0.411,0.006 0.384,0.01C0.357,0.014 0.332,0.016 0.309,0.016ZM0.281,-0.377C0.265,-0.377 0.251,-0.374 0.24,-0.369C0.228,-0.364 0.218,-0.357 0.211,-0.349C0.204,-0.34 0.198,-0.331 0.195,-0.321C0.191,-0.31 0.189,-0.3 0.188,-0.289L0.359,-0.317C0.357,-0.33 0.35,-0.344 0.337,-0.357C0.324,-0.37 0.306,-0.377 0.281,-0.377Z" style="fill:rgb(122,59,139);fill-rule:nonzero;"/>
                    </g>
                </g>
                <g transform="matrix(0.269332,0.253893,-0.0473933,1.44285,636.82,-3745.42)">
                    <g transform="matrix(36,0,0,36,412.186,2652.61)">
                        <path d="M0.054,-0.651C0.061,-0.653 0.071,-0.655 0.086,-0.658C0.101,-0.66 0.116,-0.661 0.131,-0.661C0.146,-0.661 0.159,-0.66 0.171,-0.658C0.182,-0.656 0.192,-0.652 0.2,-0.646C0.208,-0.64 0.214,-0.632 0.218,-0.622C0.222,-0.611 0.224,-0.598 0.224,-0.581L0.224,-0.483C0.241,-0.49 0.257,-0.494 0.272,-0.497C0.286,-0.5 0.303,-0.501 0.321,-0.501C0.353,-0.501 0.383,-0.495 0.412,-0.484C0.441,-0.473 0.466,-0.456 0.488,-0.435C0.51,-0.413 0.527,-0.386 0.54,-0.354C0.553,-0.322 0.559,-0.285 0.559,-0.243C0.559,-0.2 0.553,-0.162 0.54,-0.13C0.527,-0.097 0.508,-0.07 0.485,-0.049C0.462,-0.028 0.433,-0.012 0.4,-0.001C0.366,0.011 0.329,0.016 0.288,0.016C0.244,0.016 0.207,0.011 0.176,0.001C0.145,-0.01 0.119,-0.023 0.098,-0.038C0.069,-0.059 0.054,-0.085 0.054,-0.118L0.054,-0.651ZM0.288,-0.118C0.319,-0.118 0.343,-0.129 0.36,-0.15C0.377,-0.17 0.385,-0.202 0.385,-0.243C0.385,-0.285 0.376,-0.316 0.359,-0.337C0.342,-0.358 0.318,-0.368 0.289,-0.368C0.276,-0.368 0.264,-0.367 0.255,-0.364C0.245,-0.361 0.234,-0.357 0.223,-0.352L0.223,-0.134C0.23,-0.129 0.239,-0.126 0.25,-0.123C0.26,-0.12 0.273,-0.118 0.288,-0.118Z" style="fill:rgb(0,165,228);fill-rule:nonzero;"/>
                    </g>
                    <g transform="matrix(36,0,0,36,433.426,2652.61)">
                        <path d="M0.032,-0.395C0.032,-0.423 0.041,-0.446 0.058,-0.465C0.075,-0.484 0.099,-0.493 0.129,-0.493C0.159,-0.493 0.183,-0.484 0.2,-0.465C0.217,-0.446 0.226,-0.423 0.226,-0.395C0.226,-0.367 0.217,-0.344 0.2,-0.325C0.183,-0.306 0.159,-0.297 0.129,-0.297C0.099,-0.297 0.075,-0.306 0.058,-0.325C0.041,-0.344 0.032,-0.367 0.032,-0.395ZM0.032,-0.081C0.032,-0.109 0.041,-0.132 0.058,-0.151C0.075,-0.17 0.099,-0.179 0.129,-0.179C0.159,-0.179 0.183,-0.17 0.2,-0.151C0.217,-0.132 0.226,-0.109 0.226,-0.081C0.226,-0.053 0.217,-0.03 0.2,-0.011C0.183,0.008 0.159,0.017 0.129,0.017C0.099,0.017 0.075,0.008 0.058,-0.011C0.041,-0.03 0.032,-0.053 0.032,-0.081Z" style="fill:rgb(0,165,228);fill-rule:nonzero;"/>
                    </g>
                    <g transform="matrix(36,0,0,36,442.714,2652.61)">
                        <path d="M0.048,-0.328C0.043,-0.335 0.04,-0.345 0.037,-0.357C0.034,-0.369 0.032,-0.381 0.032,-0.393C0.032,-0.417 0.037,-0.435 0.048,-0.446C0.059,-0.456 0.073,-0.462 0.091,-0.462L0.441,-0.462C0.444,-0.454 0.448,-0.444 0.452,-0.433C0.455,-0.421 0.457,-0.409 0.457,-0.396C0.457,-0.373 0.452,-0.356 0.441,-0.345C0.43,-0.334 0.416,-0.328 0.399,-0.328L0.048,-0.328ZM0.048,-0.129C0.043,-0.136 0.04,-0.146 0.037,-0.158C0.034,-0.17 0.032,-0.182 0.032,-0.194C0.032,-0.218 0.037,-0.236 0.048,-0.247C0.059,-0.258 0.073,-0.263 0.091,-0.263L0.441,-0.263C0.444,-0.255 0.448,-0.245 0.452,-0.234C0.455,-0.222 0.457,-0.21 0.457,-0.197C0.457,-0.174 0.452,-0.157 0.441,-0.146C0.43,-0.134 0.416,-0.129 0.399,-0.129L0.048,-0.129Z" style="fill:rgb(0,165,228);fill-rule:nonzero;"/>
                    </g>
                    <g transform="matrix(36,0,0,36,459.598,2652.61)">
                        <path d="M0.155,-0.446L0.055,-0.415C0.045,-0.422 0.035,-0.431 0.025,-0.443C0.015,-0.455 0.01,-0.472 0.01,-0.493C0.01,-0.533 0.034,-0.561 0.083,-0.577L0.195,-0.615L0.232,-0.615C0.261,-0.615 0.283,-0.607 0.3,-0.59C0.317,-0.573 0.325,-0.551 0.325,-0.522L0.325,-0.001C0.318,0 0.307,0.002 0.293,0.005C0.278,0.007 0.264,0.008 0.249,0.008C0.234,0.008 0.221,0.007 0.21,0.005C0.198,0.003 0.188,-0.001 0.18,-0.007C0.172,-0.013 0.166,-0.021 0.162,-0.032C0.157,-0.042 0.155,-0.055 0.155,-0.072L0.155,-0.446Z" style="fill:rgb(0,165,228);fill-rule:nonzero;"/>
                    </g>
                </g>
                <g transform="matrix(0.261507,-0.428556,0.0799971,1.40093,282.275,-3282.95)">
                    <g transform="matrix(36,0,0,36,412.186,2652.61)">
                        <path d="M0.326,-0.367C0.309,-0.367 0.294,-0.364 0.279,-0.359C0.264,-0.354 0.251,-0.346 0.24,-0.336C0.229,-0.325 0.22,-0.312 0.213,-0.297C0.206,-0.282 0.203,-0.264 0.203,-0.243C0.203,-0.202 0.215,-0.171 0.239,-0.15C0.262,-0.129 0.291,-0.119 0.325,-0.119C0.345,-0.119 0.362,-0.121 0.377,-0.126C0.392,-0.131 0.405,-0.136 0.416,-0.141C0.429,-0.132 0.439,-0.122 0.446,-0.111C0.453,-0.099 0.456,-0.086 0.456,-0.071C0.456,-0.044 0.443,-0.023 0.417,-0.008C0.391,0.008 0.355,0.015 0.309,0.015C0.267,0.015 0.229,0.009 0.195,-0.004C0.161,-0.016 0.132,-0.033 0.108,-0.056C0.083,-0.078 0.064,-0.105 0.051,-0.136C0.038,-0.167 0.031,-0.202 0.031,-0.24C0.031,-0.284 0.038,-0.323 0.053,-0.356C0.067,-0.389 0.086,-0.416 0.111,-0.437C0.136,-0.458 0.164,-0.474 0.197,-0.485C0.229,-0.496 0.263,-0.501 0.299,-0.501C0.347,-0.501 0.384,-0.492 0.41,-0.475C0.436,-0.458 0.449,-0.435 0.449,-0.408C0.449,-0.395 0.446,-0.384 0.44,-0.373C0.434,-0.362 0.427,-0.352 0.419,-0.344C0.408,-0.349 0.394,-0.355 0.378,-0.36C0.362,-0.365 0.345,-0.367 0.326,-0.367Z" style="fill:rgb(225,2,113);fill-rule:nonzero;"/>
                    </g>
                    <g transform="matrix(36,0,0,36,429.79,2652.61)">
                        <path d="M0.032,-0.395C0.032,-0.423 0.041,-0.446 0.058,-0.465C0.075,-0.484 0.099,-0.493 0.129,-0.493C0.159,-0.493 0.183,-0.484 0.2,-0.465C0.217,-0.446 0.226,-0.423 0.226,-0.395C0.226,-0.367 0.217,-0.344 0.2,-0.325C0.183,-0.306 0.159,-0.297 0.129,-0.297C0.099,-0.297 0.075,-0.306 0.058,-0.325C0.041,-0.344 0.032,-0.367 0.032,-0.395ZM0.032,-0.081C0.032,-0.109 0.041,-0.132 0.058,-0.151C0.075,-0.17 0.099,-0.179 0.129,-0.179C0.159,-0.179 0.183,-0.17 0.2,-0.151C0.217,-0.132 0.226,-0.109 0.226,-0.081C0.226,-0.053 0.217,-0.03 0.2,-0.011C0.183,0.008 0.159,0.017 0.129,0.017C0.099,0.017 0.075,0.008 0.058,-0.011C0.041,-0.03 0.032,-0.053 0.032,-0.081Z" style="fill:rgb(225,2,113);fill-rule:nonzero;"/>
                    </g>
                    <g transform="matrix(36,0,0,36,439.078,2652.61)">
                        <path d="M0.048,-0.328C0.043,-0.335 0.04,-0.345 0.037,-0.357C0.034,-0.369 0.032,-0.381 0.032,-0.393C0.032,-0.417 0.037,-0.435 0.048,-0.446C0.059,-0.456 0.073,-0.462 0.091,-0.462L0.441,-0.462C0.444,-0.454 0.448,-0.444 0.452,-0.433C0.455,-0.421 0.457,-0.409 0.457,-0.396C0.457,-0.373 0.452,-0.356 0.441,-0.345C0.43,-0.334 0.416,-0.328 0.399,-0.328L0.048,-0.328ZM0.048,-0.129C0.043,-0.136 0.04,-0.146 0.037,-0.158C0.034,-0.17 0.032,-0.182 0.032,-0.194C0.032,-0.218 0.037,-0.236 0.048,-0.247C0.059,-0.258 0.073,-0.263 0.091,-0.263L0.441,-0.263C0.444,-0.255 0.448,-0.245 0.452,-0.234C0.455,-0.222 0.457,-0.21 0.457,-0.197C0.457,-0.174 0.452,-0.157 0.441,-0.146C0.43,-0.134 0.416,-0.129 0.399,-0.129L0.048,-0.129Z" style="fill:rgb(225,2,113);fill-rule:nonzero;"/>
                    </g>
                    <g transform="matrix(36,0,0,36,456.682,2652.61)">
                        <path d="M0.241,-0.623C0.279,-0.623 0.313,-0.618 0.342,-0.609C0.371,-0.599 0.396,-0.586 0.417,-0.569C0.438,-0.552 0.453,-0.533 0.464,-0.51C0.475,-0.487 0.48,-0.463 0.48,-0.437C0.48,-0.367 0.44,-0.3 0.361,-0.237L0.23,-0.132L0.47,-0.132C0.474,-0.125 0.478,-0.115 0.482,-0.104C0.485,-0.093 0.487,-0.08 0.487,-0.067C0.487,-0.043 0.482,-0.026 0.471,-0.016C0.46,-0.005 0.446,-0 0.429,-0L0.082,-0C0.067,-0.01 0.056,-0.023 0.048,-0.039C0.039,-0.054 0.035,-0.073 0.035,-0.094C0.035,-0.117 0.04,-0.136 0.049,-0.152C0.058,-0.167 0.069,-0.18 0.08,-0.189L0.218,-0.307C0.235,-0.322 0.25,-0.335 0.261,-0.347C0.272,-0.358 0.282,-0.369 0.289,-0.378C0.296,-0.387 0.301,-0.396 0.304,-0.404C0.307,-0.412 0.308,-0.42 0.308,-0.427C0.308,-0.446 0.3,-0.46 0.284,-0.471C0.267,-0.482 0.247,-0.487 0.223,-0.487C0.196,-0.487 0.172,-0.483 0.152,-0.475C0.13,-0.466 0.113,-0.457 0.099,-0.448C0.088,-0.456 0.078,-0.466 0.071,-0.478C0.064,-0.49 0.06,-0.504 0.06,-0.52C0.06,-0.555 0.076,-0.581 0.109,-0.598C0.142,-0.615 0.186,-0.623 0.241,-0.623Z" style="fill:rgb(225,2,113);fill-rule:nonzero;"/>
                    </g>
                </g>
            </g>
        </g>
    </g>
    <defs>
        <linearGradient id="_Linear1" x1="0" y1="0" x2="1" y2="0" gradientUnits="userSpaceOnUse" gradientTransform="matrix(619.975,0,0,792.896,100.437,398.61)"><stop offset="0" style="stop-color:rgb(15,123,193);stop-opacity:1"/><stop offset="1" style="stop-color:rgb(91,203,245);stop-opacity:1"/></linearGradient>
    </defs>
</svg>
