<?xml version="1.0" encoding="UTF-8" standalone="no"?>
<!DOCTYPE svg PUBLIC "-//W3C//DTD SVG 1.1//EN" "http://www.w3.org/Graphics/SVG/1.1/DTD/svg11.dtd">
<svg width="100%" height="100%" viewBox="0 0 601 140" version="1.1" xmlns="http://www.w3.org/2000/svg" xmlns:xlink="http://www.w3.org/1999/xlink" xml:space="preserve" xmlns:serif="http://www.serif.com/" style="fill-rule:evenodd;clip-rule:evenodd;stroke-linejoin:round;stroke-miterlimit:2;">
    <g transform="matrix(1,0,0,1,-201,-5380)">
        <g id="Visibility" transform="matrix(0.585938,0,0,0.182292,201.763,5380)">
            <rect x="0" y="0" width="1024" height="768" style="fill:none;"/>
            <g id="Gopher" transform="matrix(0.282799,0,0,0.908995,395.932,36.3382)">
                <path d="M381.081,363.552C378.301,364.788 373.668,395.058 387.876,396.602C397.452,397.529 423.707,400.618 429.884,396.602C441.931,388.88 440.695,370.347 433.9,365.714C422.471,358.301 384.17,362.008 381.081,363.552Z" style="fill:white;fill-rule:nonzero;"/>
                <path d="M715.598,106.873C739.382,155.985 667.104,161.236 670.811,183.166C677.606,222.703 672.973,281.39 667.722,339.151C658.764,437.066 731.969,671.506 579.382,765.714C550.656,783.629 482.394,793.514 415.058,795.058L414.44,795.058C347.104,793.514 269.575,783.629 240.849,765.714C88.571,671.506 161.776,437.066 153.127,339.151C147.568,281.39 142.934,222.703 150.039,183.166C153.745,161.236 81.467,156.293 105.251,106.873C125.637,64.556 175.985,101.931 188.649,88.649C253.205,21.622 331.66,3.707 393.436,2.162L427.413,2.162C488.88,5.251 567.336,21.931 632.201,88.649C644.865,101.931 694.903,64.556 715.598,106.873ZM381.081,363.552C378.301,364.788 373.668,395.058 387.876,396.602C397.452,397.529 423.707,400.618 429.884,396.602C441.931,388.88 440.695,370.347 433.9,365.714C422.471,358.301 384.17,362.008 381.081,363.552Z" style="fill:url(#_Linear1);fill-rule:nonzero;"/>
                <path d="M410.425,299.614C429.884,296.834 476.525,319.073 473.436,345.328C469.73,375.907 353.282,379.923 347.104,343.475C343.398,321.236 361.004,307.027 410.425,299.614ZM608.726,769.73C614.903,778.687 615.212,784.865 605.328,789.498C567.645,806.795 533.977,783.629 546.641,777.143C573.514,763.552 590.193,742.239 608.726,769.73ZM211.815,772.819C230.347,745.328 247.027,766.641 273.9,780.232C286.564,786.718 252.896,809.884 215.212,792.587C205.328,787.954 205.637,781.776 211.815,772.819Z" style="fill:rgb(172,163,155);fill-rule:nonzero;"/>
                <path d="M657.838,114.286C659.382,107.799 675.444,104.71 684.402,115.83C695.212,129.112 668.649,147.336 667.413,139.923C664.324,119.846 655.985,120.772 657.838,114.286ZM162.703,114.286C164.556,120.772 156.216,119.846 153.127,139.923C151.892,147.336 125.328,129.112 136.139,115.83C144.788,104.71 160.849,107.799 162.703,114.286ZM378.61,314.44C382.317,300.232 395.29,295.598 405.792,295.29C432.664,294.672 442.857,309.189 443.784,320.618C445.637,340.077 370.27,344.71 378.61,314.44Z" style="fill:rgb(65,65,65);fill-rule:nonzero;"/>
            </g>
            <g transform="matrix(0.390241,-0.124128,0.0386177,1.25435,520.389,-267.824)">
                <path d="M147.259,545.792C113.282,546.1 129.961,473.205 150.965,487.722C161.158,494.826 163.012,511.197 163.012,525.097C163.012,532.819 156.834,545.483 147.259,545.792Z" style="fill:rgb(172,163,155);fill-rule:nonzero;"/>
            </g>
            <g transform="matrix(0.36779,0.437305,-0.13605,1.18218,246.683,-534.383)">
                <path d="M673.282,545.792C663.707,545.483 657.529,532.819 657.529,525.097C657.529,511.197 659.382,494.826 669.575,487.722C690.579,473.205 707.259,546.1 673.282,545.792Z" style="fill:rgb(172,163,155);fill-rule:nonzero;"/>
            </g>
            <g transform="matrix(0.0161757,0,0,0.0519933,400.937,10.4044)">
                <path d="M4961,3721C4708,3784 4538,3893 4367,4104C4287,4203 4131,4399 4096,4445C4081,4465 4056,4481 4033,4487C3890,4521 3835,4537 3733,4575C3669,4598 3584,4634 3544,4653C3462,4694 3282,4802 3250,4832C3238,4842 3202,4871 3169,4896C3095,4953 2975,5069 2893,5166C2837,5230 2783,5293 2610,5487C2507,5604 2441,5679 2325,5811C2258,5889 2195,5961 2185,5970C2176,5979 2157,6001 2143,6017C2129,6034 2093,6076 2064,6111C1842,6371 1684,6676 1598,7008C1531,7267 1528,7294 1528,7607C1529,7877 1531,7904 1556,8022C1609,8265 1644,8378 1727,8562C1954,9068 2403,9512 2903,9728C2932,9740 2965,9755 2977,9760C2988,9765 3031,9781 3071,9795C3137,9818 3170,9828 3308,9864C3459,9905 3722,9935 3747,9914C3760,9904 3761,9904 3755,9914C3740,9939 4082,9925 4231,9895C4635,9814 4943,9682 5229,9467C5439,9309 5631,9106 5781,8883C5923,8671 6068,8334 6112,8112L6124,8049L6163,8099C6213,8161 6302,8247 6363,8291C6421,8333 6571,8398 6644,8414C6967,8483 7294,8362 7490,8100C7530,8047 7534,8045 7537,8069C7545,8130 7629,8412 7646,8431C7651,8436 7655,8448 7655,8456C7655,8488 7808,8780 7883,8891C8213,9380 8703,9724 9261,9859C9446,9903 9552,9918 9748,9924C9908,9930 9935,9929 9927,9916C9920,9904 9922,9904 9934,9913C9952,9927 10095,9916 10227,9890C10325,9871 10504,9826 10537,9813C10548,9808 10604,9786 10661,9765C10790,9716 10974,9623 11078,9555C11360,9370 11627,9093 11809,8796C12066,8379 12182,7839 12123,7333C12073,6907 11901,6493 11635,6159C11590,6104 11547,6051 11538,6042C11530,6034 11469,5965 11403,5890C11338,5815 11281,5751 11278,5748C11275,5746 11239,5705 11198,5659C11158,5613 11112,5561 11097,5544C10975,5406 10874,5291 10821,5229C10717,5107 10553,4944 10464,4874C10243,4702 9967,4568 9713,4508C9663,4497 9615,4485 9605,4482C9587,4477 9564,4449 9348,4177C9142,3917 9025,3827 8778,3742C8680,3708 8675,3707 8495,3707C8308,3707 8257,3715 8132,3764C7991,3819 7811,3944 7738,4039C7718,4064 7699,4087 7696,4089C7676,4107 7615,4208 7582,4282C7483,4496 7468,4695 7528,4982C7547,5072 7569,5177 7577,5217C7585,5257 7593,5292 7596,5294C7598,5297 7580,5330 7556,5369C7531,5407 7495,5468 7476,5504C7457,5540 7439,5570 7435,5570C7432,5570 7415,5545 7398,5515C7357,5441 7233,5319 7157,5278C7032,5211 6980,5198 6830,5198C6682,5198 6646,5207 6526,5268C6410,5326 6301,5433 6248,5538L6224,5585L6208,5554C6185,5508 6112,5381 6084,5339L6060,5302L6101,5108C6124,5001 6148,4888 6154,4856C6161,4823 6164,4738 6161,4656C6155,4496 6128,4381 6062,4252C5995,4120 5872,3973 5765,3896C5744,3881 5723,3865 5716,3860C5669,3820 5485,3745 5369,3718C5266,3695 5060,3696 4961,3721ZM4048,5749C4189,5765 4415,5820 4501,5859C4519,5868 4537,5874 4542,5874C4555,5874 4726,5960 4793,6000C5143,6207 5420,6532 5580,6924C5753,7350 5747,7879 5565,8315C5450,8588 5240,8873 5030,9042C5009,9058 4990,9074 4988,9077C4985,9080 4975,9087 4965,9093C4956,9099 4907,9131 4855,9165C4204,9596 3332,9561 2706,9079C2405,8847 2160,8493 2061,8148C1999,7932 1982,7816 1982,7602C1983,7223 2082,6889 2288,6573C2318,6527 2315,6531 2398,6426C2430,6386 2453,6349 2450,6345C2447,6340 2449,6337 2455,6339C2460,6340 2505,6304 2553,6258C2640,6175 2704,6124 2809,6052C2994,5925 3218,5831 3470,5775C3625,5740 3875,5729 4048,5749ZM10015,5749C10379,5787 10737,5943 11028,6189C11217,6350 11358,6530 11478,6767C11566,6941 11593,7018 11641,7229C11668,7352 11670,7376 11670,7596C11670,7862 11655,7969 11586,8182C11547,8306 11432,8549 11390,8599C11376,8617 11357,8645 11348,8662C11317,8721 11160,8899 11058,8990C10638,9364 10078,9530 9532,9443C9400,9422 9220,9376 9151,9346C9133,9338 9098,9323 9072,9312C8951,9261 8751,9144 8673,9078C8427,8869 8282,8693 8159,8455C8067,8275 8018,8130 7974,7901C7945,7754 7947,7433 7978,7281C8033,7012 8106,6822 8233,6618C8388,6370 8605,6157 8863,6001C8910,5972 8954,5948 8958,5948C8963,5948 8985,5937 9007,5924C9115,5858 9424,5767 9592,5752C9632,5749 9667,5744 9670,5742C9679,5734 9917,5738 10015,5749ZM6909,7114C7103,7146 7267,7303 7312,7501C7333,7593 7333,7624 7313,7705C7278,7844 7192,7965 7084,8026C7015,8065 6895,8100 6831,8100C6710,8100 6569,8042 6484,7956C6281,7751 6287,7427 6498,7234C6570,7168 6719,7107 6815,7104C6829,7104 6871,7108 6909,7114Z" style="fill:rgb(32,32,32);fill-rule:nonzero;"/>
            </g>
            <g transform="matrix(0.0161757,0,0,0.0519933,400.937,10.4044)">
                <path d="M6909,7114C7103,7146 7267,7303 7312,7501C7333,7593 7333,7624 7313,7705C7278,7844 7192,7965 7084,8026C7015,8065 6895,8100 6831,8100C6710,8100 6569,8042 6484,7956C6281,7751 6287,7427 6498,7234C6570,7168 6719,7107 6815,7104C6829,7104 6871,7108 6909,7114Z" style="fill:rgb(65,65,65);fill-rule:nonzero;"/>
            </g>
            <g transform="matrix(0.0161757,0,0,0.0519933,400.937,10.4044)">
                <path d="M4048,5749C4189,5765 4415,5820 4501,5859C4519,5868 4537,5874 4542,5874C4555,5874 4726,5960 4793,6000C5143,6207 5420,6532 5580,6924C5753,7350 5747,7879 5565,8315C5450,8588 5240,8873 5030,9042C5009,9058 4990,9074 4988,9077C4985,9080 4975,9087 4965,9093C4956,9099 4907,9131 4855,9165C4204,9596 3332,9561 2706,9079C2405,8847 2160,8493 2061,8148C1999,7932 1982,7816 1982,7602C1983,7223 2082,6889 2288,6573C2318,6527 2315,6531 2398,6426C2430,6386 2453,6349 2450,6345C2447,6340 2449,6337 2455,6339C2460,6340 2505,6304 2553,6258C2640,6175 2704,6124 2809,6052C2994,5925 3218,5831 3470,5775C3625,5740 3875,5729 4048,5749ZM10015,5749C10379,5787 10737,5943 11028,6189C11217,6350 11358,6530 11478,6767C11566,6941 11593,7018 11641,7229C11668,7352 11670,7376 11670,7596C11670,7862 11655,7969 11586,8182C11547,8306 11432,8549 11390,8599C11376,8617 11357,8645 11348,8662C11317,8721 11160,8899 11058,8990C10638,9364 10078,9530 9532,9443C9400,9422 9220,9376 9151,9346C9133,9338 9098,9323 9072,9312C8951,9261 8751,9144 8673,9078C8427,8869 8282,8693 8159,8455C8067,8275 8018,8130 7974,7901C7945,7754 7947,7433 7978,7281C8033,7012 8106,6822 8233,6618C8388,6370 8605,6157 8863,6001C8910,5972 8954,5948 8958,5948C8963,5948 8985,5937 9007,5924C9115,5858 9424,5767 9592,5752C9632,5749 9667,5744 9670,5742C9679,5734 9917,5738 10015,5749Z" style="fill:white;fill-rule:nonzero;"/>
            </g>
            <g transform="matrix(0.427084,0,0,1.37277,336.736,92.4372)">
                <path d="M524.71,264.71C505.263,264.71 489.498,248.945 489.498,229.498C489.498,210.051 505.263,194.286 524.71,194.286C544.158,194.286 559.923,210.051 559.923,229.498C559.923,248.945 544.158,264.71 524.71,264.71ZM515.444,225.483C521.585,225.483 526.564,220.504 526.564,214.363C526.564,208.222 521.585,203.243 515.444,203.243C509.303,203.243 504.324,208.222 504.324,214.363C504.324,220.504 509.303,225.483 515.444,225.483ZM295.83,264.71C276.383,264.71 260.618,248.945 260.618,229.498C260.618,210.051 276.383,194.286 295.83,194.286C315.277,194.286 331.042,210.051 331.042,229.498C331.042,248.945 315.277,264.71 295.83,264.71ZM305.097,225.483C311.238,225.483 316.216,220.504 316.216,214.363C316.216,208.222 311.238,203.243 305.097,203.243C298.955,203.243 293.977,208.222 293.977,214.363C293.977,220.504 298.955,225.483 305.097,225.483Z" style="fill:rgb(65,65,65);fill-rule:nonzero;"/>
            </g>
        </g>
    </g>
    <defs>
        <linearGradient id="_Linear1" x1="0" y1="0" x2="1" y2="0" gradientUnits="userSpaceOnUse" gradientTransform="matrix(619.975,0,0,792.896,100.437,398.61)"><stop offset="0" style="stop-color:rgb(15,123,193);stop-opacity:1"/><stop offset="1" style="stop-color:rgb(91,203,245);stop-opacity:1"/></linearGradient>
    </defs>
</svg>
